<svg width="74" height="18" viewBox="0 0 74 18" fill="none" xmlns="http://www.w3.org/2000/svg">
<path d="M22 18V6H18V18H14V0H18V4H24V6H26V18H22ZM32 8V18H28V4H32V6H34V4H38V8H32ZM52 14V16H50V14H52ZM42 18V16H40V6H42V4H50V6H52V12H44V16H50V18H42ZM48 10V6H44V10H48ZM60 2V4H62V6H60V18H56V6H54V4H56V2H58V0H64V2H60ZM70 8V10H72V12H74V16H72V18H66V16H70V14H68V12H66V10H64V6H66V4H72V6H68V8H70ZM64 14H66V16H64V14ZM74 8H72V6H74V8Z" fill="black"/>
<path fill-rule="evenodd" clip-rule="evenodd" d="M2 18V16H0V12H2V10H8V6H2V4H10V6H12V18H2ZM4 12V16H8V12H4ZM0 8V6H2V8H0Z" fill="#FF8800"/>
</svg>
