<svg width="30" height="30" viewBox="0 0 30 30" fill="none" xmlns="http://www.w3.org/2000/svg">
<g clip-path="url(#clip0)">
<path d="M18.5159 0C12.1833 0 7.03148 5.15186 7.03148 11.4844C7.03148 14.1766 7.96312 16.6552 9.52037 18.6154L8.219 19.9168L7.90828 19.6061C7.39423 19.092 6.55787 19.092 6.04382 19.6061C5.63871 20.0112 5.55287 20.6166 5.7863 21.1065L0.642769 26.2501C-0.213931 27.1068 -0.213931 28.5008 0.642769 29.3575C1.49947 30.2142 2.89347 30.2142 3.75017 29.3575L8.89371 24.2139C9.38367 24.4474 9.989 24.3616 10.3942 23.9564C10.9082 23.4424 10.9082 22.606 10.3942 22.092L10.0835 21.7812L11.3848 20.4799C13.3451 22.0371 15.8236 22.9687 18.5159 22.9687C24.8484 22.9687 30.0002 17.8169 30.0002 11.4844C30.0002 5.15186 24.8484 0 18.5159 0ZM1.26427 28.736C0.859155 28.3308 0.773608 27.7256 1.00699 27.2357L2.76451 28.9932C2.27455 29.2267 1.66933 29.1411 1.26427 28.736ZM3.43945 28.4252L2.81794 27.8037L7.5975 23.0242L8.219 23.6457L3.43945 28.4252ZM9.77267 23.335C9.60134 23.5063 9.32255 23.5063 9.15117 23.335L7.90822 22.092C7.7366 21.9204 7.45834 21.9204 7.28671 22.092L2.19644 27.1823L1.57494 26.5608L6.66521 21.4705C6.83683 21.2989 6.83683 21.0206 6.66521 20.849C6.49388 20.6777 6.49388 20.3989 6.66521 20.2275C6.83654 20.0562 7.11533 20.0562 7.28671 20.2275L9.77261 22.7134C9.94406 22.8848 9.94406 23.1636 9.77267 23.335ZM9.46195 21.1598L8.84045 20.5383L10.0946 19.2841C10.2939 19.499 10.5012 19.7063 10.7161 19.9056L9.46195 21.1598ZM18.5159 22.0898C12.668 22.0898 7.91039 17.3323 7.91039 11.4844C7.91039 5.63648 12.668 0.878906 18.5159 0.878906C24.3637 0.878906 29.1213 5.63648 29.1213 11.4844C29.1213 17.3323 24.3637 22.0898 18.5159 22.0898Z" fill="white"/>
<path d="M18.5156 1.75781C16.2572 1.75781 14.0567 2.54941 12.3194 3.98672C12.1324 4.14146 12.1062 4.41844 12.2609 4.60547C12.4157 4.7925 12.6926 4.81869 12.8797 4.66395C14.4598 3.35666 16.4613 2.63672 18.5156 2.63672C23.3943 2.63672 27.3633 6.60574 27.3633 11.4844C27.3633 16.363 23.3943 20.332 18.5156 20.332C13.637 20.332 9.66797 16.363 9.66797 11.4844C9.66797 9.43008 10.3879 7.42852 11.6952 5.84836C11.8499 5.66139 11.8237 5.38436 11.6367 5.22961C11.4497 5.07486 11.1727 5.10111 11.018 5.28809C9.58066 7.02545 8.78906 9.226 8.78906 11.4844C8.78906 16.8476 13.1524 21.2109 18.5156 21.2109C23.8789 21.2109 28.2422 16.8476 28.2422 11.4844C28.2422 6.12111 23.8789 1.75781 18.5156 1.75781Z" fill="white"/>
<path d="M13.2422 11.9237C12.5152 11.9237 11.9238 12.5151 11.9238 13.2421C11.9238 13.969 12.5152 14.5604 13.2422 14.5604C13.9692 14.5604 14.5605 13.969 14.5605 13.2421C14.5605 13.0388 14.5143 12.8462 14.4317 12.6741L16.1897 10.916C16.3618 10.9985 16.5545 11.0449 16.7578 11.0449C16.9611 11.0449 17.1537 10.9986 17.3259 10.916L19.0839 12.6741C19.0014 12.8462 18.9551 13.0388 18.9551 13.2421C18.9551 13.9691 19.5465 14.5605 20.2734 14.5605C21.0004 14.5605 21.5918 13.9691 21.5918 13.2421C21.5918 13.0389 21.5455 12.8462 21.4629 12.6741L23.221 10.9161C23.3931 10.9986 23.5857 11.0449 23.7891 11.0449C24.516 11.0449 25.1074 10.4535 25.1074 9.72656C25.1074 8.99959 24.516 8.4082 23.7891 8.4082C23.0621 8.4082 22.4707 8.99959 22.4707 9.72656C22.4707 9.92982 22.517 10.1225 22.5996 10.2946L20.8415 12.0527C20.6694 11.9701 20.4768 11.9238 20.2734 11.9238C20.0702 11.9238 19.8775 11.9701 19.7054 12.0527L17.9473 10.2946C18.0298 10.1225 18.0762 9.92988 18.0762 9.72662C18.0762 8.99965 17.4848 8.40826 16.7578 8.40826C16.0308 8.40826 15.4395 8.99965 15.4395 9.72662C15.4395 9.92988 15.4857 10.1225 15.5683 10.2947L13.8103 12.0527C13.6381 11.97 13.4455 11.9237 13.2422 11.9237ZM13.2422 13.6815C12.9998 13.6815 12.8027 13.4844 12.8027 13.2421C12.8027 12.9997 12.9998 12.8026 13.2422 12.8026C13.4845 12.8026 13.6816 12.9997 13.6816 13.2421C13.6816 13.4844 13.4845 13.6815 13.2422 13.6815ZM23.7891 9.28699C24.0314 9.28699 24.2285 9.4841 24.2285 9.72645C24.2285 9.96879 24.0314 10.1659 23.7891 10.1659C23.5467 10.1659 23.3496 9.96879 23.3496 9.72645C23.3496 9.4841 23.5467 9.28699 23.7891 9.28699ZM20.2734 12.8026C20.5158 12.8026 20.7129 12.9997 20.7129 13.2421C20.7129 13.4844 20.5158 13.6815 20.2734 13.6815C20.0311 13.6815 19.834 13.4844 19.834 13.2421C19.834 12.9997 20.0311 12.8026 20.2734 12.8026ZM16.7578 9.28699C17.0002 9.28699 17.1973 9.4841 17.1973 9.72645C17.1973 9.96879 17.0002 10.1659 16.7578 10.1659C16.5155 10.1659 16.3184 9.96879 16.3184 9.72645C16.3184 9.4841 16.5155 9.28699 16.7578 9.28699Z" fill="white"/>
</g>
<defs>
<clipPath id="clip0">
<rect width="30" height="30" fill="white"/>
</clipPath>
</defs>
</svg>
