<svg width="60" height="60" viewBox="0 0 60 60" fill="none" xmlns="http://www.w3.org/2000/svg">
<path d="M59.0625 52.0313H0.937527C0.59159 52.0313 0.273778 51.841 0.110653 51.5363C-0.0524724 51.2316 -0.0337224 50.8613 0.157528 50.5744L9.53253 36.5119C9.81846 36.0807 10.3997 35.9644 10.8328 36.2522C11.2641 36.54 11.3803 37.1213 11.0925 37.5525L2.68878 50.1563H57.3113L48.9075 37.5516C48.6197 37.1204 48.736 36.5391 49.1672 36.2513C49.5985 35.9635 50.1806 36.0797 50.4675 36.511L59.8425 50.5735C60.0338 50.8613 60.0525 51.2307 59.8894 51.5354C59.7263 51.84 59.4085 52.0313 59.0625 52.0313Z" fill="#3C2458"/>
<path d="M59.0625 55.7812H0.9375C0.419063 55.7812 0 55.3622 0 54.8438V51.0938C0 50.5753 0.419063 50.1562 0.9375 50.1562H59.0625C59.5809 50.1562 60 50.5753 60 51.0938V54.8438C60 55.3622 59.5809 55.7812 59.0625 55.7812ZM1.875 53.9062H58.125V52.0312H1.875V53.9062Z" fill="#3C2458"/>
<path d="M9.23341 52.0312C9.09841 52.0312 8.96153 52.0022 8.83028 51.9394C8.36341 51.7172 8.16466 51.1575 8.38778 50.6897L13.3031 40.3772C13.5243 39.9112 14.0803 39.7116 14.5528 39.9347C15.0196 40.1569 15.2184 40.7166 14.9953 41.1844L10.08 51.4969C9.91965 51.8344 9.58403 52.0312 9.23341 52.0312Z" fill="#3C2458"/>
<path d="M18.8756 47.3437C18.7893 47.3437 18.7022 47.3315 18.6168 47.3072C18.119 47.1647 17.8312 46.6453 17.9737 46.1484L19.3181 41.4609C19.4597 40.9622 19.9847 40.6753 20.4768 40.8178C20.9747 40.9603 21.2625 41.4797 21.12 41.9765L19.7756 46.664C19.6584 47.0765 19.2825 47.3437 18.8756 47.3437Z" fill="#3C2458"/>
<path d="M50.7666 52.0311C50.4159 52.0311 50.0803 51.8342 49.92 51.4977L48.1313 47.7458C47.9081 47.278 48.1069 46.7183 48.5737 46.4961C49.0453 46.2721 49.6022 46.4727 49.8234 46.9386L51.6122 50.6905C51.8353 51.1583 51.6366 51.718 51.1697 51.9402C51.0384 52.0021 50.9016 52.0311 50.7666 52.0311Z" fill="#3C2458"/>
<path d="M47.189 44.5264C46.8384 44.5264 46.5028 44.3296 46.3424 43.993L43.2168 37.4352C42.9937 36.9674 43.1924 36.4077 43.6593 36.1855C44.1309 35.9605 44.6878 36.1621 44.909 36.628L48.0346 43.1858C48.2578 43.6536 48.059 44.2133 47.5921 44.4355C47.4609 44.4974 47.324 44.5264 47.189 44.5264Z" fill="#3C2458"/>
<path d="M41.1244 47.3439C40.7166 47.3439 40.3425 47.0767 40.2244 46.6642L38.88 41.9768C38.7375 41.4799 39.0244 40.9605 39.5232 40.818C40.0172 40.6764 40.5394 40.9614 40.6819 41.4611L42.0263 46.1486C42.1688 46.6455 41.8819 47.1649 41.3832 47.3074C41.2978 47.3317 41.2107 47.3439 41.1244 47.3439Z" fill="#3C2458"/>
<path d="M14.1506 41.7188H7.81219C7.29376 41.7188 6.87469 41.2997 6.87469 40.7812C6.87469 40.2628 7.29376 39.8438 7.81219 39.8438H14.1506C14.6691 39.8438 15.0881 40.2628 15.0881 40.7812C15.0881 41.2997 14.6681 41.7188 14.1506 41.7188Z" fill="#3C2458"/>
<path d="M56.5622 48.2812H48.9788C48.4603 48.2812 48.0413 47.8622 48.0413 47.3438C48.0413 46.8253 48.4603 46.4062 48.9788 46.4062H56.5622C57.0806 46.4062 57.4997 46.8253 57.4997 47.3438C57.4997 47.8622 57.0806 48.2812 56.5622 48.2812Z" fill="#3C2458"/>
<path d="M54.0628 44.5312H47.1909C46.6725 44.5312 46.2534 44.1122 46.2534 43.5938C46.2534 43.0753 46.6725 42.6562 47.1909 42.6562H54.0628C54.5812 42.6562 55.0003 43.0753 55.0003 43.5938C55.0003 44.1122 54.5812 44.5312 54.0628 44.5312Z" fill="#3C2458"/>
<path d="M28.125 42.6562H20.2181C19.6997 42.6562 19.2806 42.2372 19.2806 41.7188C19.2806 41.2003 19.6997 40.7812 20.2181 40.7812H28.125C28.6435 40.7812 29.0625 41.2003 29.0625 41.7188C29.0625 42.2372 28.6435 42.6562 28.125 42.6562Z" fill="#3C2458"/>
<path d="M39.7818 42.6562H31.9622C31.4437 42.6562 31.0247 42.2372 31.0247 41.7188C31.0247 41.2003 31.4437 40.7812 31.9622 40.7812H39.7818C40.3003 40.7812 40.7193 41.2003 40.7193 41.7188C40.7193 42.2372 40.2993 42.6562 39.7818 42.6562Z" fill="#3C2458"/>
<path d="M41.1253 47.3438H18.8747C18.3563 47.3438 17.9372 46.9247 17.9372 46.4062C17.9372 45.8878 18.3563 45.4688 18.8747 45.4688H41.1253C41.6438 45.4688 42.0628 45.8878 42.0628 46.4062C42.0628 46.9247 41.6438 47.3438 41.1253 47.3438Z" fill="#3C2458"/>
<path d="M30 44.5312C29.7797 44.5312 29.5584 44.4534 29.3822 44.2987C28.7953 43.7841 15 31.5553 15 19.2188C15 10.9481 21.7294 4.21875 30 4.21875C38.2706 4.21875 45 10.9481 45 19.2188C45 31.5553 31.2047 43.7841 30.6178 44.2987C30.4416 44.4534 30.2203 44.5312 30 44.5312ZM30 6.09375C22.7625 6.09375 16.875 11.9813 16.875 19.2188C16.875 29.2819 27.3225 39.7912 30 42.3197C32.6775 39.7922 43.125 29.2828 43.125 19.2188C43.125 11.9813 37.2375 6.09375 30 6.09375Z" fill="#3C2458"/>
<path d="M23.8378 37.9688H10.3125C9.79406 37.9688 9.375 37.5497 9.375 37.0312C9.375 36.5128 9.79406 36.0938 10.3125 36.0938H23.8378C24.3562 36.0938 24.7753 36.5128 24.7753 37.0312C24.7753 37.5497 24.3553 37.9688 23.8378 37.9688Z" fill="#3C2458"/>
<path d="M49.6875 37.9688H36.1613C35.6428 37.9688 35.2238 37.5497 35.2238 37.0312C35.2238 36.5128 35.6428 36.0938 36.1613 36.0938H49.6875C50.2059 36.0938 50.625 36.5128 50.625 37.0312C50.625 37.5497 50.2059 37.9688 49.6875 37.9688Z" fill="#3C2458"/>
<path d="M30.0009 19.2168C28.4503 19.2168 27.1884 17.9549 27.1884 16.4043C27.1884 14.8537 28.4503 13.5918 30.0009 13.5918C31.5515 13.5918 32.8134 14.8537 32.8134 16.4043C32.8134 17.9549 31.5515 19.2168 30.0009 19.2168ZM30.0009 15.4668C29.4834 15.4668 29.0634 15.8868 29.0634 16.4043C29.0634 16.9218 29.4834 17.3418 30.0009 17.3418C30.5184 17.3418 30.9384 16.9218 30.9384 16.4043C30.9384 15.8868 30.5184 15.4668 30.0009 15.4668Z" fill="#3C2458"/>
<path d="M30.0009 15.4678C29.4825 15.4678 29.0634 15.0487 29.0634 14.5303V11.7178C29.0634 11.1993 29.4825 10.7803 30.0009 10.7803C30.5194 10.7803 30.9384 11.1993 30.9384 11.7178V14.5303C30.9384 15.0487 30.5194 15.4678 30.0009 15.4678Z" fill="#3C2458"/>
<path d="M25.3144 30.4709C25.2178 30.4709 25.1203 30.4559 25.0237 30.4249C24.5315 30.2637 24.2615 29.7349 24.4218 29.2427L28.1719 17.7377C28.3322 17.2455 28.8619 16.9774 29.354 17.1359C29.8462 17.2971 30.1162 17.8259 29.9559 18.318L26.2069 29.8231C26.0765 30.2196 25.709 30.4709 25.3144 30.4709Z" fill="#3C2458"/>
<path d="M34.6912 30.4707C34.2966 30.4707 33.9291 30.2195 33.7997 29.8248L30.0469 18.3189C29.8866 17.8267 30.1556 17.297 30.6478 17.1357C31.1447 16.9792 31.6706 17.2445 31.8309 17.7367L35.5837 29.2417C35.7441 29.7339 35.475 30.2635 34.9828 30.4248C34.8853 30.4557 34.7869 30.4707 34.6912 30.4707Z" fill="#3C2458"/>
<path d="M34.6884 24.8438H25.3125C24.7941 24.8438 24.375 24.4247 24.375 23.9062C24.375 23.3878 24.7941 22.9688 25.3125 22.9688H34.6884C35.2069 22.9688 35.6259 23.3878 35.6259 23.9062C35.6259 24.4247 35.2069 24.8438 34.6884 24.8438Z" fill="#3C2458"/>
</svg>
