<svg width="38" height="38" viewBox="0 0 38 38" fill="none" xmlns="http://www.w3.org/2000/svg">
<mask id="mask0" mask-type="alpha" maskUnits="userSpaceOnUse" x="0" y="0" width="38" height="38">
<circle cx="19" cy="19" r="19" fill="#6ABEE3"/>
</mask>
<g mask="url(#mask0)">
<circle cx="19" cy="19" r="19" fill="#6ABEE3"/>
<path fill-rule="evenodd" clip-rule="evenodd" d="M31.0001 4.00012L0.000115871 35.0001L-5.65674 29.3433L25.3433 -1.65674L31.0001 4.00012Z" fill="url(#paint0_linear)"/>
<path fill-rule="evenodd" clip-rule="evenodd" d="M42.8585 11.8585L11.8585 42.8585L2 33L33 2L42.8585 11.8585Z" fill="url(#paint1_linear)"/>
<path opacity="0.56" fill-rule="evenodd" clip-rule="evenodd" d="M10.6569 -4.00012L41.6569 26.9999L36 32.6567L5 1.65674L10.6569 -4.00012Z" fill="url(#paint2_linear)"/>
<path opacity="0.56" fill-rule="evenodd" clip-rule="evenodd" d="M7 3.49988L37.6569 33.9999L32 39.6567L0.999999 8.65674L7 3.49988Z" fill="url(#paint3_linear)"/>
<path d="M19 16L25.0622 22H12.9378L19 16Z" fill="white"/>
</g>
<defs>
<linearGradient id="paint0_linear" x1="9.84326" y1="13.8433" x2="15.5001" y2="19.5001" gradientUnits="userSpaceOnUse">
<stop stop-color="#0EB9A5"/>
<stop offset="1" stop-color="#5BB6DC"/>
</linearGradient>
<linearGradient id="paint1_linear" x1="12.5" y1="34" x2="36.5" y2="10.5" gradientUnits="userSpaceOnUse">
<stop stop-color="#0EB9A5"/>
<stop offset="0.229167" stop-color="#59AADF"/>
<stop offset="0.708333" stop-color="#6CACEA"/>
<stop offset="1" stop-color="#1FA2BB"/>
</linearGradient>
<linearGradient id="paint2_linear" x1="13.5" y1="5.49988" x2="35.5" y2="25.4999" gradientUnits="userSpaceOnUse">
<stop stop-color="#05CA99"/>
<stop offset="1" stop-color="#3480D6"/>
</linearGradient>
<linearGradient id="paint3_linear" x1="9.5" y1="12.4999" x2="31.5" y2="32.4999" gradientUnits="userSpaceOnUse">
<stop stop-color="#05CA99" stop-opacity="0.49"/>
<stop offset="1" stop-color="#3480D6"/>
</linearGradient>
</defs>
</svg>
