<svg width="322" height="304" viewBox="0 0 322 304" fill="none" xmlns="http://www.w3.org/2000/svg">
<circle opacity="0.8" cx="156.777" cy="151.862" r="138.866" stroke="#F8CBE5" stroke-width="3"/>
<circle cx="156.475" cy="151.559" r="150.059" stroke="#F8CBE5" stroke-width="3"/>
<path opacity="0.6" d="M282.333 151.559C282.333 220.731 226.123 276.812 156.778 276.812C87.4317 276.812 31.2219 220.731 31.2219 151.559C31.2219 82.3873 87.4317 26.3062 156.778 26.3062C226.123 26.3062 282.333 82.3873 282.333 151.559Z" stroke="#F8CBE5" stroke-width="3"/>
<circle opacity="0.4" cx="156.777" cy="151.862" r="112.245" stroke="#F8CBE5" stroke-width="3"/>
<circle opacity="0.2" cx="156.475" cy="151.559" r="98.632" stroke="#F8CBE5" stroke-width="3"/>
<circle opacity="0.23" cx="156.172" cy="154.282" r="42.9569" fill="#E21F8C"/>
<path d="M128.89 156.271C128.89 157.25 128.717 158.109 128.371 158.848C128.024 159.586 127.527 160.156 126.88 160.557C126.238 160.958 125.499 161.158 124.665 161.158C123.841 161.158 123.105 160.96 122.457 160.563C121.81 160.167 121.309 159.602 120.954 158.868C120.598 158.13 120.418 157.282 120.413 156.325V155.833C120.413 154.853 120.589 153.992 120.94 153.249C121.295 152.502 121.794 151.93 122.437 151.533C123.084 151.132 123.822 150.932 124.652 150.932C125.481 150.932 126.217 151.132 126.86 151.533C127.507 151.93 128.006 152.502 128.357 153.249C128.712 153.992 128.89 154.851 128.89 155.826V156.271ZM126.812 155.819C126.812 154.776 126.625 153.983 126.251 153.44C125.878 152.898 125.344 152.627 124.652 152.627C123.964 152.627 123.433 152.896 123.059 153.434C122.685 153.967 122.496 154.751 122.492 155.785V156.271C122.492 157.287 122.678 158.075 123.052 158.636C123.426 159.196 123.964 159.477 124.665 159.477C125.354 159.477 125.882 159.208 126.251 158.67C126.621 158.128 126.807 157.339 126.812 156.305V155.819ZM137.913 151.068V157.624C137.913 158.713 137.572 159.575 136.888 160.208C136.209 160.841 135.279 161.158 134.099 161.158C132.937 161.158 132.014 160.851 131.33 160.235C130.647 159.62 130.298 158.775 130.285 157.699V151.068H132.335V157.638C132.335 158.289 132.49 158.766 132.8 159.066C133.115 159.363 133.548 159.511 134.099 159.511C135.252 159.511 135.838 158.905 135.856 157.692V151.068H137.913ZM147.087 152.729H144.038V161.021H141.988V152.729H138.98V151.068H147.087V152.729ZM151.948 157.378H150.314V161.021H148.263V151.068H151.961C153.137 151.068 154.044 151.33 154.682 151.854C155.32 152.379 155.639 153.119 155.639 154.076C155.639 154.755 155.491 155.323 155.195 155.778C154.903 156.229 154.459 156.59 153.862 156.858L156.015 160.926V161.021H153.814L151.948 157.378ZM150.314 155.717H151.968C152.483 155.717 152.882 155.587 153.164 155.327C153.447 155.063 153.588 154.701 153.588 154.24C153.588 153.771 153.454 153.402 153.185 153.133C152.921 152.864 152.513 152.729 151.961 152.729H150.314V155.717ZM163.193 156.708H159.255V159.374H163.876V161.021H157.204V151.068H163.863V152.729H159.255V155.102H163.193V156.708ZM170.699 158.971H167.103L166.419 161.021H164.239L167.944 151.068H169.844L173.57 161.021H171.389L170.699 158.971ZM167.657 157.31H170.145L168.894 153.584L167.657 157.31ZM182.163 157.706C182.085 158.777 181.689 159.62 180.973 160.235C180.262 160.851 179.323 161.158 178.157 161.158C176.881 161.158 175.876 160.73 175.142 159.873C174.413 159.012 174.048 157.831 174.048 156.332V155.724C174.048 154.767 174.217 153.924 174.554 153.194C174.891 152.465 175.372 151.907 175.996 151.52C176.625 151.128 177.355 150.932 178.184 150.932C179.332 150.932 180.258 151.239 180.959 151.854C181.661 152.47 182.067 153.333 182.176 154.445H180.125C180.075 153.803 179.895 153.338 179.585 153.051C179.28 152.759 178.813 152.613 178.184 152.613C177.5 152.613 176.988 152.859 176.646 153.352C176.309 153.839 176.135 154.598 176.126 155.628V156.38C176.126 157.455 176.288 158.242 176.612 158.738C176.94 159.235 177.455 159.483 178.157 159.483C178.79 159.483 179.262 159.34 179.572 159.053C179.886 158.761 180.066 158.312 180.112 157.706H182.163ZM191.61 161.021H189.559V156.756H185.56V161.021H183.509V151.068H185.56V155.102H189.559V151.068H191.61V161.021Z" fill="#222222"/>
<g clip-path="url(#clip0)">
<path d="M36.9821 224.464H105.955V234.144H25.4866C25.4866 231.071 25.4866 228.003 25.4866 224.93C25.4866 224.554 25.5713 224.409 25.9524 224.464C26.618 225.377 26.5212 226.43 26.5575 227.489V233.194H28.191V227.773C28.421 227.931 28.6872 228.027 28.7961 228.215C29.5766 229.588 30.3268 230.98 31.0952 232.329C31.2441 232.527 31.4215 232.703 31.6215 232.849C32.7711 231.034 33.5939 229.219 34.7919 227.658L34.9915 227.737V233.182H36.9397C36.8537 232.745 36.8011 232.302 36.7824 231.857C36.8248 229.401 36.9034 226.938 36.9821 224.464ZM72.1342 228.644C72.6092 229.014 73.0561 229.419 73.4713 229.854C74.4151 230.98 75.8914 231.597 76.4964 233.061C76.4964 233.14 76.7021 233.206 76.805 233.212C77.295 233.212 77.7912 233.212 78.2631 233.212V226.472H76.805C76.805 227.682 76.805 228.892 76.805 230.066C76.7744 230.245 76.713 230.417 76.6234 230.574C76.471 230.512 76.3251 230.435 76.1878 230.345C75.6191 229.842 75.0443 229.352 74.518 228.808C73.8645 228.142 73.2656 227.416 72.6242 226.733C72.5018 226.586 72.3332 226.486 72.1463 226.448C71.6259 226.412 71.0996 226.448 70.5671 226.448C70.8623 228.678 70.8765 230.936 70.6095 233.17H72.1342V228.644ZM80.4896 233.2H81.0946C82.3489 233.25 83.605 233.236 84.8579 233.158C85.6778 233.062 86.4646 232.779 87.157 232.329C88.1008 231.724 88.367 229.231 87.8104 228.173C87.602 227.717 87.2673 227.33 86.8458 227.059C86.4243 226.787 85.9339 226.643 85.4326 226.642L80.4775 226.345L80.4896 233.2ZM39.1723 226.448C39.3114 228.717 39.2509 230.931 39.2146 233.2H45.8699V232.099C44.3876 232.099 42.9779 232.099 41.5742 232.099C41.3443 232.099 40.9692 231.984 40.9087 231.821C40.467 230.865 40.9087 230.224 41.9675 230.23C42.3668 230.23 42.7722 230.23 43.1776 230.23C44.1759 230.23 44.2787 230.115 43.9459 229.165C43.0868 229.165 42.2337 229.165 41.3867 229.165C40.939 229.165 40.7817 228.929 40.8543 228.56C40.9269 228.191 40.6122 227.555 41.2173 227.531C42.7238 227.465 44.2424 227.531 45.7852 227.531V226.448H39.1723ZM55.1329 232.39L54.9211 229.83L51.5027 229.643V230.581H53.6808C53.8563 231.748 53.6506 232.033 52.5797 232.099C51.9756 232.148 51.3686 232.148 50.7646 232.099C50.2897 232.056 49.8396 231.868 49.475 231.561C49.1103 231.253 48.8488 230.842 48.7257 230.381C48.6135 230.006 48.6108 229.607 48.718 229.231C48.8252 228.854 49.0378 228.517 49.3307 228.257C50.4197 227.114 52.5978 227.192 53.9531 228.294C54.0887 228.158 54.2084 228.008 54.3101 227.846C54.4734 227.471 54.7396 226.962 54.1346 226.811C52.5736 226.43 51.0187 226.019 49.3851 226.684C48.8152 226.887 48.3082 227.236 47.9145 227.696C47.5208 228.155 47.254 228.71 47.1405 229.304C46.7593 231.288 48.405 233.013 50.3834 233.237C52.0158 233.439 53.671 233.143 55.1329 232.39ZM96.5591 232.099C95.0526 232.099 93.6066 232.099 92.1605 232.099C91.3559 232.099 91.4527 231.591 91.4406 231.095C91.4285 230.599 91.4406 230.157 92.1787 230.193C92.9955 230.193 93.8183 230.193 94.6351 230.193V229.153C93.7276 229.153 92.8805 229.153 92.0274 229.153C91.489 229.153 91.4224 228.82 91.4224 228.415C91.4224 228.009 91.3256 227.525 91.9246 227.513C93.4371 227.513 94.9497 227.513 96.4804 227.513V226.478H89.8251V233.2H96.5409L96.5591 232.099ZM97.993 226.46C98.8521 227.495 99.6508 228.408 100.413 229.37C100.479 229.501 100.513 229.645 100.513 229.791C100.513 229.937 100.479 230.081 100.413 230.211C100.155 230.593 99.8614 230.95 99.5358 231.276L97.9023 233.164H100.147C100.026 232.226 100.752 231.833 101.212 231.264C101.532 230.865 101.756 230.98 101.968 231.264C102.398 231.869 102.785 232.474 103.257 233.158H105.356L102.531 229.649L105.247 226.46H102.93C102.839 227.319 102.186 228.324 101.72 228.36C101.254 228.396 100.649 227.531 100.425 226.454L97.993 226.46ZM56.2885 233.224H57.553C57.7769 233.224 57.9947 233.194 58.2246 233.182C58.1255 232.98 58.0822 232.755 58.0991 232.531C58.116 232.306 58.1926 232.09 58.3208 231.905C58.4491 231.72 58.6245 231.573 58.8288 231.478C59.0331 231.383 59.259 231.345 59.483 231.367C59.9585 231.337 60.4354 231.337 60.9109 231.367C61.3637 231.372 61.8053 231.508 62.1815 231.76C62.4666 232.188 62.6716 232.663 62.7865 233.164H64.6923C64.0449 231.996 63.3855 230.944 62.8772 229.836C62.369 228.729 61.28 227.846 61.4736 226.448H59.5193C58.8054 228.929 57.3473 230.931 56.2885 233.224ZM66.4106 224.924C66.4734 225.324 66.5158 225.728 66.5377 226.134C66.5377 228.033 66.5377 229.939 66.5377 231.839C66.5065 232.286 66.4459 232.731 66.3561 233.17H68.2317C68.2317 231.778 68.2317 230.441 68.1954 229.104C68.1591 227.767 68.1954 226.37 68.1954 224.948C68.2499 224.948 68.1531 224.948 68.0563 224.948L66.4106 224.924Z" fill="white"/>
<path d="M36.982 224.465C36.9155 226.921 36.8368 229.384 36.7945 231.84C36.8132 232.285 36.8657 232.728 36.9518 233.165H34.9915V227.72L34.7918 227.641C33.5818 229.22 32.771 231.029 31.6215 232.832C31.4227 232.691 31.2454 232.522 31.0951 232.33C30.3267 230.981 29.5765 229.589 28.796 228.216C28.6871 228.028 28.4209 227.932 28.191 227.774V233.22H26.5272V227.49C26.5272 226.455 26.6179 225.403 25.9524 224.465H26.6966C27.0181 224.652 27.3834 224.75 27.7554 224.75C28.1273 224.75 28.4927 224.652 28.8142 224.465H29.1167C29.1167 226.655 30.7563 228.095 31.6578 229.91C32.0192 229.56 32.318 229.151 32.5411 228.7C33.1462 227.327 34.447 226.201 34.2534 224.501H34.5619C34.8544 224.689 35.1946 224.789 35.5421 224.789C35.8896 224.789 36.2297 224.689 36.5222 224.501L36.982 224.465Z" fill="black"/>
<path d="M34.2534 224.465C34.447 226.183 33.1704 227.308 32.5412 228.7C32.318 229.151 32.0192 229.56 31.6578 229.91C30.7563 228.095 29.1167 226.673 29.1167 224.465H34.2534Z" fill="white"/>
<path d="M28.8202 224.465C28.498 224.653 28.1315 224.752 27.7584 224.752C27.3852 224.752 27.0188 224.653 26.6965 224.465H28.8202Z" fill="white"/>
<path d="M36.5162 224.465C36.2244 224.651 35.8854 224.75 35.5391 224.75C35.1929 224.75 34.8538 224.651 34.562 224.465H36.5162Z" fill="white"/>
<path d="M72.122 228.664V233.159H70.5973C70.8643 230.925 70.8501 228.667 70.5549 226.437C71.0874 226.437 71.6137 226.437 72.1341 226.437C72.321 226.475 72.4896 226.575 72.612 226.721C73.2836 227.417 73.8523 228.143 74.4937 228.809C75.02 229.353 75.5948 229.843 76.1635 230.345C76.3008 230.436 76.4467 230.513 76.5992 230.575C76.6887 230.418 76.7501 230.246 76.7807 230.067C76.7807 228.887 76.7807 227.708 76.7807 226.473H78.2146V233.207C77.7427 233.207 77.2465 233.207 76.7565 233.207C76.6536 233.207 76.4781 233.135 76.4479 233.056C75.8792 231.592 74.3787 230.975 73.4228 229.849C73.0184 229.423 72.5836 229.027 72.122 228.664Z" fill="black"/>
<path d="M80.4775 233.219V226.346L85.4327 226.643C85.9356 226.647 86.4266 226.796 86.8472 227.071C87.2677 227.347 87.6 227.738 87.8044 228.198C88.3368 229.256 88.0948 231.719 87.151 232.354C86.451 232.805 85.6555 233.087 84.8277 233.177C83.5748 233.255 82.3188 233.269 81.0644 233.219H80.4775ZM82.099 229.783C82.099 230.279 82.099 230.775 82.099 231.265C82.099 231.755 82.2563 232.154 82.9098 232.106C83.5632 232.058 84.0654 232.106 84.6401 232.076C85.0508 232.02 85.4379 231.851 85.7584 231.589C86.0789 231.326 86.3201 230.979 86.4552 230.587C86.6912 229.25 86.31 228.385 85.469 227.853C84.628 227.32 83.6539 227.599 82.7766 227.502C82.2926 227.453 82.0869 227.701 82.0869 228.155L82.099 229.783Z" fill="black"/>
<path d="M39.1723 226.449H45.8276V227.49C44.2424 227.49 42.748 227.49 41.2173 227.532C40.5699 227.532 40.8603 228.174 40.8059 228.543C40.7514 228.912 40.8906 229.148 41.3383 229.148C42.1853 229.148 43.0384 229.148 43.8976 229.148C44.2303 230.098 44.1275 230.237 43.1292 230.212C42.7299 230.212 42.3245 230.212 41.9191 230.212C40.8664 230.212 40.4187 230.848 40.8603 231.804C40.9329 231.967 41.296 232.076 41.5259 232.082C42.9295 232.082 44.3392 232.082 45.8216 232.082V233.183H39.1663C39.251 230.932 39.3115 228.7 39.1723 226.449Z" fill="black"/>
<path d="M55.1329 232.39C53.6741 233.147 52.0211 233.447 50.3895 233.25C48.4111 233.026 46.7593 231.301 47.1466 229.317C47.2614 228.716 47.5327 228.156 47.9333 227.694C48.3338 227.232 48.8492 226.884 49.4275 226.685C51.0611 226.019 52.616 226.431 54.177 226.812C54.782 226.963 54.5158 227.472 54.3524 227.847C54.2508 228.009 54.1311 228.159 53.9955 228.294C52.6402 227.193 50.4621 227.115 49.3731 228.258C49.0802 228.517 48.8676 228.855 48.7604 229.232C48.6532 229.608 48.6558 230.007 48.768 230.382C48.8912 230.842 49.1527 231.254 49.5173 231.561C49.882 231.869 50.3321 232.057 50.807 232.1C51.411 232.149 52.018 232.149 52.6221 232.1C53.693 232.033 53.8987 231.749 53.7232 230.581H51.5028V229.644L54.897 229.831L55.1329 232.39Z" fill="black"/>
<path d="M96.553 232.1V233.201H89.8372V226.479H96.4925V227.49C94.9678 227.49 93.4673 227.49 91.9366 227.49C91.3316 227.49 91.4586 228.01 91.4344 228.391C91.4102 228.773 91.4828 229.136 92.0395 229.13C92.8925 229.13 93.7396 229.13 94.6471 229.13V230.206C93.8303 230.206 93.0075 230.206 92.1907 230.206C91.4344 230.164 91.4344 230.588 91.4344 231.12C91.4344 231.652 91.3497 232.143 92.1544 232.124C93.6004 232.082 95.0646 232.1 96.553 232.1Z" fill="black"/>
<path d="M97.987 226.461H100.407C100.631 227.538 101.224 228.398 101.702 228.367C102.18 228.337 102.815 227.327 102.912 226.467H105.187L102.47 229.656L105.296 233.165H103.196C102.724 232.463 102.337 231.852 101.908 231.271C101.696 230.981 101.472 230.866 101.151 231.271C100.691 231.84 99.9412 232.233 100.086 233.171H97.8418L99.4754 231.283C99.8009 230.957 100.095 230.601 100.353 230.219C100.418 230.088 100.452 229.944 100.452 229.798C100.452 229.652 100.418 229.508 100.353 229.378C99.6448 228.41 98.8461 227.49 97.987 226.461Z" fill="black"/>
<path d="M56.2886 233.225C57.3474 230.932 58.8055 228.93 59.5194 226.467H61.4495C61.2558 227.865 62.3207 228.748 62.8531 229.855C63.3855 230.963 64.0632 232.015 64.6682 233.183H62.7503C62.6354 232.682 62.4304 232.207 62.1452 231.779C61.7691 231.527 61.3275 231.391 60.8747 231.386C60.3992 231.356 59.9223 231.356 59.4468 231.386C59.2227 231.364 58.9969 231.403 58.7926 231.497C58.5883 231.592 58.4129 231.739 58.2846 231.924C58.1563 232.109 58.0798 232.325 58.0629 232.55C58.0459 232.774 58.0893 232.999 58.1884 233.201C57.9584 233.201 57.7406 233.238 57.5168 233.244L56.2886 233.225ZM61.5765 230.563C61.2195 229.861 60.9715 229.275 60.6206 228.748C60.554 228.651 60.0821 228.627 60.0155 228.706C59.6707 229.275 59.4105 229.88 59.0293 230.581L61.5765 230.563Z" fill="black"/>
<path d="M66.4106 224.924H68.0502C68.147 224.924 68.2438 224.924 68.1894 224.924C68.1894 226.346 68.1894 227.713 68.1894 229.081C68.1894 230.448 68.1894 231.755 68.2257 233.147H66.3501C66.4398 232.707 66.5005 232.263 66.5316 231.816C66.5316 229.916 66.5316 228.01 66.5316 226.11C66.5109 225.713 66.4706 225.317 66.4106 224.924Z" fill="black"/>
<path d="M82.0989 229.783V228.155C82.0989 227.702 82.3046 227.454 82.7886 227.502C83.684 227.599 84.6037 227.302 85.481 227.853C86.3583 228.404 86.691 229.251 86.4672 230.588C86.332 230.979 86.0908 231.326 85.7703 231.589C85.4499 231.852 85.0627 232.02 84.6521 232.076C84.0471 232.112 83.4965 232.076 82.9217 232.106C82.3469 232.137 82.0807 231.84 82.111 231.265C82.1412 230.691 82.111 230.279 82.111 229.783H82.0989Z" fill="white"/>
<path d="M61.5764 230.563H59.0535C59.4044 229.861 59.6948 229.256 60.0397 228.688C60.082 228.609 60.5539 228.633 60.6447 228.73C60.9532 229.305 61.2195 229.861 61.5764 230.563Z" fill="white"/>
</g>
<g clip-path="url(#clip1)">
<path d="M231.196 235.355V228.095H228.776V235.355H226.355V224.465H228.776V226.885H232.406V228.095H233.616V235.355H231.196ZM237.246 229.305V235.355H234.826V226.885H237.246V228.095H238.456V226.885H240.876V229.305H237.246ZM249.346 232.935V234.145H248.136V232.935H249.346ZM243.296 235.355V234.145H242.086V228.095H243.296V226.885H248.136V228.095H249.346V231.725H244.506V234.145H248.136V235.355H243.296ZM246.926 230.515V228.095H244.506V230.515H246.926ZM254.187 225.675V226.885H255.397V228.095H254.187V235.355H251.767V228.095H250.557V226.885H251.767V225.675H252.977V224.465H256.607V225.675H254.187ZM260.237 229.305V230.515H261.447V231.725H262.657V234.145H261.447V235.355H257.817V234.145H260.237V232.935H259.027V231.725H257.817V230.515H256.607V228.095H257.817V226.885H261.447V228.095H259.027V229.305H260.237ZM256.607 232.935H257.817V234.145H256.607V232.935ZM262.657 229.305H261.447V228.095H262.657V229.305Z" fill="black"/>
<path fill-rule="evenodd" clip-rule="evenodd" d="M219.095 235.355V234.145H217.885V231.725H219.095V230.515H222.725V228.095H219.095V226.885H223.935V228.095H225.145V235.355H219.095ZM220.305 231.725V234.145H222.725V231.725H220.305ZM217.885 229.305V228.095H219.095V229.305H217.885Z" fill="#FF8800"/>
</g>
<path d="M119.387 33.7491H107.891L104.926 41.9169H107.165L109.404 35.6852H112.187C112.489 35.6852 112.671 35.9272 112.55 36.2297L110.493 41.8564H112.731L114.788 36.2297C114.909 35.9272 115.272 35.6852 115.575 35.6852H117.814C118.116 35.6852 118.298 35.9272 118.177 36.2297L116.119 41.8564H118.358L120.718 35.3826C121.081 34.4751 120.476 33.7491 119.387 33.7491ZM134.996 39.3758C134.875 39.6783 134.512 39.9203 134.21 39.9203H131.427C131.124 39.9203 130.943 39.6783 131.064 39.3758L133.121 33.7491H130.882L128.523 40.2229C128.16 41.1304 128.765 41.9169 129.854 41.9169H134.936C135.722 41.9169 136.509 41.4329 136.751 40.7674L139.292 33.7491H137.053L134.996 39.3758ZM97.6662 39.3758L97.8477 38.8313H104.563L105.289 36.8952L105.774 35.5036C106.137 34.5961 105.532 33.8096 104.442 33.8096H98.8157C98.0292 33.8096 97.2426 34.2936 97.0006 34.9591L95.0645 40.2834C94.7015 41.1909 95.3065 41.9774 96.3956 41.9774H103.535L104.261 40.0414H98.0897C97.7267 39.9203 97.6057 39.6783 97.6662 39.3758ZM98.8157 36.2902C98.9367 35.9877 99.2997 35.7457 99.6022 35.7457H102.99C103.293 35.7457 103.474 35.9877 103.353 36.2902L103.172 36.8347H98.6947L98.8157 36.2902ZM156.717 33.7491L155.567 36.8347H151.635L152.784 33.7491H150.546L147.581 41.9169H149.819L150.969 38.7708H154.841L153.752 41.9169H155.991L158.955 33.7491H156.717ZM122.351 34.8986L119.81 41.9169H122.049L124.106 36.2902C124.227 35.9877 124.59 35.7457 124.892 35.7457H128.825L129.551 33.8096H124.227C123.38 33.7491 122.593 34.2331 122.351 34.8986ZM87.2597 34.8986L86.4127 37.1372C86.0496 38.0448 86.6547 38.8313 87.7437 38.8313H91.3739C91.6764 38.8313 91.8579 39.0733 91.7369 39.3758C91.6159 39.6783 91.2529 39.9203 90.9504 39.9203H85.3236L84.5976 41.8564H91.6159C92.4024 41.8564 93.189 41.3724 93.431 40.7069L94.278 38.4683C94.641 37.5607 94.036 36.7742 92.9469 36.7742H89.3168C89.0143 36.8347 88.8933 36.5927 89.0143 36.2902C89.0748 35.9877 89.4378 35.6852 89.7403 35.6852H95.3671L96.0931 33.7491H89.0748C88.2882 33.7491 87.5017 34.2331 87.2597 34.8986ZM140.321 34.8986L139.474 37.1372C139.11 38.0448 139.716 38.8313 140.805 38.8313H144.435C144.737 38.8313 144.919 39.0733 144.798 39.3758C144.677 39.6783 144.314 39.9203 144.011 39.9203H138.384L137.658 41.8564H144.677C145.463 41.8564 146.25 41.3724 146.492 40.7069L147.339 38.4683C147.702 37.5607 147.097 36.7742 146.008 36.7742H142.378C142.075 36.7742 141.894 36.5322 142.015 36.2297C142.136 35.9272 142.499 35.6852 142.801 35.6852H148.428L149.154 33.7491H142.136C141.349 33.7491 140.502 34.2331 140.321 34.8986ZM78.0028 33.3256C76.4297 31.692 74.2516 31.1475 71.4685 31.6315C71.4685 31.6315 68.1408 32.418 65.1762 32.4785C63.9057 32.4785 62.8771 32.1155 61.9696 31.934C62.4536 32.7205 63.1796 33.265 64.0267 33.5676C64.8132 33.8701 65.9022 34.2936 65.4182 35.0801C64.8737 35.9272 64.0267 35.2011 63.7846 35.0196C62.9981 34.4146 62.6351 33.9911 61.183 33.144C59.61 32.2365 57.4319 32.176 55.2538 32.418C55.2538 32.418 57.0688 32.781 57.8554 33.6281C57.8554 33.6281 54.4067 32.902 52.1076 34.0516C55.3748 34.1726 59.0049 34.7171 59.61 34.9591C60.215 35.2616 59.9125 35.4431 59.3074 35.5642C57.8554 35.8667 55.1328 35.9877 53.4387 35.5036C51.0186 34.8381 48.9615 32.781 45.5128 33.3256C48.538 33.9911 50.1715 36.8347 53.4992 37.5002C56.8268 38.1658 59.0654 36.8347 59.852 36.6532C60.6385 36.4717 61.304 36.7137 61.425 37.2582C61.6066 37.8028 60.941 38.4078 60.0335 38.5893C59.368 38.7103 59.1259 38.7103 57.9159 38.8313C55.3748 39.0733 53.5597 38.7708 51.9261 38.3473C48.8405 37.5002 46.6624 35.5036 45.6338 34.9591C44.6053 34.4146 43.4557 34.1726 42.6087 34.0516C42.6087 34.0516 44.3028 34.8986 44.9078 35.9877C43.3952 35.4431 41.2171 35.0801 38.313 35.6852C36.9215 35.9272 33.9568 36.5927 30.3267 38.0448C32.1417 38.5893 34.4408 38.1658 35.4694 38.1053C40.9146 37.6817 42.7297 38.8313 44.4843 39.4968C49.8085 41.3724 51.6236 39.6783 51.9866 40.2229C52.2286 40.6464 50.5346 41.3119 50.0505 41.4329C47.6304 41.8564 46.4809 41.4329 44.3028 40.9489C45.3918 42.0379 47.5094 42.8245 49.869 42.764C52.2891 42.643 54.8302 42.28 56.8873 41.4329C59.3074 40.4044 60.2755 40.1019 61.3645 39.7993C61.8486 39.6783 63.4821 39.2548 63.8451 39.6783C64.0267 39.9203 63.7241 40.1624 63.1796 40.4044C62.7561 40.5859 62.2116 40.7674 61.7276 40.9489C60.578 41.3724 58.3394 42.2194 57.6739 42.764C57.6739 42.764 60.7595 42.28 63.7846 42.28C66.8098 42.28 68.8669 42.9455 71.166 43.7925C73.6466 44.7001 75.7642 44.3975 77.5793 42.885C79.2128 41.4934 79.9994 39.9203 79.9389 38.0448C79.9389 36.1087 79.2733 34.5961 78.0028 33.3256ZM73.7071 43.006C70.8635 43.006 68.5644 40.7069 68.5644 37.8633C68.5644 35.0196 70.8635 32.7205 73.7071 32.7205C76.5507 32.7205 78.8498 35.0196 78.8498 37.8633C78.8498 40.7069 76.5507 43.006 73.7071 43.006ZM73.7071 33.8096C71.4685 33.8096 69.6534 35.6247 69.6534 37.8633C69.6534 40.1019 71.4685 41.9169 73.7071 41.9169C75.9457 41.9169 77.7608 40.1019 77.7608 37.8633C77.8213 35.6247 76.0062 33.8096 73.7071 33.8096ZM75.6432 40.5254C76.1272 39.9203 76.3692 39.1943 76.3692 38.4078C76.3692 36.7742 75.1592 35.3826 73.5861 35.0801C73.7071 34.8986 73.8886 34.6566 74.0701 34.5356C75.7037 34.7776 76.9137 36.1692 76.9137 37.8633C76.9137 38.9523 76.4297 39.9203 75.6432 40.5254Z" fill="black"/>
<g clip-path="url(#clip2)">
<path fill-rule="evenodd" clip-rule="evenodd" d="M215.748 71.51C215.185 71.7283 214.75 72.0327 214.442 72.4238C214.134 72.8157 213.98 73.268 213.98 73.7793C213.98 74.8072 214.598 75.6154 215.833 76.2038C216.213 76.3848 216.701 76.5742 217.299 76.7679C217.897 76.9635 218.315 77.1511 218.553 77.3334C218.791 77.5153 218.909 77.7686 218.909 78.0949C218.909 78.3825 218.799 78.6057 218.578 78.7643C218.358 78.9228 218.058 79.0026 217.678 79.0026C217.085 79.0026 216.656 78.8851 216.392 78.6505C216.127 78.4159 215.995 78.0508 215.995 77.5563H213.692C213.692 78.1655 213.85 78.7035 214.166 79.1715C214.483 79.6387 214.954 80.007 215.581 80.2752C216.207 80.5442 216.906 80.6787 217.679 80.6787C218.774 80.6787 219.636 80.4489 220.265 79.9876C220.893 79.5251 221.206 78.8902 221.206 78.0824C221.206 77.0716 220.692 76.2777 219.662 75.7029C219.239 75.4659 218.698 75.2444 218.038 75.0396C217.38 74.8339 216.92 74.6358 216.658 74.4429C216.395 74.2504 216.265 74.0356 216.265 73.7982C216.265 73.5278 216.384 73.3045 216.622 73.1292C216.86 72.9534 217.183 72.8653 217.594 72.8653C218 72.8653 218.322 72.9693 218.56 73.1767C218.797 73.3842 218.917 73.6757 218.917 74.0523H221.206C221.206 73.4902 221.056 72.9886 220.755 72.5514C220.454 72.1135 220.032 71.7762 219.488 71.5392C218.944 71.302 218.331 71.1836 217.646 71.1836C216.944 71.1836 216.311 71.2924 215.748 71.51H215.748ZM223.975 71.1836V80.6779H230.29V78.9168H226.185V76.6479H229.661V74.9529H226.185V72.9506H230.303V71.1836H223.975ZM233.071 71.1836V80.6779H235.318V77.3199H236.533L238.179 80.6779H240.585V80.5797L238.64 76.7461C239.199 76.4769 239.609 76.1258 239.871 75.6914C240.134 75.2566 240.265 74.7091 240.265 74.0496C240.265 73.1374 239.953 72.4317 239.33 71.9324C238.708 71.4332 237.844 71.1836 236.739 71.1836H233.071ZM235.318 72.9443H236.739C237.161 72.9443 237.481 73.0601 237.699 73.2941C237.917 73.5271 238.025 73.8487 238.025 74.2581C238.025 74.6676 237.918 74.9864 237.702 75.2151C237.486 75.4445 237.165 75.5588 236.739 75.5588H235.318V72.944V72.9443ZM242.958 71.1836V80.6779H245.259V77.4561H246.729C247.891 77.4561 248.806 77.1791 249.473 76.6253C250.139 76.0715 250.473 75.3307 250.473 74.4049C250.473 73.7787 250.319 73.2189 250.01 72.7257C249.702 72.232 249.267 71.8519 248.706 71.585C248.143 71.3171 247.497 71.1836 246.768 71.1836H242.958ZM245.259 72.9506H246.794C247.209 72.9551 247.537 73.09 247.777 73.3547C248.018 73.6205 248.138 73.9742 248.138 74.4172C248.138 74.8223 248.021 75.1352 247.787 75.3572C247.553 75.5791 247.213 75.6899 246.768 75.6899H245.259V72.9507L245.259 72.9506Z" fill="#004683"/>
<path fill-rule="evenodd" clip-rule="evenodd" d="M254.11 71.51C253.547 71.7283 253.112 72.0327 252.804 72.4238C252.496 72.8157 252.342 73.268 252.342 73.7793C252.342 74.8072 252.96 75.6154 254.195 76.2038C254.574 76.3848 255.063 76.5742 255.661 76.7679C256.259 76.9635 256.676 77.1511 256.914 77.3334C257.152 77.5153 257.271 77.7686 257.271 78.0949C257.271 78.3825 257.161 78.6057 256.941 78.7643C256.719 78.9228 256.42 79.0026 256.041 79.0026C255.447 79.0026 255.019 78.8851 254.754 78.6505C254.491 78.4159 254.359 78.0508 254.359 77.5563H252.055C252.055 78.1655 252.213 78.7035 252.529 79.1715C252.846 79.6387 253.317 80.007 253.943 80.2752C254.569 80.5442 255.268 80.6787 256.041 80.6787C257.136 80.6787 257.998 80.4489 258.626 79.9876C259.255 79.5251 259.569 78.8902 259.569 78.0824C259.569 77.0716 259.054 76.2775 258.025 75.7029C257.601 75.4659 257.059 75.2444 256.401 75.0396C255.742 74.8339 255.281 74.6358 255.02 74.4429C254.758 74.2502 254.627 74.0354 254.627 73.798C254.627 73.5275 254.746 73.3043 254.984 73.1291C255.221 72.953 255.545 72.8652 255.956 72.8652C256.362 72.8652 256.683 72.9693 256.922 73.1766C257.159 73.3839 257.278 73.6754 257.278 74.052H259.568C259.568 73.4899 259.418 72.9883 259.117 72.5511C258.816 72.1132 258.394 71.7758 257.85 71.5388C257.307 71.3018 256.693 71.1836 256.009 71.1836C255.305 71.1836 254.672 71.2924 254.11 71.51ZM261.151 71.1836V72.9506H263.94V80.6779H266.221V72.9506H269.061V71.1836H261.151ZM272.921 71.1836L269.456 80.6779H271.89L272.435 78.9041H275.555L276.107 80.6779H278.553L275.062 71.1836H272.921H272.921ZM273.992 73.8438L275.01 77.1371H272.979L273.991 73.8438H273.992ZM278.948 71.1836V72.9506H281.737V80.6779H284.018V72.9506H286.858V71.1836" fill="#006EC2"/>
<path fill-rule="evenodd" clip-rule="evenodd" d="M209.836 70.7881H200.594L200.595 70.7903C200.437 70.7965 200.31 70.9248 200.31 71.0838C200.31 71.1681 200.346 71.2432 200.403 71.2969L200.401 71.2982L202.402 73.286C202.518 73.4019 202.518 73.5906 202.402 73.7065L199.111 76.9801C199.026 77.0649 199.047 77.2079 199.152 77.2647L199.561 77.4866C199.636 77.5274 199.754 77.5191 199.828 77.4752C199.929 77.4143 200.048 77.3787 200.174 77.3787C200.261 77.3787 200.344 77.3965 200.42 77.4269C200.463 77.4443 200.512 77.4388 200.546 77.4075L201.327 76.6994C201.327 76.6848 201.323 76.6705 201.323 76.6555C201.323 76.2781 201.628 75.9719 202.004 75.9719C202.321 75.9719 202.585 76.1895 202.661 76.4834L203.418 76.8058C203.442 76.8153 203.467 76.8114 203.489 76.7971C203.598 76.7208 203.73 76.6749 203.873 76.6749C203.94 76.6749 204.006 76.686 204.068 76.705C204.091 76.7125 204.116 76.7069 204.133 76.6903L205.442 75.4122C205.461 75.394 205.47 75.3667 205.47 75.3405C205.458 74.6692 205.953 74.5914 206.147 74.585C206.442 74.5739 206.69 74.7776 206.782 75.0446C206.791 75.07 206.81 75.0909 206.836 75.1L207.665 75.3841C207.696 75.3951 207.729 75.3863 207.754 75.3646C207.875 75.2554 208.033 75.1884 208.208 75.1884C208.27 75.1884 208.378 75.2275 208.441 75.1591L210.086 73.4786C210.114 73.4497 210.13 73.4106 210.13 73.3692V71.0856C210.132 70.9213 209.999 70.7881 209.836 70.7881Z" fill="#004683"/>
<path fill-rule="evenodd" clip-rule="evenodd" d="M210.127 74.8444C210.127 74.7549 210.019 74.7101 209.956 74.7746L208.896 75.8576C208.873 75.8809 208.864 75.9145 208.869 75.9471C208.896 76.1252 208.86 76.3244 208.624 76.5437C208.499 76.6596 208.341 76.7393 208.171 76.7352C207.894 76.7276 207.66 76.5544 207.559 76.3114C207.548 76.2859 207.528 76.2649 207.501 76.2555L206.625 75.9543C206.594 75.944 206.562 75.9519 206.536 75.9725C206.418 76.0682 206.269 76.1264 206.106 76.1264C206.031 76.1264 205.961 76.1117 205.894 76.0896C205.894 76.0896 204.895 77.0596 204.539 77.4101C204.496 77.4536 204.496 77.4568 204.505 77.5442C204.505 77.9247 204.198 78.2329 203.818 78.2329C203.497 78.2329 203.23 78.0118 203.154 77.7139C203.146 77.6834 203.127 77.6577 203.098 77.6451L202.447 77.3685C202.414 77.3539 202.377 77.361 202.348 77.3832C202.233 77.4714 202.09 77.5252 201.935 77.5252C201.861 77.5252 201.789 77.5133 201.723 77.4908C201.683 77.4777 201.639 77.4845 201.608 77.5121L200.816 78.2297C200.79 78.2539 200.775 78.2875 200.771 78.3235C200.737 78.6708 200.445 78.9422 200.09 78.9422C199.814 78.9422 199.579 78.7784 199.469 78.5431C199.441 78.4813 199.388 78.4347 199.329 78.4022L198.438 77.9196C198.368 77.8816 198.282 77.8947 198.226 77.9505L195.587 80.5633L195.586 80.5642L195.583 80.5678L195.584 80.5682C195.532 80.622 195.499 80.6944 195.499 80.7751C195.499 80.9398 195.632 81.0736 195.797 81.0736H204.449C204.615 81.0736 204.846 80.9783 204.964 80.8615L205.134 80.6928L205.139 80.6879L207.169 78.6708C207.287 78.5545 207.478 78.5545 207.595 78.6708L209.62 80.6836C209.675 80.7398 209.75 80.775 209.834 80.775C209.998 80.775 210.132 80.6417 210.132 80.4771L210.127 74.845L210.127 74.8444Z" fill="#006EC2"/>
</g>
<g clip-path="url(#clip3)">
<path d="M171.661 263.065C171.54 262.52 171.237 262.036 170.814 261.734L167.365 259.314C167.305 259.253 166.034 258.527 165.006 259.072L164.522 258.709C164.461 258.709 163.07 257.983 161.92 258.709C160.891 259.314 158.592 260.584 158.592 260.584L158.532 260.645C158.229 260.947 157.866 261.492 157.987 262.036C157.927 262.036 157.866 262.097 157.806 262.097C157.745 262.036 157.685 261.915 157.443 261.794C157.382 261.189 157.019 260.705 157.019 260.705L156.959 260.645C156.838 260.584 154.236 259.011 153.268 258.527C152.179 257.983 151.272 258.648 151.211 258.709L150.667 259.132V259.072H149.698C149.214 259.072 148.73 259.193 148.307 259.495L145.282 261.613C144.677 262.036 144.253 262.702 144.072 263.428C143.527 265.667 141.652 269.599 141.652 269.599L142.196 269.841C142.257 269.66 144.132 265.848 144.616 263.549C144.737 262.944 145.1 262.46 145.584 262.097L148.609 259.919C148.912 259.737 149.275 259.616 149.638 259.616H149.88L146.552 262.036L146.915 262.52L148.246 261.552L148.307 262.157C148.851 262.097 153.692 261.31 154.418 260.947C154.841 260.705 155.265 261.431 155.265 261.431L155.325 261.492L155.386 261.552C156.112 261.915 156.959 262.278 157.201 262.46C156.656 262.883 156.293 263.488 156.112 263.912C155.628 263.609 154.962 263.246 154.599 263.367C154.478 263.428 154.357 263.488 154.297 263.609C154.236 263.73 153.631 263.972 153.026 264.093C152.24 264.275 149.638 264.94 149.517 266.03C149.396 267.179 150.969 267.845 150.969 267.845C151.09 267.905 153.692 269.236 155.567 268.752C156.172 268.571 156.656 268.208 156.959 267.724C157.503 266.816 158.048 266.272 158.532 265.969C158.29 266.272 158.108 266.635 158.048 267.058C157.987 267.421 158.108 267.784 158.411 268.087C158.713 268.45 159.016 268.631 159.379 268.631C159.258 268.873 159.137 269.236 158.955 269.539C158.895 269.781 158.774 270.023 158.774 270.023C158.532 270.265 156.051 271.293 153.813 272.201L153.752 272.261C152.119 274.742 149.093 275.77 147.944 276.194C147.702 276.315 147.581 276.315 147.46 276.375L147.762 276.92C147.823 276.92 147.944 276.86 148.125 276.799C149.335 276.375 152.482 275.347 154.236 272.745C155.991 272.019 157.14 271.535 157.927 271.233C159.318 271.475 161.496 272.08 161.92 272.745C162.525 273.895 167.668 276.799 168.273 277.162L168.575 276.617C166.397 275.407 162.828 273.229 162.465 272.443C161.981 271.596 160.044 271.051 158.895 270.749C159.379 270.507 159.439 270.446 159.439 270.386C159.5 270.265 159.621 270.023 159.681 269.781C159.802 269.418 160.044 268.813 160.226 268.571C160.468 268.51 161.315 268.389 163.13 268.45C164.824 268.45 166.337 267.119 166.337 266.03C166.337 265.788 166.276 265.001 165.127 264.94C164.098 264.88 163.251 264.335 162.586 263.851C161.981 263.428 161.436 263.065 160.952 263.428C160.468 263.791 159.742 264.033 159.016 264.093C158.774 264.093 158.592 264.214 158.471 264.396C158.229 264.698 158.29 265.243 158.29 265.424C157.987 265.606 157.745 265.788 157.503 266.09L156.656 265.424C156.656 265.364 156.717 265.364 156.717 265.303C156.838 265.001 156.717 264.638 156.656 264.396C156.838 263.972 157.503 262.762 158.471 262.702C159.863 262.641 160.831 261.431 161.012 261.189C161.133 261.068 161.799 260.705 162.586 261.25C163.735 261.976 167.244 262.218 167.426 262.278L167.486 261.673C166.518 261.613 163.796 261.31 162.949 260.766C161.92 260.1 161.012 260.524 160.649 260.766L160.589 260.826C160.589 260.826 159.742 261.976 158.653 262.097C158.592 261.794 158.895 261.431 159.016 261.31C159.379 261.129 161.375 260.04 162.344 259.435C163.191 258.89 164.28 259.435 164.28 259.435L169.12 262.702L169.483 262.218L165.732 259.677C166.337 259.374 167.063 259.798 167.063 259.798L170.451 262.218C170.753 262.46 170.935 262.762 171.056 263.186C171.6 265.969 173.839 269.962 173.96 270.083L174.505 269.781C174.444 269.72 172.145 265.727 171.661 263.065ZM158.955 267.603C158.774 267.421 158.713 267.24 158.774 266.998C158.834 266.332 159.56 265.727 159.56 265.727L159.439 265.606C159.621 265.606 159.863 265.667 159.984 265.848C160.286 266.332 160.165 267.119 159.984 267.603C159.923 267.663 159.742 267.966 159.5 267.966C159.318 267.966 159.137 267.845 158.955 267.603ZM158.955 264.638C158.955 264.638 159.016 264.577 159.076 264.577C159.439 264.517 160.468 264.396 161.315 263.791C161.436 263.73 161.86 263.972 162.223 264.214C162.888 264.698 163.856 265.303 165.066 265.364C165.732 265.424 165.732 265.727 165.671 265.848C165.611 266.574 164.401 267.724 163.07 267.724C161.86 267.724 161.073 267.724 160.589 267.784C160.831 267.119 160.952 266.09 160.528 265.424C160.286 265.061 159.923 264.88 159.439 264.88C159.258 264.88 159.076 264.94 158.895 265.001C158.895 264.88 158.895 264.759 158.955 264.638ZM151.332 267.179C151.332 267.179 150.122 266.695 150.182 265.969C150.243 265.545 151.756 264.88 153.208 264.577C153.631 264.517 154.539 264.275 154.841 263.912C155.023 263.912 155.567 264.214 156.112 264.517C156.172 264.638 156.233 264.819 156.172 264.94C156.112 265.001 155.991 265.061 155.93 265.122C155.507 265.182 155.204 265.545 155.023 266.03C154.841 266.635 154.962 267.482 155.386 268.087C153.752 268.389 151.393 267.179 151.332 267.179ZM156.535 267.24C156.414 267.482 156.233 267.663 155.991 267.784C155.567 267.361 155.446 266.635 155.567 266.211C155.628 266.03 155.749 265.788 155.991 265.727C156.051 265.727 156.051 265.727 156.112 265.667L157.08 266.453C156.898 266.635 156.717 266.937 156.535 267.24ZM154.176 260.403C153.692 260.645 150.303 261.25 148.246 261.552L151.514 259.193C151.514 259.193 152.179 258.709 152.905 259.072C153.752 259.495 156.112 260.887 156.475 261.129C156.535 261.189 156.596 261.31 156.656 261.431C156.414 261.31 156.112 261.189 155.749 261.008C155.567 260.584 154.902 259.979 154.176 260.403Z" fill="#F04B01"/>
</g>
<path d="M128.318 285.053H129.619V286.433C129.801 286.157 130.003 285.923 130.226 285.729C130.454 285.53 130.688 285.369 130.929 285.246C131.175 285.117 131.421 285.023 131.667 284.965C131.913 284.906 132.147 284.877 132.37 284.877C132.815 284.877 133.234 285 133.627 285.246C134.02 285.486 134.38 285.905 134.708 286.503C134.878 286.216 135.074 285.97 135.297 285.765C135.525 285.56 135.766 285.393 136.018 285.264C136.27 285.129 136.527 285.032 136.791 284.974C137.055 284.909 137.312 284.877 137.564 284.877C137.969 284.877 138.338 284.944 138.672 285.079C139.012 285.214 139.305 285.401 139.551 285.642C139.797 285.876 139.987 286.157 140.122 286.485C140.263 286.813 140.333 287.168 140.333 287.549V294H139.032V287.918C139.032 287.549 138.979 287.244 138.874 287.004C138.774 286.764 138.643 286.573 138.479 286.433C138.314 286.286 138.127 286.187 137.916 286.134C137.711 286.075 137.506 286.046 137.301 286.046C137.031 286.046 136.759 286.107 136.483 286.23C136.214 286.348 135.968 286.515 135.745 286.731C135.528 286.942 135.35 287.194 135.209 287.487C135.074 287.774 135.007 288.088 135.007 288.428V294H133.706V287.918C133.706 287.549 133.653 287.244 133.548 287.004C133.442 286.758 133.308 286.564 133.144 286.424C132.985 286.283 132.81 286.184 132.616 286.125C132.423 286.066 132.238 286.037 132.062 286.037C131.717 286.037 131.395 286.116 131.096 286.274C130.803 286.433 130.545 286.635 130.322 286.881C130.105 287.127 129.933 287.396 129.804 287.689C129.681 287.982 129.619 288.261 129.619 288.524V294H128.318V285.053Z" fill="black"/>
<path d="M144.279 281.678V283.198H142.979V281.678H144.279ZM144.279 285.053V294H142.979V285.053H144.279Z" fill="black"/>
<path d="M146.934 285.053H148.234L148.182 286.538C148.457 286.052 148.779 285.68 149.148 285.422C149.523 285.164 149.96 285.035 150.458 285.035C150.499 285.035 150.555 285.038 150.625 285.044C150.701 285.05 150.777 285.059 150.854 285.07C150.936 285.076 151.012 285.088 151.082 285.105C151.158 285.117 151.217 285.132 151.258 285.149V286.477C151.123 286.43 150.971 286.395 150.801 286.371C150.631 286.342 150.505 286.327 150.423 286.327C150.077 286.327 149.77 286.392 149.5 286.521C149.23 286.649 149.002 286.825 148.814 287.048C148.627 287.265 148.483 287.517 148.384 287.804C148.284 288.085 148.234 288.381 148.234 288.691V294H146.934V285.053Z" fill="black"/>
<path d="M160.003 294.07C159.921 294.1 159.812 294.123 159.678 294.141C159.549 294.164 159.44 294.176 159.353 294.176C158.989 294.176 158.682 294.038 158.43 293.763C158.184 293.481 158.046 293.054 158.017 292.479C157.735 292.843 157.457 293.136 157.182 293.358C156.912 293.581 156.643 293.754 156.373 293.877C156.104 293.994 155.831 294.073 155.556 294.114C155.286 294.155 155.011 294.176 154.729 294.176C154.366 294.176 154.026 294.117 153.71 294C153.394 293.883 153.115 293.716 152.875 293.499C152.641 293.282 152.456 293.021 152.321 292.717C152.187 292.412 152.119 292.072 152.119 291.697C152.119 291.322 152.201 291.003 152.365 290.739C152.529 290.47 152.746 290.238 153.016 290.045C153.291 289.852 153.599 289.69 153.938 289.562C154.284 289.427 154.636 289.31 154.993 289.21C155.356 289.104 155.711 289.005 156.057 288.911C156.402 288.817 156.71 288.715 156.979 288.604C157.255 288.486 157.475 288.354 157.639 288.208C157.803 288.056 157.885 287.868 157.885 287.646C157.885 287.388 157.835 287.159 157.735 286.96C157.636 286.761 157.495 286.594 157.313 286.459C157.132 286.318 156.912 286.213 156.654 286.143C156.396 286.072 156.112 286.037 155.802 286.037C155.538 286.037 155.289 286.072 155.055 286.143C154.82 286.207 154.609 286.304 154.422 286.433C154.234 286.562 154.079 286.72 153.956 286.907C153.833 287.095 153.754 287.312 153.719 287.558H152.356C152.386 287.124 152.503 286.74 152.708 286.406C152.913 286.072 153.174 285.794 153.49 285.571C153.807 285.343 154.164 285.17 154.562 285.053C154.967 284.936 155.38 284.877 155.802 284.877C156.259 284.877 156.689 284.933 157.094 285.044C157.504 285.155 157.864 285.325 158.175 285.554C158.485 285.782 158.731 286.072 158.913 286.424C159.095 286.77 159.186 287.177 159.186 287.646V292.277C159.186 292.506 159.241 292.69 159.353 292.831C159.47 292.966 159.613 293.033 159.783 293.033C159.859 293.033 159.933 293.021 160.003 292.998V294.07ZM157.885 289.025C157.703 289.219 157.466 289.38 157.173 289.509C156.886 289.632 156.575 289.743 156.241 289.843C155.913 289.942 155.582 290.039 155.248 290.133C154.914 290.227 154.609 290.338 154.334 290.467C154.064 290.596 153.845 290.754 153.675 290.941C153.505 291.123 153.42 291.354 153.42 291.636C153.42 291.888 153.464 292.102 153.552 292.277C153.64 292.453 153.754 292.6 153.895 292.717C154.035 292.828 154.196 292.91 154.378 292.963C154.56 293.016 154.744 293.042 154.932 293.042C155.471 293.042 155.998 292.878 156.514 292.55C157.035 292.222 157.492 291.718 157.885 291.038V289.025Z" fill="black"/>
<path d="M163.123 281.678V294H161.822V281.678H163.123Z" fill="black"/>
<path d="M167.078 281.678V283.198H165.777V281.678H167.078ZM167.078 285.053V294H165.777V285.053H167.078Z" fill="black"/>
<path d="M169.732 285.053H171.033V286.371C171.49 285.844 171.982 285.463 172.51 285.229C173.037 284.994 173.579 284.877 174.136 284.877C174.552 284.877 174.924 284.938 175.252 285.062C175.58 285.185 175.858 285.36 176.087 285.589C176.315 285.817 176.488 286.096 176.605 286.424C176.729 286.746 176.79 287.109 176.79 287.514V294H175.489V287.681C175.489 287.376 175.451 287.121 175.375 286.916C175.305 286.705 175.199 286.535 175.059 286.406C174.924 286.277 174.757 286.184 174.558 286.125C174.358 286.066 174.136 286.037 173.89 286.037C173.491 286.037 173.119 286.107 172.773 286.248C172.428 286.389 172.126 286.576 171.868 286.811C171.61 287.039 171.405 287.306 171.253 287.61C171.106 287.909 171.033 288.22 171.033 288.542V294H169.732V285.053Z" fill="black"/>
<path d="M183.268 288.296L186.563 294H185.043L182.345 289.228L180.736 290.845V294H179.436V281.678H180.736V289.113L184.902 285.053H186.502L183.268 288.296Z" fill="black"/>
<path d="M188.664 291.275C188.67 291.598 188.726 291.87 188.831 292.093C188.937 292.315 189.08 292.497 189.262 292.638C189.443 292.778 189.654 292.881 189.895 292.945C190.141 293.01 190.41 293.042 190.703 293.042C190.938 293.042 191.184 293.021 191.441 292.98C191.705 292.934 191.945 292.857 192.162 292.752C192.379 292.646 192.558 292.506 192.698 292.33C192.839 292.148 192.909 291.92 192.909 291.645C192.909 291.393 192.833 291.179 192.681 291.003C192.528 290.827 192.329 290.672 192.083 290.537C191.837 290.402 191.556 290.282 191.239 290.177C190.923 290.065 190.601 289.951 190.272 289.834C189.944 289.717 189.622 289.591 189.306 289.456C188.989 289.315 188.708 289.148 188.462 288.955C188.216 288.762 188.017 288.533 187.864 288.27C187.712 288.006 187.636 287.689 187.636 287.32C187.636 286.934 187.721 286.588 187.891 286.283C188.061 285.979 188.286 285.724 188.567 285.519C188.854 285.308 189.183 285.149 189.552 285.044C189.921 284.933 190.305 284.877 190.703 284.877C191.154 284.877 191.573 284.933 191.96 285.044C192.347 285.149 192.684 285.311 192.971 285.527C193.264 285.738 193.495 286.005 193.665 286.327C193.841 286.644 193.938 287.01 193.955 287.426H192.619C192.59 287.191 192.52 286.986 192.408 286.811C192.303 286.635 192.162 286.491 191.986 286.38C191.816 286.263 191.62 286.178 191.397 286.125C191.181 286.066 190.949 286.037 190.703 286.037C190.416 286.037 190.161 286.072 189.938 286.143C189.722 286.213 189.537 286.31 189.385 286.433C189.238 286.55 189.127 286.688 189.051 286.846C188.975 287.004 188.937 287.168 188.937 287.338C188.937 287.566 189.013 287.766 189.165 287.936C189.317 288.105 189.517 288.258 189.763 288.393C190.009 288.527 190.29 288.65 190.606 288.762C190.923 288.873 191.245 288.99 191.573 289.113C191.901 289.23 192.224 289.359 192.54 289.5C192.856 289.641 193.138 289.805 193.384 289.992C193.63 290.174 193.829 290.388 193.981 290.634C194.134 290.88 194.21 291.17 194.21 291.504C194.21 291.984 194.113 292.395 193.92 292.734C193.732 293.068 193.478 293.344 193.155 293.561C192.833 293.771 192.458 293.927 192.03 294.026C191.608 294.126 191.166 294.176 190.703 294.176C190.252 294.176 189.824 294.117 189.42 294C189.016 293.877 188.661 293.695 188.356 293.455C188.052 293.215 187.806 292.913 187.618 292.55C187.437 292.187 187.337 291.762 187.319 291.275H188.664Z" fill="black"/>
<g clip-path="url(#clip4)">
<path d="M38.159 128.54C37.2273 129.181 36.3076 129.816 35.388 130.44C34.9841 130.676 34.5924 130.932 34.2142 131.208C34.063 131.335 34.0448 131.619 33.9783 131.813C36.3984 133.138 37.0821 131.305 37.802 129.744C37.9234 129.761 38.0391 129.806 38.1399 129.876C38.2407 129.946 38.3238 130.038 38.3826 130.145C38.4413 130.253 38.4742 130.373 38.4784 130.495C38.4827 130.618 38.4582 130.74 38.4071 130.851C38.2535 131.447 37.9193 131.981 37.4503 132.38C36.9812 132.778 36.4003 133.022 35.7873 133.077C34.2989 133.162 33.1675 132.751 32.4052 131.438C31.6429 130.125 32.5928 127.596 34.1356 127.13C35.7873 126.64 37.0458 127.13 38.159 128.54ZM36.4347 128.51C36.3338 128.343 36.1996 128.2 36.0405 128.089C35.8813 127.977 35.7008 127.9 35.5103 127.862C35.3198 127.824 35.1234 127.826 34.9336 127.867C34.7439 127.909 34.5648 127.99 34.4078 128.104C33.3975 128.673 32.9679 129.375 33.4338 130.524L36.4347 128.51Z" fill="#F04B01"/>
<path d="M27.8677 133.029C27.2626 133.029 26.6576 133.065 26.0526 133.029C25.9375 133.008 25.8294 132.958 25.7377 132.886C25.646 132.813 25.5734 132.719 25.5262 132.612C25.4597 132.261 25.6472 132.007 26.0889 132.007C27.1174 132.007 28.152 132.007 29.1806 132.007C29.441 132.041 29.7049 131.978 29.9216 131.829C30.1383 131.681 30.2924 131.457 30.3543 131.202C30.4702 130.922 30.4717 130.607 30.3587 130.325C30.2456 130.044 30.0269 129.818 29.7493 129.695C29.0879 129.371 28.3916 129.124 27.6741 128.957C25.859 128.625 24.8304 126.719 25.859 125.297C26.1634 124.927 26.5948 124.683 27.069 124.613C28.1658 124.492 29.2693 124.444 30.3725 124.468C30.5782 124.468 30.7839 124.758 30.9775 124.916C30.7718 125.037 30.5661 125.242 30.3725 125.255C29.5738 125.309 28.7631 125.255 27.9524 125.315C26.8996 125.382 26.4338 125.866 26.5608 126.743C26.6758 127.481 27.2989 127.705 27.9161 127.953C28.8176 128.28 29.7311 128.588 30.5963 129C31.2982 129.332 31.6249 130.567 31.3889 131.601C31.2453 131.982 31.0003 132.316 30.6803 132.568C30.3604 132.82 29.9778 132.979 29.5738 133.029C28.9688 133.029 28.4182 133.029 27.8435 133.029H27.8677Z" fill="#F04B01"/>
<path d="M45.1955 130.1C45.2087 130.51 45.1384 130.919 44.9888 131.301C44.8393 131.683 44.6136 132.03 44.3256 132.322C44.0375 132.614 43.6931 132.845 43.3132 132.999C42.9334 133.154 42.526 133.23 42.1159 133.222C40.2161 133.222 39.0424 132.121 38.9758 130.112C38.954 129.697 39.0184 129.281 39.1649 128.891C39.3113 128.501 39.5368 128.145 39.827 127.846C40.1173 127.548 40.4661 127.312 40.8516 127.154C41.2371 126.997 41.6511 126.92 42.0675 126.93C42.4814 126.932 42.8909 127.015 43.2725 127.175C43.654 127.336 44.0001 127.57 44.2908 127.865C44.5815 128.159 44.8111 128.509 44.9663 128.892C45.1216 129.276 45.1995 129.686 45.1955 130.1ZM39.9681 130.022C39.9739 130.59 40.1857 131.137 40.5639 131.56C40.9422 131.984 41.4614 132.257 42.0252 132.327C42.5989 132.305 43.1422 132.063 43.5428 131.652C43.9434 131.241 44.1707 130.691 44.1777 130.117C44.1847 129.543 43.9709 128.988 43.5804 128.567C43.1899 128.146 42.6526 127.892 42.0796 127.856C41.0269 127.765 39.9318 129.023 39.9681 129.998V130.022Z" fill="#F04B01"/>
<path d="M80.1783 127.076C81.1403 126.918 81.824 127.445 82.4713 127.995C82.8707 128.334 82.9433 128.6 82.3443 128.939C81.1342 129.623 80.027 130.427 78.9017 131.22C78.8466 131.324 78.8178 131.441 78.8178 131.559C78.8178 131.677 78.8466 131.793 78.9017 131.898C79.1699 132.108 79.4848 132.251 79.8198 132.314C80.1548 132.377 80.5001 132.359 80.8265 132.26C81.1529 132.162 81.4507 131.986 81.6949 131.748C81.9391 131.51 82.1224 131.217 82.2293 130.893C82.2293 130.893 82.2293 130.839 82.2293 130.821C82.4532 130.567 82.6771 130.319 82.907 130.07C83.0168 130.377 83.0741 130.701 83.0764 131.026C82.9746 131.454 82.7649 131.849 82.4673 132.173C82.1697 132.497 81.7941 132.74 81.3762 132.878C80.6623 133.145 79.8773 133.152 79.1583 132.899C78.4394 132.646 77.8324 132.148 77.4436 131.492C76.3969 129.81 77.613 127.862 78.8472 127.293C79.2782 127.157 79.7265 127.084 80.1783 127.076ZM78.0486 130.579C79.4281 130.161 80.3901 129.223 81.5033 128.497C81.2842 128.16 80.9505 127.913 80.5636 127.801C80.1768 127.69 79.7627 127.723 79.3978 127.892C78.2967 128.389 77.8429 129.205 78.0486 130.579Z" fill="black"/>
<path d="M46.4479 128.775C46.4479 127.602 46.4479 126.428 46.4479 125.248C46.4479 125.055 46.6415 124.867 46.7504 124.643C46.8636 124.813 46.9455 125.001 46.9924 125.2C47.0287 125.926 46.9924 126.652 46.9924 127.378C46.977 127.491 46.9883 127.607 47.0254 127.715C47.0624 127.824 47.1241 127.922 47.2057 128.002C47.2873 128.083 47.3865 128.143 47.4955 128.179C47.6044 128.214 47.7201 128.224 47.8334 128.207C48.7349 128.207 49.6485 128.207 50.5439 128.207C51.0642 128.207 51.2699 127.965 51.2699 127.481C51.2699 126.7 51.2699 125.926 51.2699 125.151C51.2699 124.958 51.5362 124.782 51.6814 124.595C51.8205 124.764 52.0807 124.934 52.0807 125.109C52.1372 127.557 52.1634 130.008 52.1593 132.46C52.1593 132.623 51.8508 132.781 51.6814 132.938C51.5301 132.763 51.2578 132.593 51.2518 132.418C51.2094 131.492 51.2155 130.566 51.2518 129.641C51.2518 129.036 51.034 128.836 50.4471 128.86C49.5698 128.896 48.6865 128.86 47.8092 128.86C47.2042 128.86 46.9561 129.114 46.9743 129.713C47.0045 130.591 47.0106 131.468 46.9743 132.339C46.9743 132.533 46.7746 132.72 46.6657 132.908C46.5568 132.72 46.3571 132.533 46.3511 132.339C46.3511 131.129 46.3511 129.919 46.3511 128.709L46.4479 128.775Z" fill="black"/>
<path d="M67.5453 130.536C67.5453 131.087 67.5816 131.637 67.5453 132.182C67.4784 132.456 67.3725 132.719 67.2306 132.962C67.1096 132.714 66.8858 132.466 66.8797 132.212C66.8374 131.238 66.8797 130.264 66.8797 129.29C66.8699 128.996 66.7933 128.708 66.6559 128.449C66.5549 128.187 66.3581 127.973 66.1054 127.85C65.8526 127.728 65.5628 127.706 65.2946 127.789C65.0011 127.864 64.7402 128.032 64.5521 128.27C64.364 128.507 64.2593 128.799 64.2539 129.102C64.2539 130.107 64.2539 131.105 64.2539 132.127C64.2539 132.418 64.0543 132.944 63.9332 132.95C63.3282 132.95 63.5823 132.466 63.5763 132.17C63.5763 131.196 63.5763 130.215 63.5763 129.241C63.5827 128.879 63.4525 128.527 63.2115 128.255C62.9705 127.984 62.6364 127.814 62.2755 127.777C61.9018 127.806 61.5514 127.97 61.2898 128.238C61.0282 128.507 60.8731 128.861 60.8537 129.235C60.8537 130.282 60.8537 131.335 60.8537 132.387C60.8537 132.581 60.66 132.781 60.5572 132.993C60.4543 132.805 60.2607 132.617 60.2547 132.424C60.2547 131.214 60.3031 129.973 60.2547 128.751C60.2063 127.68 61.5615 126.936 62.463 127.106C62.8571 127.224 63.2431 127.367 63.6186 127.535C63.8173 127.585 64.025 127.585 64.2237 127.535C64.7775 127.374 65.3443 127.26 65.9177 127.196C66.1374 127.193 66.3553 127.236 66.5579 127.321C66.7604 127.406 66.9432 127.532 67.0948 127.691C67.2464 127.85 67.3636 128.039 67.439 128.245C67.5144 128.451 67.5465 128.671 67.5332 128.89C67.5332 129.441 67.5332 129.992 67.5332 130.542L67.5453 130.536Z" fill="black"/>
<path d="M68.8037 130.488C68.8037 130.016 68.8037 129.538 68.8037 129.066C68.7844 128.693 68.8706 128.323 69.0524 127.997C69.2342 127.671 69.5042 127.403 69.8315 127.223C70.1587 127.044 70.5299 126.96 70.9025 126.982C71.2751 127.004 71.6339 127.131 71.9377 127.348C72.0823 127.454 72.2572 127.512 72.4369 127.512C72.6165 127.512 72.7914 127.454 72.936 127.348C74.2792 126.64 76.1064 127.142 76.1306 128.969C76.1306 130.095 76.1306 131.226 76.1306 132.345C76.1306 132.557 75.9067 132.757 75.7796 132.95C75.6707 132.739 75.4771 132.533 75.4711 132.345C75.4711 131.317 75.4711 130.294 75.4711 129.266C75.492 129.082 75.4746 128.897 75.4197 128.721C75.3648 128.545 75.2738 128.382 75.1525 128.243C75.0312 128.104 74.8822 127.992 74.7151 127.914C74.5479 127.836 74.3664 127.794 74.182 127.79C73.9976 127.786 73.8145 127.821 73.6443 127.892C73.4741 127.963 73.3206 128.069 73.1937 128.203C73.0667 128.337 72.9691 128.495 72.907 128.669C72.8449 128.843 72.8198 129.027 72.8332 129.211C72.8029 130.24 72.8332 131.262 72.8332 132.291C72.8332 132.521 72.6032 132.751 72.4762 132.975C72.3249 132.765 72.2141 132.529 72.1495 132.279C72.1495 131.28 72.1495 130.276 72.1495 129.254C72.1686 129.067 72.1493 128.878 72.0927 128.699C72.0361 128.52 71.9435 128.355 71.8204 128.213C71.6974 128.071 71.5466 127.956 71.3774 127.875C71.2082 127.794 71.0241 127.748 70.8366 127.741C70.463 127.776 70.1146 127.944 69.8556 128.215C69.5965 128.487 69.4442 128.843 69.4269 129.217C69.4269 130.246 69.4269 131.268 69.4269 132.297C69.4269 132.509 69.2272 132.726 69.1183 132.938C68.9874 132.736 68.8912 132.513 68.8339 132.279C68.7916 131.674 68.8339 131.069 68.8339 130.464L68.8037 130.488Z" fill="black"/>
<path d="M58.9417 131.032C58.9417 131.462 58.9417 131.885 58.9417 132.309C58.9417 132.993 58.6573 133.138 58.0523 132.86C57.8334 132.769 57.5875 132.769 57.3686 132.86C57.02 133.026 56.6415 133.121 56.2556 133.138C55.8696 133.156 55.4841 133.096 55.1219 132.961C54.7596 132.827 54.428 132.621 54.1467 132.356C53.8655 132.092 53.6402 131.773 53.4843 131.42C53.1297 130.809 53.0144 130.088 53.1608 129.397C53.3073 128.707 53.705 128.095 54.2769 127.68C55.3357 126.743 57.9071 126.864 58.5968 128.649C58.8251 129.424 58.985 130.217 59.0748 131.02L58.9417 131.032ZM57.9857 130.137C58.2036 128.322 57.1206 127.832 56.0194 127.765C54.9183 127.699 54.0833 128.697 54.0894 130.101C54.0894 131.311 55.0211 132.388 56.0497 132.394C57.1932 132.394 57.9918 131.468 57.9857 130.137Z" fill="black"/>
<path d="M84.0989 130.034C84.0989 129.259 84.0989 128.485 84.0989 127.717C84.1686 127.5 84.3207 127.32 84.5224 127.214C85.1274 127.523 85.7325 127.154 86.3375 127.214C86.5273 127.27 86.7071 127.356 86.8699 127.468C86.7484 127.602 86.6077 127.716 86.4525 127.807C85.2424 128.243 84.831 128.872 84.8915 130.155C84.9125 130.946 84.8822 131.739 84.8007 132.527C84.8007 132.684 84.5648 132.829 84.4317 132.986C84.3167 132.829 84.1049 132.678 84.0989 132.52C84.0686 131.698 84.0989 130.875 84.0989 130.052V130.034Z" fill="black"/>
<path d="M78.0487 130.579C77.843 129.205 78.2967 128.389 79.3979 127.886C79.7628 127.717 80.1768 127.684 80.5637 127.795C80.9506 127.907 81.2843 128.154 81.5034 128.491C80.3901 129.224 79.4281 130.161 78.0487 130.579Z" fill="white"/>
<path d="M57.9857 130.137C57.9857 131.468 57.1931 132.394 56.0496 132.381C55.0211 132.381 54.0894 131.28 54.0894 130.088C54.0894 128.697 54.8698 127.668 56.0194 127.765C57.1689 127.862 58.2035 128.34 57.9857 130.137Z" fill="white"/>
<path d="M23.4389 127.075L15.634 129.864L20.686 131.522L23.4389 134.469C23.4389 134.469 22.8339 130.645 22.973 130.385C23.1847 129.29 23.3402 128.186 23.4389 127.075Z" fill="#F04B01"/>
<path d="M15.2528 135.939L16.4084 139.721L19.5364 140.386L20.698 135.165L14.5449 130.252L15.2528 135.939Z" fill="#F04B01"/>
<path d="M6.45581 137.361C6.45581 137.361 8.44635 138.861 8.60366 138.758C8.76096 138.656 13.4076 136.635 13.4076 136.635L13.099 130.228L6.45581 137.361Z" fill="#F04B01"/>
<path d="M24.5218 120.384L17.9573 118L16.0454 128.963C17.0256 128.134 24.5218 120.384 24.5218 120.384Z" fill="#F04B01"/>
<path d="M5.54822 125.14L0.435747 124.153L0.375244 129.193L10.7212 127.826L5.54822 125.14Z" fill="#F04B01"/>
<path d="M11.7073 119.295C11.7073 119.295 13.6192 122.09 13.8733 122.398L14.2363 119.863L15.2527 118.653L11.7073 119.295Z" fill="#F04B01"/>
<path d="M15.2528 124.153L8.70032 120.523C8.70032 120.523 4.71319 124.698 4.64664 124.952C4.58009 125.206 9.68047 131.268 9.68047 131.268L14.1214 131.77L17.2433 127.838L15.2528 124.153ZM8.37966 126.603L6.0503 124.558L8.72452 121.533L11.2414 123.149L8.37966 126.603Z" fill="#666666"/>
<path d="M7.1514 129.278L8.2828 130.845C8.47463 131.108 8.57796 131.426 8.57796 131.752C8.57796 132.078 8.47463 132.396 8.2828 132.66L4.16257 138.178C4.00655 138.386 3.79688 138.547 3.55602 138.645C3.31516 138.744 3.05217 138.774 2.7952 138.734C2.31313 138.669 1.84964 138.505 1.43338 138.253C1.01712 138.001 0.656936 137.667 0.375097 137.27C-0.780504 135.552 1.10113 135.322 1.10113 135.322C1.10113 135.322 4.64054 132.448 5.94134 129.435C5.98822 129.32 6.06466 129.22 6.1629 129.144C6.26114 129.069 6.37766 129.02 6.50061 129.004C6.62356 128.988 6.74856 129.005 6.86287 129.053C6.97718 129.101 7.07674 129.179 7.1514 129.278Z" fill="#666666"/>
</g>
<path d="M227.786 163.079H228.782V166.824C228.323 167.226 227.781 167.535 227.154 167.75C226.528 167.965 225.869 168.073 225.176 168.073C224.194 168.073 223.311 167.858 222.525 167.427C221.74 166.997 221.122 166.403 220.673 165.646C220.224 164.879 220 164.023 220 163.079C220 162.134 220.224 161.283 220.673 160.525C221.122 159.759 221.74 159.16 222.525 158.73C223.311 158.3 224.199 158.084 225.19 158.084C225.939 158.084 226.626 158.206 227.253 158.449C227.879 158.683 228.408 159.034 228.838 159.501L228.193 160.161C227.416 159.394 226.43 159.01 225.233 159.01C224.438 159.01 223.718 159.188 223.072 159.543C222.436 159.889 221.936 160.376 221.571 161.002C221.206 161.62 221.024 162.312 221.024 163.079C221.024 163.845 221.206 164.538 221.571 165.155C221.936 165.772 222.436 166.258 223.072 166.614C223.708 166.969 224.424 167.147 225.219 167.147C226.229 167.147 227.084 166.894 227.786 166.389V163.079Z" fill="#BDBDBD"/>
<path d="M236.012 168.073C235.04 168.073 234.156 167.858 233.361 167.427C232.576 166.988 231.958 166.389 231.509 165.632C231.07 164.874 230.85 164.023 230.85 163.079C230.85 162.134 231.07 161.283 231.509 160.525C231.958 159.768 232.576 159.174 233.361 158.744C234.156 158.304 235.04 158.084 236.012 158.084C236.985 158.084 237.86 158.3 238.636 158.73C239.421 159.16 240.039 159.759 240.488 160.525C240.936 161.283 241.161 162.134 241.161 163.079C241.161 164.023 240.936 164.879 240.488 165.646C240.039 166.403 239.421 166.997 238.636 167.427C237.86 167.858 236.985 168.073 236.012 168.073ZM236.012 167.147C236.789 167.147 237.49 166.974 238.117 166.628C238.743 166.272 239.234 165.786 239.59 165.169C239.945 164.542 240.123 163.845 240.123 163.079C240.123 162.312 239.945 161.62 239.59 161.002C239.234 160.376 238.743 159.889 238.117 159.543C237.49 159.188 236.789 159.01 236.012 159.01C235.236 159.01 234.53 159.188 233.894 159.543C233.268 159.889 232.772 160.376 232.407 161.002C232.052 161.62 231.874 162.312 231.874 163.079C231.874 163.845 232.052 164.542 232.407 165.169C232.772 165.786 233.268 166.272 233.894 166.628C234.53 166.974 235.236 167.147 236.012 167.147Z" fill="#BDBDBD"/>
<path d="M253.584 162.966H255.31V166.88C254.805 167.282 254.215 167.591 253.542 167.806C252.869 168.021 252.177 168.129 251.466 168.129C250.465 168.129 249.563 167.914 248.758 167.483C247.954 167.044 247.323 166.441 246.865 165.674C246.406 164.907 246.177 164.042 246.177 163.079C246.177 162.115 246.406 161.25 246.865 160.483C247.323 159.716 247.954 159.118 248.758 158.688C249.572 158.248 250.484 158.028 251.494 158.028C252.317 158.028 253.065 158.164 253.739 158.435C254.412 158.706 254.978 159.104 255.436 159.628L254.286 160.75C253.537 160.002 252.635 159.628 251.578 159.628C250.886 159.628 250.269 159.773 249.726 160.062C249.193 160.352 248.772 160.759 248.464 161.283C248.165 161.807 248.015 162.405 248.015 163.079C248.015 163.733 248.165 164.322 248.464 164.846C248.772 165.37 249.193 165.781 249.726 166.081C250.269 166.38 250.881 166.529 251.564 166.529C252.331 166.529 253.004 166.361 253.584 166.024V162.966Z" fill="#919CA4"/>
<path d="M265.08 166.459V167.988H257.715V158.169H264.883V159.698H259.539V162.251H264.28V163.752H259.539V166.459H265.08Z" fill="#919CA4"/>
<path d="M269.105 159.712H265.85V158.169H274.183V159.712H270.929V167.988H269.105V159.712Z" fill="#919CA4"/>
<path d="M279.069 158.168H281.342V166.136H286.266V167.988H279.069V158.168Z" fill="#3D84A6"/>
<path d="M287.535 158.168H289.808V167.988H287.535V158.168Z" fill="#3D84A6"/>
<path d="M301.145 158.168V167.988H299.279L294.383 162.026V167.988H292.138V158.168H294.018L298.9 164.13V158.168H301.145Z" fill="#3D84A6"/>
<path d="M307.045 164.13L305.726 165.505V167.988H303.468V158.168H305.726V162.756L310.075 158.168H312.6L308.532 162.545L312.839 167.988H310.187L307.045 164.13Z" fill="#3D84A6"/>
<path d="M316.873 168.157C316.097 168.157 315.344 168.054 314.615 167.848C313.894 167.633 313.315 167.357 312.875 167.02L313.647 165.309C314.067 165.617 314.568 165.865 315.148 166.052C315.727 166.239 316.307 166.333 316.887 166.333C317.532 166.333 318.009 166.239 318.318 166.052C318.627 165.856 318.781 165.599 318.781 165.281C318.781 165.047 318.687 164.855 318.5 164.706C318.323 164.547 318.089 164.42 317.799 164.327C317.518 164.233 317.135 164.13 316.649 164.018C315.901 163.84 315.288 163.663 314.811 163.485C314.334 163.307 313.923 163.022 313.576 162.629C313.24 162.237 313.071 161.713 313.071 161.058C313.071 160.488 313.226 159.973 313.534 159.515C313.843 159.047 314.306 158.678 314.923 158.407C315.55 158.136 316.312 158 317.21 158C317.836 158 318.449 158.075 319.048 158.224C319.646 158.374 320.17 158.589 320.619 158.87L319.917 160.595C319.01 160.081 318.103 159.824 317.196 159.824C316.56 159.824 316.088 159.927 315.779 160.132C315.48 160.338 315.33 160.609 315.33 160.946C315.33 161.283 315.503 161.535 315.849 161.703C316.204 161.862 316.742 162.021 317.462 162.18C318.211 162.358 318.823 162.536 319.3 162.714C319.777 162.891 320.184 163.172 320.521 163.555C320.867 163.939 321.04 164.458 321.04 165.112C321.04 165.673 320.881 166.188 320.563 166.655C320.254 167.114 319.786 167.478 319.16 167.75C318.533 168.021 317.771 168.157 316.873 168.157Z" fill="#3D84A6"/>
<circle cx="243.82" cy="163.078" r="0.701417" fill="#C4C4C4"/>
<circle cx="275.384" cy="163.078" r="0.701417" fill="#C4C4C4"/>
<defs>
<clipPath id="clip0">
<rect width="80.4686" height="9.68043" fill="white" transform="translate(25.4866 224.465)"/>
</clipPath>
<clipPath id="clip1">
<rect width="44.772" height="10.8905" fill="white" transform="translate(217.885 224.465)"/>
</clipPath>
<clipPath id="clip2">
<rect width="91.3591" height="10.2855" fill="white" transform="translate(195.499 70.7881)"/>
</clipPath>
<clipPath id="clip3">
<rect width="32.7925" height="18.6953" fill="white" transform="translate(141.652 258.346)"/>
</clipPath>
<clipPath id="clip4">
<rect width="86.8456" height="22.386" fill="white" transform="translate(0 118)"/>
</clipPath>
</defs>
</svg>
