<svg width="338" height="59" viewBox="0 0 338 59" fill="none" xmlns="http://www.w3.org/2000/svg">
<g filter="url(#filter0_di)">
<rect x="-0.113525" y="10.9316" width="333.645" height="39.2523" rx="19.6262" fill="white"/>
<rect x="0.386475" y="11.4316" width="332.645" height="38.2523" rx="19.1262" stroke="white"/>
</g>
<path d="M82.5177 32.8975C82.5177 34.0021 82.2651 34.892 81.7597 35.5673C81.2544 36.2426 80.5701 36.5803 79.707 36.5803C78.826 36.5803 78.1328 36.3008 77.6275 35.7417V39.2367H76.3865V29.1879H77.5202L77.5805 29.9928C78.0859 29.3667 78.788 29.0537 79.6869 29.0537C80.559 29.0537 81.2477 29.3824 81.753 30.0398C82.2628 30.6972 82.5177 31.6117 82.5177 32.7834V32.8975ZM81.2767 32.7566C81.2767 31.9382 81.1023 31.292 80.7535 30.8179C80.4047 30.3439 79.9261 30.1069 79.3179 30.1069C78.5666 30.1069 78.0031 30.4401 77.6275 31.1064V34.5745C77.9987 35.2364 78.5666 35.5673 79.3314 35.5673C79.9261 35.5673 80.398 35.3325 80.7468 34.863C81.1001 34.3889 81.2767 33.6868 81.2767 32.7566Z" fill="#555555"/>
<path d="M88.5819 36.4461C88.5104 36.303 88.4522 36.0481 88.4075 35.6814C87.8306 36.2806 87.1419 36.5803 86.3414 36.5803C85.6259 36.5803 85.0378 36.379 84.5771 35.9765C84.121 35.5696 83.8929 35.0553 83.8929 34.4336C83.8929 33.6779 84.1791 33.092 84.7516 32.6761C85.3285 32.2557 86.1379 32.0455 87.1799 32.0455H88.3874V31.4753C88.3874 31.0416 88.2577 30.6972 87.9983 30.4423C87.7389 30.1829 87.3566 30.0532 86.8512 30.0532C86.4085 30.0532 86.0373 30.165 85.7377 30.3886C85.438 30.6122 85.2882 30.8828 85.2882 31.2003H84.0405C84.0405 30.8381 84.1679 30.4892 84.4229 30.1538C84.6822 29.814 85.0311 29.5456 85.4693 29.3489C85.9121 29.1521 86.3973 29.0537 86.925 29.0537C87.7613 29.0537 88.4164 29.2639 88.8905 29.6843C89.3645 30.1002 89.6105 30.6748 89.6284 31.4083V34.7489C89.6284 35.4153 89.7134 35.9452 89.8833 36.3388V36.4461H88.5819ZM86.5225 35.5002C86.9116 35.5002 87.2805 35.3996 87.6294 35.1984C87.9782 34.9971 88.2309 34.7355 88.3874 34.4135V32.9243H87.4147C85.8942 32.9243 85.1339 33.3693 85.1339 34.2592C85.1339 34.6483 85.2636 34.9524 85.523 35.1715C85.7824 35.3907 86.1155 35.5002 86.5225 35.5002Z" fill="#555555"/>
<path d="M95.5651 31.1735C95.5651 30.8336 95.4354 30.5653 95.176 30.3685C94.9167 30.1673 94.5611 30.0666 94.1094 30.0666C93.6712 30.0666 93.3045 30.1807 93.0093 30.4088C92.7186 30.6368 92.5733 30.9052 92.5733 31.2137H91.339C91.339 30.5832 91.6028 30.0666 92.1305 29.6641C92.6582 29.2617 93.3179 29.0604 94.1094 29.0604C94.9591 29.0604 95.621 29.2438 96.0951 29.6105C96.5691 29.9727 96.8061 30.4915 96.8061 31.1668C96.8061 31.4932 96.7077 31.7929 96.511 32.0657C96.3142 32.3385 96.0347 32.5554 95.6724 32.7164C96.5177 33.0026 96.9403 33.5661 96.9403 34.4068C96.9403 35.0732 96.6831 35.6009 96.1688 35.9899C95.6546 36.379 94.9681 36.5736 94.1094 36.5736C93.2732 36.5736 92.5822 36.3701 92.0366 35.9631C91.4955 35.5517 91.2249 34.9971 91.2249 34.2995H92.4592C92.4592 34.6528 92.6158 34.9569 92.9288 35.2118C93.2463 35.4622 93.6399 35.5875 94.1094 35.5875C94.5835 35.5875 94.9659 35.4779 95.2565 35.2588C95.5472 35.0396 95.6926 34.7556 95.6926 34.4068C95.6926 33.9999 95.5696 33.7092 95.3236 33.5348C95.0821 33.3559 94.7042 33.2664 94.1899 33.2664H92.9489V32.22H94.2973C95.1425 32.1976 95.5651 31.8488 95.5651 31.1735Z" fill="#555555"/>
<path d="M104.682 32.8975C104.682 34.0021 104.429 34.892 103.923 35.5673C103.418 36.2426 102.734 36.5803 101.871 36.5803C100.99 36.5803 100.297 36.3008 99.7913 35.7417V39.2367H98.5502V29.1879H99.6839L99.7443 29.9928C100.25 29.3667 100.952 29.0537 101.851 29.0537C102.723 29.0537 103.411 29.3824 103.917 30.0398C104.427 30.6972 104.682 31.6117 104.682 32.7834V32.8975ZM103.44 32.7566C103.44 31.9382 103.266 31.292 102.917 30.8179C102.568 30.3439 102.09 30.1069 101.482 30.1069C100.73 30.1069 100.167 30.4401 99.7913 31.1064V34.5745C100.162 35.2364 100.73 35.5673 101.495 35.5673C102.09 35.5673 102.562 35.3325 102.911 34.863C103.264 34.3889 103.44 33.6868 103.44 32.7566Z" fill="#555555"/>
<path d="M110.746 36.4461C110.674 36.303 110.616 36.0481 110.571 35.6814C109.994 36.2806 109.306 36.5803 108.505 36.5803C107.79 36.5803 107.202 36.379 106.741 35.9765C106.285 35.5696 106.057 35.0553 106.057 34.4336C106.057 33.6779 106.343 33.092 106.915 32.6761C107.492 32.2557 108.302 32.0455 109.344 32.0455H110.551V31.4753C110.551 31.0416 110.421 30.6972 110.162 30.4423C109.903 30.1829 109.52 30.0532 109.015 30.0532C108.572 30.0532 108.201 30.165 107.901 30.3886C107.602 30.6122 107.452 30.8828 107.452 31.2003H106.204C106.204 30.8381 106.332 30.4892 106.587 30.1538C106.846 29.814 107.195 29.5456 107.633 29.3489C108.076 29.1521 108.561 29.0537 109.089 29.0537C109.925 29.0537 110.58 29.2639 111.054 29.6843C111.528 30.1002 111.774 30.6748 111.792 31.4083V34.7489C111.792 35.4153 111.877 35.9452 112.047 36.3388V36.4461H110.746ZM108.686 35.5002C109.075 35.5002 109.444 35.3996 109.793 35.1984C110.142 34.9971 110.395 34.7355 110.551 34.4135V32.9243H109.578C108.058 32.9243 107.298 33.3693 107.298 34.2592C107.298 34.6483 107.427 34.9524 107.687 35.1715C107.946 35.3907 108.279 35.5002 108.686 35.5002Z" fill="#555555"/>
<path d="M116.924 29.6038C117.836 29.6038 118.565 29.9101 119.111 30.5228C119.661 31.131 119.936 31.9337 119.936 32.931V33.0451C119.936 33.7293 119.804 34.342 119.54 34.8831C119.276 35.4197 118.896 35.8379 118.4 36.1375C117.908 36.4327 117.34 36.5803 116.696 36.5803C115.721 36.5803 114.936 36.256 114.341 35.6076C113.746 34.9546 113.449 34.0804 113.449 32.9847V32.381C113.449 30.856 113.731 29.644 114.294 28.7451C114.862 27.8462 115.699 27.2984 116.803 27.1016C117.429 26.9898 117.852 26.8534 118.071 26.6924C118.29 26.5314 118.4 26.3101 118.4 26.0283H119.419C119.419 26.5873 119.292 27.0234 119.037 27.3364C118.787 27.6495 118.384 27.8708 117.83 28.0005L116.904 28.2085C116.166 28.3829 115.611 28.678 115.24 29.094C114.873 29.5054 114.634 30.0555 114.522 30.7442C115.18 29.9839 115.98 29.6038 116.924 29.6038ZM116.682 30.6234C116.074 30.6234 115.591 30.8291 115.233 31.2406C114.876 31.6475 114.697 32.2132 114.697 32.9377V33.0451C114.697 33.8232 114.876 34.4404 115.233 34.8965C115.596 35.3482 116.083 35.574 116.696 35.574C117.313 35.574 117.8 35.346 118.158 34.8898C118.516 34.4336 118.695 33.7673 118.695 32.8908C118.695 32.2065 118.514 31.6587 118.152 31.2473C117.794 30.8314 117.304 30.6234 116.682 30.6234Z" fill="#555555"/>
<path d="M121.002 32.7499C121.002 32.0388 121.141 31.3993 121.418 30.8314C121.7 30.2634 122.089 29.8251 122.586 29.5166C123.086 29.208 123.657 29.0537 124.296 29.0537C125.285 29.0537 126.083 29.3958 126.691 30.0801C127.304 30.7643 127.61 31.6744 127.61 32.8103V32.8975C127.61 33.6041 127.474 34.2391 127.201 34.8026C126.932 35.3616 126.546 35.7976 126.04 36.1107C125.539 36.4237 124.963 36.5803 124.31 36.5803C123.326 36.5803 122.527 36.2381 121.915 35.5539C121.307 34.8697 121.002 33.9641 121.002 32.8371V32.7499ZM122.25 32.8975C122.25 33.7025 122.436 34.3487 122.807 34.8361C123.183 35.3236 123.683 35.5673 124.31 35.5673C124.94 35.5673 125.441 35.3214 125.812 34.8294C126.183 34.333 126.369 33.6398 126.369 32.7499C126.369 31.9539 126.179 31.3099 125.799 30.8179C125.423 30.3215 124.922 30.0733 124.296 30.0733C123.683 30.0733 123.189 30.3171 122.814 30.8045C122.438 31.292 122.25 31.9896 122.25 32.8975Z" fill="#555555"/>
<path d="M134.412 30.1941H131.977V36.4461H130.736V30.1941H128.348V29.1879H134.412V30.1941Z" fill="#555555"/>
<path d="M137.88 33.3536H136.975V36.4461H135.727V29.1879H136.975V32.2602H137.786L140.228 29.1879H141.731L138.86 32.6761L141.972 36.4461H140.396L137.88 33.3536Z" fill="#555555"/>
<path d="M147.52 36.4461C147.448 36.303 147.39 36.0481 147.345 35.6814C146.769 36.2806 146.08 36.5803 145.279 36.5803C144.564 36.5803 143.976 36.379 143.515 35.9765C143.059 35.5696 142.831 35.0553 142.831 34.4336C142.831 33.6779 143.117 33.092 143.689 32.6761C144.266 32.2557 145.076 32.0455 146.118 32.0455H147.325V31.4753C147.325 31.0416 147.196 30.6972 146.936 30.4423C146.677 30.1829 146.294 30.0532 145.789 30.0532C145.346 30.0532 144.975 30.165 144.676 30.3886C144.376 30.6122 144.226 30.8828 144.226 31.2003H142.978C142.978 30.8381 143.106 30.4892 143.361 30.1538C143.62 29.814 143.969 29.5456 144.407 29.3489C144.85 29.1521 145.335 29.0537 145.863 29.0537C146.699 29.0537 147.354 29.2639 147.828 29.6843C148.302 30.1002 148.548 30.6748 148.566 31.4083V34.7489C148.566 35.4153 148.651 35.9452 148.821 36.3388V36.4461H147.52ZM145.46 35.5002C145.85 35.5002 146.218 35.3996 146.567 35.1984C146.916 34.9971 147.169 34.7355 147.325 34.4135V32.9243H146.353C144.832 32.9243 144.072 33.3693 144.072 34.2592C144.072 34.6483 144.202 34.9524 144.461 35.1715C144.72 35.3907 145.053 35.5002 145.46 35.5002Z" fill="#555555"/>
<path d="M158.099 34.8026L160.567 29.1879H162.117V36.4461H160.876V31.1668L158.528 36.4461H157.669L155.274 31.0527V36.4461H154.033V29.1879H155.643L158.099 34.8026Z" fill="#555555"/>
<path d="M163.787 32.7499C163.787 32.0388 163.926 31.3993 164.203 30.8314C164.485 30.2634 164.874 29.8251 165.37 29.5166C165.871 29.208 166.441 29.0537 167.081 29.0537C168.069 29.0537 168.867 29.3958 169.476 30.0801C170.088 30.7643 170.395 31.6744 170.395 32.8103V32.8975C170.395 33.6041 170.258 34.2391 169.985 34.8026C169.717 35.3616 169.33 35.7976 168.825 36.1107C168.324 36.4237 167.747 36.5803 167.094 36.5803C166.11 36.5803 165.312 36.2381 164.699 35.5539C164.091 34.8697 163.787 33.9641 163.787 32.8371V32.7499ZM165.035 32.8975C165.035 33.7025 165.22 34.3487 165.592 34.8361C165.967 35.3236 166.468 35.5673 167.094 35.5673C167.725 35.5673 168.226 35.3214 168.597 34.8294C168.968 34.333 169.154 33.6398 169.154 32.7499C169.154 31.9539 168.964 31.3099 168.583 30.8179C168.208 30.3215 167.707 30.0733 167.081 30.0733C166.468 30.0733 165.974 30.3171 165.598 30.8045C165.223 31.292 165.035 31.9896 165.035 32.8975Z" fill="#555555"/>
<path d="M175.137 29.6038C176.05 29.6038 176.779 29.9101 177.324 30.5228C177.874 31.131 178.149 31.9337 178.149 32.931V33.0451C178.149 33.7293 178.017 34.342 177.754 34.8831C177.49 35.4197 177.11 35.8379 176.613 36.1375C176.121 36.4327 175.553 36.5803 174.909 36.5803C173.934 36.5803 173.149 36.256 172.555 35.6076C171.96 34.9546 171.663 34.0804 171.663 32.9847V32.381C171.663 30.856 171.944 29.644 172.508 28.7451C173.076 27.8462 173.912 27.2984 175.017 27.1016C175.643 26.9898 176.065 26.8534 176.284 26.6924C176.504 26.5314 176.613 26.3101 176.613 26.0283H177.633C177.633 26.5873 177.505 27.0234 177.25 27.3364C177 27.6495 176.597 27.8708 176.043 28.0005L175.117 28.2085C174.379 28.3829 173.825 28.678 173.454 29.094C173.087 29.5054 172.848 30.0555 172.736 30.7442C173.393 29.9839 174.194 29.6038 175.137 29.6038ZM174.896 30.6234C174.288 30.6234 173.805 30.8291 173.447 31.2406C173.089 31.6475 172.91 32.2132 172.91 32.9377V33.0451C172.91 33.8232 173.089 34.4404 173.447 34.8965C173.809 35.3482 174.297 35.574 174.909 35.574C175.526 35.574 176.014 35.346 176.372 34.8898C176.729 34.4336 176.908 33.7673 176.908 32.8908C176.908 32.2065 176.727 31.6587 176.365 31.2473C176.007 30.8314 175.517 30.6234 174.896 30.6234Z" fill="#555555"/>
<path d="M184.12 29.1879H185.361V36.4461H184.12V31.1534L180.772 36.4461H179.531V29.1879H180.772V34.4873L184.12 29.1879Z" fill="#555555"/>
<path d="M193.303 29.1879V36.4461H192.055V30.2142H189.587L189.439 32.931C189.359 34.1787 189.148 35.0709 188.809 35.6076C188.473 36.1442 187.939 36.4237 187.205 36.4461H186.709V35.3527L187.064 35.3258C187.467 35.2811 187.755 35.0486 187.93 34.6282C188.104 34.2078 188.216 33.4297 188.265 32.2937L188.399 29.1879H193.303Z" fill="#555555"/>
<path d="M196.65 31.69H198.535C199.358 31.699 200.009 31.9136 200.487 32.334C200.966 32.7544 201.205 33.3246 201.205 34.0446C201.205 34.7691 200.959 35.3504 200.467 35.7887C199.975 36.227 199.314 36.4461 198.482 36.4461H195.409V29.1879H196.65V31.69ZM196.65 32.7029V35.4332H198.495C198.96 35.4332 199.32 35.3147 199.575 35.0776C199.83 34.8361 199.958 34.5074 199.958 34.0915C199.958 33.689 199.832 33.3603 199.582 33.1054C199.336 32.846 198.989 32.7119 198.542 32.7029H196.65Z" fill="#555555"/>
<path d="M208.685 36.4461H207.444V33.3469H204.11V36.4461H202.862V29.1879H204.11V32.334H207.444V29.1879H208.685V36.4461Z" fill="#555555"/>
<path d="M212.039 31.69H213.924C214.747 31.699 215.398 31.9136 215.876 32.334C216.355 32.7544 216.594 33.3246 216.594 34.0446C216.594 34.7691 216.348 35.3504 215.856 35.7887C215.364 36.227 214.702 36.4461 213.87 36.4461H210.798V29.1879H212.039V31.69ZM219.183 36.4461H217.935V29.1879H219.183V36.4461ZM212.039 32.7029V35.4332H213.884C214.349 35.4332 214.709 35.3147 214.964 35.0776C215.219 34.8361 215.346 34.5074 215.346 34.0915C215.346 33.689 215.221 33.3603 214.97 33.1054C214.724 32.846 214.378 32.7119 213.931 32.7029H212.039Z" fill="#555555"/>
<path d="M223.785 31.8376L225.395 29.1879H226.844L224.469 32.7767L226.918 36.4461H225.482L223.805 33.7293L222.128 36.4461H220.686L223.134 32.7767L220.76 29.1879H222.195L223.785 31.8376Z" fill="#555555"/>
<path d="M237.51 36.4461H236.269V30.2142H232.928V36.4461H231.68V29.1879H237.51V36.4461Z" fill="#555555"/>
<path d="M245.633 32.8975C245.633 34.0021 245.381 34.892 244.875 35.5673C244.37 36.2426 243.686 36.5803 242.823 36.5803C241.942 36.5803 241.249 36.3008 240.743 35.7417V39.2367H239.502V29.1879H240.636L240.696 29.9928C241.202 29.3667 241.904 29.0537 242.803 29.0537C243.675 29.0537 244.363 29.3824 244.869 30.0398C245.379 30.6972 245.633 31.6117 245.633 32.7834V32.8975ZM244.392 32.7566C244.392 31.9382 244.218 31.292 243.869 30.8179C243.52 30.3439 243.042 30.1069 242.434 30.1069C241.682 30.1069 241.119 30.4401 240.743 31.1064V34.5745C241.114 35.2364 241.682 35.5673 242.447 35.5673C243.042 35.5673 243.514 35.3325 243.862 34.863C244.216 34.3889 244.392 33.6868 244.392 32.7566Z" fill="#555555"/>
<path d="M251.912 29.1879H253.153V36.4461H251.912V31.1534L248.565 36.4461H247.324V29.1879H248.565V34.4873L251.912 29.1879Z" fill="#555555"/>
<path d="M261.096 29.1879V36.4461H259.848V30.2142H257.379L257.232 32.931C257.151 34.1787 256.941 35.0709 256.601 35.6076C256.266 36.1442 255.731 36.4237 254.998 36.4461H254.502V35.3527L254.857 35.3258C255.26 35.2811 255.548 35.0486 255.723 34.6282C255.897 34.2078 256.009 33.4297 256.058 32.2937L256.192 29.1879H261.096Z" fill="#555555"/>
<path d="M262.759 32.7499C262.759 32.0388 262.898 31.3993 263.175 30.8314C263.457 30.2634 263.846 29.8251 264.342 29.5166C264.843 29.208 265.414 29.0537 266.053 29.0537C267.041 29.0537 267.84 29.3958 268.448 30.0801C269.061 30.7643 269.367 31.6744 269.367 32.8103V32.8975C269.367 33.6041 269.231 34.2391 268.958 34.8026C268.689 35.3616 268.303 35.7976 267.797 36.1107C267.296 36.4237 266.719 36.5803 266.066 36.5803C265.083 36.5803 264.284 36.2381 263.672 35.5539C263.063 34.8697 262.759 33.9641 262.759 32.8371V32.7499ZM264.007 32.8975C264.007 33.7025 264.193 34.3487 264.564 34.8361C264.94 35.3236 265.44 35.5673 266.066 35.5673C266.697 35.5673 267.198 35.3214 267.569 34.8294C267.94 34.333 268.126 33.6398 268.126 32.7499C268.126 31.9539 267.936 31.3099 267.556 30.8179C267.18 30.3215 266.679 30.0733 266.053 30.0733C265.44 30.0733 264.946 30.3171 264.571 30.8045C264.195 31.292 264.007 31.9896 264.007 32.8975Z" fill="#555555"/>
<path d="M276.565 33.2933H275.693V36.4461H274.452V33.2933H273.58L271.547 36.4461H269.977L272.573 32.6895L270.226 29.1879H271.728L273.6 32.1931H274.452V29.1879H275.693V32.1931H276.538L278.423 29.1879H279.926L277.571 32.6962L280.167 36.4461H278.597L276.565 33.2933Z" fill="#555555"/>
<path d="M284.172 36.5803C283.188 36.5803 282.387 36.2583 281.77 35.6143C281.153 34.9658 280.845 34.1005 280.845 33.0182V32.7901C280.845 32.0701 280.981 31.4284 281.254 30.8649C281.531 30.2969 281.916 29.8542 282.408 29.5367C282.904 29.2147 283.441 29.0537 284.018 29.0537C284.961 29.0537 285.695 29.3645 286.218 29.9861C286.741 30.6078 287.003 31.4977 287.003 32.656V33.1725H282.086C282.103 33.8881 282.311 34.4672 282.709 34.9099C283.112 35.3482 283.622 35.5673 284.239 35.5673C284.677 35.5673 285.048 35.4779 285.352 35.299C285.657 35.1201 285.923 34.8831 286.151 34.5879L286.909 35.1783C286.301 36.1129 285.388 36.5803 284.172 36.5803ZM284.018 30.0733C283.517 30.0733 283.096 30.2567 282.756 30.6234C282.417 30.9857 282.206 31.4955 282.126 32.1529H285.762V32.059C285.726 31.4284 285.556 30.9409 285.252 30.5966C284.948 30.2478 284.536 30.0733 284.018 30.0733Z" fill="#555555"/>
<path d="M294.375 36.4461H293.134V33.3469H289.8V36.4461H288.552V29.1879H289.8V32.334H293.134V29.1879H294.375V36.4461Z" fill="#555555"/>
<path d="M301.07 29.1879H302.311V36.4461H301.07V31.1534L297.722 36.4461H296.481V29.1879H297.722V34.4873L301.07 29.1879Z" fill="#555555"/>
<path d="M308.999 29.1879H310.24V36.4461H308.999V31.1534L305.651 36.4461H304.41V29.1879H305.651V34.4873L308.999 29.1879ZM309.334 26.5448C309.334 27.086 309.149 27.522 308.777 27.8529C308.411 28.1794 307.928 28.3426 307.328 28.3426C306.729 28.3426 306.244 28.1772 305.873 27.8462C305.502 27.5153 305.316 27.0815 305.316 26.5448H306.329C306.329 26.8579 306.414 27.1039 306.584 27.2827C306.754 27.4572 307.002 27.5444 307.328 27.5444C307.641 27.5444 307.885 27.4572 308.06 27.2827C308.238 27.1083 308.328 26.8624 308.328 26.5448H309.334Z" fill="#555555"/>
<g clip-path="url(#clip0)">
<path d="M21.0562 30.1249H20.0956C18.5861 30.1249 17.1222 29.0215 17.1222 26.2626C17.1222 23.3891 18.4947 22.2165 19.8897 22.2165H21.0562V30.1249ZM22.5657 20.7452H19.9585C17.3964 20.7452 15.2241 22.6997 15.2241 26.4928C15.2241 28.7687 16.2761 30.447 18.1517 31.2741L14.6521 37.6193C14.5375 37.8263 14.6521 37.9873 14.8348 37.9873H16.4589C16.5959 37.9873 16.6879 37.9414 16.7336 37.8263L19.9128 31.5962H21.0562V37.8263C21.0562 37.8955 21.1251 37.9873 21.2164 37.9873H22.6346C22.7716 37.9873 22.8173 37.9181 22.8173 37.8036V20.9748C22.8173 20.8144 22.726 20.7452 22.5657 20.7452Z" fill="#ED1E24"/>
<path d="M31.163 26.4607H29.7449C29.6304 26.4607 29.5621 26.5526 29.5621 26.6218V31.0125H26.9318V26.6218C26.9318 26.5066 26.8861 26.4607 26.7715 26.4607H25.3534C25.2395 26.4607 25.1707 26.5299 25.1707 26.6218V37.7948C25.1707 37.9093 25.2163 37.9785 25.3302 37.9785H26.7715C26.8629 37.9785 26.9318 37.9093 26.9318 37.7948V32.4612H29.5621V37.7948C29.5621 37.9093 29.6304 37.9785 29.7449 37.9785H31.163C31.2775 37.9785 31.3232 37.886 31.3232 37.7948V26.6218C31.3232 26.5299 31.2544 26.4607 31.163 26.4607Z" fill="#231F20"/>
<path d="M63.5409 37.2424L63.3582 36.4611C63.335 36.3919 63.3125 36.3687 63.2437 36.3687C63.1291 36.3687 62.5121 36.6215 61.6196 36.6215C59.8817 36.6215 59.0349 34.9432 59.0349 32.2767C59.0349 29.9317 59.744 27.6099 60.9337 27.6099C61.2535 27.6099 61.6428 27.7017 62.2598 28.2766C62.3287 28.3458 62.3744 28.3685 62.4432 28.3685C62.5121 28.3685 62.5803 28.3226 62.6491 28.2074L63.2668 27.1959C63.3125 27.1274 63.335 27.0582 63.335 26.989C63.335 26.8972 63.2437 26.8286 63.1066 26.7594C62.1685 26.2763 61.5282 26.1844 60.9794 26.1844C58.8296 26.1844 57.1599 28.7591 57.1599 32.7825C57.1599 36.2535 58.7608 38.2539 61.0482 38.2539C62.0089 38.2539 63.0378 37.7941 63.4496 37.4953C63.5409 37.4261 63.5641 37.3342 63.5409 37.2424Z" fill="#231F20"/>
<path d="M53.6003 31.6566L56.3452 26.6218C56.3909 26.5532 56.3677 26.4607 56.2763 26.4607H54.927C54.5378 26.4607 54.4007 26.5991 54.2636 26.8979L52.2053 31.1968C52.0907 31.4497 51.9762 31.6107 51.8617 31.6799V26.6218C51.8617 26.5299 51.816 26.4607 51.7246 26.4607H50.2376C50.1694 26.4607 50.1006 26.5299 50.1006 26.6218V37.8175C50.1006 37.8867 50.1463 37.9785 50.2376 37.9785H51.7246C51.816 37.9785 51.8617 37.9093 51.8617 37.8175V32.0473C51.9305 32.0932 51.9762 32.1624 52.0219 32.2542L54.6291 37.6338C54.7668 37.9093 54.9727 37.9785 55.27 37.9785H56.7338C56.8252 37.9785 56.8483 37.8867 56.802 37.8175L53.6003 31.6566Z" fill="#231F20"/>
<path d="M38.0243 36.5302H34.708C35.8746 34.5304 36.3321 32.2772 36.4923 29.5182C36.538 28.9206 36.5605 28.3004 36.5605 27.9091H38.0243V36.5302ZM40.4945 36.5302H40.2204C39.8768 36.5302 39.7854 36.3924 39.7854 36.1162V26.6221C39.7854 26.507 39.7397 26.461 39.6484 26.461H35.0741C34.9596 26.461 34.8908 26.5296 34.8908 26.6221V27.4493C34.8908 30.2309 34.7312 33.8177 33.2674 36.5302H32.7636C32.6265 36.5302 32.5808 36.5993 32.5808 36.7138V40.0704C32.5808 40.1855 32.6722 40.2314 32.741 40.2314H33.8387C34.0903 40.2314 34.1817 40.0478 34.1817 39.8867V37.9782H39.0763V40.0704C39.0763 40.1623 39.1452 40.2314 39.2366 40.2314H40.4031C40.5402 40.2314 40.6779 40.1163 40.6779 39.8867V36.7138C40.6779 36.5993 40.609 36.5302 40.4945 36.5302Z" fill="#231F20"/>
<path d="M44.9088 31.1734C44.3831 31.1734 43.5595 31.2652 43.5595 31.2652C43.5595 31.2652 43.5595 30.9205 43.6052 30.5525C43.8111 28.5987 44.2911 27.6099 45.0922 27.6099C45.8238 27.6099 46.2813 28.6214 46.3958 30.3921C46.4183 30.7595 46.4183 31.1734 46.4183 31.1734H44.9088ZM45.1604 26.1851C42.6902 26.1851 41.5925 29.3114 41.5925 32.7139C41.5925 36.185 43.1477 38.2539 45.4352 38.2539C46.5554 38.2539 47.5392 37.8174 48.0424 37.4953C48.1337 37.4494 48.1569 37.3808 48.1337 37.2883L47.951 36.5071C47.9278 36.4152 47.8822 36.3693 47.7676 36.3693C47.6763 36.3693 47.0129 36.6222 46.0754 36.6222C44.3143 36.6222 43.4907 35.0816 43.4907 33.0586V32.5145C43.4907 32.5145 44.3831 32.6221 44.9088 32.6221H48.2483V31.6565C48.2483 28.093 46.9903 26.1851 45.1604 26.1851Z" fill="#231F20"/>
</g>
<path d="M291.335 0.137695L298.134 11.9134H284.536L291.335 0.137695Z" fill="white"/>
<defs>
<filter id="filter0_di" x="-4.11353" y="10.9316" width="341.645" height="47.2523" filterUnits="userSpaceOnUse" color-interpolation-filters="sRGB">
<feFlood flood-opacity="0" result="BackgroundImageFix"/>
<feColorMatrix in="SourceAlpha" type="matrix" values="0 0 0 0 0 0 0 0 0 0 0 0 0 0 0 0 0 0 127 0"/>
<feOffset dy="4"/>
<feGaussianBlur stdDeviation="2"/>
<feColorMatrix type="matrix" values="0 0 0 0 0 0 0 0 0 0 0 0 0 0 0 0 0 0 0.25 0"/>
<feBlend mode="normal" in2="BackgroundImageFix" result="effect1_dropShadow"/>
<feBlend mode="normal" in="SourceGraphic" in2="effect1_dropShadow" result="shape"/>
<feColorMatrix in="SourceAlpha" type="matrix" values="0 0 0 0 0 0 0 0 0 0 0 0 0 0 0 0 0 0 127 0" result="hardAlpha"/>
<feOffset dx="3" dy="3"/>
<feGaussianBlur stdDeviation="2"/>
<feComposite in2="hardAlpha" operator="arithmetic" k2="-1" k3="1"/>
<feColorMatrix type="matrix" values="0 0 0 0 0 0 0 0 0 0 0 0 0 0 0 0 0 0 0.09 0"/>
<feBlend mode="normal" in2="shape" result="effect2_innerShadow"/>
</filter>
<clipPath id="clip0">
<rect width="49.0654" height="19.6262" fill="white" transform="translate(14.6062 20.7451)"/>
</clipPath>
</defs>
</svg>
