<svg width="47" height="47" viewBox="0 0 47 47" fill="none" xmlns="http://www.w3.org/2000/svg">
<path d="M46.9914 16.4501C46.9138 15.1098 45.3198 14.0625 42.1316 13.2635C42.2389 13.0285 42.2992 12.7841 42.3 12.5303V7.0501H42.2867C42.0063 2.48483 23.2987 2.3501 21.15 2.3501C19.0013 2.3501 0.29375 2.48483 0.0133167 7.0501H0V7.15193V12.5326C0.00391667 14.021 1.92465 15.1858 4.78225 16.0529C4.74308 16.183 4.71958 16.3154 4.71175 16.4501H4.7V16.5519V21.9232C1.6215 22.716 0.0838167 23.7484 0.00783333 25.0668H0V25.1686V30.5493C0.00235 31.5857 0.936867 32.4646 2.46593 33.197C2.40797 33.356 2.37193 33.5181 2.36175 33.6842H2.35V33.786V39.1668C2.35627 41.7721 8.22265 43.3897 14.7408 44.1448C14.7886 44.1542 14.8324 44.1738 14.8833 44.1738C14.8982 44.1738 14.9108 44.166 14.9256 44.1652C16.1821 44.307 17.4589 44.4174 18.7225 44.4966C18.7491 44.4997 18.7726 44.5122 18.8 44.5122C18.8149 44.5122 18.8266 44.5044 18.8407 44.5036C20.445 44.6007 22.0234 44.6501 23.5 44.6501C24.9766 44.6501 26.555 44.6007 28.1593 44.5028C28.1734 44.5036 28.1859 44.5114 28.2 44.5114C28.2274 44.5114 28.2509 44.4981 28.2775 44.4958C29.5411 44.4167 30.8179 44.307 32.0744 44.1644C32.0892 44.1644 32.1018 44.1723 32.1167 44.1723C32.1676 44.1723 32.2114 44.1527 32.2592 44.1433C38.7774 43.3881 44.643 41.7698 44.65 39.1636V33.6834H44.6375C44.5826 32.7231 43.7641 31.9217 42.1473 31.252C42.246 31.0256 42.3 30.7906 42.3 30.547V25.4271C45.1122 24.5623 46.9961 23.4053 47 21.9303V16.4501H46.9914ZM40.6487 30.8015L40.3816 31.0358C39.9704 31.3984 39.285 31.7643 38.3833 32.1168V28.3818C39.3147 28.0575 40.1075 27.698 40.7333 27.304V30.5454C40.7333 30.6261 40.7036 30.7122 40.6487 30.8015ZM23.1287 34.4417C23.0143 34.4448 22.8992 34.4464 22.784 34.4487C22.5044 34.4542 22.2177 34.4558 21.9341 34.4581V30.5454C22.1495 30.543 22.365 30.5399 22.5804 30.536C22.6219 30.5352 22.6634 30.5344 22.7049 30.5336C23.4937 30.5188 24.2826 30.4945 25.0674 30.4584V34.3696C24.8998 34.3782 24.7314 34.3861 24.5614 34.3931C24.0899 34.4143 23.6136 34.4299 23.1287 34.4417ZM19.7079 34.4527C19.3491 34.4464 18.9919 34.4378 18.6371 34.4268C18.5932 34.4252 18.5493 34.4237 18.5055 34.4221C18.0786 34.408 17.6548 34.39 17.2341 34.3696V30.4592C18.019 30.496 18.8078 30.5203 19.5967 30.5344C19.6382 30.5352 19.6797 30.536 19.7204 30.5368C19.9358 30.5407 20.1513 30.5438 20.3667 30.5462V34.4613C20.2147 34.4597 20.0627 34.4597 19.9116 34.4574C19.8426 34.4558 19.776 34.4534 19.7079 34.4527ZM5.55932 32.6667C5.53347 32.6588 5.50918 32.6518 5.48333 32.6447V28.8604C6.21497 29.0578 7.00143 29.238 7.83333 29.4017V33.2252C7.11423 33.0724 6.45075 32.9118 5.8468 32.7473C5.75123 32.7199 5.65253 32.6941 5.55932 32.6667ZM22.0704 39.1534C22.2858 39.1574 22.5013 39.1605 22.7167 39.1628V43.0787C21.6341 43.0685 20.5891 43.0372 19.5833 42.9879V39.0767C20.3682 39.1135 21.1571 39.1378 21.9459 39.1519C21.9874 39.1519 22.0289 39.1527 22.0704 39.1534ZM25.0541 39.1511C25.843 39.1362 26.6318 39.1119 27.4167 39.0759V42.9871C26.4109 43.0364 25.3659 43.0678 24.2833 43.0779V39.1621C24.4988 39.1597 24.7142 39.1566 24.9296 39.1527C24.9711 39.1527 25.0126 39.1519 25.0541 39.1511ZM31.3333 38.797V42.6871C30.5806 42.7662 29.7972 42.8359 28.9833 42.8931V38.9866C29.7776 38.9349 30.5625 38.8714 31.3333 38.797ZM32.9 38.6278C33.7076 38.5307 34.4917 38.4202 35.25 38.2973V42.1434C34.5121 42.2735 33.728 42.3933 32.9 42.5022V38.6278ZM36.8167 38.0176C37.6486 37.8539 38.435 37.6737 39.1667 37.4763V41.2606C38.4687 41.4619 37.683 41.657 36.8167 41.8411V38.0176ZM10.1833 38.0176V41.8411C9.31697 41.657 8.53128 41.4619 7.83333 41.2606V37.4763C8.56497 37.6737 9.35143 37.8547 10.1833 38.0176ZM11.75 38.298C12.5083 38.421 13.2924 38.5315 14.1 38.6286V42.503C13.272 42.3941 12.4879 42.2742 11.75 42.1442V38.298ZM15.6667 38.797C16.4375 38.8714 17.2224 38.9349 18.0167 38.9874V42.8939C17.2028 42.8367 16.4195 42.767 15.6667 42.6878V38.797ZM13.7232 34.1127C13.6433 34.1049 13.5642 34.0962 13.4851 34.0884C13.4287 34.0829 13.3731 34.0759 13.3167 34.0704V30.1811C14.0875 30.2556 14.8724 30.319 15.6667 30.3715V34.2748C15.0087 34.2278 14.3585 34.1746 13.7232 34.1127ZM11.75 30.0112V33.8855C10.922 33.7766 10.1379 33.6568 9.4 33.5268V29.6806C10.1583 29.8036 10.9424 29.9148 11.75 30.0112ZM27.155 34.238C26.9827 34.2513 26.8088 34.2647 26.6333 34.2772V30.3707C27.4276 30.3182 28.2125 30.2556 28.9833 30.1804V34.0704C28.4992 34.1213 28.0042 34.1691 27.4958 34.2106C27.3822 34.2208 27.2686 34.2294 27.155 34.238ZM30.55 33.8855V30.0112C31.3576 29.914 32.1417 29.8036 32.9 29.6806V33.5268C32.1621 33.6568 31.378 33.7774 30.55 33.8855ZM34.4667 29.4009C35.2986 29.2372 36.085 29.0571 36.8167 28.8597V32.6439C36.1187 32.8453 35.333 33.0403 34.4667 33.2244V29.4009ZM23.7546 25.8227C23.1655 25.8078 22.5898 25.7851 22.0242 25.7577C21.9937 25.7561 21.9631 25.7545 21.9333 25.7537V21.8426C22.7182 21.8794 23.5071 21.9037 24.2959 21.9178C24.3374 21.9185 24.3789 21.9193 24.4196 21.9201C24.635 21.924 24.8505 21.9272 25.0659 21.9295V25.8407C24.6844 25.8368 24.2998 25.8352 23.9277 25.8266C23.8705 25.825 23.8118 25.8242 23.7546 25.8227ZM5.48333 14.6281V10.8438C6.21497 11.0412 7.00143 11.2213 7.83333 11.3851V15.2085C7.73698 15.1881 7.6375 15.1678 7.5435 15.1474C7.12677 15.0558 6.72022 14.9602 6.33168 14.8591C6.03558 14.7832 5.75437 14.7056 5.48333 14.6281ZM19.7204 12.5201C19.9358 12.524 20.1513 12.5272 20.3667 12.5295V16.4407C19.3123 16.4305 18.2642 16.4031 17.2333 16.3514V12.4433C18.0182 12.4802 18.8071 12.5044 19.5959 12.5185C19.6374 12.5185 19.6789 12.5193 19.7204 12.5201ZM22.7041 12.5178C23.493 12.5029 24.2818 12.4786 25.0667 12.4426V16.3506C24.9335 16.3569 24.8058 16.3663 24.6719 16.3725C24.6609 16.3733 24.6499 16.3733 24.6382 16.3741C24.1126 16.3976 23.5768 16.4148 23.0339 16.4274C22.9493 16.4297 22.8647 16.4305 22.7801 16.4329C22.5013 16.4383 22.2161 16.4391 21.9333 16.4423V12.5295C22.1488 12.5272 22.3642 12.524 22.5796 12.5201C22.6211 12.5193 22.6626 12.5185 22.7041 12.5178ZM40.554 12.911L40.532 12.9063L40.2469 13.128C39.8333 13.4499 39.198 13.7758 38.3833 14.0907V10.3644C39.3147 10.0401 40.1075 9.68053 40.7333 9.28651V12.5279C40.7333 12.647 40.6707 12.7755 40.554 12.911ZM30.55 15.8642V11.9945C31.3576 11.8974 32.1417 11.7869 32.9 11.6639V15.5038C32.1574 15.6354 31.3756 15.7561 30.55 15.8642ZM34.4667 15.2022V11.3851C35.2986 11.2213 36.085 11.0412 36.8167 10.8438V14.6194C36.1148 14.8239 35.3244 15.0189 34.4667 15.2022ZM28.9833 12.1637V16.049C28.2266 16.1289 27.4433 16.1986 26.6333 16.2566V12.354C27.4276 12.3016 28.2125 12.2381 28.9833 12.1637ZM13.3167 16.0506V12.1637C14.0875 12.2381 14.8724 12.3016 15.6667 12.354V16.2535C14.8692 16.1963 14.0828 16.1313 13.3167 16.0506ZM11.75 11.9945V15.8649C11.5949 15.8446 11.4335 15.8281 11.28 15.807C11.1797 15.7929 11.0842 15.778 10.9855 15.7639C10.5327 15.6989 10.0901 15.6292 9.65615 15.5563C9.5692 15.5414 9.48538 15.5258 9.4 15.5109V11.6647C10.1583 11.7869 10.9424 11.8981 11.75 11.9945ZM20.1724 25.6456C20.0667 25.6378 19.9601 25.63 19.8552 25.6221C19.3538 25.583 18.8642 25.5399 18.3864 25.4921C18.2838 25.4819 18.1812 25.471 18.0793 25.4608C18.0582 25.4584 18.0378 25.4553 18.0167 25.4537V21.5637C18.7875 21.6381 19.5724 21.7016 20.3667 21.754V25.6582C20.3032 25.6535 20.2359 25.6503 20.1724 25.6456ZM14.9969 25.0605C14.6867 25.0111 14.3953 24.9579 14.1 24.9062V21.0647C14.8583 21.1877 15.6424 21.2981 16.45 21.3953V25.2696C15.9706 25.2062 15.5014 25.1404 15.051 25.0699C15.033 25.066 15.0149 25.0628 14.9969 25.0605ZM12.5333 20.7843V24.6015C11.6678 24.4158 10.8829 24.2184 10.1833 24.0132V20.243C10.915 20.4404 11.7014 20.6213 12.5333 20.7843ZM8.61667 19.7644V23.486C7.38527 23.0105 6.59097 22.5248 6.33247 22.0924L6.27998 22.0047C6.27528 21.9804 6.26745 21.9546 6.26667 21.9303V18.6865C6.89255 19.0805 7.68528 19.4401 8.61667 19.7644ZM27.4041 21.9178C28.193 21.9029 28.9818 21.8786 29.7667 21.8426V25.7498C28.7374 25.8007 27.6908 25.8289 26.6333 25.8399V21.9295C26.8488 21.9272 27.0642 21.924 27.2796 21.9201C27.3211 21.9193 27.3626 21.9185 27.4041 21.9178ZM37.5272 24.9234C37.1833 24.9829 36.8363 25.0417 36.4798 25.0957C36.2754 25.1271 36.0662 25.1568 35.8563 25.1866C35.6581 25.2148 35.4521 25.2391 35.2508 25.2649V21.3945C36.0584 21.2974 36.8425 21.1869 37.6008 21.0639V24.9101C37.5757 24.9148 37.5514 24.9195 37.5272 24.9234ZM32.2232 25.5924C31.931 25.6167 31.6294 25.6323 31.3333 25.6535V21.754C32.1276 21.7016 32.9125 21.6389 33.6833 21.5637V25.4498C33.2282 25.4976 32.7739 25.5454 32.3062 25.5845C32.278 25.5869 32.2514 25.59 32.2232 25.5924ZM41.1751 24.1236C40.785 24.2325 40.3722 24.3343 39.9508 24.4338C39.7557 24.4793 39.5568 24.5247 39.3531 24.5686C39.2928 24.5819 39.2285 24.5936 39.1674 24.6069V20.7851C39.9994 20.6213 40.7858 20.4412 41.5175 20.2438V24.0281C41.4047 24.0594 41.2911 24.0915 41.1751 24.1236ZM45.4247 16.501C45.3526 17.0329 44.1471 17.7402 41.9953 18.4053C39.2239 19.2615 34.8873 20.0456 29.3915 20.2884C29.1102 20.3002 28.8298 20.3119 28.5431 20.3213C28.3089 20.3292 28.0739 20.3362 27.835 20.3425C27.1864 20.3566 26.5284 20.3668 25.85 20.3668C25.1716 20.3668 24.5136 20.3566 23.865 20.3417C23.6269 20.3362 23.3919 20.3284 23.1569 20.3205C22.8694 20.3119 22.589 20.2994 22.3086 20.2876C16.8127 20.0448 12.4754 19.2607 9.70472 18.4045C7.57013 17.7449 6.36693 17.0431 6.27763 16.5135C6.28155 16.4987 6.28155 16.4861 6.29095 16.4673C6.34422 16.4806 6.40375 16.4916 6.4578 16.5049C6.76408 16.5778 7.0782 16.6483 7.3978 16.7156C8.95428 17.0509 10.6792 17.3259 12.5169 17.5358C12.5232 17.5358 12.5279 17.5389 12.5333 17.5389C12.5349 17.5389 12.5365 17.5381 12.5372 17.5381C13.789 17.6807 15.0878 17.7927 16.421 17.8718C16.4312 17.8718 16.4398 17.8773 16.45 17.8773C16.4555 17.8773 16.4594 17.8742 16.4649 17.8742C17.4245 17.9306 18.3966 17.9721 19.3804 17.994C19.9828 18.0089 20.5743 18.0168 21.15 18.0168C21.5613 18.0168 21.9827 18.0121 22.408 18.0042C28.0997 17.9165 33.3747 17.2397 37.0454 16.1908C37.2146 16.143 37.3799 16.0937 37.5428 16.0443C37.6423 16.0138 37.7441 15.984 37.8405 15.9535C38.1241 15.8626 38.3959 15.7694 38.6583 15.6722C38.7037 15.655 38.7468 15.6378 38.7922 15.6205C39.0139 15.5367 39.227 15.4498 39.4307 15.3613C39.4894 15.3354 39.5497 15.3103 39.6069 15.2845C39.8239 15.1866 40.0338 15.0863 40.2281 14.9821C40.3158 14.9359 40.3918 14.8881 40.474 14.8411C40.5681 14.7871 40.6621 14.7322 40.749 14.6766C40.7984 14.6453 40.8571 14.6155 40.9041 14.5842C44.4111 15.3448 45.3354 16.1767 45.4247 16.501ZM21.15 3.91676C34.0664 3.91676 40.5994 5.9503 40.7216 7.11746C40.6268 7.647 39.4244 8.34651 37.2953 9.00451C34.5238 9.8607 30.1873 10.6448 24.6915 10.8876C24.4102 10.8994 24.1298 10.9111 23.8431 10.9205C23.6089 10.9284 23.3739 10.9354 23.135 10.9417C22.4864 10.9566 21.8284 10.9668 21.15 10.9668C20.4716 10.9668 19.8136 10.9566 19.165 10.9417C18.9269 10.9362 18.6919 10.9284 18.4569 10.9205C18.1694 10.9119 17.889 10.8994 17.6086 10.8876C12.1127 10.6448 7.77537 9.8607 5.00472 9.00451C2.87483 8.34651 1.6732 7.647 1.57842 7.11746C1.70062 5.9503 8.23362 3.91676 21.15 3.91676ZM1.56667 12.5303V9.28651C2.19255 9.68053 2.98528 10.0401 3.91667 10.3644V14.115C2.39308 13.5439 1.56823 12.9713 1.56667 12.5303ZM5.36113 23.3708C5.37288 23.3834 5.3909 23.3943 5.40265 23.4069C6.47503 24.4894 8.69578 25.3401 11.4602 25.9746C11.5236 25.9895 11.591 26.0036 11.6552 26.0185C11.8581 26.0639 12.0641 26.1086 12.2725 26.1517C14.8113 26.6922 17.842 27.0831 21.1437 27.2765C21.1461 27.2765 21.1477 27.2773 21.1492 27.2773C21.1508 27.2773 21.1516 27.2765 21.1524 27.2765C22.213 27.3384 23.2979 27.3815 24.4055 27.4003C24.8959 27.4105 25.3784 27.4168 25.85 27.4168C26.3905 27.4168 26.9451 27.4105 27.5091 27.3972C28.5337 27.376 29.5434 27.3337 30.539 27.2758C30.543 27.2758 30.5461 27.2781 30.55 27.2781C30.5571 27.2781 30.5625 27.2742 30.5696 27.2742C33.88 27.0791 36.9859 26.6843 39.6124 26.1164C39.0437 26.4141 38.2651 26.7219 37.2953 27.022C34.3695 27.9259 29.697 28.7492 23.7585 28.9403C23.5823 28.9458 23.4084 28.9521 23.2298 28.9568C23.0378 28.9615 22.8428 28.9646 22.6477 28.9685C22.155 28.9764 21.6592 28.9834 21.15 28.9834C20.4716 28.9834 19.8136 28.9732 19.165 28.9584C18.9269 28.9529 18.6919 28.945 18.4569 28.9372C18.1694 28.9286 17.889 28.9161 17.6086 28.9043C12.1127 28.6615 7.77537 27.8774 5.00472 27.0212C2.85055 26.3553 1.645 25.6472 1.57528 25.1153C1.66223 24.8208 2.45418 24.0837 5.36113 23.3708ZM1.56667 30.547V27.3032C2.19255 27.6972 2.98528 28.0567 3.91667 28.381V32.1168L3.46938 31.9429L3.45998 31.9523C2.23015 31.4423 1.56823 30.9418 1.56667 30.547ZM3.91667 39.1636V35.9198C4.54255 36.3139 5.33528 36.6734 6.26667 36.9977V40.7483C4.74308 40.1773 3.91823 39.6046 3.91667 39.1636ZM40.7333 40.7483V36.9985C41.6647 36.6742 42.4575 36.3146 43.0833 35.9206V39.1621C43.0826 39.6031 42.2569 40.1765 40.7333 40.7483ZM43.0732 33.7437C42.9878 34.2741 41.7846 34.9775 39.6453 35.6386C36.8739 36.4948 32.5373 37.2789 27.0415 37.5218C26.7602 37.5335 26.4798 37.5453 26.1931 37.5547C25.9589 37.5625 25.7239 37.5695 25.485 37.5758C24.8364 37.5899 24.1784 37.6001 23.5 37.6001C22.8216 37.6001 22.1629 37.5899 21.5135 37.575C21.2777 37.5695 21.045 37.5617 20.8124 37.5539C20.5233 37.5445 20.2413 37.5327 19.9586 37.521C14.4627 37.2781 10.1262 36.494 7.35472 35.6378C5.2828 34.9979 4.08587 34.3179 3.93547 33.7931C4.1689 33.8746 4.41095 33.9537 4.65927 34.0312C4.68433 34.0391 4.7094 34.0469 4.73447 34.0539C4.94597 34.119 5.16217 34.1816 5.38385 34.2427C5.46767 34.2662 5.55227 34.2897 5.63765 34.3124C5.76298 34.3461 5.89145 34.3782 6.01992 34.4111C8.87282 35.142 12.5145 35.6598 16.4461 35.8924C16.4477 35.8924 16.4484 35.8932 16.45 35.8932C16.4508 35.8932 16.4516 35.8924 16.4524 35.8924C17.6665 35.9645 18.9065 36.0091 20.1599 36.024C20.4936 36.0303 20.8249 36.0334 21.15 36.0334C21.5816 36.0334 22.0234 36.0279 22.4707 36.0201C23.6136 36.0013 24.7416 35.959 25.8445 35.8932C25.8469 35.8932 25.8484 35.8948 25.8508 35.8948C25.8547 35.8948 25.857 35.8924 25.861 35.8924C27.2044 35.8117 28.5047 35.6966 29.7541 35.5532C29.7588 35.5532 29.7628 35.5556 29.7675 35.5556C29.7847 35.5556 29.7988 35.547 29.816 35.5454C31.2072 35.3848 32.5264 35.1874 33.7507 34.9579C34.0029 34.9117 34.2513 34.8639 34.4972 34.8146C34.5521 34.8036 34.6069 34.7926 34.6617 34.7809C36.9749 34.3062 38.9771 33.6913 40.3511 32.9291C40.4263 32.8883 40.4968 32.846 40.5681 32.8045C40.655 32.7528 40.738 32.7003 40.8187 32.6471C40.8939 32.5985 40.9809 32.5515 41.0498 32.5022C42.5961 33.0536 43.0222 33.5471 43.0732 33.7437ZM43.0833 23.515V19.7652C44.0147 19.4409 44.8075 19.0813 45.4333 18.6873V21.9287C45.4326 22.3697 44.6069 22.9431 43.0833 23.515Z" fill="#3C2458"/>
</svg>
