<svg width="42" height="15" viewBox="0 0 42 15" fill="none" xmlns="http://www.w3.org/2000/svg">
<path d="M0.624023 9.22754L10.1689 4.45508V5.97559L3.64746 9.21875L10.1689 12.4971V14L0.624023 9.22754ZM15.46 10.1152L15.0557 0.359375H17.2354L16.8223 10.1152H15.46ZM16.2158 14.4131C15.8701 14.4131 15.5713 14.2871 15.3193 14.0352C15.0732 13.7891 14.9502 13.4932 14.9502 13.1475C14.9502 12.8018 15.0732 12.5059 15.3193 12.2598C15.5713 12.0137 15.8701 11.8906 16.2158 11.8906C16.5557 11.8906 16.8486 12.0137 17.0947 12.2598C17.3467 12.5 17.4727 12.7959 17.4727 13.1475C17.4727 13.499 17.3467 13.7979 17.0947 14.0439C16.8428 14.29 16.5498 14.4131 16.2158 14.4131ZM23.6162 9.15723V7.79492H30.4365V9.15723H23.6162ZM34.4268 9.15723V7.79492H41.2471V9.15723H34.4268Z" fill="#555555"/>
</svg>
