<svg width="50" height="50" viewBox="0 0 50 50" fill="none" xmlns="http://www.w3.org/2000/svg">
<path d="M37.9169 0H4.58343C2.28342 0.00270834 0.419456 1.86667 0.416748 4.16668V30.8335C0.41654 32.734 1.70238 34.3937 3.54259 34.8685L3.95926 33.2551C2.85478 32.9703 2.083 31.9741 2.08342 30.8335V4.16668C2.08342 2.78595 3.2027 1.66667 4.58343 1.66667H37.9169C39.2976 1.66667 40.4169 2.78595 40.4169 4.16668V5.00002H42.0836V4.16668C42.0809 1.86667 40.2169 0.00270834 37.9169 0Z" fill="#362758"/>
<path d="M5.41667 3.3335H3.75V5.00017H5.41667V3.3335Z" fill="#362758"/>
<path d="M8.74993 3.3335H7.08325V5.00017H8.74993V3.3335Z" fill="#362758"/>
<path d="M12.0834 3.3335H10.4167V5.00017H12.0834V3.3335Z" fill="#362758"/>
<path d="M49.3393 46.0778L41.4351 38.1736C41.8503 37.4325 42.1824 36.6477 42.4251 35.8336H43.7501V34.1669H42.7835C43.0973 32.1497 42.8554 30.0851 42.0835 28.1952V20.0002H40.4168V25.3069C39.9219 24.6747 39.3635 24.095 38.7501 23.5769V16.6668H37.0835V22.4119C36.55 22.1027 35.9926 21.8366 35.4168 21.616V13.3335H33.7501V21.1102C33.2009 20.9917 32.644 20.9134 32.0834 20.876V15.0002H30.4168V20.876C29.8562 20.9134 29.2993 20.9917 28.7501 21.1102V18.3335H27.0834V21.616C26.5076 21.8366 25.9503 22.1027 25.4167 22.4119V17.5002H23.7501V23.5769C23.1367 24.095 22.5783 24.6747 22.0834 25.3069V19.1669H20.4167V28.1952C19.6448 30.0851 19.4029 32.1497 19.7167 34.1669H8.75V35.8336H20.075C21.9028 41.9984 28.382 45.5143 34.5467 43.6865C35.7615 43.3263 36.9094 42.7703 37.9451 42.0403L45.661 49.7562C45.9864 50.0815 46.5139 50.0815 46.8393 49.7562L49.3393 47.2561C49.6646 46.9307 49.6646 46.4032 49.3393 46.0778ZM31.2501 42.5003C25.7297 42.4944 21.256 38.0207 21.2501 32.5002C21.2501 26.9774 25.7273 22.5002 31.2501 22.5002C36.7729 22.5002 41.2501 26.9774 41.2501 32.5002C41.2501 38.0231 36.7729 42.5003 31.2501 42.5003ZM46.2502 47.9886L39.2401 40.9786C39.6943 40.5494 40.1137 40.085 40.4943 39.5894L47.5718 46.667L46.2502 47.9886Z" fill="#362758"/>
<path d="M31.2501 24.167C26.6477 24.167 22.9167 27.8979 22.9167 32.5004C22.9167 37.1028 26.6477 40.8337 31.2501 40.8337C35.8525 40.8337 39.5835 37.1028 39.5835 32.5004C39.5785 27.9 35.8505 24.172 31.2501 24.167ZM31.2501 39.1671C28.8714 39.164 26.6745 37.8937 25.4851 35.8337H37.0151C35.8258 37.8937 33.6289 39.164 31.2501 39.1671ZM24.8026 34.167C24.1321 31.6295 25.0274 28.9358 27.0834 27.3045V32.5004H28.7501V26.3245C29.2845 26.1083 29.8448 25.9626 30.4168 25.8912V32.5004H32.0835V25.8912C32.6554 25.9626 33.2158 26.1083 33.7501 26.3245V32.5004H35.4168V27.3045C37.4729 28.9358 38.3682 31.6295 37.6976 34.167H24.8026Z" fill="#362758"/>
<path d="M42.9169 6.66699H9.58343C7.28342 6.6697 5.41946 8.53367 5.41675 10.8337V37.5005C5.41946 39.8005 7.28342 41.6644 9.58343 41.6671H20.4168V40.0005H9.58343C8.2027 40.0005 7.08342 38.8812 7.08342 37.5005V10.8337C7.08342 9.45294 8.2027 8.33367 9.58343 8.33367H42.9169C44.2976 8.33367 45.4169 9.45294 45.4169 10.8337V37.5005C45.4168 38.1093 45.1946 38.6971 44.7919 39.1538L46.0419 40.2563C46.7136 39.4955 47.084 38.5154 47.0836 37.5005V10.8337C47.0809 8.53367 45.2169 6.6697 42.9169 6.66699Z" fill="#362758"/>
<path d="M10.4167 10H8.75V11.6667H10.4167V10Z" fill="#362758"/>
<path d="M13.7502 10H12.0835V11.6667H13.7502V10Z" fill="#362758"/>
<path d="M17.0834 10H15.4167V11.6667H17.0834V10Z" fill="#362758"/>
<path d="M12.0834 27.5H10.4167V32.5H12.0834V27.5Z" fill="#362758"/>
<path d="M15.4167 22.5H13.75V32.5H15.4167V22.5Z" fill="#362758"/>
<path d="M18.7502 25H17.0835V32.5H18.7502V25Z" fill="#362758"/>
</svg>
