<svg width="72" height="14" viewBox="0 0 72 14" fill="none" xmlns="http://www.w3.org/2000/svg">
<path d="M4.96566 0.280266H0.144287V13.5871H4.89415C9.39431 13.5871 12.0189 10.7358 12.0189 6.89579V6.85747C12.0192 3.01762 9.42982 0.280266 4.96566 0.280266ZM8.46555 6.95267C8.46555 9.10027 7.09064 10.3174 5.01941 10.3174H3.60867V3.54997H5.01941C7.09064 3.54997 8.46555 4.78547 8.46555 6.91452V6.95267ZM14.3224 13.5864H17.8043V0.280266H14.3224V13.5864ZM25.8399 5.29874C24.1076 4.88032 23.6791 4.61432 23.6791 4.00637V3.96787C23.6791 3.49257 24.09 3.11247 24.929 3.11247C26.0358 3.11247 27.286 3.56834 28.4291 4.42427L30.161 1.81939C28.8037 0.660016 27.1433 0.051366 25.0185 0.051366C22.0185 0.051366 20.1793 1.83812 20.1793 4.30947V4.34762C20.1793 7.08532 22.2328 7.88384 24.8932 8.52942C26.5896 8.94749 27.0003 9.25164 27.0003 9.80324V9.84122C27.0003 10.4114 26.5002 10.7535 25.5718 10.7535C24.1255 10.7535 22.7505 10.2026 21.5186 9.15697L19.59 11.6094C21.1257 13.0733 23.2328 13.8151 25.447 13.8151C28.4825 13.8151 30.5005 12.1993 30.5005 9.48072V9.44274C30.5003 6.95267 28.7145 5.96427 25.8399 5.29874ZM45.6601 6.93377V6.89562C45.6601 3.07467 42.8033 0.013916 38.946 0.013916C35.0893 0.013916 32.1964 3.11282 32.1964 6.93377V6.97157C32.1964 10.7925 35.0534 13.8533 38.9107 13.8533C40.339 13.8533 41.6426 13.4158 42.714 12.6745L44.0888 13.9859L45.8386 11.9139L44.5533 10.7549C45.2671 9.67112 45.6601 8.34007 45.6601 6.93377ZM42.1426 7.00954C42.1426 7.46577 42.0711 7.90292 41.9283 8.30192L40.232 6.66707L38.4821 8.75814L40.2142 10.3363C39.8393 10.4884 39.4109 10.5834 38.9467 10.5834C37.0364 10.5834 35.7506 8.89184 35.7506 6.97157V6.93377C35.7506 5.01367 37.0183 3.34067 38.9109 3.34067C40.8396 3.34067 42.1433 5.03257 42.1433 6.97157V7.00937L42.1426 7.00954ZM55.8742 7.76992C55.8742 9.63244 54.9631 10.5067 53.5702 10.5067C52.1777 10.5067 51.2669 9.59482 51.2669 7.67454V0.280266H47.7494V7.75102C47.7494 11.9141 49.9814 13.8345 53.5349 13.8345C57.0884 13.8345 59.3917 11.9526 59.3917 7.65617V0.280266H55.8742V7.76992ZM67.195 5.29874C65.4629 4.88032 65.0342 4.61432 65.0342 4.00637V3.96787C65.0342 3.49257 65.4451 3.11247 66.2847 3.11247C67.3911 3.11247 68.6416 3.56834 69.7842 4.42427L71.5165 1.81992C70.1597 0.660541 68.4992 0.051891 66.3744 0.051891C63.3744 0.051891 61.5351 1.83864 61.5351 4.30999V4.34814C61.5351 7.08584 63.5886 7.88402 66.249 8.52994C67.9454 8.94837 68.356 9.25251 68.356 9.80412V9.84174C68.356 10.4119 67.8558 10.7544 66.9274 10.7544C65.481 10.7544 64.1059 10.2028 62.874 9.15749L60.946 11.6096C62.4818 13.0738 64.5887 13.8149 66.8025 13.8149C69.8383 13.8149 71.8559 12.1992 71.8559 9.48089V9.44257C71.8556 6.95267 70.0697 5.96427 67.195 5.29874Z" fill="#229CFF"/>
</svg>
