<svg width="925" height="576" viewBox="0 0 925 576" fill="none" xmlns="http://www.w3.org/2000/svg">
<path d="M321.746 421.7C368.228 439.034 485.398 470.85 582.227 459.437M582.227 459.437L583.092 459.005M582.227 459.437C584.528 460.357 622.266 474.624 675.65 468.641C718.358 463.855 759.716 459.59 775.056 458.056C775.363 457.596 776.621 456.676 779.198 456.676C781.658 456.676 804.245 456.944 816.016 452.563M592.352 454.375L583.092 459.005M583.092 459.005C548.748 465.131 468.922 476.005 424.374 470.482C379.825 464.96 306.712 457.443 275.725 454.375M275.725 454.375C275.725 451.429 269.282 448.545 266.06 447.472M275.725 454.375C275.418 455.295 275.633 457.596 278.946 459.437C282.26 461.278 283.395 467.261 283.548 470.022C287.997 473.397 297.171 481.896 298.275 488.891C299.656 497.635 294.593 512.822 307.479 521.106C317.788 527.733 317.911 536.139 316.684 539.514L331.41 557.463C333.712 560.224 337.301 566.943 333.251 571.729C329.201 576.515 319.598 573.723 315.303 571.729C305.639 569.121 283.272 561.789 271.122 553.321C258.973 544.853 247.652 536.6 243.51 533.532C239.368 527.702 229.519 516.043 223.26 516.043C215.437 516.043 216.357 515.583 214.976 515.123C213.87 514.754 211.583 511.727 214.976 506.041M308.4 413.416C311.008 415.257 316.592 420.963 318.064 429.063M260.538 432.745C261.305 435.353 263.483 440.936 266.06 442.409V447.472M266.06 447.472L260.538 444.25M218.658 501.317C217.011 503.055 215.819 504.63 214.976 506.041M214.976 506.041C212.675 504.313 207.337 499.66 204.391 494.874C201.446 490.087 188.744 466.494 182.761 455.295C180.154 450.54 178.804 438.635 194.267 429.063C197.267 427.206 200.708 425.411 204.391 423.704M264.219 398.229C262.747 405.224 253.174 408.2 248.572 408.814C239.175 411.039 219.693 416.613 204.391 423.704M204.391 423.704C196.261 425.951 177.607 429.431 168.035 425.381C158.462 421.331 150.853 420.319 148.245 420.319C145.331 419.245 139.409 416.545 139.041 414.336M139.041 414.336C143.95 413.416 150.271 416.002 154.228 414.336C162.972 410.654 162.512 405.592 170.336 405.592M139.041 414.336C135.82 414.643 129.193 413.324 128.456 405.592C127.536 395.928 127.076 379.36 156.99 363.252C180.921 350.366 208.073 356.963 218.658 361.872C224.641 364.173 239.828 367.947 252.714 364.633M252.714 364.633C252.254 364.742 251.149 365.631 250.413 368.315C249.676 370.999 266.06 385.387 274.344 392.246M252.714 364.633C262.839 359.417 284.377 347.605 289.531 342.083C294.685 336.56 309.167 326.895 315.763 322.754M151.007 383.502C150.676 379.206 148.373 371.812 141.802 376.599M136.74 381.661C135.206 385.343 133.334 393.719 138.121 397.768C142.907 401.818 146.865 397.922 148.245 395.467M822.919 447.011C823.436 445.113 823.374 443.649 822.919 442.533M822.919 447.011C821.358 448.545 814.294 451.613 798.527 451.613C778.819 451.613 700.502 458.056 699.581 458.056M822.919 447.011C822.266 449.405 819.659 451.206 816.016 452.563M653.1 363.252C666.599 370.923 695.255 386.171 701.883 385.803C708.51 385.435 713.541 388.104 715.229 389.485C718.702 391.671 722.952 396.275 717.07 399.658M653.1 363.252C648.038 366.474 621.805 365.553 619.044 363.252M653.1 363.252C654.48 361.258 656.413 356.625 653.1 354.048C648.958 350.827 650.799 315.39 653.1 312.169C654.941 309.591 654.251 301.277 653.676 297.442M619.044 347.145C620.885 341.622 621.652 315.39 621.805 302.964C619.504 301.737 614.902 297.534 614.902 290.539C614.902 283.543 611.527 276.579 609.84 273.971C608.749 277.086 605.877 278.883 602.476 279.851M619.044 347.145C618.124 351.747 616.835 361.412 619.044 363.252M619.044 347.145L584.068 333.878M579.005 331.958L584.068 333.878M579.005 331.958C580.693 325.668 584.068 312.445 584.068 309.868C584.068 307.29 587.215 289.158 588.788 280.414M579.005 331.958C577.931 338.268 576.199 351.3 576.771 358.65M551.393 324.594C548.124 323.935 544.193 323.152 539.887 322.306M551.393 324.594C555.026 302.795 551.688 282.988 548.192 268.448M551.393 324.594C551.393 329.197 550.38 340.886 546.33 350.827M484.662 312.629C484.662 314.163 484.201 318.612 482.361 324.134C480.52 329.657 480.98 350.366 481.44 360.031C483.128 364.326 481.992 372.825 463.952 372.457C445.912 372.088 447.538 359.417 450.606 353.128C451.219 344.23 452.999 324.594 455.208 317.231C455.955 314.742 456.23 311.749 456.253 308.487M484.662 312.629C485.429 302.658 488.067 280.598 492.485 272.13C496.903 263.662 503.224 228.49 505.831 211.963M484.662 312.629C486.157 312.744 488.368 313.025 491.105 313.432M270.662 115.657C276.184 114.515 284.384 113.357 292.752 113.148M288.15 182.388C288.457 186.223 290.451 196.103 295.974 204.939C301.497 213.775 306.252 209.848 307.94 206.78C311.621 201.257 321.378 186.07 330.95 169.502C342.916 148.793 333.712 134.066 322.206 120.72C321.304 119.674 320.213 118.758 318.964 117.958M273.424 126.702C279.682 132.961 284.008 153.855 285.389 163.52C285.849 156.923 285.941 142.442 282.628 137.287M329.57 137.287L332.331 148.333M266.981 149.713C266.827 150.173 265.784 151.094 262.839 151.094M318.964 117.958C327.255 119.492 345.033 124.217 349.819 130.844M318.964 117.958C312.743 113.975 302.63 112.901 292.752 113.148M349.819 130.844C360.404 120.72 384.611 101.483 396.761 105.533C411.948 110.595 409.647 102.311 415.63 96.7886C421.612 91.266 451.066 88.965 460.27 100.47C467.634 109.675 478.065 108.908 482.361 107.374C488.957 106.453 506.568 107.281 524.24 117.958C541.912 128.635 550.626 142.657 552.773 148.333M349.819 130.844C342.762 137.287 331.871 156.432 344.757 181.468C357.643 206.504 371.909 211.842 377.432 211.382C378.294 211.218 379.393 210.786 380.547 210.001M292.752 113.148C283.702 111.223 260.63 109.03 240.748 115.657C225.009 120.904 220.153 130.534 219.422 137.287M282.628 200.797C277.105 193.433 271.122 197.729 268.821 200.797C268.15 202.121 267.4 203.508 266.578 204.939M282.628 200.797C283.548 200.644 285.113 198.036 284.008 188.831M282.628 200.797C291.492 220.09 292.264 238.522 290.761 250.96M266.578 204.939C261.033 214.587 252.156 226.227 241.169 233.932M266.578 204.939C272.123 215.231 281.945 235.594 286.149 250.96M238.379 235.773C235.334 250.04 226.758 280.138 216.817 286.397C220.499 274.667 227.31 249.25 225.101 241.419M238.379 235.773C234.205 238.355 229.759 240.336 225.101 241.419M238.379 235.773C239.323 235.189 240.254 234.574 241.169 233.932M225.101 241.419C216.218 243.486 206.566 242.289 196.568 235.773C155.609 209.081 160.211 169.502 163.893 161.679C166.838 155.42 165.12 145.878 163.893 141.89C166.838 135.631 172.176 139.282 174.478 141.89L184.142 151.094C182.301 153.855 178.619 169.502 177.699 180.548C176.934 189.728 185.707 200.498 195.826 206.78M219.422 137.287C219.23 139.065 219.323 140.643 219.578 141.89C216.357 144.497 210.374 152.106 212.215 161.679C214.516 173.644 217.277 169.963 216.817 180.548C216.449 189.015 216.05 201.871 215.897 207.24C215.437 209.848 212.031 214.051 202.09 210.001C199.992 209.146 197.881 208.056 195.826 206.78M219.422 137.287C201.656 147.412 172.063 175.485 195.826 206.78M241.169 233.932C243.15 236.694 245.924 243.689 241.169 249.58C236.414 255.47 239.188 290.692 241.169 307.567C241.949 312.629 241.853 323.766 235.226 327.816C228.599 331.866 239.521 335.64 245.811 337.02C252.714 338.247 267.257 339.413 270.202 334.259M270.202 334.259C273.147 329.105 271.429 314.316 270.202 307.567C269.435 299.436 268.361 282.439 270.202 279.493C272.503 275.812 286.91 270.289 286.149 250.96M270.202 334.259C268.131 333.513 264.699 332.418 261.458 331.685M286.149 250.96C287.397 255.52 288.15 259.64 288.15 262.926C289.135 260.195 290.141 256.086 290.761 250.96M254.555 331.037C256.079 330.699 258.699 331.061 261.458 331.685M261.458 331.685C261.305 329.015 259.985 323.674 255.935 323.674C251.886 323.674 251.793 327.969 252.254 330.117C251.782 330.441 251.155 330.813 250.413 331.18M250.413 331.18C247.641 332.554 243.266 333.87 239.368 332.418C238.14 329.197 237.159 322.754 243.049 322.754C248.94 322.754 250.413 328.371 250.413 331.18ZM290.761 250.96C291.986 250.96 298.735 256.483 301.957 259.244M297.815 246.358C305.178 265.687 319.353 307.474 317.144 319.992C316.122 325.785 315.162 329.686 314.453 332.418M333.712 327.816C337.761 322.662 340.308 329.964 341.075 334.259C335.389 336.017 325.703 338.75 319.54 339.781M329.109 331.685C325.184 328.861 317.776 326.527 319.54 339.781M319.54 339.781C316.559 340.281 314.402 340.382 313.922 339.781C312.763 338.332 313.246 337.066 314.453 332.418M319.54 339.781C319.249 336.253 317.823 329.841 314.453 332.418M407.346 111.515C406.425 115.811 403.02 125.69 396.761 130.844C389.712 136.649 386.773 146.189 394 158.118M466.713 176.866C467.037 183.016 470.35 194.177 470.648 202.178C470.774 205.551 468.094 208.363 468.094 210.001C468.094 215.524 471.776 230.711 473.616 237.614C464.78 237.614 459.503 219.205 457.969 210.001C454.594 208.314 447.2 205.583 444.623 208.16C442.901 209.882 440.947 245.652 439.473 280.874M470.648 129.004C476.409 133.759 484.473 147.78 470.648 165.821M476.378 170.883C477.758 169.502 485.122 155.236 483.741 148.333C484.048 162.753 485.49 193.433 488.804 200.797C492.511 209.036 494.006 216.169 505.831 211.963M510.434 210.001C508.744 210.822 507.217 211.47 505.831 211.963M510.434 210.001C508.439 216.291 504.359 229.882 503.991 233.932C503.53 238.995 498.928 268.909 494.786 275.812C491.473 281.334 490.951 303.193 491.105 313.432M510.434 210.001C513.908 208.313 517.506 205.963 521.019 203.295M543.569 181.468C539.424 186.51 530.532 196.068 521.019 203.295M394 158.118C394.794 159.43 395.712 160.771 396.761 162.139C399.215 164.44 402.652 172.632 396.761 186.991C390.87 201.349 392.465 207.086 394 208.16C392.432 213.197 388.301 222.841 382.034 230.404M394 158.118C392.005 164.828 387.925 181.376 387.557 193.894C387.287 203.063 383.708 207.853 380.547 210.001M380.547 210.001C380.582 215.726 380.929 227.822 382.034 230.404M382.034 230.404C379.712 233.206 377.097 235.723 374.21 237.614C376.199 237.152 378.954 236.132 382.034 234.428M382.034 234.428C389.173 230.48 398.06 222.861 403.204 210.001C405.505 207.393 410.751 203.098 413.328 206.78C415.906 210.461 414.402 289.005 413.328 327.816V360.951C417.317 366.32 427.687 373.837 437.26 360.951C437.26 359.11 437.566 338.708 437.72 328.736C437.918 322.404 438.166 315.03 438.453 307.106M382.034 234.428C384.182 247.763 389.581 277.1 394 287.777C394.581 292.33 395.529 300.233 396.149 306.646M418.391 368.315C417.654 369.945 409.493 370.528 405.505 370.616C399.522 370.309 388.661 367.762 393.079 360.031C398.602 350.366 396.761 321.373 396.761 315.39C396.761 313.626 396.511 310.39 396.149 306.646M374.21 246.358C370.817 248.38 365.316 251.353 359.483 253.934M347.058 193.894C346.137 196.808 344.849 204.11 347.058 210.001C349.267 215.892 346.444 233.319 344.757 241.296C343.529 246.051 341.075 256.299 341.075 259.244C344.135 259.244 348.025 258.295 352.12 256.87M341.075 285.936C340.559 292.041 340.159 302.059 340.814 310.788M344.757 326.435C342.491 323.684 341.328 317.633 340.814 310.788M340.814 310.788C345.393 310.005 352.111 308.998 359.483 308.123M396.149 306.646C390.638 305.928 382.916 306.074 374.802 306.646M352.12 256.87L359.483 308.123M352.12 256.87C354.546 256.025 357.044 255.014 359.483 253.934M359.483 308.123C364.444 307.534 369.7 307.006 374.802 306.646M359.483 253.934C364.787 261.38 375.274 282.347 374.802 306.646M452.447 246.358C453.674 254.182 455.944 272.038 455.208 280.874M455.208 280.874C454.536 288.933 456.315 299.686 456.253 308.487M455.208 280.874H446.004M491.105 313.432C497.287 314.351 506.149 315.91 515.496 317.641M439.473 280.874C439.098 289.844 438.754 298.779 438.453 307.106M439.473 280.874H446.004M438.453 307.106L456.253 308.487M446.004 280.874C446.004 290.999 442.322 297.442 441.862 307.106M521.019 203.295C519.638 218.109 516.877 249.303 516.877 255.562C516.877 261.821 515.956 299.556 515.496 317.641M515.496 317.641C523.754 319.17 532.389 320.833 539.887 322.306M539.887 322.306C541.421 307.575 545.594 277.653 550.012 275.812M550.012 198.496C546.944 211.689 541.36 240.559 543.569 250.5C544.514 254.751 546.374 260.887 548.192 268.448M550.012 198.496C547.864 195.121 543.569 184.137 543.569 167.201C543.569 150.265 562.898 139.282 572.562 135.907M550.012 198.496C555.074 208.467 566.304 228.962 570.722 231.171C576.244 233.932 579.466 239.915 586.829 227.949C592.72 218.377 595.727 206.473 596.494 201.717M536.666 264.767C539.901 264.767 546.736 265.503 548.192 268.448M548.192 268.448C546.79 268.448 543.109 266.607 539.887 268.448M615.823 135.907C613.521 135.907 597.414 131.765 589.13 134.526C582.503 136.735 575.324 136.367 572.562 135.907M572.562 135.907C577.349 131.121 590.818 130.844 596.954 131.305C613.89 125.414 632.544 130.077 639.754 133.145C650.293 133.864 657.118 141.115 661.066 148.333M596.494 207.7C597.261 209.388 598.334 213.959 596.494 218.745C594.653 223.531 595.727 226.876 596.494 227.949M596.494 227.949C597.567 225.188 601.004 221.322 606.158 227.949C611.312 234.577 611.681 234.699 611.22 233.932M596.494 227.949C592.352 238.534 583.608 263.57 581.767 279.033C579.926 294.496 582.534 295.601 584.068 294.22M611.22 233.932L597.414 263.846C595.202 267.59 591.677 274.035 588.788 280.414M611.22 233.932C613.828 235.466 619.044 239.731 619.044 244.517C619.044 248.093 622.003 255.779 628.709 261.778M584.068 294.22C581.859 289.434 584.988 279.954 586.829 275.812M584.068 294.22C584.56 290.614 586.469 285.535 588.788 280.414M647.577 269.829C652.489 270.276 656.914 270.478 660.923 270.326M647.577 269.829C639.431 269.088 633.221 265.815 628.709 261.778M647.577 269.829C647.577 276.89 650.178 287.939 653.676 297.442M609.84 148.333C604.309 154.929 593.529 171.711 594.653 186.07C594.597 185.15 592.184 165.821 600.635 157.537M661.066 148.333C663.186 152.209 664.476 156.077 665.065 158.917C667.366 161.372 671.785 167.201 671.048 170.883C670.312 174.565 672.889 177.633 674.27 178.707C676.847 198.22 669.207 206.78 665.065 208.621C667.366 214.143 665.065 230.251 662.764 235.773C660.923 240.191 661.997 241.603 662.764 241.756C661.997 242.676 663.869 242.032 677.491 232.091C691.114 222.151 690.531 203.098 688.536 194.814C683.627 188.985 677.123 175.577 690.377 168.582C691.018 168.244 691.631 167.938 692.218 167.662M661.066 148.333C670.529 152.322 690.009 161.773 692.218 167.662M692.218 167.662C703.768 162.242 705.06 168.636 704.184 172.724C701.883 187.451 705.104 177.326 706.485 201.717C706.813 207.519 706.464 212.774 705.625 217.606M704.184 181.008C706.485 181.928 719.031 205.421 705.625 217.606M705.625 217.606C702.934 233.088 695.201 244.229 688.536 255.102C681.913 265.908 673.442 269.849 660.923 270.326M660.923 270.326C660.77 280.894 661.384 304.059 665.065 312.169C665.832 315.083 666.078 319.164 660.923 312.169C658.435 308.791 655.877 303.423 653.676 297.442M628.709 261.778C626.868 264.179 622.358 269.25 619.044 270.326M588.788 280.414C592.217 280.945 597.838 281.17 602.476 279.851M619.044 363.252C621.499 363.406 626.499 362.424 626.868 357.27C627.328 350.827 632.39 351.287 633.771 354.969M602.476 279.851C596.647 285.154 584.804 303.383 584.068 333.878M570.722 366.014C573.483 367.087 578.637 367.67 577.165 361.411C576.981 360.631 576.852 359.698 576.771 358.65M570.722 366.014C567.807 366.934 560.781 367.67 555.995 363.252C553.694 363.252 548.192 363.252 548.192 358.65C548.192 354.048 551.393 351.287 555.535 354.969M570.722 366.014C570.722 357.178 574.755 357.423 576.771 358.65M570.722 366.014C570.561 361.105 568.036 352.483 559.216 357.27M632.39 361.411C633.311 360.166 635.98 358.422 639.293 361.411C643.435 365.148 649.878 360.491 649.418 357.27C648.958 354.048 643.435 346.685 636.992 356.349M633.771 453.914C628.555 453.147 617.203 452.626 613.521 456.676C619.044 456.676 677.031 455.755 701.883 451.613C721.764 448.3 776.744 445.937 801.749 445.17M695.503 420.319C691.522 430.578 693.301 440.139 708.326 435.046C730.048 427.682 753.887 430.137 763.091 432.284C772.663 431.18 779.659 433.665 781.96 435.046C791.532 434.678 797.914 436.733 799.908 437.807C811.321 436.334 812.947 438.421 812.334 439.648C815.74 438.943 821.43 438.886 822.919 442.533M695.503 420.319C701.343 419.583 749.745 420.626 773.216 421.239C774.289 420.626 778.002 419.583 784.261 420.319C790.52 421.055 791.778 419.705 791.624 418.938C793.618 419.398 797.239 419.583 795.766 416.637C793.925 412.955 783.34 406.052 757.108 405.132C736.122 404.395 732.717 404.825 733.637 405.132M695.503 420.319C696.219 418.474 697.121 416.606 698.166 414.796M733.637 405.132C734.711 403.17 732.901 399.328 717.07 399.658M733.637 405.132C728.115 406.512 716.08 414.796 698.166 414.796M717.07 399.658C715.937 400.309 714.429 400.915 712.467 401.45C707.195 402.888 701.812 408.486 698.166 414.796M700.502 418.018H748.364M648.038 467.261H661.384M648.038 463.119L673.809 461.278M649.418 459.437C665.065 458.517 697.464 456.308 701.883 454.835C707.405 452.994 793.465 448.392 798.527 448.852C803.59 449.312 821.998 447.259 822.919 442.533M713.388 459.437C740.08 457.289 794.293 453.178 797.607 453.914C801.749 454.835 812.334 452.131 816.016 452.563M614.902 176.866C615.516 175.332 617.755 172.724 621.805 174.565M463.492 144.651C460.382 144.037 454.372 144.743 455.208 152.474M417.47 152.474C417.624 149.867 415.814 144.651 407.346 144.651M145.944 377.059C142.416 378.439 136.004 384.146 138.581 395.928C146.906 392.614 146.959 381.968 145.944 377.059Z" stroke="white" stroke-width="3" stroke-linecap="round" stroke-linejoin="round"/>
<path d="M361.639 181.828L354.498 177.918L356.05 172.873L363.626 176.727M364.913 173.037L360.234 171.058M360.234 171.058L356.958 169.673L357.754 165.608L361.948 167.261L360.234 171.058ZM369.946 157.413C367.087 154.704 361.544 149.265 362.24 149.174C362.935 149.084 369.27 148.844 372.35 148.735M369.946 157.413L372.35 148.735M369.946 157.413L370.116 158.711L371.398 159.864M372.35 148.735L373.106 147.756L375.336 147.905M372.824 145.592C372.607 145.426 371.001 144.275 369.194 142.984M375.454 138.645L370.238 139.326M370.238 139.326L365.021 140.007C366.116 140.787 367.722 141.932 369.194 142.984M370.238 139.326L369.194 142.984M376.966 136.687L366.838 133.607L371.281 130.386L370.603 125.192L380.409 129.194M358.549 161.542C358.942 161.843 364.595 163.834 367.373 164.792L368.546 160.237L359.779 157.419L358.549 161.542Z" stroke="white" stroke-linecap="round" stroke-linejoin="round"/>
<path d="M272.963 109.214C284.469 73.778 335.737 2.90503 448.765 2.90503C561.794 2.90503 614.902 87.5844 627.328 129.924" stroke="white" stroke-width="4"/>
<circle cx="232.464" cy="207.24" r="5.94299" stroke="white"/>
<path opacity="0.7" d="M222.354 207.354C222.549 207.158 222.549 206.842 222.354 206.646L219.172 203.464C218.976 203.269 218.66 203.269 218.464 203.464C218.269 203.66 218.269 203.976 218.464 204.172L221.293 207L218.464 209.828C218.269 210.024 218.269 210.34 218.464 210.536C218.66 210.731 218.976 210.731 219.172 210.536L222.354 207.354ZM121.093 238.354C121.809 238.354 122.515 238.349 123.211 238.338L123.196 237.338C122.505 237.349 121.804 237.354 121.093 237.354V238.354ZM127.35 238.21C128.775 238.142 130.152 238.05 131.486 237.937L131.401 236.941C130.08 237.053 128.715 237.143 127.303 237.211L127.35 238.21ZM135.615 237.501C137.038 237.32 138.408 237.112 139.729 236.879L139.556 235.894C138.251 236.124 136.897 236.33 135.489 236.509L135.615 237.501ZM143.811 236.05C145.209 235.726 146.549 235.373 147.838 234.995L147.556 234.035C146.286 234.409 144.965 234.757 143.585 235.076L143.811 236.05ZM151.786 233.699C153.13 233.211 154.415 232.695 155.652 232.154L155.252 231.238C154.034 231.77 152.768 232.279 151.445 232.759L151.786 233.699ZM159.418 230.368C160.676 229.725 161.887 229.06 163.064 228.378L162.563 227.513C161.399 228.187 160.203 228.844 158.963 229.478L159.418 230.368ZM166.616 226.222C167.793 225.478 168.947 224.724 170.092 223.968L169.541 223.134C168.399 223.888 167.251 224.638 166.082 225.376L166.616 226.222ZM173.538 221.684C174.68 220.93 175.828 220.181 176.997 219.443L176.464 218.597C175.286 219.34 174.132 220.093 172.987 220.849L173.538 221.684ZM180.519 217.31C181.683 216.637 182.88 215.982 184.121 215.349L183.667 214.458C182.408 215.1 181.196 215.764 180.019 216.444L180.519 217.31ZM187.835 213.594C189.053 213.064 190.319 212.557 191.643 212.078L191.303 211.138C189.959 211.624 188.673 212.139 187.436 212.677L187.835 213.594ZM195.534 210.807C196.804 210.435 198.126 210.088 199.506 209.769L199.282 208.795C197.883 209.118 196.542 209.469 195.253 209.847L195.534 210.807ZM203.537 208.954C204.842 208.725 206.196 208.521 207.604 208.342L207.478 207.35C206.055 207.53 204.685 207.738 203.364 207.969L203.537 208.954ZM211.691 207.912C213.013 207.8 214.378 207.71 215.79 207.643L215.743 206.644C214.318 206.712 212.941 206.803 211.607 206.915L211.691 207.912ZM219.897 207.516C220.587 207.505 221.288 207.5 222 207.5V206.5C221.283 206.5 220.577 206.505 219.882 206.516L219.897 207.516Z" fill="white"/>
<path d="M5.15539 221.305L3.64369 221.313L3.67541 226.798L1.46061 226.811L1.38659 214.014L3.6014 214.001L3.63251 219.38L4.85417 219.373L8.58471 213.972L11.3093 213.956L6.95025 220.108L11.77 226.751L9.09817 226.766L5.15539 221.305ZM22.8969 220.622C22.9041 221.876 22.6937 222.979 22.2656 223.93C21.8375 224.876 21.2206 225.606 20.4149 226.121C19.6151 226.629 18.6908 226.887 17.642 226.893C16.6049 226.899 15.6777 226.652 14.8603 226.153C14.0488 225.648 13.4177 224.928 12.967 223.993C12.5221 223.058 12.2932 221.978 12.2802 220.754L12.2761 220.033C12.2689 218.785 12.4822 217.682 12.9161 216.725C13.3559 215.767 13.9757 215.034 14.7755 214.525C15.5811 214.011 16.5054 213.751 17.5484 213.745C18.5913 213.739 19.5156 213.985 20.3213 214.484C21.1327 214.978 21.7609 215.695 22.2058 216.636C22.6507 217.571 22.8797 218.662 22.8927 219.91L22.8969 220.622ZM20.6694 219.967C20.6612 218.549 20.3854 217.464 19.842 216.711C19.3044 215.958 18.5434 215.585 17.5591 215.59C16.5981 215.596 15.8474 215.978 15.3069 216.737C14.7722 217.49 14.5029 218.555 14.4992 219.932L14.5034 220.671C14.5116 222.077 14.7903 223.162 15.3397 223.926C15.8949 224.691 16.6588 225.07 17.6314 225.065C18.6158 225.059 19.3695 224.68 19.8925 223.927C20.4213 223.173 20.6816 222.076 20.6733 220.635L20.6694 219.967ZM35.3067 226.615L33.0919 226.628L33.059 220.941L27.3374 220.974L27.3703 226.661L25.1467 226.674L25.0727 213.877L27.2963 213.864L27.3271 219.19L33.0487 219.157L33.0179 213.831L35.2327 213.818L35.3067 226.615ZM46.862 215.544L42.8719 215.567L42.9355 226.571L40.7295 226.583L40.6658 215.58L36.7108 215.603L36.7005 213.81L46.8517 213.751L46.862 215.544ZM56.0595 220.782L50.8037 220.812L50.8265 224.75L56.9699 224.714L56.9802 226.489L48.6131 226.538L48.5391 213.741L56.8446 213.693L56.855 215.486L50.7731 215.521L50.7935 219.054L56.0493 219.024L56.0595 220.782ZM68.9507 226.42L66.7359 226.433L66.703 220.747L60.9814 220.78L61.0143 226.466L58.7907 226.479L58.7167 213.682L60.9403 213.669L60.9711 218.995L66.6927 218.962L66.6619 213.636L68.8767 213.623L68.9507 226.42ZM80.506 215.349L76.5158 215.372L76.5795 226.376L74.3734 226.389L74.3098 215.385L70.3548 215.408L70.3444 213.615L80.4956 213.556L80.506 215.349ZM4.32929 234.997L8.07737 244.784L11.7032 234.955L14.5772 234.938L14.6512 247.735L12.4364 247.747L12.412 243.529L12.5991 237.885L8.87686 247.768L7.28607 247.777L3.45864 237.947L3.71095 243.579L3.73535 247.798L1.52054 247.811L1.44653 235.014L4.32929 234.997ZM24.5918 244.698L19.6348 244.726L18.615 247.712L16.3035 247.725L21.0634 234.9L23.0585 234.889L27.9752 247.657L25.6549 247.671L24.5918 244.698ZM20.2485 242.93L23.9574 242.908L22.0722 237.61L20.2485 242.93ZM31.6302 242.881L31.6577 247.636L29.4341 247.649L29.3601 234.852L34.2555 234.824C35.6852 234.816 36.8211 235.181 37.6633 235.921C38.5114 236.66 38.9389 237.642 38.946 238.866C38.9533 240.12 38.5458 241.098 37.7237 241.8C36.9074 242.502 35.7581 242.858 34.2757 242.866L31.6302 242.881ZM31.6199 241.097L34.2917 241.082C35.0827 241.077 35.6852 240.889 36.0991 240.518C36.5129 240.14 36.7178 239.6 36.7137 238.897C36.7097 238.205 36.4956 237.656 36.0714 237.248C35.6471 236.835 35.0658 236.624 34.3274 236.617L31.5941 236.632L31.6199 241.097ZM44.7039 242.076L43.1922 242.085L43.2239 247.569L41.0091 247.582L40.9351 234.785L43.1499 234.773L43.181 240.151L44.4027 240.144L48.1332 234.744L50.8578 234.728L46.4988 240.879L51.3185 247.522L48.6467 247.538L44.7039 242.076ZM59.9953 241.759L54.7395 241.79L54.7623 245.727L60.9058 245.692L60.916 247.467L52.549 247.515L52.475 234.719L60.7805 234.671L60.7909 236.464L54.7089 236.499L54.7294 240.032L59.9851 240.002L59.9953 241.759ZM72.0846 236.398L68.0945 236.421L68.1581 247.425L65.9521 247.438L65.8884 236.434L61.9334 236.457L61.9231 234.664L72.0743 234.605L72.0846 236.398ZM81.6014 234.55L83.825 234.537L83.899 247.334L81.6754 247.347L81.6227 238.233L76.0593 247.379L73.8357 247.392L73.7617 234.596L75.9853 234.583L76.0381 243.706L81.6014 234.55ZM96.7221 247.26L94.5073 247.273L94.4744 241.586L88.7528 241.619L88.7857 247.306L86.5621 247.319L86.4881 234.522L88.7117 234.509L88.7425 239.835L94.4641 239.802L94.4333 234.476L96.6481 234.463L96.7221 247.26ZM107.478 236.194L101.571 236.228L101.635 247.231L99.4203 247.244L99.3463 234.448L107.467 234.401L107.478 236.194Z" fill="white"/>
<path d="M649.051 68.7491L647.539 68.7578L647.571 74.2421L645.356 74.2549L645.282 61.4582L647.497 61.4454L647.528 66.8242L648.75 66.8172L652.48 61.4166L655.205 61.4008L650.846 67.5521L655.666 74.1953L652.994 74.2107L649.051 68.7491ZM666.792 68.0664C666.8 69.3202 666.589 70.423 666.161 71.3748C665.733 72.3206 665.116 73.0507 664.31 73.5652C663.511 74.0737 662.586 74.331 661.538 74.3371C660.5 74.3431 659.573 74.0965 658.756 73.5973C657.944 73.0922 657.313 72.3722 656.862 71.4373C656.418 70.5024 656.189 69.4226 656.176 68.1981L656.172 67.4774C656.164 66.2294 656.378 65.1265 656.812 64.1689C657.251 63.2113 657.871 62.4782 658.671 61.9697C659.477 61.4552 660.401 61.195 661.444 61.189C662.487 61.1829 663.411 61.4296 664.217 61.9288C665.028 62.4222 665.656 63.1393 666.101 64.0801C666.546 65.015 666.775 66.1065 666.788 67.3545L666.792 68.0664ZM664.565 67.4113C664.557 65.9933 664.281 64.908 663.737 64.1553C663.2 63.4025 662.439 63.029 661.455 63.0346C660.494 63.0402 659.743 63.4225 659.202 64.1815C658.668 64.9346 658.398 65.9996 658.395 67.3766L658.399 68.1149C658.407 69.5211 658.686 70.6065 659.235 71.3709C659.79 72.1352 660.554 72.5146 661.527 72.509C662.511 72.5033 663.265 72.1239 663.788 71.3709C664.317 70.6178 664.577 69.5206 664.569 68.0792L664.565 67.4113ZM679.202 74.0591L676.987 74.0719L676.955 68.3855L671.233 68.4186L671.266 74.105L669.042 74.1179L668.968 61.3212L671.192 61.3084L671.223 66.6345L676.944 66.6014L676.913 61.2753L679.128 61.2625L679.202 74.0591ZM690.758 62.9882L686.767 63.0113L686.831 74.015L684.625 74.0278L684.561 63.0241L680.606 63.0469L680.596 61.254L690.747 61.1953L690.758 62.9882ZM699.955 68.2261L694.699 68.2565L694.722 72.194L700.865 72.1584L700.876 73.9338L692.509 73.9822L692.435 61.1855L700.74 61.1375L700.751 62.9304L694.669 62.9656L694.689 66.4987L699.945 66.4683L699.955 68.2261ZM706.443 68.4171L704.931 68.4259L704.963 73.9101L702.748 73.923L702.674 61.1263L704.889 61.1135L704.92 66.4923L706.141 66.4852L709.872 61.0847L712.596 61.0689L708.237 67.2202L713.057 73.8633L710.385 73.8788L706.443 68.4171ZM723.747 69.6354C723.626 71.0014 723.128 72.0707 722.254 72.8433C721.379 73.6101 720.212 73.9977 718.753 74.0062C717.734 74.0121 716.833 73.777 716.051 73.3011C715.275 72.8192 714.673 72.1342 714.246 71.2461C713.819 70.3579 713.593 69.325 713.569 68.1474L713.562 66.9521C713.555 65.7451 713.763 64.6804 714.185 63.758C714.608 62.8356 715.216 62.1231 716.01 61.6205C716.81 61.1178 717.734 60.8634 718.783 60.8573C720.195 60.8492 721.334 61.2264 722.2 61.989C723.065 62.7515 723.573 63.8326 723.721 65.2322L721.506 65.245C721.396 64.3257 721.122 63.6651 720.686 63.2634C720.256 62.8557 719.625 62.6543 718.793 62.6591C717.826 62.6647 717.084 63.0234 716.567 63.7354C716.055 64.4415 715.798 65.4772 715.794 66.8425L715.8 67.9763C715.808 69.3591 716.061 70.4123 716.557 71.136C717.059 71.8597 717.788 72.2187 718.743 72.2132C719.616 72.2082 720.271 72.0081 720.708 71.613C721.145 71.2179 721.42 70.5629 721.532 69.6482L723.747 69.6354ZM734.685 62.7341L730.694 62.7572L730.758 73.7609L728.552 73.7737L728.488 62.77L724.533 62.7929L724.523 60.9999L734.674 60.9412L734.685 62.7341ZM746.596 73.6693L744.381 73.6822L744.348 67.9957L738.626 68.0288L738.659 73.7152L736.436 73.7281L736.362 60.9314L738.585 60.9186L738.616 66.2447L744.338 66.2116L744.307 60.8855L746.522 60.8727L746.596 73.6693ZM756.536 70.6323L751.579 70.661L750.559 73.6464L748.248 73.6598L753.008 60.8352L755.003 60.8236L759.92 73.5923L757.599 73.6057L756.536 70.6323ZM752.193 68.8644L755.902 68.843L754.017 63.5452L752.193 68.8644ZM767.689 73.5473L767.661 68.7662L765.183 68.7805L762.741 73.576L760.359 73.5897L763.184 68.1329C761.692 67.4384 760.941 66.2913 760.932 64.6917C760.925 63.4672 761.32 62.5127 762.119 61.8284C762.924 61.1382 764.047 60.783 765.488 60.763L769.839 60.7378L769.913 73.5345L767.689 73.5473ZM763.147 64.7756C763.151 65.4963 763.357 66.0576 763.763 66.4596C764.17 66.8615 764.777 67.0602 765.586 67.0555L767.651 67.0435L767.625 62.5436L765.56 62.5556C764.74 62.5603 764.131 62.7601 763.735 63.155C763.339 63.5499 763.143 64.0901 763.147 64.7756ZM647.612 90.4872L647.64 95.242L645.416 95.2549L645.342 82.4582L650.237 82.4299C651.667 82.4217 652.803 82.7872 653.645 83.5264C654.493 84.2657 654.921 85.2476 654.928 86.4722C654.935 87.7261 654.528 88.704 653.706 89.4061C652.889 90.1081 651.74 90.4634 650.258 90.4719L647.612 90.4872ZM647.602 88.7031L650.274 88.6876C651.065 88.6831 651.667 88.495 652.081 88.1235C652.495 87.7461 652.7 87.2058 652.696 86.5027C652.692 85.8113 652.478 85.2617 652.053 84.854C651.629 84.4405 651.048 84.23 650.309 84.2225L647.576 84.2383L647.602 88.7031ZM664.376 89.4323L659.12 89.4627L659.143 93.4001L665.286 93.3646L665.297 95.1399L656.93 95.1883L656.856 82.3916L665.161 82.3436L665.171 84.1365L659.089 84.1717L659.11 87.7049L664.366 87.6745L664.376 89.4323ZM670.863 89.6233L669.352 89.632L669.383 95.1163L667.169 95.1291L667.095 82.3324L669.309 82.3196L669.341 87.6984L670.562 87.6914L674.293 82.2908L677.017 82.275L672.658 88.4263L677.478 95.0695L674.806 95.0849L670.863 89.6233ZM688.698 82.2075L688.772 95.0041L686.557 95.0169L686.493 84.0132L682.573 84.0359L682.374 88.9854C682.295 90.5327 682.111 91.735 681.823 92.5921C681.541 93.4434 681.126 94.0669 680.577 94.4627C680.029 94.8584 679.291 95.059 678.366 95.0643L677.803 95.0676L677.793 93.2922L678.144 93.2638C678.654 93.214 679.045 93.033 679.319 92.7209C679.598 92.4087 679.807 91.9388 679.944 91.311C680.086 90.6773 680.184 89.7481 680.235 88.5231L680.445 82.2552L688.698 82.2075ZM698.756 91.9668L693.799 91.9955L692.78 94.981L690.468 94.9943L695.228 82.1697L697.223 82.1582L702.14 94.9268L699.819 94.9402L698.756 91.9668ZM694.413 90.199L698.122 90.1775L696.237 84.8797L694.413 90.199ZM706.407 82.105L710.155 91.8921L713.781 82.0624L716.655 82.0458L716.729 94.8424L714.515 94.8552L714.49 90.6366L714.677 84.9928L710.955 94.8758L709.364 94.885L705.537 85.0545L705.789 90.6869L705.813 94.9056L703.599 94.9184L703.525 82.1217L706.407 82.105ZM726.67 91.8054L721.713 91.8341L720.693 94.8195L718.382 94.8329L723.142 82.0083L725.137 81.9967L730.053 94.7654L727.733 94.7788L726.67 91.8054ZM722.327 90.0375L726.036 90.0161L724.15 84.7183L722.327 90.0375Z" fill="white"/>
<path d="M438.125 428.422C438.112 426.151 437.488 424.415 436.252 423.214C435.015 422.013 432.79 420.848 429.575 419.721C426.36 418.594 423.895 417.41 422.179 416.17C420.485 414.909 419.205 413.479 418.342 411.88C417.499 410.26 417.072 408.408 417.06 406.325C417.039 402.721 418.22 399.745 420.602 397.398C423.005 395.05 426.155 393.866 430.05 393.843C432.717 393.828 435.095 394.418 437.186 395.614C439.276 396.79 440.89 398.437 442.027 400.555C443.164 402.674 443.74 405.004 443.755 407.545L438.005 407.579C437.989 404.766 437.299 402.593 435.936 401.059C434.573 399.525 432.621 398.766 430.079 398.78C427.766 398.794 425.979 399.45 424.715 400.749C423.452 402.048 422.827 403.864 422.84 406.197C422.852 408.114 423.548 409.714 424.931 410.998C426.313 412.282 428.445 413.426 431.326 414.43C435.813 415.883 439.022 417.687 440.951 419.843C442.901 421.998 443.886 424.826 443.906 428.326C443.928 432.013 442.747 434.979 440.364 437.222C437.981 439.444 434.727 440.567 430.602 440.591C427.956 440.606 425.505 440.047 423.248 438.914C421.013 437.761 419.243 436.146 417.939 434.07C416.656 431.973 416.007 429.571 415.991 426.862L421.741 426.829C421.757 429.642 422.551 431.825 424.123 433.378C425.715 434.931 427.865 435.7 430.574 435.684C433.094 435.67 434.986 435.013 436.25 433.714C437.513 432.415 438.138 430.651 438.125 428.422ZM473.195 418.688L457.101 418.781L457.195 434.905L475.944 434.797L475.973 439.703L451.504 439.845L451.241 394.345L475.397 394.206L475.426 399.143L456.988 399.25L457.073 413.875L473.166 413.782L473.195 418.688ZM512.801 420.74C512.837 426.948 511.542 431.737 508.915 435.106C506.289 438.476 502.538 440.175 497.663 440.203C492.976 440.23 489.258 438.626 486.51 435.392C483.783 432.137 482.35 427.531 482.212 421.573L482.162 413.011C482.127 406.927 483.443 402.159 486.111 398.706C488.778 395.233 492.518 393.482 497.33 393.454C502.122 393.426 505.861 395.061 508.547 398.358C511.253 401.634 512.655 406.334 512.753 412.459L512.801 420.74ZM507.036 412.804C507.008 407.992 506.196 404.424 504.599 402.1C503.023 399.754 500.61 398.591 497.36 398.61C494.215 398.628 491.836 399.83 490.225 402.214C488.634 404.598 487.842 408.103 487.848 412.728L487.895 420.884C487.922 425.53 488.745 429.067 490.363 431.495C492.002 433.923 494.426 435.128 497.634 435.109C500.842 435.091 503.211 433.952 504.739 431.693C506.268 429.434 507.05 425.982 507.086 421.335L507.036 412.804Z" fill="white"/>
<path opacity="0.7" d="M525.646 131.853C525.451 131.658 525.451 131.342 525.646 131.146L528.828 127.964C529.024 127.769 529.34 127.769 529.536 127.964C529.731 128.16 529.731 128.476 529.536 128.672L526.707 131.5L529.536 134.328C529.731 134.524 529.731 134.84 529.536 135.035C529.34 135.231 529.024 135.231 528.828 135.035L525.646 131.853ZM636.5 78C635.808 78 635.127 78.007 634.455 78.0208L634.435 77.021C635.113 77.007 635.802 77 636.5 77L636.5 78ZM630.506 78.1865C629.139 78.2744 627.817 78.3926 626.537 78.5395L626.423 77.546C627.72 77.3972 629.059 77.2775 630.441 77.1886L630.506 78.1865ZM622.584 79.1051C621.236 79.3379 619.939 79.6051 618.688 79.9042L618.455 78.9316C619.727 78.6274 621.045 78.356 622.414 78.1197L622.584 79.1051ZM614.863 80.9605C613.566 81.369 612.324 81.8147 611.13 82.2941L610.757 81.3662C611.975 80.8771 613.241 80.4229 614.562 80.0067L614.863 80.9605ZM607.516 83.9168C606.31 84.5184 605.156 85.1569 604.047 85.8281L603.529 84.9727C604.661 84.2878 605.838 83.636 607.07 83.0219L607.516 83.9168ZM600.744 88.0137C599.658 88.7942 598.617 89.6068 597.611 90.4466L596.97 89.6789C597.993 88.8249 599.054 87.9974 600.16 87.2019L600.744 88.0137ZM594.639 93.0917C593.671 94.0062 592.732 94.9439 591.814 95.8995L591.093 95.2067C592.021 94.2412 592.971 93.292 593.952 92.3648L594.639 93.0917ZM589.102 98.826C588.213 99.8163 587.335 100.819 586.462 101.828L585.706 101.173C586.582 100.162 587.463 99.1542 588.358 98.1577L589.102 98.826ZM583.847 104.864C582.977 105.874 582.102 106.885 581.213 107.891L580.463 107.229C581.348 106.228 582.22 105.22 583.089 104.211L583.847 104.864ZM578.515 110.871C577.605 111.846 576.673 112.812 575.712 113.762L575.009 113.05C575.959 112.112 576.881 111.156 577.784 110.188L578.515 110.871ZM572.771 116.522C571.776 117.407 570.744 118.272 569.67 119.112L569.054 118.325C570.111 117.499 571.126 116.647 572.107 115.775L572.771 116.522ZM566.399 121.493C565.302 122.234 564.162 122.947 562.97 123.63L562.473 122.762C563.642 122.092 564.762 121.391 565.839 120.665L566.399 121.493ZM559.392 125.507C558.205 126.076 556.971 126.614 555.685 127.12L555.319 126.189C556.583 125.692 557.795 125.163 558.961 124.605L559.392 125.507ZM551.87 128.472C550.623 128.867 549.331 129.234 547.991 129.569L547.748 128.599C549.069 128.269 550.341 127.908 551.568 127.519L551.87 128.472ZM544.069 130.432C542.789 130.677 541.469 130.895 540.105 131.086L539.966 130.095C541.314 129.907 542.618 129.692 543.881 129.45L544.069 130.432ZM536.097 131.551C534.782 131.674 533.429 131.773 532.037 131.846L531.985 130.847C533.364 130.775 534.703 130.677 536.004 130.555L536.097 131.551ZM528.065 131.983C527.386 131.994 526.697 132 526 132L526 131C526.692 131 527.374 130.994 528.048 130.983L528.065 131.983Z" fill="white"/>
<circle cx="514.443" cy="130.443" r="5.94299" stroke="white"/>
<mask id="mask0" mask-type="alpha" maskUnits="userSpaceOnUse" x="633" y="174" width="130" height="65">
<path fill-rule="evenodd" clip-rule="evenodd" d="M644.816 174.104C646.657 174.104 679.792 181.468 681.173 182.849C681.39 183.066 681.487 183.482 681.641 184.147C682.042 185.877 682.835 189.292 687.156 195.274C688.815 203.612 688.429 212.501 686.235 218.285C681.173 231.631 633.311 216.444 633.311 215.524C633.311 214.787 640.981 187.604 644.816 174.104ZM705.564 185.61C707.294 185.153 746.6 185.78 748.269 186.843C749.938 187.907 763.725 206.829 762.555 221.678C761.386 236.526 696.884 243.791 701.422 234.393C708.879 218.947 709.706 204.018 705.564 185.61Z" fill="#C4C4C4"/>
</mask>
<g mask="url(#mask0)">
<rect x="644" y="183" width="57" height="31" rx="4" fill="url(#paint0_linear)" stroke="white"/>
<rect x="645" y="182" width="57" height="30" rx="3" fill="url(#paint1_linear)" stroke="white"/>
<rect x="647" y="186" width="10" height="10" rx="2" fill="#181818"/>
<rect x="648" y="186" width="9" height="9" rx="2" fill="#2F2D2D"/>
<circle cx="650.5" cy="192.5" r="1.5" fill="#1B1A1A"/>
<circle cx="654.5" cy="192.5" r="1.5" fill="#1B1A1A"/>
<circle opacity="0.7" cx="652.5" cy="188.5" r="0.5" fill="#FFE259"/>
</g>
<circle cx="663.443" cy="256.443" r="5.94299" stroke="white"/>
<path opacity="0.7" d="M672.12 259.325C671.941 259.115 671.965 258.8 672.175 258.62L675.595 255.695C675.805 255.516 676.121 255.54 676.3 255.75C676.48 255.96 676.455 256.276 676.245 256.455L673.205 259.055L675.805 262.095C675.985 262.305 675.96 262.62 675.75 262.8C675.54 262.979 675.225 262.955 675.045 262.745L672.12 259.325ZM780.5 215.5C779.794 215.5 779.098 215.506 778.414 215.518L778.396 214.518C779.087 214.506 779.788 214.5 780.5 214.5L780.5 215.5ZM774.404 215.661C773.004 215.738 771.653 215.842 770.349 215.971L770.25 214.976C771.569 214.845 772.935 214.741 774.349 214.663L774.404 215.661ZM766.316 216.471C764.933 216.678 763.607 216.918 762.336 217.185L762.129 216.207C763.421 215.935 764.766 215.692 766.168 215.482L766.316 216.471ZM758.417 218.146C757.074 218.524 755.798 218.938 754.582 219.384L754.238 218.445C755.479 217.99 756.779 217.569 758.145 217.184L758.417 218.146ZM750.865 220.923C749.611 221.507 748.427 222.127 747.303 222.779L746.801 221.914C747.951 221.247 749.162 220.613 750.443 220.017L750.865 220.923ZM743.921 224.952C742.801 225.745 741.741 226.571 740.73 227.424L740.086 226.659C741.116 225.79 742.198 224.946 743.343 224.135L743.921 224.952ZM737.744 230.137C736.77 231.084 735.835 232.052 734.924 233.035L734.191 232.355C735.111 231.363 736.058 230.381 737.047 229.42L737.744 230.137ZM732.212 236.057C731.317 237.08 730.435 238.104 729.542 239.13L728.788 238.474C729.675 237.453 730.564 236.422 731.46 235.398L732.212 236.057ZM726.833 242.186C725.919 243.19 724.983 244.182 724.01 245.153L723.304 244.445C724.263 243.488 725.188 242.508 726.094 241.513L726.833 242.186ZM721.007 247.959C719.99 248.843 718.925 249.699 717.798 250.52L717.209 249.712C718.311 248.909 719.354 248.071 720.351 247.204L721.007 247.959ZM714.361 252.786C713.211 253.469 711.999 254.115 710.715 254.719L710.289 253.814C711.544 253.224 712.728 252.593 713.851 251.926L714.361 252.786ZM706.905 256.303C705.664 256.755 704.362 257.171 702.993 257.548L702.727 256.584C704.072 256.214 705.348 255.806 706.563 255.364L706.905 256.303ZM698.992 258.492C697.697 258.75 696.347 258.977 694.937 259.169L694.802 258.178C696.192 257.989 697.522 257.766 698.796 257.511L698.992 258.492ZM690.888 259.61C689.581 259.718 688.227 259.8 686.824 259.853L686.786 258.854C688.175 258.801 689.514 258.72 690.805 258.613L690.888 259.61ZM682.732 259.927C681.394 259.925 680.016 259.9 678.593 259.85L678.629 258.85C680.04 258.9 681.407 258.925 682.733 258.927L682.732 259.927ZM674.562 259.648C673.872 259.604 673.171 259.554 672.461 259.498L672.539 258.502C673.245 258.557 673.94 258.606 674.626 258.65L674.562 259.648Z" fill="white"/>
<path d="M799.139 207.558C799.018 208.924 798.521 209.993 797.646 210.765C796.772 211.532 795.605 211.92 794.146 211.928C793.127 211.934 792.226 211.699 791.444 211.223C790.668 210.741 790.066 210.056 789.639 209.168C789.212 208.28 788.986 207.247 788.962 206.07L788.955 204.874C788.948 203.667 789.156 202.603 789.578 201.68C790 200.758 790.609 200.045 791.403 199.543C792.202 199.04 793.127 198.786 794.176 198.779C795.588 198.771 796.727 199.149 797.592 199.911C798.458 200.674 798.965 201.755 799.114 203.154L796.899 203.167C796.788 202.248 796.515 201.587 796.079 201.185C795.649 200.778 795.018 200.576 794.186 200.581C793.219 200.587 792.477 200.946 791.96 201.658C791.448 202.364 791.19 203.399 791.187 204.765L791.193 205.898C791.201 207.281 791.453 208.334 791.95 209.058C792.452 209.782 793.181 210.141 794.136 210.135C795.009 210.13 795.664 209.93 796.101 209.535C796.538 209.14 796.813 208.485 796.925 207.57L799.139 207.558ZM811.336 205.589C811.344 206.842 811.133 207.945 810.705 208.897C810.277 209.843 809.66 210.573 808.854 211.087C808.055 211.596 807.13 211.853 806.081 211.859C805.044 211.865 804.117 211.619 803.3 211.119C802.488 210.614 801.857 209.894 801.406 208.96C800.962 208.025 800.733 206.945 800.72 205.72L800.716 205C800.708 203.752 800.922 202.649 801.356 201.691C801.795 200.733 802.415 200 803.215 199.492C804.021 198.977 804.945 198.717 805.988 198.711C807.031 198.705 807.955 198.952 808.761 199.451C809.572 199.944 810.2 200.661 810.645 201.602C811.09 202.537 811.319 203.629 811.332 204.877L811.336 205.589ZM809.109 204.933C809.101 203.515 808.825 202.43 808.281 201.677C807.744 200.925 806.983 200.551 805.999 200.557C805.038 200.562 804.287 200.945 803.746 201.704C803.212 202.457 802.942 203.522 802.939 204.899L802.943 205.637C802.951 207.043 803.23 208.129 803.779 208.893C804.334 209.657 805.098 210.037 806.071 210.031C807.055 210.025 807.809 209.646 808.332 208.893C808.861 208.14 809.121 207.043 809.113 205.601L809.109 204.933ZM813.495 198.844L815.718 198.831L815.782 209.852L821.416 209.819L821.352 198.798L823.575 198.785L823.639 209.789L825.186 209.78L825.038 214.659L822.999 214.671L822.982 211.586L813.569 211.64L813.495 198.844ZM834.799 198.72L837.023 198.707L837.097 211.504L834.873 211.517L834.82 202.403L829.257 211.549L827.033 211.562L826.959 198.766L829.183 198.753L829.236 207.876L834.799 198.72ZM847.064 208.467L842.107 208.496L841.087 211.481L838.775 211.494L843.535 198.67L845.53 198.658L850.447 211.427L848.127 211.44L847.064 208.467ZM842.72 206.699L846.429 206.678L844.544 201.38L842.72 206.699ZM862.053 198.563L862.127 211.359L859.913 211.372L859.849 200.368L855.929 200.391L855.729 205.341C855.65 206.888 855.467 208.09 855.179 208.947C854.897 209.799 854.481 210.422 853.933 210.818C853.384 211.214 852.647 211.414 851.721 211.42L851.159 211.423L851.149 209.647L851.5 209.619C852.009 209.569 852.401 209.388 852.675 209.076C852.954 208.764 853.162 208.294 853.299 207.666C853.442 207.033 853.539 206.103 853.591 204.878L853.801 198.61L862.053 198.563ZM866.951 203.43L869.57 203.415C870.507 203.409 871.326 203.566 872.025 203.884C872.724 204.202 873.257 204.656 873.623 205.246C873.99 205.836 874.176 206.52 874.18 207.299C874.187 208.495 873.785 209.458 872.975 210.189C872.171 210.92 871.069 211.296 869.668 211.316L864.773 211.344L864.699 198.547L866.922 198.535L866.951 203.43ZM866.961 205.214L866.986 209.556L869.596 209.541C870.346 209.536 870.928 209.331 871.342 208.924C871.761 208.512 871.969 207.968 871.965 207.295C871.962 206.65 871.754 206.141 871.341 205.769C870.929 205.396 870.359 205.206 869.633 205.199L866.961 205.214ZM886.288 211.22L884.073 211.232L884.04 205.546L878.319 205.579L878.352 211.265L876.128 211.278L876.054 198.482L878.278 198.469L878.308 203.795L884.03 203.762L883.999 198.436L886.214 198.423L886.288 211.22ZM891.164 203.29L893.783 203.275C894.721 203.269 895.539 203.426 896.238 203.744C896.937 204.062 897.47 204.516 897.837 205.106C898.204 205.695 898.389 206.38 898.394 207.159C898.401 208.355 897.999 209.318 897.189 210.049C896.384 210.78 895.282 211.156 893.882 211.176L888.986 211.204L888.912 198.407L891.136 198.394L891.164 203.29ZM901.897 211.129L899.682 211.142L899.608 198.345L901.823 198.333L901.897 211.129ZM891.174 205.074L891.2 209.416L893.81 209.401C894.56 209.396 895.142 209.191 895.555 208.784C895.975 208.372 896.183 207.828 896.179 207.154C896.175 206.51 895.967 206.001 895.555 205.629C895.142 205.256 894.573 205.066 893.846 205.059L891.174 205.074ZM912.068 205.357L906.812 205.388L906.835 209.325L912.979 209.29L912.989 211.065L904.622 211.114L904.548 198.317L912.853 198.269L912.864 200.062L906.782 200.097L906.802 203.63L912.058 203.6L912.068 205.357ZM799.261 228.557C799.14 229.923 798.642 230.992 797.768 231.765C796.893 232.532 795.727 232.92 794.268 232.928C793.248 232.934 792.347 232.699 791.565 232.223C790.789 231.741 790.187 231.056 789.76 230.168C789.333 229.28 789.108 228.247 789.083 227.069L789.076 225.874C789.069 224.667 789.277 223.602 789.699 222.68C790.122 221.757 790.73 221.045 791.524 220.542C792.324 220.04 793.248 219.785 794.297 219.779C795.709 219.771 796.848 220.148 797.714 220.911C798.58 221.673 799.087 222.754 799.235 224.154L797.021 224.167C796.91 223.247 796.637 222.587 796.201 222.185C795.77 221.777 795.139 221.576 794.307 221.581C793.341 221.586 792.599 221.945 792.081 222.657C791.57 223.363 791.312 224.399 791.308 225.764L791.315 226.898C791.323 228.281 791.575 229.334 792.071 230.058C792.573 230.781 793.302 231.141 794.257 231.135C795.13 231.13 795.785 230.93 796.223 230.535C796.66 230.14 796.934 229.485 797.046 228.57L799.261 228.557ZM808.726 226.956L803.471 226.986L803.493 230.923L809.637 230.888L809.647 232.663L801.28 232.712L801.206 219.915L809.512 219.867L809.522 221.66L803.44 221.695L803.46 225.228L808.716 225.198L808.726 226.956ZM820.816 221.595L816.826 221.618L816.889 232.621L814.683 232.634L814.62 221.63L810.665 221.653L810.654 219.86L820.805 219.802L820.816 221.595ZM830.333 219.746L832.556 219.734L832.63 232.53L830.407 232.543L830.354 223.429L824.79 232.576L822.567 232.588L822.493 219.792L824.716 219.779L824.769 228.902L830.333 219.746Z" fill="white"/>
<g filter="url(#filter0_d)">
<mask id="path-22-inside-1" fill="white">
<path fill-rule="evenodd" clip-rule="evenodd" d="M490 144.837H539V180.837L539 189.837H531V180.837H528V189.837H520V180.837H509V183.837L501 182.837V180.837H498V182.837H490V180.837V152.837V144.837Z"/>
</mask>
<path fill-rule="evenodd" clip-rule="evenodd" d="M490 144.837H539V180.837L539 189.837H531V180.837H528V189.837H520V180.837H509V183.837L501 182.837V180.837H498V182.837H490V180.837V152.837V144.837Z" fill="url(#paint2_linear)"/>
<path d="M539 144.837H540V143.837H539V144.837ZM490 144.837V143.837H489V144.837H490ZM539 180.837H540H539ZM539 189.837V190.837H540V189.837H539ZM531 189.837H530V190.837H531V189.837ZM531 180.837H532V179.837H531V180.837ZM528 180.837V179.837H527V180.837H528ZM528 189.837V190.837H529V189.837H528ZM520 189.837H519V190.837H520V189.837ZM520 180.837H521V179.837H520V180.837ZM509 180.837V179.837H508V180.837H509ZM509 183.837L508.876 184.829L510 184.969V183.837H509ZM501 182.837H500V183.719L500.876 183.829L501 182.837ZM501 180.837H502V179.837H501V180.837ZM498 180.837V179.837H497V180.837H498ZM498 182.837V183.837H499V182.837H498ZM490 182.837H489V183.837H490V182.837ZM539 143.837H490V145.837H539V143.837ZM540 180.837V144.837H538V180.837H540ZM540 189.837L540 180.837H538L538 189.837H540ZM531 190.837H539V188.837H531V190.837ZM530 180.837V189.837H532V180.837H530ZM528 181.837H531V179.837H528V181.837ZM529 189.837V180.837H527V189.837H529ZM520 190.837H528V188.837H520V190.837ZM519 180.837V189.837H521V180.837H519ZM509 181.837H520V179.837H509V181.837ZM510 183.837V180.837H508V183.837H510ZM500.876 183.829L508.876 184.829L509.124 182.844L501.124 181.844L500.876 183.829ZM500 180.837V182.837H502V180.837H500ZM498 181.837H501V179.837H498V181.837ZM497 180.837V182.837H499V180.837H497ZM498 181.837H490V183.837H498V181.837ZM491 182.837V180.837H489V182.837H491ZM491 180.837V152.837H489V180.837H491ZM489 144.837V152.837H491V144.837H489Z" fill="white" mask="url(#path-22-inside-1)"/>
</g>
<path d="M500.988 159H499.908L496.678 155.38V159H495.778V151.86H496.678V155.32L499.828 151.86H500.848L497.748 155.33L500.988 159ZM504.949 156.97C504.736 157.443 504.519 157.84 504.299 158.16C504.086 158.473 503.833 158.71 503.539 158.87C503.246 159.023 502.873 159.1 502.419 159.1C502.233 159.1 502.056 159.087 501.889 159.06C501.729 159.033 501.583 158.997 501.449 158.95V158.06C501.583 158.12 501.726 158.17 501.879 158.21C502.033 158.243 502.193 158.26 502.359 158.26C502.733 158.26 503.026 158.18 503.239 158.02C503.459 157.86 503.663 157.577 503.849 157.17L501.099 151.86H502.089L504.079 155.79C504.113 155.857 504.153 155.943 504.199 156.05C504.246 156.15 504.286 156.247 504.319 156.34H504.359C504.386 156.267 504.419 156.18 504.459 156.08C504.499 155.973 504.533 155.887 504.559 155.82L506.279 151.86H507.229L504.949 156.97ZM508.199 159V151.86H513.559V159H512.669V152.65H509.099V159H508.199ZM515.524 151.86H516.364V155.78C516.364 156 516.361 156.247 516.354 156.52C516.347 156.793 516.337 157.043 516.324 157.27C516.317 157.497 516.307 157.663 516.294 157.77H516.334L520.264 151.86H521.264V159H520.424V155.12C520.424 154.873 520.427 154.61 520.434 154.33C520.447 154.05 520.461 153.793 520.474 153.56C520.487 153.327 520.497 153.16 520.504 153.06H520.464L516.524 159H515.524V151.86ZM525.45 159H524.55V152.65H522.32V151.86H527.67V152.65H525.45V159ZM528.746 159V151.86H529.646V154.88H530.986C531.653 154.88 532.183 154.97 532.576 155.15C532.97 155.33 533.253 155.573 533.426 155.88C533.6 156.187 533.686 156.53 533.686 156.91C533.686 157.537 533.473 158.043 533.046 158.43C532.62 158.81 531.97 159 531.096 159H528.746ZM531.006 158.23C532.173 158.23 532.756 157.79 532.756 156.91C532.756 156.45 532.596 156.127 532.276 155.94C531.956 155.753 531.49 155.66 530.876 155.66H529.646V158.23H531.006ZM501.025 165.55C500.258 165.55 499.655 165.807 499.215 166.32C498.775 166.833 498.555 167.537 498.555 168.43C498.555 169.317 498.758 170.02 499.165 170.54C499.578 171.053 500.195 171.31 501.015 171.31C501.328 171.31 501.625 171.283 501.905 171.23C502.185 171.177 502.458 171.11 502.725 171.03V171.81C502.458 171.91 502.182 171.983 501.895 172.03C501.615 172.077 501.278 172.1 500.885 172.1C500.158 172.1 499.552 171.95 499.065 171.65C498.578 171.35 498.212 170.923 497.965 170.37C497.725 169.817 497.605 169.167 497.605 168.42C497.605 167.7 497.735 167.067 497.995 166.52C498.262 165.967 498.652 165.537 499.165 165.23C499.678 164.917 500.302 164.76 501.035 164.76C501.788 164.76 502.445 164.9 503.005 165.18L502.645 165.94C502.425 165.84 502.178 165.75 501.905 165.67C501.638 165.59 501.345 165.55 501.025 165.55ZM509.423 172H508.523V165.65H506.263C506.203 166.143 506.137 166.663 506.063 167.21C505.99 167.75 505.917 168.267 505.843 168.76C505.77 169.253 505.697 169.673 505.623 170.02C505.537 170.467 505.43 170.847 505.303 171.16C505.177 171.473 505.007 171.71 504.793 171.87C504.587 172.03 504.313 172.11 503.973 172.11C503.86 172.11 503.743 172.097 503.623 172.07C503.51 172.05 503.41 172.023 503.323 171.99V171.24C503.397 171.273 503.48 171.303 503.573 171.33C503.667 171.35 503.767 171.36 503.873 171.36C504.073 171.36 504.23 171.28 504.343 171.12C504.463 170.953 504.557 170.75 504.623 170.51C504.69 170.263 504.747 170.02 504.793 169.78C504.847 169.527 504.91 169.157 504.983 168.67C505.063 168.177 505.147 167.603 505.233 166.95C505.327 166.297 505.42 165.6 505.513 164.86H509.423V172ZM517.594 168.42C517.594 169.16 517.467 169.807 517.214 170.36C516.967 170.907 516.6 171.333 516.114 171.64C515.627 171.947 515.024 172.1 514.304 172.1C513.564 172.1 512.947 171.947 512.454 171.64C511.967 171.333 511.604 170.903 511.364 170.35C511.124 169.797 511.004 169.15 511.004 168.41C511.004 167.677 511.124 167.037 511.364 166.49C511.604 165.943 511.967 165.517 512.454 165.21C512.947 164.903 513.567 164.75 514.314 164.75C515.027 164.75 515.627 164.903 516.114 165.21C516.6 165.51 516.967 165.937 517.214 166.49C517.467 167.037 517.594 167.68 517.594 168.42ZM511.954 168.42C511.954 169.32 512.144 170.03 512.524 170.55C512.904 171.063 513.497 171.32 514.304 171.32C515.117 171.32 515.71 171.063 516.084 170.55C516.457 170.03 516.644 169.32 516.644 168.42C516.644 167.52 516.457 166.817 516.084 166.31C515.71 165.797 515.12 165.54 514.314 165.54C513.507 165.54 512.91 165.797 512.524 166.31C512.144 166.817 511.954 167.52 511.954 168.42ZM524.636 172H523.736V168.67H520.076V172H519.176V164.86H520.076V167.88H523.736V164.86H524.636V172ZM531.068 172L530.208 169.79H527.378L526.528 172H525.618L528.408 164.83H529.218L531.998 172H531.068ZM529.138 166.83C529.118 166.777 529.085 166.68 529.038 166.54C528.991 166.4 528.945 166.257 528.898 166.11C528.858 165.957 528.825 165.84 528.798 165.76C528.751 165.967 528.698 166.17 528.638 166.37C528.578 166.563 528.528 166.717 528.488 166.83L527.678 168.99H529.938L529.138 166.83Z" fill="#252525"/>
<rect opacity="0.5" x="335.5" y="45.5" width="222" height="30" rx="2.5" fill="white" fill-opacity="0.6" stroke="white"/>
<path d="M371.578 64.0078L373.203 57.5469H374.648L372.188 66H371.016L368.961 59.5938L366.961 66H365.789L363.336 57.5469H364.773L366.438 63.875L368.406 57.5469H369.57L371.578 64.0078ZM383.609 64.0078L385.234 57.5469H386.68L384.219 66H383.047L380.992 59.5938L378.992 66H377.82L375.367 57.5469H376.805L378.469 63.875L380.438 57.5469H381.602L383.609 64.0078ZM395.641 64.0078L397.266 57.5469H398.711L396.25 66H395.078L393.023 59.5938L391.023 66H389.852L387.398 57.5469H388.836L390.5 63.875L392.469 57.5469H393.633L395.641 64.0078ZM399.25 65.2422C399.25 64.9922 399.323 64.7839 399.469 64.6172C399.62 64.4505 399.844 64.3672 400.141 64.3672C400.438 64.3672 400.661 64.4505 400.812 64.6172C400.969 64.7839 401.047 64.9922 401.047 65.2422C401.047 65.4818 400.969 65.6823 400.812 65.8438C400.661 66.0052 400.438 66.0859 400.141 66.0859C399.844 66.0859 399.62 66.0052 399.469 65.8438C399.323 65.6823 399.25 65.4818 399.25 65.2422ZM403.57 66V57.5469H406.867C407.992 57.5469 408.854 57.7448 409.453 58.1406C410.057 58.5312 410.359 59.1068 410.359 59.8672C410.359 60.2578 410.242 60.612 410.008 60.9297C409.773 61.2422 409.427 61.4818 408.969 61.6484C409.479 61.7682 409.888 62.0026 410.195 62.3516C410.508 62.7005 410.664 63.1172 410.664 63.6016C410.664 64.3776 410.378 64.9714 409.805 65.3828C409.237 65.7943 408.432 66 407.391 66H403.57ZM405.016 62.2891V64.8359H407.406C408.01 64.8359 408.461 64.724 408.758 64.5C409.06 64.276 409.211 63.9609 409.211 63.5547C409.211 62.7109 408.591 62.2891 407.352 62.2891H405.016ZM405.016 61.1328H406.883C408.237 61.1328 408.914 60.737 408.914 59.9453C408.914 59.1536 408.273 58.7448 406.992 58.7188H405.016V61.1328ZM417.797 66C417.714 65.8333 417.646 65.5365 417.594 65.1094C416.922 65.8073 416.12 66.1562 415.188 66.1562C414.354 66.1562 413.669 65.9219 413.133 65.4531C412.602 64.9792 412.336 64.3802 412.336 63.6562C412.336 62.776 412.669 62.0938 413.336 61.6094C414.008 61.1198 414.951 60.875 416.164 60.875H417.57V60.2109C417.57 59.7057 417.419 59.3047 417.117 59.0078C416.815 58.7057 416.37 58.5547 415.781 58.5547C415.266 58.5547 414.833 58.6849 414.484 58.9453C414.135 59.2057 413.961 59.5208 413.961 59.8906H412.508C412.508 59.4688 412.656 59.0625 412.953 58.6719C413.255 58.276 413.661 57.9635 414.172 57.7344C414.688 57.5052 415.253 57.3906 415.867 57.3906C416.841 57.3906 417.604 57.6354 418.156 58.125C418.708 58.6094 418.995 59.2786 419.016 60.1328V64.0234C419.016 64.7995 419.115 65.4167 419.312 65.875V66H417.797ZM415.398 64.8984C415.852 64.8984 416.281 64.7812 416.688 64.5469C417.094 64.3125 417.388 64.0078 417.57 63.6328V61.8984H416.438C414.667 61.8984 413.781 62.4167 413.781 63.4531C413.781 63.9062 413.932 64.2604 414.234 64.5156C414.536 64.7708 414.924 64.8984 415.398 64.8984ZM422.859 57.5469V64.8203H425.953V57.5469H427.398V64.8203H430.484V57.5469H431.938V66H421.406V57.5469H422.859ZM437.227 61.7578H433.414V60.5781H437.227V61.7578ZM445.555 66H444.109V58.7422H440.219V66H438.766V57.5469H445.555V66ZM455.016 61.8672C455.016 63.1536 454.721 64.1901 454.133 64.9766C453.544 65.763 452.747 66.1562 451.742 66.1562C450.716 66.1562 449.909 65.8307 449.32 65.1797V69.25H447.875V57.5469H449.195L449.266 58.4844C449.854 57.7552 450.672 57.3906 451.719 57.3906C452.734 57.3906 453.536 57.7734 454.125 58.5391C454.719 59.3047 455.016 60.3698 455.016 61.7344V61.8672ZM453.57 61.7031C453.57 60.75 453.367 59.9974 452.961 59.4453C452.555 58.8932 451.997 58.6172 451.289 58.6172C450.414 58.6172 449.758 59.0052 449.32 59.7812V63.8203C449.753 64.5911 450.414 64.9766 451.305 64.9766C451.997 64.9766 452.547 64.7031 452.953 64.1562C453.365 63.6042 453.57 62.7865 453.57 61.7031ZM456.477 61.6953C456.477 60.8672 456.638 60.1224 456.961 59.4609C457.289 58.7995 457.742 58.2891 458.32 57.9297C458.904 57.5703 459.568 57.3906 460.312 57.3906C461.464 57.3906 462.393 57.7891 463.102 58.5859C463.815 59.3828 464.172 60.4427 464.172 61.7656V61.8672C464.172 62.6901 464.013 63.4297 463.695 64.0859C463.383 64.737 462.932 65.2448 462.344 65.6094C461.76 65.974 461.089 66.1562 460.328 66.1562C459.182 66.1562 458.253 65.7578 457.539 64.9609C456.831 64.1641 456.477 63.1094 456.477 61.7969V61.6953ZM457.93 61.8672C457.93 62.8047 458.146 63.5573 458.578 64.125C459.016 64.6927 459.599 64.9766 460.328 64.9766C461.062 64.9766 461.646 64.6901 462.078 64.1172C462.51 63.5391 462.727 62.7318 462.727 61.6953C462.727 60.7682 462.505 60.0182 462.062 59.4453C461.625 58.8672 461.042 58.5781 460.312 58.5781C459.599 58.5781 459.023 58.862 458.586 59.4297C458.148 59.9974 457.93 60.8099 457.93 61.8672ZM469.492 66.1562C468.346 66.1562 467.414 65.7812 466.695 65.0312C465.977 64.276 465.617 63.2682 465.617 62.0078V61.7422C465.617 60.9036 465.776 60.1562 466.094 59.5C466.417 58.8385 466.865 58.3229 467.438 57.9531C468.016 57.5781 468.641 57.3906 469.312 57.3906C470.411 57.3906 471.266 57.7526 471.875 58.4766C472.484 59.2005 472.789 60.237 472.789 61.5859V62.1875H467.062C467.083 63.0208 467.326 63.6953 467.789 64.2109C468.258 64.7214 468.852 64.9766 469.57 64.9766C470.081 64.9766 470.513 64.8724 470.867 64.6641C471.221 64.4557 471.531 64.1797 471.797 63.8359L472.68 64.5234C471.971 65.612 470.909 66.1562 469.492 66.1562ZM469.312 58.5781C468.729 58.5781 468.24 58.7917 467.844 59.2188C467.448 59.6406 467.203 60.2344 467.109 61H471.344V60.8906C471.302 60.1562 471.104 59.5885 470.75 59.1875C470.396 58.7812 469.917 58.5781 469.312 58.5781ZM477.102 62.3984H476.047V66H474.594V57.5469H476.047V61.125H476.992L479.836 57.5469H481.586L478.242 61.6094L481.867 66H480.031L477.102 62.3984ZM489.391 58.7188H486.555V66H485.109V58.7188H482.328V57.5469H489.391V58.7188ZM490.828 65.2422C490.828 64.9922 490.901 64.7839 491.047 64.6172C491.198 64.4505 491.422 64.3672 491.719 64.3672C492.016 64.3672 492.24 64.4505 492.391 64.6172C492.547 64.7839 492.625 64.9922 492.625 65.2422C492.625 65.4818 492.547 65.6823 492.391 65.8438C492.24 66.0052 492.016 66.0859 491.719 66.0859C491.422 66.0859 491.198 66.0052 491.047 65.8438C490.901 65.6823 490.828 65.4818 490.828 65.2422ZM498.406 64.9766C498.922 64.9766 499.372 64.8203 499.758 64.5078C500.143 64.1953 500.357 63.8047 500.398 63.3359H501.766C501.74 63.8203 501.573 64.2812 501.266 64.7188C500.958 65.1562 500.547 65.5052 500.031 65.7656C499.521 66.026 498.979 66.1562 498.406 66.1562C497.255 66.1562 496.339 65.7734 495.656 65.0078C494.979 64.237 494.641 63.1849 494.641 61.8516V61.6094C494.641 60.7865 494.792 60.0547 495.094 59.4141C495.396 58.7734 495.828 58.276 496.391 57.9219C496.958 57.5677 497.628 57.3906 498.398 57.3906C499.346 57.3906 500.133 57.6745 500.758 58.2422C501.388 58.8099 501.724 59.5469 501.766 60.4531H500.398C500.357 59.9062 500.148 59.4583 499.773 59.1094C499.404 58.7552 498.945 58.5781 498.398 58.5781C497.664 58.5781 497.094 58.8438 496.688 59.375C496.286 59.901 496.086 60.6641 496.086 61.6641V61.9375C496.086 62.9115 496.286 63.6615 496.688 64.1875C497.089 64.7135 497.661 64.9766 498.406 64.9766ZM503.008 61.6953C503.008 60.8672 503.169 60.1224 503.492 59.4609C503.82 58.7995 504.273 58.2891 504.852 57.9297C505.435 57.5703 506.099 57.3906 506.844 57.3906C507.995 57.3906 508.924 57.7891 509.633 58.5859C510.346 59.3828 510.703 60.4427 510.703 61.7656V61.8672C510.703 62.6901 510.544 63.4297 510.227 64.0859C509.914 64.737 509.464 65.2448 508.875 65.6094C508.292 65.974 507.62 66.1562 506.859 66.1562C505.714 66.1562 504.784 65.7578 504.07 64.9609C503.362 64.1641 503.008 63.1094 503.008 61.7969V61.6953ZM504.461 61.8672C504.461 62.8047 504.677 63.5573 505.109 64.125C505.547 64.6927 506.13 64.9766 506.859 64.9766C507.594 64.9766 508.177 64.6901 508.609 64.1172C509.042 63.5391 509.258 62.7318 509.258 61.6953C509.258 60.7682 509.036 60.0182 508.594 59.4453C508.156 58.8672 507.573 58.5781 506.844 58.5781C506.13 58.5781 505.555 58.862 505.117 59.4297C504.68 59.9974 504.461 60.8099 504.461 61.8672ZM513.875 57.5469L513.914 58.4844C514.534 57.7552 515.37 57.3906 516.422 57.3906C517.604 57.3906 518.409 57.8438 518.836 58.75C519.117 58.3438 519.482 58.0156 519.93 57.7656C520.383 57.5156 520.917 57.3906 521.531 57.3906C523.385 57.3906 524.328 58.3724 524.359 60.3359V66H522.914V60.4219C522.914 59.8177 522.776 59.3672 522.5 59.0703C522.224 58.7682 521.76 58.6172 521.109 58.6172C520.573 58.6172 520.128 58.7786 519.773 59.1016C519.419 59.4193 519.214 59.849 519.156 60.3906V66H517.703V60.4609C517.703 59.2318 517.102 58.6172 515.898 58.6172C514.951 58.6172 514.302 59.0208 513.953 59.8281V66H512.508V57.5469H513.875Z" fill="white"/>
<rect x="343" y="59" width="10" height="8" rx="1" fill="#34A853"/>
<rect x="345.5" y="54.5" width="5" height="8" rx="1.5" stroke="#34A853"/>
<path d="M544.158 57.9999L545.5 55.1674L546.842 57.9999C546.959 58.2459 547.193 58.4158 547.463 58.4507L550.572 58.8521L548.293 61.0042C548.095 61.1911 548.005 61.4659 548.056 61.7336L548.634 64.8141L545.883 63.3117C545.644 63.1812 545.356 63.1812 545.117 63.3117L542.366 64.8141L542.944 61.7336C542.995 61.4659 542.905 61.1911 542.707 61.0042L542.364 61.3677L542.707 61.0042L540.428 58.8521L543.537 58.4507C543.807 58.4158 544.041 58.2459 544.158 57.9999ZM542.288 65.2289L542.288 65.2286L542.288 65.2289Z" stroke="white"/>
<path d="M264.219 360.5H191L203 356L275.62 356.487C275.961 356.49 276.034 356.969 275.709 357.073L265.743 360.262C265.251 360.42 264.737 360.5 264.219 360.5Z" fill="#FDF0CD" stroke="white"/>
<path d="M264.219 359.5H191L203 355L275.62 355.487C275.961 355.49 276.034 355.969 275.709 356.073L265.743 359.262C265.251 359.42 264.737 359.5 264.219 359.5Z" fill="#868686" stroke="white"/>
<path d="M260.685 360H192.072C190.592 360 189.333 358.921 189.107 357.458L181.534 308.458C181.254 306.64 182.66 305 184.499 305H255.785C257.326 305 258.617 306.168 258.77 307.701L263.67 356.701C263.847 358.468 262.46 360 260.685 360Z" fill="url(#paint3_linear)" stroke="white"/>
<path d="M222.463 328.5C222.463 327.833 222.763 326.4 223.963 326C223.963 326.667 223.663 328.1 222.463 328.5Z" fill="black"/>
<path d="M217.963 330.5C219.163 328.5 221.963 330 222.463 330C222.962 330 224.962 328 226.962 330C225.762 332 227.129 333.833 227.962 334.5C227.796 335 227.262 336.2 226.462 337C225.462 338 223.962 337 223.462 337C222.962 337 221.963 337.5 220.463 337C218.963 336.5 216.463 333 217.963 330.5Z" fill="black"/>
<path opacity="0.9" d="M408.014 136.055C393.188 135.654 384.735 137.553 382.303 138.595L382 138.725V139.054V144.054V144.221L382.1 144.354L383.489 146.206C383.356 148.597 383.899 154.47 387.053 160.778C390.353 167.378 396.675 169.379 399.469 169.553L399.484 169.554H399.5H411H411.025L411.05 169.552C414.488 169.208 421.992 166.572 424.477 158.705C426.799 151.352 431.86 147.534 433.25 146.492C434.64 147.534 439.701 151.352 442.023 158.705C444.508 166.572 452.012 169.208 455.45 169.552L455.475 169.554H455.5H467H467.016L467.031 169.553C469.825 169.379 476.147 167.378 479.447 160.778C482.601 154.47 483.144 148.597 483.011 146.206L484.4 144.354L484.5 144.221V144.054V139.054V138.725L484.197 138.595C481.765 137.553 473.312 135.654 458.486 136.055C449.191 136.306 444.509 137.564 441.322 138.775C440.533 139.075 439.848 139.365 439.218 139.632C437.281 140.452 435.86 141.054 433.5 141.054H433C430.64 141.054 429.219 140.452 427.282 139.632C426.652 139.365 425.967 139.075 425.178 138.775C421.991 137.564 417.309 136.306 408.014 136.055Z" fill="#2B2A2A" stroke="white"/>
<path opacity="0.8" d="M399 139C389.4 139 386 143 386.5 149C387 155 390 162.312 392.5 164.5C393.834 165.667 396.2 167.1 403 167.5C409.8 167.9 414 167 416.5 165.5C419 164 422.905 160 425 149C426.43 141.493 417.167 139.167 412.5 139H399Z" fill="url(#paint4_linear)"/>
<path opacity="0.8" d="M467.148 139C476.748 139 480.148 143 479.648 149C479.148 155 476.148 162.312 473.648 164.5C472.315 165.667 469.948 167.1 463.148 167.5C456.348 167.9 452.148 167 449.648 165.5C447.148 164 443.243 160 441.148 149C439.718 141.493 448.982 139.167 453.648 139H467.148Z" fill="url(#paint5_linear)"/>
<path d="M410 143.226C412.87 142.328 418.061 144.073 419 149" stroke="#FFFDFD" stroke-linecap="round" stroke-linejoin="round"/>
<path d="M466 143.226C468.87 142.328 474.061 144.073 475 149" stroke="#FFFDFD" stroke-linecap="round" stroke-linejoin="round"/>
<defs>
<filter id="filter0_d" x="486" y="144.837" width="57" height="53" filterUnits="userSpaceOnUse" color-interpolation-filters="sRGB">
<feFlood flood-opacity="0" result="BackgroundImageFix"/>
<feColorMatrix in="SourceAlpha" type="matrix" values="0 0 0 0 0 0 0 0 0 0 0 0 0 0 0 0 0 0 127 0"/>
<feOffset dy="4"/>
<feGaussianBlur stdDeviation="2"/>
<feColorMatrix type="matrix" values="0 0 0 0 0 0 0 0 0 0 0 0 0 0 0 0 0 0 0.25 0"/>
<feBlend mode="normal" in2="BackgroundImageFix" result="effect1_dropShadow"/>
<feBlend mode="normal" in="SourceGraphic" in2="effect1_dropShadow" result="shape"/>
</filter>
<linearGradient id="paint0_linear" x1="675" y1="187.133" x2="675.189" y2="214.012" gradientUnits="userSpaceOnUse">
<stop stop-color="#454545"/>
<stop offset="0.802083" stop-color="#2B2B2C"/>
<stop offset="1" stop-color="#444444"/>
</linearGradient>
<linearGradient id="paint1_linear" x1="676" y1="186" x2="676.177" y2="212.012" gradientUnits="userSpaceOnUse">
<stop stop-color="#3A3A3A"/>
<stop offset="0.682292" stop-color="#2B2B2C"/>
<stop offset="1" stop-color="#323232"/>
</linearGradient>
<linearGradient id="paint2_linear" x1="514.5" y1="144.837" x2="514.5" y2="189.837" gradientUnits="userSpaceOnUse">
<stop stop-color="#FFE259"/>
<stop offset="0.578125" stop-color="#FFE466"/>
<stop offset="1" stop-color="#FFDB31"/>
</linearGradient>
<linearGradient id="paint3_linear" x1="222.5" y1="317" x2="229" y2="360" gradientUnits="userSpaceOnUse">
<stop stop-color="#EDEDED"/>
<stop offset="1" stop-color="#AAAAAA"/>
</linearGradient>
<linearGradient id="paint4_linear" x1="405.801" y1="139" x2="405.801" y2="167.595" gradientUnits="userSpaceOnUse">
<stop stop-color="#55257C"/>
<stop offset="1" stop-color="#252C5B"/>
</linearGradient>
<linearGradient id="paint5_linear" x1="460.348" y1="139" x2="460.348" y2="167.595" gradientUnits="userSpaceOnUse">
<stop stop-color="#55257C"/>
<stop offset="1" stop-color="#252C5B"/>
</linearGradient>
</defs>
</svg>
