<svg width="115" height="27" viewBox="0 0 115 27" fill="none" xmlns="http://www.w3.org/2000/svg">
<path d="M45.1162 17.7705H40.0537V23H37.417V10.2031H45.749V12.3389H40.0537V15.6436H45.1162V17.7705ZM52.3232 23C52.2061 22.7715 52.1211 22.4873 52.0684 22.1475C51.4531 22.833 50.6533 23.1758 49.6689 23.1758C48.7373 23.1758 47.9639 22.9062 47.3486 22.3672C46.7393 21.8281 46.4346 21.1484 46.4346 20.3281C46.4346 19.3203 46.8066 18.5469 47.5508 18.0078C48.3008 17.4688 49.3818 17.1963 50.7939 17.1904H51.9629V16.6455C51.9629 16.2061 51.8486 15.8545 51.6201 15.5908C51.3975 15.3271 51.043 15.1953 50.5566 15.1953C50.1289 15.1953 49.792 15.2979 49.5459 15.5029C49.3057 15.708 49.1855 15.9893 49.1855 16.3467H46.6455C46.6455 15.7959 46.8154 15.2861 47.1553 14.8174C47.4951 14.3486 47.9756 13.9824 48.5967 13.7188C49.2178 13.4492 49.915 13.3145 50.6885 13.3145C51.8604 13.3145 52.7891 13.6104 53.4746 14.2021C54.166 14.7881 54.5117 15.6143 54.5117 16.6807V20.8027C54.5176 21.7051 54.6436 22.3877 54.8896 22.8506V23H52.3232ZM50.2227 21.2334C50.5977 21.2334 50.9434 21.1514 51.2598 20.9873C51.5762 20.8174 51.8105 20.5918 51.9629 20.3105V18.6758H51.0137C49.7422 18.6758 49.0654 19.1152 48.9834 19.9941L48.9746 20.1436C48.9746 20.46 49.0859 20.7207 49.3086 20.9258C49.5312 21.1309 49.8359 21.2334 50.2227 21.2334ZM60.418 21.1279C60.8867 21.1279 61.2676 20.999 61.5605 20.7412C61.8535 20.4834 62.0059 20.1406 62.0176 19.7129H64.3994C64.3936 20.3574 64.2178 20.9492 63.8721 21.4883C63.5264 22.0215 63.0518 22.4375 62.4482 22.7363C61.8506 23.0293 61.1885 23.1758 60.4619 23.1758C59.1025 23.1758 58.0303 22.7451 57.2451 21.8838C56.46 21.0166 56.0674 19.8213 56.0674 18.2979V18.1309C56.0674 16.666 56.457 15.4971 57.2363 14.624C58.0156 13.751 59.085 13.3145 60.4443 13.3145C61.6338 13.3145 62.5859 13.6543 63.3008 14.334C64.0215 15.0078 64.3877 15.9072 64.3994 17.0322H62.0176C62.0059 16.54 61.8535 16.1416 61.5605 15.8369C61.2676 15.5264 60.8809 15.3711 60.4004 15.3711C59.8086 15.3711 59.3604 15.5879 59.0557 16.0215C58.7568 16.4492 58.6074 17.1465 58.6074 18.1133V18.377C58.6074 19.3555 58.7568 20.0586 59.0557 20.4863C59.3545 20.9141 59.8086 21.1279 60.418 21.1279ZM70.2266 23.1758C68.832 23.1758 67.6953 22.748 66.8164 21.8926C65.9434 21.0371 65.5068 19.8975 65.5068 18.4736V18.2275C65.5068 17.2725 65.6914 16.4199 66.0605 15.6699C66.4297 14.9141 66.9512 14.334 67.625 13.9297C68.3047 13.5195 69.0781 13.3145 69.9453 13.3145C71.2461 13.3145 72.2686 13.7246 73.0127 14.5449C73.7627 15.3652 74.1377 16.5283 74.1377 18.0342V19.0713H68.082C68.1641 19.6924 68.4102 20.1904 68.8203 20.5654C69.2363 20.9404 69.7607 21.1279 70.3936 21.1279C71.3721 21.1279 72.1367 20.7734 72.6875 20.0645L73.9355 21.4619C73.5547 22.001 73.0391 22.4229 72.3887 22.7275C71.7383 23.0264 71.0176 23.1758 70.2266 23.1758ZM69.9365 15.3711C69.4326 15.3711 69.0225 15.541 68.7061 15.8809C68.3955 16.2207 68.1963 16.707 68.1084 17.3398H71.6416V17.1377C71.6299 16.5752 71.4775 16.1416 71.1846 15.8369C70.8916 15.5264 70.4756 15.3711 69.9365 15.3711ZM84.1572 18.333C84.1572 19.8564 83.832 21.0459 83.1816 21.9014C82.5312 22.751 81.623 23.1758 80.457 23.1758C79.4258 23.1758 78.6025 22.7803 77.9873 21.9893L77.873 23H75.5879V9.5H78.1279V14.3428C78.7139 13.6572 79.4844 13.3145 80.4395 13.3145C81.5996 13.3145 82.5078 13.7422 83.1641 14.5977C83.8262 15.4473 84.1572 16.6455 84.1572 18.1924V18.333ZM81.6172 18.1484C81.6172 17.1875 81.4648 16.4873 81.1602 16.0479C80.8555 15.6025 80.4014 15.3799 79.7979 15.3799C78.9893 15.3799 78.4326 15.7109 78.1279 16.373V20.126C78.4385 20.7939 79.001 21.1279 79.8154 21.1279C80.6357 21.1279 81.1748 20.7236 81.4326 19.915C81.5557 19.5283 81.6172 18.9395 81.6172 18.1484ZM85.335 18.1572C85.335 17.2139 85.5166 16.373 85.8799 15.6348C86.2432 14.8965 86.7646 14.3252 87.4443 13.9209C88.1299 13.5166 88.9238 13.3145 89.8262 13.3145C91.1094 13.3145 92.1553 13.707 92.9639 14.4922C93.7783 15.2773 94.2324 16.3438 94.3262 17.6914L94.3438 18.3418C94.3438 19.8008 93.9365 20.9727 93.1221 21.8574C92.3076 22.7363 91.2148 23.1758 89.8438 23.1758C88.4727 23.1758 87.377 22.7363 86.5566 21.8574C85.7422 20.9785 85.335 19.7832 85.335 18.2715V18.1572ZM87.875 18.3418C87.875 19.2441 88.0449 19.9355 88.3848 20.416C88.7246 20.8906 89.2109 21.1279 89.8438 21.1279C90.459 21.1279 90.9395 20.8936 91.2852 20.4248C91.6309 19.9502 91.8037 19.1943 91.8037 18.1572C91.8037 17.2725 91.6309 16.5869 91.2852 16.1006C90.9395 15.6143 90.4531 15.3711 89.8262 15.3711C89.2051 15.3711 88.7246 15.6143 88.3848 16.1006C88.0449 16.5811 87.875 17.3281 87.875 18.3418ZM95.5127 18.1572C95.5127 17.2139 95.6943 16.373 96.0576 15.6348C96.4209 14.8965 96.9424 14.3252 97.6221 13.9209C98.3076 13.5166 99.1016 13.3145 100.004 13.3145C101.287 13.3145 102.333 13.707 103.142 14.4922C103.956 15.2773 104.41 16.3438 104.504 17.6914L104.521 18.3418C104.521 19.8008 104.114 20.9727 103.3 21.8574C102.485 22.7363 101.393 23.1758 100.021 23.1758C98.6504 23.1758 97.5547 22.7363 96.7344 21.8574C95.9199 20.9785 95.5127 19.7832 95.5127 18.2715V18.1572ZM98.0527 18.3418C98.0527 19.2441 98.2227 19.9355 98.5625 20.416C98.9023 20.8906 99.3887 21.1279 100.021 21.1279C100.637 21.1279 101.117 20.8936 101.463 20.4248C101.809 19.9502 101.981 19.1943 101.981 18.1572C101.981 17.2725 101.809 16.5869 101.463 16.1006C101.117 15.6143 100.631 15.3711 100.004 15.3711C99.3828 15.3711 98.9023 15.6143 98.5625 16.1006C98.2227 16.5811 98.0527 17.3281 98.0527 18.3418ZM109.54 19.1855L108.626 20.0996V23H106.086V9.5H108.626V16.9795L109.118 16.3467L111.553 13.4902H114.603L111.166 17.4541L114.901 23H111.983L109.54 19.1855Z" fill="#222222"/>
<g clip-path="url(#clip0)">
<path d="M11.25 26.9999C4.875 25.8749 0 20.3249 0 13.6499C0 6.2249 6.075 0.149902 13.5 0.149902C20.925 0.149902 27 6.2249 27 13.6499C27 20.3249 22.125 25.8749 15.75 26.9999L15 26.3999H12L11.25 26.9999Z" fill="url(#paint0_linear)"/>
<path d="M18.75 18L19.35 14.25H15.75V11.625C15.75 10.575 16.125 9.75 17.775 9.75H19.5V6.3C18.525 6.15 17.475 6 16.5 6C13.425 6 11.25 7.875 11.25 11.25V14.25H7.875V18H11.25V27.525C12 27.675 12.75 27.75 13.5 27.75C14.25 27.75 15 27.675 15.75 27.525V18H18.75Z" fill="white"/>
</g>
<defs>
<linearGradient id="paint0_linear" x1="13.5" y1="26.2154" x2="13.5" y2="0.149902" gradientUnits="userSpaceOnUse">
<stop stop-color="#0062E0"/>
<stop offset="1" stop-color="#19AFFF"/>
</linearGradient>
<clipPath id="clip0">
<rect width="27" height="27" fill="white" transform="matrix(1 0 0 -1 0 27)"/>
</clipPath>
</defs>
</svg>
