<svg width="25" height="25" viewBox="0 0 25 25" fill="none" xmlns="http://www.w3.org/2000/svg">
<path d="M10.4167 24.8611C4.51389 23.8194 0 18.6806 0 12.5C0 5.625 5.625 0 12.5 0C19.375 0 25 5.625 25 12.5C25 18.6806 20.4861 23.8194 14.5833 24.8611L13.8889 24.3056H11.1111L10.4167 24.8611Z" fill="url(#paint0_linear)"/>
<path d="M17.3611 15.9722L17.9166 12.5H14.5833V10.0694C14.5833 9.0972 14.9305 8.33331 16.4583 8.33331H18.0555V5.13886C17.1527 4.99997 16.1805 4.86108 15.2777 4.86108C12.4305 4.86108 10.4166 6.5972 10.4166 9.7222V12.5H7.29163V15.9722H10.4166V24.7916C11.1111 24.9305 11.8055 25 12.5 25C13.1944 25 13.8889 24.9305 14.5833 24.7916V15.9722H17.3611Z" fill="white"/>
<defs>
<linearGradient id="paint0_linear" x1="12.5" y1="24.1347" x2="12.5" y2="0" gradientUnits="userSpaceOnUse">
<stop stop-color="#0062E0"/>
<stop offset="1" stop-color="#19AFFF"/>
</linearGradient>
</defs>
</svg>
