<svg width="156" height="28" viewBox="0 0 156 28" fill="none" xmlns="http://www.w3.org/2000/svg">
<path d="M128.154 16.918H122.869L121.655 21H119.636L124.674 5.35938H126.36L131.409 21H129.39L128.154 16.918ZM123.385 15.2207H127.649L125.512 8.10938L123.385 15.2207ZM133.536 21V5.35938H137.264C139.09 5.35938 140.508 5.93229 141.518 7.07812C142.527 8.2168 143.032 9.82096 143.032 11.8906V14.5117C143.032 16.5814 142.52 18.182 141.496 19.3135C140.472 20.4378 138.986 21 137.038 21H133.536ZM135.502 7.05664V19.3135H137.081C138.463 19.3135 139.473 18.9196 140.11 18.1318C140.748 17.3369 141.074 16.1624 141.088 14.6084V11.8369C141.088 10.1898 140.769 8.98307 140.132 8.2168C139.502 7.44336 138.546 7.05664 137.264 7.05664H135.502ZM152.937 17.0469C152.937 16.2663 152.725 15.6683 152.303 15.2529C151.88 14.8376 151.118 14.4329 150.015 14.0391C148.912 13.6452 148.067 13.2334 147.479 12.8037C146.899 12.3669 146.463 11.8727 146.169 11.3213C145.882 10.7627 145.739 10.1253 145.739 9.40918C145.739 8.17025 146.151 7.14974 146.975 6.34766C147.805 5.54557 148.89 5.14453 150.229 5.14453C151.146 5.14453 151.963 5.35221 152.679 5.76758C153.395 6.17578 153.946 6.74512 154.333 7.47559C154.72 8.20605 154.913 9.00814 154.913 9.88184H152.937C152.937 8.91504 152.704 8.16667 152.238 7.63672C151.773 7.10677 151.103 6.8418 150.229 6.8418C149.435 6.8418 148.819 7.0638 148.382 7.50781C147.945 7.95182 147.727 8.57487 147.727 9.37695C147.727 10.0358 147.963 10.5872 148.436 11.0312C148.908 11.4753 149.639 11.8727 150.627 12.2236C152.167 12.7321 153.266 13.3587 153.925 14.1035C154.591 14.8483 154.924 15.8223 154.924 17.0254C154.924 18.293 154.512 19.3099 153.688 20.0762C152.865 20.8353 151.744 21.2148 150.326 21.2148C149.417 21.2148 148.575 21.0179 147.802 20.624C147.035 20.223 146.43 19.6644 145.986 18.9482C145.549 18.2249 145.331 17.3978 145.331 16.4668H147.308C147.308 17.4336 147.576 18.1855 148.113 18.7227C148.658 19.2598 149.395 19.5283 150.326 19.5283C151.193 19.5283 151.844 19.3063 152.281 18.8623C152.718 18.4183 152.937 17.8132 152.937 17.0469Z" fill="black"/>
<path d="M9.5597 3.57363L1.61548 17.333L8.49576 21.3055L16.44 7.54607L9.5597 3.57363Z" fill="#FBBC04"/>
<path d="M24.3845 17.3322L16.4396 3.57254C15.3427 1.67265 12.9134 1.02129 11.0135 2.11817C9.11357 3.21504 8.46221 5.64442 9.55909 7.54432L17.504 21.304C18.6009 23.2039 21.0302 23.8539 22.9301 22.7584C24.83 21.6615 25.48 19.2321 24.3845 17.3322Z" fill="#4285F4"/>
<path d="M5.05643 23.2902C7.24998 23.2902 9.0282 21.512 9.0282 19.3184C9.0282 17.1249 7.24998 15.3467 5.05643 15.3467C2.86288 15.3467 1.08466 17.1249 1.08466 19.3184C1.08466 21.512 2.86288 23.2902 5.05643 23.2902Z" fill="#34A853"/>
<path d="M42.8643 10.8725V13.5375H49.1416C48.9495 15.0325 48.4584 16.1267 47.7111 16.8958C46.793 17.8275 45.3624 18.8458 42.8643 18.8458C38.9997 18.8458 35.9785 15.6825 35.9785 11.7608C35.9785 7.83917 38.9997 4.67583 42.8643 4.67583C44.9461 4.67583 46.4727 5.51 47.5936 6.5825L49.4405 4.70833C47.8819 3.17 45.7895 2 42.8643 2C37.5692 2 33.1174 6.37667 33.1174 11.75C33.1174 17.1233 37.5692 21.5 42.8643 21.5C45.7254 21.5 47.8819 20.5467 49.5686 18.77C51.2981 17.015 51.8426 14.5342 51.8426 12.5408C51.8426 11.9233 51.7999 11.3492 51.7038 10.8725H42.8643Z" fill="#4285F4"/>
<path d="M59.6892 8.70605C56.2623 8.70605 53.4653 11.3494 53.4653 15.0002C53.4653 18.6186 56.2623 21.2944 59.6892 21.2944C63.1161 21.2944 65.9131 18.6294 65.9131 15.0002C65.9131 11.3494 63.1161 8.70605 59.6892 8.70605ZM59.6892 18.8136C57.8103 18.8136 56.1876 17.2427 56.1876 15.0002C56.1876 12.7361 57.8103 11.1869 59.6892 11.1869C61.5681 11.1869 63.1908 12.7361 63.1908 15.0002C63.1908 17.2427 61.5681 18.8136 59.6892 18.8136Z" fill="#EA4335"/>
<path d="M90.2003 10.1144H90.1042C89.4957 9.37772 88.3213 8.70605 86.8374 8.70605C83.7415 8.70605 81.0405 11.4469 81.0405 15.0002C81.0405 18.5319 83.7415 21.2944 86.8374 21.2944C88.3213 21.2944 89.4957 20.6227 90.1042 19.8644H90.2003V20.7419C90.2003 23.1469 88.9299 24.4361 86.8908 24.4361C85.2254 24.4361 84.1899 23.2227 83.7628 22.1936L81.3928 23.1902C82.0761 24.8586 83.8803 26.9061 86.8908 26.9061C90.0828 26.9061 92.7838 24.9994 92.7838 20.3519V9.03105H90.2003V10.1144ZM87.0723 18.8136C85.1934 18.8136 83.7628 17.1886 83.7628 15.0002C83.7628 12.7794 85.1934 11.1869 87.0723 11.1869C88.9299 11.1869 90.3817 12.8119 90.3817 15.0219C90.3924 17.2211 88.9299 18.8136 87.0723 18.8136Z" fill="#4285F4"/>
<path d="M73.5675 8.70605C70.1407 8.70605 67.3436 11.3494 67.3436 15.0002C67.3436 18.6186 70.1407 21.2944 73.5675 21.2944C76.9944 21.2944 79.7915 18.6294 79.7915 15.0002C79.7915 11.3494 76.9944 8.70605 73.5675 8.70605ZM73.5675 18.8136C71.6886 18.8136 70.0659 17.2427 70.0659 15.0002C70.0659 12.7361 71.6886 11.1869 73.5675 11.1869C75.4465 11.1869 77.0692 12.7361 77.0692 15.0002C77.0692 17.2427 75.4465 18.8136 73.5675 18.8136Z" fill="#FBBC05"/>
<path d="M94.9189 2.26025H97.5985V21.2944H94.9189V2.26025Z" fill="#34A853"/>
<path d="M105.872 18.8136C104.484 18.8136 103.502 18.1744 102.862 16.9069L111.157 13.4294L110.879 12.7144C110.367 11.3061 108.787 8.70605 105.573 8.70605C102.381 8.70605 99.723 11.2519 99.723 15.0002C99.723 18.5319 102.349 21.2944 105.872 21.2944C108.712 21.2944 110.356 19.5286 111.039 18.5102L108.925 17.0802C108.221 18.1202 107.26 18.8136 105.872 18.8136ZM105.68 11.0677C106.78 11.0677 107.719 11.6419 108.029 12.4544L102.424 14.8052C102.424 12.1619 104.271 11.0677 105.68 11.0677Z" fill="#EA4335"/>
</svg>
