<svg width="156" height="28" viewBox="0 0 156 28" fill="none" xmlns="http://www.w3.org/2000/svg">
<path d="M128.154 16.918H122.869L121.655 21H119.636L124.674 5.35938H126.36L131.409 21H129.39L128.154 16.918ZM123.385 15.2207H127.649L125.512 8.10938L123.385 15.2207ZM133.536 21V5.35938H137.264C139.09 5.35938 140.508 5.93229 141.518 7.07812C142.527 8.2168 143.032 9.82096 143.032 11.8906V14.5117C143.032 16.5814 142.52 18.182 141.496 19.3135C140.472 20.4378 138.986 21 137.038 21H133.536ZM135.502 7.05664V19.3135H137.081C138.463 19.3135 139.473 18.9196 140.11 18.1318C140.748 17.3369 141.074 16.1624 141.088 14.6084V11.8369C141.088 10.1898 140.769 8.98307 140.132 8.2168C139.502 7.44336 138.546 7.05664 137.264 7.05664H135.502ZM152.937 17.0469C152.937 16.2663 152.725 15.6683 152.303 15.2529C151.88 14.8376 151.118 14.4329 150.015 14.0391C148.912 13.6452 148.067 13.2334 147.479 12.8037C146.899 12.3669 146.463 11.8727 146.169 11.3213C145.882 10.7627 145.739 10.1253 145.739 9.40918C145.739 8.17025 146.151 7.14974 146.975 6.34766C147.805 5.54557 148.89 5.14453 150.229 5.14453C151.146 5.14453 151.963 5.35221 152.679 5.76758C153.395 6.17578 153.946 6.74512 154.333 7.47559C154.72 8.20605 154.913 9.00814 154.913 9.88184H152.937C152.937 8.91504 152.704 8.16667 152.238 7.63672C151.773 7.10677 151.103 6.8418 150.229 6.8418C149.435 6.8418 148.819 7.0638 148.382 7.50781C147.945 7.95182 147.727 8.57487 147.727 9.37695C147.727 10.0358 147.963 10.5872 148.436 11.0312C148.908 11.4753 149.639 11.8727 150.627 12.2236C152.167 12.7321 153.266 13.3587 153.925 14.1035C154.591 14.8483 154.924 15.8223 154.924 17.0254C154.924 18.293 154.512 19.3099 153.688 20.0762C152.865 20.8353 151.744 21.2148 150.326 21.2148C149.417 21.2148 148.575 21.0179 147.802 20.624C147.035 20.223 146.43 19.6644 145.986 18.9482C145.549 18.2249 145.331 17.3978 145.331 16.4668H147.308C147.308 17.4336 147.576 18.1855 148.113 18.7227C148.658 19.2598 149.395 19.5283 150.326 19.5283C151.193 19.5283 151.844 19.3063 152.281 18.8623C152.718 18.4183 152.937 17.8132 152.937 17.0469Z" fill="white"/>
<path d="M9.5597 3.57363L1.61548 17.333L8.49576 21.3055L16.44 7.54607L9.5597 3.57363Z" fill="#FBBC04"/>
<path d="M24.3845 17.332L16.4396 3.5723C15.3427 1.6724 12.9134 1.02105 11.0135 2.11793C9.11357 3.2148 8.46221 5.64418 9.55909 7.54407L17.504 21.3038C18.6009 23.2037 21.0302 23.8537 22.9301 22.7581C24.83 21.6613 25.48 19.2319 24.3845 17.332Z" fill="#4285F4"/>
<path d="M5.05649 23.2905C7.25004 23.2905 9.02826 21.5122 9.02826 19.3187C9.02826 17.1251 7.25004 15.3469 5.05649 15.3469C2.86294 15.3469 1.08472 17.1251 1.08472 19.3187C1.08472 21.5122 2.86294 23.2905 5.05649 23.2905Z" fill="#34A853"/>
<path d="M42.8643 10.8725V13.5375H49.1416C48.9495 15.0325 48.4584 16.1267 47.7111 16.8958C46.793 17.8275 45.3624 18.8458 42.8643 18.8458C38.9997 18.8458 35.9785 15.6825 35.9785 11.7608C35.9785 7.83917 38.9997 4.67583 42.8643 4.67583C44.9461 4.67583 46.4727 5.51 47.5936 6.5825L49.4405 4.70833C47.8819 3.17 45.7895 2 42.8643 2C37.5692 2 33.1174 6.37667 33.1174 11.75C33.1174 17.1233 37.5692 21.5 42.8643 21.5C45.7254 21.5 47.8819 20.5467 49.5686 18.77C51.2981 17.015 51.8426 14.5342 51.8426 12.5408C51.8426 11.9233 51.7999 11.3492 51.7038 10.8725H42.8643Z" fill="#4285F4"/>
<path d="M59.6891 8.70581C56.2622 8.70581 53.4652 11.3491 53.4652 15C53.4652 18.6183 56.2622 21.2941 59.6891 21.2941C63.116 21.2941 65.913 18.6291 65.913 15C65.913 11.3491 63.116 8.70581 59.6891 8.70581ZM59.6891 18.8133C57.8102 18.8133 56.1875 17.2425 56.1875 15C56.1875 12.7358 57.8102 11.1866 59.6891 11.1866C61.568 11.1866 63.1908 12.7358 63.1908 15C63.1908 17.2425 61.568 18.8133 59.6891 18.8133Z" fill="#EA4335"/>
<path d="M90.2003 10.1141H90.1042C89.4957 9.37748 88.3213 8.70581 86.8374 8.70581C83.7415 8.70581 81.0405 11.4466 81.0405 15C81.0405 18.5316 83.7415 21.2941 86.8374 21.2941C88.3213 21.2941 89.4957 20.6225 90.1042 19.8641H90.2003V20.7416C90.2003 23.1466 88.9299 24.4358 86.8908 24.4358C85.2254 24.4358 84.1899 23.2225 83.7628 22.1933L81.3928 23.19C82.0761 24.8583 83.8803 26.9058 86.8908 26.9058C90.0828 26.9058 92.7838 24.9991 92.7838 20.3516V9.03081H90.2003V10.1141ZM87.0723 18.8133C85.1934 18.8133 83.7628 17.1883 83.7628 15C83.7628 12.7791 85.1934 11.1866 87.0723 11.1866C88.9299 11.1866 90.3817 12.8116 90.3817 15.0216C90.3924 17.2208 88.9299 18.8133 87.0723 18.8133Z" fill="#4285F4"/>
<path d="M73.5675 8.70581C70.1407 8.70581 67.3436 11.3491 67.3436 15C67.3436 18.6183 70.1407 21.2941 73.5675 21.2941C76.9944 21.2941 79.7915 18.6291 79.7915 15C79.7915 11.3491 76.9944 8.70581 73.5675 8.70581ZM73.5675 18.8133C71.6886 18.8133 70.0659 17.2425 70.0659 15C70.0659 12.7358 71.6886 11.1866 73.5675 11.1866C75.4465 11.1866 77.0692 12.7358 77.0692 15C77.0692 17.2425 75.4465 18.8133 73.5675 18.8133Z" fill="#FBBC05"/>
<path d="M94.9189 2.26001H97.5985V21.2942H94.9189V2.26001Z" fill="#34A853"/>
<path d="M105.872 18.8133C104.484 18.8133 103.502 18.1741 102.862 16.9066L111.157 13.4291L110.879 12.7141C110.367 11.3058 108.787 8.70581 105.573 8.70581C102.381 8.70581 99.7229 11.2516 99.7229 15C99.7229 18.5316 102.349 21.2941 105.872 21.2941C108.712 21.2941 110.356 19.5283 111.039 18.51L108.925 17.08C108.221 18.12 107.26 18.8133 105.872 18.8133ZM105.68 11.0675C106.78 11.0675 107.719 11.6416 108.029 12.4541L102.424 14.805C102.424 12.1616 104.271 11.0675 105.68 11.0675Z" fill="#EA4335"/>
</svg>
