<svg width="233" height="32" viewBox="0 0 233 32" fill="none" xmlns="http://www.w3.org/2000/svg">
<path d="M12.3616 10.92V14.2H20.2281C19.9873 16.04 19.3719 17.3867 18.4354 18.3333C17.2849 19.48 15.4922 20.7333 12.3616 20.7333C7.51864 20.7333 3.73256 16.84 3.73256 12.0133C3.73256 7.18667 7.51864 3.29333 12.3616 3.29333C14.9704 3.29333 16.8835 4.32 18.2882 5.64L20.6027 3.33333C18.6495 1.44 16.0273 0 12.3616 0C5.72594 0 0.147156 5.38667 0.147156 12C0.147156 18.6133 5.72594 24 12.3616 24C15.947 24 18.6495 22.8267 20.7632 20.64C22.9305 18.48 23.6128 15.4267 23.6128 12.9733C23.6128 12.2133 23.5593 11.5067 23.4389 10.92H12.3616Z" fill="black"/>
<path d="M33.446 8.25342C29.1515 8.25342 25.6464 11.5068 25.6464 16.0001C25.6464 20.4534 29.1515 23.7468 33.446 23.7468C37.7404 23.7468 41.2455 20.4668 41.2455 16.0001C41.2455 11.5068 37.7404 8.25342 33.446 8.25342ZM33.446 20.6934C31.0914 20.6934 29.0578 18.7601 29.0578 16.0001C29.0578 13.2134 31.0914 11.3068 33.446 11.3068C35.8006 11.3068 37.8341 13.2134 37.8341 16.0001C37.8341 18.7601 35.8006 20.6934 33.446 20.6934Z" fill="black"/>
<path d="M71.6814 9.98675H71.561C70.7984 9.08008 69.3268 8.25342 67.4672 8.25342C63.5874 8.25342 60.2027 11.6268 60.2027 16.0001C60.2027 20.3468 63.5874 23.7467 67.4672 23.7467C69.3268 23.7467 70.7984 22.9201 71.561 21.9867H71.6814V23.0667C71.6814 26.0267 70.0893 27.6134 67.5341 27.6134C65.447 27.6134 64.1493 26.1201 63.6142 24.8534L60.6442 26.0801C61.5004 28.1334 63.7613 30.6534 67.5341 30.6534C71.5342 30.6534 74.9189 28.3067 74.9189 22.5868V8.65342H71.6814V9.98675ZM67.7615 20.6934C65.4069 20.6934 63.6142 18.6934 63.6142 16.0001C63.6142 13.2668 65.4069 11.3068 67.7615 11.3068C70.0893 11.3068 71.9088 13.3068 71.9088 16.0268C71.9222 18.7334 70.0893 20.6934 67.7615 20.6934Z" fill="black"/>
<path d="M50.8379 8.25342C46.5434 8.25342 43.0383 11.5068 43.0383 16.0001C43.0383 20.4534 46.5434 23.7468 50.8379 23.7468C55.1323 23.7468 58.6375 20.4668 58.6375 16.0001C58.6375 11.5068 55.1323 8.25342 50.8379 8.25342ZM50.8379 20.6934C48.4833 20.6934 46.4498 18.7601 46.4498 16.0001C46.4498 13.2134 48.4833 11.3068 50.8379 11.3068C53.1925 11.3068 55.226 13.2134 55.226 16.0001C55.226 18.7601 53.1925 20.6934 50.8379 20.6934Z" fill="black"/>
<path d="M77.5946 0.320068H80.9526V23.7467H77.5946V0.320068Z" fill="black"/>
<path d="M91.3208 20.6934C89.5816 20.6934 88.3508 19.9068 87.5481 18.3468L97.9431 14.0668L97.5953 13.1868C96.9531 11.4534 94.9731 8.25342 90.9462 8.25342C86.9461 8.25342 83.6149 11.3868 83.6149 16.0001C83.6149 20.3468 86.906 23.7468 91.3208 23.7468C94.8795 23.7468 96.9397 21.5734 97.796 20.3201L95.147 18.5601C94.2641 19.8401 93.06 20.6934 91.3208 20.6934ZM91.08 11.1601C92.458 11.1601 93.6353 11.8668 94.0233 12.8668L86.9996 15.7601C86.9996 12.5068 89.3141 11.1601 91.08 11.1601Z" fill="black"/>
<path d="M112.256 16.2959C110.809 15.8799 109.754 15.3701 109.092 14.7666C108.436 14.1572 108.107 13.4072 108.107 12.5166C108.107 11.5088 108.509 10.6768 109.312 10.0205C110.12 9.3584 111.169 9.02734 112.458 9.02734C113.337 9.02734 114.119 9.19727 114.805 9.53711C115.496 9.87695 116.029 10.3457 116.404 10.9434C116.785 11.541 116.976 12.1943 116.976 12.9033H115.279C115.279 12.1299 115.033 11.5234 114.541 11.084C114.049 10.6387 113.354 10.416 112.458 10.416C111.626 10.416 110.976 10.6006 110.507 10.9697C110.044 11.333 109.812 11.8398 109.812 12.4902C109.812 13.0117 110.032 13.4541 110.472 13.8174C110.917 14.1748 111.67 14.5029 112.73 14.8018C113.797 15.1006 114.629 15.4316 115.227 15.7949C115.83 16.1523 116.275 16.5713 116.562 17.0518C116.855 17.5322 117.002 18.0977 117.002 18.748C117.002 19.7852 116.598 20.6172 115.789 21.2441C114.98 21.8652 113.899 22.1758 112.546 22.1758C111.667 22.1758 110.847 22.0088 110.085 21.6748C109.323 21.335 108.734 20.8721 108.318 20.2861C107.908 19.7002 107.703 19.0352 107.703 18.291H109.399C109.399 19.0645 109.684 19.6768 110.252 20.1279C110.826 20.5732 111.591 20.7959 112.546 20.7959C113.437 20.7959 114.119 20.6143 114.594 20.251C115.068 19.8877 115.306 19.3926 115.306 18.7656C115.306 18.1387 115.086 17.6553 114.646 17.3154C114.207 16.9697 113.41 16.6299 112.256 16.2959ZM122.864 22.1758C121.575 22.1758 120.526 21.7539 119.718 20.9102C118.909 20.0605 118.505 18.9268 118.505 17.5088V17.21C118.505 16.2666 118.684 15.4258 119.041 14.6875C119.404 13.9434 119.908 13.3633 120.553 12.9473C121.203 12.5254 121.906 12.3145 122.662 12.3145C123.898 12.3145 124.859 12.7217 125.545 13.5361C126.23 14.3506 126.573 15.5166 126.573 17.0342V17.7109H120.131C120.154 18.6484 120.427 19.4072 120.948 19.9873C121.476 20.5615 122.144 20.8486 122.952 20.8486C123.526 20.8486 124.013 20.7314 124.411 20.4971C124.81 20.2627 125.158 19.9521 125.457 19.5654L126.45 20.3389C125.653 21.5635 124.458 22.1758 122.864 22.1758ZM122.662 13.6504C122.006 13.6504 121.455 13.8906 121.01 14.3711C120.564 14.8457 120.289 15.5137 120.184 16.375H124.947V16.252C124.9 15.4258 124.678 14.7871 124.279 14.3359C123.881 13.8789 123.342 13.6504 122.662 13.6504ZM134.334 22C134.24 21.8125 134.164 21.4785 134.105 20.998C133.35 21.7832 132.447 22.1758 131.398 22.1758C130.461 22.1758 129.69 21.9121 129.087 21.3848C128.489 20.8516 128.19 20.1777 128.19 19.3633C128.19 18.373 128.565 17.6055 129.315 17.0605C130.071 16.5098 131.132 16.2344 132.497 16.2344H134.079V15.4873C134.079 14.9189 133.909 14.4678 133.569 14.1338C133.229 13.7939 132.729 13.624 132.066 13.624C131.486 13.624 131 13.7705 130.607 14.0635C130.215 14.3564 130.019 14.7109 130.019 15.127H128.384C128.384 14.6523 128.551 14.1953 128.885 13.7559C129.225 13.3105 129.682 12.959 130.256 12.7012C130.836 12.4434 131.472 12.3145 132.163 12.3145C133.259 12.3145 134.117 12.5898 134.738 13.1406C135.359 13.6855 135.682 14.4385 135.705 15.3994V19.7764C135.705 20.6494 135.816 21.3438 136.039 21.8594V22H134.334ZM131.636 20.7607C132.146 20.7607 132.629 20.6289 133.086 20.3652C133.543 20.1016 133.874 19.7588 134.079 19.3369V17.3857H132.805C130.812 17.3857 129.816 17.9688 129.816 19.1348C129.816 19.6445 129.986 20.043 130.326 20.3301C130.666 20.6172 131.103 20.7607 131.636 20.7607ZM142.851 13.9492C142.604 13.9082 142.338 13.8877 142.051 13.8877C140.984 13.8877 140.261 14.3418 139.88 15.25V22H138.254V12.4902H139.836L139.862 13.5889C140.396 12.7393 141.151 12.3145 142.13 12.3145C142.446 12.3145 142.687 12.3555 142.851 12.4375V13.9492ZM147.992 20.8486C148.572 20.8486 149.079 20.6729 149.513 20.3213C149.946 19.9697 150.187 19.5303 150.233 19.0029H151.771C151.742 19.5479 151.555 20.0664 151.209 20.5586C150.863 21.0508 150.4 21.4434 149.82 21.7363C149.246 22.0293 148.637 22.1758 147.992 22.1758C146.697 22.1758 145.666 21.7451 144.898 20.8838C144.137 20.0166 143.756 18.833 143.756 17.333V17.0605C143.756 16.1348 143.926 15.3115 144.266 14.5908C144.605 13.8701 145.092 13.3105 145.725 12.9121C146.363 12.5137 147.116 12.3145 147.983 12.3145C149.05 12.3145 149.935 12.6338 150.638 13.2725C151.347 13.9111 151.725 14.7402 151.771 15.7598H150.233C150.187 15.1445 149.952 14.6406 149.53 14.248C149.114 13.8496 148.599 13.6504 147.983 13.6504C147.157 13.6504 146.516 13.9492 146.059 14.5469C145.607 15.1387 145.382 15.9971 145.382 17.1221V17.4297C145.382 18.5254 145.607 19.3691 146.059 19.9609C146.51 20.5527 147.154 20.8486 147.992 20.8486ZM155.226 13.6416C155.946 12.7568 156.884 12.3145 158.038 12.3145C160.048 12.3145 161.062 13.4482 161.079 15.7158V22H159.453V15.707C159.447 15.0215 159.289 14.5146 158.979 14.1865C158.674 13.8584 158.196 13.6943 157.546 13.6943C157.019 13.6943 156.556 13.835 156.157 14.1162C155.759 14.3975 155.448 14.7666 155.226 15.2236V22H153.6V8.5H155.226V13.6416ZM177.646 17.9395C177.488 19.293 176.987 20.3389 176.144 21.0771C175.306 21.8096 174.189 22.1758 172.795 22.1758C171.283 22.1758 170.07 21.6338 169.156 20.5498C168.248 19.4658 167.794 18.0156 167.794 16.1992V14.9688C167.794 13.7793 168.005 12.7334 168.427 11.8311C168.854 10.9287 169.458 10.2373 170.237 9.75684C171.017 9.27051 171.919 9.02734 172.944 9.02734C174.304 9.02734 175.394 9.4082 176.214 10.1699C177.034 10.9258 177.512 11.9746 177.646 13.3164H175.95C175.804 12.2969 175.484 11.5586 174.992 11.1016C174.506 10.6445 173.823 10.416 172.944 10.416C171.866 10.416 171.02 10.8145 170.404 11.6113C169.795 12.4082 169.49 13.542 169.49 15.0127V16.252C169.49 17.6406 169.78 18.7451 170.36 19.5654C170.94 20.3857 171.752 20.7959 172.795 20.7959C173.732 20.7959 174.45 20.585 174.948 20.1631C175.452 19.7354 175.786 18.9941 175.95 17.9395H177.646ZM179.272 17.1572C179.272 16.2256 179.454 15.3877 179.817 14.6436C180.187 13.8994 180.696 13.3252 181.347 12.9209C182.003 12.5166 182.75 12.3145 183.588 12.3145C184.883 12.3145 185.929 12.7627 186.726 13.6592C187.528 14.5557 187.93 15.748 187.93 17.2363V17.3506C187.93 18.2764 187.751 19.1084 187.394 19.8467C187.042 20.5791 186.535 21.1504 185.873 21.5605C185.217 21.9707 184.461 22.1758 183.605 22.1758C182.316 22.1758 181.271 21.7275 180.468 20.8311C179.671 19.9346 179.272 18.748 179.272 17.2715V17.1572ZM180.907 17.3506C180.907 18.4053 181.15 19.252 181.637 19.8906C182.129 20.5293 182.785 20.8486 183.605 20.8486C184.432 20.8486 185.088 20.5264 185.574 19.8818C186.061 19.2314 186.304 18.3232 186.304 17.1572C186.304 16.1143 186.055 15.2705 185.557 14.626C185.064 13.9756 184.408 13.6504 183.588 13.6504C182.785 13.6504 182.138 13.9697 181.646 14.6084C181.153 15.2471 180.907 16.1611 180.907 17.3506ZM191.507 12.4902L191.56 13.6855C192.286 12.7715 193.235 12.3145 194.407 12.3145C196.417 12.3145 197.431 13.4482 197.448 15.7158V22H195.822V15.707C195.816 15.0215 195.658 14.5146 195.348 14.1865C195.043 13.8584 194.565 13.6943 193.915 13.6943C193.388 13.6943 192.925 13.835 192.526 14.1162C192.128 14.3975 191.817 14.7666 191.595 15.2236V22H189.969V12.4902H191.507ZM205.438 19.4775C205.438 19.0381 205.271 18.6982 204.937 18.458C204.608 18.2119 204.031 18.001 203.205 17.8252C202.385 17.6494 201.731 17.4385 201.245 17.1924C200.765 16.9463 200.407 16.6533 200.173 16.3135C199.944 15.9736 199.83 15.5693 199.83 15.1006C199.83 14.3213 200.158 13.6621 200.814 13.123C201.477 12.584 202.32 12.3145 203.346 12.3145C204.424 12.3145 205.297 12.5928 205.965 13.1494C206.639 13.7061 206.976 14.418 206.976 15.2852H205.341C205.341 14.8398 205.15 14.4561 204.77 14.1338C204.395 13.8115 203.92 13.6504 203.346 13.6504C202.754 13.6504 202.291 13.7793 201.957 14.0371C201.623 14.2949 201.456 14.6318 201.456 15.0479C201.456 15.4404 201.611 15.7363 201.922 15.9355C202.232 16.1348 202.792 16.3252 203.601 16.5068C204.415 16.6885 205.074 16.9053 205.578 17.1572C206.082 17.4092 206.454 17.7139 206.694 18.0713C206.94 18.4229 207.063 18.8535 207.063 19.3633C207.063 20.2129 206.724 20.8955 206.044 21.4111C205.364 21.9209 204.482 22.1758 203.398 22.1758C202.637 22.1758 201.963 22.041 201.377 21.7715C200.791 21.502 200.331 21.127 199.997 20.6465C199.669 20.1602 199.505 19.6357 199.505 19.0732H201.131C201.16 19.6182 201.377 20.0518 201.781 20.374C202.191 20.6904 202.73 20.8486 203.398 20.8486C204.014 20.8486 204.506 20.7256 204.875 20.4795C205.25 20.2275 205.438 19.8936 205.438 19.4775ZM208.751 17.1572C208.751 16.2256 208.933 15.3877 209.296 14.6436C209.665 13.8994 210.175 13.3252 210.825 12.9209C211.481 12.5166 212.229 12.3145 213.066 12.3145C214.361 12.3145 215.407 12.7627 216.204 13.6592C217.007 14.5557 217.408 15.748 217.408 17.2363V17.3506C217.408 18.2764 217.229 19.1084 216.872 19.8467C216.521 20.5791 216.014 21.1504 215.352 21.5605C214.695 21.9707 213.939 22.1758 213.084 22.1758C211.795 22.1758 210.749 21.7275 209.946 20.8311C209.149 19.9346 208.751 18.748 208.751 17.2715V17.1572ZM210.386 17.3506C210.386 18.4053 210.629 19.252 211.115 19.8906C211.607 20.5293 212.264 20.8486 213.084 20.8486C213.91 20.8486 214.566 20.5264 215.053 19.8818C215.539 19.2314 215.782 18.3232 215.782 17.1572C215.782 16.1143 215.533 15.2705 215.035 14.626C214.543 13.9756 213.887 13.6504 213.066 13.6504C212.264 13.6504 211.616 13.9697 211.124 14.6084C210.632 15.2471 210.386 16.1611 210.386 17.3506ZM221.214 22H219.588V8.5H221.214V22ZM227.771 22.1758C226.481 22.1758 225.433 21.7539 224.624 20.9102C223.815 20.0605 223.411 18.9268 223.411 17.5088V17.21C223.411 16.2666 223.59 15.4258 223.947 14.6875C224.311 13.9434 224.814 13.3633 225.459 12.9473C226.109 12.5254 226.812 12.3145 227.568 12.3145C228.805 12.3145 229.766 12.7217 230.451 13.5361C231.137 14.3506 231.479 15.5166 231.479 17.0342V17.7109H225.037C225.061 18.6484 225.333 19.4072 225.854 19.9873C226.382 20.5615 227.05 20.8486 227.858 20.8486C228.433 20.8486 228.919 20.7314 229.317 20.4971C229.716 20.2627 230.064 19.9521 230.363 19.5654L231.356 20.3389C230.56 21.5635 229.364 22.1758 227.771 22.1758ZM227.568 13.6504C226.912 13.6504 226.361 13.8906 225.916 14.3711C225.471 14.8457 225.195 15.5137 225.09 16.375H229.854V16.252C229.807 15.4258 229.584 14.7871 229.186 14.3359C228.787 13.8789 228.248 13.6504 227.568 13.6504Z" fill="black"/>
</svg>
