<svg width="137" height="45" viewBox="0 0 137 45" fill="none" xmlns="http://www.w3.org/2000/svg">
<path d="M58.3006 23.0774C58.3006 29.3236 53.2688 33.9263 47.0938 33.9263C40.9187 33.9263 35.887 29.3236 35.887 23.0774C35.887 16.7872 40.9187 12.2285 47.0938 12.2285C53.2688 12.2285 58.3006 16.7872 58.3006 23.0774ZM53.3948 23.0774C53.3948 19.1742 50.4785 16.5035 47.0938 16.5035C43.7091 16.5035 40.7928 19.1742 40.7928 23.0774C40.7928 26.9416 43.7091 29.6513 47.0938 29.6513C50.4785 29.6513 53.3948 26.9367 53.3948 23.0774Z" fill="#EA4335"/>
<path d="M82.4771 23.0774C82.4771 29.3236 77.4453 33.9263 71.2703 33.9263C65.0952 33.9263 60.0635 29.3236 60.0635 23.0774C60.0635 16.7921 65.0952 12.2285 71.2703 12.2285C77.4453 12.2285 82.4771 16.7872 82.4771 23.0774ZM77.5713 23.0774C77.5713 19.1742 74.655 16.5035 71.2703 16.5035C67.8856 16.5035 64.9693 19.1742 64.9693 23.0774C64.9693 26.9416 67.8856 29.6513 71.2703 29.6513C74.655 29.6513 77.5713 26.9367 77.5713 23.0774Z" fill="#FBBC05"/>
<path d="M105.646 12.884V32.3611C105.646 40.3731 100.781 43.6454 95.0286 43.6454C89.614 43.6454 86.3553 40.1285 85.1263 37.2524L89.3975 35.5258C90.158 37.2916 92.0216 39.3753 95.0235 39.3753C98.7054 39.3753 100.987 37.1693 100.987 33.0166V31.4562H100.816C99.7178 32.772 97.6024 33.9214 94.9329 33.9214C89.3471 33.9214 84.2297 29.1964 84.2297 23.1166C84.2297 16.9926 89.3471 12.2285 94.9329 12.2285C97.5973 12.2285 99.7128 13.378 100.816 14.6546H100.987V12.8888H105.646V12.884ZM101.335 23.1166C101.335 19.2964 98.7105 16.5035 95.3711 16.5035C91.9864 16.5035 89.1507 19.2964 89.1507 23.1166C89.1507 26.8975 91.9864 29.6513 95.3711 29.6513C98.7105 29.6513 101.335 26.8975 101.335 23.1166Z" fill="#2C6DD8"/>
<path d="M113.327 1.46777V33.2613H108.542V1.46777H113.327Z" fill="#34A853"/>
<path d="M131.973 26.6481L135.781 29.1133C134.552 30.8791 131.59 33.9215 126.473 33.9215C120.127 33.9215 115.387 29.1573 115.387 23.0725C115.387 16.6209 120.167 12.2236 125.924 12.2236C131.721 12.2236 134.557 16.7041 135.484 19.1253L135.993 20.3579L121.059 26.3644C122.202 28.541 123.98 29.6513 126.473 29.6513C128.971 29.6513 130.704 28.4579 131.973 26.6481ZM120.253 22.7448L130.236 18.7193C129.687 17.3644 128.035 16.4204 126.09 16.4204C123.597 16.4204 120.127 18.5579 120.253 22.7448Z" fill="#EA4335"/>
<path d="M17.7721 20.2516V15.6488H33.7437C33.8998 16.451 33.9804 17.3999 33.9804 18.4271C33.9804 21.8804 33.0083 26.1505 29.8755 29.1929C26.8282 32.2744 22.9348 33.9179 17.7772 33.9179C8.21739 33.9179 0.178711 26.3559 0.178711 17.0722C0.178711 7.78852 8.21739 0.226562 17.7772 0.226562C23.0658 0.226562 26.8333 2.24178 29.6639 4.86841L26.3195 8.11624C24.2897 6.26732 21.5396 4.82928 17.7721 4.82928C10.7912 4.82928 5.33132 10.2929 5.33132 17.0722C5.33132 23.8516 10.7912 29.3151 17.7721 29.3151C22.3002 29.3151 24.879 27.5494 26.5311 25.945C27.8708 24.6439 28.7523 22.7853 29.0998 20.2467L17.7721 20.2516Z" fill="#2C6DD8"/>
</svg>
