<svg width="450" height="381" viewBox="0 0 450 381" fill="none" xmlns="http://www.w3.org/2000/svg">
<path d="M19.5749 74.2283L18.6616 74.9687L21.3478 78.2823L20.0096 79.3671L13.7418 71.6354L15.08 70.5506L17.7145 73.8004L18.4527 73.2021L18.0909 68.1098L19.7371 66.7753L20.0824 72.6289L26.2385 74.3176L24.6242 75.6262L19.5749 74.2283ZM30.0122 65.1864C30.6264 65.944 31.0349 66.7157 31.2379 67.5016C31.4379 68.2839 31.4185 69.0271 31.1797 69.7312C30.9415 70.4288 30.5055 71.0344 29.8719 71.5482C29.2452 72.0561 28.5625 72.3573 27.8236 72.4518C27.0854 72.5398 26.3522 72.4097 25.6239 72.0614C24.8992 71.7102 24.2352 71.1661 23.6319 70.4291L23.2789 69.9936C22.6676 69.2396 22.2608 68.4664 22.0585 67.6741C21.8598 66.879 21.8795 66.1326 22.1177 65.435C22.3566 64.7309 22.7911 64.1235 23.4212 63.6126C24.0514 63.1018 24.7324 62.802 25.4642 62.7133C26.1967 62.6182 26.9267 62.748 27.6542 63.1027C28.3789 63.4539 29.0487 64.0051 29.6635 64.7563L30.0122 65.1864ZM28.3415 65.8719C27.647 65.0152 26.9518 64.4905 26.2559 64.2979C25.5636 64.1023 24.92 64.2457 24.3252 64.7278C23.7447 65.1985 23.4749 65.7956 23.5158 66.5192C23.5575 67.2363 23.912 68.0137 24.5793 68.8514L24.9409 69.2975C25.6297 70.1471 26.3267 70.6704 27.0319 70.8672C27.7406 71.0612 28.3888 70.92 28.9765 70.4436C29.5712 69.9615 29.8442 69.3647 29.7955 68.6533C29.7503 67.939 29.3747 67.1464 28.6687 66.2755L28.3415 65.8719ZM40.4593 62.7893L39.1212 63.8741L36.3359 60.4384L32.879 63.2408L35.6642 66.6765L34.3207 67.7656L28.0529 60.0339L29.3964 58.9448L32.0051 62.1628L35.4621 59.3604L32.8534 56.1424L34.1915 55.0576L40.4593 62.7893ZM42.0899 50.4499L39.679 52.4043L45.0686 59.0527L43.7358 60.1332L38.3461 53.4848L35.9565 55.422L35.0783 54.3387L41.2117 49.3666L42.0899 50.4499ZM50.2199 49.1567L47.0444 51.731L48.973 54.11L52.6848 51.1009L53.5544 52.1736L48.499 56.2718L42.2312 48.5401L47.2494 44.472L48.1276 45.5553L44.4529 48.5343L46.1834 50.669L49.359 48.0947L50.2199 49.1567ZM60.7869 46.3105L59.4488 47.3953L56.6635 43.9596L53.2066 46.762L55.9918 50.1977L54.6483 51.2868L48.3805 43.5551L49.724 42.466L52.3327 45.684L55.7897 42.8816L53.181 39.6636L54.5191 38.5788L60.7869 46.3105ZM62.4175 33.9711L60.0066 35.9255L65.3962 42.5739L64.0634 43.6544L58.6737 37.006L56.2841 38.9431L55.4059 37.8599L61.5393 32.8878L62.4175 33.9711ZM25.5221 82.6825L32.5566 86.8008L29.9774 79.0708L31.7138 77.6631L37.9816 85.3948L36.6435 86.4797L34.5772 83.9307L31.9462 80.414L34.4928 88.2231L33.5317 89.0023L26.4279 84.8963L29.32 88.1925L31.3863 90.7414L30.0482 91.8262L23.7803 84.0945L25.5221 82.6825ZM42.5388 78.7173L39.5438 81.1452L40.3766 83.4534L38.98 84.5855L35.6328 74.4862L36.8382 73.509L46.032 78.8688L44.6301 80.0052L42.5388 78.7173ZM39.0427 79.7563L41.2836 77.9397L37.563 75.6406L39.0427 79.7563ZM45.9281 74.1922L48.257 77.065L46.9135 78.1542L40.6457 70.4224L43.6035 68.0247C44.4673 67.3244 45.3345 66.9939 46.2052 67.0331C47.0795 67.0694 47.8165 67.4576 48.4163 68.1975C49.0305 68.955 49.2587 69.7468 49.1011 70.5727C48.947 71.3958 48.4221 72.1704 47.5264 72.8965L45.9281 74.1922ZM45.0542 73.1142L46.6685 71.8056C47.1464 71.4181 47.4207 71.011 47.4912 70.5842C47.5589 70.1539 47.4205 69.7263 47.0761 69.3015C46.7375 68.8838 46.3403 68.6543 45.8845 68.6131C45.4259 68.5684 44.9706 68.7233 44.5188 69.0778L42.8673 70.4166L45.0542 73.1142ZM53.4724 67.3459L52.559 68.0863L55.2452 71.3999L53.9071 72.4847L47.6393 64.753L48.9774 63.6682L51.612 66.9181L52.3501 66.3197L51.9883 61.2274L53.6345 59.8929L53.9798 65.7465L60.136 67.4352L58.5217 68.7438L53.4724 67.3459ZM62.6003 59.7175L59.4248 62.2917L61.3533 64.6707L65.0652 61.6617L65.9348 62.7343L60.8794 66.8325L54.6116 59.1008L59.6298 55.0328L60.508 56.116L56.8333 59.095L58.5638 61.2297L61.7393 58.6554L62.6003 59.7175ZM67.3316 50.5844L64.9208 52.5387L70.3104 59.1872L68.9775 60.2677L63.5879 53.6192L61.1983 55.5564L60.3201 54.4731L66.4534 49.5011L67.3316 50.5844ZM72.2097 44.8347L73.5532 43.7455L79.821 51.4772L78.4775 52.5664L74.0135 47.0596L75.0843 55.3171L73.7408 56.4063L67.473 48.6745L68.8165 47.5854L73.2849 53.0975L72.2097 44.8347ZM87.5687 45.1965L86.2305 46.2813L83.4453 42.8456L79.9883 45.648L82.7735 49.0838L81.43 50.1729L75.1622 42.4412L76.5057 41.3521L79.1144 44.5701L82.5714 41.7676L79.9627 38.5496L81.3009 37.4648L87.5687 45.1965ZM88.716 33.2489L85.1475 36.1417L90.5371 42.7901L89.1989 43.875L82.9311 36.1432L87.8378 32.1656L88.716 33.2489Z" fill="white"/>
<path d="M136.652 9.48423L135.476 9.49103L135.5 13.7566L133.778 13.7666L133.72 3.81359L135.443 3.80363L135.467 7.98715L136.417 7.98166L139.319 3.78121L141.438 3.76895L138.048 8.55329L141.796 13.7202L139.718 13.7322L136.652 9.48423ZM150.45 8.95324C150.456 9.92849 150.292 10.7862 149.96 11.5264C149.627 12.2621 149.147 12.83 148.52 13.2301C147.898 13.6256 147.179 13.8258 146.363 13.8305C145.557 13.8351 144.836 13.6433 144.2 13.2551C143.569 12.8623 143.078 12.3023 142.727 11.5751C142.381 10.8479 142.203 10.0081 142.193 9.05569L142.19 8.49515C142.184 7.52447 142.35 6.66672 142.688 5.92192C143.03 5.17709 143.512 4.60691 144.134 4.21138C144.76 3.81126 145.479 3.60886 146.291 3.60417C147.102 3.59947 147.821 3.79128 148.447 4.17959C149.078 4.56332 149.567 5.12105 149.913 5.85278C150.259 6.57996 150.437 7.42888 150.447 8.39954L150.45 8.95324ZM148.718 8.44372C148.712 7.34088 148.497 6.49673 148.074 5.91127C147.656 5.32579 147.064 5.03526 146.299 5.03969C145.551 5.04401 144.968 5.34134 144.547 5.93167C144.131 6.51742 143.922 7.34579 143.919 8.41679L143.922 8.991C143.929 10.0847 144.145 10.9289 144.573 11.5234C145.005 12.1179 145.599 12.413 146.355 12.4086C147.121 12.4042 147.707 12.1091 148.114 11.5234C148.525 10.9377 148.728 10.0843 148.721 8.96325L148.718 8.44372ZM160.103 13.6143L158.38 13.6243L158.354 9.20148L153.904 9.22722L153.93 13.65L152.2 13.66L152.143 3.70704L153.872 3.69704L153.896 7.83954L158.346 7.81381L158.322 3.6713L160.045 3.66133L160.103 13.6143ZM169.09 5.00357L165.987 5.02152L166.036 13.58L164.32 13.5899L164.271 5.03145L161.195 5.04924L161.187 3.65473L169.082 3.60907L169.09 5.00357ZM176.244 9.0775L172.156 9.10114L172.174 12.1636L176.952 12.136L176.96 13.5168L170.452 13.5544L170.394 3.60147L176.854 3.56411L176.862 4.95862L172.132 4.98598L172.148 7.73398L176.236 7.71034L176.244 9.0775ZM181.289 9.22605L180.114 9.23285L180.138 13.4984L178.416 13.5084L178.358 3.55541L180.081 3.54545L180.105 7.72897L181.055 7.72348L183.957 3.52303L186.076 3.51078L182.686 8.29511L186.434 13.462L184.356 13.474L181.289 9.22605ZM194.748 10.1736C194.654 11.236 194.267 12.0677 193.587 12.6687C192.907 13.265 191.999 13.5665 190.865 13.5731C190.072 13.5777 189.371 13.3949 188.763 13.0247C188.159 12.6499 187.691 12.1171 187.359 11.4263C187.027 10.7355 186.851 9.93218 186.832 9.01626L186.827 8.08659C186.822 7.1478 186.983 6.3197 187.312 5.6023C187.64 4.88489 188.113 4.33071 188.731 3.93976C189.353 3.54879 190.072 3.35094 190.887 3.34622C191.986 3.33987 192.872 3.63326 193.545 4.22638C194.218 4.8195 194.613 5.66033 194.729 6.74887L193.006 6.75883C192.92 6.04383 192.707 5.53007 192.368 5.21758C192.034 4.90049 191.543 4.74383 190.896 4.74757C190.144 4.75192 189.566 5.03098 189.164 5.58475C188.766 6.13393 188.566 6.93947 188.563 8.00135L188.568 8.88317C188.574 9.95867 188.77 10.7779 189.156 11.3407C189.547 11.9036 190.114 12.1829 190.857 12.1786C191.536 12.1747 192.045 12.019 192.385 11.7117C192.725 11.4044 192.939 10.895 193.026 10.1836L194.748 10.1736ZM203.256 4.80597L200.152 4.82392L200.202 13.3824L198.486 13.3923L198.436 4.83384L195.36 4.85163L195.352 3.45712L203.247 3.41146L203.256 4.80597ZM212.52 13.3111L210.797 13.3211L210.771 8.89831L206.321 8.92404L206.347 13.3468L204.617 13.3568L204.56 3.40387L206.289 3.39386L206.313 7.53637L210.763 7.51063L210.74 3.36812L212.462 3.35816L212.52 13.3111ZM220.251 10.949L216.396 10.9713L215.603 13.2933L213.805 13.3037L217.507 3.32898L219.059 3.32001L222.883 13.2512L221.078 13.2616L220.251 10.949ZM216.873 9.57396L219.758 9.55728L218.292 5.43678L216.873 9.57396ZM228.926 13.2162L228.904 9.49754L226.976 9.50869L225.077 13.2385L223.225 13.2492L225.422 9.00498C224.261 8.46481 223.677 7.57266 223.67 6.32854C223.664 5.37609 223.972 4.63373 224.594 4.10148C225.219 3.56465 226.093 3.28844 227.214 3.27284L230.598 3.25327L230.655 13.2062L228.926 13.2162ZM225.393 6.39377C225.396 6.95431 225.556 7.3909 225.872 7.70352C226.189 8.01615 226.661 8.17065 227.29 8.16701L228.896 8.15772L228.876 4.65778L227.27 4.66707C226.632 4.67076 226.159 4.82617 225.851 5.13329C225.542 5.44042 225.39 5.86058 225.393 6.39377ZM151.54 25.9658L151.562 29.664L149.832 29.674L149.774 19.721L153.582 19.699C154.694 19.6926 155.577 19.9768 156.233 20.5518C156.892 21.1268 157.225 21.8905 157.23 22.843C157.236 23.8182 156.919 24.5789 156.279 25.1249C155.645 25.6709 154.751 25.9472 153.598 25.9539L151.54 25.9658ZM151.532 24.5781L153.61 24.5661C154.225 24.5625 154.694 24.4163 155.016 24.1273C155.338 23.8338 155.497 23.4136 155.494 22.8667C155.491 22.3289 155.324 21.9015 154.994 21.5844C154.664 21.2627 154.212 21.099 153.638 21.0932L151.512 21.1055L151.532 24.5781ZM164.579 25.1452L160.491 25.1689L160.508 28.2313L165.287 28.2037L165.295 29.5845L158.787 29.6222L158.729 19.6692L165.189 19.6318L165.197 21.0264L160.467 21.0537L160.483 23.8017L164.571 23.7781L164.579 25.1452ZM169.624 25.2938L168.449 25.3006L168.473 29.5661L166.751 29.5761L166.693 19.6231L168.416 19.6132L168.44 23.7967L169.39 23.7912L172.292 19.5908L174.411 19.5785L171.02 24.3628L174.769 29.5297L172.691 29.5417L169.624 25.2938ZM183.496 19.526L183.553 29.4789L181.831 29.4889L181.781 20.9304L178.732 20.9481L178.577 24.7977C178.515 26.0012 178.373 26.9363 178.149 27.6029C177.929 28.265 177.606 28.75 177.18 29.0578C176.753 29.3656 176.18 29.5216 175.46 29.5257L175.022 29.5283L175.014 28.1474L175.287 28.1253C175.684 28.0866 175.988 27.9458 176.201 27.7031C176.418 27.4603 176.58 27.0947 176.687 26.6065C176.798 26.1136 176.873 25.3909 176.914 24.4381L177.077 19.5631L183.496 19.526ZM191.319 27.1166L187.464 27.1389L186.67 29.4609L184.872 29.4713L188.575 19.4966L190.126 19.4876L193.95 29.4188L192.146 29.4292L191.319 27.1166ZM187.941 25.7416L190.826 25.7249L189.359 21.6044L187.941 25.7416ZM197.27 19.4463L200.185 27.0585L203.005 19.4131L205.24 19.4002L205.298 29.3532L203.575 29.3631L203.556 26.0819L203.702 21.6923L200.807 29.3791L199.569 29.3863L196.593 21.7403L196.789 26.1211L196.808 29.4023L195.085 29.4122L195.028 19.4593L197.27 19.4463ZM213.029 26.991L209.174 27.0133L208.381 29.3353L206.583 29.3457L210.285 19.371L211.837 19.362L215.661 29.2932L213.856 29.3037L213.029 26.991ZM209.651 25.616L212.536 25.5993L211.07 21.4788L209.651 25.616Z" fill="white"/>
<path opacity="0.7" d="M70.3563 123.979C70.6208 124.058 70.8996 123.908 70.9789 123.644L72.272 119.333C72.3513 119.069 72.2012 118.79 71.9367 118.711C71.6722 118.632 71.3935 118.782 71.3142 119.046L70.1648 122.877L66.3335 121.728C66.069 121.649 65.7902 121.799 65.7109 122.063C65.6315 122.328 65.7816 122.606 66.0461 122.686L70.3563 123.979ZM64.1216 77.3268C64.5594 77.8338 64.9448 78.3508 65.2831 78.8776L66.1246 78.3373C65.7603 77.77 65.3465 77.2152 64.8784 76.6732L64.1216 77.3268ZM66.8596 82.3832C67.2098 83.6079 67.3983 84.8869 67.4712 86.2227L68.4697 86.1682C68.3936 84.7739 68.1958 83.4188 67.821 82.1082L66.8596 82.3832ZM67.4072 90.1631C67.3148 91.4432 67.1668 92.7628 66.9975 94.1248L67.9899 94.2482C68.1599 92.8802 68.3104 91.5407 68.4046 90.2351L67.4072 90.1631ZM66.4906 98.0986C66.3299 99.4021 66.1796 100.738 66.067 102.104L67.0636 102.186C67.1747 100.839 67.3232 99.5178 67.4831 98.221L66.4906 98.0986ZM65.8704 106.143C65.8567 107.468 65.8984 108.818 66.0174 110.193L67.0137 110.107C66.8978 108.768 66.857 107.451 66.8704 106.154L65.8704 106.143ZM66.5927 114.214C66.8544 115.506 67.1975 116.817 67.6384 118.146L68.5875 117.831C68.1597 116.542 67.8268 115.27 67.5728 114.015L66.5927 114.214ZM69.146 121.922C69.4281 122.524 69.7322 123.129 70.0598 123.737L70.9402 123.263C70.6215 122.671 70.3257 122.082 70.0515 121.497L69.146 121.922Z" fill="white"/>
<path opacity="0.7" d="M181.581 111.274C181.733 111.505 182.042 111.57 182.274 111.419L186.04 108.957C186.272 108.806 186.336 108.496 186.185 108.265C186.034 108.033 185.724 107.969 185.493 108.12L182.145 110.308L179.957 106.96C179.806 106.728 179.496 106.664 179.265 106.815C179.033 106.966 178.969 107.276 179.12 107.507L181.581 111.274ZM172.5 35.5048C172.507 36.2694 172.68 36.9915 172.976 37.6821L173.895 37.2875C173.644 36.7026 173.506 36.1111 173.5 35.4952L172.5 35.5048ZM175.478 41.1135C176.374 42.0305 177.415 42.9598 178.486 43.9304L179.158 43.1895C178.076 42.2086 177.063 41.3043 176.193 40.4144L175.478 41.1135ZM181.428 46.7255C182.345 47.6672 183.232 48.6752 184.034 49.778L184.842 49.1898C184.005 48.0384 183.085 46.9937 182.144 46.0278L181.428 46.7255ZM186.048 53.2101C186.57 54.3654 186.986 55.6171 187.258 56.9851L188.239 56.7901C187.952 55.3439 187.511 54.0196 186.959 52.7982L186.048 53.2101ZM187.614 60.9453C187.607 61.5906 187.571 62.2587 187.502 62.9508L188.498 63.0492C188.569 62.3288 188.607 61.6315 188.614 60.9559L187.614 60.9453ZM185.006 88.9209C184.92 89.4574 184.825 90.0748 184.721 90.7551L185.709 90.9059C185.813 90.2268 185.908 89.6122 185.994 89.0791L185.006 88.9209ZM184.169 94.4323C183.995 95.6025 183.811 96.8421 183.622 98.1043L184.611 98.2525C184.8 96.9896 184.985 95.7493 185.159 94.5794L184.169 94.4323ZM183.065 101.775C182.871 103.035 182.677 104.272 182.487 105.438L183.474 105.599C183.664 104.429 183.859 103.189 184.054 101.927L183.065 101.775ZM181.862 109.091C181.738 109.764 181.621 110.371 181.511 110.898L182.489 111.103C182.602 110.565 182.721 109.949 182.845 109.271L181.862 109.091Z" fill="white"/>
<path opacity="0.7" d="M299.614 133.987C299.345 134.05 299.076 133.883 299.013 133.614L297.988 129.232C297.925 128.963 298.092 128.694 298.361 128.632C298.629 128.569 298.898 128.736 298.961 129.004L299.873 132.899L303.768 131.988C304.037 131.925 304.306 132.092 304.368 132.361C304.431 132.629 304.264 132.898 303.996 132.961L299.614 133.987ZM308.952 76.2145C308.64 76.8704 308.359 77.5131 308.107 78.144L307.179 77.7725C307.439 77.1217 307.728 76.4598 308.048 75.7855L308.952 76.2145ZM306.828 82.1428C306.489 83.565 306.285 84.935 306.184 86.2701L305.187 86.1943C305.292 84.8092 305.503 83.3868 305.856 81.9107L306.828 82.1428ZM306.169 90.4682C306.256 91.877 306.424 93.2683 306.629 94.6673L305.64 94.8123C305.432 93.3975 305.261 91.9765 305.171 90.53L306.169 90.4682ZM307.305 98.8725C307.531 100.255 307.75 101.665 307.921 103.119L306.928 103.236C306.76 101.804 306.543 100.412 306.318 99.0338L307.305 98.8725ZM308.244 107.417C308.281 108.803 308.249 110.239 308.119 111.738L307.123 111.651C307.25 110.193 307.281 108.796 307.244 107.444L308.244 107.417ZM307.496 116.011C307.221 117.35 306.862 118.739 306.404 120.187L305.45 119.884C305.899 118.47 306.249 117.114 306.516 115.81L307.496 116.011ZM304.913 124.235C304.386 125.494 303.786 126.796 303.102 128.143L302.21 127.691C302.883 126.364 303.474 125.085 303.99 123.849L304.913 124.235ZM301.045 131.906C300.688 132.516 300.315 133.135 299.925 133.764L299.075 133.236C299.461 132.615 299.83 132.003 300.182 131.401L301.045 131.906Z" fill="white"/>
<path d="M296.046 47.7554C295.428 48.6249 294.674 49.1472 293.784 49.3225C292.895 49.4937 291.96 49.2957 290.977 48.7283C290.29 48.3318 289.778 47.8202 289.44 47.1935C289.108 46.5652 288.973 45.869 289.035 45.105C289.098 44.3411 289.352 43.559 289.798 42.7589L290.263 41.9538C290.732 41.1407 291.29 40.5076 291.936 40.0543C292.582 39.601 293.27 39.3616 294 39.336C294.735 39.3127 295.455 39.505 296.161 39.9128C297.113 40.462 297.729 41.1626 298.011 42.0146C298.292 42.8665 298.208 43.7915 297.758 44.7895L296.266 43.9281C296.553 43.2675 296.629 42.7167 296.494 42.2757C296.366 41.8331 296.021 41.45 295.461 41.1265C294.81 40.7505 294.17 40.6999 293.543 40.9746C292.923 41.2477 292.343 41.8418 291.804 42.7568L291.363 43.5205C290.825 44.4519 290.581 45.258 290.63 45.9388C290.683 46.6219 291.031 47.1492 291.674 47.5206C292.262 47.8601 292.781 47.9831 293.229 47.8896C293.678 47.796 294.12 47.4642 294.554 46.8941L296.046 47.7554ZM305.007 51.2242C304.52 52.0688 303.945 52.7265 303.284 53.1973C302.625 53.6641 301.924 53.9119 301.181 53.9408C300.445 53.9681 299.723 53.7778 299.017 53.3699C298.318 52.9666 297.792 52.4368 297.44 51.7807C297.093 51.1229 296.952 50.3916 297.017 49.587C297.086 48.7846 297.356 47.9698 297.828 47.1427L298.109 46.6573C298.594 45.8166 299.17 45.1601 299.838 44.6876C300.509 44.2175 301.213 43.9688 301.95 43.9416C302.693 43.9127 303.415 44.101 304.118 44.5066C304.821 44.9122 305.344 45.4408 305.689 46.0924C306.04 46.7423 306.18 47.4704 306.109 48.2768C306.04 49.0791 305.765 49.9018 305.284 50.7447L305.007 51.2242ZM303.769 49.9096C304.321 48.9545 304.562 48.1175 304.493 47.3988C304.427 46.6823 304.063 46.1326 303.4 45.7498C302.753 45.3761 302.099 45.3379 301.438 45.6351C300.783 45.9306 300.184 46.5399 299.641 47.4628L299.354 47.9601C298.807 48.9073 298.567 49.7454 298.636 50.4743C298.709 51.2055 299.072 51.7603 299.728 52.1385C300.391 52.5213 301.046 52.5627 301.692 52.2626C302.343 51.9648 302.949 51.3304 303.509 50.3595L303.769 49.9096ZM309.105 47.5439L310.603 48.4087L306.317 55.8325L310.112 58.0234L314.398 50.5996L315.896 51.4644L311.616 58.8763L312.658 59.4779L310.643 62.6952L309.27 61.9022L310.469 59.8242L304.129 56.1636L309.105 47.5439ZM314.831 60.3219C315.1 60.4768 315.262 60.6734 315.32 60.9117C315.379 61.1459 315.343 61.3775 315.21 61.6065C315.081 61.8314 314.899 61.9767 314.667 62.0424C314.436 62.1041 314.187 62.0575 313.919 61.9026C313.662 61.7544 313.501 61.5641 313.435 61.3315C313.37 61.0988 313.403 60.8681 313.535 60.6392C313.667 60.4103 313.85 60.263 314.082 60.1973C314.317 60.1277 314.567 60.1692 314.831 60.3219ZM324.782 64.3462C324.164 65.2157 323.41 65.738 322.52 65.9133C321.631 66.0845 320.696 65.8865 319.713 65.3191C319.026 64.9226 318.514 64.411 318.176 63.7844C317.844 63.156 317.709 62.4598 317.772 61.6959C317.834 60.9319 318.088 60.1498 318.534 59.3497L318.999 58.5446C319.468 57.7316 320.026 57.0984 320.672 56.6451C321.318 56.1918 322.006 55.9524 322.736 55.9268C323.471 55.9035 324.191 56.0958 324.898 56.5037C325.849 57.0528 326.465 57.7534 326.747 58.6054C327.028 59.4574 326.944 60.3823 326.494 61.3803L325.003 60.519C325.289 59.8583 325.365 59.3075 325.23 58.8666C325.102 58.4239 324.757 58.0409 324.197 57.7173C323.546 57.3413 322.907 57.2907 322.28 57.5655C321.659 57.8385 321.079 58.4326 320.54 59.3476L320.099 60.1113C319.562 61.0428 319.317 61.8489 319.366 62.5297C319.419 63.2127 319.767 63.74 320.41 64.1114C320.999 64.4509 321.517 64.5739 321.966 64.4804C322.414 64.3869 322.856 64.055 323.29 63.4849L324.782 64.3462ZM331.765 66.9889L328.225 64.9449L326.694 67.5971L330.832 69.9863L330.142 71.1822L324.506 67.9283L329.482 59.3086L335.077 62.5386L334.38 63.7463L330.283 61.381L328.909 63.7609L332.449 65.8049L331.765 66.9889ZM341.987 68.1384L339.299 66.5866L335.02 73.9986L333.534 73.1407L337.813 65.7287L335.149 64.1906L335.846 62.9829L342.684 66.9307L341.987 68.1384ZM349.102 70.6357L350.599 71.5005L345.623 80.1201L344.125 79.2554L347.669 73.1163L340.342 77.0713L338.844 76.2066L343.821 67.5869L345.319 68.4517L341.771 74.5967L349.102 70.6357Z" fill="white"/>
<path d="M114.46 291.653C141.705 301.684 210.383 320.095 267.138 313.49M267.138 313.49L267.645 313.24M267.138 313.49C268.487 314.023 290.606 322.279 321.897 318.817C346.929 316.047 371.171 313.579 380.162 312.691C380.342 312.425 381.079 311.893 382.59 311.893C384.032 311.893 397.271 312.048 404.17 309.512M273.072 310.561L267.645 313.24M267.645 313.24C247.515 316.786 200.726 323.078 174.614 319.882C148.503 316.686 105.649 312.336 87.4857 310.561M87.4857 310.561C87.4857 308.857 83.7092 307.188 81.821 306.566M87.4857 310.561C87.3059 311.094 87.4318 312.425 89.374 313.49C91.3161 314.556 91.9815 318.018 92.0714 319.616C94.679 321.569 100.056 326.487 100.703 330.534C101.513 335.594 98.5454 344.383 106.098 349.176C112.141 353.011 112.213 357.876 111.493 359.829L120.125 370.215C121.474 371.813 123.578 375.701 121.204 378.471C118.83 381.24 113.202 379.625 110.684 378.471C105.019 376.962 91.9096 372.718 84.7882 367.818C77.6669 362.918 71.0311 358.142 68.6034 356.367C66.1756 352.994 60.403 346.247 56.7345 346.247C52.1487 346.247 52.6882 345.981 51.879 345.714C51.2307 345.501 49.8898 343.749 51.879 340.459M106.638 286.859C108.166 287.924 111.439 291.227 112.303 295.914M78.584 298.044C79.0336 299.553 80.3104 302.785 81.821 303.637V306.566M81.821 306.566L78.584 304.702M54.037 337.725C53.0715 338.731 52.3727 339.642 51.879 340.459M51.879 340.459C50.5302 339.459 47.4011 336.766 45.6748 333.997C43.9484 331.227 36.5033 317.574 32.9966 311.094C31.468 308.342 30.6768 301.453 39.7403 295.914C41.4987 294.839 43.5158 293.8 45.6748 292.813M80.7421 278.071C79.8789 282.119 74.2681 283.841 71.5706 284.196C66.0628 285.484 54.6438 288.709 45.6748 292.813M45.6748 292.813C40.9092 294.113 29.9755 296.127 24.3647 293.783C18.754 291.44 14.2942 290.854 12.7656 290.854C11.0572 290.232 7.58643 288.67 7.37063 287.392M7.37063 287.392C10.2479 286.859 13.9528 288.356 16.2722 287.392C21.3974 285.261 21.1277 282.332 25.7134 282.332M7.37063 287.392C5.48239 287.569 1.59802 286.806 1.16643 282.332C0.626932 276.739 0.357184 267.152 17.8908 257.831C31.9177 250.374 47.8328 254.191 54.0369 257.032C57.5437 258.364 66.4453 260.547 73.9983 258.63M73.9983 258.63C73.7285 258.693 73.0811 259.207 72.6495 260.76C72.2179 262.314 81.821 270.64 86.6764 274.609M73.9983 258.63C79.9327 255.612 92.5569 248.776 95.5781 245.581C98.5993 242.385 107.087 236.792 110.954 234.396M14.384 269.549C14.1903 267.063 12.8402 262.784 8.98904 265.554M6.02182 268.484C5.12266 270.614 4.02568 275.461 6.83106 277.805C9.63644 280.148 11.9563 277.893 12.7656 276.473M408.216 306.3C408.519 305.201 408.483 304.355 408.216 303.708M408.216 306.3C407.301 307.188 403.161 308.963 393.919 308.963C382.368 308.963 336.463 312.691 335.923 312.691M408.216 306.3C407.833 307.685 406.305 308.728 404.17 309.512M308.679 257.831C316.592 262.27 333.388 271.093 337.272 270.88C341.157 270.667 344.106 272.212 345.095 273.011C347.131 274.276 349.622 276.94 346.174 278.898M308.679 257.831C305.712 259.695 290.336 259.163 288.718 257.831M308.679 257.831C309.488 256.677 310.621 253.996 308.679 252.505C306.251 250.641 307.33 230.135 308.679 228.27C309.758 226.779 309.354 221.968 309.017 219.748M288.718 248.51C289.797 245.314 290.246 230.135 290.336 222.944C288.987 222.234 286.29 219.802 286.29 215.754C286.29 211.706 284.312 207.675 283.323 206.166C282.684 207.969 281 209.009 279.007 209.569M288.718 248.51C288.178 251.173 287.423 256.766 288.718 257.831M288.718 248.51L268.217 240.833M265.25 239.722L268.217 240.833M265.25 239.722C266.239 236.082 268.217 228.43 268.217 226.939C268.217 225.447 270.061 214.955 270.983 209.895M265.25 239.722C264.62 243.373 263.605 250.915 263.94 255.168M249.065 235.461C247.149 235.079 244.845 234.626 242.321 234.137M249.065 235.461C251.194 222.846 249.238 211.384 247.189 202.971M249.065 235.461C249.065 238.124 248.471 244.888 246.097 250.641M209.951 228.537C209.951 229.424 209.681 231.999 208.602 235.194C207.524 238.39 207.793 250.374 208.063 255.967C209.052 258.452 208.387 263.37 197.813 263.157C187.238 262.944 188.192 255.612 189.99 251.972C190.35 246.823 191.393 235.461 192.687 231.2C193.125 229.76 193.287 228.027 193.3 226.14M209.951 228.537C210.401 222.767 211.947 210.001 214.537 205.101C217.127 200.201 220.831 179.848 222.36 170.284M209.951 228.537C210.828 228.603 212.124 228.766 213.728 229.001M84.5185 114.555C87.7549 113.894 92.5611 113.224 97.4664 113.102M94.7689 153.17C94.9487 155.389 96.1176 161.106 99.3546 166.219C102.592 171.333 105.379 169.06 106.368 167.285C108.526 164.089 114.245 155.301 119.855 145.713C126.869 133.729 121.474 125.207 114.73 117.484C114.202 116.879 113.562 116.349 112.83 115.886M86.1369 120.946C89.8055 124.568 92.3411 136.659 93.1504 142.251C93.4201 138.434 93.4741 130.054 91.5319 127.071M119.046 127.071L120.665 133.463M82.3605 134.262C82.2706 134.528 81.6591 135.061 79.9327 135.061M112.83 115.886C117.69 116.774 128.11 119.508 130.915 123.343M112.83 115.886C109.183 113.582 103.256 112.96 97.4664 113.102M130.915 123.343C137.119 117.484 151.308 106.352 158.429 108.696C167.331 111.625 165.982 106.832 169.489 103.636C172.996 100.44 190.26 99.1086 195.655 105.766C199.971 111.093 206.085 110.649 208.602 109.761C212.469 109.229 222.791 109.708 233.15 115.886C243.508 122.065 248.615 130.178 249.874 133.463M130.915 123.343C126.779 127.071 120.395 138.15 127.948 152.638C135.501 167.125 143.863 170.214 147.1 169.948C147.605 169.853 148.249 169.603 148.926 169.149M97.4664 113.102C92.1613 111.989 78.6379 110.72 66.9848 114.555C57.7597 117.591 54.9135 123.163 54.4848 127.071M91.5319 163.823C88.2949 159.562 84.7882 162.047 83.4395 163.823C83.0457 164.589 82.6066 165.391 82.1246 166.219M91.5319 163.823C92.0714 163.734 92.9885 162.225 92.3411 156.899M91.5319 163.823C96.7277 174.987 97.1799 185.653 96.2989 192.851M82.1246 166.219C78.8742 171.803 73.6712 178.538 67.2315 182.997M82.1246 166.219C85.3748 172.175 91.1315 183.959 93.5961 192.851M65.5962 184.062C63.8112 192.318 58.7845 209.735 52.9579 213.357C55.1159 206.569 59.1082 191.861 57.8134 187.33M65.5962 184.062C63.1498 185.556 60.5436 186.703 57.8134 187.33M65.5962 184.062C66.1496 183.724 66.6948 183.369 67.2315 182.997M57.8134 187.33C52.6067 188.525 46.9492 187.833 41.089 184.062C17.0815 168.616 19.779 145.713 21.9369 141.186C23.6633 137.564 22.6563 132.043 21.9369 129.735C23.6633 126.113 26.7924 128.226 28.1411 129.735L33.8058 135.061C32.7269 136.659 30.5689 145.713 30.0294 152.105C29.581 157.417 34.7231 163.65 40.6543 167.285M54.4848 127.071C54.3719 128.1 54.4266 129.013 54.5764 129.735C52.6882 131.244 49.1815 135.647 50.2605 141.186C51.6092 148.11 53.2277 145.98 52.9579 152.105C52.7421 157.005 52.5084 164.444 52.4185 167.551C52.1487 169.06 50.1526 171.492 44.326 169.149C43.0964 168.654 41.859 168.023 40.6543 167.285M54.4848 127.071C44.0712 132.93 26.7261 149.175 40.6543 167.285M67.2315 182.997C68.3927 184.595 70.0184 188.643 67.2315 192.052C64.4446 195.461 66.0703 215.842 67.2315 225.607C67.6888 228.537 67.6322 234.981 63.7479 237.325C59.8635 239.669 66.2655 241.852 69.9521 242.651C73.9983 243.361 82.5223 244.036 84.2487 241.053M84.2487 241.053C85.9751 238.071 84.968 229.513 84.2487 225.607C83.7991 220.902 83.1697 211.067 84.2487 209.362C85.5974 207.232 94.0417 204.036 93.5961 192.851M84.2487 241.053C83.0345 240.622 81.0229 239.988 79.1235 239.564M93.5961 192.851C94.3274 195.489 94.7689 197.873 94.7689 199.775C95.3462 198.194 95.9358 195.817 96.2989 192.851M75.0773 239.189C75.9704 238.993 77.5063 239.203 79.1235 239.564M79.1235 239.564C79.0336 238.019 78.2603 234.928 75.8865 234.928C73.5127 234.928 73.4588 237.414 73.7285 238.657C73.4518 238.844 73.0843 239.059 72.6495 239.272M72.6495 239.272C71.0251 240.067 68.4608 240.828 66.1756 239.988C65.4563 238.124 64.8808 234.396 68.3336 234.396C71.7864 234.396 72.6495 237.646 72.6495 239.272ZM96.2989 192.851C97.0171 192.851 100.973 196.046 102.861 197.644M100.434 190.188C104.75 201.373 113.058 225.554 111.763 232.798C111.164 236.15 110.602 238.407 110.186 239.988M121.474 237.325C123.848 234.342 125.34 238.568 125.79 241.053C122.457 242.07 116.78 243.652 113.168 244.249M118.776 239.564C116.476 237.93 112.133 236.579 113.168 244.249M113.168 244.249C111.42 244.538 110.156 244.596 109.875 244.249C109.195 243.411 109.479 242.678 110.186 239.988M113.168 244.249C112.997 242.207 112.161 238.497 110.186 239.988M164.634 112.158C164.094 114.644 162.098 120.36 158.429 123.343C154.298 126.702 152.575 132.223 156.811 139.126M199.431 149.974C199.621 153.534 201.562 159.992 201.738 164.622C201.811 166.574 200.24 168.201 200.24 169.149C200.24 172.345 202.398 181.133 203.477 185.128C198.298 185.128 195.205 174.475 194.306 169.149C192.328 168.172 187.994 166.592 186.483 168.084C185.474 169.08 184.329 189.779 183.465 210.161M201.738 122.278C205.114 125.03 209.841 133.143 201.738 143.583M205.096 146.512C205.905 145.713 210.221 137.458 209.412 133.463C209.592 141.807 210.437 159.562 212.379 163.823C214.552 168.59 215.428 172.718 222.36 170.284M225.057 169.149C224.067 169.624 223.172 169.999 222.36 170.284M225.057 169.149C223.888 172.789 221.496 180.654 221.281 182.997C221.011 185.927 218.313 203.237 215.886 207.232C213.943 210.427 213.638 223.076 213.728 229.001M225.057 169.149C227.094 168.172 229.202 166.812 231.261 165.268M244.479 152.638C242.049 155.555 236.838 161.086 231.261 165.268M156.811 139.126C157.277 139.885 157.815 140.661 158.429 141.452C159.868 142.784 161.882 147.524 158.429 155.833C154.977 164.142 155.912 167.462 156.811 168.084C155.892 170.998 153.471 176.579 149.797 180.955M156.811 139.126C155.642 143.008 153.25 152.584 153.034 159.828C152.876 165.134 150.779 167.906 148.926 169.149M148.926 169.149C148.947 172.462 149.15 179.461 149.797 180.955M149.797 180.955C148.436 182.577 146.904 184.033 145.212 185.128C146.377 184.86 147.992 184.27 149.797 183.284M149.797 183.284C153.982 181 159.191 176.59 162.206 169.149C163.555 167.64 166.63 165.154 168.14 167.285C169.651 169.415 168.77 214.866 168.14 237.325V256.499C170.478 259.606 176.556 263.956 182.167 256.499C182.167 255.434 182.347 243.628 182.437 237.858C182.553 234.193 182.699 229.926 182.867 225.341M149.797 183.284C151.056 191 154.221 207.977 156.811 214.156C157.152 216.79 157.707 221.364 158.071 225.075M171.108 260.76C170.676 261.704 165.892 262.041 163.555 262.092C160.048 261.915 153.682 260.441 156.271 255.967C159.508 250.374 158.429 233.597 158.429 230.135C158.429 229.114 158.283 227.241 158.071 225.075M145.212 190.188C143.223 191.358 139.998 193.078 136.58 194.572M129.297 159.828C128.757 161.515 128.002 165.74 129.297 169.149C130.591 172.558 128.937 182.642 127.948 187.258C127.229 190.01 125.79 195.94 125.79 197.644C127.583 197.644 129.863 197.095 132.264 196.27M125.79 213.09C125.487 216.623 125.253 222.42 125.637 227.471M127.948 236.526C126.62 234.934 125.938 231.432 125.637 227.471M125.637 227.471C128.321 227.018 132.258 226.435 136.58 225.929M158.071 225.075C154.841 224.659 150.314 224.743 145.558 225.075M132.264 196.27L136.58 225.929M132.264 196.27C133.686 195.782 135.15 195.197 136.58 194.572M136.58 225.929C139.487 225.589 142.568 225.283 145.558 225.075M136.58 194.572C139.688 198.881 145.835 211.013 145.558 225.075M191.069 190.188C191.788 194.715 193.119 205.048 192.687 210.161M192.687 210.161C192.294 214.824 193.336 221.047 193.3 226.14M192.687 210.161H187.292M213.728 229.001C217.351 229.533 222.546 230.436 228.024 231.437M183.465 210.161C183.245 215.352 183.043 220.522 182.867 225.341M183.465 210.161H187.292M182.867 225.341L193.3 226.14M187.292 210.161C187.292 216.02 185.134 219.748 184.865 225.341M231.261 165.268C230.452 173.841 228.834 191.892 228.834 195.514C228.834 199.136 228.294 220.972 228.024 231.437M228.024 231.437C232.865 232.322 237.926 233.284 242.321 234.137M242.321 234.137C243.22 225.612 245.666 208.297 248.255 207.232M248.255 162.491C246.457 170.125 243.184 186.832 244.479 192.584C245.033 195.044 246.123 198.595 247.189 202.971M248.255 162.491C246.997 160.538 244.479 154.182 244.479 144.382C244.479 134.581 255.808 128.225 261.473 126.273M248.255 162.491C251.223 168.261 257.804 180.121 260.394 181.399C263.631 182.997 265.519 186.459 269.835 179.535C273.288 173.996 275.05 167.107 275.5 164.355M240.433 200.84C242.329 200.84 246.335 201.266 247.189 202.971M247.189 202.971C246.367 202.971 244.209 201.905 242.321 202.971M286.829 126.273C285.481 126.273 276.039 123.876 271.184 125.474C267.3 126.752 263.092 126.539 261.473 126.273M261.473 126.273C264.278 123.503 272.173 123.343 275.77 123.609C285.696 120.201 296.63 122.899 300.856 124.675C307.034 125.09 311.034 129.286 313.348 133.463M275.5 167.817C275.95 168.794 276.579 171.439 275.5 174.209C274.421 176.978 275.05 178.914 275.5 179.535M275.5 179.535C276.129 177.937 278.143 175.7 281.165 179.535C284.186 183.37 284.402 183.441 284.132 182.997M275.5 179.535C273.072 185.66 267.947 200.148 266.868 209.096C265.789 218.044 267.318 218.683 268.217 217.884M284.132 182.997L276.039 200.307C274.743 202.474 272.677 206.203 270.983 209.895M284.132 182.997C285.66 183.885 288.718 186.353 288.718 189.122C288.718 191.192 290.452 195.639 294.382 199.111M268.217 217.884C266.922 215.114 268.756 209.628 269.835 207.232M268.217 217.884C268.505 215.797 269.624 212.858 270.983 209.895M305.442 203.77C308.321 204.028 310.915 204.145 313.265 204.057M305.442 203.77C300.667 203.341 297.027 201.447 294.382 199.111M305.442 203.77C305.442 207.856 306.966 214.249 309.017 219.748M283.323 133.463C280.081 137.28 273.762 146.992 274.421 155.301C274.388 154.768 272.974 143.583 277.928 138.789M313.348 133.463C314.591 135.706 315.347 137.944 315.692 139.588C317.041 141.009 319.631 144.382 319.199 146.512C318.768 148.643 320.278 150.418 321.087 151.04C322.598 162.331 318.12 167.285 315.692 168.35C317.041 171.546 315.692 180.867 314.344 184.062C313.265 186.619 313.894 187.436 314.344 187.524C313.894 188.057 314.991 187.684 322.976 181.932C330.96 176.18 330.618 165.154 329.45 160.361C326.572 156.987 322.76 149.229 330.529 145.181C330.904 144.985 331.264 144.808 331.608 144.649M313.348 133.463C318.895 135.771 330.313 141.24 331.608 144.649M331.608 144.649C338.377 141.512 339.134 145.212 338.621 147.578C337.272 156.1 339.16 150.241 339.97 164.355C340.162 167.713 339.958 170.753 339.466 173.55M338.621 152.371C339.97 152.904 347.324 166.499 339.466 173.55M339.466 173.55C337.889 182.509 333.356 188.956 329.45 195.248C325.568 201.501 320.602 203.781 313.265 204.057M313.265 204.057C313.175 210.173 313.534 223.577 315.692 228.27C316.142 229.957 316.286 232.318 313.265 228.27C311.806 226.316 310.307 223.209 309.017 219.748M294.382 199.111C293.303 200.5 290.66 203.435 288.718 204.057M270.983 209.895C272.993 210.202 276.288 210.332 279.007 209.569M288.718 257.831C290.156 257.92 293.088 257.352 293.303 254.369C293.573 250.641 296.54 250.907 297.35 253.037M279.007 209.569C275.59 212.638 268.648 223.187 268.217 240.833M260.394 259.429C262.013 260.05 265.034 260.388 264.171 256.766C264.063 256.314 263.988 255.774 263.94 255.168M260.394 259.429C258.686 259.962 254.568 260.388 251.762 257.831C250.413 257.831 247.189 257.831 247.189 255.168C247.189 252.505 249.065 250.907 251.492 253.037M260.394 259.429C260.394 254.316 262.758 254.458 263.94 255.168M260.394 259.429C260.3 256.588 258.82 251.599 253.65 254.369M296.54 256.766C297.08 256.045 298.644 255.036 300.587 256.766C303.014 258.928 306.791 256.233 306.521 254.369C306.251 252.505 303.014 248.244 299.238 253.836M297.35 310.295C294.292 309.851 287.639 309.549 285.481 311.893C288.718 311.893 322.706 311.36 337.272 308.963C348.925 307.046 381.151 305.679 395.808 305.235M333.533 290.854C331.2 296.79 332.243 302.323 341.049 299.376C353.781 295.115 367.754 296.535 373.149 297.778C378.759 297.139 382.86 298.577 384.208 299.376C389.819 299.163 393.56 300.352 394.729 300.974C401.418 300.122 402.371 301.329 402.012 302.039C404.008 301.631 407.343 301.598 408.216 303.708M333.533 290.854C336.956 290.428 365.326 291.031 379.083 291.386C379.713 291.031 381.889 290.428 385.557 290.854C389.226 291.28 389.963 290.499 389.873 290.055C391.042 290.321 393.164 290.428 392.301 288.723C391.222 286.593 385.018 282.598 369.642 282.066C357.341 281.639 355.345 281.888 355.885 282.066M333.533 290.854C333.953 289.786 334.481 288.705 335.094 287.658M355.885 282.066C356.514 280.93 355.453 278.707 346.174 278.898M355.885 282.066C352.648 282.864 345.594 287.658 335.094 287.658M346.174 278.898C345.51 279.275 344.626 279.625 343.476 279.935C340.386 280.767 337.231 284.006 335.094 287.658M336.463 289.522H364.517M305.712 318.018H313.534M305.712 315.621L320.818 314.556M306.521 313.49C315.692 312.958 334.683 311.679 337.272 310.827C340.509 309.762 390.952 307.099 393.919 307.365C396.887 307.632 407.676 306.443 408.216 303.708M344.016 313.49C359.661 312.248 391.438 309.869 393.38 310.295C395.808 310.827 402.012 309.263 404.17 309.512M286.29 149.974C286.65 149.087 287.962 147.578 290.336 148.643M197.543 131.332C195.72 130.977 192.197 131.386 192.687 135.86M170.568 135.86C170.658 134.351 169.597 131.332 164.634 131.332M121.474 356.367H147.14M114.46 345.714H121.474M106.098 325.1H114.73M402.012 291.386H425.262M408.216 296.167H417.349M414.418 302.039H449M109.875 333.997H129.297M11.4168 265.82C9.34871 266.619 5.59022 269.922 7.10081 276.739C11.9807 274.822 12.0114 268.661 11.4168 265.82Z" stroke="white" stroke-width="2" stroke-linecap="round" stroke-linejoin="round"/>
<path opacity="0.9" d="M167.385 126.03C159.186 125.809 154.512 126.859 153.168 127.435L153 127.507V127.689V130.454V130.546L153.055 130.62L153.823 131.644C153.75 132.965 154.05 136.213 155.794 139.701C157.619 143.351 161.115 144.457 162.66 144.554L162.668 144.554H162.677H169.036H169.05L169.064 144.553C170.965 144.363 175.114 142.905 176.488 138.555C177.772 134.489 180.571 132.378 181.339 131.802C182.108 132.378 184.907 134.489 186.191 138.555C187.564 142.905 191.714 144.363 193.615 144.553L193.629 144.554H193.643H200.002H200.011L200.019 144.554C201.564 144.457 205.06 143.351 206.885 139.701C208.629 136.213 208.929 132.965 208.856 131.644L209.624 130.62L209.679 130.546V130.454V127.689V127.507L209.511 127.435C208.166 126.859 203.493 125.809 195.294 126.03C190.154 126.169 187.565 126.865 185.803 127.534C185.367 127.7 184.988 127.861 184.639 128.008C183.569 128.462 182.783 128.795 181.478 128.795H181.201C179.896 128.795 179.11 128.462 178.04 128.008C177.691 127.861 177.312 127.7 176.876 127.534C175.114 126.865 172.525 126.169 167.385 126.03Z" fill="#2B2A2A" stroke="white"/>
<path opacity="0.8" d="M162.4 127.659C157.092 127.659 155.212 129.871 155.488 133.189C155.765 136.506 157.424 140.55 158.806 141.76C159.543 142.405 160.852 143.197 164.612 143.418C168.372 143.64 170.695 143.142 172.077 142.313C173.46 141.483 175.619 139.271 176.777 133.189C177.568 129.037 172.446 127.751 169.865 127.659H162.4Z" fill="url(#paint0_linear)"/>
<path opacity="0.8" d="M200.084 127.659C205.393 127.659 207.273 129.871 206.996 133.189C206.72 136.506 205.061 140.55 203.678 141.76C202.941 142.405 201.632 143.197 197.872 143.418C194.112 143.64 191.79 143.142 190.407 142.313C189.025 141.483 186.866 139.271 185.707 133.189C184.916 129.037 190.039 127.751 192.619 127.659H200.084Z" fill="url(#paint1_linear)"/>
<path d="M169.036 129.996C170.623 129.499 173.493 130.464 174.013 133.188" stroke="#FFFDFD" stroke-linecap="round" stroke-linejoin="round"/>
<path d="M200.002 129.996C201.589 129.499 204.459 130.464 204.979 133.188" stroke="#FFFDFD" stroke-linecap="round" stroke-linejoin="round"/>
<path d="M140.066 154.437L135.319 151.838L136.35 148.485L141.386 151.046M142.241 148.594L139.131 147.279M139.131 147.279L136.954 146.358L137.483 143.656L140.271 144.755L139.131 147.279ZM145.587 138.209C143.687 136.409 140.002 132.793 140.465 132.733C140.927 132.672 145.137 132.513 147.185 132.441M145.587 138.209L147.185 132.441M145.587 138.209L145.7 139.072L146.552 139.838M147.185 132.441L147.688 131.79L149.17 131.889M147.5 130.351C147.356 130.241 146.288 129.476 145.087 128.618M149.248 125.734L145.781 126.187M145.781 126.187L142.314 126.639C143.041 127.158 144.109 127.919 145.087 128.618M145.781 126.187L145.087 128.618M150.253 124.433L143.522 122.385L146.474 120.244L146.024 116.792L152.541 119.452M138.012 140.953C138.273 141.153 142.031 142.477 143.877 143.114L144.657 140.086L138.829 138.213L138.012 140.953Z" stroke="white" stroke-linecap="round" stroke-linejoin="round"/>
<g filter="url(#filter0_d)">
<mask id="path-14-inside-1" fill="white">
<path fill-rule="evenodd" clip-rule="evenodd" d="M213 125H242V130.327V146.306V151.633H237.265V146.306H235.49V151.633H230.755V146.306H224.245V148.082L219.51 147.49V146.306H217.735V147.49H213V146.306V129.735V125Z"/>
</mask>
<path fill-rule="evenodd" clip-rule="evenodd" d="M213 125H242V130.327V146.306V151.633H237.265V146.306H235.49V151.633H230.755V146.306H224.245V148.082L219.51 147.49V146.306H217.735V147.49H213V146.306V129.735V125Z" fill="url(#paint2_linear)"/>
<path d="M242 125H243V124H242V125ZM213 125V124H212V125H213ZM242 151.633V152.633H243V151.633H242ZM237.265 151.633H236.265V152.633H237.265V151.633ZM237.265 146.306H238.265V145.306H237.265V146.306ZM235.49 146.306V145.306H234.49V146.306H235.49ZM235.49 151.633V152.633H236.49V151.633H235.49ZM230.755 151.633H229.755V152.633H230.755V151.633ZM230.755 146.306H231.755V145.306H230.755V146.306ZM224.245 146.306V145.306H223.245V146.306H224.245ZM224.245 148.082L224.121 149.074L225.245 149.214V148.082H224.245ZM219.51 147.49H218.51V148.373L219.386 148.482L219.51 147.49ZM219.51 146.306H220.51V145.306H219.51V146.306ZM217.735 146.306V145.306H216.735V146.306H217.735ZM217.735 147.49V148.49H218.735V147.49H217.735ZM213 147.49H212V148.49H213V147.49ZM242 124H213V126H242V124ZM243 130.327V125H241V130.327H243ZM243 146.306V130.327H241V146.306H243ZM243 151.633V146.306H241V151.633H243ZM237.265 152.633H242V150.633H237.265V152.633ZM236.265 146.306V151.633H238.265V146.306H236.265ZM235.49 147.306H237.265V145.306H235.49V147.306ZM236.49 151.633V146.306H234.49V151.633H236.49ZM230.755 152.633H235.49V150.633H230.755V152.633ZM229.755 146.306V151.633H231.755V146.306H229.755ZM224.245 147.306H230.755V145.306H224.245V147.306ZM225.245 148.082V146.306H223.245V148.082H225.245ZM219.386 148.482L224.121 149.074L224.369 147.089L219.634 146.498L219.386 148.482ZM218.51 146.306V147.49H220.51V146.306H218.51ZM217.735 147.306H219.51V145.306H217.735V147.306ZM216.735 146.306V147.49H218.735V146.306H216.735ZM217.735 146.49H213V148.49H217.735V146.49ZM214 147.49V146.306H212V147.49H214ZM214 146.306V129.735H212V146.306H214ZM212 125V129.735H214V125H212Z" fill="white" mask="url(#path-14-inside-1)"/>
</g>
<path d="M219.503 133.382H218.864L216.952 131.24V133.382H216.419V129.157H216.952V131.204L218.816 129.157H219.42L217.585 131.21L219.503 133.382Z" fill="#252525"/>
<path d="M221.848 132.181C221.721 132.461 221.593 132.696 221.463 132.885C221.337 133.071 221.187 133.211 221.013 133.305C220.839 133.396 220.618 133.442 220.35 133.442C220.24 133.442 220.135 133.434 220.037 133.418C219.942 133.402 219.855 133.38 219.776 133.353V132.826C219.855 132.862 219.94 132.891 220.031 132.915C220.121 132.935 220.216 132.944 220.315 132.944C220.536 132.944 220.709 132.897 220.836 132.802C220.966 132.708 221.086 132.54 221.197 132.299L219.569 129.157H220.155L221.333 131.483C221.352 131.522 221.376 131.573 221.404 131.636C221.431 131.696 221.455 131.753 221.475 131.808H221.498C221.514 131.765 221.534 131.713 221.558 131.654C221.581 131.591 221.601 131.54 221.617 131.5L222.635 129.157H223.197L221.848 132.181Z" fill="#252525"/>
<path d="M223.771 133.382V129.157H226.943V133.382H226.417V129.624H224.304V133.382H223.771Z" fill="#252525"/>
<path d="M228.106 129.157H228.603V131.477C228.603 131.607 228.601 131.753 228.597 131.915C228.593 132.076 228.587 132.224 228.58 132.358C228.576 132.493 228.57 132.591 228.562 132.654H228.585L230.911 129.157H231.503V133.382H231.006V131.086C231.006 130.94 231.008 130.784 231.012 130.618C231.02 130.453 231.028 130.301 231.036 130.163C231.044 130.025 231.049 129.926 231.053 129.867H231.03L228.698 133.382H228.106V129.157Z" fill="#252525"/>
<path d="M233.98 133.382H233.448V129.624H232.128V129.157H235.294V129.624H233.98V133.382Z" fill="#252525"/>
<path d="M235.932 133.382V129.157H236.464V130.944H237.257C237.652 130.944 237.965 130.997 238.198 131.104C238.431 131.21 238.599 131.354 238.701 131.536C238.804 131.717 238.855 131.92 238.855 132.145C238.855 132.516 238.729 132.816 238.476 133.045C238.224 133.27 237.839 133.382 237.322 133.382H235.932ZM237.269 132.927C237.96 132.927 238.305 132.666 238.305 132.145C238.305 131.873 238.21 131.682 238.021 131.571C237.831 131.461 237.555 131.406 237.192 131.406H236.464V132.927H237.269Z" fill="#252525"/>
<path d="M219.525 137.259C219.071 137.259 218.714 137.411 218.454 137.715C218.193 138.018 218.063 138.435 218.063 138.963C218.063 139.488 218.184 139.904 218.424 140.212C218.669 140.516 219.034 140.668 219.519 140.668C219.705 140.668 219.88 140.652 220.046 140.62C220.212 140.589 220.373 140.549 220.531 140.502V140.964C220.373 141.023 220.21 141.066 220.04 141.094C219.874 141.122 219.675 141.135 219.442 141.135C219.012 141.135 218.653 141.047 218.365 140.869C218.077 140.692 217.86 140.439 217.714 140.112C217.572 139.784 217.501 139.399 217.501 138.957C217.501 138.531 217.578 138.156 217.732 137.833C217.89 137.505 218.12 137.251 218.424 137.069C218.728 136.884 219.097 136.791 219.531 136.791C219.977 136.791 220.366 136.874 220.697 137.04L220.484 137.49C220.354 137.43 220.208 137.377 220.046 137.33C219.888 137.283 219.714 137.259 219.525 137.259Z" fill="#252525"/>
<path d="M224.496 141.076H223.963V137.318H222.625C222.59 137.61 222.55 137.918 222.507 138.241C222.464 138.561 222.42 138.867 222.377 139.159C222.333 139.451 222.29 139.699 222.247 139.904C222.195 140.169 222.132 140.394 222.057 140.579C221.982 140.765 221.882 140.905 221.755 140.999C221.633 141.094 221.471 141.141 221.27 141.141C221.203 141.141 221.134 141.133 221.063 141.118C220.996 141.106 220.937 141.09 220.885 141.07V140.626C220.929 140.646 220.978 140.664 221.033 140.68C221.089 140.692 221.148 140.697 221.211 140.697C221.329 140.697 221.422 140.65 221.489 140.555C221.56 140.457 221.615 140.336 221.655 140.194C221.694 140.048 221.728 139.904 221.755 139.762C221.787 139.612 221.824 139.393 221.868 139.105C221.915 138.813 221.964 138.474 222.016 138.087C222.071 137.701 222.126 137.288 222.181 136.85H224.496V141.076Z" fill="#252525"/>
<path d="M229.331 138.957C229.331 139.395 229.256 139.778 229.106 140.106C228.96 140.429 228.743 140.682 228.455 140.863C228.167 141.045 227.81 141.135 227.384 141.135C226.946 141.135 226.581 141.045 226.289 140.863C226.001 140.682 225.786 140.427 225.644 140.1C225.502 139.772 225.431 139.389 225.431 138.952C225.431 138.517 225.502 138.139 225.644 137.815C225.786 137.492 226.001 137.239 226.289 137.058C226.581 136.876 226.948 136.785 227.39 136.785C227.812 136.785 228.167 136.876 228.455 137.058C228.743 137.235 228.96 137.488 229.106 137.815C229.256 138.139 229.331 138.519 229.331 138.957ZM225.993 138.957C225.993 139.49 226.105 139.91 226.33 140.218C226.555 140.522 226.906 140.674 227.384 140.674C227.865 140.674 228.216 140.522 228.437 140.218C228.658 139.91 228.769 139.49 228.769 138.957C228.769 138.425 228.658 138.009 228.437 137.709C228.216 137.405 227.867 137.253 227.39 137.253C226.912 137.253 226.559 137.405 226.33 137.709C226.105 138.009 225.993 138.425 225.993 138.957Z" fill="#252525"/>
<path d="M233.499 141.076H232.966V139.105H230.8V141.076H230.267V136.85H230.8V138.638H232.966V136.85H233.499V141.076Z" fill="#252525"/>
<path d="M237.306 141.076L236.797 139.768H235.122L234.619 141.076H234.08L235.731 136.833H236.211L237.856 141.076H237.306ZM236.163 138.016C236.152 137.985 236.132 137.928 236.104 137.845C236.077 137.762 236.049 137.677 236.021 137.59C235.998 137.5 235.978 137.43 235.962 137.383C235.935 137.505 235.903 137.626 235.868 137.744C235.832 137.859 235.802 137.949 235.779 138.016L235.299 139.295H236.637L236.163 138.016Z" fill="#252525"/>
<path d="M172.806 294.814C172.8 293.679 172.487 292.811 171.869 292.21C171.251 291.61 170.138 291.027 168.531 290.464C166.924 289.9 165.691 289.308 164.833 288.688C163.986 288.058 163.346 287.343 162.914 286.543C162.493 285.733 162.279 284.807 162.273 283.765C162.263 281.963 162.853 280.476 164.044 279.302C165.246 278.128 166.821 277.536 168.769 277.525C170.102 277.517 171.291 277.812 172.336 278.41C173.381 278.998 174.188 279.822 174.757 280.881C175.326 281.94 175.614 283.105 175.621 284.376L172.746 284.392C172.738 282.986 172.393 281.9 171.711 281.133C171.03 280.366 170.054 279.986 168.783 279.993C167.627 280 166.733 280.328 166.101 280.978C165.469 281.627 165.157 282.535 165.164 283.702C165.169 284.66 165.518 285.46 166.209 286.102C166.9 286.744 167.966 287.316 169.406 287.818C171.65 288.545 173.254 289.447 174.219 290.525C175.194 291.602 175.686 293.016 175.697 294.766C175.707 296.61 175.117 298.092 173.925 299.214C172.734 300.325 171.107 300.887 169.044 300.898C167.722 300.906 166.496 300.627 165.368 300.06C164.25 299.483 163.365 298.676 162.713 297.638C162.072 296.59 161.747 295.389 161.739 294.034L164.614 294.018C164.622 295.424 165.019 296.515 165.805 297.292C166.601 298.069 167.676 298.453 169.03 298.445C170.291 298.438 171.237 298.11 171.868 297.46C172.5 296.811 172.813 295.929 172.806 294.814ZM190.341 289.947L182.294 289.994L182.341 298.056L191.716 298.002L191.73 300.455L179.496 300.526L179.364 277.776L191.442 277.706L191.456 280.175L182.238 280.228L182.28 287.54L190.327 287.494L190.341 289.947ZM210.144 290.973C210.162 294.077 209.514 296.472 208.201 298.156C206.888 299.841 205.013 300.69 202.575 300.705C200.231 300.718 198.373 299.916 196.999 298.299C195.635 296.672 194.919 294.369 194.849 291.39L194.825 287.109C194.807 284.067 195.465 281.683 196.799 279.956C198.133 278.219 200.002 277.344 202.409 277.33C204.804 277.316 206.674 278.134 208.017 279.782C209.37 281.42 210.071 283.77 210.12 286.833L210.144 290.973ZM207.262 287.005C207.248 284.599 206.842 282.815 206.043 281.653C205.255 280.48 204.049 279.899 202.424 279.908C200.851 279.917 199.661 280.518 198.856 281.71C198.061 282.902 197.665 284.655 197.667 286.967L197.691 291.045C197.705 293.368 198.116 295.137 198.925 296.351C199.744 297.565 200.956 298.167 202.56 298.158C204.165 298.148 205.349 297.579 206.113 296.45C206.877 295.32 207.268 293.594 207.286 291.271L207.262 287.005Z" fill="white"/>
<mask id="mask0" mask-type="alpha" maskUnits="userSpaceOnUse" x="301" y="150" width="68" height="34">
<path fill-rule="evenodd" clip-rule="evenodd" d="M306.975 150C307.931 150 325.14 153.824 325.857 154.541C325.97 154.654 326.02 154.87 326.1 155.216C326.309 156.114 326.72 157.887 328.964 160.994C329.826 165.325 329.626 169.941 328.486 172.945C325.857 179.876 301 171.989 301 171.511C301 171.128 304.983 157.011 306.975 150ZM338.524 155.975C339.423 155.738 359.836 156.063 360.703 156.616C361.57 157.168 368.73 166.995 368.123 174.707C367.515 182.419 334.017 186.191 336.373 181.31C340.246 173.289 340.675 165.536 338.524 155.975Z" fill="#C4C4C4"/>
</mask>
<g mask="url(#mask0)">
<rect x="306.552" y="154.62" width="29.6026" height="16.0997" rx="2" fill="url(#paint3_linear)" stroke="white"/>
<rect x="307.071" y="154.1" width="29.6026" height="15.5803" rx="2" fill="white" fill-opacity="0.9" stroke="white"/>
<rect x="308.109" y="156.178" width="5.19344" height="5.19344" rx="1" fill="#181818"/>
<rect x="308.629" y="156.178" width="4.6741" height="4.6741" rx="1" fill="white"/>
<circle cx="309.927" cy="159.554" r="0.779016" fill="#1B1A1A"/>
<circle cx="312.005" cy="159.554" r="0.779016" fill="#1B1A1A"/>
<circle opacity="0.7" cx="310.966" cy="157.476" r="0.259672" fill="#FFE259"/>
</g>
<path d="M73.3283 256.697H18.5129L27.5285 253.316L81.6196 253.679C81.9609 253.681 82.034 254.161 81.709 254.265L74.8522 256.459C74.3596 256.617 73.8455 256.697 73.3283 256.697Z" fill="#FDF0CD" stroke="white"/>
<path d="M73.3283 255.946H18.5129L27.5285 252.565L81.6196 252.928C81.9609 252.93 82.034 253.41 81.709 253.514L74.8522 255.708C74.3596 255.865 73.8455 255.946 73.3283 255.946Z" fill="#4F4B4B" stroke="white"/>
<path d="M70.0426 256.321H19.958C18.4781 256.321 17.2192 255.242 16.9932 253.779L11.5344 218.458C11.2535 216.64 12.6598 215 14.4993 215H66.5104C68.0517 215 69.3422 216.168 69.4955 217.701L73.0277 253.023C73.2043 254.789 71.8174 256.321 70.0426 256.321Z" fill="url(#paint4_linear)" stroke="white"/>
<path d="M42.1506 232.655C42.1506 232.155 42.376 231.078 43.2775 230.777C43.2775 231.278 43.0521 232.355 42.1506 232.655Z" fill="black"/>
<path d="M38.7697 234.158C39.6713 232.655 41.775 233.782 42.1506 233.782C42.5261 233.782 44.0287 232.28 45.5313 233.782C44.6297 235.285 45.6565 236.662 46.2826 237.163C46.1574 237.539 45.7567 238.44 45.1557 239.041C44.4044 239.793 43.2774 239.041 42.9018 239.041C42.5261 239.041 41.7749 239.417 40.648 239.041C39.521 238.666 37.6428 236.036 38.7697 234.158Z" fill="black"/>
<path d="M88 108.935C94.6558 88.2899 124.314 47 189.701 47C255.088 47 285.812 96.3333 293 121" stroke="white" stroke-width="2"/>
<defs>
<filter id="filter0_d" x="209" y="125" width="37" height="34.6327" filterUnits="userSpaceOnUse" color-interpolation-filters="sRGB">
<feFlood flood-opacity="0" result="BackgroundImageFix"/>
<feColorMatrix in="SourceAlpha" type="matrix" values="0 0 0 0 0 0 0 0 0 0 0 0 0 0 0 0 0 0 127 0"/>
<feOffset dy="4"/>
<feGaussianBlur stdDeviation="2"/>
<feColorMatrix type="matrix" values="0 0 0 0 0 0 0 0 0 0 0 0 0 0 0 0 0 0 0.25 0"/>
<feBlend mode="normal" in2="BackgroundImageFix" result="effect1_dropShadow"/>
<feBlend mode="normal" in="SourceGraphic" in2="effect1_dropShadow" result="shape"/>
</filter>
<linearGradient id="paint0_linear" x1="166.161" y1="127.659" x2="166.161" y2="143.471" gradientUnits="userSpaceOnUse">
<stop stop-color="#55257C"/>
<stop offset="1" stop-color="#252C5B"/>
</linearGradient>
<linearGradient id="paint1_linear" x1="196.324" y1="127.659" x2="196.324" y2="143.471" gradientUnits="userSpaceOnUse">
<stop stop-color="#55257C"/>
<stop offset="1" stop-color="#252C5B"/>
</linearGradient>
<linearGradient id="paint2_linear" x1="227.5" y1="125" x2="227.5" y2="151.633" gradientUnits="userSpaceOnUse">
<stop stop-color="#FFE259"/>
<stop offset="0.578125" stop-color="#FFE466"/>
<stop offset="1" stop-color="#FFDB31"/>
</linearGradient>
<linearGradient id="paint3_linear" x1="322.651" y1="156.766" x2="322.749" y2="170.726" gradientUnits="userSpaceOnUse">
<stop stop-color="#454545"/>
<stop offset="0.802083" stop-color="#2B2B2C"/>
<stop offset="1" stop-color="#444444"/>
</linearGradient>
<linearGradient id="paint4_linear" x1="42.1788" y1="224.016" x2="47.0622" y2="256.321" gradientUnits="userSpaceOnUse">
<stop stop-color="#7F7E83"/>
<stop offset="1" stop-color="#423C38"/>
</linearGradient>
</defs>
</svg>
