<svg width="49" height="48" viewBox="0 0 49 48" fill="none" xmlns="http://www.w3.org/2000/svg">
<path d="M47.4688 23.25H46.7031V18.621C46.7031 17.052 46.0799 15.5775 44.9475 14.4697C43.8152 13.3605 42.31 12.75 40.709 12.75H39.8125V11.9385C41.64 10.899 42.875 8.9655 42.875 6.75C42.875 3.44175 40.1272 0.75 36.75 0.75C33.3728 0.75 30.625 3.44175 30.625 6.75C30.625 8.96475 31.86 10.899 33.6875 11.9385V12.75H32.791C31.19 12.75 29.6848 13.3605 28.5525 14.4697C27.4201 15.5782 26.7969 17.052 26.7969 18.621V23.25H25.2656V21C25.2656 20.5853 24.9226 20.25 24.5 20.25H22.2031V19.9928C22.2031 17.8057 22.9565 15.7335 24.3369 14.0543C24.6217 14.178 24.9349 14.25 25.2656 14.25C26.532 14.25 27.5625 13.2405 27.5625 12C27.5625 10.7595 26.532 9.75 25.2656 9.75C23.9993 9.75 22.9688 10.7595 22.9688 12C22.9688 12.366 23.0667 12.7058 23.2252 13.0118C21.5722 14.9745 20.6719 17.4158 20.6719 19.9928V20.25H18.375C17.9524 20.25 17.6094 20.5853 17.6094 21V23.25H16.8438C16.4211 23.25 16.0781 23.5853 16.0781 24V27C16.0781 27.4147 16.4211 27.75 16.8438 27.75H17.6094V32.25C15.4985 32.25 13.7812 33.9323 13.7812 36C13.7812 37.1138 14.2896 38.1045 15.079 38.7923C13.88 39.3278 12.8855 40.2278 12.25 41.352C11.6145 40.2285 10.62 39.3285 9.42102 38.7923C10.2104 38.1045 10.7188 37.1138 10.7188 36C10.7188 33.9323 9.00145 32.25 6.89062 32.25C4.7798 32.25 3.0625 33.9323 3.0625 36C3.0625 37.1138 3.57088 38.1045 4.36023 38.7923C2.24328 39.738 0.765625 41.826 0.765625 44.25V46.5C0.765625 46.9147 1.10863 47.25 1.53125 47.25H33.6875C34.1101 47.25 34.4531 46.9147 34.4531 46.5V45.75H45.9375C46.3601 45.75 46.7031 45.4147 46.7031 45V27.75H47.4688C47.8914 27.75 48.2344 27.4147 48.2344 27V24C48.2344 23.5853 47.8914 23.25 47.4688 23.25ZM25.2656 11.25C25.6875 11.25 26.0312 11.586 26.0312 12C26.0312 12.414 25.6875 12.75 25.2656 12.75C24.8438 12.75 24.5 12.414 24.5 12C24.5 11.586 24.8438 11.25 25.2656 11.25ZM45.1719 18.621V23.25H43.6406V20.25H42.1094V23.25H37.5156V17.7135L39.4703 18.6705C39.5775 18.7237 39.6954 18.75 39.8125 18.75C39.912 18.75 40.0116 18.7313 40.1057 18.693C40.3109 18.6098 40.4686 18.4432 40.5391 18.2377L41.846 14.3978C42.6024 14.592 43.2976 14.9745 43.8657 15.531C44.7079 16.356 45.1719 17.4532 45.1719 18.621ZM34.0703 14.25L35.587 16.2308L34.1346 16.9425L33.2189 14.25H34.0703ZM39.4297 14.25H40.2818L39.3661 16.9425L37.9137 16.2308L39.4297 14.25ZM36.75 2.25C39.0009 2.25 40.8752 3.84525 41.2657 5.9415C39.8156 5.7615 38.4734 5.127 37.4238 4.09875L37.2928 3.96975C37.0057 3.687 36.4958 3.687 36.2087 3.96975L36.0785 4.098C35.0281 5.127 33.686 5.7615 32.2359 5.94075C32.6248 3.84525 34.4991 2.25 36.75 2.25ZM32.2137 7.46025C33.8965 7.29675 35.4706 6.63 36.75 5.535C38.0294 6.62925 39.6027 7.29675 41.2863 7.46025C40.938 9.60525 39.0362 11.25 36.75 11.25C34.4638 11.25 32.562 9.60525 32.2137 7.46025ZM36.75 12.75C37.2798 12.75 37.7905 12.6772 38.2812 12.5527V13.2502L36.75 15.2498L35.2188 13.2502V12.5527C35.7095 12.6772 36.2202 12.75 36.75 12.75ZM28.3281 18.621C28.3281 17.4532 28.7921 16.3553 29.635 15.5303C30.2031 14.9745 30.8983 14.5912 31.6548 14.397L32.9617 18.237C33.0321 18.4425 33.1898 18.609 33.395 18.6922C33.4884 18.7313 33.588 18.75 33.6875 18.75C33.8046 18.75 33.9225 18.7238 34.0297 18.6712L35.9844 17.7135V23.25H31.3906V20.25H29.8594V23.25H28.3281V18.621ZM19.1406 21.75H23.7344V23.25H19.1406V21.75ZM15.3125 36C15.3125 34.7595 16.343 33.75 17.6094 33.75C18.8757 33.75 19.9062 34.7595 19.9062 36C19.9062 37.2405 18.8757 38.25 17.6094 38.25C16.343 38.25 15.3125 37.2405 15.3125 36ZM4.59375 36C4.59375 34.7595 5.62428 33.75 6.89062 33.75C8.15697 33.75 9.1875 34.7595 9.1875 36C9.1875 37.2405 8.15697 38.25 6.89062 38.25C5.62428 38.25 4.59375 37.2405 4.59375 36ZM2.29688 44.25C2.29688 41.7682 4.35717 39.75 6.89062 39.75C9.42408 39.75 11.4844 41.7682 11.4844 44.25V45.75H2.29688V44.25ZM13.0156 44.25C13.0156 41.7682 15.0759 39.75 17.6094 39.75C20.1428 39.75 22.2031 41.7682 22.2031 44.25V45.75H13.0156V44.25ZM32.9219 45.75H23.7344V44.25C23.7344 41.7682 25.7947 39.75 28.3281 39.75C30.8616 39.75 32.9219 41.7682 32.9219 44.25V45.75ZM26.0312 36C26.0312 34.7595 27.0618 33.75 28.3281 33.75C29.5945 33.75 30.625 34.7595 30.625 36C30.625 37.2405 29.5945 38.25 28.3281 38.25C27.0618 38.25 26.0312 37.2405 26.0312 36ZM45.1719 44.25H34.4531C34.4531 41.826 32.9755 39.738 30.8585 38.7923C31.6479 38.1045 32.1562 37.1138 32.1562 36C32.1562 33.9323 30.439 32.25 28.3281 32.25C26.2173 32.25 24.5 33.9323 24.5 36C24.5 37.1138 25.0084 38.1045 25.7977 38.7923C24.5988 39.3278 23.6042 40.2278 22.9688 41.352C22.3333 40.2285 21.3387 39.3285 20.1398 38.7923C20.9291 38.1045 21.4375 37.1138 21.4375 36C21.4375 34.4663 20.4904 33.1485 19.1406 32.568V27.75H45.1719V44.25ZM46.7031 26.25H17.6094V24.75H46.7031V26.25Z" fill="#362758"/>
<path d="M3.0625 15.75H15.3125C16.5788 15.75 17.6094 14.7405 17.6094 13.5V12.3105L20.4475 9.53025C20.7469 9.237 20.7469 8.763 20.4475 8.46975L17.6094 5.6895V4.5C17.6094 3.2595 16.5788 2.25 15.3125 2.25H3.0625C1.79616 2.25 0.765625 3.2595 0.765625 4.5V13.5C0.765625 14.7405 1.79616 15.75 3.0625 15.75ZM2.29688 4.5C2.29688 4.086 2.64064 3.75 3.0625 3.75H15.3125C15.7344 3.75 16.0781 4.086 16.0781 4.5V6C16.0781 6.1995 16.1585 6.39 16.3025 6.53025L18.8237 9L16.3025 11.4698C16.1585 11.61 16.0781 11.8005 16.0781 12V13.5C16.0781 13.914 15.7344 14.25 15.3125 14.25H3.0625C2.64064 14.25 2.29688 13.914 2.29688 13.5V4.5Z" fill="#362758"/>
<path d="M3.82812 5.25H14.5469V6.75H3.82812V5.25Z" fill="#362758"/>
<path d="M3.82812 11.25H14.5469V12.75H3.82812V11.25Z" fill="#362758"/>
<path d="M5.35938 8.25H13.0156V9.75H5.35938V8.25Z" fill="#362758"/>
</svg>
