<svg width="47" height="47" viewBox="0 0 47 47" fill="none" xmlns="http://www.w3.org/2000/svg">
<path d="M31.7617 0C31.2548 0 30.8438 0.411066 30.8438 0.917969V5.14062C30.8438 5.64753 31.2548 6.05859 31.7617 6.05859C32.2686 6.05859 32.6797 5.64753 32.6797 5.14062V0.917969C32.6797 0.411066 32.2686 0 31.7617 0Z" fill="#362758"/>
<path d="M10.6484 28.6406C10.1417 28.6406 9.73047 29.0519 9.73047 29.5586C9.73047 30.0653 10.1417 30.4766 10.6484 30.4766C11.1552 30.4766 11.5664 30.0653 11.5664 29.5586C11.5664 29.0519 11.1552 28.6406 10.6484 28.6406Z" fill="#362758"/>
<path d="M44.6133 26.8047C44.6133 24.78 42.9661 23.1328 40.9414 23.1328H34.0886C35.1495 20.4153 35.5789 17.2168 35.4961 14.3695C35.4803 13.8262 35.4595 13.5119 35.4313 13.3141C35.3838 11.3307 33.7552 9.73047 31.7617 9.73047C29.737 9.73047 28.0898 11.3777 28.0898 13.4023V14.3203C28.0898 20.1261 20.6347 23.3881 15.0084 24.7869C14.583 23.8144 13.612 23.1328 12.4844 23.1328H3.30469C2.79779 23.1328 2.38672 23.5439 2.38672 24.0508V46.082C2.38672 46.5889 2.79779 47 3.30469 47H12.4844C13.6045 47 14.5699 46.3274 14.9997 45.3652C15.4656 45.4847 15.898 45.5976 16.2972 45.7019C19.5023 46.539 21.2679 47 25.5618 47H35.4336C37.4583 47 39.1055 45.3528 39.1055 43.3281C39.1055 42.5732 38.8763 41.8709 38.484 41.2867C39.9021 40.7908 40.9414 39.4358 40.9414 37.8203C40.9414 37.0681 40.7178 36.3636 40.3267 35.7767C41.7386 35.2799 42.7773 33.9281 42.7773 32.3125C42.7773 31.5576 42.5481 30.8553 42.1559 30.2711C43.574 29.7751 44.6133 28.4202 44.6133 26.8047ZM13.4023 44.2461C13.4023 44.7523 12.9905 45.1641 12.4844 45.1641H4.22266V24.9688H12.4844C12.9905 24.9688 13.4023 25.3806 13.4023 25.8867V44.2461ZM40.9414 28.6406C38.9725 28.6406 38.5031 28.6406 36.3516 28.6406C35.8447 28.6406 35.4336 29.0517 35.4336 29.5586C35.4336 30.0655 35.8447 30.4766 36.3516 30.4766H39.1055C40.1178 30.4766 40.9414 31.3002 40.9414 32.3125C40.9414 33.3265 40.1195 34.1484 39.1055 34.1484H34.5156C34.0087 34.1484 33.5977 34.5595 33.5977 35.0664C33.5977 35.5733 34.0087 35.9844 34.5156 35.9844H37.2695C38.2698 35.9844 39.1055 36.7835 39.1055 37.8203C39.1055 38.8343 38.2835 39.6562 37.2695 39.6562C35.3006 39.6562 34.8312 39.6562 32.6797 39.6562C32.1728 39.6562 31.7617 40.0673 31.7617 40.5742C31.7617 41.0811 32.1728 41.4922 32.6797 41.4922H35.4336C36.4459 41.4922 37.2695 42.3158 37.2695 43.3281C37.2695 44.3405 36.4459 45.1641 35.4336 45.1641H25.5618C21.5037 45.1641 19.9187 44.7501 16.7612 43.9255C16.2986 43.8047 15.7913 43.6723 15.2383 43.5313V26.6234C21.8814 25.041 29.9258 21.1785 29.9258 14.3203V13.4023C29.9258 12.39 30.7494 11.5664 31.7617 11.5664C32.7722 11.5664 33.5957 12.3887 33.5977 13.3995V13.4023C33.5977 13.8013 34.0956 18.6975 32.099 23.1328H29.0078C28.5009 23.1328 28.0898 23.5439 28.0898 24.0508C28.0898 24.5577 28.5009 24.9688 29.0078 24.9688C29.6488 24.9688 39.8951 24.9688 40.9414 24.9688C41.9537 24.9688 42.7773 25.7924 42.7773 26.8047C42.7773 27.8187 41.9554 28.6406 40.9414 28.6406Z" fill="#362758"/>
<path d="M10.6484 32.3125C10.1415 32.3125 9.73047 32.7236 9.73047 33.2305V40.5742C9.73047 41.0811 10.1415 41.4922 10.6484 41.4922C11.1553 41.4922 11.5664 41.0811 11.5664 40.5742V33.2305C11.5664 32.7236 11.1553 32.3125 10.6484 32.3125Z" fill="#362758"/>
<path d="M24.418 11.5664H20.7461C20.2392 11.5664 19.8281 11.9775 19.8281 12.4844C19.8281 12.9913 20.2392 13.4023 20.7461 13.4023H24.418C24.9249 13.4023 25.3359 12.9913 25.3359 12.4844C25.3359 11.9775 24.9249 11.5664 24.418 11.5664Z" fill="#362758"/>
<path d="M42.7773 11.5664H39.1055C38.5986 11.5664 38.1875 11.9775 38.1875 12.4844C38.1875 12.9913 38.5986 13.4023 39.1055 13.4023H42.7773C43.2842 13.4023 43.6953 12.9913 43.6953 12.4844C43.6953 11.9775 43.2842 11.5664 42.7773 11.5664Z" fill="#362758"/>
<path d="M40.1997 4.04661C39.8411 3.68824 39.2601 3.68824 38.9014 4.04661L36.3055 6.64254C35.947 7.001 35.947 7.58226 36.3055 7.94082C36.6641 8.29928 37.2451 8.29919 37.6038 7.94082L40.1997 5.3449C40.5582 4.98643 40.5582 4.40517 40.1997 4.04661Z" fill="#362758"/>
<path d="M27.2177 6.64254L24.6218 4.04661C24.2633 3.68824 23.6822 3.68824 23.3235 4.04661C22.9651 4.40508 22.9651 4.98634 23.3235 5.3449L25.9195 7.94082C26.2782 8.29928 26.8592 8.29919 27.2177 7.94082C27.5762 7.58235 27.5762 7.00109 27.2177 6.64254Z" fill="#362758"/>
</svg>
