<svg width="29" height="30" viewBox="0 0 29 30" fill="none" xmlns="http://www.w3.org/2000/svg">
<path fill-rule="evenodd" clip-rule="evenodd" d="M28.1237 15.0001C28.1237 22.7823 21.828 29.091 14.0619 29.091C6.29571 29.091 0 22.7823 0 15.0001C0 7.21789 6.29571 0.90918 14.0619 0.90918C21.828 0.90918 28.1237 7.21789 28.1237 15.0001ZM9.50103 23.2744C9.80807 23.2744 10.0569 23.025 10.0569 22.7174V12.7769C10.0569 12.4693 9.80807 12.2199 9.50103 12.2199H7.13461C6.82757 12.2199 6.57869 12.4693 6.57869 12.7769V22.7174C6.57869 23.025 6.82757 23.2744 7.13461 23.2744H9.50103ZM8.31782 11.2828C7.07623 11.2828 6.06971 10.2742 6.06971 9.03008C6.06971 7.78592 7.07623 6.77732 8.31782 6.77732C9.55941 6.77732 10.5659 7.78592 10.5659 9.03008C10.5659 10.2742 9.55946 11.2828 8.31782 11.2828ZM21.9126 23.2744C22.1949 23.2744 22.4238 23.0451 22.4238 22.7622V17.9513V17.9157C22.4239 15.8169 22.4242 12.0531 18.3809 12.0531C16.5447 12.0531 15.6823 12.7266 15.102 13.5993V12.7321C15.102 12.4492 14.8732 12.2199 14.5909 12.2199H12.1349C11.8526 12.2199 11.6238 12.4492 11.6238 12.7321V22.7622C11.6238 23.0451 11.8526 23.2744 12.1349 23.2744H14.5909C14.8732 23.2744 15.102 23.0451 15.102 22.7622V17.3844C15.1658 16.6618 15.4832 15.0516 17.0482 15.0516C18.9171 15.0516 18.8801 17.0702 18.8645 17.9205C18.8633 17.9881 18.8622 18.0484 18.8622 18.0996V22.7622C18.8622 23.0451 19.091 23.2744 19.3733 23.2744H21.9126Z" fill="white"/>
</svg>
