<svg width="27" height="27" viewBox="0 0 27 27" fill="none" xmlns="http://www.w3.org/2000/svg">
<path d="M2.37132 16.1947L7.5431 11.0231C8.15096 10.4153 8.86187 9.95689 9.65836 9.65821C9.95705 8.86171 10.4154 8.15075 11.0232 7.54289L16.1949 2.37117C17.3213 1.24482 18.8189 0.624512 20.4118 0.624512C22.0046 0.624512 23.5023 1.24482 24.6287 2.37117C25.7552 3.49751 26.3755 4.99515 26.3755 6.58804C26.3755 8.18092 25.7552 9.67862 24.6288 10.8049L19.4571 15.9766C18.8492 16.5844 18.1382 17.0428 17.3418 17.3415C17.0431 18.138 16.5847 18.8489 15.9768 19.4568L10.8051 24.6285C9.67877 25.7549 8.18113 26.3752 6.58825 26.3752C4.99536 26.3752 3.49772 25.7549 2.37137 24.6285C0.0461216 22.3033 0.0461216 18.5199 2.37132 16.1947ZM18.8823 15.4021L24.0543 10.2305C25.0272 9.25759 25.563 7.96402 25.563 6.58809C25.563 5.21221 25.0271 3.91864 24.0543 2.9457C23.0814 1.97276 21.7878 1.43698 20.4118 1.43698C19.0359 1.43698 17.7424 1.97281 16.7694 2.9457L11.5977 8.11737C11.2218 8.49337 10.9119 8.91487 10.6716 9.37624C10.6991 9.37112 10.7268 9.36685 10.7542 9.36216C10.7727 9.359 10.7911 9.35573 10.8096 9.35272C10.8815 9.34112 10.9536 9.33062 11.0259 9.32166C11.0327 9.32082 11.0396 9.32018 11.0465 9.31939C11.1128 9.31143 11.1793 9.30478 11.246 9.29904C11.2641 9.29751 11.282 9.29608 11.3001 9.29466C11.3649 9.2897 11.4299 9.28559 11.495 9.28279C11.504 9.28243 11.513 9.28174 11.5219 9.28137C11.5957 9.27847 11.6696 9.27705 11.7436 9.27689C11.7491 9.27689 11.7545 9.27657 11.7601 9.27657C11.7698 9.27657 11.7796 9.27715 11.7893 9.27721C11.86 9.27757 11.9308 9.27916 12.0018 9.282C12.0157 9.28253 12.0296 9.28285 12.0436 9.28353C12.0508 9.28385 12.0579 9.28396 12.0651 9.28427C12.1787 9.13372 12.303 8.9907 12.4363 8.85734L17.5096 3.78401C18.2717 3.02201 19.2848 2.60235 20.3626 2.60235C21.4601 2.60235 22.4867 3.03556 23.2531 3.82214C24.7853 5.39461 24.7512 7.95437 23.1773 9.52838L18.1423 14.5634C18.0104 14.6953 17.8686 14.8176 17.7198 14.9302L17.7206 14.9398L17.5189 15.0737C17.4787 15.1005 17.438 15.1264 17.397 15.1516C17.112 15.3264 16.8078 15.4639 16.4909 15.5624C16.4881 15.5633 16.4853 15.5643 16.4825 15.5652C16.4451 15.5767 16.4073 15.5874 16.3696 15.5977C16.3612 15.6001 16.3529 15.6027 16.3444 15.605C16.3095 15.6145 16.2743 15.6229 16.2391 15.6314C16.2277 15.6341 16.2165 15.6373 16.205 15.6399C16.1725 15.6474 16.1396 15.6541 16.1068 15.6608C16.0926 15.6637 16.0785 15.667 16.0642 15.6698C16.0364 15.6753 16.0083 15.6797 15.9803 15.6845C15.9609 15.6879 15.9416 15.6917 15.922 15.6948C15.8996 15.6983 15.877 15.701 15.8544 15.7042C15.8292 15.7077 15.8041 15.7117 15.7788 15.7147C15.7608 15.7169 15.7428 15.7183 15.7248 15.7203C15.6948 15.7236 15.6648 15.727 15.6346 15.7296C15.6203 15.7308 15.606 15.7314 15.5917 15.7324C15.5577 15.735 15.5237 15.7376 15.4896 15.7392C15.4795 15.7397 15.4693 15.7398 15.4592 15.7402C15.4213 15.7418 15.3834 15.7433 15.3455 15.7438L15.3427 15.7438L14.9266 15.742L14.9267 15.7285C13.9851 15.6461 13.1119 15.2388 12.4363 14.5632C11.7656 13.8924 11.3612 13.0297 11.2734 12.0973C11.2655 12.0984 11.2577 12.0994 11.2498 12.1006C11.2162 12.1054 11.1826 12.1108 11.1493 12.1166C11.1369 12.1188 11.1244 12.1208 11.112 12.1231C11.0669 12.1315 11.0221 12.1407 10.9775 12.151C10.9761 12.1513 10.9747 12.1517 10.9733 12.1521C10.9305 12.1621 10.888 12.1732 10.8457 12.1848C10.833 12.1884 10.8204 12.1921 10.8077 12.1958C10.7754 12.2052 10.7432 12.2151 10.7111 12.2255C10.6985 12.2296 10.6858 12.2336 10.6732 12.2378C10.6336 12.2513 10.5943 12.2653 10.5552 12.2803C10.5518 12.2816 10.5485 12.2827 10.5451 12.284C10.5026 12.3004 10.4606 12.318 10.4189 12.3362C10.4076 12.3412 10.3964 12.3464 10.3852 12.3515C10.3541 12.3655 10.3233 12.38 10.2926 12.395C10.2804 12.401 10.2681 12.4071 10.2559 12.4132C10.2221 12.4303 10.1887 12.448 10.1555 12.4663C10.15 12.4693 10.1444 12.4722 10.1389 12.4753C10.2936 13.5789 10.806 14.6102 11.5977 15.4019C12.4484 16.2526 13.5757 16.7808 14.7722 16.8892C14.9269 16.9032 15.0842 16.9104 15.2396 16.9104C15.3384 16.9104 15.4369 16.9065 15.5351 16.901C15.9982 16.8746 16.4541 16.7874 16.8939 16.6388C17.6472 16.3843 18.3163 15.9682 18.8823 15.4021ZM13.0291 9.41389C14.1393 9.65605 15.1666 10.2129 15.9769 11.0231C16.7871 11.8333 17.3439 12.8607 17.5861 13.9709L22.603 8.95405C23.8643 7.69276 23.8949 5.645 22.6714 4.38935C22.0592 3.76102 21.2393 3.41503 20.3627 3.41503C19.5019 3.41503 18.6928 3.75021 18.0842 4.35881L13.0291 9.41389ZM14.9094 14.9086C14.826 14.1918 14.5079 13.5293 13.9893 13.0108C13.4716 12.493 12.8079 12.1742 12.0907 12.0907C12.174 12.8077 12.4922 13.4705 13.0109 13.9891C13.5287 14.5069 14.1916 14.8245 14.9094 14.9086ZM9.41405 13.0288L4.39715 18.0458C3.13586 19.307 3.10517 21.3547 4.32875 22.6104C4.94094 23.2387 5.76085 23.5847 6.63745 23.5847C7.49817 23.5847 8.30737 23.2495 8.91598 22.6409L13.9711 17.5858C12.8609 17.3437 11.8335 16.7868 11.0233 15.9766C10.213 15.1664 9.6562 14.1391 9.41405 13.0288ZM2.94586 24.0541C3.9188 25.027 5.21236 25.5628 6.58825 25.5628C7.96413 25.5628 9.25774 25.027 10.2307 24.0541L15.4024 18.8824C15.7784 18.5064 16.0883 18.085 16.3286 17.6236C16.3012 17.6286 16.2737 17.6329 16.2463 17.6375C16.2274 17.6408 16.2086 17.6441 16.1896 17.6472C16.1187 17.6586 16.0477 17.6689 15.9764 17.6777C15.9656 17.6791 15.9547 17.68 15.9439 17.6813C15.8825 17.6886 15.821 17.6948 15.7594 17.7001C15.7375 17.702 15.7157 17.7037 15.6939 17.7054C15.6357 17.7098 15.5774 17.7134 15.519 17.7161C15.5039 17.7167 15.4889 17.7178 15.4738 17.7184C15.4029 17.7211 15.332 17.7224 15.2609 17.7227C15.2538 17.7227 15.2468 17.7231 15.2399 17.7231C15.2398 17.7231 15.2398 17.7231 15.2398 17.7231C15.1983 17.7231 15.1567 17.7226 15.1151 17.7217C15.1135 17.7217 15.112 17.7217 15.1105 17.7217C15.0569 17.7205 15.0033 17.7184 14.9497 17.7159C14.9449 17.7157 14.94 17.7156 14.9351 17.7154C14.8215 17.8659 14.6973 18.0089 14.5639 18.1423L9.49067 23.2156C8.72861 23.9776 7.71538 24.3973 6.63766 24.3973C5.54011 24.3973 4.51353 23.9641 3.7471 23.1775C2.21491 21.605 2.24892 19.0453 3.82288 17.4713L8.85792 12.4362C8.9898 12.3043 9.13166 12.182 9.28047 12.0695L9.27963 12.06L9.48123 11.926C9.52141 11.8993 9.56207 11.8734 9.6031 11.8481C9.61776 11.8392 9.63279 11.8307 9.64755 11.8219C9.67403 11.8061 9.70045 11.7901 9.72729 11.775C9.7488 11.7629 9.77069 11.7515 9.79241 11.7397C9.81287 11.7286 9.83312 11.7172 9.85374 11.7065C9.87974 11.693 9.90606 11.6804 9.93232 11.6675C9.94898 11.6593 9.96554 11.6507 9.98231 11.6427C10.0101 11.6295 10.0382 11.6172 10.0663 11.6047C10.0819 11.5978 10.0973 11.5903 10.113 11.5835C10.142 11.571 10.1714 11.5594 10.2007 11.5476C10.2158 11.5415 10.2305 11.5351 10.2456 11.5292C10.2747 11.5179 10.304 11.5075 10.3333 11.4968C10.3489 11.4912 10.3644 11.4851 10.38 11.4796C10.4092 11.4694 10.4387 11.4601 10.4681 11.4506C10.4842 11.4455 10.5001 11.4399 10.5161 11.4349C10.5452 11.4259 10.5746 11.4177 10.6039 11.4094C10.6206 11.4047 10.6372 11.3995 10.6539 11.3951C10.6815 11.3876 10.7092 11.381 10.7369 11.3742C10.7557 11.3696 10.7744 11.3645 10.7933 11.3601C10.8194 11.354 10.8456 11.3488 10.8718 11.3433C10.8925 11.3389 10.9132 11.3341 10.9339 11.3301C10.9585 11.3253 10.9833 11.3213 11.008 11.317C11.0306 11.313 11.0532 11.3086 11.076 11.305C11.0984 11.3015 11.121 11.2987 11.1435 11.2955C11.1687 11.292 11.1939 11.2881 11.2192 11.2851C11.2391 11.2826 11.2592 11.2809 11.2792 11.2788C11.3073 11.2758 11.3353 11.2726 11.3634 11.2701C11.381 11.2686 11.3986 11.2678 11.4162 11.2665C11.4469 11.2643 11.4776 11.2618 11.5085 11.2603C11.524 11.2596 11.5396 11.2594 11.5551 11.2588C11.5865 11.2576 11.6179 11.2562 11.6494 11.2557L11.6556 11.2556C11.6557 11.2556 11.6558 11.2556 11.6559 11.2556C11.656 11.2556 11.6562 11.2556 11.6564 11.2556C11.6745 11.2554 11.6926 11.2553 11.7108 11.2553C12.7889 11.2553 13.802 11.6746 14.5636 12.4362C15.2355 13.1081 15.6399 13.9723 15.7268 14.902C15.7348 14.9009 15.7429 14.8999 15.7509 14.8986C15.784 14.8939 15.817 14.8886 15.85 14.8828C15.8628 14.8806 15.8758 14.8784 15.8887 14.8761C15.9333 14.8677 15.9778 14.8586 16.022 14.8484C16.0249 14.8478 16.0278 14.8469 16.0307 14.8462C16.072 14.8365 16.1129 14.8259 16.1538 14.8146C16.1671 14.8109 16.1802 14.807 16.1934 14.8032C16.2251 14.794 16.2566 14.7843 16.2879 14.7741C16.3011 14.7698 16.3142 14.7657 16.3274 14.7612C16.3661 14.748 16.4048 14.7342 16.443 14.7196C16.4471 14.718 16.4512 14.7167 16.4552 14.7151C16.4974 14.6987 16.5392 14.6813 16.5808 14.6631C16.5924 14.6581 16.604 14.6527 16.6154 14.6475C16.6461 14.6337 16.6766 14.6194 16.7068 14.6046C16.7194 14.5984 16.732 14.5922 16.7446 14.5859C16.7778 14.5691 16.8107 14.5517 16.8433 14.5337C16.8492 14.5304 16.8552 14.5273 16.8611 14.524C16.7064 13.4205 16.194 12.3891 15.4024 11.5975C14.5517 10.7468 13.4243 10.2186 12.2278 10.1102C12.073 10.0961 11.9156 10.089 11.7602 10.089C11.619 10.089 11.4784 10.0947 11.3385 10.1061C11.2632 10.1122 11.1881 10.1203 11.1132 10.1297C10.771 10.1727 10.434 10.2497 10.106 10.3606C9.35256 10.6152 8.68352 11.0313 8.11748 11.5974L2.94575 16.7692C0.937431 18.7777 0.937485 22.0457 2.94586 24.0541Z" fill="white"/>
<path d="M4.18566 3.61028L7.2475 6.67212L6.67304 7.24658L3.61119 4.18474L4.18566 3.61028Z" fill="white"/>
<path d="M11.0989 0H11.9113V4.3302H11.0989V0Z" fill="white"/>
<path d="M0 11.0991H4.33019V11.9115H0V11.0991Z" fill="white"/>
<path d="M20.3285 19.7521L23.3904 22.814L22.8159 23.3884L19.7541 20.3266L20.3285 19.7521Z" fill="white"/>
<path d="M22.6698 15.0886H27V15.901H22.6698V15.0886Z" fill="white"/>
<path d="M15.0885 22.6697H15.901V26.9999H15.0885V22.6697Z" fill="white"/>
</svg>
