<svg width="286" height="286" viewBox="0 0 286 286" fill="none" xmlns="http://www.w3.org/2000/svg">
<g opacity="0.1" clip-path="url(#clip0)">
<path d="M25.1183 171.544L79.9008 116.763C86.3397 110.325 93.87 105.469 102.307 102.305C105.471 93.8686 110.326 86.3377 116.764 79.8988L171.546 25.1168C183.477 13.1859 199.341 6.61523 216.213 6.61523C233.086 6.61523 248.95 13.1859 260.882 25.1168C272.814 37.0477 279.385 52.9117 279.385 69.7844C279.385 86.6572 272.814 102.522 260.883 114.452L206.101 169.234C199.662 175.672 192.131 180.527 183.694 183.691C180.53 192.128 175.675 199.659 169.236 206.098L114.454 260.88C102.523 272.811 86.6592 279.382 69.7865 279.382C52.9137 279.382 37.0498 272.811 25.1189 260.88C0.488428 236.25 0.488428 196.174 25.1183 171.544ZM200.013 163.149L254.797 108.367C265.103 98.0619 270.778 84.3597 270.778 69.785C270.778 55.2108 265.102 41.5086 254.797 31.2027C244.491 20.8967 230.789 15.2214 216.214 15.2214C201.639 15.2214 187.938 20.8972 177.632 31.2027L122.85 85.9841C118.867 89.9668 115.585 94.4316 113.04 99.3187C113.331 99.2645 113.624 99.2193 113.915 99.1696C114.111 99.1361 114.305 99.1014 114.502 99.0696C115.263 98.9467 116.026 98.8355 116.793 98.7406C116.865 98.7316 116.938 98.7249 117.011 98.7166C117.713 98.6322 118.418 98.5618 119.124 98.5009C119.315 98.4847 119.506 98.4697 119.698 98.4546C120.384 98.4021 121.072 98.3585 121.762 98.3289C121.857 98.325 121.952 98.3177 122.047 98.3138C122.828 98.2831 123.611 98.268 124.395 98.2663C124.453 98.2663 124.511 98.263 124.57 98.263C124.672 98.263 124.776 98.2691 124.879 98.2697C125.628 98.2736 126.378 98.2904 127.13 98.3205C127.278 98.3261 127.425 98.3295 127.573 98.3367C127.649 98.3401 127.724 98.3412 127.801 98.3445C129.004 96.7498 130.32 95.2349 131.733 93.8222L185.472 40.0826C193.544 32.0109 204.276 27.5657 215.692 27.5657C227.318 27.5657 238.192 32.1545 246.311 40.4864C262.54 57.143 262.18 84.2575 245.508 100.93L192.174 154.264C190.777 155.661 189.274 156.957 187.698 158.149L187.707 158.251L185.571 159.67C185.145 159.953 184.714 160.228 184.279 160.495C181.261 162.347 178.038 163.803 174.682 164.846C174.652 164.855 174.622 164.866 174.592 164.875C174.196 164.998 173.796 165.111 173.396 165.221C173.307 165.245 173.219 165.274 173.13 165.298C172.76 165.398 172.387 165.488 172.014 165.577C171.893 165.606 171.774 165.639 171.653 165.667C171.308 165.747 170.96 165.817 170.613 165.888C170.462 165.919 170.313 165.955 170.162 165.984C169.867 166.042 169.57 166.089 169.273 166.14C169.067 166.176 168.862 166.216 168.656 166.248C168.418 166.286 168.178 166.315 167.94 166.348C167.673 166.386 167.406 166.428 167.138 166.459C166.948 166.482 166.757 166.498 166.567 166.519C166.248 166.553 165.93 166.59 165.611 166.617C165.459 166.63 165.307 166.637 165.156 166.647C164.796 166.674 164.436 166.702 164.075 166.719C163.967 166.724 163.86 166.725 163.752 166.729C163.351 166.746 162.95 166.762 162.548 166.767L162.518 166.768L158.111 166.749L158.113 166.605C148.139 165.733 138.888 161.418 131.732 154.262C124.628 147.157 120.344 138.018 119.415 128.141C119.331 128.153 119.248 128.164 119.165 128.177C118.808 128.227 118.453 128.284 118.099 128.346C117.968 128.369 117.836 128.391 117.704 128.415C117.227 128.504 116.752 128.602 116.28 128.711C116.265 128.714 116.25 128.718 116.235 128.722C115.782 128.828 115.332 128.946 114.884 129.069C114.75 129.107 114.615 129.146 114.481 129.185C114.139 129.284 113.798 129.389 113.459 129.499C113.325 129.543 113.19 129.586 113.057 129.631C112.638 129.773 112.221 129.922 111.807 130.08C111.771 130.094 111.735 130.106 111.7 130.12C111.25 130.294 110.805 130.48 110.363 130.673C110.243 130.725 110.125 130.781 110.006 130.834C109.677 130.983 109.35 131.136 109.026 131.295C108.896 131.359 108.765 131.423 108.636 131.488C108.279 131.669 107.924 131.857 107.573 132.051C107.514 132.083 107.455 132.114 107.397 132.146C109.036 143.835 114.464 154.76 122.849 163.146C131.86 172.157 143.802 177.752 156.476 178.9C158.114 179.049 159.78 179.125 161.427 179.125C162.473 179.125 163.517 179.084 164.557 179.025C169.462 178.746 174.291 177.822 178.95 176.248C186.93 173.552 194.017 169.145 200.013 163.149ZM138.011 99.7176C149.771 102.283 160.654 108.181 169.237 116.763C177.819 125.346 183.717 136.228 186.282 147.988L239.424 94.8466C252.784 81.4863 253.109 59.7952 240.148 46.4946C233.664 39.839 224.979 36.1741 215.693 36.1741C206.576 36.1741 198.005 39.7245 191.558 46.1712L138.011 99.7176ZM157.929 157.921C157.046 150.328 153.676 143.31 148.183 137.818C142.699 132.334 135.669 128.957 128.072 128.072C128.954 135.667 132.325 142.688 137.819 148.181C143.304 153.666 150.326 157.03 157.929 157.921ZM99.719 138.009L46.5771 191.151C33.2167 204.511 32.8916 226.202 45.8526 239.503C52.3373 246.158 61.0222 249.823 70.3076 249.823C79.4249 249.823 87.9965 246.273 94.4432 239.826L147.99 186.279C136.23 183.714 125.348 177.816 116.765 169.233C108.182 160.651 102.284 149.769 99.719 138.009ZM31.2041 254.795C41.5101 265.101 55.2123 270.777 69.7865 270.777C84.3606 270.777 98.0634 265.101 108.369 254.795L163.151 200.013C167.134 196.031 170.416 191.567 172.962 186.679C172.672 186.733 172.381 186.778 172.09 186.827C171.89 186.861 171.69 186.897 171.49 186.93C170.739 187.05 169.986 187.16 169.231 187.253C169.116 187.268 169.001 187.277 168.887 187.291C168.237 187.368 167.585 187.434 166.932 187.49C166.701 187.51 166.47 187.528 166.239 187.546C165.622 187.593 165.005 187.631 164.386 187.659C164.227 187.666 164.067 187.678 163.907 187.684C163.157 187.713 162.405 187.727 161.652 187.729C161.577 187.729 161.503 187.734 161.43 187.734C161.429 187.734 161.429 187.734 161.429 187.734C160.99 187.734 160.549 187.728 160.108 187.719C160.091 187.719 160.075 187.719 160.059 187.718C159.491 187.706 158.924 187.684 158.356 187.657C158.305 187.655 158.253 187.655 158.201 187.652C156.998 189.247 155.682 190.761 154.27 192.174L100.531 245.913C92.4585 253.985 81.7258 258.431 70.3099 258.431C58.684 258.431 47.8099 253.842 39.6914 245.51C23.4615 228.853 23.8218 201.739 40.494 185.066L93.8281 131.731C95.2252 130.334 96.7278 129.039 98.3041 127.847L98.2952 127.746L100.431 126.327C100.856 126.044 101.287 125.77 101.722 125.503C101.877 125.408 102.036 125.318 102.192 125.225C102.473 125.057 102.753 124.888 103.037 124.728C103.265 124.599 103.497 124.479 103.727 124.354C103.944 124.237 104.158 124.116 104.377 124.002C104.652 123.859 104.931 123.726 105.209 123.589C105.385 123.502 105.561 123.411 105.738 123.326C106.033 123.187 106.33 123.057 106.628 122.924C106.793 122.85 106.957 122.772 107.123 122.7C107.43 122.567 107.741 122.444 108.052 122.319C108.211 122.255 108.368 122.186 108.527 122.124C108.835 122.004 109.146 121.894 109.456 121.781C109.622 121.722 109.786 121.657 109.951 121.599C110.261 121.491 110.573 121.392 110.885 121.292C111.054 121.237 111.223 121.178 111.393 121.125C111.701 121.03 112.012 120.943 112.323 120.856C112.5 120.805 112.676 120.751 112.853 120.703C113.144 120.624 113.439 120.555 113.731 120.483C113.931 120.433 114.129 120.379 114.329 120.333C114.605 120.269 114.883 120.213 115.16 120.155C115.38 120.109 115.599 120.058 115.819 120.015C116.079 119.965 116.342 119.922 116.603 119.876C116.843 119.834 117.082 119.788 117.323 119.75C117.56 119.712 117.801 119.683 118.039 119.649C118.306 119.611 118.572 119.57 118.84 119.538C119.051 119.512 119.264 119.494 119.476 119.472C119.773 119.44 120.07 119.406 120.368 119.38C120.554 119.364 120.741 119.355 120.927 119.341C121.252 119.318 121.578 119.292 121.905 119.276C122.069 119.268 122.234 119.267 122.398 119.26C122.731 119.247 123.064 119.232 123.398 119.227L123.462 119.226C123.464 119.226 123.465 119.226 123.466 119.226C123.467 119.226 123.47 119.226 123.471 119.226C123.663 119.223 123.855 119.222 124.047 119.222C135.467 119.222 146.199 123.665 154.266 131.731C161.383 138.848 165.667 148.003 166.588 157.851C166.673 157.839 166.758 157.828 166.842 157.815C167.194 157.765 167.543 157.709 167.892 157.648C168.028 157.624 168.166 157.601 168.302 157.576C168.775 157.487 169.247 157.391 169.715 157.283C169.745 157.276 169.776 157.267 169.807 157.26C170.244 157.157 170.678 157.045 171.11 156.925C171.251 156.886 171.39 156.845 171.53 156.804C171.866 156.707 172.199 156.604 172.531 156.496C172.671 156.451 172.81 156.407 172.949 156.359C173.36 156.219 173.769 156.074 174.174 155.918C174.217 155.902 174.261 155.888 174.304 155.871C174.75 155.698 175.193 155.513 175.634 155.321C175.756 155.267 175.879 155.21 176.001 155.155C176.325 155.008 176.648 154.857 176.968 154.701C177.102 154.635 177.236 154.569 177.369 154.502C177.72 154.325 178.068 154.14 178.414 153.949C178.477 153.915 178.54 153.882 178.602 153.847C176.964 142.158 171.536 131.233 163.151 122.848C154.14 113.836 142.198 108.241 129.524 107.093C127.884 106.944 126.217 106.869 124.571 106.869C123.075 106.869 121.586 106.929 120.104 107.05C119.306 107.114 118.511 107.2 117.717 107.3C114.093 107.756 110.523 108.571 107.049 109.745C99.0677 112.442 91.9809 116.851 85.985 122.847L31.203 177.629C9.92971 198.905 9.93026 233.521 31.2041 254.795Z" fill="white"/>
<path d="M44.3369 38.2444L76.7698 70.6772L70.6848 76.7623L38.2519 44.3294L44.3369 38.2444Z" fill="white"/>
<path d="M117.566 0H126.172V45.868H117.566V0Z" fill="white"/>
<path d="M9.53674e-05 117.568H45.8681V126.174H9.53674e-05V117.568Z" fill="white"/>
<path d="M215.332 209.226L247.765 241.659L241.68 247.744L209.247 215.311L215.332 209.226Z" fill="white"/>
<path d="M240.132 159.83H286V168.436H240.132V159.83Z" fill="white"/>
<path d="M159.827 240.133H168.432V286.001H159.827V240.133Z" fill="white"/>
</g>
<defs>
<clipPath id="clip0">
<rect width="286" height="286" fill="white" transform="matrix(-1 0 0 1 286 0)"/>
</clipPath>
</defs>
</svg>
