<svg width="670" height="250" viewBox="0 0 670 250" fill="none" xmlns="http://www.w3.org/2000/svg">
<path opacity="0.1" d="M591.223 202.232C628.69 184.826 638.936 161.473 651.481 138.454C667.273 109.478 682.257 64.9622 632.476 40.1156C581.198 14.5224 493.679 30.2573 444.578 35.1864C395.476 40.1156 385.476 35.1864 347.476 24.9998C295.476 13 259.476 25.1867 222.476 35.1864C185.476 45.1862 143.856 13.9998 87.4756 24.9998C31.0951 35.9998 -1.08618 99.8068 5.47561 129C12.0519 158.258 27.4756 193.767 109.476 212C191.476 230.232 221.476 194 284.476 218C347.476 242 389.209 237.557 445.034 234.365C502.986 231.05 554.303 219.384 591.223 202.232Z" fill="#FFB854"/>
<path d="M105.206 61.428L105.618 57.6359L99.8479 57.1333L99.996 55.7702L106.679 47.8672L108.317 48.0098L107.404 56.4155L109.916 56.6343L109.768 57.9974L107.255 57.7785L106.843 61.5707L105.206 61.428ZM105.766 56.2728L106.412 50.3312L101.73 55.9212L105.766 56.2728ZM116.679 48.3325C118.225 48.4672 119.334 49.2194 120.004 50.5891C120.675 51.9529 120.891 53.7329 120.653 55.9289C120.413 58.1308 119.818 59.8459 118.865 61.0742C117.913 62.2967 116.664 62.8406 115.117 62.7059C113.576 62.5716 112.467 61.8224 111.79 60.458C111.12 59.0883 110.905 57.3026 111.144 55.1007C111.382 52.9046 111.978 51.1953 112.929 49.9728C113.888 48.745 115.138 48.1982 116.679 48.3325ZM112.93 58.1846L118.43 51.2458C118.191 50.6781 117.907 50.2859 117.577 50.0689C117.254 49.8467 116.905 49.7193 116.531 49.6868C115.557 49.6019 114.756 50.079 114.131 51.1183C113.506 52.1517 113.103 53.4985 112.923 55.1586C112.882 55.5372 112.849 55.946 112.825 56.3849C112.801 56.8238 112.836 57.4237 112.93 58.1846ZM118.841 52.9134L113.371 59.8989C113.576 60.346 113.83 60.6915 114.134 60.9356C114.438 61.1737 114.791 61.3104 115.194 61.3454C116.303 61.442 117.158 60.8932 117.759 59.699C118.361 58.4989 118.744 57.1445 118.908 55.6358C119.009 54.7038 118.987 53.7963 118.841 52.9134ZM126.746 63.3042L127.158 59.5121L121.387 59.0095L121.536 57.6464L128.219 49.7434L129.856 49.886L128.943 58.2916L131.456 58.5105L131.308 59.8736L128.795 59.6547L128.383 63.4468L126.746 63.3042ZM127.306 58.149L127.951 52.2074L123.269 57.7974L127.306 58.149ZM143.452 64.7594L144.512 54.9995L146.141 55.1413L145.909 57.2733C146.458 56.5626 147.085 56.0233 147.791 55.6555C148.497 55.2877 149.179 55.1326 149.839 55.19C150.417 55.2404 150.926 55.4405 151.365 55.7904C151.805 56.1345 152.091 56.5622 152.224 57.0736C152.363 57.5856 152.354 58.5667 152.196 60.0172L151.604 65.4695L149.975 65.3276L150.589 59.6744C150.691 58.7365 150.712 58.115 150.65 57.8098C150.596 57.4992 150.456 57.2372 150.232 57.0236C150.014 56.8105 149.761 56.6915 149.475 56.6666C148.903 56.6168 148.258 56.834 147.54 57.3183C146.827 57.8031 146.213 58.4347 145.698 59.2131L145.08 64.9013L143.452 64.7594ZM158.22 66.3192C156.819 66.1972 155.751 65.6132 155.016 64.5672C154.282 63.5153 153.996 62.2467 154.157 60.7613C154.318 59.2759 154.872 58.0834 155.818 57.1838C156.765 56.2843 157.938 55.8955 159.339 56.0175C160.734 56.139 161.799 56.7228 162.534 57.7688C163.269 58.8148 163.556 60.0805 163.394 61.5659C163.233 63.0513 162.679 64.2467 161.732 65.1521C160.786 66.0517 159.615 66.4407 158.22 66.3192ZM158.367 64.9649C159.237 65.0406 159.965 64.763 160.552 64.1321C161.139 63.5011 161.497 62.5944 161.626 61.4119C161.754 60.2352 161.597 59.2866 161.157 58.5662C160.717 57.8457 160.062 57.4476 159.192 57.3719C158.316 57.2956 157.585 57.5729 156.998 58.2039C156.411 58.8349 156.053 59.7387 155.926 60.9154C155.797 62.0979 155.953 63.0493 156.393 63.7698C156.834 64.4902 157.491 64.8886 158.367 64.9649ZM173.212 66.9547C172.413 67.2085 171.838 67.3495 171.487 67.3778C171.135 67.4119 170.799 67.4149 170.478 67.387C169.795 67.3275 169.185 67.142 168.647 66.8305C168.109 66.5191 167.722 66.0944 167.486 65.5563C167.256 65.0188 167.199 64.2141 167.315 63.1423L167.743 59.2104L165.3 58.9976L165.447 57.6433L167.89 57.856L168.317 53.9241L169.946 54.066L169.518 57.9979L173.87 58.377L173.723 59.7313L169.371 59.3522L168.947 63.258C168.861 64.0443 168.894 64.6088 169.046 64.9513C169.198 65.2879 169.42 65.5454 169.713 65.7238C170.012 65.9027 170.374 66.0108 170.8 66.0479C171.588 66.1165 172.444 65.9411 173.368 65.5218L173.212 66.9547ZM188.807 68.7101L189.632 61.1171L187.461 60.9279L187.608 59.5736L189.78 59.7627L189.829 59.3084C189.969 58.021 190.218 57.0813 190.577 56.4893C190.936 55.8973 191.441 55.4296 192.091 55.0864C192.747 54.7437 193.577 54.6161 194.581 54.7035C195.34 54.7696 196.102 54.9154 196.867 55.1408L196.699 56.6873C195.883 56.334 195.148 56.1289 194.494 56.0719C193.974 56.0267 193.506 56.0829 193.088 56.2405C192.67 56.3982 192.324 56.6855 192.049 57.1026C191.78 57.5143 191.589 58.2386 191.477 59.2755L191.408 59.9046L195.287 60.2425L195.14 61.5968L191.261 61.2589L190.436 68.8519L188.807 68.7101ZM201.299 70.0716C199.898 69.9495 198.83 69.3655 198.095 68.3195C197.361 67.2677 197.075 65.9991 197.236 64.5137C197.397 63.0283 197.951 61.8358 198.897 60.9362C199.844 60.0366 201.017 59.6479 202.418 59.7699C203.813 59.8914 204.878 60.4752 205.613 61.5212C206.348 62.5672 206.635 63.8329 206.473 65.3183C206.312 66.8037 205.758 67.9991 204.811 68.9045C203.865 69.8041 202.694 70.1931 201.299 70.0716ZM201.446 68.7172C202.316 68.793 203.044 68.5154 203.631 67.8844C204.218 67.2535 204.576 66.3467 204.705 65.1642C204.833 63.9876 204.676 63.039 204.236 62.3186C203.796 61.5981 203.141 61.2 202.271 61.1242C201.396 61.048 200.664 61.3253 200.077 61.9563C199.49 62.5872 199.133 63.4911 199.005 64.6677C198.876 65.8502 199.032 66.8017 199.472 67.5222C199.913 68.2426 200.571 68.641 201.446 68.7172ZM217.178 61.3289L216.117 71.0889L214.489 70.947L214.721 68.8063C214.108 69.5644 213.459 70.1164 212.773 70.4624C212.088 70.8084 211.424 70.9535 210.782 70.8976C210.21 70.8477 209.701 70.6505 209.255 70.3059C208.816 69.956 208.53 69.5253 208.397 69.0139C208.264 68.4967 208.276 67.5158 208.433 66.0712L209.026 60.6189L210.654 60.7607L210.04 66.414C209.938 67.3518 209.915 67.976 209.969 68.2865C210.03 68.5918 210.17 68.8509 210.389 69.064C210.613 69.2776 210.865 69.3966 211.145 69.421C211.717 69.4708 212.359 69.2562 213.071 68.7773C213.79 68.293 214.41 67.659 214.931 66.8753L215.549 61.1871L217.178 61.3289ZM218.84 71.3261L219.901 61.5661L221.529 61.708L221.298 63.84C221.846 63.1292 222.473 62.5899 223.179 62.2222C223.885 61.8544 224.568 61.6992 225.227 61.7567C225.805 61.807 226.314 62.0071 226.753 62.357C227.193 62.7011 227.48 63.1289 227.613 63.6403C227.751 64.1522 227.742 65.1334 227.584 66.5838L226.992 72.0361L225.363 71.8943L225.978 66.241C226.08 65.3032 226.1 64.6816 226.039 64.3764C225.984 64.0659 225.845 63.8038 225.62 63.5902C225.402 63.3772 225.15 63.2582 224.864 63.2333C224.292 63.1834 223.646 63.4007 222.928 63.8849C222.215 64.3697 221.602 65.0013 221.087 65.7797L220.469 71.4679L218.84 71.3261ZM236.38 70.64C235.795 71.4123 235.13 71.9747 234.385 72.3273C233.645 72.6803 232.984 72.8314 232.4 72.7806C231.583 72.7094 230.886 72.2929 230.308 71.5312C229.737 70.7699 229.529 69.6728 229.685 68.2398C229.808 67.1097 230.133 66.1208 230.661 65.273C231.19 64.4194 231.844 63.7678 232.624 63.3182C233.404 62.8629 234.328 62.6817 235.396 62.7747C235.706 62.8017 236.169 62.8744 236.787 62.9929C236.879 63.0127 237.017 63.0394 237.202 63.0732L237.674 58.7306L239.312 58.8732L237.779 72.9757L236.142 72.8331L236.38 70.64ZM236.59 68.7089L237.045 64.5236C236.483 64.3218 235.955 64.1993 235.458 64.1561C234.454 64.0687 233.575 64.3831 232.819 65.0993C232.069 65.8161 231.622 66.8415 231.477 68.1754C231.372 69.1424 231.474 69.8892 231.782 70.4158C232.096 70.9372 232.487 71.2182 232.954 71.2589C233.462 71.3031 234.05 71.0956 234.719 70.6364C235.387 70.1772 236.011 69.5347 236.59 68.7089Z" fill="#555555"/>
<path d="M41.1279 108.907V102.359H48.7656V103.933H42.7626V107.272H43.0439C45.0068 107.272 46.5185 107.683 47.579 108.503C48.6396 109.323 49.1699 110.428 49.1699 111.816C49.1699 112.695 48.956 113.483 48.5283 114.181C48.1005 114.878 47.497 115.426 46.7177 115.824C45.9384 116.217 45.1093 116.413 44.2304 116.413C43.3515 116.413 42.2265 116.199 40.8554 115.771V113.987C41.3535 114.257 41.9101 114.479 42.5253 114.655C43.1406 114.825 43.7089 114.91 44.2304 114.91C44.7519 114.91 45.2617 114.784 45.7597 114.532C46.2578 114.28 46.6445 113.914 46.9199 113.434C47.1953 112.947 47.3329 112.452 47.3329 111.948C47.3329 111.099 46.955 110.381 46.1992 109.795C45.4492 109.203 44.1132 108.907 42.1913 108.907H41.1279ZM55.6826 101.955C57.2353 101.955 58.4189 102.608 59.2333 103.915C60.0478 105.216 60.455 106.971 60.455 109.18C60.455 111.395 60.0478 113.155 59.2333 114.462C58.4189 115.763 57.2353 116.413 55.6826 116.413C54.1357 116.413 52.9521 115.763 52.1318 114.462C51.3173 113.155 50.9101 111.395 50.9101 109.18C50.9101 106.971 51.3173 105.216 52.1318 103.915C52.9521 102.608 54.1357 101.955 55.6826 101.955ZM53.0195 112.098L57.7392 104.706C57.4404 104.161 57.1152 103.795 56.7636 103.607C56.4179 103.414 56.0576 103.317 55.6826 103.317C54.704 103.317 53.9599 103.862 53.4501 104.952C52.9404 106.036 52.6855 107.413 52.6855 109.083C52.6855 109.464 52.6972 109.874 52.7206 110.313C52.7441 110.753 52.8437 111.348 53.0195 112.098ZM58.3281 106.332L53.6435 113.768C53.8954 114.195 54.1855 114.518 54.5136 114.734C54.8417 114.945 55.2079 115.051 55.6122 115.051C56.7255 115.051 57.5165 114.43 57.9853 113.188C58.454 111.939 58.6884 110.557 58.6884 109.039C58.6884 108.102 58.5683 107.199 58.3281 106.332ZM66.4931 101.955C68.0458 101.955 69.2294 102.608 70.0439 103.915C70.8583 105.216 71.2656 106.971 71.2656 109.18C71.2656 111.395 70.8583 113.155 70.0439 114.462C69.2294 115.763 68.0458 116.413 66.4931 116.413C64.9462 116.413 63.7626 115.763 62.9423 114.462C62.1279 113.155 61.7206 111.395 61.7206 109.18C61.7206 106.971 62.1279 105.216 62.9423 103.915C63.7626 102.608 64.9462 101.955 66.4931 101.955ZM63.83 112.098L68.5497 104.706C68.2509 104.161 67.9257 103.795 67.5742 103.607C67.2285 103.414 66.8681 103.317 66.4931 103.317C65.5146 103.317 64.7704 103.862 64.2607 104.952C63.7509 106.036 63.496 107.413 63.496 109.083C63.496 109.464 63.5078 109.874 63.5312 110.313C63.5546 110.753 63.6542 111.348 63.83 112.098ZM69.1386 106.332L64.454 113.768C64.706 114.195 64.996 114.518 65.3242 114.734C65.6523 114.945 66.0185 115.051 66.4228 115.051C67.5361 115.051 68.3271 114.43 68.7958 113.188C69.2646 111.939 69.499 110.557 69.499 109.039C69.499 108.102 69.3788 107.199 69.1386 106.332ZM92.2451 115.35C90.9384 115.971 89.7021 116.281 88.5361 116.281C87.6513 116.281 86.8603 116.062 86.163 115.622C85.4658 115.183 84.9062 114.556 84.4843 113.741C84.0683 112.921 83.8603 112.045 83.8603 111.113C83.8603 110.217 84.0595 109.355 84.4579 108.529C84.8564 107.703 85.413 107.062 86.1279 106.604C86.8427 106.142 87.6396 105.91 88.5185 105.91C89.6845 105.91 90.6191 106.326 91.3222 107.158C92.0312 107.99 92.3857 109.273 92.3857 111.008V111.359H85.6181C85.6181 112.039 85.7587 112.66 86.04 113.223C86.3271 113.785 86.7021 114.207 87.165 114.488C87.6279 114.77 88.1552 114.91 88.747 114.91C89.8017 114.91 90.9677 114.559 92.2451 113.855V115.35ZM85.7148 110.138H90.6103V109.9C90.6103 109.098 90.414 108.459 90.0214 107.984C89.6288 107.51 89.1044 107.272 88.4482 107.272C87.7861 107.272 87.2119 107.516 86.7255 108.002C86.2451 108.482 85.9081 109.194 85.7148 110.138ZM95.7255 116V106.183H97.3603V108.327C97.8701 107.519 98.4531 106.915 99.1093 106.517C99.7714 106.112 100.507 105.91 101.315 105.91C101.907 105.91 102.499 106.001 103.091 106.183V109.725H101.518V107.483C101.242 107.437 101.025 107.413 100.867 107.413C100.258 107.413 99.6601 107.653 99.0742 108.134C98.4882 108.614 97.9169 109.335 97.3603 110.296V116H95.7255ZM106.536 116V106.183H108.171V108.327C108.681 107.519 109.264 106.915 109.92 106.517C110.582 106.112 111.317 105.91 112.126 105.91C112.718 105.91 113.31 106.001 113.901 106.183V109.725H112.328V107.483C112.053 107.437 111.836 107.413 111.678 107.413C111.068 107.413 110.471 107.653 109.885 108.134C109.299 108.614 108.727 109.335 108.171 110.296V116H106.536ZM120.555 116.272C119.148 116.272 118.023 115.783 117.18 114.805C116.336 113.82 115.914 112.581 115.914 111.087C115.914 109.593 116.336 108.356 117.18 107.378C118.023 106.399 119.148 105.91 120.555 105.91C121.955 105.91 123.077 106.399 123.921 107.378C124.765 108.356 125.186 109.593 125.186 111.087C125.186 112.581 124.765 113.82 123.921 114.805C123.077 115.783 121.955 116.272 120.555 116.272ZM120.555 114.91C121.428 114.91 122.122 114.57 122.638 113.891C123.153 113.211 123.411 112.276 123.411 111.087C123.411 109.903 123.153 108.972 122.638 108.292C122.122 107.612 121.428 107.272 120.555 107.272C119.676 107.272 118.978 107.612 118.463 108.292C117.947 108.972 117.689 109.903 117.689 111.087C117.689 112.276 117.947 113.211 118.463 113.891C118.978 114.57 119.676 114.91 120.555 114.91ZM128.157 116V106.183H129.792V108.327C130.302 107.519 130.885 106.915 131.541 106.517C132.203 106.112 132.938 105.91 133.747 105.91C134.339 105.91 134.931 106.001 135.522 106.183V109.725H133.949V107.483C133.674 107.437 133.457 107.413 133.299 107.413C132.689 107.413 132.092 107.653 131.506 108.134C130.92 108.614 130.349 109.335 129.792 110.296V116H128.157Z" fill="#555555"/>
<path d="M79.8148 156.765L80.3695 162.531L78.6004 162.679L77.2938 149.101L80.9285 148.796C82.1138 148.696 82.9985 148.746 83.5826 148.944C84.1661 149.136 84.6333 149.464 84.984 149.928C85.3406 150.392 85.5462 150.907 85.6006 151.473C85.6511 151.998 85.5997 152.534 85.4464 153.082C85.2931 153.63 85.0557 154.129 84.7341 154.579C84.4178 155.023 83.9389 155.461 83.2975 155.891L87.8403 161.903L85.7383 162.08L81.5839 156.617L79.8148 156.765ZM79.6834 155.4L82.162 155.192C82.6875 154.842 83.0694 154.499 83.3077 154.161C83.5518 153.823 83.7268 153.47 83.8327 153.103C83.9386 152.735 83.9745 152.374 83.9402 152.018C83.879 151.382 83.5969 150.897 83.0939 150.563C82.5962 150.223 81.7371 150.104 80.5168 150.206L79.1943 150.317L79.6834 155.4ZM97.4997 160.44C96.2571 161.167 95.0549 161.58 93.8929 161.677C93.0113 161.751 92.202 161.599 91.4651 161.22C90.7282 160.841 90.1105 160.263 89.6121 159.488C89.119 158.706 88.8278 157.852 88.7386 156.924C88.6527 156.032 88.7687 155.158 89.0866 154.302C89.4045 153.447 89.8978 152.761 90.5663 152.247C91.2343 151.726 92.0062 151.429 92.8821 151.355C94.044 151.258 95.0151 151.594 95.7955 152.363C96.5817 153.132 97.0578 154.38 97.224 156.106L97.2576 156.456L90.5138 157.022C90.5789 157.699 90.7785 158.305 91.1126 158.842C91.4526 159.378 91.8667 159.766 92.3549 160.007C92.8431 160.249 93.3821 160.344 93.9718 160.295C95.0228 160.207 96.1511 159.759 97.3566 158.952L97.4997 160.44ZM90.4931 155.798L95.3714 155.389L95.3487 155.152C95.2718 154.353 95.0151 153.734 94.5784 153.294C94.1417 152.855 93.5964 152.662 92.9425 152.717C92.2827 152.773 91.7338 153.063 91.2957 153.588C90.863 154.106 90.5954 154.843 90.4931 155.798ZM106.521 158.121C106.103 158.98 105.564 159.645 104.903 160.118C104.248 160.59 103.628 160.851 103.044 160.9C102.227 160.969 101.457 160.678 100.736 160.027C100.02 159.376 99.5925 158.333 99.4544 156.898C99.3455 155.766 99.4645 154.739 99.8112 153.816C100.157 152.888 100.668 152.136 101.342 151.562C102.017 150.982 102.888 150.648 103.956 150.558C104.266 150.532 104.736 150.525 105.367 150.537C105.461 150.54 105.603 150.543 105.792 150.545L105.373 146.197L107.011 146.059L108.37 160.18L106.732 160.317L106.521 158.121ZM106.335 156.188L105.931 151.997C105.339 151.894 104.794 151.863 104.298 151.905C103.294 151.989 102.493 152.448 101.896 153.28C101.305 154.111 101.074 155.195 101.203 156.531C101.296 157.499 101.547 158.216 101.957 158.681C102.372 159.14 102.813 159.35 103.28 159.311C103.788 159.268 104.324 158.964 104.887 158.4C105.451 157.835 105.934 157.098 106.335 156.188ZM113.712 159.731L112.902 151.315L110.187 151.543L110.057 150.187L114.401 149.822L115.211 158.238L117.935 158.01L118.065 159.366L113.712 159.731ZM112.161 146.456C112.126 146.089 112.225 145.804 112.459 145.602C112.692 145.4 112.92 145.29 113.142 145.271C113.37 145.252 113.618 145.322 113.886 145.482C114.155 145.642 114.307 145.906 114.342 146.273C114.377 146.635 114.277 146.916 114.044 147.118C113.81 147.32 113.579 147.431 113.352 147.45C113.13 147.468 112.884 147.398 112.616 147.238C112.348 147.078 112.196 146.818 112.161 146.456ZM122.576 158.987L121.635 149.215L123.264 149.078L123.47 151.213C123.9 150.365 124.423 149.716 125.039 149.264C125.66 148.806 126.374 148.544 127.179 148.476C127.769 148.426 128.368 148.467 128.975 148.599L129.314 152.124L127.746 152.256L127.531 150.025C127.253 150.001 127.034 149.996 126.877 150.009C126.269 150.06 125.697 150.35 125.159 150.877C124.621 151.404 124.121 152.169 123.658 153.172L124.205 158.85L122.576 158.987ZM140.59 156.822C139.348 157.55 138.145 157.962 136.984 158.06C136.102 158.134 135.293 157.981 134.556 157.602C133.819 157.223 133.201 156.646 132.703 155.87C132.21 155.089 131.918 154.234 131.829 153.307C131.743 152.414 131.859 151.54 132.177 150.685C132.495 149.829 132.988 149.144 133.657 148.629C134.325 148.108 135.097 147.811 135.973 147.738C137.135 147.64 138.106 147.976 138.886 148.745C139.672 149.514 140.148 150.762 140.315 152.488L140.348 152.838L133.604 153.405C133.669 154.081 133.869 154.688 134.203 155.224C134.543 155.76 134.957 156.148 135.446 156.39C135.934 156.631 136.473 156.727 137.062 156.677C138.113 156.589 139.242 156.141 140.447 155.335L140.59 156.822ZM133.584 152.18L138.462 151.771L138.439 151.535C138.362 150.736 138.106 150.116 137.669 149.677C137.232 149.237 136.687 149.045 136.033 149.1C135.373 149.155 134.824 149.445 134.386 149.97C133.954 150.488 133.686 151.225 133.584 152.18ZM151.495 156.277C150.438 156.736 149.416 157.007 148.43 157.09C147.449 157.172 146.554 157.021 145.746 156.636C144.943 156.245 144.292 155.682 143.791 154.948C143.291 154.208 142.993 153.345 142.898 152.36C142.755 150.878 143.119 149.607 143.988 148.546C144.863 147.485 145.983 146.897 147.35 146.783C148.36 146.698 149.446 146.798 150.61 147.082L150.761 148.648C149.572 148.225 148.528 148.051 147.629 148.126C147.033 148.176 146.487 148.372 145.99 148.713C145.493 149.049 145.131 149.541 144.905 150.189C144.679 150.837 144.598 151.491 144.661 152.15C144.746 153.031 145.101 153.847 145.727 154.6C146.358 155.353 147.264 155.68 148.443 155.581C148.8 155.551 149.148 155.498 149.488 155.422C149.827 155.341 150.446 155.104 151.344 154.711L151.495 156.277ZM162.204 155.263C161.47 155.648 160.933 155.884 160.594 155.972C160.256 156.065 159.926 156.125 159.605 156.152C158.922 156.209 158.285 156.13 157.693 155.915C157.101 155.7 156.635 155.349 156.294 154.86C155.958 154.371 155.739 153.589 155.636 152.516L155.257 148.579L152.813 148.784L152.683 147.428L155.126 147.223L154.747 143.286L156.376 143.15L156.755 147.086L161.108 146.721L161.239 148.077L156.886 148.443L157.262 152.353C157.338 153.141 157.485 153.69 157.703 154.001C157.921 154.306 158.192 154.521 158.516 154.647C158.846 154.772 159.224 154.817 159.65 154.781C160.438 154.715 161.243 154.397 162.066 153.828L162.204 155.263ZM175.496 154.297L175.331 152.582C176.733 153.147 177.924 153.388 178.905 153.305C179.804 153.23 180.52 152.896 181.052 152.305C181.589 151.707 181.816 150.98 181.733 150.122C181.65 149.259 181.259 148.583 180.558 148.095C179.864 147.607 178.743 147.428 177.196 147.558L176.293 147.633L176.163 146.277L177.415 146.172C178.554 146.077 179.353 145.754 179.812 145.204C180.271 144.648 180.47 144.058 180.41 143.434C180.355 142.868 180.102 142.41 179.651 142.06C179.199 141.704 178.543 141.562 177.685 141.634C176.722 141.715 175.711 142.073 174.654 142.709L174.505 141.16C175.575 140.653 176.571 140.361 177.493 140.283C179.146 140.144 180.316 140.375 181.003 140.976C181.696 141.571 182.083 142.285 182.163 143.119C182.222 143.737 182.112 144.331 181.831 144.902C181.551 145.472 180.984 146.008 180.132 146.509C180.943 146.676 181.566 146.911 182.001 147.216C182.436 147.52 182.778 147.894 183.027 148.338C183.282 148.781 183.436 149.288 183.491 149.86C183.614 151.131 183.242 152.221 182.376 153.129C181.515 154.036 180.338 154.552 178.843 154.678C178.411 154.714 177.935 154.721 177.415 154.7C176.901 154.679 176.261 154.545 175.496 154.297ZM189.054 139.312C190.601 139.183 191.843 139.734 192.78 140.966C193.716 142.193 194.29 143.906 194.502 146.105C194.714 148.309 194.477 150.096 193.79 151.465C193.103 152.828 191.986 153.574 190.439 153.704C188.898 153.833 187.656 153.285 186.714 152.059C185.777 150.826 185.203 149.108 184.99 146.903C184.779 144.704 185.017 142.923 185.704 141.561C186.396 140.191 187.513 139.442 189.054 139.312ZM187.372 149.631L191.367 141.879C191.017 141.361 190.658 141.024 190.29 140.867C189.927 140.703 189.558 140.637 189.185 140.669C188.21 140.75 187.52 141.355 187.117 142.483C186.712 143.604 186.59 144.996 186.75 146.658C186.787 147.038 186.838 147.445 186.903 147.88C186.969 148.316 187.125 148.899 187.372 149.631ZM192.11 143.448L188.154 151.241C188.446 151.646 188.766 151.942 189.113 152.131C189.461 152.313 189.836 152.388 190.238 152.354C191.348 152.261 192.077 151.576 192.425 150.301C192.772 149.019 192.873 147.623 192.728 146.112C192.638 145.179 192.432 144.291 192.11 143.448ZM200.639 151.066L199.63 140.585C199.177 141.017 198.733 141.39 198.299 141.703C197.864 142.015 197.257 142.349 196.479 142.702L196.337 141.232C197.564 140.582 198.606 139.786 199.463 138.844L201.092 138.708L202.268 150.929L205.535 150.655L205.665 152.011L197.441 152.702L197.311 151.346L200.639 151.066Z" fill="#555555"/>
<path d="M264.157 158.081L265.122 148.312L266.752 148.441L266.541 150.575C267.129 149.81 267.769 149.256 268.462 148.911C269.162 148.561 269.915 148.418 270.721 148.482C271.311 148.528 271.892 148.665 272.464 148.893L272.116 152.418L270.548 152.293L270.768 150.063C270.498 149.995 270.284 149.954 270.127 149.942C269.519 149.894 268.9 150.086 268.268 150.518C267.637 150.949 266.997 151.622 266.347 152.534L265.787 158.21L264.157 158.081ZM282.305 158.866C280.942 159.381 279.679 159.592 278.516 159.5C277.634 159.43 276.867 159.149 276.215 158.657C275.564 158.165 275.067 157.496 274.727 156.653C274.393 155.803 274.271 154.915 274.363 153.988C274.451 153.096 274.734 152.255 275.213 151.464C275.691 150.673 276.309 150.079 277.066 149.68C277.825 149.276 278.642 149.108 279.518 149.178C280.68 149.27 281.571 149.758 282.19 150.641C282.815 151.525 283.043 152.83 282.872 154.556L282.838 154.906L276.091 154.372C276.024 155.048 276.103 155.677 276.329 156.259C276.56 156.842 276.892 157.291 277.326 157.608C277.76 157.924 278.271 158.106 278.861 158.152C279.913 158.236 281.11 157.978 282.452 157.379L282.305 158.866ZM276.308 153.164L281.188 153.55L281.211 153.314C281.29 152.515 281.157 151.864 280.812 151.361C280.468 150.857 279.968 150.58 279.314 150.528C278.654 150.476 278.058 150.672 277.525 151.118C276.999 151.558 276.593 152.24 276.308 153.164ZM287.507 159.93L288.766 147.177L285.84 146.946L285.975 145.581L290.531 145.942L289.271 158.703L292.328 158.945L292.195 160.301L287.507 159.93ZM305.118 154.351L304.984 155.707L295.469 154.954L295.603 153.598L305.118 154.351ZM304.816 157.404L304.683 158.759L295.167 158.006L295.301 156.65L304.816 157.404ZM310.06 152.415L308.938 152.326L308.86 147.393L311.042 147.565L310.06 152.415ZM313.836 152.714L312.723 152.626L312.706 147.697L314.844 147.866L313.836 152.714ZM319.464 154.826C320.047 154.049 320.706 153.481 321.442 153.122C322.178 152.763 322.838 152.607 323.423 152.653C324.24 152.718 324.941 153.129 325.526 153.886C326.111 154.644 326.332 155.739 326.19 157.174C326.079 158.305 325.76 159.299 325.234 160.157C324.714 161.009 324.066 161.666 323.291 162.127C322.516 162.583 321.594 162.769 320.525 162.684C320.221 162.66 319.757 162.591 319.132 162.477C319.04 162.458 318.901 162.432 318.716 162.4L318.341 166.196L316.712 166.067L318.051 152.501L319.681 152.63L319.464 154.826ZM319.273 156.759L318.86 160.948C319.435 161.146 319.97 161.265 320.467 161.305C321.454 161.383 322.321 161.063 323.069 160.347C323.823 159.625 324.266 158.594 324.399 157.252C324.495 156.279 324.383 155.532 324.064 155.013C323.744 154.494 323.351 154.216 322.883 154.179C322.375 154.139 321.789 154.351 321.125 154.816C320.467 155.281 319.85 155.929 319.273 156.759ZM328.818 163.2L329.783 153.43L331.413 153.559L331.202 155.693C331.79 154.929 332.43 154.374 333.123 154.029C333.823 153.679 334.576 153.536 335.382 153.6C335.972 153.646 336.553 153.784 337.125 154.011L336.777 157.536L335.209 157.412L335.429 155.181C335.159 155.113 334.945 155.073 334.788 155.06C334.18 155.012 333.561 155.204 332.929 155.636C332.298 156.068 331.658 156.74 331.009 157.652L330.448 163.329L328.818 163.2ZM346.966 163.984C345.603 164.499 344.34 164.71 343.177 164.618C342.295 164.549 341.528 164.267 340.876 163.775C340.225 163.283 339.728 162.615 339.388 161.771C339.054 160.922 338.932 160.034 339.024 159.106C339.112 158.214 339.395 157.373 339.874 156.582C340.352 155.791 340.97 155.197 341.728 154.798C342.486 154.394 343.303 154.227 344.179 154.296C345.341 154.388 346.232 154.876 346.851 155.759C347.476 156.643 347.704 157.948 347.533 159.674L347.499 160.024L340.752 159.49C340.685 160.166 340.764 160.796 340.99 161.378C341.221 161.96 341.553 162.409 341.987 162.726C342.421 163.042 342.932 163.224 343.522 163.271C344.574 163.354 345.771 163.096 347.113 162.497L346.966 163.984ZM340.969 158.282L345.849 158.668L345.872 158.432C345.951 157.633 345.818 156.982 345.473 156.479C345.129 155.976 344.629 155.698 343.975 155.646C343.315 155.594 342.719 155.791 342.186 156.236C341.66 156.677 341.254 157.358 340.969 158.282ZM352.72 165.092L349.435 154.985L351.223 155.127L353.815 163.124L358.004 155.664L359.634 155.793L354.385 165.223L352.72 165.092ZM363.944 156.68L362.822 156.592L362.744 151.658L364.926 151.831L363.944 156.68ZM367.72 156.979L366.607 156.891L366.591 151.962L368.728 152.132L367.72 156.979Z" fill="#555555"/>
<path d="M384.961 211.295L384.812 201.479L386.446 201.459L386.479 203.604C386.976 202.789 387.55 202.178 388.2 201.772C388.856 201.36 389.589 201.149 390.397 201.139C390.989 201.132 391.582 201.215 392.177 201.39L392.23 204.931L390.657 204.95L390.623 202.709C390.347 202.666 390.13 202.645 389.972 202.647C389.362 202.654 388.768 202.902 388.19 203.389C387.611 203.877 387.051 204.604 386.509 205.572L386.595 211.275L384.961 211.295ZM403.09 210.425C401.793 211.062 400.561 211.387 399.395 211.401C398.511 211.412 397.716 211.202 397.013 210.771C396.309 210.34 395.74 209.72 395.305 208.911C394.877 208.096 394.656 207.222 394.642 206.291C394.628 205.394 394.814 204.531 395.2 203.7C395.586 202.869 396.133 202.221 396.841 201.755C397.549 201.283 398.342 201.042 399.221 201.032C400.387 201.017 401.327 201.422 402.043 202.245C402.765 203.069 403.139 204.347 403.165 206.082L403.17 206.433L396.403 206.515C396.413 207.195 396.563 207.814 396.853 208.373C397.149 208.932 397.53 209.35 397.997 209.625C398.464 209.901 398.994 210.035 399.586 210.028C400.64 210.015 401.801 209.649 403.067 208.931L403.09 210.425ZM396.481 205.293L401.376 205.233L401.373 204.996C401.361 204.193 401.155 203.557 400.755 203.087C400.355 202.618 399.827 202.387 399.171 202.395C398.509 202.403 397.938 202.653 397.46 203.145C396.986 203.631 396.66 204.347 396.481 205.293ZM408.382 211.011L408.188 198.198L405.252 198.234L405.231 196.863L409.801 196.807L409.996 209.629L413.063 209.592L413.083 210.954L408.382 211.011ZM425.256 203.853L425.276 205.215L415.732 205.331L415.711 203.969L425.256 203.853ZM425.302 206.92L425.323 208.282L415.778 208.398L415.758 207.036L425.302 206.92ZM429.949 201.476L428.824 201.489L428.187 196.584L430.375 196.557L429.949 201.476ZM433.736 201.43L432.62 201.443L432.045 196.537L434.189 196.511L433.736 201.43ZM438.174 210.649L438.026 200.833L439.66 200.813L439.693 202.957C440.15 202.196 440.706 201.597 441.362 201.161C442.018 200.726 442.676 200.504 443.339 200.496C443.919 200.489 444.448 200.637 444.928 200.942C445.407 201.241 445.744 201.638 445.939 202.134C446.14 202.63 446.251 203.607 446.273 205.066L446.356 210.55L444.722 210.569L444.636 204.883C444.621 203.94 444.565 203.32 444.467 203.022C444.374 202.719 444.204 202.472 443.955 202.281C443.711 202.091 443.446 201.997 443.159 202.001C442.585 202.008 441.971 202.288 441.317 202.841C440.669 203.393 440.138 204.083 439.722 204.908L439.809 210.629L438.174 210.649ZM457.139 209.768C455.842 210.405 454.61 210.731 453.444 210.745C452.559 210.755 451.765 210.545 451.061 210.114C450.357 209.683 449.788 209.063 449.354 208.254C448.926 207.439 448.705 206.566 448.69 205.634C448.677 204.738 448.863 203.874 449.249 203.043C449.635 202.212 450.182 201.564 450.89 201.098C451.597 200.627 452.391 200.386 453.269 200.375C454.435 200.361 455.376 200.765 456.092 201.589C456.813 202.412 457.187 203.691 457.214 205.425L457.219 205.777L450.452 205.859C450.462 206.538 450.612 207.158 450.902 207.717C451.198 208.276 451.579 208.693 452.046 208.969C452.513 209.244 453.043 209.378 453.634 209.371C454.689 209.358 455.85 208.993 457.116 208.274L457.139 209.768ZM450.53 204.636L455.425 204.577L455.422 204.339C455.409 203.537 455.203 202.9 454.804 202.431C454.404 201.961 453.876 201.73 453.22 201.738C452.558 201.746 451.987 201.996 451.508 202.488C451.035 202.975 450.709 203.69 450.53 204.636ZM460.813 210.374L458.924 210.397L462.704 205.209L459.03 200.577L461.122 200.552L463.729 203.817L466.166 200.491L468.021 200.468L464.679 205.027L468.811 210.277L466.71 210.302L463.663 206.428L460.813 210.374ZM478.806 209.76C478.043 210.091 477.49 210.288 477.145 210.351C476.8 210.42 476.467 210.456 476.144 210.46C475.459 210.468 474.83 210.344 474.258 210.088C473.685 209.831 473.249 209.446 472.948 208.934C472.653 208.422 472.498 207.627 472.481 206.549L472.421 202.595L469.969 202.624L469.949 201.262L472.401 201.232L472.341 197.278L473.975 197.258L474.035 201.213L478.403 201.16L478.424 202.522L474.056 202.575L474.116 206.503C474.128 207.294 474.23 207.852 474.422 208.178C474.615 208.498 474.867 208.732 475.18 208.881C475.499 209.029 475.872 209.101 476.3 209.096C477.091 209.086 477.919 208.827 478.784 208.319L478.806 209.76ZM483.997 200.819L482.872 200.833L482.236 195.927L484.424 195.901L483.997 200.819ZM487.785 200.773L486.669 200.787L486.094 195.88L488.238 195.854L487.785 200.773Z" fill="#555555"/>
<path d="M440.07 163.03L440.526 153.224L442.16 153.285L442.06 155.427C442.564 154.689 443.156 154.119 443.838 153.717C444.519 153.314 445.191 153.125 445.853 153.15C446.432 153.171 446.952 153.346 447.412 153.674C447.872 153.996 448.184 154.409 448.348 154.914C448.518 155.419 448.57 156.4 448.502 157.857L448.247 163.336L446.613 163.275L446.877 157.594C446.921 156.652 446.903 156.03 446.824 155.728C446.75 155.42 446.595 155.165 446.358 154.963C446.127 154.761 445.868 154.654 445.581 154.644C445.007 154.622 444.377 154.871 443.69 155.391C443.008 155.911 442.435 156.572 441.969 157.376L441.703 163.091L440.07 163.03ZM454.9 163.857C453.495 163.804 452.393 163.273 451.596 162.265C450.798 161.25 450.434 159.996 450.504 158.504C450.573 157.011 451.053 155.792 451.941 154.846C452.83 153.9 453.977 153.453 455.382 153.506C456.782 153.558 457.88 154.088 458.678 155.097C459.475 156.106 459.839 157.357 459.77 158.85C459.7 160.342 459.221 161.564 458.332 162.516C457.444 163.462 456.3 163.909 454.9 163.857ZM454.963 162.496C455.836 162.528 456.546 162.215 457.092 161.555C457.639 160.895 457.94 159.972 457.996 158.783C458.051 157.601 457.837 156.661 457.353 155.963C456.869 155.264 456.191 154.899 455.319 154.866C454.441 154.834 453.728 155.147 453.181 155.807C452.634 156.467 452.333 157.388 452.278 158.57C452.223 159.758 452.437 160.701 452.921 161.399C453.404 162.098 454.085 162.463 454.963 162.496ZM464.425 163.94L464.818 155.494L462.095 155.392L462.159 154.031L466.515 154.194L466.122 162.64L468.853 162.742L468.79 164.103L464.425 163.94ZM464.774 150.585C464.791 150.216 464.93 149.945 465.19 149.773C465.45 149.601 465.692 149.52 465.914 149.528C466.143 149.536 466.378 149.636 466.622 149.827C466.865 150.018 466.978 150.298 466.961 150.666C466.944 151.029 466.806 151.297 466.545 151.469C466.285 151.641 466.041 151.722 465.812 151.714C465.59 151.706 465.357 151.606 465.114 151.415C464.87 151.224 464.757 150.948 464.774 150.585ZM472.479 164.24L472.935 154.434L474.569 154.495L474.469 156.637C474.973 155.899 475.565 155.329 476.247 154.927C476.929 154.524 477.6 154.335 478.262 154.36C478.841 154.382 479.361 154.556 479.821 154.884C480.281 155.206 480.593 155.62 480.758 156.124C480.928 156.629 480.979 157.61 480.911 159.067L480.656 164.546L479.022 164.485L479.287 158.804C479.33 157.862 479.312 157.24 479.233 156.938C479.159 156.63 479.004 156.375 478.767 156.173C478.536 155.971 478.277 155.864 477.99 155.854C477.416 155.832 476.786 156.081 476.099 156.601C475.417 157.121 474.844 157.782 474.379 158.586L474.112 164.301L472.479 164.24ZM489.936 162.685C489.401 163.486 488.772 164.081 488.05 164.47C487.333 164.86 486.683 165.043 486.097 165.022C485.277 164.991 484.556 164.609 483.933 163.877C483.316 163.144 483.041 162.058 483.108 160.618C483.161 159.483 483.425 158.478 483.9 157.605C484.375 156.725 484.987 156.042 485.737 155.554C486.488 155.06 487.399 154.833 488.47 154.873C488.781 154.885 489.247 154.934 489.871 155.022C489.964 155.037 490.104 155.057 490.291 155.082L490.494 150.718L492.136 150.78L491.476 164.95L489.834 164.888L489.936 162.685ZM490.027 160.745L490.223 156.539C489.65 156.365 489.115 156.269 488.617 156.251C487.61 156.213 486.752 156.571 486.042 157.324C485.338 158.078 484.955 159.125 484.893 160.465C484.848 161.436 484.995 162.178 485.335 162.689C485.681 163.194 486.088 163.456 486.556 163.473C487.066 163.492 487.64 163.256 488.279 162.764C488.917 162.272 489.5 161.599 490.027 160.745ZM502.274 164.702C500.94 165.274 499.69 165.538 498.525 165.494C497.64 165.461 496.86 165.212 496.184 164.747C495.507 164.282 494.977 163.635 494.594 162.806C494.216 161.971 494.049 161.088 494.092 160.158C494.134 159.262 494.373 158.409 494.81 157.599C495.247 156.788 495.833 156.168 496.568 155.738C497.304 155.303 498.111 155.101 498.99 155.134C500.155 155.177 501.069 155.628 501.733 156.485C502.403 157.343 502.698 158.638 502.617 160.37L502.6 160.722L495.838 160.469C495.806 161.148 495.918 161.774 496.173 162.346C496.433 162.919 496.788 163.354 497.238 163.652C497.687 163.95 498.208 164.111 498.799 164.133C499.853 164.172 501.035 163.864 502.344 163.21L502.274 164.702ZM495.991 159.252L500.883 159.435L500.894 159.198C500.932 158.396 500.765 157.751 500.395 157.262C500.025 156.773 499.512 156.517 498.856 156.492C498.194 156.467 497.609 156.689 497.1 157.157C496.598 157.619 496.228 158.317 495.991 159.252ZM505.907 165.489L504.018 165.418L508.113 160.426L504.73 155.621L506.82 155.699L509.223 159.087L511.861 155.887L513.715 155.956L510.097 160.342L513.899 165.787L511.8 165.709L508.996 161.69L505.907 165.489Z" fill="#555555"/>
<path d="M542.009 186.815L539.842 177.24L541.451 176.948L541.924 179.04C542.219 178.219 542.644 177.541 543.201 177.005C543.759 176.47 544.363 176.143 545.014 176.025C545.585 175.921 546.138 175.979 546.674 176.197C547.208 176.409 547.622 176.742 547.917 177.194C548.217 177.645 548.528 178.583 548.85 180.006L550.06 185.355L548.452 185.647L547.197 180.1C546.989 179.18 546.805 178.583 546.647 178.308C546.493 178.026 546.274 177.813 545.989 177.669C545.71 177.523 545.43 177.476 545.147 177.527C544.582 177.629 544.034 178.005 543.503 178.655C542.977 179.304 542.595 180.066 542.355 180.943L543.617 186.523L542.009 186.815ZM556.684 184.43C555.3 184.681 554.085 184.404 553.039 183.601C551.992 182.791 551.303 181.658 550.974 180.2C550.644 178.743 550.786 177.462 551.4 176.357C552.015 175.252 553.014 174.574 554.397 174.323C555.775 174.073 556.987 174.35 558.033 175.154C559.08 175.958 559.767 177.088 560.097 178.546C560.427 180.003 560.285 181.287 559.672 182.398C559.058 183.503 558.062 184.18 556.684 184.43ZM556.383 183.101C557.242 182.945 557.851 182.49 558.208 181.735C558.565 180.98 558.613 180.023 558.35 178.862C558.089 177.708 557.63 176.845 556.973 176.274C556.315 175.704 555.557 175.496 554.698 175.652C553.833 175.809 553.222 176.265 552.865 177.02C552.507 177.774 552.459 178.729 552.72 179.884C552.983 181.044 553.443 181.909 554.1 182.48C554.758 183.051 555.519 183.258 556.383 183.101ZM565.531 182.549L563.846 175.099L561.701 175.488L561.401 174.159L563.545 173.77L563.444 173.325C563.159 172.062 563.091 171.101 563.243 170.443C563.394 169.785 563.725 169.207 564.237 168.71C564.754 168.212 565.509 167.872 566.5 167.693C567.25 167.557 568.028 167.496 568.836 167.51L569.179 169.027C568.281 168.904 567.509 168.902 566.864 169.019C566.35 169.112 565.919 169.288 565.57 169.548C565.22 169.808 564.982 170.172 564.854 170.642C564.731 171.104 564.784 171.844 565.014 172.861L565.154 173.479L568.985 172.784L569.285 174.113L565.454 174.807L567.14 182.257L565.531 182.549ZM577.958 180.571C576.574 180.822 575.359 180.546 574.313 179.742C573.266 178.932 572.577 177.799 572.248 176.342C571.918 174.884 572.06 173.603 572.674 172.498C573.289 171.393 574.288 170.715 575.671 170.464C577.049 170.215 578.261 170.491 579.307 171.295C580.354 172.099 581.041 173.23 581.371 174.687C581.701 176.144 581.559 177.428 580.946 178.539C580.332 179.644 579.336 180.321 577.958 180.571ZM577.657 179.243C578.516 179.087 579.125 178.631 579.482 177.876C579.839 177.121 579.887 176.164 579.624 175.004C579.363 173.849 578.904 172.987 578.246 172.416C577.589 171.845 576.831 171.637 575.972 171.793C575.107 171.95 574.496 172.406 574.139 173.161C573.781 173.916 573.733 174.871 573.994 176.025C574.257 177.185 574.717 178.051 575.374 178.621C576.032 179.192 576.793 179.399 577.657 179.243ZM587.151 178.627L584.323 166.129L581.435 166.653L581.132 165.315L585.629 164.5L588.459 177.007L591.477 176.459L591.778 177.788L587.151 178.627ZM597.788 176.698L594.96 164.199L592.072 164.723L591.769 163.386L596.266 162.57L599.096 175.077L602.114 174.53L602.415 175.859L597.788 176.698ZM609.869 174.783C608.485 175.034 607.27 174.758 606.224 173.954C605.177 173.144 604.488 172.011 604.159 170.554C603.829 169.096 603.971 167.815 604.585 166.71C605.2 165.605 606.199 164.927 607.582 164.676C608.96 164.426 610.172 164.703 611.218 165.507C612.264 166.311 612.952 167.442 613.282 168.899C613.612 170.356 613.47 171.64 612.857 172.751C612.243 173.856 611.247 174.533 609.869 174.783ZM609.568 173.455C610.427 173.299 611.036 172.843 611.393 172.088C611.75 171.333 611.798 170.376 611.535 169.216C611.274 168.061 610.815 167.199 610.157 166.628C609.5 166.057 608.742 165.849 607.883 166.005C607.018 166.162 606.407 166.618 606.05 167.373C605.692 168.128 605.644 169.082 605.905 170.237C606.168 171.397 606.628 172.263 607.285 172.833C607.942 173.404 608.704 173.611 609.568 173.455ZM616.874 173.236L613.134 163.946L614.63 163.675L616.866 169.338L617.414 170.648L617.341 169.251L617.562 163.143L619.006 162.881L622.063 168.395L622.672 169.695L622.565 168.304L622.171 162.307L623.408 162.083L624.009 171.942L622.504 172.215L619.259 166.387L618.658 165.086L618.615 165.094L618.652 166.488L618.44 172.952L616.874 173.236Z" fill="#555555"/>
<path d="M396.753 63.9259C397.153 63.0615 397.673 62.388 398.315 61.9054C398.957 61.4228 399.57 61.1522 400.153 61.0936C400.969 61.0114 401.748 61.2892 402.489 61.927C403.23 62.5648 403.69 63.5987 403.87 65.0289C404.012 66.1568 403.919 67.1875 403.594 68.121C403.273 69.0481 402.784 69.8067 402.126 70.3969C401.467 70.9812 400.605 71.3271 399.538 71.4344C399.235 71.4649 398.764 71.4799 398.127 71.4793C398.032 71.4771 397.89 71.4766 397.701 71.4779L396.075 71.6416L394.308 57.5665L395.935 57.4028L396.753 63.9259ZM396.995 65.8531L397.52 70.0303C398.127 70.1222 398.679 70.1432 399.175 70.0934C400.16 69.9942 400.94 69.5272 401.514 68.6924C402.093 67.8511 402.299 66.7619 402.131 65.4247C402.009 64.4538 401.734 63.7426 401.305 63.2912C400.877 62.8398 400.429 62.6376 399.963 62.6845C399.455 62.7356 398.928 63.0477 398.38 63.6209C397.838 64.1935 397.376 64.9376 396.995 65.8531ZM407.784 70.4634L406.562 60.7224L408.188 60.5588L408.455 62.6866C408.862 61.8333 409.367 61.1761 409.97 60.7151C410.578 60.2476 411.285 59.9734 412.089 59.8925C412.678 59.8332 413.278 59.8641 413.89 59.9851L414.331 63.4995L412.766 63.657L412.487 61.4332C412.207 61.4143 411.988 61.4127 411.831 61.4286C411.224 61.4896 410.66 61.7878 410.136 62.3232C409.613 62.8586 409.135 63.6308 408.7 64.64L409.411 70.2997L407.784 70.4634ZM425.753 68.0019C424.53 68.749 423.339 69.1809 422.178 69.2976C421.298 69.3862 420.484 69.2474 419.735 68.8812C418.987 68.5149 418.352 67.9489 417.831 67.183C417.315 66.4107 416.999 65.5624 416.883 64.638C416.771 63.7485 416.862 62.8739 417.155 62.0143C417.449 61.1547 417.923 60.4623 418.577 59.9373C419.231 59.4064 419.995 59.097 420.869 59.009C422.029 58.8923 423.011 59.2115 423.814 59.9667C424.623 60.7212 425.136 61.959 425.352 63.6798L425.396 64.0287L418.662 64.7062C418.747 65.3806 418.964 65.9828 419.314 66.5127C419.67 67.0421 420.095 67.4232 420.591 67.6559C421.086 67.8886 421.629 67.9753 422.218 67.9161C423.267 67.8105 424.383 67.3449 425.567 66.5194L425.753 68.0019ZM418.606 63.4844L423.477 62.9942L423.448 62.7588C423.348 61.9623 423.073 61.3483 422.623 60.9166C422.173 60.485 421.622 60.3021 420.969 60.3678C420.31 60.4341 419.769 60.7328 419.346 61.264C418.928 61.7889 418.681 62.529 418.606 63.4844ZM434.61 65.5477C434.217 66.4114 433.696 67.0849 433.048 67.5681C432.406 68.0507 431.794 68.3213 431.211 68.38C430.395 68.4621 429.616 68.1843 428.875 67.5465C428.139 66.9081 427.682 65.8739 427.502 64.4437C427.361 63.3158 427.45 62.2883 427.771 61.3612C428.09 60.4283 428.58 59.6697 429.238 59.0853C429.896 58.4952 430.759 58.1464 431.826 58.0391C432.135 58.008 432.605 57.993 433.237 57.9942C433.332 57.9965 433.473 57.9969 433.662 57.9956L435.297 57.831L436.161 64.7116C436.308 65.886 436.55 66.8271 436.887 67.535L435.191 67.7057C434.995 67.1838 434.802 66.4644 434.61 65.5477ZM434.368 63.6204L433.844 59.4432C433.248 59.3501 432.702 59.3285 432.206 59.3784C431.204 59.4793 430.415 59.9501 429.842 60.7908C429.274 61.6309 429.074 62.7166 429.241 64.0479C429.362 65.013 429.635 65.7245 430.058 66.1823C430.487 66.6337 430.934 66.8359 431.401 66.789C431.908 66.7379 432.436 66.4258 432.983 65.8526C433.531 65.2794 433.993 64.5353 434.368 63.6204ZM445.471 64.4548C445.078 65.3186 444.557 65.9921 443.909 66.4752C443.267 66.9578 442.655 67.2284 442.072 67.2871C441.256 67.3692 440.477 67.0914 439.736 66.4536C439 65.8153 438.543 64.781 438.363 63.3508C438.222 62.223 438.311 61.1955 438.632 60.2684C438.952 59.3355 439.441 58.5768 440.1 57.9925C440.757 57.4023 441.62 57.0536 442.687 56.9462C442.996 56.9151 443.466 56.9002 444.098 56.9014C444.193 56.9036 444.335 56.9041 444.523 56.9027L443.979 52.5686L445.615 52.404L447.381 66.4791L445.746 66.6437L445.471 64.4548ZM445.229 62.5275L444.705 58.3504C444.109 58.2573 443.563 58.2357 443.067 58.2855C442.065 58.3864 441.277 58.8572 440.703 59.6979C440.136 60.538 439.935 61.6237 440.103 62.9551C440.224 63.9202 440.496 64.6316 440.919 65.0894C441.348 65.5408 441.796 65.743 442.262 65.6961C442.769 65.6451 443.297 65.333 443.845 64.7598C444.393 64.1865 444.854 63.4425 445.229 62.5275ZM458.164 65.1116C457.119 65.5876 456.105 65.8751 455.119 65.9743C454.14 66.0728 453.24 65.9367 452.42 65.5659C451.606 65.1887 450.937 64.6378 450.415 63.9132C449.893 63.1828 449.57 62.3263 449.446 61.3438C449.261 59.8671 449.588 58.592 450.427 57.5185C451.273 56.4444 452.377 55.8387 453.741 55.7014C454.75 55.6 455.841 55.6816 457.013 55.9462L457.209 57.5072C456.007 57.1042 454.958 56.9478 454.06 57.0382C453.465 57.098 452.924 57.3026 452.437 57.6519C451.948 57.9954 451.6 58.4925 451.393 59.1433C451.185 59.7941 451.123 60.448 451.205 61.105C451.315 61.9829 451.694 62.7925 452.342 63.5338C452.996 64.2746 453.912 64.5857 455.09 64.4672C455.445 64.4314 455.792 64.373 456.13 64.2919C456.468 64.2049 457.08 63.9578 457.968 63.5506L458.164 65.1116ZM461.565 65.0519L460.343 55.311L461.969 55.1473L462.236 57.2751C462.643 56.4218 463.148 55.7646 463.751 55.3036C464.36 54.8361 465.066 54.5619 465.871 54.481C466.459 54.4217 467.06 54.4526 467.671 54.5736L468.112 58.088L466.547 58.2455L466.268 56.0218C465.988 56.0028 465.769 56.0013 465.612 56.0171C465.005 56.0781 464.441 56.3763 463.918 56.9117C463.394 57.4471 462.916 58.2194 462.482 59.2286L463.192 64.8883L461.565 65.0519ZM478.305 53.5036L479.527 63.2446L477.901 63.4082L477.633 61.2717C477.209 62.1268 476.701 62.7872 476.11 63.2528C475.519 63.7185 474.903 63.9836 474.262 64.0481C473.691 64.1056 473.147 64.0073 472.631 63.7531C472.12 63.4924 471.74 63.1244 471.492 62.649C471.242 62.1678 471.027 61.2063 470.846 59.7645L470.163 54.3228L471.79 54.1592L472.498 59.8014C472.616 60.7374 472.737 61.3522 472.862 61.6457C472.993 61.9328 473.19 62.1603 473.453 62.3281C473.722 62.4953 473.996 62.5648 474.276 62.5367C474.847 62.4792 475.426 62.1502 476.012 61.5496C476.603 60.9426 477.062 60.2076 477.391 59.3444L476.678 53.6673L478.305 53.5036ZM481.513 63.0448L480.29 53.3039L481.715 53.1605L481.996 55.3929C482.326 54.4001 482.66 53.7041 483 53.305C483.345 52.9052 483.716 52.6854 484.112 52.6455C484.585 52.598 484.987 52.7459 485.319 53.0892C485.657 53.4262 485.868 53.9347 485.954 54.6149L486.019 55.1382C486.137 54.5258 486.307 54.023 486.53 53.6298C486.757 53.2301 487.003 52.9081 487.267 52.6636C487.531 52.4134 487.852 52.2692 488.231 52.2311C488.651 52.1888 489.032 52.3301 489.374 52.6548C489.716 52.9795 489.953 53.6709 490.086 54.729L491.01 62.0892L489.584 62.2327L488.749 55.5788C488.68 55.0323 488.616 54.662 488.556 54.4679C488.496 54.2679 488.407 54.1209 488.288 54.0268C488.17 53.9327 488.05 53.8918 487.928 53.9041C487.625 53.9346 487.327 54.2 487.036 54.7003C486.75 55.1942 486.493 55.9942 486.266 57.1003L486.943 62.4984L485.579 62.6357L484.745 55.9905C484.637 55.1301 484.489 54.6328 484.301 54.4987C484.113 54.3645 483.952 54.3042 483.818 54.3177C483.52 54.3476 483.232 54.6386 482.953 55.1906C482.68 55.7421 482.44 56.4374 482.232 57.2766L482.938 62.9014L481.513 63.0448ZM493.56 54.1852C493.959 53.3208 494.479 52.6474 495.121 52.1648C495.763 51.6822 496.376 51.4116 496.959 51.3529C497.775 51.2708 498.554 51.5486 499.295 52.1864C500.036 52.8241 500.497 53.8581 500.676 55.2883C500.818 56.4162 500.726 57.4468 500.4 58.3803C500.079 59.3074 499.59 60.0661 498.932 60.6562C498.274 61.2406 497.411 61.5864 496.344 61.6938C496.041 61.7243 495.57 61.7392 494.933 61.7386C494.838 61.7364 494.696 61.736 494.507 61.7373L492.881 61.9009L491.114 47.8258L492.741 47.6622L493.56 54.1852ZM493.801 56.1125L494.326 60.2897C494.934 60.3816 495.485 60.4026 495.981 60.3527C496.966 60.2536 497.746 59.7866 498.32 58.9517C498.899 58.1104 499.105 57.0212 498.937 55.684C498.815 54.7131 498.54 54.002 498.111 53.5506C497.683 53.0992 497.235 52.897 496.769 52.9439C496.262 52.9949 495.734 53.307 495.186 53.8803C494.644 54.4529 494.182 55.1969 493.801 56.1125ZM503.809 60.2804L503.593 58.5624C504.299 58.9211 505.028 59.151 505.778 59.2521C506.528 59.3474 507.157 59.3695 507.664 59.3185C508.486 59.2357 509.061 59.0454 509.39 58.7474C509.718 58.4436 509.857 58.094 509.807 57.6987C509.775 57.4371 509.662 57.2217 509.469 57.0527C509.277 56.8837 508.828 56.6963 508.124 56.4905L507.536 56.3201L506.352 55.9888C505.08 55.6399 504.262 55.2807 503.896 54.9113C503.526 54.5482 503.305 54.0818 503.234 53.512C503.133 52.7097 503.359 52.0188 503.912 51.4392C504.471 50.859 505.447 50.4988 506.84 50.3586C507.884 50.2536 508.891 50.3053 509.862 50.5138L510.047 51.9876C508.926 51.7118 507.893 51.6214 506.949 51.7165C506.261 51.7857 505.737 51.962 505.377 52.2455C505.022 52.5226 504.867 52.8414 504.913 53.2018C504.956 53.5506 505.161 53.8127 505.525 53.988C505.884 54.1638 506.456 54.3505 507.242 54.5481L508.395 54.8384C509.449 55.1032 510.207 55.4301 510.67 55.8193C511.132 56.2084 511.403 56.7257 511.484 57.371C511.59 58.214 511.351 58.9416 510.766 59.5538C510.187 60.1596 509.183 60.5344 507.755 60.6781C506.507 60.8036 505.192 60.671 503.809 60.2804Z" fill="#555555"/>
<path d="M627.101 62.8276L628.871 62.6888L629.743 71.6023C629.858 72.7744 630.033 73.5687 630.268 73.9851C630.508 74.3953 630.841 74.6982 631.266 74.8941C631.697 75.0836 632.16 75.1589 632.657 75.1199C633.183 75.0787 633.638 74.9225 634.024 74.6513C634.415 74.3739 634.681 73.971 634.824 73.4427C634.972 72.9081 634.976 71.9294 634.837 70.5065L634.032 62.284L635.662 62.1562L636.529 71.0172C636.653 72.2827 636.56 73.2889 636.25 74.036C635.946 74.7767 635.508 75.3517 634.936 75.7609C634.364 76.1701 633.616 76.4109 632.693 76.4833C631.84 76.5502 631.074 76.4516 630.395 76.1876C629.716 75.9235 629.179 75.4897 628.784 74.886C628.39 74.2823 628.112 73.1582 627.951 71.5137L627.101 62.8276ZM640.615 69.639L641.179 75.4035L639.409 75.5423L638.08 61.9665L641.717 61.6813C642.903 61.5883 643.788 61.6423 644.373 61.8432C644.957 62.0383 645.425 62.3689 645.776 62.8349C646.134 63.3005 646.34 63.8161 646.396 64.3818C646.447 64.9066 646.396 65.4424 646.244 65.9891C646.091 66.5358 645.855 67.0333 645.533 67.4816C645.218 67.9235 644.739 68.3577 644.098 68.7841L648.653 74.8173L646.55 74.9822L642.385 69.5002L640.615 69.639ZM640.481 68.2745L642.961 68.08C643.486 67.7332 643.868 67.3918 644.106 67.0559C644.349 66.7194 644.524 66.3678 644.629 66.0011C644.735 65.6344 644.77 65.2732 644.735 64.9175C644.673 64.2818 644.39 63.7957 643.886 63.4592C643.388 63.1163 642.528 62.9928 641.307 63.0885L639.984 63.1923L640.481 68.2745ZM657.996 72.5772L658.142 74.073L650.799 74.6489L649.471 61.0731L651.241 60.9343L652.423 73.0143L657.996 72.5772Z" fill="#555555"/>
<path d="M183.742 95.7467L193.897 92.3578L193.673 93.8618L186.738 96.1598L192.713 100.312L192.491 101.799L183.742 95.7467ZM197.2 102.462L198.445 94.0991L195.747 93.719L195.947 92.3716L200.264 92.9797L199.019 101.343L201.726 101.724L201.525 103.071L197.2 102.462ZM198.897 89.2103C198.951 88.8451 199.117 88.5903 199.393 88.4458C199.669 88.3013 199.917 88.2446 200.138 88.2756C200.364 88.3075 200.589 88.4309 200.811 88.6457C201.034 88.8605 201.118 89.1505 201.064 89.5156C201.011 89.8749 200.846 90.1268 200.569 90.2713C200.293 90.4158 200.042 90.4721 199.816 90.4403C199.595 90.4092 199.374 90.2863 199.151 90.0715C198.928 89.8566 198.843 89.5696 198.897 89.2103ZM204.449 103.483L205.895 93.773L207.314 93.9729L206.982 96.1984C207.57 95.3166 208.082 94.7231 208.518 94.4177C208.96 94.1132 209.379 93.9887 209.773 94.0443C210.243 94.1105 210.593 94.3491 210.822 94.76C211.057 95.166 211.125 95.708 211.024 96.3861L210.946 96.9077C211.226 96.3435 211.526 95.8977 211.847 95.5702C212.175 95.2377 212.5 94.9847 212.822 94.8111C213.145 94.6317 213.495 94.5686 213.872 94.6218C214.29 94.6806 214.621 94.9077 214.864 95.3029C215.107 95.6981 215.15 96.4231 214.993 97.4779L213.901 104.815L212.482 104.615L213.47 97.9822C213.551 97.4374 213.589 97.064 213.583 96.8621C213.579 96.6543 213.532 96.4909 213.443 96.3719C213.354 96.2529 213.249 96.1848 213.127 96.1676C212.825 96.1251 212.466 96.3111 212.049 96.7257C211.638 97.1353 211.174 97.848 210.655 98.8637L209.854 104.245L208.496 104.054L209.482 97.4293C209.61 96.5715 209.601 96.0555 209.455 95.8811C209.309 95.7067 209.17 95.6101 209.036 95.5913C208.74 95.5496 208.383 95.7626 207.964 96.2301C207.551 96.6985 207.13 97.3139 206.703 98.0761L205.868 103.683L204.449 103.483ZM222.703 103.827C222.089 104.569 221.403 105.097 220.645 105.41C219.894 105.724 219.228 105.841 218.648 105.759C217.835 105.644 217.156 105.191 216.611 104.398C216.071 103.606 215.908 102.497 216.12 101.071C216.287 99.9471 216.651 98.9747 217.212 98.1543C217.773 97.3281 218.451 96.7106 219.247 96.302C220.043 95.8876 220.972 95.7551 222.034 95.9047C222.341 95.948 222.801 96.0453 223.412 96.1965C223.503 96.2212 223.64 96.2553 223.823 96.2988L225.451 96.5281L224.428 103.396C224.185 105.03 224.014 106.024 223.914 106.376C223.819 106.736 223.694 107.094 223.54 107.451C223.18 108.282 222.548 108.888 221.644 109.27C220.746 109.652 219.711 109.761 218.539 109.595C217.361 109.43 216.213 108.96 215.096 108.187L215.339 106.553C215.751 106.931 216.273 107.285 216.905 107.617C217.542 107.955 218.173 108.168 218.8 108.257C219.293 108.326 219.772 108.314 220.236 108.219C220.7 108.125 221.091 107.949 221.408 107.692C221.724 107.435 221.961 107.116 222.119 106.736C222.275 106.362 222.402 105.85 222.498 105.201L222.703 103.827ZM222.989 101.906L223.609 97.7419C223.057 97.5103 222.534 97.3598 222.041 97.2903C221.043 97.1497 220.153 97.4178 219.371 98.0946C218.595 98.7722 218.108 99.7746 217.91 101.102C217.767 102.064 217.839 102.817 218.125 103.36C218.418 103.898 218.797 104.2 219.261 104.265C219.766 104.337 220.361 104.16 221.046 103.736C221.731 103.312 222.379 102.702 222.989 101.906ZM237.484 107.614L237.739 105.901C238.326 106.416 238.969 106.811 239.669 107.087C240.369 107.358 240.972 107.528 241.476 107.599C242.294 107.715 242.903 107.667 243.301 107.457C243.701 107.241 243.93 106.936 243.988 106.542C244.027 106.281 243.976 106.046 243.836 105.837C243.695 105.628 243.311 105.34 242.685 104.974L242.161 104.669L241.105 104.068C239.968 103.428 239.272 102.887 239.018 102.442C238.758 102.003 238.67 101.5 238.755 100.932C238.874 100.132 239.279 99.5177 239.971 99.0886C240.668 98.6602 241.711 98.5437 243.097 98.7391C244.136 98.8854 245.097 99.1747 245.98 99.6068L245.762 101.076C244.751 100.543 243.776 100.21 242.836 100.078C242.151 99.9815 241.596 100.028 241.171 100.216C240.753 100.4 240.517 100.671 240.464 101.031C240.412 101.378 240.539 101.68 240.844 101.936C241.144 102.192 241.648 102.508 242.356 102.886L243.393 103.44C244.342 103.947 244.988 104.443 245.33 104.929C245.673 105.415 245.796 105.98 245.7 106.623C245.575 107.464 245.147 108.111 244.416 108.564C243.692 109.012 242.619 109.136 241.197 108.936C239.956 108.761 238.718 108.32 237.484 107.614ZM248.827 109.735L250.272 100.025L251.891 100.253L251.575 102.374C252.199 101.646 252.865 101.13 253.574 100.827C254.289 100.52 255.047 100.423 255.847 100.535C256.433 100.618 257.006 100.79 257.565 101.053L257.044 104.556L255.486 104.336L255.816 102.12C255.55 102.035 255.339 101.981 255.182 101.959C254.579 101.874 253.952 102.029 253.301 102.422C252.65 102.816 251.978 103.449 251.285 104.322L250.445 109.963L248.827 109.735ZM266.927 112.001C265.788 112.214 264.728 112.251 263.747 112.113C262.772 111.975 261.938 111.63 261.245 111.077C260.558 110.518 260.059 109.827 259.75 109.002C259.441 108.172 259.359 107.267 259.505 106.287C259.724 104.815 260.385 103.66 261.487 102.821C262.595 101.983 263.828 101.66 265.186 101.851C266.19 101.992 267.223 102.33 268.287 102.865L268.055 104.421C267.001 103.746 266.027 103.345 265.133 103.219C264.541 103.136 263.962 103.205 263.396 103.427C262.831 103.643 262.36 104.042 261.983 104.622C261.607 105.202 261.37 105.819 261.272 106.474C261.142 107.349 261.29 108.222 261.718 109.093C262.151 109.965 262.953 110.483 264.125 110.648C264.479 110.698 264.831 110.724 265.18 110.726C265.53 110.722 266.19 110.628 267.159 110.445L266.927 112.001ZM279.154 106.987L278.953 108.335L269.501 107.003L269.702 105.656L279.154 106.987ZM278.702 110.021L278.501 111.369L269.05 110.037L269.25 108.69L278.702 110.021ZM284.178 105.352L283.064 105.195L283.23 100.257L285.397 100.562L284.178 105.352ZM287.929 105.881L286.823 105.725L287.051 100.795L289.174 101.095L287.929 105.881ZM294.882 106.86L293.768 106.703L293.935 101.765L296.102 102.071L294.882 106.86ZM298.633 107.389L297.528 107.233L297.755 102.304L299.879 102.603L298.633 107.389ZM310.947 113.668L300.793 117.057L301.017 115.553L307.961 113.256L301.977 109.102L302.198 107.616L310.947 113.668Z" fill="#555555"/>
<path d="M474.723 113.634L475.001 111.988C476.283 112.835 477.493 113.335 478.631 113.489C479.108 113.553 479.579 113.526 480.044 113.405C480.511 113.279 480.883 113.061 481.161 112.75C481.445 112.44 481.621 112.085 481.688 111.686C481.767 111.218 481.687 110.761 481.447 110.315C481.209 109.863 480.707 109.335 479.942 108.729L479.14 108.097L478.329 107.465C476.907 106.321 476.312 105.059 476.545 103.678C476.715 102.667 477.21 101.865 478.029 101.272C478.854 100.675 480.016 100.477 481.514 100.68C482.478 100.81 483.386 101.075 484.239 101.474L483.987 102.973C483.058 102.458 482.123 102.136 481.183 102.009C480.434 101.908 479.794 102.022 479.263 102.352C478.738 102.683 478.429 103.126 478.335 103.681C478.242 104.229 478.343 104.71 478.635 105.122C478.928 105.534 479.325 105.93 479.825 106.311L480.435 106.81L481.194 107.436L481.838 107.948C483.166 109.05 483.716 110.282 483.486 111.646C483.31 112.686 482.779 113.527 481.893 114.169C481.007 114.812 479.724 115.02 478.046 114.793C477.512 114.721 477.009 114.605 476.537 114.447C476.069 114.295 475.465 114.024 474.723 113.634ZM485.436 115.083L485.714 113.436C486.996 114.283 488.206 114.784 489.345 114.938C489.821 115.002 490.292 114.974 490.757 114.854C491.224 114.728 491.596 114.51 491.875 114.198C492.158 113.888 492.334 113.534 492.401 113.135C492.48 112.667 492.4 112.21 492.16 111.764C491.922 111.312 491.42 110.783 490.655 110.178L489.853 109.546L489.042 108.913C487.62 107.77 487.025 106.507 487.258 105.126C487.429 104.115 487.923 103.314 488.742 102.721C489.567 102.123 490.729 101.926 492.227 102.129C493.191 102.259 494.099 102.524 494.952 102.923L494.7 104.422C493.771 103.906 492.836 103.585 491.896 103.458C491.147 103.356 490.507 103.471 489.976 103.801C489.451 104.132 489.142 104.575 489.048 105.129C488.956 105.678 489.056 106.158 489.348 106.57C489.641 106.982 490.038 107.379 490.538 107.759L491.148 108.259L491.907 108.884L492.551 109.397C493.879 110.498 494.429 111.731 494.199 113.094C494.023 114.134 493.492 114.976 492.606 115.618C491.72 116.261 490.437 116.468 488.759 116.241C488.225 116.169 487.722 116.054 487.25 115.896C486.783 115.744 486.178 115.473 485.436 115.083ZM504.19 116.396L503.94 117.878L496.641 116.891L498.91 103.44L500.669 103.678L498.65 115.647L504.19 116.396Z" fill="#555555"/>
<path d="M554.098 99.9613L554.211 90.0689L555.717 90.2807L555.606 96.2971L555.61 97.6992L556.085 96.3645L558.667 90.6959L560.121 90.9004L560.837 97.0331L560.901 98.4437L561.342 97.1041L563.306 91.3486L564.551 91.5237L561.278 100.972L559.764 100.759L558.994 94.2723L558.938 92.8629L558.895 92.8568L558.386 94.1779L555.673 100.183L554.098 99.9613ZM564.803 101.468L564.916 91.5752L566.422 91.787L566.311 97.8034L566.315 99.2055L566.79 97.8708L569.372 92.2022L570.826 92.4067L571.542 98.5394L571.607 99.95L572.047 98.6104L574.011 92.8549L575.256 93.03L571.983 102.478L570.469 102.265L569.699 95.7786L569.643 94.3692L569.6 94.3631L569.091 95.6842L566.378 101.689L564.803 101.468ZM575.508 102.974L575.621 93.0815L577.127 93.2933L577.016 99.3097L577.02 100.712L577.495 99.3771L580.078 93.7085L581.531 93.913L582.247 100.046L582.312 101.456L582.752 100.117L584.716 94.3612L585.961 94.5363L582.688 103.984L581.174 103.771L580.404 97.2849L580.348 95.8755L580.305 95.8694L579.796 97.1905L577.084 103.196L575.508 102.974Z" fill="#555555"/>
<path d="M620.684 124.219L621.164 122.944L624.034 123.809L627.876 113.602L625.007 112.736L625.49 111.453L632.928 113.697L632.445 114.98L629.576 114.115L625.733 124.322L628.602 125.188L628.123 126.463L620.684 124.219ZM634.52 123.209L632.767 127.865L631.068 127.352L635.873 114.586L639.121 115.566C640.456 115.969 641.374 116.411 641.874 116.891C642.376 117.367 642.683 117.936 642.796 118.599C642.909 119.262 642.834 119.941 642.572 120.638C642.264 121.455 641.758 122.151 641.055 122.726C640.351 123.302 639.534 123.663 638.604 123.81C637.682 123.953 636.55 123.822 635.21 123.418L634.52 123.209ZM635 121.934L635.732 122.155C636.781 122.472 637.61 122.576 638.22 122.466C638.831 122.352 639.368 122.086 639.831 121.67C640.294 121.254 640.635 120.756 640.853 120.174C641.13 119.439 641.102 118.784 640.769 118.207C640.442 117.632 639.555 117.126 638.108 116.689L637.09 116.382L635 121.934Z" fill="#555555"/>
<path d="M200.465 181.492L199.323 187.17L197.574 186.867L200.262 173.493L203.856 174.117C205.027 174.321 205.866 174.591 206.372 174.929C206.879 175.261 207.234 175.694 207.437 176.228C207.646 176.764 207.695 177.31 207.583 177.868C207.479 178.385 207.273 178.887 206.966 179.375C206.659 179.862 206.285 180.282 205.844 180.633C205.41 180.98 204.821 181.279 204.077 181.531L206.71 188.453L204.632 188.092L202.214 181.796L200.465 181.492ZM200.735 180.148L203.185 180.573C203.794 180.37 204.262 180.136 204.59 179.872C204.924 179.609 205.195 179.314 205.404 178.988C205.613 178.661 205.753 178.323 205.823 177.972C205.949 177.346 205.818 176.809 205.43 176.361C205.049 175.909 204.255 175.578 203.048 175.368L201.741 175.141L200.735 180.148ZM216.45 189.484C215.041 189.869 213.761 189.962 212.612 189.763C211.741 189.611 211.005 189.261 210.404 188.711C209.804 188.161 209.376 187.45 209.121 186.579C208.873 185.704 208.84 184.81 209.024 183.896C209.2 183.017 209.566 182.207 210.122 181.465C210.677 180.723 211.352 180.19 212.146 179.864C212.942 179.532 213.772 179.442 214.638 179.592C215.787 179.791 216.626 180.359 217.155 181.295C217.69 182.232 217.786 183.551 217.444 185.251L217.375 185.596L210.707 184.438C210.573 185.105 210.589 185.738 210.756 186.337C210.928 186.938 211.214 187.416 211.615 187.77C212.015 188.125 212.507 188.353 213.09 188.455C214.129 188.635 215.348 188.49 216.745 188.019L216.45 189.484ZM211.043 183.257L215.866 184.094L215.913 183.862C216.071 183.075 216.004 182.415 215.711 181.883C215.417 181.35 214.947 181.028 214.301 180.916C213.648 180.802 213.035 180.942 212.46 181.336C211.892 181.725 211.419 182.365 211.043 183.257ZM225.823 189.533C225.171 190.252 224.457 190.755 223.683 191.043C222.914 191.331 222.241 191.425 221.663 191.325C220.855 191.185 220.198 190.711 219.691 189.904C219.19 189.097 219.081 187.988 219.365 186.574C219.589 185.46 220.002 184.503 220.605 183.704C221.209 182.9 221.919 182.307 222.737 181.925C223.555 181.538 224.493 181.437 225.549 181.62C225.855 181.673 226.311 181.785 226.916 181.955C227.006 181.983 227.142 182.021 227.323 182.071L228.184 177.788L229.803 178.069L227.008 191.977L225.389 191.695L225.823 189.533ZM226.206 187.628L227.035 183.501C226.494 183.252 225.978 183.085 225.487 183C224.494 182.828 223.589 183.066 222.772 183.715C221.96 184.365 221.422 185.347 221.157 186.663C220.966 187.616 221 188.368 221.26 188.919C221.526 189.464 221.891 189.777 222.353 189.858C222.855 189.945 223.46 189.788 224.168 189.388C224.875 188.988 225.555 188.401 226.206 187.628ZM232.29 192.894L233.956 184.604L231.272 184.138L231.54 182.803L235.835 183.548L234.169 191.838L236.863 192.305L236.594 193.641L232.29 192.894ZM234.654 179.75C234.727 179.388 234.905 179.139 235.189 179.004C235.473 178.869 235.725 178.821 235.944 178.859C236.169 178.898 236.388 179.028 236.601 179.249C236.813 179.47 236.883 179.762 236.81 180.124C236.739 180.48 236.561 180.726 236.277 180.861C235.993 180.996 235.738 181.044 235.513 181.004C235.294 180.966 235.078 180.837 234.865 180.616C234.653 180.394 234.582 180.106 234.654 179.75ZM241.054 194.415L242.988 184.79L244.599 185.07L244.176 187.172C244.838 186.467 245.531 185.975 246.256 185.696C246.988 185.413 247.753 185.341 248.549 185.479C249.132 185.58 249.697 185.771 250.245 186.05L249.547 189.523L247.997 189.253L248.438 187.056C248.176 186.963 247.967 186.903 247.811 186.876C247.211 186.772 246.575 186.905 245.903 187.276C245.231 187.647 244.526 188.256 243.788 189.102L242.664 194.695L241.054 194.415ZM259.055 196.88C257.645 197.266 256.366 197.359 255.217 197.159C254.346 197.008 253.609 196.657 253.009 196.107C252.409 195.557 251.981 194.847 251.726 193.976C251.477 193.101 251.445 192.206 251.629 191.293C251.805 190.414 252.171 189.604 252.727 188.862C253.282 188.12 253.957 187.586 254.751 187.26C255.547 186.929 256.377 186.838 257.243 186.989C258.392 187.188 259.231 187.756 259.76 188.692C260.294 189.629 260.391 190.947 260.049 192.648L259.98 192.992L253.312 191.835C253.178 192.501 253.194 193.134 253.361 193.734C253.533 194.334 253.819 194.812 254.22 195.167C254.62 195.522 255.112 195.75 255.695 195.851C256.734 196.032 257.953 195.886 259.35 195.416L259.055 196.88ZM253.648 190.654L258.471 191.491L258.518 191.258C258.676 190.471 258.609 189.812 258.315 189.279C258.022 188.747 257.552 188.424 256.906 188.312C256.253 188.199 255.64 188.339 255.065 188.733C254.497 189.122 254.024 189.762 253.648 190.654ZM269.729 199.108C268.577 199.282 267.513 199.285 266.537 199.116C265.567 198.947 264.749 198.576 264.081 198.003C263.421 197.424 262.956 196.719 262.687 195.888C262.419 195.051 262.383 194.147 262.578 193.176C262.871 191.717 263.591 190.587 264.737 189.788C265.89 188.989 267.141 188.707 268.492 188.941C269.491 189.115 270.51 189.485 271.549 190.052L271.239 191.594C270.216 190.887 269.26 190.457 268.371 190.303C267.782 190.2 267.198 190.251 266.62 190.453C266.043 190.65 265.551 191.032 265.144 191.597C264.738 192.163 264.47 192.77 264.339 193.419C264.165 194.287 264.27 195.161 264.654 196.042C265.045 196.924 265.823 197.467 266.989 197.669C267.341 197.73 267.692 197.767 268.042 197.781C268.393 197.788 269.059 197.716 270.039 197.566L269.729 199.108ZM280.351 200.836C279.531 201.021 278.945 201.112 278.593 201.11C278.24 201.115 277.904 201.089 277.587 201.034C276.911 200.917 276.319 200.68 275.811 200.324C275.303 199.969 274.956 199.513 274.769 198.957C274.587 198.403 274.603 197.597 274.815 196.54L275.595 192.662L273.179 192.243L273.447 190.907L275.863 191.327L276.642 187.449L278.253 187.729L277.474 191.606L281.778 192.354L281.509 193.689L277.205 192.942L276.431 196.794C276.275 197.569 276.258 198.134 276.378 198.488C276.499 198.836 276.698 199.111 276.973 199.313C277.255 199.517 277.607 199.655 278.028 199.728C278.808 199.864 279.676 199.762 280.635 199.423L280.351 200.836ZM293.449 203.262L293.789 201.573C294.977 202.469 296.056 203.001 297.025 203.169C297.915 203.323 298.701 203.184 299.386 202.75C300.078 202.311 300.508 201.669 300.678 200.825C300.849 199.975 300.668 199.227 300.134 198.581C299.606 197.937 298.578 197.482 297.048 197.216L296.156 197.061L296.424 195.726L297.663 195.941C298.788 196.136 299.653 196.028 300.255 195.615C300.859 195.197 301.223 194.68 301.346 194.066C301.458 193.508 301.347 193.005 301.014 192.554C300.681 192.098 300.091 191.797 299.242 191.649C298.289 191.484 297.211 191.573 296.007 191.917L296.313 190.392C297.492 190.174 298.538 190.145 299.45 190.303C301.084 190.587 302.145 191.104 302.633 191.854C303.128 192.6 303.294 193.384 303.128 194.205C303.006 194.814 302.727 195.357 302.29 195.835C301.854 196.312 301.152 196.683 300.184 196.949C300.917 197.314 301.45 197.698 301.781 198.1C302.113 198.503 302.334 198.948 302.445 199.437C302.561 199.927 302.563 200.454 302.45 201.016C302.198 202.269 301.523 203.222 300.423 203.875C299.33 204.529 298.044 204.728 296.567 204.472C296.139 204.397 295.678 204.285 295.183 204.133C294.693 203.983 294.115 203.692 293.449 203.262ZM310.88 192.287C312.41 192.553 313.448 193.396 313.993 194.816C314.539 196.231 314.594 198.021 314.159 200.187C313.723 202.358 312.975 204.015 311.915 205.157C310.856 206.293 309.562 206.728 308.032 206.462C306.508 206.198 305.47 205.357 304.918 203.942C304.373 202.521 304.318 200.726 304.755 198.554C305.19 196.388 305.937 194.738 306.996 193.602C308.061 192.461 309.356 192.023 310.88 192.287ZM306.258 201.776L312.365 195.336C312.178 194.751 311.929 194.336 311.62 194.092C311.317 193.844 310.981 193.687 310.612 193.623C309.648 193.456 308.807 193.863 308.09 194.844C307.375 195.82 306.852 197.126 306.523 198.763C306.448 199.136 306.379 199.541 306.315 199.975C306.252 200.41 306.233 201.01 306.258 201.776ZM312.625 197.031L306.544 203.52C306.708 203.982 306.93 204.348 307.211 204.616C307.493 204.879 307.833 205.045 308.231 205.114C309.328 205.305 310.23 204.831 310.936 203.694C311.644 202.55 312.147 201.235 312.446 199.747C312.631 198.828 312.69 197.922 312.625 197.031ZM322.869 208.619L314.738 207.207L315.034 205.734C315.11 205.355 315.269 204.963 315.512 204.559C315.755 204.15 316.151 203.713 316.698 203.249C317.245 202.786 317.815 202.346 318.406 201.932L319.511 201.16C319.734 201.003 320.226 200.634 320.988 200.053C321.75 199.471 322.266 199.014 322.536 198.681C322.812 198.348 322.986 198.004 323.058 197.647C323.173 197.073 323.031 196.591 322.631 196.2C322.233 195.804 321.745 195.556 321.168 195.456C320.839 195.399 320.462 195.372 320.037 195.375C319.618 195.38 319.245 195.407 318.918 195.457C318.593 195.502 318.055 195.62 317.306 195.811L317.592 194.389C318.388 194.171 319.163 194.061 319.916 194.061C320.675 194.056 321.292 194.095 321.765 194.177C322.464 194.298 323.082 194.525 323.619 194.856C324.162 195.182 324.528 195.608 324.715 196.134C324.908 196.661 324.95 197.194 324.841 197.734C324.72 198.337 324.411 198.923 323.915 199.491C323.424 200.059 322.571 200.752 321.355 201.57L320.172 202.372L319.178 203.038C318.547 203.475 318.02 203.913 317.597 204.351C317.174 204.789 316.877 205.346 316.705 206.024L323.165 207.145L322.869 208.619Z" fill="#555555"/>
<path d="M288.289 53.7939C287.791 54.6143 287.19 55.2324 286.487 55.6484C285.79 56.0645 285.148 56.2725 284.562 56.2725C283.742 56.2725 283.004 55.918 282.348 55.209C281.697 54.5 281.372 53.4248 281.372 51.9834C281.372 50.8467 281.589 49.833 282.022 48.9424C282.456 48.0459 283.036 47.3398 283.763 46.8242C284.489 46.3027 285.389 46.042 286.461 46.042C286.771 46.042 287.24 46.0742 287.867 46.1387C287.961 46.1504 288.102 46.165 288.289 46.1826H289.933V53.1172C289.933 54.3008 290.056 55.2617 290.302 56H288.597C288.468 55.4609 288.365 54.7256 288.289 53.7939ZM288.289 51.8516V47.6416C287.709 47.4893 287.17 47.4131 286.672 47.4131C285.664 47.4131 284.823 47.8027 284.149 48.582C283.481 49.3613 283.147 50.4219 283.147 51.7637C283.147 52.7363 283.329 53.4717 283.692 53.9697C284.062 54.4619 284.48 54.708 284.949 54.708C285.459 54.708 286.021 54.4502 286.637 53.9346C287.252 53.4189 287.803 52.7246 288.289 51.8516ZM295.285 56V43.1855H292.35V41.8145H296.92V54.6377H299.987V56H295.285ZM311.668 55.6045C310.9 55.9268 310.344 56.1172 309.998 56.1758C309.652 56.2402 309.318 56.2725 308.996 56.2725C308.311 56.2725 307.684 56.1406 307.115 55.877C306.547 55.6133 306.116 55.2236 305.823 54.708C305.536 54.1924 305.393 53.3955 305.393 52.3174V48.3623H302.94V47H305.393V43.0449H307.027V47H311.396V48.3623H307.027V52.291C307.027 53.082 307.121 53.6416 307.309 53.9697C307.496 54.292 307.745 54.5293 308.056 54.6816C308.372 54.834 308.744 54.9102 309.172 54.9102C309.963 54.9102 310.795 54.6611 311.668 54.1631V55.6045ZM323.076 49.0479V50.4102H313.531V49.0479H323.076ZM323.076 52.1152V53.4775H313.531V52.1152H323.076ZM327.805 46.7275H326.68L326.117 41.8145H328.306L327.805 46.7275ZM331.593 46.7275H330.477L329.976 41.8145H332.12L331.593 46.7275ZM338.615 46.7275H337.49L336.928 41.8145H339.116L338.615 46.7275ZM342.403 46.7275H341.287L340.786 41.8145H342.931L342.403 46.7275Z" fill="#555555"/>
<path d="M369.047 124.604C368.279 124.927 367.723 125.117 367.377 125.176C367.031 125.24 366.697 125.272 366.375 125.272C365.689 125.272 365.062 125.141 364.494 124.877C363.926 124.613 363.495 124.224 363.202 123.708C362.915 123.192 362.771 122.396 362.771 121.317V117.362H360.319V116H362.771V112.045H364.406V116H368.774V117.362H364.406V121.291C364.406 122.082 364.5 122.642 364.688 122.97C364.875 123.292 365.124 123.529 365.435 123.682C365.751 123.834 366.123 123.91 366.551 123.91C367.342 123.91 368.174 123.661 369.047 123.163V124.604ZM374.399 125V116.545H371.675V115.183H376.034V123.638H378.768V125H374.399ZM374.127 111.641C374.127 111.271 374.253 110.996 374.505 110.814C374.757 110.633 374.994 110.542 375.217 110.542C375.445 110.542 375.686 110.633 375.938 110.814C376.189 110.996 376.315 111.271 376.315 111.641C376.315 112.004 376.189 112.276 375.938 112.458C375.686 112.64 375.445 112.73 375.217 112.73C374.994 112.73 374.757 112.64 374.505 112.458C374.253 112.276 374.127 112.004 374.127 111.641ZM390.668 124.604C389.9 124.927 389.344 125.117 388.998 125.176C388.652 125.24 388.318 125.272 387.996 125.272C387.311 125.272 386.684 125.141 386.115 124.877C385.547 124.613 385.116 124.224 384.823 123.708C384.536 123.192 384.393 122.396 384.393 121.317V117.362H381.94V116H384.393V112.045H386.027V116H390.396V117.362H386.027V121.291C386.027 122.082 386.121 122.642 386.309 122.97C386.496 123.292 386.745 123.529 387.056 123.682C387.372 123.834 387.744 123.91 388.172 123.91C388.963 123.91 389.795 123.661 390.668 123.163V124.604ZM395.906 125V112.186H392.971V110.814H397.541V123.638H400.608V125H395.906ZM412.245 124.35C410.938 124.971 409.702 125.281 408.536 125.281C407.651 125.281 406.86 125.062 406.163 124.622C405.466 124.183 404.906 123.556 404.484 122.741C404.068 121.921 403.86 121.045 403.86 120.113C403.86 119.217 404.06 118.355 404.458 117.529C404.856 116.703 405.413 116.062 406.128 115.604C406.843 115.142 407.64 114.91 408.519 114.91C409.685 114.91 410.619 115.326 411.322 116.158C412.031 116.99 412.386 118.273 412.386 120.008V120.359H405.618C405.618 121.039 405.759 121.66 406.04 122.223C406.327 122.785 406.702 123.207 407.165 123.488C407.628 123.77 408.155 123.91 408.747 123.91C409.802 123.91 410.968 123.559 412.245 122.855V124.35ZM405.715 119.138H410.61V118.9C410.61 118.098 410.414 117.459 410.021 116.984C409.629 116.51 409.104 116.272 408.448 116.272C407.786 116.272 407.212 116.516 406.726 117.002C406.245 117.482 405.908 118.194 405.715 119.138ZM423.697 118.048V119.41H414.152V118.048H423.697ZM423.697 121.115V122.478H414.152V121.115H423.697ZM428.426 115.728H427.301L426.738 110.814H428.927L428.426 115.728ZM432.214 115.728H431.098L430.597 110.814H432.741L432.214 115.728ZM439.236 115.728H438.111L437.549 110.814H439.737L439.236 115.728ZM443.024 115.728H441.908L441.407 110.814H443.552L443.024 115.728Z" fill="#555555"/>
<path d="M278.667 48C265.067 43.6 273.001 42.8333 278.667 43L298.667 28C303.167 36.8333 317.767 51.9 340.167 41.5C362.567 31.1 349.501 51.1667 340.167 62.5C351.667 65.6667 361.567 73.3 309.167 78.5C256.767 83.7 261.667 74.3333 270.667 69C279.001 63.8333 292.267 52.4 278.667 48Z" stroke="black"/>
</svg>
