<svg width="34" height="34" viewBox="0 0 34 34" fill="none" xmlns="http://www.w3.org/2000/svg">
<g clip-path="url(#clip0)">
<path d="M34 0L34 34L-1.48619e-06 34L0 -1.48619e-06L34 0Z" fill="#2E2E2E"/>
<path d="M31.093 2.65456L31.093 4.43531L15.6719 4.43531L15.6719 2.65456L31.093 2.65456ZM15.6719 13.722L15.6719 11.92L28.3709 11.92C28.4984 11.92 28.6365 11.8987 28.7857 11.8562C28.9344 11.8137 29.073 11.7287 29.2009 11.6021C29.3284 11.4746 29.438 11.2867 29.5307 11.0398C29.6225 10.792 29.6684 10.4639 29.6684 10.0538C29.6684 9.67216 29.6225 9.36446 29.5307 9.13156C29.438 8.89866 29.3212 8.71803 29.1796 8.59096C29.0377 8.46431 28.8923 8.38271 28.7436 8.34743C28.5948 8.31216 28.4571 8.29431 28.3292 8.29431L15.6719 8.29431L15.6719 6.51356L28.6896 6.51356C28.846 6.51356 29.0687 6.54161 29.3598 6.59856C29.6505 6.65381 29.9378 6.80256 30.2213 7.04311C30.5044 7.28323 30.7492 7.64406 30.9549 8.12431C31.1601 8.60456 31.263 9.26926 31.263 10.1176C31.263 10.9654 31.161 11.6297 30.9553 12.11C30.7496 12.5902 30.5048 12.9515 30.2213 13.1912C29.9366 13.4313 29.6501 13.5796 29.3594 13.6361C29.0683 13.6922 28.8452 13.7211 28.6892 13.7211L15.6719 13.722ZM24.2229 17.5806L24.2229 21.4821L22.5424 21.4821L22.5424 17.5806L15.6723 17.5806L15.6723 15.7998L28.69 15.7998C28.9591 15.7998 29.2362 15.8487 29.5196 15.9477C29.8031 16.0463 30.0619 16.1951 30.2961 16.3923C30.5299 16.5912 30.7211 16.8419 30.8699 17.1454C31.0186 17.4492 31.0938 17.799 31.0938 18.1951L31.0938 22.4154L29.6051 22.4154L29.6051 18.7893C29.6051 18.4208 29.481 18.1275 29.2332 17.9087C28.985 17.6898 28.6832 17.5814 28.3292 17.5814L24.2237 17.5814L24.2229 17.5806ZM18.309 31.1075L18.0965 31.1075C17.9265 31.1075 17.6995 31.0786 17.4165 31.0225C17.1326 30.9655 16.8491 30.8176 16.5652 30.5762C16.2813 30.3369 16.0374 29.9761 15.8312 29.4954C15.6264 29.0152 15.5227 28.3513 15.5227 27.5022C15.5227 26.6552 15.626 25.9905 15.8312 25.5102C16.0369 25.03 16.2817 24.6687 16.5652 24.4294C16.8487 24.1889 17.136 24.0397 17.4267 23.984C17.7174 23.9271 17.9409 23.899 18.0969 23.899L28.7113 23.899C28.8673 23.899 29.0908 23.9271 29.3815 23.984C29.6718 24.0393 29.9595 24.188 30.243 24.4294C30.526 24.6687 30.7708 25.03 30.9765 25.5102C31.1818 25.9905 31.2847 26.6552 31.2847 27.5026C31.2847 28.3518 31.1827 29.0165 30.977 29.4959C30.7713 29.977 30.5265 30.3374 30.243 30.5775C29.9582 30.818 29.6714 30.9664 29.3811 31.0229C29.0904 31.0794 28.8668 31.1079 28.7109 31.1079L18.309 31.1075ZM18.6286 29.3055L18.6286 29.3259L28.1571 29.3259L28.1571 29.3055L28.3917 29.3055C28.5192 29.3055 28.6573 29.2842 28.8065 29.2417C28.9552 29.1992 29.0938 29.1142 29.2213 28.9867C29.3488 28.8601 29.4593 28.6722 29.5511 28.4249C29.6433 28.1784 29.6892 27.849 29.6892 27.4397C29.6892 27.0581 29.6433 26.7512 29.5511 26.5175C29.4584 26.2837 29.3416 26.1035 29.2 25.976C29.0581 25.8494 28.9127 25.7678 28.764 25.7325C28.6152 25.6972 28.4767 25.6802 28.3492 25.6802L18.4373 25.6802C18.3098 25.6802 18.1709 25.6972 18.0221 25.7325C17.8734 25.7673 17.7314 25.8494 17.5971 25.976C17.462 26.1035 17.3489 26.2841 17.2571 26.517C17.1645 26.7508 17.1186 27.0576 17.1186 27.4393C17.1186 27.849 17.1636 28.1779 17.2563 28.4253C17.3489 28.6726 17.4586 28.8601 17.5861 28.9863C17.7136 29.1138 17.8521 29.1988 18.0013 29.2413C18.15 29.2838 18.2809 29.305 18.3948 29.305L18.6286 29.3055Z" fill="white"/>
<path d="M4.56454 7.52675C4.44894 7.52675 4.29595 7.50805 4.10555 7.4698C3.9143 7.43155 3.72304 7.33125 3.53179 7.1689C3.34054 7.00655 3.17479 6.7626 3.03667 6.4379C2.89854 6.1132 2.82927 5.6644 2.82927 5.09065C2.82927 4.5169 2.89854 4.06853 3.03667 3.7434C3.17522 3.4187 3.34012 3.17518 3.53179 3.0124C3.72304 2.85005 3.916 2.74975 4.11235 2.7115C4.30785 2.67325 4.45872 2.65413 4.56412 2.65413L4.92112 2.65413L4.92112 3.85815L4.79277 3.85815C4.7065 3.85815 4.61342 3.87005 4.51312 3.89385C4.41325 3.91765 4.31762 3.9729 4.22667 4.05875C4.13529 4.1446 4.05879 4.267 3.99717 4.42425C3.93512 4.5815 3.90367 4.78975 3.90367 5.04773C3.90367 5.32398 3.93512 5.54413 3.99717 5.70648C4.05922 5.86925 4.13317 5.99548 4.21902 6.08685C4.30487 6.17738 4.39837 6.2373 4.49825 6.26535C4.59854 6.2951 4.68694 6.30913 4.76387 6.30913L6.32744 6.30913C6.44219 6.30913 6.57819 6.27513 6.73544 6.20883C6.89354 6.14168 7.01509 5.98358 7.10094 5.7358L7.17319 5.52075C7.20082 5.43575 7.23014 5.35925 7.25819 5.29125L7.61732 4.21685C7.63644 4.1786 7.64537 4.15013 7.64537 4.131C7.80772 3.58615 8.04189 3.2045 8.34789 2.98435C8.65389 2.76463 8.97859 2.65498 9.32284 2.65498L11.716 2.65498C11.8214 2.65498 11.971 2.67368 12.1674 2.71235C12.3637 2.7506 12.5567 2.85048 12.7483 3.01325C12.9396 3.17603 13.1045 3.41955 13.243 3.74425C13.3816 4.06938 13.4513 4.51775 13.4513 5.0915C13.4513 5.66525 13.3816 6.11405 13.243 6.43875C13.1049 6.76388 12.94 7.0074 12.7488 7.16975C12.5575 7.33253 12.3641 7.4324 12.1678 7.47065C11.9723 7.5089 11.8223 7.52803 11.7164 7.52803L11.3441 7.52803L11.3441 6.30998L11.5014 6.30998C11.5877 6.30998 11.6807 6.29553 11.7806 6.26663C11.8805 6.23815 11.974 6.17823 12.0594 6.08813C12.1461 5.99675 12.2196 5.8701 12.2817 5.70775C12.3433 5.54498 12.3752 5.32525 12.3752 5.049C12.3752 4.7906 12.3437 4.58235 12.2817 4.4251C12.2192 4.26785 12.1402 4.14545 12.045 4.0596C11.9493 3.97375 11.8512 3.91808 11.7509 3.8947C11.651 3.8709 11.5583 3.859 11.4725 3.859L9.53747 3.859C9.41337 3.859 9.27397 3.8947 9.12182 3.96653C8.96882 4.03793 8.84982 4.19815 8.76354 4.44678C8.74399 4.48503 8.72444 4.53263 8.70574 4.58958L8.64837 4.76128C8.59057 4.9334 8.52384 5.13103 8.44692 5.35628C8.37042 5.58025 8.29392 5.7885 8.21742 5.97933C8.16982 6.17058 8.11287 6.33293 8.04572 6.46638C7.98792 6.6385 7.90419 6.78938 7.79497 6.91773C7.68447 7.04693 7.55824 7.1587 7.41459 7.25475C7.14684 7.43623 6.85105 7.52675 6.52635 7.52675L4.56327 7.52675L4.56454 7.52675ZM13.3225 14.0909L2.92957 14.0909L2.92957 12.8869L7.55994 12.8869L7.55994 10.1499L2.92914 10.1499L2.92914 8.93138L13.3225 8.93138L13.3225 10.1494L8.69214 10.1494L8.69214 12.8873L13.3225 12.8873L13.3225 14.0913L13.3225 14.0909ZM2.92957 19.924L2.92957 17.1148C2.92957 16.8385 2.98057 16.5997 3.08002 16.3982C3.18032 16.1976 3.30952 16.0302 3.46677 15.8967C3.62487 15.7628 3.79912 15.663 3.99037 15.5958C4.18034 15.5291 4.36692 15.4955 4.54882 15.4955L11.7028 15.4955C11.8839 15.4955 12.0705 15.5295 12.2617 15.5958C12.453 15.663 12.6272 15.7633 12.7853 15.8967C12.9426 16.0302 13.0722 16.1976 13.1721 16.3982C13.2724 16.5992 13.3225 16.8377 13.3225 17.1148L13.3225 19.924L12.3195 19.924L12.3195 17.516C12.3195 17.2682 12.2358 17.0697 12.0688 16.921C11.9017 16.7722 11.6977 16.6991 11.4593 16.6991L8.69214 16.6991L8.69214 19.2933L7.56037 19.2933L7.56037 16.6991L4.77959 16.6991C4.55009 16.6991 4.35119 16.7731 4.18459 16.9214C4.01714 17.0701 3.93384 17.2682 3.93384 17.5164L3.93384 19.9236L2.93085 19.9236L2.92957 19.924ZM3.94702 25.5706L2.92914 25.5706L2.92914 22.9475C2.92914 22.6712 2.98015 22.4319 3.0796 22.2318C3.1799 22.0299 3.30909 21.8633 3.46634 21.7294C3.62359 21.5955 3.79869 21.4948 3.98994 21.4277C4.18034 21.3614 4.36692 21.3282 4.54882 21.3282L13.3221 21.3282L13.3221 22.5318L4.77917 22.5318C4.54967 22.5318 4.35417 22.6058 4.19097 22.7537C4.02777 22.9016 3.94744 23.1005 3.94744 23.3487L3.94744 25.5706L3.94702 25.5706ZM3.94702 31.2175L2.92914 31.2175L2.92914 28.594C2.92914 28.3178 2.98015 28.0798 3.0796 27.8787C3.1799 27.6769 3.30909 27.5103 3.46634 27.3764C3.62359 27.2425 3.79869 27.1414 3.98994 27.0746C4.18034 27.0079 4.36692 26.9756 4.54882 26.9756L13.3221 26.9756L13.3221 28.1784L4.77917 28.1784C4.54967 28.1784 4.35417 28.2532 4.19097 28.4006C4.02862 28.5494 3.94744 28.747 3.94744 28.9956L3.94744 31.2175L3.94702 31.2175Z" fill="white"/>
</g>
<defs>
<clipPath id="clip0">
<rect width="34" height="34" fill="white" transform="translate(34) rotate(90)"/>
</clipPath>
</defs>
</svg>
