<svg width="17" height="17" viewBox="0 0 17 17" fill="none" xmlns="http://www.w3.org/2000/svg">
<path d="M10.6027 11.5117C10.1832 11.445 10.1736 10.2915 10.1736 10.2915C10.1736 10.2915 11.4063 9.07121 11.6749 7.43029C12.3976 7.43029 12.844 5.68578 12.1212 5.072C12.1515 4.42588 13.0502 0 8.5 0C3.94981 0 4.84861 4.42588 4.8787 5.072C4.15593 5.68578 4.60226 7.43029 5.32498 7.43029C5.59361 9.07121 6.8263 10.2915 6.8263 10.2915C6.8263 10.2915 6.81673 11.445 6.39724 11.5117C5.04596 11.7267 0 13.9524 0 16.3929H8.5H17C17 13.9524 11.954 11.7267 10.6027 11.5117Z" fill="#7F7F7F"/>
</svg>
