<svg width="50" height="50" viewBox="0 0 50 50" fill="none" xmlns="http://www.w3.org/2000/svg">
<path d="M24.2188 21.0938V22.0188C23.6979 22.2022 23.2588 22.5641 22.9792 23.0403C22.6996 23.5164 22.5975 24.0762 22.6911 24.6205C22.7847 25.1647 23.0678 25.6582 23.4904 26.0137C23.913 26.3691 24.4478 26.5635 25 26.5625C25.1545 26.5625 25.3056 26.6083 25.434 26.6942C25.5625 26.78 25.6626 26.902 25.7218 27.0448C25.7809 27.1875 25.7964 27.3446 25.7662 27.4962C25.7361 27.6477 25.6617 27.7869 25.5524 27.8962C25.4432 28.0054 25.304 28.0798 25.1524 28.11C25.0009 28.1401 24.8438 28.1247 24.701 28.0655C24.5583 28.0064 24.4363 27.9063 24.3504 27.7778C24.2646 27.6493 24.2188 27.4983 24.2188 27.3438H22.6562C22.6583 27.8268 22.8094 28.2974 23.0891 28.6912C23.3688 29.085 23.7634 29.3827 24.2188 29.5438V30.4688H25.7812V29.5438C26.3021 29.3603 26.7412 28.9984 27.0208 28.5222C27.3004 28.046 27.4025 27.4863 27.3089 26.942C27.2153 26.3978 26.9322 25.9043 26.5096 25.5488C26.087 25.1934 25.5522 24.999 25 25C24.8455 25 24.6944 24.9542 24.566 24.8683C24.4375 24.7825 24.3374 24.6605 24.2782 24.5177C24.2191 24.375 24.2036 24.2179 24.2338 24.0663C24.2639 23.9148 24.3383 23.7756 24.4476 23.6663C24.5568 23.5571 24.696 23.4827 24.8476 23.4525C24.9991 23.4224 25.1562 23.4378 25.299 23.497C25.4417 23.5561 25.5637 23.6562 25.6496 23.7847C25.7354 23.9132 25.7812 24.0642 25.7812 24.2188H27.3438C27.3417 23.7357 27.1906 23.2651 26.9109 22.8713C26.6312 22.4775 26.2366 22.1798 25.7812 22.0188V21.0938H24.2188Z" fill="#362758"/>
<path d="M29.6875 15.625C31.1374 15.6233 32.5274 15.0466 33.5527 14.0214C34.5779 12.9962 35.1546 11.6061 35.1562 10.1562C35.1562 9.94905 35.0739 9.75034 34.9274 9.60382C34.7809 9.45731 34.5822 9.375 34.375 9.375H29.6875C28.9592 9.3746 28.2383 9.52028 27.5673 9.80342C26.8964 10.0866 26.289 10.5014 25.7812 11.0234V7.8125H29.6875C31.1374 7.81085 32.5274 7.23414 33.5527 6.20891C34.5779 5.18368 35.1546 3.79364 35.1562 2.34375C35.1562 2.13655 35.0739 1.93784 34.9274 1.79132C34.7809 1.64481 34.5822 1.5625 34.375 1.5625H29.6875C28.7424 1.56269 27.8135 1.8083 26.9918 2.27529C26.1701 2.74228 25.4838 3.41465 25 4.22656C24.5162 3.41465 23.8299 2.74228 23.0082 2.27529C22.1865 1.8083 21.2576 1.56269 20.3125 1.5625H15.625C15.4178 1.5625 15.2191 1.64481 15.0726 1.79132C14.9261 1.93784 14.8438 2.13655 14.8438 2.34375C14.8454 3.79364 15.4221 5.18368 16.4473 6.20891C17.4726 7.23414 18.8626 7.81085 20.3125 7.8125H24.2188V11.0234C23.711 10.5014 23.1036 10.0866 22.4327 9.80342C21.7617 9.52028 21.0408 9.3746 20.3125 9.375H15.625C15.4178 9.375 15.2191 9.45731 15.0726 9.60382C14.9261 9.75034 14.8438 9.94905 14.8438 10.1562C14.8454 11.6061 15.4221 12.9962 16.4473 14.0214C17.4726 15.0466 18.8626 15.6233 20.3125 15.625H24.2188V17.2266C22.0164 17.4276 19.9763 18.4699 18.5229 20.1368C17.0694 21.8036 16.3145 23.9665 16.4152 26.1758C16.5158 28.385 17.4642 30.4704 19.0632 31.9981C20.6621 33.5259 22.7885 34.3785 25 34.3785C27.2115 34.3785 29.3379 33.5259 30.9368 31.9981C32.5358 30.4704 33.4842 28.385 33.5848 26.1758C33.6855 23.9665 32.9306 21.8036 31.4771 20.1368C30.0237 18.4699 27.9836 17.4276 25.7812 17.2266V15.625H29.6875ZM29.6875 10.9375H33.5156C33.3343 11.8192 32.8545 12.6114 32.1572 13.1807C31.4599 13.7499 30.5877 14.0614 29.6875 14.0625H25.8594C26.0407 13.1808 26.5205 12.3886 27.2178 11.8193C27.9151 11.2501 28.7873 10.9386 29.6875 10.9375ZM29.6875 3.125H33.5156C33.3343 4.00671 32.8545 4.79895 32.1572 5.36819C31.4599 5.93743 30.5877 6.24886 29.6875 6.25H25.8594C26.0407 5.36829 26.5205 4.57605 27.2178 4.00681C27.9151 3.43757 28.7873 3.12614 29.6875 3.125ZM20.3125 6.25C19.4123 6.24886 18.5401 5.93743 17.8428 5.36819C17.1455 4.79895 16.6657 4.00671 16.4844 3.125H20.3125C21.2127 3.12614 22.0849 3.43757 22.7822 4.00681C23.4795 4.57605 23.9593 5.36829 24.1406 6.25H20.3125ZM20.3125 14.0625C19.4123 14.0614 18.5401 13.7499 17.8428 13.1807C17.1455 12.6114 16.6657 11.8192 16.4844 10.9375H20.3125C21.2127 10.9386 22.0849 11.2501 22.7822 11.8193C23.4795 12.3886 23.9593 13.1808 24.1406 14.0625H20.3125ZM32.0312 25.7812C32.0312 27.1719 31.6189 28.5313 30.8463 29.6876C30.0737 30.8439 28.9755 31.7451 27.6907 32.2773C26.4059 32.8095 24.9922 32.9487 23.6283 32.6774C22.2643 32.4061 21.0115 31.7364 20.0282 30.7531C19.0448 29.7698 18.3752 28.5169 18.1039 27.153C17.8326 25.7891 17.9718 24.3753 18.504 23.0905C19.0361 21.8057 19.9374 20.7076 21.0936 19.935C22.2499 19.1624 23.6094 18.75 25 18.75C26.8639 18.7529 28.6507 19.4946 29.9686 20.8126C31.2866 22.1306 32.0284 23.9173 32.0312 25.7812Z" fill="#362758"/>
<path d="M3.125 1.5625H4.6875V3.125H3.125V1.5625Z" fill="#362758"/>
<path d="M3.125 4.6875H4.6875V6.25H3.125V4.6875Z" fill="#362758"/>
<path d="M1.5625 3.125H3.125V4.6875H1.5625V3.125Z" fill="#362758"/>
<path d="M4.6875 3.125H6.25V4.6875H4.6875V3.125Z" fill="#362758"/>
<path d="M7.8125 10.9375H9.375V12.5H7.8125V10.9375Z" fill="#362758"/>
<path d="M7.8125 14.0625H9.375V15.625H7.8125V14.0625Z" fill="#362758"/>
<path d="M6.25 12.5H7.8125V14.0625H6.25V12.5Z" fill="#362758"/>
<path d="M9.375 12.5H10.9375V14.0625H9.375V12.5Z" fill="#362758"/>
<path d="M3.125 20.3125H4.6875V21.875H3.125V20.3125Z" fill="#362758"/>
<path d="M3.125 23.4375H4.6875V25H3.125V23.4375Z" fill="#362758"/>
<path d="M1.5625 21.875H3.125V23.4375H1.5625V21.875Z" fill="#362758"/>
<path d="M4.6875 21.875H6.25V23.4375H4.6875V21.875Z" fill="#362758"/>
<path d="M45.3125 1.5625H46.875V3.125H45.3125V1.5625Z" fill="#362758"/>
<path d="M45.3125 4.6875H46.875V6.25H45.3125V4.6875Z" fill="#362758"/>
<path d="M46.875 3.125H48.4375V4.6875H46.875V3.125Z" fill="#362758"/>
<path d="M43.75 3.125H45.3125V4.6875H43.75V3.125Z" fill="#362758"/>
<path d="M40.625 10.9375H42.1875V12.5H40.625V10.9375Z" fill="#362758"/>
<path d="M40.625 14.0625H42.1875V15.625H40.625V14.0625Z" fill="#362758"/>
<path d="M42.1875 12.5H43.75V14.0625H42.1875V12.5Z" fill="#362758"/>
<path d="M39.0625 12.5H40.625V14.0625H39.0625V12.5Z" fill="#362758"/>
<path d="M45.3125 20.3125H46.875V21.875H45.3125V20.3125Z" fill="#362758"/>
<path d="M45.3125 23.4375H46.875V25H45.3125V23.4375Z" fill="#362758"/>
<path d="M46.875 21.875H48.4375V23.4375H46.875V21.875Z" fill="#362758"/>
<path d="M43.75 21.875H45.3125V23.4375H43.75V21.875Z" fill="#362758"/>
<path d="M48.3203 32.8438C47.8007 31.9484 46.9481 31.2949 45.9485 31.0256C44.949 30.7563 43.8835 30.8931 42.9844 31.4063L33.2031 37.0547C32.4726 36.3394 31.4911 35.9384 30.4687 35.9375H21.4141L19.1172 33.6328C18.6084 33.1241 18.0042 32.7207 17.3393 32.4459C16.6743 32.1711 15.9617 32.0302 15.2422 32.0313H7.8125V30.4688C7.8125 30.2616 7.73019 30.0628 7.58368 29.9163C7.43716 29.7698 7.23845 29.6875 7.03125 29.6875H2.34375C2.13655 29.6875 1.93784 29.7698 1.79132 29.9163C1.64481 30.0628 1.5625 30.2616 1.5625 30.4688V47.6563C1.5625 47.8635 1.64481 48.0622 1.79132 48.2087C1.93784 48.3552 2.13655 48.4375 2.34375 48.4375H7.03125C7.23845 48.4375 7.43716 48.3552 7.58368 48.2087C7.73019 48.0622 7.8125 47.8635 7.8125 47.6563V45.5703L17.3359 48.2891C17.6845 48.3859 18.0445 48.4358 18.4062 48.4375H28.0703C28.7561 48.4382 29.4299 48.2576 30.0234 47.9141L46.8906 38.1797C47.7878 37.6617 48.4424 36.8085 48.7105 35.8078C48.9787 34.8071 48.8383 33.7409 48.3203 32.8438ZM6.25 46.875H3.125V31.25H6.25V46.875ZM47.2031 35.3984C47.1237 35.6959 46.9861 35.9747 46.7984 36.2187C46.6107 36.4628 46.3765 36.6672 46.1094 36.8203L29.2422 46.5625C28.8849 46.7656 28.4813 46.8732 28.0703 46.875H18.4062C18.1892 46.8757 17.9733 46.8441 17.7656 46.7813L7.8125 43.9453V33.5938H15.2422C15.7564 33.5915 16.2659 33.6919 16.7408 33.8891C17.2157 34.0863 17.6465 34.3763 18.0078 34.7422L20.5391 37.2734C20.688 37.4173 20.8866 37.4985 21.0937 37.5H30.4687C30.773 37.4984 31.0745 37.5569 31.3561 37.6722C31.6377 37.7875 31.8936 37.9573 32.1094 38.1719C32.2098 38.2754 32.3037 38.3849 32.3906 38.5C32.6637 38.8951 32.8107 39.3635 32.8125 39.8438C32.8106 40.4648 32.5631 41.0599 32.124 41.499C31.6848 41.9381 31.0898 42.1857 30.4687 42.1875H21.0937V43.75H30.4687C31.1113 43.7539 31.7447 43.5983 32.3123 43.2971C32.8799 42.9959 33.3638 42.5586 33.7208 42.0243C34.0777 41.49 34.2965 40.8755 34.3575 40.2359C34.4185 39.5963 34.3198 38.9515 34.0703 38.3594L43.7656 32.7656C44.1668 32.5338 44.6277 32.426 45.0901 32.456C45.5525 32.486 45.9957 32.6524 46.3636 32.9341C46.7314 33.2159 47.0075 33.6004 47.157 34.039C47.3064 34.4776 47.3225 34.9507 47.2031 35.3984Z" fill="#362758"/>
</svg>
