<svg width="17" height="17" viewBox="0 0 17 17" fill="none" xmlns="http://www.w3.org/2000/svg">
<path fill-rule="evenodd" clip-rule="evenodd" d="M15.4903 5.75076L11.2469 1.50737L12.3126 0.441628C12.5982 0.156029 12.9767 0 13.3785 0C13.7836 0 14.1622 0.156029 14.4444 0.441628L16.5528 2.55003C16.8383 2.83549 16.9943 3.21409 16.9943 3.61577C16.9943 4.02095 16.8383 4.39941 16.5528 4.68164L15.4903 5.75076ZM0.512306 17C0.376121 17 0.246681 16.9468 0.150444 16.8506C0.017631 16.7178 -0.0321737 16.5252 0.0208735 16.3459L1.35561 11.6775L5.32676 15.6487L0.651733 16.98C0.6053 16.9934 0.558738 17 0.512306 17ZM6.14024 15.104L1.89361 10.8574L10.5662 2.18803L14.8096 6.43142L6.14024 15.104Z" fill="#7F7F7F"/>
</svg>
