<svg width="17" height="17" viewBox="0 0 17 17" fill="none" xmlns="http://www.w3.org/2000/svg">
<path d="M0.00798607 13.3868C-0.0279808 13.6624 0.0559902 13.902 0.25955 14.1056L2.64942 16.4774C2.75723 16.5972 2.89796 16.6991 3.07166 16.7829C3.24535 16.8668 3.41603 16.9207 3.58368 16.9446C3.59566 16.9446 3.63169 16.9477 3.69161 16.9537C3.75142 16.9596 3.82929 16.9627 3.92512 16.9627C4.15278 16.9627 4.52118 16.9237 5.0303 16.8459C5.53942 16.768 6.16231 16.5763 6.89897 16.2708C7.63582 15.9654 8.47134 15.5071 9.4057 14.8962C10.3401 14.2854 11.3344 13.4468 12.3885 12.3806C13.2271 11.554 13.9219 10.7634 14.4729 10.0087C15.024 9.25399 15.4672 8.5562 15.8026 7.91531C16.1381 7.27441 16.3896 6.69342 16.5574 6.17232C16.7251 5.65122 16.8389 5.202 16.8988 4.82465C16.9587 4.44731 16.9826 4.15082 16.9706 3.93519C16.9587 3.71956 16.9527 3.59977 16.9527 3.57581C16.9287 3.4081 16.8748 3.2374 16.7909 3.0637C16.7071 2.89 16.6053 2.74924 16.4855 2.64143L14.0956 0.251565C13.9279 0.0838549 13.7362 0 13.5206 0C13.3649 0 13.2271 0.0449223 13.1073 0.134767C12.9875 0.224611 12.8857 0.33542 12.8019 0.467192L10.8792 4.11488C10.7714 4.30655 10.7414 4.51619 10.7893 4.74379C10.8372 4.9714 10.9391 5.16307 11.0948 5.3188L11.9753 6.19927C11.9992 6.22323 12.0202 6.26217 12.0382 6.31607C12.0561 6.36998 12.0651 6.4149 12.0651 6.45084C12.0172 6.7024 11.9094 6.98991 11.7417 7.31335C11.5979 7.60085 11.3763 7.95124 11.0768 8.36453C10.7774 8.77781 10.3521 9.25396 9.80104 9.79303C9.26197 10.3441 8.7828 10.7723 8.36353 11.0779C7.94434 11.3832 7.59383 11.6079 7.31232 11.7517C7.03081 11.8954 6.81518 11.9823 6.66547 12.0121L6.44091 12.0571C6.41696 12.0571 6.37794 12.0481 6.32409 12.0301C6.27018 12.0121 6.23125 11.9912 6.20726 11.9672L5.18306 10.925C4.96732 10.7334 4.71587 10.6375 4.42834 10.6375C4.22463 10.6375 4.063 10.6734 3.94321 10.7454H3.92527L0.457296 12.7938C0.205643 12.9497 0.055933 13.1473 0.00798607 13.3868Z" fill="#7F7F7F"/>
</svg>
