<svg width="645" height="501" viewBox="0 0 645 501" fill="none" xmlns="http://www.w3.org/2000/svg">
<circle opacity="0.8" cx="315" cy="251" r="230.5" stroke="#F8CBE5" stroke-width="3"/>
<circle cx="314.5" cy="250.5" r="249" stroke="#F8CBE5" stroke-width="3"/>
<path opacity="0.6" d="M523.5 250.5C523.5 365.372 430.155 458.5 315 458.5C199.845 458.5 106.5 365.372 106.5 250.5C106.5 135.628 199.845 42.5 315 42.5C430.155 42.5 523.5 135.628 523.5 250.5Z" stroke="#F8CBE5" stroke-width="3"/>
<circle opacity="0.4" cx="315" cy="251" r="186.5" stroke="#F8CBE5" stroke-width="3"/>
<circle opacity="0.2" cx="314.5" cy="250.5" r="164" stroke="#F8CBE5" stroke-width="3"/>
<circle opacity="0.23" cx="314" cy="255" r="71" fill="#E21F8C"/>
<path d="M276.974 258.552C276.974 259.882 276.739 261.048 276.269 262.05C275.799 263.052 275.125 263.825 274.247 264.369C273.375 264.913 272.373 265.186 271.241 265.186C270.121 265.186 269.122 264.917 268.244 264.378C267.366 263.84 266.686 263.073 266.203 262.078C265.721 261.076 265.476 259.925 265.47 258.626V257.958C265.47 256.629 265.708 255.46 266.185 254.452C266.667 253.437 267.344 252.661 268.216 252.123C269.095 251.579 270.097 251.307 271.222 251.307C272.348 251.307 273.347 251.579 274.219 252.123C275.097 252.661 275.774 253.437 276.25 254.452C276.733 255.46 276.974 256.626 276.974 257.949V258.552ZM274.154 257.94C274.154 256.524 273.9 255.447 273.393 254.711C272.886 253.975 272.162 253.607 271.222 253.607C270.288 253.607 269.568 253.972 269.061 254.702C268.553 255.426 268.297 256.49 268.291 257.894V258.552C268.291 259.931 268.544 261.001 269.051 261.762C269.558 262.523 270.288 262.903 271.241 262.903C272.175 262.903 272.892 262.538 273.393 261.809C273.894 261.073 274.148 260.003 274.154 258.599V257.94ZM289.22 251.492V260.389C289.22 261.867 288.756 263.036 287.829 263.896C286.907 264.756 285.645 265.186 284.043 265.186C282.466 265.186 281.214 264.768 280.286 263.933C279.358 263.098 278.885 261.951 278.867 260.491V251.492H281.65V260.408C281.65 261.292 281.86 261.938 282.281 262.347C282.708 262.749 283.295 262.95 284.043 262.95C285.608 262.95 286.403 262.127 286.428 260.482V251.492H289.22ZM301.67 253.747H297.533V265H294.75V253.747H290.667V251.492H301.67V253.747ZM308.267 260.055H306.049V265H303.266V251.492H308.285C309.881 251.492 311.112 251.848 311.978 252.559C312.843 253.27 313.276 254.275 313.276 255.574C313.276 256.496 313.075 257.266 312.673 257.884C312.278 258.497 311.674 258.985 310.864 259.35L313.787 264.87V265H310.799L308.267 260.055ZM306.049 257.801H308.294C308.993 257.801 309.535 257.625 309.918 257.272C310.301 256.913 310.493 256.422 310.493 255.797C310.493 255.16 310.311 254.659 309.946 254.294C309.587 253.929 309.034 253.747 308.285 253.747H306.049V257.801ZM323.528 259.146H318.184V262.764H324.456V265H315.401V251.492H324.437V253.747H318.184V256.966H323.528V259.146ZM333.714 262.217H328.834L327.907 265H324.947L329.976 251.492H332.555L337.611 265H334.651L333.714 262.217ZM329.586 259.962H332.963L331.265 254.906L329.586 259.962ZM349.272 260.5C349.167 261.954 348.629 263.098 347.658 263.933C346.693 264.768 345.419 265.186 343.836 265.186C342.104 265.186 340.74 264.604 339.745 263.441C338.755 262.272 338.26 260.671 338.26 258.636V257.81C338.26 256.511 338.489 255.367 338.947 254.377C339.404 253.388 340.057 252.63 340.904 252.104C341.758 251.573 342.747 251.307 343.873 251.307C345.432 251.307 346.687 251.724 347.64 252.559C348.592 253.394 349.143 254.566 349.291 256.075H346.508C346.44 255.203 346.195 254.572 345.775 254.183C345.361 253.787 344.727 253.589 343.873 253.589C342.945 253.589 342.25 253.923 341.786 254.591C341.328 255.253 341.093 256.282 341.081 257.68V258.701C341.081 260.16 341.3 261.227 341.739 261.901C342.185 262.576 342.883 262.913 343.836 262.913C344.696 262.913 345.336 262.718 345.756 262.328C346.183 261.932 346.427 261.323 346.489 260.5H349.272ZM362.094 265H359.311V259.211H353.883V265H351.1V251.492H353.883V256.966H359.311V251.492H362.094V265Z" fill="#222222"/>
<g clip-path="url(#clip0)">
<path d="M117 371H231V387H98C98 381.92 98 376.85 98 371.77C98 371.15 98.14 370.91 98.77 371C99.87 372.51 99.71 374.25 99.77 376V385.43H102.47V376.47C102.85 376.73 103.29 376.89 103.47 377.2C104.76 379.47 106 381.77 107.27 384C107.516 384.328 107.809 384.618 108.14 384.86C110.04 381.86 111.4 378.86 113.38 376.28L113.71 376.41V385.41H116.93C116.788 384.688 116.701 383.956 116.67 383.22C116.74 379.16 116.87 375.09 117 371ZM175.1 377.91C175.885 378.521 176.624 379.19 177.31 379.91C178.87 381.77 181.31 382.79 182.31 385.21C182.31 385.34 182.65 385.45 182.82 385.46C183.63 385.46 184.45 385.46 185.23 385.46V374.32H182.82C182.82 376.32 182.82 378.32 182.82 380.26C182.77 380.556 182.668 380.84 182.52 381.1C182.268 380.998 182.027 380.87 181.8 380.72C180.86 379.89 179.91 379.08 179.04 378.18C177.96 377.08 176.97 375.88 175.91 374.75C175.708 374.508 175.429 374.343 175.12 374.28C174.26 374.22 173.39 374.28 172.51 374.28C172.998 377.966 173.021 381.699 172.58 385.39H175.1V377.91ZM188.91 385.44H189.91C191.983 385.522 194.059 385.499 196.13 385.37C197.485 385.212 198.786 384.743 199.93 384C201.49 383 201.93 378.88 201.01 377.13C200.666 376.377 200.112 375.738 199.416 375.289C198.719 374.841 197.908 374.602 197.08 374.6L188.89 374.11L188.91 385.44ZM120.62 374.28C120.85 378.03 120.75 381.69 120.69 385.44H131.69V383.62C129.24 383.62 126.91 383.62 124.59 383.62C124.21 383.62 123.59 383.43 123.49 383.16C122.76 381.58 123.49 380.52 125.24 380.53C125.9 380.53 126.57 380.53 127.24 380.53C128.89 380.53 129.06 380.34 128.51 378.77C127.09 378.77 125.68 378.77 124.28 378.77C123.54 378.77 123.28 378.38 123.4 377.77C123.52 377.16 123 376.11 124 376.07C126.49 375.96 129 376.07 131.55 376.07V374.28H120.62ZM147 384.1L146.65 379.87L141 379.56V381.11H144.6C144.89 383.04 144.55 383.51 142.78 383.62C141.782 383.701 140.778 383.701 139.78 383.62C138.995 383.549 138.251 383.238 137.648 382.73C137.046 382.222 136.614 381.542 136.41 380.78C136.225 380.161 136.22 379.501 136.397 378.879C136.575 378.257 136.926 377.699 137.41 377.27C139.21 375.38 142.81 375.51 145.05 377.33C145.274 377.107 145.472 376.858 145.64 376.59C145.91 375.97 146.35 375.13 145.35 374.88C142.77 374.25 140.2 373.57 137.5 374.67C136.558 375.006 135.72 375.582 135.069 376.342C134.419 377.101 133.978 378.018 133.79 379C133.16 382.28 135.88 385.13 139.15 385.5C141.848 385.834 144.584 385.346 147 384.1V384.1ZM215.47 383.62C212.98 383.62 210.59 383.62 208.2 383.62C206.87 383.62 207.03 382.78 207.01 381.96C206.99 381.14 207.01 380.41 208.23 380.47C209.58 380.47 210.94 380.47 212.29 380.47V378.75C210.79 378.75 209.39 378.75 207.98 378.75C207.09 378.75 206.98 378.2 206.98 377.53C206.98 376.86 206.82 376.06 207.81 376.04C210.31 376.04 212.81 376.04 215.34 376.04V374.33H204.34V385.44H215.44L215.47 383.62ZM217.84 374.3C219.26 376.01 220.58 377.52 221.84 379.11C221.948 379.326 222.005 379.564 222.005 379.805C222.005 380.047 221.948 380.285 221.84 380.5C221.414 381.132 220.928 381.721 220.39 382.26L217.69 385.38H221.4C221.2 383.83 222.4 383.18 223.16 382.24C223.69 381.58 224.06 381.77 224.41 382.24C225.12 383.24 225.76 384.24 226.54 385.37H230.01L225.34 379.57L229.83 374.3H226C225.85 375.72 224.77 377.38 224 377.44C223.23 377.5 222.23 376.07 221.86 374.29L217.84 374.3ZM148.91 385.48H151C151.37 385.48 151.73 385.43 152.11 385.41C151.946 385.076 151.875 384.704 151.903 384.333C151.931 383.962 152.057 383.605 152.269 383.299C152.481 382.994 152.771 382.75 153.109 382.594C153.446 382.437 153.82 382.374 154.19 382.41C154.976 382.36 155.764 382.36 156.55 382.41C157.298 382.418 158.028 382.644 158.65 383.06C159.121 383.767 159.46 384.553 159.65 385.38H162.8C161.73 383.45 160.64 381.71 159.8 379.88C158.96 378.05 157.16 376.59 157.48 374.28H154.25C153.07 378.38 150.66 381.69 148.91 385.48ZM165.64 371.76C165.744 372.423 165.814 373.09 165.85 373.76C165.85 376.9 165.85 380.05 165.85 383.19C165.799 383.929 165.698 384.664 165.55 385.39H168.65C168.65 383.09 168.65 380.88 168.59 378.67C168.53 376.46 168.59 374.15 168.59 371.8C168.68 371.8 168.52 371.8 168.36 371.8L165.64 371.76Z" fill="white"/>
<path d="M117 371C116.89 375.06 116.76 379.13 116.69 383.19C116.721 383.926 116.808 384.658 116.95 385.38H113.71V376.38L113.38 376.25C111.38 378.86 110.04 381.85 108.14 384.83C107.811 384.597 107.518 384.317 107.27 384C106 381.77 104.76 379.47 103.47 377.2C103.29 376.89 102.85 376.73 102.47 376.47V385.47H99.72V376C99.72 374.29 99.87 372.55 98.77 371H100C100.531 371.309 101.135 371.472 101.75 371.472C102.365 371.472 102.969 371.309 103.5 371H104C104 374.62 106.71 377 108.2 380C108.797 379.422 109.291 378.745 109.66 378C110.66 375.73 112.81 373.87 112.49 371.06H113C113.483 371.37 114.046 371.535 114.62 371.535C115.194 371.535 115.757 371.37 116.24 371.06L117 371Z" fill="black"/>
<path d="M112.49 371C112.81 373.84 110.7 375.7 109.66 378C109.291 378.745 108.797 379.422 108.2 380C106.71 377 104 374.65 104 371H112.49Z" fill="white"/>
<path d="M103.51 371C102.977 371.311 102.372 371.475 101.755 371.475C101.138 371.475 100.533 371.311 100 371H103.51Z" fill="white"/>
<path d="M116.23 371C115.748 371.308 115.187 371.472 114.615 371.472C114.043 371.472 113.482 371.308 113 371H116.23Z" fill="white"/>
<path d="M175.08 377.94V385.37H172.56C173.001 381.679 172.978 377.946 172.49 374.26C173.37 374.26 174.24 374.26 175.1 374.26C175.409 374.323 175.688 374.489 175.89 374.73C177 375.88 177.94 377.08 179 378.18C179.87 379.08 180.82 379.89 181.76 380.72C181.987 380.87 182.228 380.998 182.48 381.1C182.628 380.84 182.73 380.556 182.78 380.26C182.78 378.31 182.78 376.36 182.78 374.32H185.15V385.45C184.37 385.45 183.55 385.45 182.74 385.45C182.57 385.45 182.28 385.33 182.23 385.2C181.29 382.78 178.81 381.76 177.23 379.9C176.562 379.196 175.843 378.541 175.08 377.94V377.94Z" fill="black"/>
<path d="M188.89 385.47V374.11L197.08 374.6C197.911 374.607 198.723 374.853 199.418 375.309C200.113 375.765 200.662 376.411 201 377.17C201.88 378.92 201.48 382.99 199.92 384.04C198.763 384.786 197.448 385.251 196.08 385.4C194.009 385.529 191.933 385.552 189.86 385.47H188.89ZM191.57 379.79C191.57 380.61 191.57 381.43 191.57 382.24C191.57 383.05 191.83 383.71 192.91 383.63C193.99 383.55 194.82 383.63 195.77 383.58C196.449 383.488 197.089 383.209 197.618 382.775C198.148 382.341 198.547 381.768 198.77 381.12C199.16 378.91 198.53 377.48 197.14 376.6C195.75 375.72 194.14 376.18 192.69 376.02C191.89 375.94 191.55 376.35 191.55 377.1L191.57 379.79Z" fill="black"/>
<path d="M120.62 374.28H131.62V376C129 376 126.53 376 124 376.07C122.93 376.07 123.41 377.13 123.32 377.74C123.23 378.35 123.46 378.74 124.2 378.74C125.6 378.74 127.01 378.74 128.43 378.74C128.98 380.31 128.81 380.54 127.16 380.5C126.5 380.5 125.83 380.5 125.16 380.5C123.42 380.5 122.68 381.55 123.41 383.13C123.53 383.4 124.13 383.58 124.51 383.59C126.83 383.59 129.16 383.59 131.61 383.59V385.41H120.61C120.75 381.69 120.85 378 120.62 374.28Z" fill="black"/>
<path d="M147 384.1C144.589 385.351 141.857 385.846 139.16 385.52C135.89 385.15 133.16 382.3 133.8 379.02C133.99 378.028 134.438 377.102 135.1 376.339C135.762 375.575 136.614 374.999 137.57 374.67C140.27 373.57 142.84 374.25 145.42 374.88C146.42 375.13 145.98 375.97 145.71 376.59C145.542 376.859 145.344 377.107 145.12 377.33C142.88 375.51 139.28 375.38 137.48 377.27C136.996 377.699 136.645 378.257 136.467 378.879C136.29 379.501 136.295 380.161 136.48 380.78C136.684 381.542 137.116 382.222 137.718 382.73C138.321 383.238 139.065 383.549 139.85 383.62C140.848 383.701 141.852 383.701 142.85 383.62C144.62 383.51 144.96 383.04 144.67 381.11H141V379.56L146.61 379.87L147 384.1Z" fill="black"/>
<path d="M215.46 383.62V385.44H204.36V374.33H215.36V376C212.84 376 210.36 376 207.83 376C206.83 376 207.04 376.86 207 377.49C206.96 378.12 207.08 378.72 208 378.71C209.41 378.71 210.81 378.71 212.31 378.71V380.49C210.96 380.49 209.6 380.49 208.25 380.49C207 380.42 207 381.12 207 382C207 382.88 206.86 383.69 208.19 383.66C210.58 383.59 213 383.62 215.46 383.62Z" fill="black"/>
<path d="M217.83 374.3H221.83C222.2 376.08 223.18 377.5 223.97 377.45C224.76 377.4 225.81 375.73 225.97 374.31H229.73L225.24 379.58L229.91 385.38H226.44C225.66 384.22 225.02 383.21 224.31 382.25C223.96 381.77 223.59 381.58 223.06 382.25C222.3 383.19 221.06 383.84 221.3 385.39H217.59L220.29 382.27C220.828 381.731 221.314 381.142 221.74 380.51C221.848 380.295 221.905 380.057 221.905 379.815C221.905 379.574 221.848 379.336 221.74 379.12C220.57 377.52 219.25 376 217.83 374.3Z" fill="black"/>
<path d="M148.91 385.48C150.66 381.69 153.07 378.38 154.25 374.31H157.44C157.12 376.62 158.88 378.08 159.76 379.91C160.64 381.74 161.76 383.48 162.76 385.41H159.59C159.4 384.582 159.061 383.796 158.59 383.09C157.968 382.673 157.238 382.447 156.49 382.44C155.704 382.39 154.916 382.39 154.13 382.44C153.76 382.404 153.386 382.467 153.049 382.624C152.711 382.78 152.421 383.023 152.209 383.329C151.997 383.635 151.871 383.992 151.843 384.363C151.815 384.734 151.886 385.106 152.05 385.44C151.67 385.44 151.31 385.5 150.94 385.51L148.91 385.48ZM157.65 381.08C157.06 379.92 156.65 378.95 156.07 378.08C155.96 377.92 155.18 377.88 155.07 378.01C154.5 378.95 154.07 379.95 153.44 381.11L157.65 381.08Z" fill="black"/>
<path d="M165.64 371.76H168.35C168.51 371.76 168.67 371.76 168.58 371.76C168.58 374.11 168.58 376.37 168.58 378.63C168.58 380.89 168.58 383.05 168.64 385.35H165.54C165.688 384.624 165.789 383.889 165.84 383.15C165.84 380.01 165.84 376.86 165.84 373.72C165.806 373.064 165.739 372.41 165.64 371.76V371.76Z" fill="black"/>
<path d="M191.57 379.79V377.1C191.57 376.35 191.91 375.94 192.71 376.02C194.19 376.18 195.71 375.69 197.16 376.6C198.61 377.51 199.16 378.91 198.79 381.12C198.567 381.768 198.168 382.341 197.638 382.775C197.109 383.209 196.469 383.488 195.79 383.58C194.79 383.64 193.88 383.58 192.93 383.63C191.98 383.68 191.54 383.19 191.59 382.24C191.64 381.29 191.59 380.61 191.59 379.79H191.57Z" fill="white"/>
<path d="M157.65 381.08H153.48C154.06 379.92 154.54 378.92 155.11 377.98C155.18 377.85 155.96 377.89 156.11 378.05C156.62 379 157.06 379.92 157.65 381.08Z" fill="white"/>
</g>
<path d="M438 389V377H434V389H430V371H434V375H440V377H442V389H438ZM448 379V389H444V375H448V377H450V375H454V379H448ZM468 385V387H466V385H468ZM458 389V387H456V377H458V375H466V377H468V383H460V387H466V389H458ZM464 381V377H460V381H464ZM476 373V375H478V377H476V389H472V377H470V375H472V373H474V371H480V373H476ZM486 379V381H488V383H490V387H488V389H482V387H486V385H484V383H482V381H480V377H482V375H488V377H484V379H486ZM480 385H482V387H480V385ZM490 379H488V377H490V379Z" fill="black"/>
<path fill-rule="evenodd" clip-rule="evenodd" d="M418 389V387H416V383H418V381H424V377H418V375H426V377H428V389H418ZM420 383V387H424V383H420ZM416 379V377H418V379H416Z" fill="#FF8800"/>
<path d="M253.2 55.7811H234.2L229.3 69.2811H233L236.7 58.9811H241.3C241.8 58.9811 242.1 59.3811 241.9 59.8811L238.5 69.1811H242.2L245.6 59.8811C245.8 59.3811 246.4 58.9811 246.9 58.9811H250.6C251.1 58.9811 251.4 59.3811 251.2 59.8811L247.8 69.1811H251.5L255.4 58.4811C256 56.9811 255 55.7811 253.2 55.7811V55.7811ZM279 65.0811C278.8 65.5811 278.2 65.9811 277.7 65.9811H273.1C272.6 65.9811 272.3 65.5811 272.5 65.0811L275.9 55.7811H272.2L268.3 66.4811C267.7 67.9811 268.7 69.2811 270.5 69.2811H278.9C280.2 69.2811 281.5 68.4811 281.9 67.3811L286.1 55.7811H282.4L279 65.0811V65.0811ZM217.3 65.0811L217.6 64.1811H228.7L229.9 60.9811L230.7 58.6811C231.3 57.1811 230.3 55.8811 228.5 55.8811H219.2C217.9 55.8811 216.6 56.6811 216.2 57.7811L213 66.5811C212.4 68.0811 213.4 69.3811 215.2 69.3811H227L228.2 66.1811H218C217.4 65.9811 217.2 65.5811 217.3 65.0811V65.0811ZM219.2 59.9811C219.4 59.4811 220 59.0811 220.5 59.0811H226.1C226.6 59.0811 226.9 59.4811 226.7 59.9811L226.4 60.8811H219L219.2 59.9811V59.9811ZM314.9 55.7811L313 60.8811H306.5L308.4 55.7811H304.7L299.8 69.2811H303.5L305.4 64.0811H311.8L310 69.2811H313.7L318.6 55.7811H314.9V55.7811ZM258.1 57.6811L253.9 69.2811H257.6L261 59.9811C261.2 59.4811 261.8 59.0811 262.3 59.0811H268.8L270 55.8811H261.2C259.8 55.7811 258.5 56.5811 258.1 57.6811V57.6811ZM200.1 57.6811L198.7 61.3811C198.1 62.8811 199.1 64.1811 200.9 64.1811H206.9C207.4 64.1811 207.7 64.5811 207.5 65.0811C207.3 65.5811 206.7 65.9811 206.2 65.9811H196.9L195.7 69.1811H207.3C208.6 69.1811 209.9 68.3811 210.3 67.2811L211.7 63.5811C212.3 62.0811 211.3 60.7811 209.5 60.7811H203.5C203 60.8811 202.8 60.4811 203 59.9811C203.1 59.4811 203.7 58.9811 204.2 58.9811H213.5L214.7 55.7811H203.1C201.8 55.7811 200.5 56.5811 200.1 57.6811V57.6811ZM287.8 57.6811L286.4 61.3811C285.8 62.8811 286.8 64.1811 288.6 64.1811H294.6C295.1 64.1811 295.4 64.5811 295.2 65.0811C295 65.5811 294.4 65.9811 293.9 65.9811H284.6L283.4 69.1811H295C296.3 69.1811 297.6 68.3811 298 67.2811L299.4 63.5811C300 62.0811 299 60.7811 297.2 60.7811H291.2C290.7 60.7811 290.4 60.3811 290.6 59.8811C290.8 59.3811 291.4 58.9811 291.9 58.9811H301.2L302.4 55.7811H290.8C289.5 55.7811 288.1 56.5811 287.8 57.6811V57.6811ZM184.8 55.0811C182.2 52.3811 178.6 51.4811 174 52.2811C174 52.2811 168.5 53.5811 163.6 53.6811C161.5 53.6811 159.8 53.0811 158.3 52.7811C159.1 54.0811 160.3 54.9811 161.7 55.4811C163 55.9811 164.8 56.6811 164 57.9811C163.1 59.3811 161.7 58.1811 161.3 57.8811C160 56.8811 159.4 56.1811 157 54.7811C154.4 53.2811 150.8 53.1811 147.2 53.5811C147.2 53.5811 150.2 54.1811 151.5 55.5811C151.5 55.5811 145.8 54.3811 142 56.2811C147.4 56.4811 153.4 57.3811 154.4 57.7811C155.4 58.2811 154.9 58.5811 153.9 58.7811C151.5 59.2811 147 59.4811 144.2 58.6811C140.2 57.5811 136.8 54.1811 131.1 55.0811C136.1 56.1811 138.8 60.8811 144.3 61.9811C149.8 63.0811 153.5 60.8811 154.8 60.5811C156.1 60.2811 157.2 60.6811 157.4 61.5811C157.7 62.4811 156.6 63.4811 155.1 63.7811C154 63.9811 153.6 63.9811 151.6 64.1811C147.4 64.5811 144.4 64.0811 141.7 63.3811C136.6 61.9811 133 58.6811 131.3 57.7811C129.6 56.8811 127.7 56.4811 126.3 56.2811C126.3 56.2811 129.1 57.6811 130.1 59.4811C127.6 58.5811 124 57.9811 119.2 58.9811C116.9 59.3811 112 60.4811 106 62.8811C109 63.7811 112.8 63.0811 114.5 62.9811C123.5 62.2811 126.5 64.1811 129.4 65.2811C138.2 68.3811 141.2 65.5811 141.8 66.4811C142.2 67.1811 139.4 68.2811 138.6 68.4811C134.6 69.1811 132.7 68.4811 129.1 67.6811C130.9 69.4811 134.4 70.7811 138.3 70.6811C142.3 70.4811 146.5 69.8811 149.9 68.4811C153.9 66.7811 155.5 66.2811 157.3 65.7811C158.1 65.5811 160.8 64.8811 161.4 65.5811C161.7 65.9811 161.2 66.3811 160.3 66.7811C159.6 67.0811 158.7 67.3811 157.9 67.6811C156 68.3811 152.3 69.7811 151.2 70.6811C151.2 70.6811 156.3 69.8811 161.3 69.8811C166.3 69.8811 169.7 70.9811 173.5 72.3811C177.6 73.8811 181.1 73.3811 184.1 70.8811C186.8 68.5811 188.1 65.9811 188 62.8811C188 59.6811 186.9 57.1811 184.8 55.0811V55.0811ZM177.7 71.0811C173 71.0811 169.2 67.2811 169.2 62.5811C169.2 57.8811 173 54.0811 177.7 54.0811C182.4 54.0811 186.2 57.8811 186.2 62.5811C186.2 67.2811 182.4 71.0811 177.7 71.0811ZM177.7 55.8811C174 55.8811 171 58.8811 171 62.5811C171 66.2811 174 69.2811 177.7 69.2811C181.4 69.2811 184.4 66.2811 184.4 62.5811C184.5 58.8811 181.5 55.8811 177.7 55.8811V55.8811ZM180.9 66.9811C181.7 65.9811 182.1 64.7811 182.1 63.4811C182.1 60.7811 180.1 58.4811 177.5 57.9811C177.7 57.6811 178 57.2811 178.3 57.0811C181 57.4811 183 59.7811 183 62.5811C183 64.3811 182.2 65.9811 180.9 66.9811V66.9811Z" fill="black"/>
<path fill-rule="evenodd" clip-rule="evenodd" d="M412.468 118.193C411.538 118.554 410.819 119.057 410.309 119.704C409.801 120.351 409.545 121.099 409.545 121.944C409.545 123.643 410.567 124.979 412.608 125.951C413.236 126.25 414.043 126.563 415.032 126.884C416.02 127.207 416.711 127.517 417.103 127.818C417.497 128.119 417.692 128.538 417.692 129.077C417.692 129.552 417.51 129.921 417.146 130.183C416.781 130.445 416.286 130.577 415.658 130.577C414.678 130.577 413.968 130.383 413.532 129.995C413.095 129.607 412.877 129.004 412.877 128.187H409.069C409.069 129.194 409.331 130.083 409.853 130.856C410.376 131.629 411.156 132.237 412.192 132.681C413.226 133.125 414.382 133.347 415.659 133.347C417.47 133.347 418.895 132.968 419.933 132.205C420.971 131.441 421.489 130.391 421.489 129.056C421.489 127.386 420.639 126.073 418.937 125.123C418.238 124.732 417.343 124.366 416.253 124.027C415.166 123.687 414.405 123.36 413.971 123.041C413.538 122.723 413.322 122.368 413.322 121.975C413.322 121.528 413.519 121.159 413.912 120.87C414.305 120.579 414.84 120.433 415.519 120.433C416.189 120.433 416.722 120.605 417.115 120.948C417.507 121.291 417.705 121.773 417.705 122.395H421.489C421.489 121.466 421.242 120.637 420.743 119.915C420.246 119.191 419.548 118.633 418.65 118.242C417.751 117.85 416.736 117.654 415.604 117.654C414.444 117.654 413.398 117.834 412.468 118.193H412.468ZM426.065 117.654V133.346H436.503V130.435H429.718V126.685H435.463V123.884H429.718V120.574H436.524V117.654H426.065ZM441.1 117.654V133.346H444.814V127.796H446.822L449.542 133.346H453.519V133.184L450.304 126.848C451.228 126.403 451.905 125.822 452.339 125.104C452.773 124.386 452.99 123.481 452.99 122.391C452.99 120.883 452.475 119.717 451.445 118.891C450.416 118.066 448.988 117.654 447.162 117.654H441.1ZM444.814 120.564H447.162C447.859 120.564 448.388 120.755 448.748 121.142C449.109 121.527 449.288 122.059 449.288 122.735C449.288 123.412 449.111 123.939 448.753 124.317C448.397 124.696 447.867 124.885 447.162 124.885H444.814V120.563V120.564ZM457.442 117.654V133.346H461.245V128.021H463.674C465.594 128.021 467.106 127.563 468.209 126.648C469.31 125.733 469.861 124.508 469.861 122.978C469.861 121.943 469.607 121.018 469.096 120.203C468.587 119.387 467.869 118.758 466.941 118.317C466.012 117.874 464.944 117.654 463.738 117.654H457.442ZM461.245 120.574H463.782C464.467 120.582 465.009 120.805 465.406 121.242C465.804 121.682 466.002 122.266 466.002 122.998C466.002 123.668 465.81 124.185 465.423 124.552C465.036 124.919 464.475 125.102 463.738 125.102H461.245V120.575L461.245 120.574Z" fill="#004683"/>
<path fill-rule="evenodd" clip-rule="evenodd" d="M475.873 118.193C474.943 118.554 474.224 119.057 473.715 119.704C473.205 120.351 472.952 121.099 472.952 121.944C472.952 123.643 473.972 124.979 476.013 125.951C476.641 126.25 477.449 126.563 478.437 126.884C479.425 127.207 480.115 127.517 480.508 127.818C480.901 128.119 481.098 128.538 481.098 129.077C481.098 129.552 480.916 129.921 480.552 130.183C480.186 130.445 479.692 130.577 479.064 130.577C478.083 130.577 477.376 130.383 476.938 129.995C476.502 129.607 476.284 129.004 476.284 128.187H472.476C472.476 129.194 472.738 130.083 473.26 130.856C473.784 131.629 474.563 132.237 475.598 132.681C476.632 133.125 477.787 133.347 479.064 133.347C480.875 133.347 482.299 132.968 483.338 132.205C484.377 131.441 484.896 130.391 484.896 129.056C484.896 127.386 484.044 126.073 482.343 125.123C481.643 124.732 480.748 124.366 479.66 124.027C478.571 123.687 477.809 123.36 477.377 123.041C476.945 122.722 476.728 122.367 476.728 121.975C476.728 121.528 476.924 121.159 477.317 120.869C477.71 120.578 478.246 120.433 478.924 120.433C479.595 120.433 480.126 120.605 480.521 120.948C480.912 121.29 481.109 121.772 481.109 122.395H484.895C484.895 121.466 484.646 120.637 484.149 119.914C483.652 119.19 482.953 118.633 482.055 118.241C481.157 117.849 480.142 117.654 479.011 117.654C477.849 117.654 476.803 117.834 475.873 118.193V118.193ZM487.511 117.654V120.574H492.12V133.346H495.89V120.574H500.584V117.654H487.511ZM506.964 117.654L501.238 133.346H505.26L506.161 130.414H511.318L512.23 133.346H516.273L510.503 117.654H506.964H506.964ZM508.734 122.051L510.418 127.494H507.061L508.733 122.051H508.734ZM516.926 117.654V120.574H521.536V133.346H525.306V120.574H530V117.654" fill="#006EC2"/>
<path fill-rule="evenodd" clip-rule="evenodd" d="M402.696 117H387.421L387.422 117.004C387.161 117.014 386.952 117.226 386.952 117.489C386.952 117.628 387.011 117.752 387.105 117.841L387.103 117.843L390.409 121.129C390.601 121.32 390.601 121.632 390.41 121.824L384.969 127.234C384.829 127.374 384.863 127.611 385.037 127.705L385.714 128.072C385.838 128.139 386.033 128.125 386.154 128.053C386.322 127.952 386.518 127.893 386.728 127.893C386.872 127.893 387.008 127.922 387.134 127.973C387.204 128.002 387.285 127.992 387.342 127.941L388.633 126.77C388.632 126.746 388.626 126.723 388.626 126.698C388.626 126.074 389.13 125.568 389.752 125.568C390.275 125.568 390.712 125.928 390.837 126.413L392.089 126.946C392.128 126.962 392.17 126.955 392.206 126.932C392.386 126.806 392.604 126.73 392.84 126.73C392.952 126.73 393.061 126.748 393.163 126.78C393.201 126.792 393.242 126.783 393.271 126.755L395.433 124.643C395.465 124.613 395.481 124.568 395.48 124.524C395.461 123.415 396.278 123.286 396.599 123.276C397.087 123.257 397.497 123.594 397.648 124.035C397.664 124.077 397.695 124.112 397.738 124.127L399.108 124.596C399.16 124.615 399.215 124.6 399.255 124.564C399.455 124.384 399.717 124.273 400.006 124.273C400.109 124.273 400.287 124.338 400.391 124.224L403.109 121.447C403.157 121.399 403.183 121.334 403.183 121.266V117.492C403.186 117.22 402.967 117 402.696 117Z" fill="#004683"/>
<path fill-rule="evenodd" clip-rule="evenodd" d="M403.178 123.704C403.178 123.556 402.999 123.482 402.895 123.589L401.143 125.379C401.104 125.417 401.089 125.473 401.098 125.527C401.143 125.821 401.083 126.15 400.693 126.513C400.487 126.704 400.225 126.836 399.944 126.829C399.486 126.817 399.1 126.531 398.932 126.129C398.915 126.087 398.881 126.052 398.837 126.037L397.389 125.539C397.339 125.522 397.285 125.535 397.243 125.569C397.048 125.727 396.801 125.823 396.531 125.823C396.408 125.823 396.292 125.799 396.182 125.762C396.182 125.762 394.529 127.366 393.942 127.945C393.87 128.017 393.87 128.022 393.886 128.167C393.886 128.796 393.378 129.305 392.75 129.305C392.22 129.305 391.777 128.939 391.653 128.447C391.64 128.397 391.607 128.354 391.559 128.333L390.484 127.876C390.43 127.852 390.368 127.864 390.32 127.9C390.13 128.046 389.894 128.135 389.637 128.135C389.515 128.135 389.397 128.116 389.286 128.078C389.221 128.057 389.149 128.068 389.097 128.114L387.789 129.3C387.744 129.34 387.721 129.395 387.714 129.455C387.657 130.029 387.176 130.477 386.587 130.477C386.132 130.477 385.743 130.207 385.562 129.818C385.515 129.716 385.428 129.638 385.331 129.585L383.858 128.787C383.742 128.724 383.599 128.746 383.507 128.838L379.146 133.157L379.144 133.158L379.138 133.164L379.14 133.165C379.054 133.254 379 133.373 379 133.507C379 133.779 379.22 134 379.493 134H393.793C394.067 134 394.449 133.843 394.644 133.649L394.925 133.371L394.933 133.362L398.289 130.029C398.483 129.836 398.799 129.836 398.993 130.029L402.34 133.355C402.43 133.448 402.554 133.507 402.693 133.507C402.964 133.507 403.186 133.286 403.186 133.014L403.178 123.705L403.178 123.704Z" fill="#006EC2"/>
<g clip-path="url(#clip1)">
<path d="M339.6 434.8C339.4 433.9 338.9 433.1 338.2 432.6L332.5 428.6C332.4 428.5 330.3 427.3 328.6 428.2L327.8 427.6C327.7 427.6 325.4 426.4 323.5 427.6C321.8 428.6 318 430.7 318 430.7L317.9 430.8C317.4 431.3 316.8 432.2 317 433.1C316.9 433.1 316.8 433.2 316.7 433.2C316.6 433.1 316.5 432.9 316.1 432.7C316 431.7 315.4 430.9 315.4 430.9L315.3 430.8C315.1 430.7 310.8 428.1 309.2 427.3C307.4 426.4 305.9 427.5 305.8 427.6L304.9 428.3V428.2H303.3C302.5 428.2 301.7 428.4 301 428.9L296 432.4C295 433.1 294.3 434.2 294 435.4C293.1 439.1 290 445.6 290 445.6L290.9 446C291 445.7 294.1 439.4 294.9 435.6C295.1 434.6 295.7 433.8 296.5 433.2L301.5 429.6C302 429.3 302.6 429.1 303.2 429.1H303.6L298.1 433.1L298.7 433.9L300.9 432.3L301 433.3C301.9 433.2 309.9 431.9 311.1 431.3C311.8 430.9 312.5 432.1 312.5 432.1L312.6 432.2L312.7 432.3C313.9 432.9 315.3 433.5 315.7 433.8C314.8 434.5 314.2 435.5 313.9 436.2C313.1 435.7 312 435.1 311.4 435.3C311.2 435.4 311 435.5 310.9 435.7C310.8 435.9 309.8 436.3 308.8 436.5C307.5 436.8 303.2 437.9 303 439.7C302.8 441.6 305.4 442.7 305.4 442.7C305.6 442.8 309.9 445 313 444.2C314 443.9 314.8 443.3 315.3 442.5C316.2 441 317.1 440.1 317.9 439.6C317.5 440.1 317.2 440.7 317.1 441.4C317 442 317.2 442.6 317.7 443.1C318.2 443.7 318.7 444 319.3 444C319.1 444.4 318.9 445 318.6 445.5C318.5 445.9 318.3 446.3 318.3 446.3C317.9 446.7 313.8 448.4 310.1 449.9L310 450V450C307.3 454.1 302.3 455.8 300.4 456.5C300 456.7 299.8 456.7 299.6 456.8L300.1 457.7C300.2 457.7 300.4 457.6 300.7 457.5C302.7 456.8 307.9 455.1 310.8 450.8C313.7 449.6 315.6 448.8 316.9 448.3C319.2 448.7 322.8 449.7 323.5 450.8C324.5 452.7 333 457.5 334 458.1L334.5 457.2C330.9 455.2 325 451.6 324.4 450.3C323.6 448.9 320.4 448 318.5 447.5C319.3 447.1 319.4 447 319.4 446.9C319.5 446.7 319.7 446.3 319.8 445.9C320 445.3 320.4 444.3 320.7 443.9C321.1 443.8 322.5 443.6 325.5 443.7C328.3 443.7 330.8 441.5 330.8 439.7C330.8 439.3 330.7 438 328.8 437.9C327.1 437.8 325.7 436.9 324.6 436.1C323.6 435.4 322.7 434.8 321.9 435.4C321.1 436 319.9 436.4 318.7 436.5C318.3 436.5 318 436.7 317.8 437C317.4 437.5 317.5 438.4 317.5 438.7C317 439 316.6 439.3 316.2 439.8L314.8 438.7C314.8 438.6 314.9 438.6 314.9 438.5C315.1 438 314.9 437.4 314.8 437C315.1 436.3 316.2 434.3 317.8 434.2C320.1 434.1 321.7 432.1 322 431.7C322.2 431.5 323.3 430.9 324.6 431.8C326.5 433 332.3 433.4 332.6 433.5L332.7 432.5C331.1 432.4 326.6 431.9 325.2 431C323.5 429.9 322 430.6 321.4 431L321.3 431.1C321.3 431.1 319.9 433 318.1 433.2C318 432.7 318.5 432.1 318.7 431.9C319.3 431.6 322.6 429.8 324.2 428.8C325.6 427.9 327.4 428.8 327.4 428.8L335.4 434.2L336 433.4L329.8 429.2C330.8 428.7 332 429.4 332 429.4L337.6 433.4C338.1 433.8 338.4 434.3 338.6 435C339.5 439.6 343.2 446.2 343.4 446.4L344.3 445.9C344.2 445.8 340.4 439.2 339.6 434.8ZM318.6 442.3C318.3 442 318.2 441.7 318.3 441.3C318.4 440.2 319.6 439.2 319.6 439.2L319.4 439C319.7 439 320.1 439.1 320.3 439.4C320.8 440.2 320.6 441.5 320.3 442.3C320.2 442.4 319.9 442.9 319.5 442.9C319.2 442.9 318.9 442.7 318.6 442.3ZM318.6 437.4C318.6 437.4 318.7 437.3 318.8 437.3C319.4 437.2 321.1 437 322.5 436C322.7 435.9 323.4 436.3 324 436.7C325.1 437.5 326.7 438.5 328.7 438.6C329.8 438.7 329.8 439.2 329.7 439.4C329.6 440.6 327.6 442.5 325.4 442.5C323.4 442.5 322.1 442.5 321.3 442.6C321.7 441.5 321.9 439.8 321.2 438.7C320.8 438.1 320.2 437.8 319.4 437.8C319.1 437.8 318.8 437.9 318.5 438C318.5 437.8 318.5 437.6 318.6 437.4ZM306 441.6C306 441.6 304 440.8 304.1 439.6C304.2 438.9 306.7 437.8 309.1 437.3C309.8 437.2 311.3 436.8 311.8 436.2C312.1 436.2 313 436.7 313.9 437.2C314 437.4 314.1 437.7 314 437.9C313.9 438 313.7 438.1 313.6 438.2C312.9 438.3 312.4 438.9 312.1 439.7C311.8 440.7 312 442.1 312.7 443.1C310 443.6 306.1 441.6 306 441.6ZM314.6 441.7C314.4 442.1 314.1 442.4 313.7 442.6C313 441.9 312.8 440.7 313 440C313.1 439.7 313.3 439.3 313.7 439.2C313.8 439.2 313.8 439.2 313.9 439.1L315.5 440.4C315.2 440.7 314.9 441.2 314.6 441.7ZM310.7 430.4C309.9 430.8 304.3 431.8 300.9 432.3L306.3 428.4C306.3 428.4 307.4 427.6 308.6 428.2C310 428.9 313.9 431.2 314.5 431.6C314.6 431.7 314.7 431.9 314.8 432.1C314.4 431.9 313.9 431.7 313.3 431.4C313 430.7 311.9 429.7 310.7 430.4Z" fill="#F04B01"/>
</g>
<path d="M285.318 467.053H286.619V468.433C286.801 468.157 287.003 467.923 287.226 467.729C287.454 467.53 287.688 467.369 287.929 467.246C288.175 467.117 288.421 467.023 288.667 466.965C288.913 466.906 289.147 466.877 289.37 466.877C289.815 466.877 290.234 467 290.627 467.246C291.02 467.486 291.38 467.905 291.708 468.503C291.878 468.216 292.074 467.97 292.297 467.765C292.525 467.56 292.766 467.393 293.018 467.264C293.27 467.129 293.527 467.032 293.791 466.974C294.055 466.909 294.312 466.877 294.564 466.877C294.969 466.877 295.338 466.944 295.672 467.079C296.012 467.214 296.305 467.401 296.551 467.642C296.797 467.876 296.987 468.157 297.122 468.485C297.263 468.813 297.333 469.168 297.333 469.549V476H296.032V469.918C296.032 469.549 295.979 469.244 295.874 469.004C295.774 468.764 295.643 468.573 295.479 468.433C295.314 468.286 295.127 468.187 294.916 468.134C294.711 468.075 294.506 468.046 294.301 468.046C294.031 468.046 293.759 468.107 293.483 468.23C293.214 468.348 292.968 468.515 292.745 468.731C292.528 468.942 292.35 469.194 292.209 469.487C292.074 469.774 292.007 470.088 292.007 470.428V476H290.706V469.918C290.706 469.549 290.653 469.244 290.548 469.004C290.442 468.758 290.308 468.564 290.144 468.424C289.985 468.283 289.81 468.184 289.616 468.125C289.423 468.066 289.238 468.037 289.062 468.037C288.717 468.037 288.395 468.116 288.096 468.274C287.803 468.433 287.545 468.635 287.322 468.881C287.105 469.127 286.933 469.396 286.804 469.689C286.681 469.982 286.619 470.261 286.619 470.524V476H285.318V467.053ZM301.279 463.678V465.198H299.979V463.678H301.279ZM301.279 467.053V476H299.979V467.053H301.279ZM303.934 467.053H305.234L305.182 468.538C305.457 468.052 305.779 467.68 306.148 467.422C306.523 467.164 306.96 467.035 307.458 467.035C307.499 467.035 307.555 467.038 307.625 467.044C307.701 467.05 307.777 467.059 307.854 467.07C307.936 467.076 308.012 467.088 308.082 467.105C308.158 467.117 308.217 467.132 308.258 467.149V468.477C308.123 468.43 307.971 468.395 307.801 468.371C307.631 468.342 307.505 468.327 307.423 468.327C307.077 468.327 306.77 468.392 306.5 468.521C306.23 468.649 306.002 468.825 305.814 469.048C305.627 469.265 305.483 469.517 305.384 469.804C305.284 470.085 305.234 470.381 305.234 470.691V476H303.934V467.053ZM317.003 476.07C316.921 476.1 316.812 476.123 316.678 476.141C316.549 476.164 316.44 476.176 316.353 476.176C315.989 476.176 315.682 476.038 315.43 475.763C315.184 475.481 315.046 475.054 315.017 474.479C314.735 474.843 314.457 475.136 314.182 475.358C313.912 475.581 313.643 475.754 313.373 475.877C313.104 475.994 312.831 476.073 312.556 476.114C312.286 476.155 312.011 476.176 311.729 476.176C311.366 476.176 311.026 476.117 310.71 476C310.394 475.883 310.115 475.716 309.875 475.499C309.641 475.282 309.456 475.021 309.321 474.717C309.187 474.412 309.119 474.072 309.119 473.697C309.119 473.322 309.201 473.003 309.365 472.739C309.529 472.47 309.746 472.238 310.016 472.045C310.291 471.852 310.599 471.69 310.938 471.562C311.284 471.427 311.636 471.31 311.993 471.21C312.356 471.104 312.711 471.005 313.057 470.911C313.402 470.817 313.71 470.715 313.979 470.604C314.255 470.486 314.475 470.354 314.639 470.208C314.803 470.056 314.885 469.868 314.885 469.646C314.885 469.388 314.835 469.159 314.735 468.96C314.636 468.761 314.495 468.594 314.313 468.459C314.132 468.318 313.912 468.213 313.654 468.143C313.396 468.072 313.112 468.037 312.802 468.037C312.538 468.037 312.289 468.072 312.055 468.143C311.82 468.207 311.609 468.304 311.422 468.433C311.234 468.562 311.079 468.72 310.956 468.907C310.833 469.095 310.754 469.312 310.719 469.558H309.356C309.386 469.124 309.503 468.74 309.708 468.406C309.913 468.072 310.174 467.794 310.49 467.571C310.807 467.343 311.164 467.17 311.562 467.053C311.967 466.936 312.38 466.877 312.802 466.877C313.259 466.877 313.689 466.933 314.094 467.044C314.504 467.155 314.864 467.325 315.175 467.554C315.485 467.782 315.731 468.072 315.913 468.424C316.095 468.77 316.186 469.177 316.186 469.646V474.277C316.186 474.506 316.241 474.69 316.353 474.831C316.47 474.966 316.613 475.033 316.783 475.033C316.859 475.033 316.933 475.021 317.003 474.998V476.07ZM314.885 471.025C314.703 471.219 314.466 471.38 314.173 471.509C313.886 471.632 313.575 471.743 313.241 471.843C312.913 471.942 312.582 472.039 312.248 472.133C311.914 472.227 311.609 472.338 311.334 472.467C311.064 472.596 310.845 472.754 310.675 472.941C310.505 473.123 310.42 473.354 310.42 473.636C310.42 473.888 310.464 474.102 310.552 474.277C310.64 474.453 310.754 474.6 310.895 474.717C311.035 474.828 311.196 474.91 311.378 474.963C311.56 475.016 311.744 475.042 311.932 475.042C312.471 475.042 312.998 474.878 313.514 474.55C314.035 474.222 314.492 473.718 314.885 473.038V471.025ZM320.123 463.678V476H318.822V463.678H320.123ZM324.078 463.678V465.198H322.777V463.678H324.078ZM324.078 467.053V476H322.777V467.053H324.078ZM326.732 467.053H328.033V468.371C328.49 467.844 328.982 467.463 329.51 467.229C330.037 466.994 330.579 466.877 331.136 466.877C331.552 466.877 331.924 466.938 332.252 467.062C332.58 467.185 332.858 467.36 333.087 467.589C333.315 467.817 333.488 468.096 333.605 468.424C333.729 468.746 333.79 469.109 333.79 469.514V476H332.489V469.681C332.489 469.376 332.451 469.121 332.375 468.916C332.305 468.705 332.199 468.535 332.059 468.406C331.924 468.277 331.757 468.184 331.558 468.125C331.358 468.066 331.136 468.037 330.89 468.037C330.491 468.037 330.119 468.107 329.773 468.248C329.428 468.389 329.126 468.576 328.868 468.811C328.61 469.039 328.405 469.306 328.253 469.61C328.106 469.909 328.033 470.22 328.033 470.542V476H326.732V467.053ZM340.268 470.296L343.563 476H342.043L339.345 471.228L337.736 472.845V476H336.436V463.678H337.736V471.113L341.902 467.053H343.502L340.268 470.296ZM345.664 473.275C345.67 473.598 345.726 473.87 345.831 474.093C345.937 474.315 346.08 474.497 346.262 474.638C346.443 474.778 346.654 474.881 346.895 474.945C347.141 475.01 347.41 475.042 347.703 475.042C347.938 475.042 348.184 475.021 348.441 474.98C348.705 474.934 348.945 474.857 349.162 474.752C349.379 474.646 349.558 474.506 349.698 474.33C349.839 474.148 349.909 473.92 349.909 473.645C349.909 473.393 349.833 473.179 349.681 473.003C349.528 472.827 349.329 472.672 349.083 472.537C348.837 472.402 348.556 472.282 348.239 472.177C347.923 472.065 347.601 471.951 347.272 471.834C346.944 471.717 346.622 471.591 346.306 471.456C345.989 471.315 345.708 471.148 345.462 470.955C345.216 470.762 345.017 470.533 344.864 470.27C344.712 470.006 344.636 469.689 344.636 469.32C344.636 468.934 344.721 468.588 344.891 468.283C345.061 467.979 345.286 467.724 345.567 467.519C345.854 467.308 346.183 467.149 346.552 467.044C346.921 466.933 347.305 466.877 347.703 466.877C348.154 466.877 348.573 466.933 348.96 467.044C349.347 467.149 349.684 467.311 349.971 467.527C350.264 467.738 350.495 468.005 350.665 468.327C350.841 468.644 350.938 469.01 350.955 469.426H349.619C349.59 469.191 349.52 468.986 349.408 468.811C349.303 468.635 349.162 468.491 348.986 468.38C348.816 468.263 348.62 468.178 348.397 468.125C348.181 468.066 347.949 468.037 347.703 468.037C347.416 468.037 347.161 468.072 346.938 468.143C346.722 468.213 346.537 468.31 346.385 468.433C346.238 468.55 346.127 468.688 346.051 468.846C345.975 469.004 345.937 469.168 345.937 469.338C345.937 469.566 346.013 469.766 346.165 469.936C346.317 470.105 346.517 470.258 346.763 470.393C347.009 470.527 347.29 470.65 347.606 470.762C347.923 470.873 348.245 470.99 348.573 471.113C348.901 471.23 349.224 471.359 349.54 471.5C349.856 471.641 350.138 471.805 350.384 471.992C350.63 472.174 350.829 472.388 350.981 472.634C351.134 472.88 351.21 473.17 351.21 473.504C351.21 473.984 351.113 474.395 350.92 474.734C350.732 475.068 350.478 475.344 350.155 475.561C349.833 475.771 349.458 475.927 349.03 476.026C348.608 476.126 348.166 476.176 347.703 476.176C347.252 476.176 346.824 476.117 346.42 476C346.016 475.877 345.661 475.695 345.356 475.455C345.052 475.215 344.806 474.913 344.618 474.55C344.437 474.187 344.337 473.762 344.319 473.275H345.664Z" fill="black"/>
<g clip-path="url(#clip2)">
<path d="M104.07 207.42C102.53 208.48 101.01 209.53 99.49 210.56C98.8225 210.951 98.175 211.374 97.55 211.83C97.3 212.04 97.27 212.51 97.16 212.83C101.16 215.02 102.29 211.99 103.48 209.41C103.681 209.438 103.872 209.513 104.038 209.628C104.205 209.744 104.342 209.896 104.439 210.074C104.537 210.252 104.591 210.45 104.598 210.652C104.605 210.855 104.565 211.056 104.48 211.24C104.226 212.225 103.674 213.108 102.899 213.767C102.123 214.425 101.163 214.828 100.15 214.92C97.69 215.06 95.82 214.38 94.56 212.21C93.3 210.04 94.87 205.86 97.42 205.09C100.15 204.28 102.23 205.09 104.07 207.42ZM101.22 207.37C101.053 207.096 100.831 206.859 100.568 206.674C100.305 206.49 100.007 206.362 99.6921 206.299C99.3772 206.236 99.0527 206.24 98.739 206.309C98.4254 206.377 98.1295 206.511 97.87 206.7C96.2 207.64 95.49 208.8 96.26 210.7L101.22 207.37Z" fill="#F04B01"/>
<path d="M87.06 214.84C86.06 214.84 85.06 214.9 84.06 214.84C83.8698 214.804 83.6912 214.723 83.5396 214.602C83.388 214.482 83.268 214.327 83.19 214.15C83.08 213.57 83.39 213.15 84.12 213.15C85.82 213.15 87.53 213.15 89.23 213.15C89.6605 213.206 90.0967 213.102 90.4548 212.856C90.8129 212.611 91.0676 212.242 91.17 211.82C91.3615 211.356 91.3641 210.836 91.1772 210.371C90.9903 209.906 90.6288 209.532 90.17 209.33C89.0768 208.794 87.926 208.385 86.74 208.11C83.74 207.56 82.04 204.41 83.74 202.06C84.2432 201.448 84.9562 201.045 85.74 200.93C87.5527 200.73 89.3767 200.65 91.2 200.69C91.54 200.69 91.88 201.17 92.2 201.43C91.86 201.63 91.52 201.97 91.2 201.99C89.88 202.08 88.54 201.99 87.2 202.09C85.46 202.2 84.69 203 84.9 204.45C85.09 205.67 86.12 206.04 87.14 206.45C88.63 206.99 90.14 207.5 91.57 208.18C92.73 208.73 93.27 210.77 92.88 212.48C92.6426 213.109 92.2376 213.662 91.7089 214.078C91.1801 214.494 90.5477 214.757 89.88 214.84C88.88 214.84 87.97 214.84 87.02 214.84H87.06Z" fill="#F04B01"/>
<path d="M115.7 210C115.722 210.678 115.606 211.353 115.358 211.984C115.111 212.615 114.738 213.19 114.262 213.672C113.786 214.155 113.217 214.536 112.589 214.792C111.961 215.047 111.288 215.173 110.61 215.16C107.47 215.16 105.53 213.34 105.42 210.02C105.384 209.333 105.49 208.645 105.732 208.001C105.975 207.356 106.347 206.769 106.827 206.275C107.307 205.781 107.883 205.392 108.52 205.131C109.158 204.87 109.842 204.744 110.53 204.76C111.214 204.763 111.891 204.901 112.522 205.166C113.152 205.431 113.724 205.818 114.205 206.305C114.685 206.792 115.065 207.369 115.321 208.003C115.578 208.637 115.707 209.316 115.7 210V210ZM107.06 209.87C107.07 210.809 107.42 211.713 108.045 212.413C108.67 213.114 109.528 213.564 110.46 213.68C111.408 213.644 112.306 213.244 112.968 212.565C113.631 211.885 114.006 210.977 114.018 210.028C114.029 209.079 113.676 208.162 113.031 207.466C112.385 206.771 111.497 206.35 110.55 206.29C108.81 206.14 107 208.22 107.06 209.83V209.87Z" fill="#F04B01"/>
<path d="M173.52 205C175.11 204.74 176.24 205.61 177.31 206.52C177.97 207.08 178.09 207.52 177.1 208.08C175.1 209.21 173.27 210.54 171.41 211.85C171.319 212.022 171.271 212.215 171.271 212.41C171.271 212.605 171.319 212.797 171.41 212.97C171.853 213.318 172.374 213.554 172.927 213.658C173.481 213.762 174.052 213.732 174.591 213.569C175.131 213.406 175.623 213.116 176.027 212.723C176.43 212.329 176.733 211.845 176.91 211.31C176.91 211.31 176.91 211.22 176.91 211.19C177.28 210.77 177.65 210.36 178.03 209.95C178.212 210.457 178.306 210.991 178.31 211.53C178.142 212.237 177.795 212.89 177.303 213.426C176.811 213.961 176.191 214.362 175.5 214.59C174.32 215.031 173.022 215.044 171.834 214.625C170.646 214.206 169.643 213.383 169 212.3C167.27 209.52 169.28 206.3 171.32 205.36C172.032 205.135 172.773 205.014 173.52 205V205ZM170 210.79C172.28 210.1 173.87 208.55 175.71 207.35C175.348 206.792 174.796 206.383 174.157 206.199C173.517 206.016 172.833 206.069 172.23 206.35C170.41 207.17 169.66 208.52 170 210.79Z" fill="black"/>
<path d="M117.77 207.81C117.77 205.87 117.77 203.93 117.77 201.98C117.77 201.66 118.09 201.35 118.27 200.98C118.457 201.26 118.593 201.572 118.67 201.9C118.73 203.1 118.67 204.3 118.67 205.5C118.645 205.688 118.663 205.879 118.724 206.058C118.786 206.237 118.888 206.399 119.023 206.532C119.157 206.665 119.321 206.765 119.501 206.824C119.682 206.882 119.873 206.898 120.06 206.87C121.55 206.87 123.06 206.87 124.54 206.87C125.4 206.87 125.74 206.47 125.74 205.67C125.74 204.38 125.74 203.1 125.74 201.82C125.74 201.5 126.18 201.21 126.42 200.9C126.65 201.18 127.08 201.46 127.08 201.75C127.173 205.797 127.217 209.847 127.21 213.9C127.21 214.17 126.7 214.43 126.42 214.69C126.17 214.4 125.72 214.12 125.71 213.83C125.64 212.3 125.65 210.77 125.71 209.24C125.71 208.24 125.35 207.91 124.38 207.95C122.93 208.01 121.47 207.95 120.02 207.95C119.02 207.95 118.61 208.37 118.64 209.36C118.69 210.81 118.7 212.26 118.64 213.7C118.64 214.02 118.31 214.33 118.13 214.64C117.95 214.33 117.62 214.02 117.61 213.7C117.61 211.7 117.61 209.7 117.61 207.7L117.77 207.81Z" fill="black"/>
<path d="M152.64 210.72C152.64 211.63 152.7 212.54 152.64 213.44C152.53 213.893 152.354 214.327 152.12 214.73C151.92 214.32 151.55 213.91 151.54 213.49C151.47 211.88 151.54 210.27 151.54 208.66C151.524 208.175 151.397 207.699 151.17 207.27C151.003 206.837 150.678 206.483 150.26 206.281C149.842 206.079 149.363 206.042 148.92 206.18C148.435 206.303 148.004 206.582 147.693 206.974C147.382 207.366 147.209 207.85 147.2 208.35C147.2 210.01 147.2 211.66 147.2 213.35C147.2 213.83 146.87 214.7 146.67 214.71C145.67 214.71 146.09 213.91 146.08 213.42C146.08 211.81 146.08 210.19 146.08 208.58C146.091 207.98 145.875 207.399 145.477 206.951C145.079 206.502 144.527 206.22 143.93 206.16C143.312 206.208 142.733 206.479 142.301 206.922C141.868 207.366 141.612 207.951 141.58 208.57C141.58 210.3 141.58 212.04 141.58 213.78C141.58 214.1 141.26 214.43 141.09 214.78C140.92 214.47 140.6 214.16 140.59 213.84C140.59 211.84 140.67 209.79 140.59 207.77C140.51 206 142.75 204.77 144.24 205.05C144.891 205.245 145.529 205.482 146.15 205.76C146.478 205.842 146.822 205.842 147.15 205.76C148.065 205.493 149.002 205.306 149.95 205.2C150.313 205.195 150.673 205.265 151.008 205.406C151.343 205.547 151.645 205.755 151.895 206.018C152.146 206.281 152.34 206.592 152.464 206.933C152.589 207.274 152.642 207.638 152.62 208C152.62 208.91 152.62 209.82 152.62 210.73L152.64 210.72Z" fill="black"/>
<path d="M154.72 210.64C154.72 209.86 154.72 209.07 154.72 208.29C154.688 207.674 154.831 207.061 155.131 206.523C155.432 205.984 155.878 205.541 156.419 205.244C156.96 204.948 157.573 204.81 158.189 204.846C158.805 204.882 159.398 205.092 159.9 205.45C160.139 205.626 160.428 205.721 160.725 205.721C161.022 205.721 161.311 205.626 161.55 205.45C163.77 204.28 166.79 205.11 166.83 208.13C166.83 209.99 166.83 211.86 166.83 213.71C166.83 214.06 166.46 214.39 166.25 214.71C166.07 214.36 165.75 214.02 165.74 213.71C165.74 212.01 165.74 210.32 165.74 208.62C165.775 208.317 165.746 208.01 165.655 207.719C165.564 207.428 165.414 207.159 165.213 206.93C165.013 206.7 164.767 206.515 164.49 206.386C164.214 206.257 163.914 206.187 163.609 206.181C163.305 206.175 163.002 206.232 162.721 206.35C162.439 206.467 162.186 206.642 161.976 206.863C161.766 207.084 161.605 207.346 161.502 207.634C161.399 207.921 161.358 208.226 161.38 208.53C161.33 210.23 161.38 211.92 161.38 213.62C161.38 214 161 214.38 160.79 214.75C160.54 214.403 160.357 214.013 160.25 213.6C160.25 211.95 160.25 210.29 160.25 208.6C160.282 208.291 160.25 207.979 160.156 207.684C160.063 207.388 159.91 207.114 159.706 206.88C159.503 206.646 159.254 206.456 158.974 206.322C158.694 206.187 158.39 206.112 158.08 206.1C157.463 206.157 156.887 206.436 156.459 206.884C156.03 207.332 155.779 207.92 155.75 208.54C155.75 210.24 155.75 211.93 155.75 213.63C155.75 213.98 155.42 214.34 155.24 214.69C155.024 214.355 154.865 213.987 154.77 213.6C154.7 212.6 154.77 211.6 154.77 210.6L154.72 210.64Z" fill="black"/>
<path d="M138.42 211.54C138.42 212.25 138.42 212.95 138.42 213.65C138.42 214.78 137.95 215.02 136.95 214.56C136.588 214.411 136.182 214.411 135.82 214.56C135.244 214.835 134.618 214.992 133.98 215.021C133.342 215.05 132.705 214.95 132.107 214.728C131.508 214.506 130.96 214.166 130.495 213.729C130.03 213.291 129.658 212.764 129.4 212.18C128.814 211.171 128.623 209.98 128.865 208.838C129.107 207.696 129.765 206.685 130.71 206C132.46 204.45 136.71 204.65 137.85 207.6C138.227 208.881 138.492 210.193 138.64 211.52L138.42 211.54ZM136.84 210.06C137.2 207.06 135.41 206.25 133.59 206.14C131.77 206.03 130.39 207.68 130.4 210C130.4 212 131.94 213.78 133.64 213.79C135.53 213.79 136.85 212.26 136.84 210.06Z" fill="black"/>
<path d="M180 209.89C180 208.61 180 207.33 180 206.06C180.115 205.702 180.367 205.404 180.7 205.23C181.7 205.74 182.7 205.13 183.7 205.23C184.014 205.322 184.311 205.464 184.58 205.65C184.379 205.87 184.147 206.059 183.89 206.21C181.89 206.93 181.21 207.97 181.31 210.09C181.345 211.399 181.295 212.708 181.16 214.01C181.16 214.27 180.77 214.51 180.55 214.77C180.36 214.51 180.01 214.26 180 214C179.95 212.64 180 211.28 180 209.92V209.89Z" fill="black"/>
<path d="M170 210.79C169.66 208.52 170.41 207.17 172.23 206.34C172.833 206.059 173.517 206.006 174.157 206.189C174.796 206.373 175.348 206.782 175.71 207.34C173.87 208.55 172.28 210.1 170 210.79Z" fill="white"/>
<path d="M136.84 210.06C136.84 212.26 135.53 213.79 133.64 213.77C131.94 213.77 130.4 211.95 130.4 209.98C130.4 207.68 131.69 205.98 133.59 206.14C135.49 206.3 137.2 207.09 136.84 210.06Z" fill="white"/>
<path d="M79.74 205L66.84 209.61L75.19 212.35L79.74 217.22C79.74 217.22 78.74 210.9 78.97 210.47C79.3198 208.661 79.5768 206.835 79.74 205V205Z" fill="#F04B01"/>
<path d="M66.21 219.65L68.12 225.9L73.29 227L75.21 218.37L65.04 210.25L66.21 219.65Z" fill="#F04B01"/>
<path d="M51.67 222C51.67 222 54.96 224.48 55.22 224.31C55.48 224.14 63.16 220.8 63.16 220.8L62.65 210.21L51.67 222Z" fill="#F04B01"/>
<path d="M81.53 193.94L70.68 190L67.52 208.12C69.14 206.75 81.53 193.94 81.53 193.94Z" fill="#F04B01"/>
<path d="M50.17 201.8L41.72 200.17L41.62 208.5L58.72 206.24L50.17 201.8Z" fill="#F04B01"/>
<path d="M60.35 192.14C60.35 192.14 63.51 196.76 63.93 197.27L64.53 193.08L66.21 191.08L60.35 192.14Z" fill="#F04B01"/>
<path d="M66.21 200.17L55.38 194.17C55.38 194.17 48.79 201.07 48.68 201.49C48.57 201.91 57 211.93 57 211.93L64.34 212.76L69.5 206.26L66.21 200.17ZM54.85 204.22L51 200.84L55.42 195.84L59.58 198.51L54.85 204.22Z" fill="#666666"/>
<path d="M52.82 208.64L54.69 211.23C55.0071 211.666 55.1778 212.191 55.1778 212.73C55.1778 213.269 55.0071 213.794 54.69 214.23L47.88 223.35C47.6221 223.694 47.2756 223.961 46.8775 224.123C46.4794 224.285 46.0447 224.336 45.62 224.27C44.8232 224.162 44.0572 223.891 43.3692 223.475C42.6812 223.059 42.0858 222.506 41.62 221.85C39.71 219.01 42.82 218.63 42.82 218.63C42.82 218.63 48.67 213.88 50.82 208.9C50.8975 208.71 51.0238 208.545 51.1862 208.42C51.3486 208.295 51.5412 208.215 51.7444 208.188C51.9476 208.162 52.1542 208.19 52.3431 208.269C52.5321 208.349 52.6966 208.477 52.82 208.64V208.64Z" fill="#666666"/>
</g>
<path d="M443.868 270.393H445.515V276.584C444.757 277.249 443.861 277.759 442.825 278.115C441.789 278.47 440.7 278.648 439.556 278.648C437.933 278.648 436.472 278.292 435.174 277.581C433.875 276.87 432.855 275.889 432.113 274.637C431.371 273.369 431 271.955 431 270.393C431 268.832 431.371 267.426 432.113 266.174C432.855 264.906 433.875 263.917 435.174 263.206C436.472 262.495 437.94 262.139 439.579 262.139C440.816 262.139 441.952 262.34 442.987 262.742C444.023 263.128 444.896 263.708 445.607 264.481L444.541 265.571C443.258 264.303 441.627 263.669 439.648 263.669C438.335 263.669 437.144 263.963 436.078 264.551C435.027 265.122 434.2 265.926 433.597 266.962C432.994 267.982 432.693 269.126 432.693 270.393C432.693 271.661 432.994 272.805 433.597 273.825C434.2 274.845 435.027 275.649 436.078 276.236C437.129 276.824 438.311 277.118 439.625 277.118C441.295 277.118 442.709 276.7 443.868 275.865V270.393Z" fill="#BDBDBD"/>
<path d="M457.466 278.648C455.858 278.648 454.397 278.292 453.083 277.581C451.785 276.855 450.765 275.865 450.023 274.613C449.296 273.361 448.933 271.955 448.933 270.393C448.933 268.832 449.296 267.426 450.023 266.174C450.765 264.922 451.785 263.94 453.083 263.229C454.397 262.502 455.858 262.139 457.466 262.139C459.073 262.139 460.519 262.495 461.802 263.206C463.1 263.917 464.12 264.906 464.862 266.174C465.604 267.426 465.975 268.832 465.975 270.393C465.975 271.955 465.604 273.369 464.862 274.637C464.12 275.889 463.1 276.87 461.802 277.581C460.519 278.292 459.073 278.648 457.466 278.648ZM457.466 277.118C458.749 277.118 459.908 276.832 460.944 276.26C461.979 275.672 462.791 274.868 463.378 273.848C463.966 272.813 464.259 271.661 464.259 270.393C464.259 269.126 463.966 267.982 463.378 266.962C462.791 265.926 461.979 265.122 460.944 264.551C459.908 263.963 458.749 263.669 457.466 263.669C456.183 263.669 455.016 263.963 453.965 264.551C452.929 265.122 452.11 265.926 451.507 266.962C450.919 267.982 450.626 269.126 450.626 270.393C450.626 271.661 450.919 272.813 451.507 273.848C452.11 274.868 452.929 275.672 453.965 276.26C455.016 276.832 456.183 277.118 457.466 277.118Z" fill="#BDBDBD"/>
<path d="M486.509 270.208H489.361V276.677C488.526 277.342 487.552 277.852 486.439 278.207C485.326 278.563 484.182 278.741 483.007 278.741C481.354 278.741 479.862 278.385 478.533 277.674C477.203 276.947 476.16 275.95 475.402 274.683C474.645 273.415 474.266 271.986 474.266 270.393C474.266 268.801 474.645 267.372 475.402 266.104C476.16 264.836 477.203 263.847 478.533 263.136C479.877 262.41 481.384 262.046 483.054 262.046C484.414 262.046 485.651 262.271 486.764 262.719C487.877 263.167 488.812 263.824 489.569 264.69L487.668 266.545C486.431 265.308 484.94 264.69 483.193 264.69C482.049 264.69 481.029 264.929 480.132 265.408C479.251 265.888 478.556 266.56 478.046 267.426C477.551 268.291 477.304 269.281 477.304 270.393C477.304 271.475 477.551 272.449 478.046 273.315C478.556 274.181 479.251 274.861 480.132 275.355C481.029 275.85 482.041 276.097 483.17 276.097C484.437 276.097 485.55 275.819 486.509 275.263V270.208Z" fill="#919CA4"/>
<path d="M505.509 275.981V278.509H493.336V262.278H505.184V264.806H496.35V269.025H504.187V271.506H496.35V275.981H505.509Z" fill="#919CA4"/>
<path d="M512.162 264.829H506.782V262.278H520.555V264.829H515.176V278.509H512.162V264.829Z" fill="#919CA4"/>
<path d="M528.63 262.278H532.386V275.448H540.525V278.509H528.63V262.278Z" fill="#3D84A6"/>
<path d="M542.624 262.278H546.38V278.509H542.624V262.278Z" fill="#3D84A6"/>
<path d="M565.117 262.278V278.509H562.033L553.941 268.654V278.509H550.232V262.278H553.338L561.407 272.132V262.278H565.117Z" fill="#3D84A6"/>
<path d="M574.87 272.132L572.69 274.405V278.509H568.957V262.278H572.69V269.86L579.878 262.278H584.051L577.327 269.512L584.446 278.509H580.063L574.87 272.132Z" fill="#3D84A6"/>
<path d="M591.114 278.787C589.831 278.787 588.586 278.617 587.381 278.277C586.19 277.921 585.232 277.465 584.506 276.909L585.781 274.08C586.476 274.59 587.303 275 588.262 275.309C589.22 275.618 590.179 275.773 591.137 275.773C592.203 275.773 592.992 275.618 593.502 275.309C594.012 274.984 594.267 274.559 594.267 274.034C594.267 273.647 594.112 273.33 593.803 273.083C593.51 272.82 593.123 272.612 592.644 272.457C592.18 272.302 591.547 272.132 590.743 271.947C589.506 271.653 588.494 271.36 587.705 271.066C586.917 270.772 586.237 270.301 585.665 269.651C585.108 269.002 584.83 268.137 584.83 267.055C584.83 266.112 585.085 265.262 585.595 264.504C586.105 263.731 586.871 263.121 587.891 262.672C588.926 262.224 590.186 262 591.67 262C592.706 262 593.718 262.124 594.708 262.371C595.697 262.618 596.562 262.974 597.304 263.438L596.145 266.289C594.646 265.439 593.146 265.014 591.647 265.014C590.596 265.014 589.815 265.184 589.305 265.524C588.811 265.864 588.563 266.313 588.563 266.869C588.563 267.426 588.849 267.843 589.421 268.121C590.008 268.384 590.897 268.647 592.088 268.91C593.324 269.203 594.337 269.497 595.125 269.791C595.913 270.084 596.586 270.548 597.142 271.182C597.714 271.816 598 272.673 598 273.755C598 274.683 597.737 275.533 597.212 276.306C596.702 277.063 595.929 277.666 594.893 278.114C593.857 278.563 592.598 278.787 591.114 278.787Z" fill="#3D84A6"/>
<circle cx="470.37" cy="270.394" r="1.15931" fill="#C4C4C4"/>
<circle cx="522.539" cy="270.394" r="1.15931" fill="#C4C4C4"/>
<defs>
<clipPath id="clip0">
<rect width="133" height="16" fill="white" transform="translate(98 371)"/>
</clipPath>
<clipPath id="clip1">
<rect width="54.2" height="30.9" fill="white" transform="translate(290 427)"/>
</clipPath>
<clipPath id="clip2">
<rect width="143.54" height="37" fill="white" transform="translate(41 190)"/>
</clipPath>
</defs>
</svg>
