<svg width="50" height="49" viewBox="0 0 50 49" fill="none" xmlns="http://www.w3.org/2000/svg">
<g clip-path="url(#clip0)">
<path d="M15.592 29.0823C15.9437 29.6025 16.1291 30.2037 16.1291 30.8227C16.1291 32.5662 14.6824 33.984 12.9033 33.984C12.2717 33.984 11.6582 33.8022 11.1274 33.4576L10.2371 34.7758C11.0325 35.2918 11.9543 35.5646 12.9033 35.5646C15.5719 35.5646 17.742 33.4379 17.742 30.8227C17.742 29.8927 17.4636 28.9893 16.9371 28.209L15.592 29.0823Z" fill="#362758"/>
<path d="M12.9032 27.6612C13.5348 27.6612 14.1491 27.843 14.6783 28.1868L15.5694 26.8693C14.7748 26.3534 13.8533 26.0806 12.9032 26.0806C10.2345 26.0806 8.06445 28.2073 8.06445 30.8225C8.06445 31.7525 8.34285 32.6559 8.86933 33.4362L10.2145 32.5637C9.86282 32.0427 9.67736 31.4415 9.67736 30.8225C9.67736 29.079 11.1241 27.6612 12.9032 27.6612Z" fill="#362758"/>
<path d="M29.0322 33.1934V37.9353H32.258V36.3546H30.6451V33.1934H29.0322Z" fill="#362758"/>
<path d="M29.8388 28.4517C27.7978 28.4517 25.8041 29.1486 24.2251 30.4147L25.2477 31.6384C26.329 30.7705 27.6509 30.2345 29.0323 30.0821V31.613H30.6452V30.079C34.0041 30.4448 36.6759 33.0639 37.0492 36.3549H35.4839V37.9355H37.046C36.8905 39.29 36.3435 40.5847 35.4579 41.6452L36.7058 42.6466C37.9978 41.0991 38.7097 39.1453 38.7097 37.1452C38.7097 32.3519 34.7298 28.4517 29.8388 28.4517Z" fill="#362758"/>
<path d="M30.6452 44.2081V42.6772H29.0323V44.2111C25.6734 43.8453 23.0016 41.2262 22.6283 37.9353H24.1936V36.3546H22.6315C22.787 35.0001 23.334 33.7054 24.2196 32.645L22.9717 31.6436C21.6797 33.191 20.9678 35.1448 20.9678 37.1449C20.9678 41.9382 24.9477 45.8385 29.8387 45.8385C31.8797 45.8385 33.8734 45.1416 35.4524 43.8754L34.4298 42.6517C33.3485 43.5196 32.0273 44.0556 30.6452 44.2081Z" fill="#362758"/>
<path d="M45.1613 36.3549H43.5484V14.2259H38.7097V29.1124C38.2171 28.5899 37.6776 28.1125 37.0968 27.6834V18.1775H32.2581V25.5289C31.7332 25.4239 31.1921 25.3657 30.6452 25.3298V22.1291H25.8065V25.9819C24.9953 26.264 24.2243 26.6283 23.5025 27.0656C23.3402 26.6252 23.1615 26.193 22.9453 25.7805L24.2203 24.0305L19.8341 19.7304L18.0475 20.9807C17.5096 20.7113 16.9477 20.4837 16.3669 20.3011L16.0066 18.1775H9.80067L9.44037 20.3011C8.85955 20.4837 8.29763 20.7113 7.75973 20.9807L5.97357 19.7304L1.58691 24.0305L2.86196 25.7805C2.58632 26.3069 2.35399 26.8576 2.16773 27.4275L0 27.7822V33.8632L2.16694 34.217C2.3532 34.787 2.58632 35.3377 2.86117 35.8641L1.58613 37.6137L5.97239 41.9142L7.75895 40.6639C8.29684 40.9332 8.85876 41.1609 9.43958 41.3435L9.79988 43.4678H16.0058L16.3661 41.3442C16.9469 41.1617 17.5088 40.934 18.0467 40.6647L18.3692 40.8904C19.975 45.5953 24.505 49.0001 29.8387 49.0001C36.2372 49.0001 41.4767 44.1042 41.8945 37.9356H50V7.90332H45.1613V36.3549ZM40.3226 15.8065H41.9355V36.3549H41.8945C41.7693 34.508 41.2153 32.7773 40.3226 31.2564V15.8065ZM33.871 19.7582H35.4839V26.6688C34.9684 26.4007 34.4274 26.1764 33.871 25.9827V19.7582ZM27.4194 23.7098H29.0323V25.3305C28.4853 25.3664 27.9443 25.4247 27.4194 25.5301V23.7098ZM17.7057 39.0485C17.0009 39.4444 16.2405 39.7524 15.4427 39.9643L14.9434 40.097L14.6386 41.8872H11.1671L10.8623 40.097L10.363 39.9643C9.56598 39.7524 8.80481 39.4444 8.09996 39.0485L7.65066 38.7961L6.14683 39.8496L3.69125 37.4439L4.76625 35.9686L4.50873 35.5283C4.1055 34.8391 3.79048 34.0939 3.5743 33.3113L3.43963 32.822L1.6129 32.5241V29.1212L3.43963 28.8233L3.57509 28.334C3.79284 27.5506 4.10629 26.8047 4.50951 26.117L4.76704 25.6767L3.69204 24.2014L6.14762 21.7957L7.65145 22.8492L8.10074 22.5968C8.8056 22.2009 9.56598 21.893 10.3638 21.6811L10.8631 21.5483L11.1679 19.7582H14.6394L14.9442 21.5483L15.4435 21.6811C16.2405 21.893 17.0016 22.2009 17.7065 22.5968L18.1558 22.8492L19.6596 21.7957L22.1152 24.2014L21.0402 25.6767L21.2977 26.117C21.6458 26.7113 21.9136 27.3554 22.1243 28.0226C21.6525 28.4066 21.2194 28.8326 20.8122 29.2806C20.0774 25.6586 16.8114 22.9194 12.9032 22.9194C8.45632 22.9194 4.83871 26.4647 4.83871 30.8227C4.83871 35.1806 8.45632 38.7259 12.9032 38.7259C14.6646 38.7259 16.359 38.142 17.7427 37.124C17.7427 37.131 17.7419 37.1383 17.7419 37.1453C17.7419 37.7577 17.8042 38.3543 17.8959 38.9416L17.7057 39.0485ZM19.3348 31.2881C18.7276 32.3308 18.2727 33.4672 18.0097 34.6755C16.7918 36.2222 14.8977 37.1453 12.9032 37.1453C9.34586 37.1453 6.45161 34.3089 6.45161 30.8227C6.45161 27.3365 9.34586 24.5001 12.9032 24.5001C16.4606 24.5001 19.3548 27.3365 19.3548 30.8227C19.3548 30.9801 19.3458 31.1341 19.3348 31.2881ZM29.8387 47.4194C24.0581 47.4194 19.3548 42.8103 19.3548 37.1453C19.3548 31.4802 24.0581 26.8711 29.8387 26.8711C35.6193 26.8711 40.3226 31.4802 40.3226 37.1453C40.3226 42.8103 35.6193 47.4194 29.8387 47.4194ZM46.7742 9.48397H48.3871V36.3549H46.7742V9.48397Z" fill="#362758"/>
<path d="M45.1613 0V1.58065H46.8943L41.1889 6.05399L38.7097 3.62437L34.9074 7.35062C34.592 7.20205 34.2435 7.1129 33.871 7.1129C32.5373 7.1129 31.4516 8.17683 31.4516 9.48387C31.4516 9.89254 31.5678 10.2719 31.754 10.6076L27.5387 15.1979C27.2532 15.0817 26.9413 15.0161 26.6129 15.0161C26.5975 15.0161 26.5838 15.02 26.5684 15.0208L23.3257 6.54563C23.8518 6.11072 24.1935 5.4682 24.1935 4.74194C24.1935 3.43489 23.1079 2.37097 21.7742 2.37097C20.4405 2.37097 19.3548 3.43489 19.3548 4.74194C19.3548 4.9125 19.3749 5.07844 19.4104 5.23975L12.7993 9.22609C12.3846 8.89808 11.8637 8.69355 11.2903 8.69355C10.2405 8.69355 9.35334 9.35652 9.01942 10.2742H4.69026C4.35634 9.35652 3.46916 8.69355 2.41935 8.69355C1.08564 8.69355 0 9.75747 0 11.0645C0 12.3716 1.08564 13.4355 2.41935 13.4355C3.46916 13.4355 4.35634 12.7725 4.69026 11.8548H9.02021C9.35413 12.7725 10.2413 13.4355 11.2911 13.4355C12.6248 13.4355 13.7105 12.3716 13.7105 11.0645C13.7105 10.8939 13.6904 10.728 13.6549 10.5667L20.266 6.58036C20.6799 6.90838 21.2009 7.1129 21.7742 7.1129C21.7896 7.1129 21.8033 7.10904 21.8187 7.10827L25.0614 15.5826C24.5353 16.0183 24.1935 16.6608 24.1935 17.3871C24.1935 18.6941 25.2792 19.7581 26.6129 19.7581C27.9466 19.7581 29.0323 18.6941 29.0323 17.3871C29.0323 16.9784 28.9169 16.5991 28.7298 16.2634L32.9452 11.6731C33.2307 11.7892 33.5426 11.8548 33.871 11.8548C35.2047 11.8548 36.2903 10.7909 36.2903 9.48387C36.2903 9.11881 36.1994 8.77729 36.0478 8.46818L38.7097 5.8595L41.0692 8.17181L48.3871 2.43503V4.74194H50V0H45.1613ZM2.41935 11.8548C1.97439 11.8548 1.6129 11.4998 1.6129 11.0645C1.6129 10.6292 1.97439 10.2742 2.41935 10.2742C2.86432 10.2742 3.22581 10.6292 3.22581 11.0645C3.22581 11.4998 2.86432 11.8548 2.41935 11.8548ZM11.2903 11.8548C10.8454 11.8548 10.4839 11.4998 10.4839 11.0645C10.4839 10.6292 10.8454 10.2742 11.2903 10.2742C11.7353 10.2742 12.0968 10.6292 12.0968 11.0645C12.0968 11.4998 11.7353 11.8548 11.2903 11.8548ZM20.9677 4.74194C20.9677 4.30664 21.3292 3.95161 21.7742 3.95161C22.2192 3.95161 22.5806 4.30664 22.5806 4.74194C22.5806 5.17723 22.2192 5.53226 21.7742 5.53226C21.3292 5.53226 20.9677 5.17723 20.9677 4.74194ZM26.6129 18.1774C26.1679 18.1774 25.8065 17.8224 25.8065 17.3871C25.8065 16.9518 26.1679 16.5968 26.6129 16.5968C27.0579 16.5968 27.4194 16.9518 27.4194 17.3871C27.4194 17.8224 27.0579 18.1774 26.6129 18.1774ZM33.871 10.2742C33.426 10.2742 33.0645 9.91917 33.0645 9.48387C33.0645 9.04858 33.426 8.69355 33.871 8.69355C34.3159 8.69355 34.6774 9.04858 34.6774 9.48387C34.6774 9.91917 34.3159 10.2742 33.871 10.2742Z" fill="#362758"/>
</g>
<defs>
<clipPath id="clip0">
<rect width="50" height="49" fill="white"/>
</clipPath>
</defs>
</svg>
