<svg width="631" height="630" viewBox="0 0 631 630" fill="none" xmlns="http://www.w3.org/2000/svg">
<circle opacity="0.9" cx="315.355" cy="315" r="275.248" fill="#A3CDFF" fill-opacity="0.34" stroke="white"/>
<circle opacity="0.9" cx="315.355" cy="315" r="314.5" fill="white" fill-opacity="0.34" stroke="white"/>
<circle opacity="0.9" cx="315.355" cy="315" r="232.07" fill="white" fill-opacity="0.34" stroke="white"/>
<circle opacity="0.9" cx="315.355" cy="314.019" r="187.911" fill="#FCFCFC" fill-opacity="0.34" stroke="white"/>
<circle opacity="0.9" cx="315.355" cy="315" r="144.734" fill="white" fill-opacity="0.34" stroke="white"/>
<circle opacity="0.9" cx="315.355" cy="315" r="100.575" fill="white" fill-opacity="0.34" stroke="white"/>
<circle opacity="0.9" cx="315.355" cy="315" r="57.3972" fill="white" fill-opacity="0.71" stroke="white"/>
<circle cx="315.355" cy="315" r="13.2383" fill="white" stroke="white"/>
<path d="M317.941 320.888H315.026V311.607L312.163 312.444V310.236L317.674 308.33H317.941V320.888Z" fill="#EE520F"/>
<path opacity="0.9" d="M320.261 287.523H311.498V285.626L315.535 281.382C316.53 280.249 317.027 279.35 317.027 278.683C317.027 278.142 316.909 277.731 316.673 277.449C316.438 277.167 316.095 277.027 315.647 277.027C315.204 277.027 314.845 277.216 314.569 277.596C314.293 277.97 314.155 278.438 314.155 279.002H311.24C311.24 278.231 311.432 277.521 311.818 276.871C312.203 276.216 312.738 275.704 313.422 275.336C314.106 274.968 314.871 274.784 315.716 274.784C317.073 274.784 318.117 275.098 318.847 275.724C319.583 276.351 319.951 277.251 319.951 278.424C319.951 278.918 319.859 279.401 319.675 279.873C319.491 280.339 319.203 280.83 318.812 281.348C318.427 281.859 317.803 282.546 316.941 283.409L315.319 285.281H320.261V287.523Z" fill="white"/>
<path opacity="0.8" d="M314.155 235.87H315.526C316.613 235.87 317.156 235.338 317.156 234.274C317.156 233.86 317.027 233.524 316.768 233.265C316.509 233.001 316.144 232.868 315.673 232.868C315.288 232.868 314.951 232.981 314.664 233.205C314.382 233.429 314.241 233.708 314.241 234.041H311.335C311.335 233.38 311.519 232.791 311.887 232.273C312.255 231.756 312.763 231.353 313.413 231.066C314.069 230.773 314.787 230.626 315.569 230.626C316.967 230.626 318.065 230.945 318.864 231.583C319.663 232.222 320.063 233.098 320.063 234.214C320.063 234.754 319.896 235.266 319.563 235.749C319.235 236.226 318.755 236.614 318.122 236.913C318.789 237.155 319.313 237.523 319.692 238.017C320.072 238.506 320.261 239.113 320.261 239.837C320.261 240.958 319.83 241.855 318.968 242.528C318.105 243.201 316.972 243.537 315.569 243.537C314.747 243.537 313.982 243.382 313.275 243.072C312.574 242.755 312.042 242.321 311.68 241.769C311.317 241.211 311.136 240.579 311.136 239.872H314.06C314.06 240.257 314.215 240.59 314.526 240.872C314.836 241.154 315.219 241.295 315.673 241.295C316.185 241.295 316.593 241.154 316.898 240.872C317.202 240.585 317.355 240.22 317.355 239.777C317.355 239.144 317.197 238.696 316.88 238.431C316.564 238.167 316.127 238.035 315.569 238.035H314.155V235.87Z" fill="white"/>
<path opacity="0.7" d="M319.175 194.298H320.451V196.54H319.175V199.205H316.268V196.54H311.412L311.24 194.763L316.268 186.673V186.647H319.175V194.298ZM314.008 194.298H316.268V190.434L316.087 190.727L314.008 194.298Z" fill="white"/>
<path opacity="0.6" d="M311.671 148.906L312.439 142.489H319.778V144.749H314.802L314.517 147.242C314.724 147.121 314.994 147.014 315.328 146.922C315.667 146.83 315.998 146.784 316.32 146.784C317.568 146.784 318.525 147.155 319.192 147.897C319.865 148.633 320.201 149.668 320.201 151.002C320.201 151.807 320.02 152.537 319.658 153.193C319.301 153.842 318.798 154.343 318.148 154.693C317.499 155.044 316.731 155.219 315.845 155.219C315.058 155.219 314.319 155.058 313.629 154.736C312.939 154.409 312.398 153.963 312.007 153.4C311.616 152.83 311.424 152.189 311.43 151.476H314.345C314.373 151.936 314.52 152.301 314.785 152.572C315.049 152.842 315.397 152.977 315.828 152.977C316.806 152.977 317.294 152.253 317.294 150.804C317.294 149.464 316.696 148.794 315.5 148.794C314.822 148.794 314.316 149.012 313.983 149.449L311.671 148.906Z" fill="white"/>
<path opacity="0.5" d="M318.519 98.1494V100.435H318.39C317.303 100.435 316.409 100.697 315.707 101.22C315.012 101.737 314.583 102.459 314.422 103.385C315.078 102.741 315.906 102.419 316.906 102.419C317.993 102.419 318.858 102.815 319.502 103.609C320.146 104.402 320.468 105.443 320.468 106.731C320.468 107.53 320.279 108.263 319.899 108.93C319.525 109.597 318.999 110.121 318.321 110.5C317.648 110.874 316.901 111.061 316.078 111.061C315.187 111.061 314.391 110.859 313.689 110.457C312.988 110.049 312.442 109.468 312.051 108.715C311.66 107.962 311.458 107.093 311.447 106.11V104.946C311.447 103.652 311.723 102.491 312.275 101.461C312.832 100.426 313.626 99.6156 314.655 99.0291C315.684 98.4427 316.826 98.1494 318.079 98.1494H318.519ZM315.897 104.644C315.512 104.644 315.19 104.733 314.931 104.911C314.672 105.089 314.48 105.308 314.353 105.567V106.438C314.353 108.025 314.902 108.818 316.001 108.818C316.443 108.818 316.811 108.62 317.105 108.223C317.404 107.826 317.553 107.329 317.553 106.731C317.553 106.116 317.401 105.616 317.096 105.23C316.797 104.839 316.397 104.644 315.897 104.644Z" fill="white"/>
<path opacity="0.4" d="M320.227 55.7234L315.535 66.7286H312.464L317.165 56.4133H311.179V54.1709H320.227V55.7234Z" fill="white"/>
<path opacity="0.3" d="M319.968 13.3672C319.968 13.9767 319.816 14.5143 319.511 14.98C319.212 15.4458 318.798 15.8195 318.269 16.1013C318.867 16.3945 319.341 16.797 319.692 17.3087C320.043 17.8147 320.218 18.4156 320.218 19.1113C320.218 20.2325 319.83 21.118 319.054 21.7678C318.283 22.4175 317.22 22.7424 315.863 22.7424C314.5 22.7424 313.425 22.4175 312.637 21.7678C311.849 21.1123 311.455 20.2268 311.455 19.1113C311.455 18.4386 311.628 17.8435 311.973 17.326C312.318 16.8085 312.807 16.4003 313.439 16.1013C312.904 15.8195 312.485 15.4458 312.18 14.98C311.875 14.5143 311.723 13.9767 311.723 13.3672C311.723 12.2747 312.094 11.4123 312.835 10.7798C313.577 10.1473 314.577 9.83105 315.837 9.83105C317.107 9.83105 318.114 10.1473 318.855 10.7798C319.597 11.4123 319.968 12.2747 319.968 13.3672ZM317.303 18.8785C317.303 18.361 317.168 17.9642 316.898 17.6882C316.633 17.4065 316.282 17.2656 315.845 17.2656C315.408 17.2656 315.055 17.4065 314.784 17.6882C314.514 17.9642 314.379 18.361 314.379 18.8785C314.379 19.3787 314.514 19.7754 314.784 20.0687C315.06 20.3562 315.42 20.4999 315.863 20.4999C316.294 20.4999 316.642 20.3562 316.906 20.0687C317.171 19.7812 317.303 19.3844 317.303 18.8785ZM315.837 12.0735C315.446 12.0735 315.147 12.2029 314.94 12.4616C314.738 12.7146 314.638 13.0682 314.638 13.5225C314.638 13.9709 314.741 14.3332 314.948 14.6092C315.155 14.8852 315.46 15.0232 315.863 15.0232C316.259 15.0232 316.555 14.8852 316.751 14.6092C316.952 14.3332 317.053 13.9709 317.053 13.5225C317.053 13.074 316.949 12.7204 316.742 12.4616C316.541 12.2029 316.239 12.0735 315.837 12.0735Z" fill="white"/>
</svg>
