<svg width="51" height="51" viewBox="0 0 51 51" fill="none" xmlns="http://www.w3.org/2000/svg">
<g clip-path="url(#clip0)">
<path d="M4.06877 26.5112C4.54017 27.2906 5.02791 28.0961 5.46237 28.9118C6.74939 31.1933 7.58796 33.7001 7.93373 36.2971C8.19472 39.2511 8.69179 42.1795 9.4199 45.0546C9.97998 47.1362 11.0243 51.0105 14.3521 51.0105C16.9623 51.0105 18.9814 46.0246 20.3509 36.1925C20.8121 32.9358 22.2201 32.6161 22.928 32.5294C22.956 32.5294 22.979 32.5406 23.0062 32.5449C23.0536 32.6764 23.0995 32.8098 23.1497 32.9381C23.5674 33.9261 24.0696 34.8763 24.6503 35.7778C24.94 36.257 25.2313 36.737 25.4997 37.2375C26.271 38.6055 26.7739 40.108 26.9816 41.6642C27.131 43.1632 27.3612 44.6528 27.6708 46.1265C27.6759 46.1464 27.6708 46.1666 27.6786 46.186C27.686 46.2059 27.6922 46.2211 27.6988 46.2405C27.7649 46.5279 27.8256 46.8158 27.9054 47.1012C28.2453 48.37 28.9571 51.0098 31.2565 51.0098C31.9963 51.0098 33.9616 51.0098 35.2712 41.6101C35.5124 39.9104 36.1522 39.6949 36.5337 39.6397L36.6392 39.6584C36.8939 39.7109 37.5738 39.8493 37.8286 41.6124C39.1354 51.0105 41.1 51.0105 41.839 51.0105C44.133 51.0105 44.8195 48.4692 45.1894 47.1098C45.6417 45.3218 45.9517 43.5011 46.1162 41.6642C46.3259 40.1064 46.8303 38.6028 47.6032 37.2341C47.8708 36.7284 48.164 36.2442 48.4526 35.7607C49.0298 34.8634 49.5281 33.9175 49.9415 32.9339C51.367 29.3151 51.7478 24.3576 48.5421 21.2935C47.5635 20.3736 46.3725 19.7104 45.0754 19.3631C46.8148 12.9677 45.723 7.13542 42.0751 3.63762C37.1673 -1.07408 28.4184 -1.17093 22.951 3.28212C17.4831 -1.17093 8.73496 -1.07408 3.82335 3.63995C-1.17967 8.4345 -0.569416 16.2593 1.67442 21.9827C2.34146 23.5579 3.1423 25.0732 4.06877 26.5112ZM48.3636 32.3178C47.9843 33.2116 47.5297 34.0711 47.0042 34.8871C46.695 35.3971 46.3854 35.907 46.1053 36.4398C45.2314 37.9972 44.6623 39.707 44.429 41.4775C44.2726 43.2254 43.9797 44.9581 43.5527 46.6602C43.2018 47.9425 42.7542 49.3112 41.8569 49.3112C41.5169 49.2066 40.3664 47.5229 39.5107 41.3721C39.2295 39.4176 38.3781 38.2784 36.9756 37.9921C36.8651 37.968 36.7531 37.9493 36.6407 37.9369C36.6096 37.938 36.5781 37.9408 36.5474 37.9454C36.5147 37.9404 36.4816 37.9373 36.4486 37.9361C34.8488 38.1142 33.8862 39.2698 33.5886 41.3721C32.7314 47.5271 31.5758 49.2101 31.2565 49.3112C30.3363 49.3112 29.8909 47.9433 29.5436 46.6551C29.1181 44.9527 28.826 43.2199 28.67 41.4724C28.4394 39.7015 27.8711 37.9913 26.996 36.4348C26.716 35.9077 26.4091 35.4006 26.1022 34.8949C25.5744 34.0762 25.117 33.2143 24.7351 32.3178C23.5169 29.2097 23.1377 25.004 25.73 22.5214C28.3223 20.0387 33.2005 20.0811 35.9756 22.6112C36.2253 22.8543 39.4302 25.9106 42.303 25.9106C42.7721 25.9106 43.1525 25.5303 43.1525 25.0608C43.1525 24.5917 42.7721 24.2113 42.303 24.2113C40.8448 24.2113 38.9985 22.9512 37.8795 22.0278C39.6554 20.88 41.8001 20.4475 43.8817 20.8178C45.1898 21.0243 46.406 21.6186 47.3729 22.5237C49.9703 25.0106 49.5312 29.3501 48.3636 32.3178ZM4.99991 4.86591C9.39345 0.649342 17.6737 0.717019 22.3749 5.00554C22.7063 5.32837 27.8085 10.2268 32.2973 10.2268C32.7664 10.2268 33.1468 9.84637 33.1468 9.37691C33.1468 8.90785 32.7664 8.52746 32.2973 8.52746C29.3141 8.52746 25.7354 5.70643 24.2508 4.41318C29.0395 0.728298 36.7259 0.856651 40.9043 4.86708C44.1178 7.9487 45.0295 13.215 43.4057 19.0512C40.9732 18.7918 38.531 19.4483 36.5567 20.8932C33.0593 18.2185 27.6277 18.3445 24.5526 21.2942C21.9245 23.8127 21.7137 27.6115 22.5134 30.8958C20.3932 31.2832 19.0961 32.9724 18.6737 35.9552C17.1961 46.5201 15.2012 49.3112 14.3521 49.3112C12.4829 49.3112 11.6735 46.8862 11.0581 44.6058C10.3592 41.8151 9.87924 38.9746 9.62215 36.1092C9.25459 33.2979 8.35146 30.5835 6.96175 28.1121C6.5063 27.2556 6.00611 26.4299 5.5176 25.631C4.64169 24.2751 3.88363 22.8469 3.25237 21.3615C1.2139 16.1512 0.59859 9.08132 4.99991 4.86591Z" fill="#3C2458"/>
<path d="M4.89567 17.8019C5.16054 17.8019 5.41025 17.6786 5.57127 17.4678C5.7319 17.2574 5.78519 16.9836 5.71557 16.728C3.81829 9.7725 8.2515 7.47927 8.45297 7.37814C8.86137 7.16655 9.02745 6.66831 8.82714 6.25409C8.62683 5.83986 8.13326 5.66016 7.71398 5.8488C7.6568 5.87681 1.79421 8.80052 4.07538 17.1757C4.17651 17.5456 4.51217 17.8019 4.89567 17.8019Z" fill="#3C2458"/>
<path d="M11.9053 5.12729C11.9053 5.59675 11.5249 5.97714 11.0554 5.97714C10.5863 5.97714 10.206 5.59675 10.206 5.12729C10.206 4.65822 10.5863 4.27783 11.0554 4.27783C11.5249 4.27783 11.9053 4.65822 11.9053 5.12729Z" fill="#3C2458"/>
<path d="M27.98 23.4466C26.6767 24.1856 24.6001 26.704 26.0742 30.9458C26.1734 31.2333 26.4184 31.4456 26.7171 31.5032C27.0158 31.5604 27.3223 31.4538 27.5211 31.2235C27.7194 30.9933 27.7801 30.6744 27.6794 30.3873C26.32 26.4792 28.7074 24.9911 28.8248 24.9214C29.2321 24.6885 29.3733 24.1692 29.1399 23.7616C28.9065 23.3544 28.3873 23.2132 27.98 23.4466Z" fill="#3C2458"/>
<path d="M31.4475 22.9709C31.4475 23.44 31.0671 23.8204 30.598 23.8204C30.1286 23.8204 29.7482 23.44 29.7482 22.9709C29.7482 22.5015 30.1286 22.1211 30.598 22.1211C31.0671 22.1211 31.4475 22.5015 31.4475 22.9709Z" fill="#3C2458"/>
</g>
<defs>
<clipPath id="clip0">
<rect width="51" height="51" fill="white"/>
</clipPath>
</defs>
</svg>
