<svg width="30" height="30" viewBox="0 0 30 30" fill="none" xmlns="http://www.w3.org/2000/svg">
<path d="M29.0625 5.15625C29.1868 5.15625 29.306 5.10686 29.394 5.01896C29.4819 4.93105 29.5312 4.81182 29.5312 4.6875V0.9375C29.5312 0.81318 29.4819 0.693951 29.394 0.606044C29.306 0.518136 29.1868 0.46875 29.0625 0.46875H25.3125C25.1882 0.46875 25.069 0.518136 24.981 0.606044C24.8931 0.693951 24.8438 0.81318 24.8438 0.9375V2.34375H5.15625V0.9375C5.15625 0.81318 5.10686 0.693951 5.01896 0.606044C4.93105 0.518136 4.81182 0.46875 4.6875 0.46875H0.9375C0.81318 0.46875 0.693951 0.518136 0.606044 0.606044C0.518136 0.693951 0.46875 0.81318 0.46875 0.9375V4.6875C0.46875 4.81182 0.518136 4.93105 0.606044 5.01896C0.693951 5.10686 0.81318 5.15625 0.9375 5.15625H2.34375V24.8438H0.9375C0.81318 24.8438 0.693951 24.8931 0.606044 24.981C0.518136 25.069 0.46875 25.1882 0.46875 25.3125V29.0625C0.46875 29.1868 0.518136 29.306 0.606044 29.394C0.693951 29.4819 0.81318 29.5312 0.9375 29.5312H4.6875C4.81182 29.5312 4.93105 29.4819 5.01896 29.394C5.10686 29.306 5.15625 29.1868 5.15625 29.0625V27.6562H24.8438V29.0625C24.8438 29.1868 24.8931 29.306 24.981 29.394C25.069 29.4819 25.1882 29.5312 25.3125 29.5312H29.0625C29.1868 29.5312 29.306 29.4819 29.394 29.394C29.4819 29.306 29.5312 29.1868 29.5312 29.0625V25.3125C29.5312 25.1882 29.4819 25.069 29.394 24.981C29.306 24.8931 29.1868 24.8438 29.0625 24.8438H27.6562V5.15625H29.0625ZM1.40625 4.21875V1.40625H4.21875V4.21875H1.40625ZM4.21875 28.5938H1.40625V25.7812H4.21875V28.5938ZM24.8438 25.3125V26.7188H5.15625V25.3125C5.15625 25.1882 5.10686 25.069 5.01896 24.981C4.93105 24.8931 4.81182 24.8438 4.6875 24.8438H3.28125V5.15625H4.6875C4.81182 5.15625 4.93105 5.10686 5.01896 5.01896C5.10686 4.93105 5.15625 4.81182 5.15625 4.6875V3.28125H24.8438V4.6875C24.8438 4.81182 24.8931 4.93105 24.981 5.01896C25.069 5.10686 25.1882 5.15625 25.3125 5.15625H26.7188V24.8438H25.3125C25.1882 24.8438 25.069 24.8931 24.981 24.981C24.8931 25.069 24.8438 25.1882 24.8438 25.3125ZM28.5938 25.7812V28.5938H25.7812V25.7812H28.5938ZM25.7812 4.21875V1.40625H28.5938V4.21875H25.7812Z" fill="#383838"/>
<path d="M20.625 7.96875H9.375C9.25068 7.96875 9.13145 8.01814 9.04354 8.10604C8.95564 8.19395 8.90625 8.31318 8.90625 8.4375V12.1875C8.90625 12.3118 8.95564 12.431 9.04354 12.519C9.13145 12.6069 9.25068 12.6562 9.375 12.6562H10.2539C10.3561 12.6562 10.4554 12.6229 10.5369 12.5612C10.6183 12.4996 10.6774 12.413 10.7051 12.3146L11.1363 10.7812H13.5938V19.79L12.0738 20.1703C11.9724 20.1957 11.8824 20.2542 11.8181 20.3366C11.7537 20.4189 11.7188 20.5205 11.7188 20.625V21.5625C11.7188 21.6868 11.7681 21.806 11.856 21.894C11.944 21.9819 12.0632 22.0312 12.1875 22.0312H17.8125C17.9368 22.0312 18.056 21.9819 18.144 21.894C18.2319 21.806 18.2812 21.6868 18.2812 21.5625V20.625C18.2812 20.5205 18.2463 20.4189 18.1819 20.3366C18.1176 20.2542 18.0276 20.1957 17.9262 20.1703L16.4062 19.79V10.7812H18.8637L19.2949 12.3146C19.3226 12.413 19.3817 12.4996 19.4631 12.5612C19.5446 12.6229 19.6439 12.6562 19.7461 12.6562H20.625C20.7493 12.6562 20.8685 12.6069 20.9565 12.519C21.0444 12.431 21.0938 12.3118 21.0938 12.1875V8.4375C21.0938 8.31318 21.0444 8.19395 20.9565 8.10604C20.8685 8.01814 20.7493 7.96875 20.625 7.96875ZM20.1562 11.7188H20.1012L19.6699 10.1854C19.6422 10.087 19.5831 10.0004 19.5017 9.93879C19.4203 9.87712 19.3209 9.84375 19.2188 9.84375H15.9375C15.8132 9.84375 15.694 9.89314 15.606 9.98104C15.5181 10.069 15.4688 10.1882 15.4688 10.3125V20.1562C15.4688 20.2608 15.5037 20.3623 15.5681 20.4447C15.6324 20.5271 15.7224 20.5856 15.8238 20.6109L17.3438 20.9912V21.0938H12.6562V20.9912L14.1762 20.6109C14.2776 20.5856 14.3676 20.5271 14.4319 20.4447C14.4963 20.3623 14.5312 20.2608 14.5312 20.1562V10.3125C14.5312 10.1882 14.4819 10.069 14.394 9.98104C14.306 9.89314 14.1868 9.84375 14.0625 9.84375H10.7812C10.6791 9.84375 10.5797 9.87712 10.4983 9.93879C10.4169 10.0004 10.3578 10.087 10.3301 10.1854L9.89883 11.7188H9.84375V8.90625H20.1562V11.7188Z" fill="#383838"/>
<path d="M21.0938 22.9688H8.90625C8.78193 22.9688 8.6627 23.0181 8.57479 23.106C8.48689 23.194 8.4375 23.3132 8.4375 23.4375C8.4375 23.5618 8.48689 23.681 8.57479 23.769C8.6627 23.8569 8.78193 23.9062 8.90625 23.9062H21.0938C21.2181 23.9062 21.3373 23.8569 21.4252 23.769C21.5131 23.681 21.5625 23.5618 21.5625 23.4375C21.5625 23.3132 21.5131 23.194 21.4252 23.106C21.3373 23.0181 21.2181 22.9688 21.0938 22.9688Z" fill="#383838"/>
<path d="M16.875 24.375H13.125C13.0007 24.375 12.8815 24.4244 12.7935 24.5123C12.7056 24.6002 12.6562 24.7194 12.6562 24.8438C12.6562 24.9681 12.7056 25.0873 12.7935 25.1752C12.8815 25.2631 13.0007 25.3125 13.125 25.3125H16.875C16.9993 25.3125 17.1185 25.2631 17.2065 25.1752C17.2944 25.0873 17.3438 24.9681 17.3438 24.8438C17.3438 24.7194 17.2944 24.6002 17.2065 24.5123C17.1185 24.4244 16.9993 24.375 16.875 24.375Z" fill="#383838"/>
</svg>
