<svg width="102" height="31" viewBox="0 0 102 31" fill="none" xmlns="http://www.w3.org/2000/svg">
<g clip-path="url(#clip0)">
<path d="M15.0092 0C19.6771 0 23.4832 1.54037 26.4276 4.64519C29.372 7.75 30.8322 11.3602 30.8322 15.5C30.8322 19.7601 29.3241 23.4185 26.3079 26.4511C23.2917 29.4837 19.6531 31 15.4161 31C11.1551 31 7.51655 29.4837 4.50035 26.4511C1.5081 23.4425 0 19.7842 0 15.5C0 12.5637 0.766017 9.84394 2.29805 7.38898C3.83009 4.93401 5.76907 3.08075 8.16287 1.82919C10.5327 0.625776 12.8308 0 15.0092 0ZM15.7273 3.05668C12.0169 3.05668 8.97677 4.28416 6.6069 6.7632C4.2131 9.24224 3.04013 12.1545 3.04013 15.5C3.04013 18.9177 4.26097 21.854 6.67871 24.2849C9.09646 26.7399 12.0169 27.9433 15.4161 27.9433C18.8153 27.9433 21.7357 26.7158 24.1535 24.2849C26.5712 21.854 27.7921 18.9177 27.7921 15.5C27.7921 11.9379 26.5473 8.97748 24.0338 6.59472C21.5442 4.23602 18.7674 3.05668 15.7273 3.05668ZM19.1744 17.7865L22.406 18.8936C21.3288 22.4076 19.0547 24.1646 15.5837 24.1646C13.2377 24.1646 11.3466 23.3944 9.95823 21.83C8.54588 20.2655 7.85168 18.1957 7.85168 15.5963C7.85168 12.9006 8.56982 10.7826 9.98216 9.24224C11.3945 7.70186 13.2377 6.93168 15.4879 6.93168C18.935 6.93168 21.233 8.56832 22.3821 11.8416L19.1265 12.6118C18.4323 10.7345 17.2354 9.79581 15.5358 9.79581C14.1953 9.79581 13.1659 10.3012 12.4478 11.3121C11.7296 12.323 11.3706 13.6708 11.3706 15.3556C11.3706 17.2329 11.7057 18.677 12.3999 19.712C13.0941 20.7469 14.0516 21.2523 15.3203 21.2523C17.1636 21.2764 18.4323 20.1211 19.1744 17.7865Z" fill="#E84C3C"/>
<path d="M36.6491 8.30351H45.602C45.7695 8.30351 45.8653 8.35164 45.9371 8.44792C46.0089 8.54419 46.0329 8.66453 46.0329 8.78487V10.59C46.0329 10.8788 45.8892 11.0232 45.602 11.0232H42.9688C42.7294 11.0232 42.6097 11.1436 42.6097 11.3843V21.8058C42.6097 22.0465 42.5858 22.215 42.5379 22.2872C42.4182 22.4316 42.2267 22.5038 41.9155 22.5038H40.3356C40.0244 22.5038 39.8329 22.4557 39.7372 22.3353C39.6653 22.215 39.6175 22.0465 39.6175 21.8058V11.4083C39.6175 11.1676 39.4978 11.0473 39.2584 11.0473H36.721C36.3858 11.0473 36.2183 10.9029 36.2183 10.6381V8.71267C36.2183 8.44792 36.3619 8.30351 36.6491 8.30351ZM46.9425 21.8299V9.02556C46.9425 8.78487 46.9664 8.6164 47.0143 8.54419C47.134 8.39978 47.3255 8.32758 47.6367 8.32758H54.2675C54.5787 8.32758 54.7702 8.37571 54.866 8.49605C54.9378 8.6164 54.9857 8.78487 54.9857 9.02556V10.4697C54.9857 10.6141 54.9378 10.7344 54.8421 10.8307C54.7463 10.927 54.5787 10.951 54.3633 10.951H50.2938C50.0545 10.951 49.9348 11.0714 49.9348 11.288V13.4301C49.9348 13.6707 50.0066 13.7911 50.1502 13.7911H53.3579C53.5015 13.7911 53.5973 13.8152 53.693 13.8874C53.7888 13.9596 53.8127 14.0558 53.8127 14.1762V16.0294C53.8127 16.2942 53.6691 16.4386 53.4058 16.4386H50.1981C50.0305 16.4386 49.9348 16.5589 49.9348 16.7756V19.6638C49.9348 19.8322 50.0066 19.9044 50.1502 19.9044H54.6984C54.9378 19.9044 55.0814 19.9526 55.1533 20.0248C55.2251 20.1211 55.249 20.2414 55.249 20.4099V21.8299C55.249 22.0706 55.2251 22.2391 55.1772 22.3113C55.0575 22.4557 54.866 22.5279 54.5548 22.5279H47.6606C47.4213 22.5279 47.2537 22.5038 47.1819 22.4557C47.0383 22.3594 46.9425 22.1428 46.9425 21.8299ZM57.3316 8.30351H59.3424C59.486 8.30351 59.6057 8.35164 59.7494 8.42385C59.893 8.49605 59.9887 8.64046 60.0845 8.80894L61.066 11.1195C61.1378 11.2639 61.1856 11.312 61.2335 11.312C61.3293 11.2398 61.3771 11.1676 61.3771 11.1436L62.598 8.6164C62.6459 8.54419 62.6698 8.47199 62.7177 8.42385C62.8374 8.30351 62.981 8.25537 63.1964 8.25537H65.3509C65.6381 8.25537 65.8057 8.37571 65.8057 8.6164C65.8057 8.71267 65.7818 8.80894 65.7339 8.90522L63.0528 14.5372C63.0289 14.5853 63.0289 14.6575 63.0289 14.7298C63.0528 14.802 63.0768 14.8982 63.1007 14.9945L66.1408 21.8058C66.1887 21.9262 66.2126 22.0225 66.2126 22.1428C66.2126 22.3835 66.069 22.4798 65.8057 22.4798H63.747C63.5555 22.4798 63.4358 22.4557 63.364 22.4075C63.2204 22.3353 63.1007 22.1669 63.0049 21.9262L61.3771 18.5085C61.3053 18.3881 61.2575 18.34 61.2335 18.34C61.1856 18.3641 61.1138 18.4122 61.042 18.5325L59.5339 21.854C59.4621 22.0225 59.3903 22.1428 59.3185 22.215C59.1749 22.3835 58.9833 22.4557 58.7918 22.4557H56.6374C56.3741 22.4557 56.2544 22.3353 56.2544 22.0947C56.2544 22.0225 56.2783 21.9021 56.3262 21.7577L59.4382 14.9945C59.51 14.8501 59.5339 14.7538 59.5339 14.6575C59.5339 14.6094 59.51 14.5372 59.486 14.4891C59.4621 14.4409 59.4382 14.3928 59.4142 14.3447L56.9965 8.78487C56.9486 8.71267 56.9247 8.6164 56.9247 8.54419C56.9007 8.42385 57.0444 8.30351 57.3316 8.30351ZM66.9068 8.30351H75.8597C76.0272 8.30351 76.123 8.35164 76.1948 8.44792C76.2666 8.54419 76.2906 8.66453 76.2906 8.78487V10.59C76.2906 10.8788 76.1469 11.0232 75.8597 11.0232H73.2265C72.9871 11.0232 72.8674 11.1436 72.8674 11.3843V21.8058C72.8674 22.0465 72.8435 22.215 72.7956 22.2872C72.6759 22.4316 72.4844 22.5038 72.1732 22.5038H70.5933C70.2821 22.5038 70.0906 22.4557 70.0188 22.3353C69.947 22.215 69.8991 22.0465 69.8991 21.8058V11.4083C69.8991 11.1676 69.7794 11.0473 69.54 11.0473H67.0026C66.6675 11.0473 66.4999 10.9029 66.4999 10.6381V8.71267C66.476 8.44792 66.6196 8.30351 66.9068 8.30351ZM80.3361 20.1692V21.9743C80.3361 22.215 80.2882 22.3835 80.1925 22.4316C80.0967 22.5038 79.9531 22.5279 79.7855 22.5279H77.9902C77.7508 22.5279 77.5832 22.4798 77.5353 22.3835C77.4635 22.2872 77.4396 22.1428 77.4396 21.9743V20.1692C77.4396 19.9285 77.4875 19.76 77.5832 19.7119C77.679 19.6397 77.8226 19.6156 77.9902 19.6156H79.7855C80.0249 19.6156 80.1925 19.6638 80.2403 19.76C80.3121 19.8563 80.3361 19.9766 80.3361 20.1692ZM82.8735 8.30351H86.6078C88.3314 8.30351 89.6001 8.73674 90.4619 9.62727C91.1561 10.3252 91.4912 11.2158 91.4912 12.2989C91.4912 13.2857 91.2518 14.0799 90.797 14.7298C90.4379 15.2593 89.9831 15.6203 89.4325 15.8128C89.3129 15.8369 89.241 15.9091 89.241 16.0054C89.241 16.0776 89.265 16.1979 89.3368 16.3423L91.8742 21.8299C91.9221 21.9502 91.946 22.0225 91.946 22.1187C91.946 22.4075 91.7785 22.576 91.4673 22.576H89.3607C89.0735 22.576 88.858 22.5038 88.7383 22.3835C88.6905 22.3353 88.6426 22.2631 88.5947 22.1428L86.177 16.8478C86.0812 16.6552 85.9376 16.5589 85.7461 16.5589H85.3631C85.2194 16.5589 85.1476 16.6312 85.1476 16.7996V21.854C85.1476 22.1669 85.0998 22.3594 84.9801 22.4557C84.8604 22.5279 84.6928 22.576 84.4534 22.576H82.8735C82.6341 22.576 82.4666 22.552 82.3948 22.5038C82.2511 22.3835 82.1793 22.1909 82.1793 21.878V9.07369C82.1793 8.83301 82.2033 8.66453 82.2511 8.59233C82.3469 8.37571 82.5623 8.30351 82.8735 8.30351ZM85.1716 11.2639V13.7429C85.1716 13.9355 85.2673 14.0558 85.4588 14.0558H86.4163C86.9909 14.0558 87.4457 13.9114 87.7808 13.6226C88.116 13.3338 88.2835 12.9487 88.2835 12.4914C88.2835 12.0582 88.1638 11.6971 87.9005 11.4324C87.5654 11.0954 87.0866 10.927 86.4163 10.927H85.5306C85.2673 10.9029 85.1716 11.0232 85.1716 11.2639ZM93.1908 18.0271V9.02556C93.1908 8.78487 93.2148 8.6164 93.2626 8.54419C93.3823 8.39978 93.5738 8.32758 93.885 8.32758H95.4649C95.7761 8.32758 95.9676 8.37571 96.0634 8.49605C96.1352 8.6164 96.1831 8.78487 96.1831 9.02556V18.003C96.1831 18.5085 96.2309 18.8936 96.3506 19.1583C96.5661 19.6638 96.973 19.9285 97.5954 19.9285C98.0981 19.9285 98.4572 19.7841 98.6726 19.4712C98.8881 19.1824 99.0078 18.677 99.0078 17.979V9.00149C99.0078 8.76081 99.0317 8.59233 99.0796 8.52012C99.1993 8.37571 99.3908 8.30351 99.702 8.30351H101.282C101.593 8.30351 101.785 8.35164 101.88 8.47199C101.952 8.59233 102 8.76081 102 9.00149V18.003C102 19.2065 101.761 20.1933 101.306 20.9394C100.588 22.0947 99.3429 22.6964 97.5954 22.6964C95.824 22.6964 94.5792 22.1187 93.885 20.9634C93.4302 20.2414 93.1908 19.2546 93.1908 18.0271Z" fill="black"/>
<path d="M76.3624 26.764H77.6071V29.9891H78.0859V26.764H79.3307V26.3307H76.3624V26.764ZM80.0967 29.9891H82.3948V29.5559H80.5755V28.184H82.2511V27.7748H80.5755V26.764H82.3948V26.3307H80.0967V29.9891ZM84.8843 27.7989C84.9801 27.7026 85.0519 27.5342 85.0997 27.3175C85.1716 27.1009 85.2434 26.9565 85.3152 26.8843C85.387 26.8121 85.5306 26.764 85.7461 26.764H85.8658V26.3307H85.7221C85.4588 26.3307 85.2434 26.3789 85.0758 26.4992C84.9322 26.5955 84.7886 26.788 84.6928 27.0769C84.6689 27.125 84.6689 27.1731 84.6449 27.2453C84.621 27.3175 84.597 27.3898 84.5731 27.462C84.5013 27.6304 84.4055 27.7508 84.2859 27.847C84.1662 27.9433 84.0225 27.9915 83.831 27.9915V26.3307H83.3523V29.9891H83.831V28.3044H84.1422L85.4349 29.9891H86.0573L84.5731 28.0637C84.6928 27.9915 84.7886 27.8952 84.8843 27.7989ZM88.882 26.3548C88.7862 26.3307 88.6905 26.3067 88.5708 26.2826C88.4511 26.2585 88.3553 26.2585 88.2356 26.2585C87.9963 26.2585 87.7569 26.3067 87.5654 26.3789C87.3739 26.4752 87.1824 26.5955 87.0387 26.764C86.8951 26.9325 86.7754 27.125 86.7036 27.3657C86.6318 27.5823 86.5839 27.8711 86.5839 28.1599C86.5839 28.4728 86.6318 28.7376 86.7036 28.9783C86.7754 29.2189 86.8951 29.4115 87.0387 29.58C87.1824 29.7484 87.3499 29.8688 87.5654 29.941C87.7569 30.0132 87.9963 30.0613 88.2356 30.0613C88.3793 30.0613 88.499 30.0613 88.5947 30.0373C88.6905 30.0132 88.7862 29.9891 88.882 29.9651C88.9777 29.941 89.0735 29.8929 89.1453 29.8688C89.2171 29.8447 89.2889 29.7966 89.3847 29.7485V29.1708H89.3368C89.2889 29.2189 89.241 29.243 89.1932 29.3152C89.1213 29.3634 89.0495 29.4115 88.9538 29.4837C88.858 29.5318 88.7623 29.58 88.6426 29.604C88.5229 29.6281 88.4032 29.6522 88.2596 29.6522C88.1159 29.6522 87.9484 29.6281 87.8287 29.5559C87.6851 29.4837 87.5654 29.4115 87.4696 29.2911C87.3739 29.1708 87.2781 29.0023 87.2302 28.8339C87.1584 28.6413 87.1345 28.4247 87.1345 28.184C87.1345 27.9433 87.1584 27.7267 87.2302 27.5342C87.2781 27.3416 87.3739 27.1972 87.4696 27.0528C87.5654 26.9325 87.709 26.8362 87.8287 26.764C87.9723 26.6918 88.1159 26.6677 88.2835 26.6677C88.4271 26.6677 88.5468 26.6918 88.6665 26.7158C88.7862 26.7399 88.882 26.788 88.9777 26.8362C89.0735 26.8843 89.1453 26.9565 89.2171 27.0047C89.2889 27.0528 89.3368 27.1009 89.3847 27.1491H89.4325V26.5714C89.3607 26.5233 89.265 26.4752 89.1932 26.4511C89.0495 26.427 88.9777 26.3789 88.882 26.3548ZM89.8634 26.764H91.1082V29.9891H91.587V26.764H92.8317V26.3307H89.8634V26.764ZM93.6935 29.9891H94.292V29.2911H93.6935V29.9891ZM97.4278 26.5714C97.3081 26.4992 97.1645 26.427 97.0209 26.4029C96.8773 26.3548 96.6858 26.3548 96.4703 26.3548H95.5367V30.0132H96.0155V28.6413H96.4224C96.6858 28.6413 96.9012 28.6172 97.0688 28.545C97.2363 28.4728 97.38 28.3766 97.5236 28.2562C97.6193 28.1599 97.6912 28.0396 97.763 27.8952C97.8108 27.7508 97.8587 27.6064 97.8587 27.4379C97.8587 27.2453 97.8108 27.0528 97.739 26.9084C97.6672 26.764 97.5475 26.6436 97.4278 26.5714ZM97.3081 27.7508C97.2842 27.8471 97.2124 27.9193 97.1406 27.9915C97.0688 28.0637 96.9491 28.1359 96.8294 28.1599C96.7097 28.184 96.5421 28.2081 96.3506 28.2081H96.0155V26.7399H96.4224C96.5661 26.7399 96.7097 26.7399 96.8054 26.764C96.9012 26.788 96.997 26.8121 97.0688 26.8843C97.1645 26.9325 97.2124 27.0287 97.2603 27.125C97.3081 27.2213 97.3321 27.3176 97.3321 27.462C97.356 27.5582 97.3321 27.6786 97.3081 27.7508ZM101.88 27.5582C101.808 27.3898 101.737 27.2453 101.617 27.125C101.497 27.0047 101.33 26.8843 101.138 26.8121C100.947 26.7399 100.731 26.6918 100.492 26.6918V26.2826H100.013V26.6918C99.7738 26.6918 99.5583 26.7399 99.3668 26.8121C99.1753 26.8843 99.0077 26.9806 98.8881 27.125C98.7684 27.2453 98.6726 27.3898 98.6008 27.5582C98.529 27.7267 98.505 27.9193 98.505 28.1359C98.505 28.3525 98.529 28.5691 98.6008 28.7376C98.6726 28.9061 98.7684 29.0745 98.8881 29.1949C99.0317 29.3393 99.1993 29.4356 99.3908 29.5078C99.5823 29.58 99.7738 29.604 99.9892 29.6281V30.0854H100.468V29.6281C100.683 29.6281 100.875 29.58 101.066 29.5078C101.258 29.4356 101.425 29.3393 101.569 29.1949C101.689 29.0745 101.785 28.9301 101.856 28.7616C101.928 28.5932 101.952 28.3766 101.952 28.1599C101.976 27.9193 101.952 27.7267 101.88 27.5582ZM100.013 29.2189C99.8695 29.2189 99.7259 29.1949 99.6062 29.1467C99.4865 29.0986 99.3908 29.0505 99.3189 28.9783C99.2232 28.882 99.1514 28.7616 99.1035 28.6172C99.0556 28.4728 99.0317 28.3043 99.0317 28.1118C99.0317 27.9433 99.0556 27.7989 99.1035 27.6786C99.1514 27.5342 99.2232 27.4379 99.3189 27.3416C99.4147 27.2453 99.5104 27.1972 99.6062 27.1491C99.7259 27.1009 99.8456 27.0769 100.013 27.0769V29.2189ZM101.402 28.6172C101.354 28.7616 101.282 28.882 101.186 28.9783C101.114 29.0505 101.019 29.1227 100.899 29.1708C100.779 29.2189 100.659 29.243 100.492 29.243V27.0769C100.659 27.0769 100.779 27.1009 100.899 27.1491C101.019 27.1972 101.114 27.2694 101.186 27.3416C101.282 27.4379 101.354 27.5582 101.402 27.6786C101.449 27.823 101.473 27.9674 101.473 28.1118C101.473 28.3043 101.449 28.4728 101.402 28.6172Z" fill="#F49D17"/>
<path d="M74.9022 26.3308V26.764H39.6414V26.3308H74.9022Z" fill="#F49D17"/>
</g>
<defs>
<clipPath id="clip0">
<rect width="102" height="31" fill="white"/>
</clipPath>
</defs>
</svg>
