<svg width="105" height="35" viewBox="0 0 105 35" fill="none" xmlns="http://www.w3.org/2000/svg">
<path d="M91.405 0L85.85 4.9V0H79.487V4.9L74.033 0H65.145L73.831 6.7L64.438 14H73.326L79.487 8.5V14H85.85V8.5L92.011 14H100.899L91.506 6.7L100.293 0H91.405ZM0 0V5.5H7.474V14H13.938V5.5H21.412V0H0ZM25.452 9H64.438V4H25.452V9Z" fill="black"/>
<path d="M7.98438 28.1094H7.07031V32H5.94531V28.1094H4.97852L2.56445 32H1.1582L4.0293 27.5L1.38086 23.4688H2.71094L4.97852 27.1719H5.94531V23.4688H7.07031V27.1719H7.99609L10.2637 23.4688H11.5879L8.93945 27.4941L11.8105 32H10.4102L7.98438 28.1094ZM14.6055 30.4121L16.082 25.6602H17.2422L14.6934 32.9785C14.2988 34.0332 13.6719 34.5605 12.8125 34.5605L12.6074 34.543L12.2031 34.4668V33.5879L12.4961 33.6113C12.8633 33.6113 13.1484 33.5371 13.3516 33.3887C13.5586 33.2402 13.7285 32.9688 13.8613 32.5742L14.1016 31.9297L11.8398 25.6602H13.0234L14.6055 30.4121ZM23.5703 28.9004C23.5703 29.8652 23.3496 30.6426 22.9082 31.2324C22.4668 31.8223 21.8691 32.1172 21.1152 32.1172C20.3457 32.1172 19.7402 31.873 19.2988 31.3848V34.4375H18.2148V25.6602H19.2051L19.2578 26.3633C19.6992 25.8164 20.3125 25.543 21.0977 25.543C21.8594 25.543 22.4609 25.8301 22.9023 26.4043C23.3477 26.9785 23.5703 27.7773 23.5703 28.8008V28.9004ZM22.4863 28.7773C22.4863 28.0625 22.334 27.498 22.0293 27.084C21.7246 26.6699 21.3066 26.4629 20.7754 26.4629C20.1191 26.4629 19.627 26.7539 19.2988 27.3359V30.3652C19.623 30.9434 20.1191 31.2324 20.7871 31.2324C21.3066 31.2324 21.7188 31.0273 22.0234 30.6172C22.332 30.2031 22.4863 29.5898 22.4863 28.7773ZM30.1328 32H29.0488V29.293H26.1367V32H25.0469V25.6602H26.1367V28.4082H29.0488V25.6602H30.1328V32ZM35.793 32C35.7305 31.875 35.6797 31.6523 35.6406 31.332C35.1367 31.8555 34.5352 32.1172 33.8359 32.1172C33.2109 32.1172 32.6973 31.9414 32.2949 31.5898C31.8965 31.2344 31.6973 30.7852 31.6973 30.2422C31.6973 29.582 31.9473 29.0703 32.4473 28.707C32.9512 28.3398 33.6582 28.1562 34.5684 28.1562H35.623V27.6582C35.623 27.2793 35.5098 26.9785 35.2832 26.7559C35.0566 26.5293 34.7227 26.416 34.2812 26.416C33.8945 26.416 33.5703 26.5137 33.3086 26.709C33.0469 26.9043 32.916 27.1406 32.916 27.418H31.8262C31.8262 27.1016 31.9375 26.7969 32.1602 26.5039C32.3867 26.207 32.6914 25.9727 33.0742 25.8008C33.4609 25.6289 33.8848 25.543 34.3457 25.543C35.0762 25.543 35.6484 25.7266 36.0625 26.0938C36.4766 26.457 36.6914 26.959 36.707 27.5996V30.5176C36.707 31.0996 36.7812 31.5625 36.9297 31.9062V32H35.793ZM33.9941 31.1738C34.334 31.1738 34.6562 31.0859 34.9609 30.9102C35.2656 30.7344 35.4863 30.5059 35.623 30.2246V28.9238H34.7734C33.4453 28.9238 32.7812 29.3125 32.7812 30.0898C32.7812 30.4297 32.8945 30.6953 33.1211 30.8867C33.3477 31.0781 33.6387 31.1738 33.9941 31.1738ZM43.6035 25.6602V32H42.5137V26.5566H40.3574L40.2285 28.9297C40.1582 30.0195 39.9746 30.7988 39.6777 31.2676C39.3848 31.7363 38.918 31.9805 38.2773 32H37.8438V31.0449L38.1543 31.0215C38.5059 30.9824 38.7578 30.7793 38.9102 30.4121C39.0625 30.0449 39.1602 29.3652 39.2031 28.373L39.3203 25.6602H43.6035ZM53.0312 26.5391H50.9043V32H49.8203V26.5391H47.7344V25.6602H53.0312V26.5391ZM58.1875 25.6602H59.2715V32H58.1875V27.377L55.2637 32H54.1797V25.6602H55.2637V30.2891L58.1875 25.6602ZM66.1914 32H65.1074V29.293H62.1953V32H61.1055V25.6602H62.1953V28.4082H65.1074V25.6602H66.1914V32ZM69.1211 27.8457H70.7676C71.4863 27.8535 72.0547 28.041 72.4727 28.4082C72.8906 28.7754 73.0996 29.2734 73.0996 29.9023C73.0996 30.5352 72.8848 31.043 72.4551 31.4258C72.0254 31.8086 71.4473 32 70.7207 32H68.0371V25.6602H69.1211V27.8457ZM69.1211 28.7305V31.1152H70.7324C71.1387 31.1152 71.4531 31.0117 71.6758 30.8047C71.8984 30.5938 72.0098 30.3066 72.0098 29.9434C72.0098 29.5918 71.9004 29.3047 71.6816 29.082C71.4668 28.8555 71.1641 28.7383 70.7734 28.7305H69.1211ZM76.4277 29.2988H75.6367V32H74.5469V25.6602H75.6367V28.3438H76.3457L78.4785 25.6602H79.791L77.2832 28.707L80.002 32H78.625L76.4277 29.2988ZM80.5176 28.7715C80.5176 28.1504 80.6387 27.5918 80.8809 27.0957C81.127 26.5996 81.4668 26.2168 81.9004 25.9473C82.3379 25.6777 82.8359 25.543 83.3945 25.543C84.2578 25.543 84.9551 25.8418 85.4863 26.4395C86.0215 27.0371 86.2891 27.832 86.2891 28.8242V28.9004C86.2891 29.5176 86.1699 30.0723 85.9316 30.5645C85.6973 31.0527 85.3594 31.4336 84.918 31.707C84.4805 31.9805 83.9766 32.1172 83.4062 32.1172C82.5469 32.1172 81.8496 31.8184 81.3145 31.2207C80.7832 30.623 80.5176 29.832 80.5176 28.8477V28.7715ZM81.6074 28.9004C81.6074 29.6035 81.7695 30.168 82.0938 30.5938C82.4219 31.0195 82.8594 31.2324 83.4062 31.2324C83.957 31.2324 84.3945 31.0176 84.7188 30.5879C85.043 30.1543 85.2051 29.5488 85.2051 28.7715C85.2051 28.0762 85.0391 27.5137 84.707 27.084C84.3789 26.6504 83.9414 26.4336 83.3945 26.4336C82.8594 26.4336 82.4277 26.6465 82.0996 27.0723C81.7715 27.498 81.6074 28.1074 81.6074 28.9004ZM87.4141 28.9473C87.4141 27.8887 87.6191 27.0566 88.0293 26.4512C88.4395 25.8457 89.002 25.543 89.7168 25.543C90.0488 25.543 90.3398 25.5996 90.5898 25.7129V23H91.6738V25.748C91.9473 25.6113 92.2676 25.543 92.6348 25.543C93.3535 25.543 93.918 25.8457 94.3281 26.4512C94.7383 27.0566 94.9434 27.9297 94.9434 29.0703C94.9434 30.0039 94.7383 30.7461 94.3281 31.2969C93.9219 31.8477 93.3613 32.123 92.6465 32.123C92.2676 32.123 91.9434 32.0605 91.6738 31.9355V34.4375H90.5898V31.9531C90.332 32.0664 90.0371 32.123 89.7051 32.123C88.9941 32.123 88.4336 31.8477 88.0234 31.2969C87.6172 30.7461 87.4141 29.9922 87.4141 29.0352V28.9473ZM93.8594 28.9473C93.8594 28.1504 93.7227 27.5332 93.4492 27.0957C93.1758 26.6543 92.7988 26.4336 92.3184 26.4336C92.0723 26.4336 91.8574 26.4727 91.6738 26.5508V31.1387C91.8496 31.2051 92.0684 31.2383 92.3301 31.2383C92.8145 31.2383 93.1895 31.0508 93.4551 30.6758C93.7246 30.3008 93.8594 29.7246 93.8594 28.9473ZM88.498 29.0703C88.498 29.7812 88.625 30.3203 88.8789 30.6875C89.1328 31.0547 89.498 31.2383 89.9746 31.2383C90.2012 31.2383 90.4062 31.2031 90.5898 31.1328V26.5332C90.4258 26.4668 90.2246 26.4336 89.9863 26.4336C89.5098 26.4336 89.1426 26.6465 88.8848 27.0723C88.627 27.498 88.498 28.1641 88.498 29.0703ZM96.1211 28.9473C96.1211 27.8887 96.3262 27.0566 96.7363 26.4512C97.1465 25.8457 97.709 25.543 98.4238 25.543C98.7559 25.543 99.0469 25.5996 99.2969 25.7129V23H100.381V25.748C100.654 25.6113 100.975 25.543 101.342 25.543C102.061 25.543 102.625 25.8457 103.035 26.4512C103.445 27.0566 103.65 27.9297 103.65 29.0703C103.65 30.0039 103.445 30.7461 103.035 31.2969C102.629 31.8477 102.068 32.123 101.354 32.123C100.975 32.123 100.65 32.0605 100.381 31.9355V34.4375H99.2969V31.9531C99.0391 32.0664 98.7441 32.123 98.4121 32.123C97.7012 32.123 97.1406 31.8477 96.7305 31.2969C96.3242 30.7461 96.1211 29.9922 96.1211 29.0352V28.9473ZM102.566 28.9473C102.566 28.1504 102.43 27.5332 102.156 27.0957C101.883 26.6543 101.506 26.4336 101.025 26.4336C100.779 26.4336 100.564 26.4727 100.381 26.5508V31.1387C100.557 31.2051 100.775 31.2383 101.037 31.2383C101.521 31.2383 101.896 31.0508 102.162 30.6758C102.432 30.3008 102.566 29.7246 102.566 28.9473ZM97.2051 29.0703C97.2051 29.7812 97.332 30.3203 97.5859 30.6875C97.8398 31.0547 98.2051 31.2383 98.6816 31.2383C98.9082 31.2383 99.1133 31.2031 99.2969 31.1328V26.5332C99.1328 26.4668 98.9316 26.4336 98.6934 26.4336C98.2168 26.4336 97.8496 26.6465 97.5918 27.0723C97.334 27.498 97.2051 28.1641 97.2051 29.0703Z" fill="#8F8F8F"/>
</svg>
