<svg width="36" height="34" viewBox="0 0 36 34" fill="none" xmlns="http://www.w3.org/2000/svg">
<g clip-path="url(#clip0)">
<path d="M28.813 15.5008C31.463 15.5008 33.458 14.3968 34.929 12.4748L32.963 10.9748C32.4774 11.6148 31.8498 12.1333 31.1296 12.4894C30.4094 12.8455 29.6164 13.0295 28.813 13.0268C25.937 13.0268 23.853 10.6838 23.853 7.80881C23.853 4.93381 25.903 2.45883 28.895 2.45883C30.225 2.45883 31.165 2.77282 31.985 3.28082V5.80881H34.459V2.12283L33.985 1.74982C32.625 0.679817 30.548 0.111816 28.812 0.111816C24.568 0.111816 21.116 3.56383 21.116 7.80783C21.116 12.0478 24.566 15.5008 28.812 15.5008H28.813ZM33.946 30.6808L33.858 27.1378V18.4918H28.698V20.9668H31.252V26.8328C31.252 29.3598 29.322 31.1488 27.375 31.1488C25.428 31.1488 24.412 29.7988 24.412 27.2728V18.4908H19.592V20.9658H21.806V27.7018C21.806 31.1298 23.728 33.4918 27.156 33.4918C29.126 33.4918 30.626 32.3988 31.521 30.7138H31.561L31.914 33.0698H35.879V30.6838H33.949V30.6788L33.946 30.6808ZM20.546 0.474823H16.246L12.506 11.3348H12.448L8.72801 0.474823H4.14601V2.95081H6.72301L11.158 15.3288H13.514V15.3258L18.139 2.95181H20.544V0.47583L20.546 0.474823ZM0.122009 33.1018H2.67001V30.5548H0.123009V33.1018H0.122009ZM9.96201 21.3618H9.93401L9.77401 18.4918H5.22601V20.7478H7.64601V30.6818H5.22601V33.0688H16.466V30.7288H10.208V24.7338C10.491 22.5638 12.118 20.7108 14.338 20.7108H14.378L14.333 22.9288H16.807V18.4508H14.851C12.611 18.4448 10.949 19.6568 9.96101 21.3628L9.96201 21.3618Z" fill="black"/>
</g>
<defs>
<clipPath id="clip0">
<rect width="36" height="33.608" fill="white"/>
</clipPath>
</defs>
</svg>
