<svg width="26" height="15" viewBox="0 0 26 15" fill="none" xmlns="http://www.w3.org/2000/svg">
<g clip-path="url(#clip0)">
<path fill-rule="evenodd" clip-rule="evenodd" d="M24.133 1.0157C24.3031 0.430218 24.133 0 23.3236 0H20.6472C19.9666 0 19.6529 0.371645 19.4827 0.781459C19.4827 0.781459 18.1216 4.2065 16.1935 6.43129C15.5697 7.0753 15.2861 7.2802 14.9458 7.2802C14.7757 7.2802 14.5205 7.0753 14.5205 6.48986V1.0157C14.5205 0.313121 14.332 0 13.7648 0H9.55891C9.13364 0 8.87787 0.326083 8.87787 0.635125C8.87787 1.30116 9.8419 1.45475 9.94127 3.3283V7.39735C9.94127 8.28947 9.78521 8.45122 9.44494 8.45122C8.5376 8.45122 6.3305 5.01088 5.02149 1.07423C4.76495 0.309077 4.50765 0 3.82362 0H1.14715C0.382443 0 0.229492 0.371645 0.229492 0.781459C0.229492 1.51333 1.13688 5.14327 4.45442 9.94414C6.6661 13.2228 9.78221 15 12.6177 15C14.319 15 14.5295 14.6053 14.5295 13.9253V11.4474C14.5295 10.6579 14.6907 10.5003 15.2294 10.5003C15.6264 10.5003 16.3069 10.7052 17.8948 12.286C19.7096 14.1595 20.0087 15 21.0295 15H23.706C24.4707 15 24.853 14.6053 24.6325 13.8263C24.3911 13.0499 23.5247 11.9234 22.375 10.5881C21.7511 9.82704 20.8154 9.00742 20.5318 8.5975C20.1349 8.07064 20.2483 7.8364 20.5318 7.36806C20.5318 7.36806 23.7927 2.62572 24.133 1.0157Z" fill="white"/>
</g>
<defs>
<clipPath id="clip0">
<rect width="26" height="15" fill="white"/>
</clipPath>
</defs>
</svg>
