<svg width="56" height="56" viewBox="0 0 56 56" fill="none" xmlns="http://www.w3.org/2000/svg">
<path d="M35.875 14C28.1558 14 21.875 20.2808 21.875 28C21.875 35.7192 28.1558 42 35.875 42C43.5942 42 49.875 35.7192 49.875 28C49.875 20.2808 43.5942 14 35.875 14ZM35.875 39.8877L33.4766 37.4894L35.0061 34.9405C35.2914 34.9755 35.5801 35 35.875 35V39.8877ZM35.875 33.25C32.9796 33.25 30.625 30.8954 30.625 28C30.625 25.1046 32.9796 22.75 35.875 22.75C38.7704 22.75 41.125 25.1046 41.125 28C41.125 30.8954 38.7704 33.25 35.875 33.25ZM30.9278 23.0528L27.4689 19.5947H30.8604L31.5823 22.4831C31.3539 22.6607 31.1325 22.848 30.9278 23.0528ZM28.875 28H23.9872L26.3856 25.6016L28.9345 27.1311C28.8995 27.4164 28.875 27.7051 28.875 28ZM30.9278 32.9473L27.4697 36.4052V33.0138L30.3581 32.2919C30.5357 32.5211 30.723 32.7425 30.9278 32.9473ZM35.875 16.1122L38.2734 18.5106L36.7439 21.0595C36.4586 21.0245 36.1699 21 35.875 21V16.1122ZM40.8223 32.9473L44.2802 36.4052H40.8888L40.1669 33.5169C40.3961 33.3393 40.6175 33.152 40.8223 32.9473ZM42.875 28H47.7627L45.3644 30.3984L42.8155 28.8689C42.8505 28.5836 42.875 28.2949 42.875 28ZM40.8223 23.0528L44.2802 19.5939V22.9854L41.3919 23.7072C41.2143 23.4789 41.027 23.2575 40.8223 23.0528ZM39.424 21.9765C39.1318 21.8032 38.8273 21.6484 38.5096 21.5189L40.4775 18.2394L38.2183 15.981C40.0601 16.3398 41.7489 17.1176 43.1979 18.2035L39.424 21.9765ZM34.125 21.2301C33.7925 21.3159 33.4652 21.4182 33.1537 21.5504L32.2271 17.8439H29.0316C30.527 16.8332 32.2612 16.1578 34.125 15.8891V21.2301ZM29.8515 24.451C29.6783 24.7432 29.5234 25.0478 29.3939 25.3654L26.1144 23.3975L23.856 25.6568C24.2148 23.8149 24.9926 22.1261 26.0785 20.6771L29.8515 24.451ZM29.1051 29.75C29.1909 30.0825 29.2933 30.4097 29.4254 30.7213L25.7189 31.6479V34.8434C24.7082 33.348 24.0336 31.6138 23.765 29.75H29.1051ZM32.326 34.0235C32.6182 34.1967 32.9227 34.3516 33.2404 34.4811L31.2725 37.7606L33.5317 40.019C31.6899 39.6602 30.0003 38.8824 28.5521 37.7965L32.326 34.0235ZM37.625 34.7699C37.9575 34.6841 38.2847 34.5817 38.5963 34.4496L39.5229 38.1561H42.7184C41.223 39.1667 39.4888 39.8414 37.625 40.11V34.7699ZM41.8985 31.549C42.0717 31.2568 42.2266 30.9523 42.3561 30.6346L45.6356 32.6025L47.894 30.3433C47.5352 32.1851 46.7574 33.8748 45.6715 35.3229L41.8985 31.549ZM42.6449 26.25C42.5591 25.9175 42.4567 25.5902 42.3246 25.2787L46.0311 24.3521V21.1566C47.0417 22.652 47.7172 24.3862 47.9859 26.25H42.6449Z" fill="#3C2458"/>
<path d="M35.875 24.5C33.9447 24.5 32.375 26.0697 32.375 28C32.375 29.9303 33.9447 31.5 35.875 31.5C37.8053 31.5 39.375 29.9303 39.375 28C39.375 26.0697 37.8053 24.5 35.875 24.5ZM35.875 29.75C34.9099 29.75 34.125 28.9651 34.125 28C34.125 27.0349 34.9099 26.25 35.875 26.25C36.8401 26.25 37.625 27.0349 37.625 28C37.625 28.9651 36.8401 29.75 35.875 29.75Z" fill="#3C2458"/>
<path d="M18.375 42C16.9277 42 15.75 43.1777 15.75 44.625C15.75 46.0722 16.9277 47.25 18.375 47.25C19.8222 47.25 21 46.0722 21 44.625C21 43.1777 19.8222 42 18.375 42ZM18.375 45.5C17.8929 45.5 17.5 45.1071 17.5 44.625C17.5 44.1429 17.8929 43.75 18.375 43.75C18.8571 43.75 19.25 44.1429 19.25 44.625C19.25 45.1071 18.8571 45.5 18.375 45.5Z" fill="#3C2458"/>
<path d="M55.125 9.625C55.125 6.2475 52.3775 3.5 49 3.5H33.25C29.8725 3.5 27.125 6.2475 27.125 9.625V10.8622C26.922 10.9664 26.7208 11.0722 26.5221 11.1834C25.886 10.2323 24.808 9.625 23.625 9.625C21.6947 9.625 20.125 11.1947 20.125 13.125C20.125 14.0752 20.5117 14.9546 21.168 15.5995C20.454 16.4456 19.8126 17.3539 19.25 18.3146V16.625C19.25 15.1777 18.0723 14 16.625 14H14.875C13.4277 14 12.25 15.1777 12.25 16.625V19.25H10.5V13.125C10.5 11.6777 9.32225 10.5 7.875 10.5H6.125C4.67775 10.5 3.5 11.6777 3.5 13.125V19.25C2.05275 19.25 0.875 20.4277 0.875 21.875V34.125C0.875 35.5723 2.05275 36.75 3.5 36.75V44.625C3.5 46.0723 4.67775 47.25 6.125 47.25H7.875C9.32225 47.25 10.5 46.0723 10.5 44.625V36.75H12.25V44.625C12.25 48.0025 14.9975 50.75 18.375 50.75H29.911C30.2732 51.7659 31.2358 52.5 32.375 52.5H34.125C35.5723 52.5 36.75 51.3223 36.75 49.875V47.2281C46.9595 46.7687 55.125 38.3215 55.125 28C55.125 27.7069 55.1162 27.4155 55.1031 27.125H55.125V9.625ZM23.625 11.375C24.1929 11.375 24.71 11.6585 25.0311 12.1047C24.0756 12.7584 23.1822 13.496 22.3615 14.3063C22.0596 13.9895 21.875 13.5765 21.875 13.125C21.875 12.1599 22.6599 11.375 23.625 11.375ZM16.7081 26.25H14.875V28H16.625C16.625 29.1952 16.7405 30.3643 16.9496 31.5H6.125V24.5H16.9496C16.8438 25.0749 16.7615 25.6585 16.7081 26.25ZM14 16.625C14 16.1429 14.3929 15.75 14.875 15.75H16.625C17.1071 15.75 17.5 16.1429 17.5 16.625V19.25H14V16.625ZM5.25 13.125C5.25 12.6429 5.64288 12.25 6.125 12.25H7.875C8.35712 12.25 8.75 12.6429 8.75 13.125V19.25H5.25V13.125ZM2.625 34.125V21.875C2.625 21.3929 3.01787 21 3.5 21H17.948C17.724 21.5705 17.5271 22.1541 17.3582 22.75H6.125C5.15987 22.75 4.375 23.5349 4.375 24.5V31.5C4.375 32.4651 5.15987 33.25 6.125 33.25H17.3591C17.528 33.8459 17.7249 34.4295 17.9489 35H3.5C3.01787 35 2.625 34.6071 2.625 34.125ZM8.75 44.625C8.75 45.1071 8.35712 45.5 7.875 45.5H6.125C5.64288 45.5 5.25 45.1071 5.25 44.625V36.75H8.75V44.625ZM14 44.625V36.75H18.7372C21.014 41.1906 24.9629 44.6338 29.75 46.2455V49H18.375C15.9626 49 14 47.0374 14 44.625ZM34.125 50.75H32.375C31.8929 50.75 31.5 50.3571 31.5 49.875V46.7425C32.6322 47.0067 33.8013 47.1739 35 47.2281V49.875C35 50.3571 34.6071 50.75 34.125 50.75ZM35.875 45.5C26.2255 45.5 18.375 37.6495 18.375 28C18.375 18.3505 26.2255 10.5 35.875 10.5C45.5245 10.5 53.375 18.3505 53.375 28C53.375 37.6495 45.5245 45.5 35.875 45.5ZM35.875 8.75C33.4058 8.75 31.0459 9.2225 28.875 10.073V9.625C28.875 7.21263 30.8376 5.25 33.25 5.25H49C51.4124 5.25 53.375 7.21263 53.375 9.625V19.9955C50.3309 13.3665 43.6336 8.75 35.875 8.75Z" fill="#3C2458"/>
<path d="M49.875 7C48.4277 7 47.25 8.17775 47.25 9.625C47.25 11.0722 48.4277 12.25 49.875 12.25C51.3222 12.25 52.5 11.0722 52.5 9.625C52.5 8.17775 51.3222 7 49.875 7ZM49.875 10.5C49.3929 10.5 49 10.1071 49 9.625C49 9.14287 49.3929 8.75 49.875 8.75C50.3571 8.75 50.75 9.14287 50.75 9.625C50.75 10.1071 50.3571 10.5 49.875 10.5Z" fill="#3C2458"/>
<path d="M7.875 26.25H9.625V28H7.875V26.25Z" fill="#3C2458"/>
<path d="M11.375 26.25H13.125V28H11.375V26.25Z" fill="#3C2458"/>
</svg>
