<svg width="35" height="35" viewBox="0 0 35 35" fill="none" xmlns="http://www.w3.org/2000/svg">
<g clip-path="url(#clip0)">
<path d="M7.33952 4.64966H5.13295C4.84981 4.64966 4.62025 4.87921 4.62025 5.16235C4.62025 5.4455 4.84981 5.67505 5.13295 5.67505H7.33952C7.62267 5.67505 7.85222 5.4455 7.85222 5.16235C7.85222 4.87921 7.62267 4.64966 7.33952 4.64966Z" fill="#383838"/>
<path d="M12.0849 4.64966H9.87836C9.59521 4.64966 9.36566 4.87921 9.36566 5.16235C9.36566 5.4455 9.59521 5.67505 9.87836 5.67505H12.0849C12.3681 5.67505 12.5976 5.4455 12.5976 5.16235C12.5976 4.87921 12.3681 4.64966 12.0849 4.64966Z" fill="#383838"/>
<path d="M16.8805 4.64966H14.674C14.3908 4.64966 14.1613 4.87921 14.1613 5.16235C14.1613 5.4455 14.3908 5.67505 14.674 5.67505H16.8805C17.1637 5.67505 17.3932 5.4455 17.3932 5.16235C17.3932 4.87921 17.1637 4.64966 16.8805 4.64966Z" fill="#383838"/>
<path d="M34.4873 9.42901H32.71V4.64263C32.71 3.34544 31.6546 2.29004 30.3574 2.29004H4.64263C3.34537 2.29004 2.29004 3.34537 2.29004 4.64263V9.42908H0.512695C0.229551 9.42908 0 9.65863 0 9.94178V19.2133C0 19.4964 0.229551 19.726 0.512695 19.726H2.29004V30.3574C2.29004 31.6546 3.34537 32.71 4.64263 32.71H25.2294C25.5125 32.71 25.7421 32.4805 25.7421 32.1973C25.7421 31.9142 25.5125 31.6846 25.2294 31.6846H4.64263C3.91084 31.6846 3.31543 31.0893 3.31543 30.3574V19.726H31.6846V30.3574C31.6846 31.0892 31.0892 31.6846 30.3574 31.6846H27.6394C27.3563 31.6846 27.1267 31.9142 27.1267 32.1973C27.1267 32.4805 27.3563 32.71 27.6394 32.71H30.3574C31.6546 32.71 32.71 31.6547 32.71 30.3574V19.726H34.4873C34.7705 19.726 35 19.4964 35 19.2133V9.94171C35 9.65856 34.7705 9.42901 34.4873 9.42901ZM33.9746 18.7006H1.02539V10.4544H5.13297C5.41611 10.4544 5.64566 10.2249 5.64566 9.94171C5.64566 9.65856 5.41611 9.42901 5.13297 9.42901H3.31543V8.06053H26.7332C27.0164 8.06053 27.2459 7.83098 27.2459 7.54783C27.2459 7.26469 27.0164 7.03514 26.7332 7.03514H3.31543V4.64256C3.31543 3.91077 3.91077 3.31536 4.64263 3.31536H30.3574C31.0892 3.31536 31.6846 3.9107 31.6846 4.64256V7.03514H29.1188C28.8357 7.03514 28.6061 7.26469 28.6061 7.54783C28.6061 7.83098 28.8357 8.06053 29.1188 8.06053H31.6846V9.42901H7.49895C7.21581 9.42901 6.98626 9.65856 6.98626 9.94171C6.98626 10.2249 7.21581 10.4544 7.49895 10.4544H33.9746V18.7006Z" fill="#383838"/>
<path d="M14.9092 16.9863C14.9683 17.1819 15.1379 17.3237 15.3408 17.3472C15.5437 17.3707 15.7413 17.2717 15.8436 17.0948L17.5 14.2336L19.1564 17.0948C19.2488 17.2542 19.4186 17.3506 19.6 17.3506C19.6196 17.3506 19.6395 17.3495 19.6593 17.3471C19.8622 17.3236 20.0318 17.1819 20.0909 16.9863L21.4581 12.4655C21.5401 12.1945 21.3868 11.9083 21.1157 11.8264C20.8448 11.7442 20.5585 11.8976 20.4766 12.1687L19.4515 15.558L17.9437 12.9534C17.852 12.7951 17.6829 12.6976 17.4999 12.6976C17.3169 12.6976 17.1479 12.7951 17.0562 12.9534L15.5483 15.558L14.5233 12.1687C14.4413 11.8977 14.155 11.7443 13.8841 11.8264C13.6131 11.9083 13.4598 12.1945 13.5418 12.4655L14.9092 16.9863Z" fill="#383838"/>
<path d="M7.13684 12.9534L5.62903 15.558L4.60398 12.1687C4.52202 11.8977 4.23566 11.7443 3.96482 11.8264C3.69378 11.9083 3.54052 12.1945 3.62248 12.4655L4.98967 16.9863C5.0488 17.1818 5.2184 17.3236 5.42129 17.3471C5.62438 17.371 5.82174 17.2715 5.92407 17.0948L7.58042 14.2336L9.23684 17.0948C9.32919 17.2542 9.49899 17.3506 9.68042 17.3506C9.70004 17.3506 9.71986 17.3495 9.73969 17.3471C9.94258 17.3236 10.1122 17.1818 10.1713 16.9863L11.5385 12.4655C11.6205 12.1945 11.4672 11.9083 11.1962 11.8264C10.9252 11.7442 10.639 11.8976 10.557 12.1687L9.53194 15.558L8.02407 12.9534C7.9324 12.7951 7.76335 12.6976 7.58035 12.6976C7.39735 12.6976 7.22851 12.7951 7.13684 12.9534Z" fill="#383838"/>
<path d="M24.8286 16.9863C24.8877 17.1818 25.0573 17.3236 25.2602 17.3471C25.2801 17.3495 25.2998 17.3506 25.3195 17.3506C25.5009 17.3506 25.6707 17.2542 25.7631 17.0948L27.4195 14.2336L29.0758 17.0948C29.1782 17.2715 29.3757 17.3707 29.5786 17.3471C29.7815 17.3236 29.9511 17.1818 30.0102 16.9863L31.3774 12.4655C31.4594 12.1945 31.3061 11.9083 31.0351 11.8264C30.7641 11.7442 30.4779 11.8976 30.3959 12.1687L29.3709 15.558L27.8631 12.9534C27.7714 12.7951 27.6024 12.6976 27.4194 12.6976C27.2364 12.6976 27.0673 12.7951 26.9756 12.9534L25.4678 15.558L24.4427 12.1687C24.3608 11.8977 24.0747 11.7443 23.8036 11.8264C23.5325 11.9083 23.3793 12.1945 23.4612 12.4655L24.8286 16.9863Z" fill="#383838"/>
<path d="M15.2257 21.7715H5.84173C5.55858 21.7715 5.32903 22.001 5.32903 22.2842C5.32903 22.5673 5.55858 22.7969 5.84173 22.7969H15.2257C15.5088 22.7969 15.7384 22.5673 15.7384 22.2842C15.7384 22.001 15.5088 21.7715 15.2257 21.7715Z" fill="#383838"/>
<path d="M13.0917 28.9329H15.2256C15.5088 28.9329 15.7383 28.7033 15.7383 28.4202C15.7383 28.137 15.5088 27.9075 15.2256 27.9075H13.0917C12.8086 27.9075 12.579 28.137 12.579 28.4202C12.579 28.7033 12.8086 28.9329 13.0917 28.9329Z" fill="#383838"/>
<path d="M5.84173 27.9075C5.55858 27.9075 5.32903 28.137 5.32903 28.4202C5.32903 28.7033 5.55858 28.9329 5.84173 28.9329H10.7185C11.0016 28.9329 11.2312 28.7033 11.2312 28.4202C11.2312 28.137 11.0016 27.9075 10.7185 27.9075H5.84173Z" fill="#383838"/>
<path d="M13.685 25.3738C13.685 25.0906 13.4555 24.8611 13.1723 24.8611H5.83916C5.55601 24.8611 5.32646 25.0906 5.32646 25.3738C5.32646 25.6569 5.55601 25.8865 5.83916 25.8865H13.1723C13.4555 25.8865 13.685 25.6569 13.685 25.3738Z" fill="#383838"/>
<path d="M19.7374 28.9329H29.1214C29.4045 28.9329 29.6341 28.7033 29.6341 28.4202C29.6341 28.137 29.4045 27.9075 29.1214 27.9075H19.7374C19.4543 27.9075 19.2247 28.137 19.2247 28.4202C19.2247 28.7033 19.4543 28.9329 19.7374 28.9329Z" fill="#383838"/>
<path d="M29.1214 22.7969C29.4045 22.7969 29.6341 22.5673 29.6341 22.2842C29.6341 22.001 29.4045 21.7715 29.1214 21.7715H26.9875C26.7043 21.7715 26.4748 22.001 26.4748 22.2842C26.4748 22.5673 26.7043 22.7969 26.9875 22.7969H29.1214Z" fill="#383838"/>
<path d="M19.7374 22.7969H24.6141C24.8972 22.7969 25.1268 22.5673 25.1268 22.2842C25.1268 22.001 24.8972 21.7715 24.6141 21.7715H19.7374C19.4543 21.7715 19.2247 22.001 19.2247 22.2842C19.2247 22.5673 19.4543 22.7969 19.7374 22.7969Z" fill="#383838"/>
<path d="M19.7348 25.843H27.068C27.3511 25.843 27.5807 25.6135 27.5807 25.3303C27.5807 25.0472 27.3511 24.8176 27.068 24.8176H19.7348C19.4517 24.8176 19.2221 25.0472 19.2221 25.3303C19.2221 25.6135 19.4517 25.843 19.7348 25.843Z" fill="#383838"/>
</g>
<defs>
<clipPath id="clip0">
<rect width="35" height="35" fill="white"/>
</clipPath>
</defs>
</svg>
