<svg width="334" height="334" viewBox="0 0 334 334" fill="none" xmlns="http://www.w3.org/2000/svg">
<g opacity="0.1" clip-path="url(#clip0)">
<path d="M70.04 44.3708H48.983C46.281 44.3708 44.0904 46.5614 44.0904 49.2634C44.0904 51.9654 46.281 54.156 48.983 54.156H70.04C72.742 54.156 74.9326 51.9654 74.9326 49.2634C74.9326 46.5614 72.742 44.3708 70.04 44.3708Z" fill="white"/>
<path d="M115.325 44.3708H94.2678C91.5658 44.3708 89.3752 46.5614 89.3752 49.2634C89.3752 51.9654 91.5658 54.156 94.2678 54.156H115.325C118.027 54.156 120.217 51.9654 120.217 49.2634C120.217 46.5614 118.027 44.3708 115.325 44.3708Z" fill="white"/>
<path d="M161.089 44.3708H140.032C137.33 44.3708 135.139 46.5614 135.139 49.2634C135.139 51.9654 137.33 54.156 140.032 54.156H161.089C163.791 54.156 165.981 51.9654 165.981 49.2634C165.981 46.5614 163.791 44.3708 161.089 44.3708Z" fill="white"/>
<path d="M329.107 89.9797H312.146V44.3039C312.146 31.9251 302.076 21.8535 289.696 21.8535H44.3039C31.9244 21.8535 21.8535 31.9244 21.8535 44.3039V89.9804H4.89258C2.19057 89.9804 0 92.171 0 94.873V183.35C0 186.052 2.19057 188.242 4.89258 188.242H21.8535V289.697C21.8535 302.076 31.9244 312.147 44.3039 312.147H240.761C243.463 312.147 245.653 309.957 245.653 307.255C245.653 304.553 243.463 302.362 240.761 302.362H44.3039C37.3206 302.362 31.6387 296.681 31.6387 289.697V188.242H302.361V289.697C302.361 296.68 296.68 302.362 289.696 302.362H263.759C261.057 302.362 258.866 304.553 258.866 307.255C258.866 309.957 261.057 312.147 263.759 312.147H289.696C302.075 312.147 312.146 302.076 312.146 289.697V188.242H329.107C331.809 188.242 334 186.052 334 183.35V94.8723C334 92.1703 331.809 89.9797 329.107 89.9797ZM324.215 178.457H9.78516V99.7649H48.9832C51.6852 99.7649 53.8758 97.5743 53.8758 94.8723C53.8758 92.1703 51.6852 89.9797 48.9832 89.9797H31.6387V76.9205H255.111C257.813 76.9205 260.004 74.7299 260.004 72.0279C260.004 69.3259 257.813 67.1353 255.111 67.1353H31.6387V44.3033C31.6387 37.3199 37.3199 31.638 44.3039 31.638H289.697C296.68 31.638 302.362 37.3193 302.362 44.3033V67.1353H277.877C275.175 67.1353 272.984 69.3259 272.984 72.0279C272.984 74.7299 275.175 76.9205 277.877 76.9205H302.361V89.9797H71.5615C68.8594 89.9797 66.6689 92.1703 66.6689 94.8723C66.6689 97.5743 68.8594 99.7649 71.5615 99.7649H324.215V178.457Z" fill="white"/>
<path d="M142.276 162.098C142.84 163.965 144.459 165.318 146.395 165.542C148.331 165.766 150.217 164.821 151.193 163.133L167 135.83L182.807 163.133C183.688 164.655 185.309 165.574 187.04 165.574C187.227 165.574 187.416 165.563 187.606 165.541C189.542 165.316 191.16 163.964 191.725 162.098L204.771 118.957C205.554 116.37 204.091 113.639 201.505 112.857C198.919 112.073 196.187 113.537 195.405 116.124L185.623 148.467L171.234 123.612C170.359 122.102 168.746 121.171 166.999 121.171C165.253 121.171 163.64 122.102 162.765 123.612L148.376 148.467L138.594 116.124C137.812 113.538 135.079 112.074 132.494 112.857C129.908 113.639 128.445 116.37 129.227 118.957L142.276 162.098Z" fill="white"/>
<path d="M68.1059 123.612L53.7171 148.467L43.9352 116.124C43.1531 113.538 40.4204 112.074 37.8358 112.857C35.2493 113.639 33.7867 116.37 34.5689 118.957L47.6158 162.097C48.18 163.964 49.7985 165.317 51.7347 165.541C53.6728 165.769 55.5561 164.82 56.5326 163.133L72.3389 135.83L88.1459 163.133C89.0272 164.655 90.6476 165.574 92.3789 165.574C92.5662 165.574 92.7553 165.563 92.9445 165.541C94.8807 165.316 96.4991 163.964 97.0634 162.097L110.11 118.957C110.892 116.37 109.43 113.639 106.843 112.857C104.257 112.073 101.526 113.537 100.744 116.124L90.962 148.467L76.5726 123.612C75.6979 122.102 74.0846 121.171 72.3383 121.171C70.592 121.171 68.9807 122.102 68.1059 123.612Z" fill="white"/>
<path d="M236.936 162.097C237.5 163.964 239.119 165.317 241.055 165.541C241.244 165.563 241.432 165.574 241.62 165.574C243.351 165.574 244.972 164.655 245.853 163.133L261.66 135.83L277.467 163.133C278.444 164.82 280.328 165.766 282.265 165.541C284.201 165.316 285.819 163.964 286.384 162.097L299.43 118.957C300.213 116.37 298.75 113.639 296.163 112.857C293.578 112.073 290.846 113.537 290.064 116.124L280.282 148.467L265.893 123.612C265.019 122.102 263.405 121.171 261.659 121.171C259.913 121.171 258.299 122.102 257.425 123.612L243.035 148.467L233.253 116.124C232.471 113.538 229.741 112.074 227.154 112.857C224.567 113.639 223.105 116.37 223.887 118.957L236.936 162.097Z" fill="white"/>
<path d="M145.297 207.762H55.7468C53.0448 207.762 50.8543 209.953 50.8543 212.655C50.8543 215.357 53.0448 217.547 55.7468 217.547H145.297C147.999 217.547 150.189 215.357 150.189 212.655C150.189 209.953 147.999 207.762 145.297 207.762Z" fill="white"/>
<path d="M124.933 276.102H145.296C147.998 276.102 150.189 273.911 150.189 271.209C150.189 268.507 147.998 266.317 145.296 266.317H124.933C122.231 266.317 120.04 268.507 120.04 271.209C120.04 273.911 122.231 276.102 124.933 276.102Z" fill="white"/>
<path d="M55.7468 266.317C53.0448 266.317 50.8543 268.507 50.8543 271.209C50.8543 273.911 53.0448 276.102 55.7468 276.102H102.285C104.987 276.102 107.178 273.911 107.178 271.209C107.178 268.507 104.987 266.317 102.285 266.317H55.7468Z" fill="white"/>
<path d="M130.594 242.138C130.594 239.436 128.404 237.246 125.702 237.246H55.7222C53.0202 237.246 50.8297 239.436 50.8297 242.138C50.8297 244.84 53.0202 247.031 55.7222 247.031H125.702C128.404 247.031 130.594 244.84 130.594 242.138Z" fill="white"/>
<path d="M188.351 276.102H277.901C280.603 276.102 282.794 273.911 282.794 271.209C282.794 268.507 280.603 266.317 277.901 266.317H188.351C185.649 266.317 183.459 268.507 183.459 271.209C183.459 273.911 185.649 276.102 188.351 276.102Z" fill="white"/>
<path d="M277.901 217.547C280.603 217.547 282.794 215.357 282.794 212.655C282.794 209.953 280.603 207.762 277.901 207.762H257.537C254.835 207.762 252.645 209.953 252.645 212.655C252.645 215.357 254.835 217.547 257.537 217.547H277.901Z" fill="white"/>
<path d="M188.351 217.547H234.889C237.591 217.547 239.781 215.357 239.781 212.655C239.781 209.953 237.591 207.762 234.889 207.762H188.351C185.649 207.762 183.459 209.953 183.459 212.655C183.459 215.357 185.649 217.547 188.351 217.547Z" fill="white"/>
<path d="M188.326 246.616H258.306C261.008 246.616 263.199 244.426 263.199 241.724C263.199 239.022 261.008 236.831 258.306 236.831H188.326C185.624 236.831 183.434 239.022 183.434 241.724C183.434 244.426 185.624 246.616 188.326 246.616Z" fill="white"/>
</g>
<defs>
<clipPath id="clip0">
<rect width="334" height="334" fill="white"/>
</clipPath>
</defs>
</svg>
