<svg width="114" height="22" viewBox="0 0 114 22" fill="none" xmlns="http://www.w3.org/2000/svg">
<g clip-path="url(#clip0)">
<path d="M14.6629 17.1772C14.3141 17.7248 13.6415 18.1735 12.9689 18.1735C11.9727 18.1735 11.4997 17.2267 11.4997 15.7817C11.4997 14.1632 12.0229 13.0922 14.4382 13.0922H14.6629V17.1772ZM16.5801 16.8032V10.9001C16.5801 7.86174 15.3607 6.91495 13.1434 6.91495C11.8737 6.91495 10.7273 7.43824 10.1545 7.91124L10.5285 9.63038C11.1759 9.05681 12.0229 8.53431 13.0192 8.53431C14.1153 8.53431 14.6629 9.23124 14.6629 10.8757V11.6222H14.3887C10.8766 11.6222 9.50708 13.3162 9.50708 16.0065C9.50708 18.472 10.7273 19.8172 12.5211 19.8172C13.6172 19.8172 14.3141 19.3442 14.8625 18.6465H14.9867C15.0118 18.9702 15.0864 19.3693 15.1611 19.6427H16.8048C16.6555 18.7036 16.5806 17.7541 16.5809 16.8032H16.5801ZM20.9392 9.9046C21.3871 9.28152 22.0856 8.65845 22.9074 8.65845C23.6539 8.65845 24.0782 8.98217 24.0782 9.92895V19.6427H26.0456V9.75452C26.0456 7.83738 25.1734 6.91495 23.5297 6.91495C22.359 6.91495 21.413 7.68731 21.0642 8.16031H20.9392V7.06424H18.9969V19.6427H20.9392V9.90381V9.9046ZM31.7742 19.8172C32.7957 19.8172 33.4926 19.3442 34.041 18.6465H34.1652L34.3144 19.6427H35.7594V1.83374H33.8163V7.38874C33.4431 7.11374 32.82 6.91495 32.2221 6.91495C29.707 6.91495 27.9635 9.18174 27.9635 13.8395C27.9635 17.7248 29.3087 19.8172 31.7742 19.8172ZM33.8171 17.2015C33.4926 17.6997 32.9693 18.1735 31.9982 18.1735C30.5784 18.1735 30.0307 16.3797 30.0307 13.4411C30.0307 10.8757 30.7772 8.50917 32.347 8.50917C32.9944 8.50917 33.4179 8.70874 33.8163 9.10631V17.2015H33.8171ZM44.9004 18.7965L44.4525 17.3013C43.9536 17.6502 43.1561 18.1483 42.0608 18.1483C40.5169 18.1483 39.7194 16.6539 39.7194 13.8143H44.9499V12.7442C44.9499 8.4856 43.5804 6.91574 41.488 6.91574C38.8229 6.91574 37.7017 9.85431 37.7017 13.8897C37.7017 17.7507 39.2967 19.818 41.8864 19.818C43.1317 19.818 44.1029 19.4196 44.9004 18.7965ZM41.488 8.50917C42.6084 8.50917 42.9573 10.0782 42.9573 12.2201H39.7437C39.8694 9.97845 40.2922 8.50917 41.488 8.50917ZM51.5004 7.08938L49.782 11.6473L48.1634 7.09017H46.1449L48.5107 13.1417L45.8967 19.6427H47.8138L49.7074 14.4617L51.6497 19.6427H53.6674L51.0525 12.9673L53.3939 7.09017H51.5004V7.08938Z" fill="white"/>
<path d="M6.3054 19.643V13.3415L10.938 -0.00854492H8.97054L5.35861 10.6512L2.22047 1.83396H0.0786133L4.33719 13.2661V19.643H6.3054Z" fill="white"/>
</g>
<g clip-path="url(#clip1)">
<path fill-rule="evenodd" clip-rule="evenodd" d="M75.193 13.1214C73.4644 14.905 73.3387 17.1286 73.1894 22C77.7308 22 80.8658 21.9843 82.4844 20.4129C84.0558 18.7943 84.0715 15.51 84.0715 11.1179C79.2001 11.275 76.9765 11.3929 75.193 13.1214ZM62.0715 11.1179C62.0715 15.51 62.0872 18.7943 63.6587 20.4129C65.2772 21.9843 68.4122 22 72.9537 22C72.7965 17.1286 72.6787 14.905 70.9501 13.1214C69.1665 11.3929 66.943 11.2671 62.0715 11.1179ZM72.9537 0C68.4201 0 65.2772 0.0157143 63.6587 1.58714C62.0872 3.20571 62.0715 6.49 62.0715 10.8821C66.943 10.725 69.1665 10.6071 70.9501 8.87857C72.6787 7.095 72.8044 4.87143 72.9537 0ZM75.193 8.87857C73.4644 7.095 73.3387 4.87143 73.1894 0C77.7308 0 80.8658 0.0157143 82.4844 1.58714C84.0558 3.20571 84.0715 6.49 84.0715 10.8821C79.2001 10.725 76.9765 10.6071 75.193 8.87857Z" fill="white"/>
<path fill-rule="evenodd" clip-rule="evenodd" d="M84.0715 11.1179V10.8821C79.2001 10.725 76.9765 10.6071 75.193 8.87857C73.4644 7.095 73.3387 4.87143 73.1894 0H72.9537C72.7965 4.87143 72.6787 7.095 70.9501 8.87857C69.1665 10.6071 66.943 10.7329 62.0715 10.8821V11.1179C66.943 11.275 69.1665 11.3929 70.9501 13.1214C72.6787 14.905 72.8044 17.1286 72.9537 22H73.1894C73.3465 17.1286 73.4644 14.905 75.193 13.1214C76.9765 11.3929 79.2001 11.2671 84.0715 11.1179Z" fill="#1A2D3E"/>
</g>
<path d="M98.1121 18.8572V18.0164H93.2328L98.1121 5.00502V4.25073H92.455V5.09145H97.0514L92.1721 18.1029V18.8572H98.1121ZM99.9743 13.8757H104.634C104.964 10.2143 103.816 8.36002 102.041 8.36002C100.304 8.36002 99.0393 10.34 99.0393 13.7029C99.0393 17.0814 100.037 19.0614 102.221 19.0614C103.856 19.0614 104.634 17.8986 104.634 17.8986L104.327 17.1207C104.327 17.1207 103.612 18.2207 102.245 18.2207C100.752 18.2207 100.014 16.6886 99.9743 13.8757ZM102.041 9.15359C103.078 9.15359 103.895 10.3793 103.738 13.1136H99.9978C100.076 10.5443 100.956 9.15359 102.041 9.15359ZM109.717 9.17716C110.66 9.17716 111.108 9.74288 111.108 10.9686V18.8572H112.066V10.8429C112.066 9.21645 111.273 8.36002 109.906 8.36002C108.515 8.36002 107.698 9.4993 107.407 10.2536H107.368L107.329 8.5643H106.449V18.8572H107.407V11.3379C107.918 10.0336 108.696 9.17716 109.717 9.17716Z" fill="white"/>
<defs>
<clipPath id="clip0">
<rect width="54.2143" height="22" fill="white"/>
</clipPath>
<clipPath id="clip1">
<rect width="22" height="22" fill="white" transform="translate(62.0715)"/>
</clipPath>
</defs>
</svg>
