<svg width="157" height="31" viewBox="0 0 157 31" fill="none" xmlns="http://www.w3.org/2000/svg">
<g clip-path="url(#clip0)">
<path d="M19.0094 21.862C18.5654 22.559 17.7094 23.13 16.8534 23.13C15.5854 23.13 14.9834 21.925 14.9834 20.086C14.9834 18.026 15.6494 16.663 18.7234 16.663H19.0094V21.862ZM21.4494 21.386V13.873C21.4494 10.006 19.8974 8.80098 17.0754 8.80098C15.4594 8.80098 14.0004 9.46698 13.2714 10.069L13.7474 12.257C14.5714 11.527 15.6494 10.862 16.9174 10.862C18.3124 10.862 19.0094 11.749 19.0094 13.842V14.792H18.6604C14.1904 14.792 12.4474 16.948 12.4474 20.372C12.4474 23.51 14.0004 25.222 16.2834 25.222C17.6784 25.222 18.5654 24.62 19.2634 23.732H19.4214C19.4534 24.144 19.5484 24.652 19.6434 25H21.7354C21.5454 23.8047 21.4501 22.5963 21.4504 21.386H21.4494ZM26.9974 12.606C27.5674 11.813 28.4564 11.02 29.5024 11.02C30.4524 11.02 30.9924 11.432 30.9924 12.637V25H33.4964V12.415C33.4964 9.97498 32.3864 8.80098 30.2944 8.80098C28.8044 8.80098 27.6004 9.78398 27.1564 10.386H26.9974V8.99098H24.5254V25H26.9974V12.605V12.606ZM40.7874 25.222C42.0874 25.222 42.9744 24.62 43.6724 23.732H43.8304L44.0204 25H45.8594V2.33398H43.3864V9.40398C42.9114 9.05398 42.1184 8.80098 41.3574 8.80098C38.1564 8.80098 35.9374 11.686 35.9374 17.614C35.9374 22.559 37.6494 25.222 40.7874 25.222ZM43.3874 21.893C42.9744 22.527 42.3084 23.13 41.0724 23.13C39.2654 23.13 38.5684 20.847 38.5684 17.107C38.5684 13.842 39.5184 10.83 41.5164 10.83C42.3404 10.83 42.8794 11.084 43.3864 11.59V21.893H43.3874ZM57.4934 23.923L56.9234 22.02C56.2884 22.464 55.2734 23.098 53.8794 23.098C51.9144 23.098 50.8994 21.196 50.8994 17.582H57.5564V16.22C57.5564 10.8 55.8134 8.80198 53.1504 8.80198C49.7584 8.80198 48.3314 12.542 48.3314 17.678C48.3314 22.592 50.3614 25.223 53.6574 25.223C55.2424 25.223 56.4784 24.716 57.4934 23.923ZM53.1504 10.83C54.5764 10.83 55.0204 12.827 55.0204 15.553H50.9304C51.0904 12.7 51.6284 10.83 53.1504 10.83ZM65.8934 9.02298L63.7064 14.824L61.6464 9.02398H59.0774L62.0884 16.726L58.7614 25H61.2014L63.6114 18.406L66.0834 25H68.6514L65.3234 16.504L68.3034 9.02398H65.8934V9.02298Z" fill="black"/>
<path d="M8.37236 25V16.98L14.2684 -0.0109863H11.7644L7.16736 13.556L3.17336 2.33401H0.447357L5.86736 16.884V25H8.37236Z" fill="#FF0000"/>
</g>
<path d="M84.4479 6.51562L90.0466 22.7783L95.6706 6.51562H97.5876V25H96.1403V16.9893L96.2673 8.92773L90.6052 25H89.488L83.8513 9.00391L83.9782 16.9385V25H82.5309V6.51562H84.4479ZM106.208 25.2539C104.591 25.2539 103.326 24.7249 102.412 23.667C101.498 22.609 101.032 21.1025 101.015 19.1475V17.4717C101.015 15.4574 101.455 13.8789 102.336 12.7363C103.216 11.5853 104.426 11.0098 105.966 11.0098C107.456 11.0098 108.59 11.4964 109.369 12.4697C110.156 13.443 110.558 14.9326 110.575 16.9385V18.2588H102.412V19.0332C102.412 20.6074 102.746 21.8219 103.415 22.6768C104.092 23.5316 105.044 23.959 106.271 23.959C107.625 23.959 108.721 23.4639 109.559 22.4736L110.296 23.4131C109.398 24.6403 108.036 25.2539 106.208 25.2539ZM105.966 12.3301C104.858 12.3301 104.003 12.7236 103.402 13.5107C102.81 14.2894 102.484 15.432 102.424 16.9385H109.166V16.5703C109.098 13.7435 108.032 12.3301 105.966 12.3301ZM115.704 7.75977V11.2637H118.052V12.5332H115.704V21.6611C115.704 22.4144 115.814 22.9772 116.034 23.3496C116.262 23.7135 116.639 23.8955 117.164 23.8955C117.392 23.8955 117.731 23.8532 118.179 23.7686L118.217 25.0381C117.896 25.182 117.435 25.2539 116.834 25.2539C115.183 25.2539 114.337 24.1198 114.295 21.8516V12.5332H112.174V11.2637H114.295V7.75977H115.704ZM126.508 12.584C126.169 12.5247 125.873 12.4951 125.619 12.4951C124.84 12.4951 124.184 12.7617 123.651 13.2949C123.126 13.8281 122.754 14.5687 122.534 15.5166V25H121.125V11.2637H122.508L122.534 13.3203C123.202 11.7799 124.252 11.0098 125.682 11.0098C126.055 11.0098 126.338 11.0648 126.533 11.1748L126.508 12.584ZM130.57 25H129.148V11.2637H130.57V25ZM128.945 7.30273C128.945 7.01497 129.025 6.76953 129.186 6.56641C129.347 6.36328 129.576 6.26172 129.872 6.26172C130.168 6.26172 130.397 6.36328 130.557 6.56641C130.727 6.76953 130.811 7.01497 130.811 7.30273C130.811 7.59049 130.727 7.83594 130.557 8.03906C130.397 8.23372 130.168 8.33105 129.872 8.33105C129.576 8.33105 129.347 8.23372 129.186 8.03906C129.025 7.83594 128.945 7.59049 128.945 7.30273ZM137.337 18.1318L135.902 19.7314V25H134.48V5.5H135.902V17.9033L137.083 16.4053L141.336 11.2637H143.088L138.263 17.0654L143.545 25H141.869L137.337 18.1318ZM153.015 25C152.888 24.5599 152.804 23.9251 152.761 23.0957C152.338 23.7812 151.792 24.3145 151.124 24.6953C150.464 25.0677 149.744 25.2539 148.966 25.2539C147.781 25.2539 146.858 24.9196 146.198 24.251C145.538 23.5824 145.208 22.6302 145.208 21.3945C145.208 20.0488 145.665 18.9824 146.579 18.1953C147.501 17.4082 148.771 17.0104 150.387 17.002H152.749V15.085C152.749 14.1032 152.503 13.4007 152.012 12.9775C151.53 12.5459 150.819 12.3301 149.88 12.3301C149.008 12.3301 148.293 12.584 147.734 13.0918C147.175 13.5996 146.896 14.2555 146.896 15.0596L145.487 15.0469C145.487 13.9212 145.91 12.9691 146.757 12.1904C147.603 11.4033 148.665 11.0098 149.943 11.0098C151.323 11.0098 152.368 11.3568 153.079 12.0508C153.79 12.7448 154.145 13.7562 154.145 15.085V21.8262C154.145 23.1719 154.268 24.179 154.513 24.8477V25H153.015ZM149.143 23.8955C149.973 23.8955 150.705 23.6797 151.34 23.248C151.983 22.8164 152.452 22.2409 152.749 21.5215V18.1826H150.514C149.228 18.1995 148.259 18.4873 147.607 19.0459C146.955 19.596 146.63 20.3408 146.63 21.2803C146.63 23.0238 147.467 23.8955 149.143 23.8955Z" fill="black"/>
<defs>
<clipPath id="clip0">
<rect width="69" height="28" fill="white" transform="translate(0.347351)"/>
</clipPath>
</defs>
</svg>
