<svg width="160" height="31" viewBox="0 0 160 31" fill="none" xmlns="http://www.w3.org/2000/svg">
<g clip-path="url(#clip0)">
<path d="M18.662 21.862C18.218 22.559 17.362 23.13 16.506 23.13C15.238 23.13 14.636 21.925 14.636 20.086C14.636 18.026 15.302 16.663 18.376 16.663H18.662V21.862ZM21.102 21.386V13.873C21.102 10.006 19.55 8.80098 16.728 8.80098C15.112 8.80098 13.653 9.46698 12.924 10.069L13.4 12.257C14.224 11.527 15.302 10.862 16.57 10.862C17.965 10.862 18.662 11.749 18.662 13.842V14.792H18.313C13.843 14.792 12.1 16.948 12.1 20.372C12.1 23.51 13.653 25.222 15.936 25.222C17.331 25.222 18.218 24.62 18.916 23.732H19.074C19.106 24.144 19.201 24.652 19.296 25H21.388C21.198 23.8047 21.1027 22.5963 21.103 21.386H21.102ZM26.65 12.606C27.22 11.813 28.109 11.02 29.155 11.02C30.105 11.02 30.645 11.432 30.645 12.637V25H33.149V12.415C33.149 9.97498 32.039 8.80098 29.947 8.80098C28.457 8.80098 27.253 9.78398 26.809 10.386H26.65V8.99098H24.178V25H26.65V12.605V12.606ZM40.44 25.222C41.74 25.222 42.627 24.62 43.325 23.732H43.483L43.673 25H45.512V2.33398H43.039V9.40398C42.564 9.05398 41.771 8.80098 41.01 8.80098C37.809 8.80098 35.59 11.686 35.59 17.614C35.59 22.559 37.302 25.222 40.44 25.222ZM43.04 21.893C42.627 22.527 41.961 23.13 40.725 23.13C38.918 23.13 38.221 20.847 38.221 17.107C38.221 13.842 39.171 10.83 41.169 10.83C41.993 10.83 42.532 11.084 43.039 11.59V21.893H43.04ZM57.146 23.923L56.576 22.02C55.941 22.464 54.926 23.098 53.532 23.098C51.567 23.098 50.552 21.196 50.552 17.582H57.209V16.22C57.209 10.8 55.466 8.80198 52.803 8.80198C49.411 8.80198 47.984 12.542 47.984 17.678C47.984 22.592 50.014 25.223 53.31 25.223C54.895 25.223 56.131 24.716 57.146 23.923ZM52.803 10.83C54.229 10.83 54.673 12.827 54.673 15.553H50.583C50.743 12.7 51.281 10.83 52.803 10.83ZM65.546 9.02298L63.359 14.824L61.299 9.02398H58.73L61.741 16.726L58.414 25H60.854L63.264 18.406L65.736 25H68.304L64.976 16.504L67.956 9.02398H65.546V9.02298Z" fill="black"/>
<path d="M8.02501 25V16.98L13.921 -0.0109863H11.417L6.82001 13.556L2.82601 2.33401H0.100006L5.52001 16.884V25H8.02501Z" fill="#FF0000"/>
</g>
<path d="M89.2461 19.6797C89.1211 21.5938 88.6055 23 87.6992 23.8984C86.793 24.7891 85.5391 25.2344 83.9375 25.2344C82.2891 25.2344 80.9883 24.6133 80.0352 23.3711C79.082 22.1211 78.6016 20.4258 78.5938 18.2852V14.582C78.5938 12.4336 79.0781 10.75 80.0469 9.53125C81.0234 8.3125 82.3555 7.70312 84.043 7.70312C85.6367 7.70312 86.8711 8.16016 87.7461 9.07422C88.6211 9.98828 89.1211 11.3906 89.2461 13.2812H87.8867C87.7617 11.7344 87.3945 10.6289 86.7852 9.96484C86.1836 9.30078 85.2695 8.96875 84.043 8.96875C82.7539 8.96875 81.75 9.44922 81.0312 10.4102C80.3125 11.3711 79.9531 12.7656 79.9531 14.5938V18.25C79.9531 20.0625 80.3008 21.4727 80.9961 22.4805C81.6914 23.4883 82.6719 23.9922 83.9375 23.9922C85.2656 23.9922 86.2266 23.6602 86.8203 22.9961C87.4141 22.332 87.7695 21.2266 87.8867 19.6797H89.2461ZM100.59 25H99.2891V13.5508H93.7109V25H92.3984V12.3203H100.59V25ZM108.348 25.2344C106.855 25.2344 105.688 24.7461 104.844 23.7695C104 22.793 103.57 21.4023 103.555 19.5977V18.0508C103.555 16.1914 103.961 14.7344 104.773 13.6797C105.586 12.6172 106.703 12.0859 108.125 12.0859C109.5 12.0859 110.547 12.5352 111.266 13.4336C111.992 14.332 112.363 15.707 112.379 17.5586V18.7773H104.844V19.4922C104.844 20.9453 105.152 22.0664 105.77 22.8555C106.395 23.6445 107.273 24.0391 108.406 24.0391C109.656 24.0391 110.668 23.582 111.441 22.668L112.121 23.5352C111.293 24.668 110.035 25.2344 108.348 25.2344ZM108.125 13.3047C107.102 13.3047 106.312 13.668 105.758 14.3945C105.211 15.1133 104.91 16.168 104.855 17.5586H111.078V17.2188C111.016 14.6094 110.031 13.3047 108.125 13.3047ZM123.453 12.3203V25H122.152V13.5508H117.934L117.746 18.25C117.645 20.7344 117.363 22.4727 116.902 23.4648C116.449 24.4492 115.711 24.9609 114.688 25H114.09V23.7227L114.465 23.7109C115.137 23.6797 115.613 23.2891 115.895 22.5391C116.176 21.7812 116.363 20.4492 116.457 18.543L116.68 12.3203H123.453ZM135.336 12.3203V25H134.035V13.5508H129.816L129.629 18.25C129.527 20.7344 129.246 22.4727 128.785 23.4648C128.332 24.4492 127.594 24.9609 126.57 25H125.973V23.7227L126.348 23.7109C127.02 23.6797 127.496 23.2891 127.777 22.5391C128.059 21.7812 128.246 20.4492 128.34 18.543L128.562 12.3203H135.336ZM143.105 25.2344C141.613 25.2344 140.445 24.7461 139.602 23.7695C138.758 22.793 138.328 21.4023 138.312 19.5977V18.0508C138.312 16.1914 138.719 14.7344 139.531 13.6797C140.344 12.6172 141.461 12.0859 142.883 12.0859C144.258 12.0859 145.305 12.5352 146.023 13.4336C146.75 14.332 147.121 15.707 147.137 17.5586V18.7773H139.602V19.4922C139.602 20.9453 139.91 22.0664 140.527 22.8555C141.152 23.6445 142.031 24.0391 143.164 24.0391C144.414 24.0391 145.426 23.582 146.199 22.668L146.879 23.5352C146.051 24.668 144.793 25.2344 143.105 25.2344ZM142.883 13.3047C141.859 13.3047 141.07 13.668 140.516 14.3945C139.969 15.1133 139.668 16.168 139.613 17.5586H145.836V17.2188C145.773 14.6094 144.789 13.3047 142.883 13.3047ZM158.562 19.2578C158.562 21.2109 158.223 22.6953 157.543 23.7109C156.863 24.7266 155.848 25.2344 154.496 25.2344C153.027 25.2344 151.93 24.6484 151.203 23.4766V29.875H149.914V12.3203H151.109L151.168 14.0547C151.918 12.7422 153.016 12.0859 154.461 12.0859C155.828 12.0859 156.852 12.5703 157.531 13.5391C158.211 14.5078 158.555 15.9883 158.562 17.9805V19.2578ZM157.262 18.0742C157.262 16.4492 157.008 15.2539 156.5 14.4883C156 13.7227 155.215 13.3398 154.145 13.3398C152.77 13.3398 151.789 14.0391 151.203 15.4375V22.1172C151.789 23.3906 152.777 24.0273 154.168 24.0273C155.215 24.0273 155.988 23.6445 156.488 22.8789C156.996 22.1133 157.254 20.9336 157.262 19.3398V18.0742Z" fill="black"/>
<defs>
<clipPath id="clip0">
<rect width="69" height="28" fill="white"/>
</clipPath>
</defs>
</svg>
