<svg width="111" height="24" viewBox="0 0 111 24" fill="none" xmlns="http://www.w3.org/2000/svg">
<g clip-path="url(#clip0)">
<path d="M86.0424 10.5206V19.0515H84.9114V2.86226H86.0424V10.4228L90.7756 2.86226H91.8576L87.2012 10.3321L92.2695 19.0445H90.999L86.0424 10.5136V10.5206ZM93.6239 7.64434H94.692V11.8679H95.5297C96.4767 11.8218 97.4056 12.1389 98.1267 12.7545C98.4711 13.1031 98.7366 13.5216 98.9052 13.9817C99.0739 14.4418 99.1417 14.9327 99.1041 15.4213C99.1432 15.9231 99.0722 16.4273 98.8962 16.8988C98.7201 17.3703 98.4432 17.7976 98.0848 18.1509C97.3541 18.7703 96.4169 19.0918 95.4599 19.0515H93.6169V7.64434H93.6239ZM94.692 12.7126V18.2138H95.3691C96.0673 18.2417 96.7654 18.0183 97.3169 17.5645C97.5862 17.2881 97.7919 16.9562 97.9197 16.5921C98.0475 16.228 98.0943 15.8403 98.0569 15.4562C98.0922 15.0794 98.0504 14.6994 97.9339 14.3393C97.8175 13.9793 97.6289 13.6467 97.3797 13.3619C96.8566 12.9045 96.1745 12.6713 95.4808 12.7126H94.692ZM106.909 19.2749C106.441 19.2749 105.987 19.1492 105.597 18.9049C105.16 18.6308 104.794 18.2577 104.528 17.8158C104.2 17.2746 103.958 16.6859 103.809 16.0706C103.614 15.292 103.513 14.4927 103.509 13.69H101.994V19.0515H100.933V7.64434H101.994V12.7825H103.509C103.495 11.3862 103.858 10.004 104.577 8.80321C104.816 8.39288 105.155 8.05041 105.563 7.80845C105.971 7.56648 106.435 7.43307 106.909 7.42094C107.384 7.42094 107.851 7.56057 108.256 7.81189C108.696 8.10509 109.066 8.49604 109.331 8.95679C109.665 9.53456 109.905 10.1612 110.043 10.8138C110.225 11.6515 110.316 12.4892 110.302 13.3479C110.316 14.1926 110.225 15.0443 110.043 15.8751C109.901 16.5243 109.661 17.148 109.331 17.7251C109.066 18.1928 108.703 18.5838 108.256 18.877C107.851 19.1423 107.384 19.2749 106.909 19.2749ZM106.909 18.3674C107.271 18.3385 107.617 18.2077 107.907 17.9903C108.197 17.7728 108.42 17.4776 108.55 17.1387C109.066 15.9379 109.297 14.6394 109.213 13.334C109.297 12.0355 109.073 10.73 108.55 9.53623C108.418 9.19996 108.194 8.90762 107.904 8.69275C107.614 8.47789 107.269 8.34921 106.909 8.32151C106.546 8.34974 106.197 8.47824 105.903 8.69271C105.608 8.90717 105.379 9.19918 105.24 9.53623C104.71 10.723 104.473 12.0285 104.556 13.334C104.474 14.6388 104.709 15.9443 105.24 17.1387C105.377 17.4783 105.605 17.7733 105.9 17.9903C106.195 18.2073 106.544 18.3379 106.909 18.3674ZM68.1707 23.7358C71.3182 23.7358 74.3369 22.4855 76.5625 20.2598C78.7882 18.0341 80.0386 15.0155 80.0386 11.8679C80.0386 8.72036 78.7882 5.7017 76.5625 3.47603C74.3369 1.25037 71.3182 0 68.1707 0C65.0231 0 62.0044 1.25037 59.7788 3.47603C57.5531 5.7017 56.3027 8.72036 56.3027 11.8679C56.3027 15.0155 57.5531 18.0341 59.7788 20.2598C62.0044 22.4855 65.0231 23.7358 68.1707 23.7358Z" fill="white"/>
<path d="M66.607 5.10327C65.2925 5.21756 64.0586 5.78516 63.1164 6.70893C62.7396 7.08523 62.4412 7.53264 62.2387 8.02519C62.0361 8.51775 61.9335 9.04562 61.9366 9.57818V10.4857C61.9332 11.0123 62.0339 11.5343 62.2328 12.0219C62.4316 12.5095 62.7248 12.953 63.0955 13.327C63.621 13.8548 64.2455 14.2737 64.933 14.56C65.6206 14.8463 66.3579 14.9943 67.1026 14.9955C67.0887 14.9955 66.614 14.3323 66.614 14.3323V5.10327H66.607ZM73.7906 18.9189C73.6905 18.7942 73.6363 18.639 73.637 18.4791V9.6061C73.6366 8.54605 73.2205 7.52842 72.4781 6.77176C71.9525 6.24404 71.3281 5.82506 70.6406 5.53878C69.953 5.25249 69.2157 5.1045 68.4709 5.10327L68.9596 5.77346V17.0759C68.9596 17.3882 69.0212 17.6974 69.141 17.9859C69.2607 18.2743 69.4361 18.5363 69.6573 18.7568C69.8784 18.9773 70.1409 19.152 70.4297 19.2708C70.7185 19.3897 71.0279 19.4504 71.3402 19.4495H74.2025L73.7836 18.912L73.7906 18.9189Z" fill="#202333"/>
</g>
<g clip-path="url(#clip1)">
<path d="M0.656226 7.94462C0.656226 10.374 1.61264 11.6865 3.03679 12.4125L0 19.0586H2.01755L4.78207 12.8454H6.23415V19.0586H7.97943V2.84839H5.37547C2.8134 2.84839 0.656226 4.53782 0.656226 7.94462ZM6.23415 11.3933H5.30566C3.78377 11.3933 2.54113 10.5556 2.54113 7.94462C2.54113 5.2499 3.90245 4.31443 5.30566 4.31443H6.23415V11.3933ZM14.6464 12.4824H12.0075V7.63046H10.2413V19.0586H12.0075V13.9344H14.6394V19.0586H16.3847V7.63046H14.6394V12.4824H14.6464ZM41.2585 7.63046H39.4713L36.7207 12.9152V7.63046H34.9475V19.0586H36.7207V13.362L39.7366 19.0586H41.6634L38.4172 13.0059L41.2515 7.63046H41.2585ZM24.5736 7.63046H19.2679V8.60782C19.2679 11.6446 19.1562 15.1771 18.116 17.6065H17.4109V21.3065H18.9957V19.0586H23.8964V21.2995H25.4811V17.5995H24.5736V7.63744V7.63046ZM22.8283 17.6065H19.7915C20.7409 15.1771 20.8526 11.6656 20.8526 9.26405V9.05462H22.8283V17.6065ZM47.7858 17.034C47.2514 17.4968 46.5659 17.7477 45.8591 17.7391C44.4349 17.7391 43.7507 16.1056 43.7507 13.2503C43.7507 10.374 44.6583 8.94292 45.9289 8.94292C46.627 8.9848 47.2972 9.26405 47.8138 9.73877L48.0581 8.06329C47.4342 7.65104 46.6972 7.44361 45.9498 7.4699C43.276 7.4699 41.8938 9.75971 41.8938 13.341C41.8938 17.2435 43.3668 19.2122 45.8172 19.2122C46.6898 19.2401 47.5415 18.9329 48.1908 18.3535L47.7858 17.041V17.034ZM30.5075 17.6973C29.1113 17.6973 28.3853 16.3359 28.3853 13.7529H33.1394V12.7756C33.1394 8.90103 31.8968 7.4699 29.9979 7.4699C27.5685 7.4699 26.5492 10.1437 26.5492 13.8227C26.5492 17.3342 27.9943 19.2122 30.354 19.2122C31.3697 19.2294 32.3614 18.9021 33.1674 18.2837L32.7555 16.9224C32.1042 17.4007 31.3223 17.6686 30.5145 17.6903L30.5075 17.6973ZM29.9909 8.92197C31.0102 8.92197 31.3313 10.3531 31.3313 12.3008H28.3992C28.5179 10.2624 28.9019 8.92197 29.9909 8.92197Z" fill="white"/>
</g>
<defs>
<clipPath id="clip0">
<rect width="58.6415" height="23.7358" fill="white" transform="translate(52.3584)"/>
</clipPath>
<clipPath id="clip1">
<rect width="48.8679" height="23.7358" fill="white"/>
</clipPath>
</defs>
</svg>
