<svg width="116" height="46" viewBox="0 0 116 46" fill="none" xmlns="http://www.w3.org/2000/svg">
<path d="M15.2491 21.9841H12.9779C9.40915 21.9841 5.94838 19.3981 5.94838 12.9315C5.94838 6.19666 9.19313 3.44846 12.4911 3.44846H15.2491V21.9841ZM18.8179 -7.24792e-05H12.6539C6.59645 -7.24792e-05 1.46078 4.58076 1.46078 13.4711C1.46078 18.8054 3.94798 22.739 8.38231 24.6777L0.108435 39.5496C-0.162331 40.0347 0.108434 40.4121 0.540475 40.4121H4.38002C4.70405 40.4121 4.92155 40.3045 5.02956 40.0347L12.5459 25.4326H15.2491V40.0347C15.2491 40.1969 15.4119 40.4121 15.6279 40.4121H18.9806C19.3047 40.4121 19.4127 40.2499 19.4127 39.9816V0.538071C19.4127 0.162109 19.1966 -7.24792e-05 18.8179 -7.24792e-05Z" fill="#ED1E24"/>
<path d="M39.1434 13.3951H35.7907C35.5199 13.3951 35.3586 13.6104 35.3586 13.7726V24.0636H29.1399V13.7726C29.1399 13.5027 29.0319 13.3951 28.7611 13.3951H25.4084C25.1391 13.3951 24.9763 13.5573 24.9763 13.7726V39.9601C24.9763 40.2284 25.0843 40.3906 25.3536 40.3906H28.7611C28.9771 40.3906 29.1399 40.2284 29.1399 39.9601V27.459H35.3586V39.9601C35.3586 40.2284 35.5199 40.3906 35.7907 40.3906H39.1434C39.4142 40.3906 39.5222 40.1739 39.5222 39.9601V13.7726C39.5222 13.5573 39.3594 13.3951 39.1434 13.3951Z" fill="white"/>
<path d="M115.691 38.6663L115.259 36.8352C115.204 36.673 115.151 36.6185 114.988 36.6185C114.718 36.6185 113.259 37.2111 111.149 37.2111C107.04 37.2111 105.038 33.2776 105.038 27.0278C105.038 21.5313 106.714 16.0895 109.527 16.0895C110.283 16.0895 111.204 16.3047 112.662 17.6523C112.825 17.8145 112.933 17.8676 113.096 17.8676C113.259 17.8676 113.42 17.7599 113.583 17.4901L115.043 15.1194C115.151 14.9587 115.204 14.7965 115.204 14.6343C115.204 14.419 114.988 14.2583 114.664 14.0962C112.446 12.9639 110.933 12.7486 109.635 12.7486C104.553 12.7486 100.605 18.7831 100.605 28.2131C100.605 36.3486 104.39 41.0371 109.798 41.0371C112.069 41.0371 114.502 39.9594 115.475 39.259C115.691 39.0969 115.746 38.8816 115.691 38.6663Z" fill="white"/>
<path d="M92.1894 25.5723L98.6789 13.7716C98.7869 13.6109 98.7322 13.3941 98.5161 13.3941H95.3261C94.4058 13.3941 94.0818 13.7185 93.7578 14.4188L88.8914 24.4946C88.6206 25.0873 88.3499 25.4647 88.0791 25.6269V13.7716C88.0791 13.5563 87.9711 13.3941 87.7551 13.3941H84.2396C84.0783 13.3941 83.9155 13.5563 83.9155 13.7716V40.0122C83.9155 40.1744 84.0235 40.3896 84.2396 40.3896H87.7551C87.9711 40.3896 88.0791 40.2275 88.0791 40.0122V26.4879C88.2419 26.5955 88.3499 26.7577 88.4579 26.973L94.6219 39.5817C94.9474 40.2275 95.4342 40.3896 96.137 40.3896H99.5977C99.8137 40.3896 99.8685 40.1744 99.759 40.0122L92.1894 25.5723Z" fill="white"/>
<path d="M55.3651 36.9958H47.5247C50.2827 32.3088 51.3643 27.0276 51.7431 20.5611C51.8511 19.1604 51.9043 17.7067 51.9043 16.7897H55.3651V36.9958ZM61.205 36.9958H60.557C59.7447 36.9958 59.5287 36.6729 59.5287 36.0256V13.7731C59.5287 13.5033 59.4207 13.3957 59.2046 13.3957H48.3903C48.1195 13.3957 47.9568 13.5564 47.9568 13.7731V15.7119C47.9568 22.2315 47.5795 30.6383 44.1187 36.9958H42.9276C42.6036 36.9958 42.4956 37.1579 42.4956 37.4263V45.2935C42.4956 45.5633 42.7116 45.6709 42.8744 45.6709H45.4696C46.0644 45.6709 46.2804 45.2404 46.2804 44.8629V40.3897H57.8523V45.2935C57.8523 45.5087 58.015 45.6709 58.2311 45.6709H60.989C61.3131 45.6709 61.6386 45.4011 61.6386 44.8629V37.4263C61.6386 37.1579 61.4758 36.9958 61.205 36.9958Z" fill="white"/>
<path d="M71.6411 24.4408C70.3983 24.4408 68.4511 24.656 68.4511 24.656C68.4511 24.656 68.4511 23.8481 68.5591 22.9856C69.0459 18.4062 70.1808 16.0885 72.0747 16.0885C73.8043 16.0885 74.8859 18.4593 75.1566 22.6096C75.2099 23.4706 75.2099 24.4408 75.2099 24.4408H71.6411ZM72.2359 12.7491C66.396 12.7491 63.8008 20.0767 63.8008 28.0515C63.8008 36.187 67.4776 41.0361 72.8855 41.0361C75.5339 41.0361 77.8599 40.0129 79.0494 39.2581C79.2655 39.1504 79.3202 38.9897 79.2655 38.773L78.8334 36.9418C78.7787 36.7266 78.6707 36.619 78.3999 36.619C78.1839 36.619 76.6155 37.2116 74.3991 37.2116C70.2355 37.2116 68.2884 33.6009 68.2884 28.8594V27.5841C68.2884 27.5841 70.3983 27.8362 71.6411 27.8362H79.5362V25.5731C79.5362 17.2208 76.5623 12.7491 72.2359 12.7491Z" fill="white"/>
</svg>
