<svg width="138" height="31" viewBox="0 0 138 31" fill="none" xmlns="http://www.w3.org/2000/svg">
<path d="M80.1836 25V6.51562H84.5381C86.5439 6.51562 88.1309 7.15885 89.2988 8.44531C90.4668 9.72331 91.0677 11.488 91.1016 13.7393V17.6113C91.1016 19.9303 90.5091 21.7415 89.3242 23.0449C88.1478 24.3483 86.4932 25 84.3604 25H80.1836ZM81.6309 7.88672V23.6543H84.4365C86.0869 23.6543 87.3649 23.1465 88.2705 22.1309C89.1761 21.1068 89.6416 19.6468 89.667 17.751V13.8789C89.667 11.9831 89.2227 10.5104 88.334 9.46094C87.4538 8.41146 86.1758 7.88672 84.5 7.88672H81.6309ZM96.2812 25H94.8594V11.2637H96.2812V25ZM94.6562 7.30273C94.6562 7.01497 94.7367 6.76953 94.8975 6.56641C95.0583 6.36328 95.2868 6.26172 95.583 6.26172C95.8792 6.26172 96.1077 6.36328 96.2686 6.56641C96.4378 6.76953 96.5225 7.01497 96.5225 7.30273C96.5225 7.59049 96.4378 7.83594 96.2686 8.03906C96.1077 8.23372 95.8792 8.33105 95.583 8.33105C95.2868 8.33105 95.0583 8.23372 94.8975 8.03906C94.7367 7.83594 94.6562 7.59049 94.6562 7.30273ZM105.574 12.584C105.236 12.5247 104.939 12.4951 104.686 12.4951C103.907 12.4951 103.251 12.7617 102.718 13.2949C102.193 13.8281 101.821 14.5687 101.601 15.5166V25H100.191V11.2637H101.575L101.601 13.3203C102.269 11.7799 103.319 11.0098 104.749 11.0098C105.121 11.0098 105.405 11.0648 105.6 11.1748L105.574 12.584ZM112.341 25.2539C110.724 25.2539 109.459 24.7249 108.545 23.667C107.631 22.609 107.165 21.1025 107.148 19.1475V17.4717C107.148 15.4574 107.589 13.8789 108.469 12.7363C109.349 11.5853 110.559 11.0098 112.1 11.0098C113.589 11.0098 114.723 11.4964 115.502 12.4697C116.289 13.443 116.691 14.9326 116.708 16.9385V18.2588H108.545V19.0332C108.545 20.6074 108.879 21.8219 109.548 22.6768C110.225 23.5316 111.177 23.959 112.404 23.959C113.758 23.959 114.854 23.4639 115.692 22.4736L116.429 23.4131C115.532 24.6403 114.169 25.2539 112.341 25.2539ZM112.1 12.3301C110.991 12.3301 110.136 12.7236 109.535 13.5107C108.943 14.2894 108.617 15.432 108.558 16.9385H115.299V16.5703C115.231 13.7435 114.165 12.3301 112.1 12.3301ZM124.059 23.9463C125.04 23.9463 125.794 23.6712 126.318 23.1211C126.843 22.571 127.127 21.7796 127.169 20.7471H128.527C128.46 22.152 128.011 23.2565 127.182 24.0605C126.352 24.8561 125.311 25.2539 124.059 25.2539C122.425 25.2539 121.189 24.7334 120.352 23.6924C119.522 22.6429 119.099 21.0898 119.082 19.0332V17.3574C119.082 15.2585 119.497 13.6758 120.326 12.6094C121.164 11.543 122.404 11.0098 124.046 11.0098C125.409 11.0098 126.483 11.4414 127.271 12.3047C128.058 13.1595 128.477 14.3571 128.527 15.8975H127.169C127.127 14.7633 126.839 13.8874 126.306 13.2695C125.772 12.6432 125.019 12.3301 124.046 12.3301C122.827 12.3301 121.93 12.7406 121.354 13.5615C120.787 14.3825 120.504 15.6436 120.504 17.3447V18.9062C120.504 20.6667 120.792 21.9489 121.367 22.7529C121.943 23.5485 122.84 23.9463 124.059 23.9463ZM133.644 7.75977V11.2637H135.992V12.5332H133.644V21.6611C133.644 22.4144 133.754 22.9772 133.974 23.3496C134.202 23.7135 134.579 23.8955 135.104 23.8955C135.332 23.8955 135.671 23.8532 136.119 23.7686L136.157 25.0381C135.836 25.182 135.374 25.2539 134.773 25.2539C133.123 25.2539 132.277 24.1198 132.234 21.8516V12.5332H130.114V11.2637H132.234V7.75977H133.644Z" fill="black"/>
<g clip-path="url(#clip0)">
<path d="M18.662 21.862C18.218 22.559 17.362 23.13 16.506 23.13C15.238 23.13 14.636 21.925 14.636 20.086C14.636 18.026 15.302 16.663 18.376 16.663H18.662V21.862ZM21.102 21.386V13.873C21.102 10.006 19.55 8.80098 16.728 8.80098C15.112 8.80098 13.653 9.46698 12.924 10.069L13.4 12.257C14.224 11.527 15.302 10.862 16.57 10.862C17.965 10.862 18.662 11.749 18.662 13.842V14.792H18.313C13.843 14.792 12.1 16.948 12.1 20.372C12.1 23.51 13.653 25.222 15.936 25.222C17.331 25.222 18.218 24.62 18.916 23.732H19.074C19.106 24.144 19.201 24.652 19.296 25H21.388C21.198 23.8047 21.1027 22.5963 21.103 21.386H21.102ZM26.65 12.606C27.22 11.813 28.109 11.02 29.155 11.02C30.105 11.02 30.645 11.432 30.645 12.637V25H33.149V12.415C33.149 9.97498 32.039 8.80098 29.947 8.80098C28.457 8.80098 27.253 9.78398 26.809 10.386H26.65V8.99098H24.178V25H26.65V12.605V12.606ZM40.44 25.222C41.74 25.222 42.627 24.62 43.325 23.732H43.483L43.673 25H45.512V2.33398H43.039V9.40398C42.564 9.05398 41.771 8.80098 41.01 8.80098C37.809 8.80098 35.59 11.686 35.59 17.614C35.59 22.559 37.302 25.222 40.44 25.222ZM43.04 21.893C42.627 22.527 41.961 23.13 40.725 23.13C38.918 23.13 38.221 20.847 38.221 17.107C38.221 13.842 39.171 10.83 41.169 10.83C41.993 10.83 42.532 11.084 43.039 11.59V21.893H43.04ZM57.146 23.923L56.576 22.02C55.941 22.464 54.926 23.098 53.532 23.098C51.567 23.098 50.552 21.196 50.552 17.582H57.209V16.22C57.209 10.8 55.466 8.80198 52.803 8.80198C49.411 8.80198 47.984 12.542 47.984 17.678C47.984 22.592 50.014 25.223 53.31 25.223C54.895 25.223 56.131 24.716 57.146 23.923ZM52.803 10.83C54.229 10.83 54.673 12.827 54.673 15.553H50.583C50.743 12.7 51.281 10.83 52.803 10.83ZM65.546 9.02298L63.359 14.824L61.299 9.02398H58.73L61.741 16.726L58.414 25H60.854L63.264 18.406L65.736 25H68.304L64.976 16.504L67.956 9.02398H65.546V9.02298Z" fill="black"/>
<path d="M8.02501 24.9998V16.9798L13.921 -0.0112305H11.417L6.82001 13.5558L2.82601 2.33377H0.100006L5.52001 16.8838V24.9998H8.02501Z" fill="#FF0000"/>
</g>
<defs>
<clipPath id="clip0">
<rect width="69" height="28" fill="white"/>
</clipPath>
</defs>
</svg>
