<svg width="40" height="12" viewBox="0 0 40 12" fill="none" xmlns="http://www.w3.org/2000/svg">
<path d="M12.6 3.9741C12.456 3.4341 12.03 3.0081 11.488 2.8621C10.508 2.6001 6.57604 2.6001 6.57604 2.6001C6.57604 2.6001 2.64604 2.6001 1.66404 2.8621C1.12404 3.0061 0.698039 3.4321 0.552039 3.9741C0.290039 4.9541 0.290039 7.0001 0.290039 7.0001C0.290039 7.0001 0.290039 9.0461 0.552039 10.0261C0.696039 10.5661 1.12204 10.9921 1.66404 11.1381C2.64604 11.4001 6.57604 11.4001 6.57604 11.4001C6.57604 11.4001 10.508 11.4001 11.488 11.1381C12.028 10.9941 12.454 10.5681 12.6 10.0261C12.862 9.0461 12.862 7.0001 12.862 7.0001C12.862 7.0001 12.862 4.9541 12.6 3.9741Z" fill="#FF0000"/>
<path d="M5.32007 8.88601L8.58607 7.00001L5.32007 5.11401V8.88601Z" fill="white"/>
<path d="M18.5381 10.6059C18.2901 10.4379 18.1121 10.1779 18.0081 9.82395C17.9041 9.46995 17.8501 8.99995 17.8501 8.41195V7.61195C17.8501 7.01795 17.9101 6.54195 18.0301 6.18195C18.1501 5.82195 18.3381 5.55995 18.5921 5.39595C18.8461 5.23195 19.1801 5.14795 19.5941 5.14795C20.0021 5.14795 20.3281 5.23195 20.5741 5.39995C20.8201 5.56795 21.0001 5.82995 21.1141 6.18595C21.2281 6.54195 21.2841 7.01795 21.2841 7.60995V8.40995C21.2841 8.99795 21.2281 9.46995 21.1181 9.82595C21.0081 10.1819 20.8281 10.4439 20.5781 10.6079C20.3301 10.7719 19.9921 10.8559 19.5661 10.8559C19.1301 10.8579 18.7861 10.7739 18.5381 10.6059ZM19.9321 9.74195C20.0001 9.56195 20.0361 9.26795 20.0361 8.86195V7.14395C20.0361 6.74795 20.0021 6.45995 19.9321 6.27595C19.8641 6.09395 19.7421 6.00195 19.5681 6.00195C19.4001 6.00195 19.2821 6.09395 19.2121 6.27595C19.1441 6.45795 19.1081 6.74795 19.1081 7.14395V8.86195C19.1081 9.26995 19.1401 9.56395 19.2061 9.74195C19.2721 9.92195 19.3921 10.0119 19.5661 10.0119C19.7421 10.0119 19.8621 9.92195 19.9321 9.74195Z" fill="white"/>
<path d="M37.6321 8.4261V8.7041C37.6321 9.0581 37.6421 9.3221 37.6641 9.5001C37.6841 9.6761 37.7281 9.8061 37.7941 9.8861C37.8601 9.9661 37.9621 10.0081 38.1001 10.0081C38.2861 10.0081 38.4141 9.9361 38.4821 9.7921C38.5501 9.6481 38.5881 9.4081 38.5941 9.0721L39.6641 9.1341C39.6701 9.1821 39.6721 9.2481 39.6721 9.3321C39.6721 9.8421 39.5321 10.2221 39.2541 10.4741C38.9761 10.7261 38.5821 10.8521 38.0721 10.8521C37.4601 10.8521 37.0321 10.6601 36.7861 10.2761C36.5401 9.8921 36.4181 9.3001 36.4181 8.4961V7.5341C36.4181 6.7061 36.5461 6.1041 36.8001 5.7221C37.0541 5.3421 37.4901 5.1521 38.1081 5.1521C38.5341 5.1521 38.8601 5.2301 39.0881 5.3861C39.3161 5.5421 39.4761 5.7841 39.5701 6.1141C39.6621 6.4441 39.7101 6.9001 39.7101 7.4801V8.4241H37.6321V8.4261ZM37.7901 6.1061C37.7281 6.1841 37.6861 6.3121 37.6641 6.4881C37.6421 6.6641 37.6321 6.9341 37.6321 7.2921V7.6881H38.5401V7.2921C38.5401 6.9381 38.5281 6.6701 38.5041 6.4881C38.4801 6.3061 38.4361 6.1761 38.3741 6.1021C38.3121 6.0281 38.2141 5.9901 38.0821 5.9901C37.9501 5.9881 37.8521 6.0281 37.7901 6.1061Z" fill="white"/>
<path d="M15.5181 8.32217L14.1061 3.22417H15.3381L15.8321 5.53417C15.9581 6.10417 16.0501 6.58817 16.1101 6.99017H16.1461C16.1881 6.70217 16.2801 6.22017 16.4241 5.54217L16.9361 3.22217H18.1681L16.7401 8.32217V10.7682H15.5181V8.32217Z" fill="white"/>
<path d="M25.2901 5.2561V10.7661H24.3201L24.2121 10.0921H24.1861C23.9221 10.6021 23.5261 10.8561 23.0001 10.8561C22.6341 10.8561 22.3641 10.7361 22.1901 10.4961C22.0161 10.2561 21.9301 9.8821 21.9301 9.3721V5.2561H23.1701V9.3021C23.1701 9.5481 23.1961 9.7241 23.2501 9.8281C23.3041 9.9321 23.3941 9.9861 23.5201 9.9861C23.6281 9.9861 23.7321 9.9541 23.8301 9.8881C23.9281 9.8221 24.0021 9.7381 24.0501 9.6361V5.2561H25.2901Z" fill="white"/>
<path d="M31.6541 5.2561V10.7661H30.6841L30.5761 10.0921H30.5501C30.2861 10.6021 29.8901 10.8561 29.3641 10.8561C28.9981 10.8561 28.7281 10.7361 28.5541 10.4961C28.3801 10.2561 28.2941 9.8821 28.2941 9.3721V5.2561H29.5341V9.3021C29.5341 9.5481 29.5601 9.7241 29.6141 9.8281C29.6681 9.9321 29.7581 9.9861 29.8841 9.9861C29.9921 9.9861 30.0961 9.9541 30.1941 9.8881C30.2921 9.8221 30.3661 9.7381 30.4141 9.6361V5.2561H31.6541Z" fill="white"/>
<path d="M28.662 4.22212H27.43V10.7661H26.216V4.22212H24.984V3.22412H28.66V4.22212H28.662Z" fill="white"/>
<path d="M35.7601 6.13805C35.6841 5.79005 35.5641 5.53804 35.3961 5.38205C35.2281 5.22605 34.9981 5.14805 34.7041 5.14805C34.4761 5.14805 34.2641 5.21204 34.0661 5.34204C33.8681 5.47004 33.7161 5.64005 33.6081 5.85004H33.5981V2.94604H32.4021V10.768H33.4261L33.5521 10.246H33.5781C33.6741 10.432 33.8181 10.578 34.0101 10.686C34.2021 10.794 34.4141 10.848 34.6481 10.848C35.0681 10.848 35.3761 10.654 35.5741 10.268C35.7721 9.88205 35.8701 9.27804 35.8701 8.45604V7.58404C35.8721 6.96804 35.8341 6.48605 35.7601 6.13805ZM34.6221 8.38604C34.6221 8.78804 34.6061 9.10205 34.5721 9.33005C34.5401 9.55805 34.4841 9.72005 34.4061 9.81605C34.3281 9.91205 34.2241 9.96004 34.0921 9.96004C33.9901 9.96004 33.8961 9.93604 33.8081 9.88804C33.7221 9.84004 33.6501 9.76805 33.5961 9.67205V6.54204C33.6381 6.39204 33.7101 6.27005 33.8121 6.17405C33.9141 6.07805 34.0241 6.03005 34.1441 6.03005C34.2701 6.03005 34.3681 6.08004 34.4361 6.17805C34.5041 6.27604 34.5521 6.44404 34.5801 6.67604C34.6061 6.91004 34.6201 7.24204 34.6201 7.67405V8.38604H34.6221Z" fill="white"/>
</svg>
