<svg width="84" height="34" viewBox="0 0 84 34" fill="none" xmlns="http://www.w3.org/2000/svg">
<g clip-path="url(#clip0)">
<path d="M25.0758 6.14074C24.7893 5.06116 23.9415 4.20949 22.8628 3.9176C20.9124 3.3938 13.0872 3.3938 13.0872 3.3938C13.0872 3.3938 5.26593 3.3938 3.31161 3.9176C2.23693 4.20549 1.38913 5.05716 1.09857 6.14074C0.577148 8.09999 0.577148 12.1904 0.577148 12.1904C0.577148 12.1904 0.577148 16.2808 1.09857 18.2401C1.38515 19.3197 2.23295 20.1714 3.31161 20.4632C5.26593 20.987 13.0872 20.987 13.0872 20.987C13.0872 20.987 20.9124 20.987 22.8628 20.4632C23.9375 20.1754 24.7853 19.3237 25.0758 18.2401C25.5973 16.2808 25.5972 12.1904 25.5972 12.1904C25.5972 12.1904 25.5973 8.09999 25.0758 6.14074Z" fill="#FF0000"/>
<path d="M10.5875 15.961L17.0873 12.1905L10.5875 8.41992V15.961Z" fill="white"/>
<path d="M36.8933 19.3996C36.3997 19.0637 36.0455 18.5439 35.8385 17.8362C35.6315 17.1285 35.524 16.1888 35.524 15.0133V13.4139C35.524 12.2264 35.6435 11.2747 35.8823 10.555C36.1211 9.83528 36.4952 9.31148 37.0007 8.9836C37.5062 8.65573 38.1709 8.48779 38.9949 8.48779C39.8068 8.48779 40.4556 8.65573 40.9452 8.9916C41.4348 9.32747 41.793 9.85127 42.0199 10.563C42.2467 11.2747 42.3582 12.2264 42.3582 13.4099V15.0093C42.3582 16.1848 42.2467 17.1285 42.0278 17.8402C41.8089 18.5519 41.4507 19.0757 40.9532 19.4036C40.4596 19.7315 39.7869 19.8994 38.9391 19.8994C38.0714 19.9034 37.3868 19.7355 36.8933 19.3996ZM39.6675 17.6723C39.8029 17.3124 39.8745 16.7246 39.8745 15.9129V12.4783C39.8745 11.6866 39.8068 11.1108 39.6675 10.7429C39.5322 10.3791 39.2894 10.1951 38.9431 10.1951C38.6088 10.1951 38.3739 10.3791 38.2346 10.7429C38.0993 11.1068 38.0276 11.6866 38.0276 12.4783V15.9129C38.0276 16.7286 38.0913 17.3164 38.2227 17.6723C38.354 18.0321 38.5928 18.2121 38.9391 18.2121C39.2894 18.2121 39.5282 18.0321 39.6675 17.6723Z" fill="white"/>
<path d="M74.8931 15.0413V15.5971C74.8931 16.3048 74.913 16.8326 74.9568 17.1885C74.9966 17.5404 75.0841 17.8003 75.2155 17.9602C75.3468 18.1202 75.5498 18.2041 75.8245 18.2041C76.1946 18.2041 76.4494 18.0602 76.5847 17.7723C76.72 17.4844 76.7957 17.0046 76.8076 16.3328L78.9371 16.4568C78.949 16.5528 78.953 16.6847 78.953 16.8526C78.953 17.8722 78.6744 18.632 78.1211 19.1358C77.5678 19.6396 76.7837 19.8915 75.7687 19.8915C74.5508 19.8915 73.699 19.5076 73.2094 18.7399C72.7198 17.9722 72.4771 16.7887 72.4771 15.1813V13.258C72.4771 11.6027 72.7318 10.3991 73.2373 9.63541C73.7428 8.8757 74.6105 8.49585 75.8404 8.49585C76.6882 8.49585 77.337 8.65179 77.7907 8.96367C78.2445 9.27555 78.5629 9.75936 78.75 10.4191C78.9331 11.0789 79.0286 11.9905 79.0286 13.1501V15.0373H74.8931V15.0413ZM75.2075 10.4031C75.0841 10.5591 75.0006 10.815 74.9568 11.1668C74.913 11.5187 74.8931 12.0585 74.8931 12.7742V13.5659H76.7001V12.7742C76.7001 12.0665 76.6763 11.5307 76.6285 11.1668C76.5807 10.803 76.4932 10.5431 76.3698 10.3951C76.2464 10.2472 76.0513 10.1712 75.7887 10.1712C75.526 10.1672 75.3309 10.2472 75.2075 10.4031Z" fill="white"/>
<path d="M30.8831 14.8335L28.073 4.64145H30.5249L31.508 9.25968C31.7587 10.3992 31.9418 11.3669 32.0612 12.1706H32.1329C32.2165 11.5948 32.3996 10.6311 32.6862 9.27567L33.7051 4.63745H36.157L33.315 14.8335V19.7237H30.8831V14.8335Z" fill="white"/>
<path d="M50.3308 8.70361V19.7194H48.4004L48.1854 18.3719H48.1337C47.6083 19.3915 46.8202 19.8993 45.7734 19.8993C45.045 19.8993 44.5076 19.6594 44.1614 19.1796C43.8151 18.6998 43.6439 17.9521 43.6439 16.9325V8.70361H46.1117V16.7925C46.1117 17.2843 46.1634 17.6362 46.2709 17.8441C46.3784 18.052 46.5575 18.16 46.8082 18.16C47.0232 18.16 47.2302 18.096 47.4252 17.9641C47.6202 17.8321 47.7675 17.6642 47.863 17.4602V8.70361H50.3308Z" fill="white"/>
<path d="M62.9961 8.70361V19.7194H61.0656L60.8507 18.3719H60.799C60.2736 19.3915 59.4855 19.8993 58.4387 19.8993C57.7103 19.8993 57.1729 19.6594 56.8266 19.1796C56.4804 18.6998 56.3092 17.9521 56.3092 16.9325V8.70361H58.777V16.7925C58.777 17.2843 58.8287 17.6362 58.9362 17.8441C59.0437 18.052 59.2228 18.16 59.4735 18.16C59.6885 18.16 59.8954 18.096 60.0905 17.9641C60.2855 17.8321 60.4328 17.6642 60.5283 17.4602V8.70361H62.9961Z" fill="white"/>
<path d="M57.0416 6.63659H54.5897V19.7196H52.1737V6.63659H49.7218V4.64136H57.0376V6.63659H57.0416Z" fill="white"/>
<path d="M71.1676 10.467C71.0164 9.77126 70.7776 9.26746 70.4432 8.95558C70.1089 8.6437 69.6512 8.48776 69.066 8.48776C68.6123 8.48776 68.1904 8.61571 67.7963 8.87561C67.4023 9.13151 67.0998 9.47138 66.8849 9.89122H66.865V4.08545H64.4847V19.7234H66.5226L66.7734 18.6798H66.8251C67.0162 19.0517 67.3028 19.3436 67.6849 19.5595C68.067 19.7754 68.4889 19.8834 68.9546 19.8834C69.7905 19.8834 70.4034 19.4955 70.7975 18.7238C71.1915 17.9521 71.3866 16.7446 71.3866 15.1012V13.3579C71.3905 12.1264 71.3149 11.1627 71.1676 10.467ZM68.9029 14.9613C68.9029 15.765 68.871 16.3927 68.8033 16.8485C68.7397 17.3044 68.6282 17.6282 68.473 17.8202C68.3178 18.0121 68.1108 18.1081 67.8481 18.1081C67.6451 18.1081 67.458 18.0601 67.2829 17.9641C67.1117 17.8682 66.9684 17.7242 66.861 17.5323V11.2747C66.9446 10.9748 67.0878 10.7309 67.2908 10.539C67.4938 10.347 67.7128 10.2511 67.9516 10.2511C68.2023 10.2511 68.3974 10.351 68.5327 10.547C68.668 10.7429 68.7635 11.0788 68.8193 11.5426C68.871 12.0104 68.8989 12.6741 68.8989 13.5378V14.9613H68.9029Z" fill="white"/>
</g>
<path d="M32.1863 33.1548C32.5619 33.1548 32.89 33.0429 33.1708 32.8191C33.4515 32.5952 33.6071 32.3154 33.6374 31.9796H34.6333C34.6144 32.3266 34.493 32.6568 34.2691 32.9702C34.0453 33.2836 33.7456 33.5335 33.37 33.7201C32.9982 33.9066 32.6036 33.9999 32.1863 33.9999C31.3478 33.9999 30.6801 33.7257 30.1831 33.1772C29.6898 32.625 29.4432 31.8714 29.4432 30.9163V30.7428C29.4432 30.1533 29.5533 29.6291 29.7733 29.1702C29.9934 28.7113 30.3083 28.355 30.718 28.1013C31.1315 27.8476 31.6191 27.7208 32.1806 27.7208C32.8711 27.7208 33.4439 27.9241 33.8992 28.3308C34.3583 28.7374 34.603 29.2654 34.6333 29.9145H33.6374C33.6071 29.5228 33.4553 29.2019 33.1822 28.952C32.9128 28.6983 32.5789 28.5714 32.1806 28.5714C31.6456 28.5714 31.2302 28.7617 30.9343 29.1422C30.6421 29.5191 30.4961 30.0656 30.4961 30.782V30.9779C30.4961 31.6755 30.6421 32.2128 30.9343 32.5896C31.2264 32.9664 31.6437 33.1548 32.1863 33.1548Z" fill="#E6E6E6"/>
<path d="M35.5382 30.8044C35.5382 30.2112 35.6558 29.6776 35.891 29.2038C36.13 28.73 36.4601 28.3644 36.8812 28.1069C37.3062 27.8495 37.7899 27.7208 38.3324 27.7208C39.1709 27.7208 39.8481 28.0062 40.3641 28.577C40.8838 29.1478 41.1437 29.9071 41.1437 30.8547V30.9275C41.1437 31.517 41.028 32.0468 40.7966 32.5169C40.5689 32.9832 40.2408 33.347 39.8121 33.6081C39.3871 33.8693 38.8977 33.9999 38.3438 33.9999C37.5091 33.9999 36.8319 33.7145 36.3122 33.1436C35.7962 32.5728 35.5382 31.8173 35.5382 30.8771V30.8044ZM36.5967 30.9275C36.5967 31.599 36.7541 32.1382 37.069 32.5448C37.3877 32.9515 37.8127 33.1548 38.3438 33.1548C38.8787 33.1548 39.3037 32.9496 39.6186 32.5392C39.9335 32.1251 40.0909 31.5468 40.0909 30.8044C40.0909 30.1403 39.9297 29.603 39.6072 29.1926C39.2885 28.7785 38.8636 28.5714 38.3324 28.5714C37.8127 28.5714 37.3934 28.7748 37.0747 29.1814C36.756 29.5881 36.5967 30.1701 36.5967 30.9275Z" fill="#E6E6E6"/>
<path d="M43.4542 27.8327L43.4827 28.5043C43.9342 27.9819 44.5431 27.7208 45.3095 27.7208C46.1707 27.7208 46.7569 28.0454 47.068 28.6945C47.2728 28.4035 47.5384 28.1685 47.8647 27.9894C48.1948 27.8103 48.5836 27.7208 49.0313 27.7208C50.382 27.7208 51.0687 28.424 51.0914 29.8306V33.888H50.0386V29.8922C50.0386 29.4594 49.9381 29.1367 49.737 28.924C49.5359 28.7076 49.1982 28.5994 48.724 28.5994C48.3332 28.5994 48.0088 28.7151 47.7509 28.9464C47.4929 29.174 47.343 29.4818 47.3013 29.8698V33.888H46.2428V29.9201C46.2428 29.0396 45.8046 28.5994 44.9282 28.5994C44.2377 28.5994 43.7653 28.8885 43.5111 29.4668V33.888H42.4583V27.8327H43.4542Z" fill="#E6E6E6"/>
<path d="M53.6751 27.8327L53.7035 28.5043C54.155 27.9819 54.7639 27.7208 55.5303 27.7208C56.3915 27.7208 56.9777 28.0454 57.2888 28.6945C57.4937 28.4035 57.7593 28.1685 58.0855 27.9894C58.4156 27.8103 58.8045 27.7208 59.2522 27.7208C60.6028 27.7208 61.2895 28.424 61.3123 29.8306V33.888H60.2595V29.8922C60.2595 29.4594 60.1589 29.1367 59.9578 28.924C59.7568 28.7076 59.4191 28.5994 58.9449 28.5994C58.5541 28.5994 58.2297 28.7151 57.9717 28.9464C57.7137 29.174 57.5639 29.4818 57.5221 29.8698V33.888H56.4636V29.9201C56.4636 29.0396 56.0254 28.5994 55.149 28.5994C54.4585 28.5994 53.9862 28.8885 53.732 29.4668V33.888H52.6792V27.8327H53.6751Z" fill="#E6E6E6"/>
<path d="M65.4609 33.9999C64.6263 33.9999 63.9472 33.7313 63.4236 33.194C62.9 32.653 62.6383 31.9311 62.6383 31.0282V30.8379C62.6383 30.2373 62.754 29.7019 62.9854 29.2318C63.2206 28.758 63.5469 28.3886 63.9642 28.1237C64.3854 27.8551 64.8406 27.7208 65.3301 27.7208C66.1306 27.7208 66.7528 27.9801 67.1967 28.4987C67.6406 29.0173 67.8625 29.7597 67.8625 30.726V31.1569H63.6911C63.7062 31.7539 63.8827 32.237 64.2203 32.6064C64.5618 32.972 64.9943 33.1548 65.5178 33.1548C65.8897 33.1548 66.2046 33.0802 66.4625 32.931C66.7205 32.7817 66.9463 32.584 67.1398 32.3378L67.7828 32.8302C67.2669 33.61 66.4929 33.9999 65.4609 33.9999ZM65.3301 28.5714C64.9051 28.5714 64.5485 28.7244 64.2602 29.0303C63.9718 29.3325 63.7935 29.7578 63.7252 30.3063H66.8097V30.2279C66.7793 29.7019 66.6352 29.2952 66.3772 29.0079C66.1192 28.7169 65.7701 28.5714 65.3301 28.5714Z" fill="#E6E6E6"/>
<path d="M70.082 27.8327L70.1161 28.5938C70.5865 28.0118 71.2012 27.7208 71.9599 27.7208C73.2613 27.7208 73.9176 28.4427 73.929 29.8866V33.888H72.8762V29.881C72.8724 29.4445 72.77 29.1217 72.5689 28.9128C72.3716 28.7039 72.0624 28.5994 71.6413 28.5994C71.2998 28.5994 71.0001 28.6889 70.7421 28.868C70.4841 29.0471 70.283 29.2822 70.1389 29.5732V33.888H69.086V27.8327H70.082Z" fill="#E6E6E6"/>
<path d="M76.9452 26.3665V27.8327H78.0947V28.633H76.9452V32.3881C76.9452 32.6306 76.9964 32.8135 77.0988 32.9366C77.2013 33.056 77.3758 33.1157 77.6224 33.1157C77.7438 33.1157 77.9107 33.0933 78.1232 33.0485V33.888C77.8462 33.9626 77.5769 33.9999 77.3151 33.9999C76.8446 33.9999 76.4899 33.86 76.2509 33.5802C76.0119 33.3003 75.8924 32.903 75.8924 32.3881V28.633H74.7713V27.8327H75.8924V26.3665H76.9452Z" fill="#E6E6E6"/>
<path d="M82.9149 32.2818C82.9149 32.002 82.8068 31.7856 82.5905 31.6326C82.3781 31.4759 82.0044 31.3416 81.4694 31.2297C80.9383 31.1178 80.5153 30.9834 80.2004 30.8268C79.8893 30.6701 79.6578 30.4835 79.5061 30.2671C79.3581 30.0507 79.2841 29.7933 79.2841 29.4948C79.2841 28.9986 79.4966 28.5789 79.9215 28.2356C80.3502 27.8924 80.8966 27.7208 81.5605 27.7208C82.2586 27.7208 82.8239 27.898 83.2564 28.2524C83.6927 28.6069 83.9108 29.0602 83.9108 29.6123H82.8523C82.8523 29.3288 82.729 29.0844 82.4824 28.8792C82.2396 28.674 81.9323 28.5714 81.5605 28.5714C81.1773 28.5714 80.8776 28.6535 80.6613 28.8177C80.4451 28.9818 80.337 29.1963 80.337 29.4612C80.337 29.7112 80.4375 29.8996 80.6386 30.0265C80.8396 30.1533 81.202 30.2746 81.7255 30.3902C82.2529 30.5059 82.6797 30.6439 83.006 30.8044C83.3323 30.9648 83.5732 31.1588 83.7287 31.3864C83.8881 31.6102 83.9677 31.8845 83.9677 32.2091C83.9677 32.75 83.7477 33.1847 83.3076 33.513C82.8675 33.8376 82.2965 33.9999 81.5946 33.9999C81.1014 33.9999 80.6651 33.9141 80.2857 33.7425C79.9063 33.5708 79.6085 33.3321 79.3923 33.0261C79.1798 32.7165 79.0736 32.3825 79.0736 32.0244H80.1264C80.1454 32.3713 80.2857 32.6474 80.5475 32.8526C80.8131 33.0541 81.1621 33.1548 81.5946 33.1548C81.993 33.1548 82.3117 33.0765 82.5507 32.9198C82.7935 32.7594 82.9149 32.5467 82.9149 32.2818Z" fill="#E6E6E6"/>
<defs>
<clipPath id="clip0">
<rect width="79.6058" height="23.9908" fill="white" transform="translate(0 0.194824)"/>
</clipPath>
</defs>
</svg>
