<svg width="294" height="294" viewBox="0 0 294 294" fill="none" xmlns="http://www.w3.org/2000/svg">
<g opacity="0.09" clip-path="url(#clip0)">
<path d="M181.454 0C119.396 0 68.9075 50.4882 68.9075 112.547C68.9075 138.931 78.0376 163.221 93.2986 182.431L80.5452 195.184L77.5001 192.139C72.4625 187.102 64.2661 187.102 59.2285 192.139C55.2583 196.109 54.4171 202.042 56.7048 206.844L6.29811 257.251C-2.09754 265.646 -2.09754 279.307 6.29811 287.703C14.6938 296.099 28.355 296.099 36.7507 287.703L87.1573 237.296C91.9589 239.585 97.8912 238.743 101.862 234.773C106.9 229.735 106.9 221.539 101.862 216.501L98.8168 213.456L111.57 200.703C130.781 215.964 155.07 225.094 181.454 225.094C243.513 225.094 294.001 174.606 294.001 112.547C294.001 50.4882 243.513 0 181.454 0ZM12.3889 281.612C8.4187 277.642 7.58034 271.711 9.86746 266.91L27.0912 284.134C22.2895 286.421 16.3584 285.583 12.3889 281.612ZM33.7056 278.567L27.6148 272.477L74.4544 225.637L80.5452 231.728L33.7056 278.567ZM95.7712 228.683C94.0922 230.362 91.36 230.362 89.6804 228.683L77.4995 216.502C75.8176 214.82 73.0907 214.82 71.4088 216.502L21.5241 266.386L15.4334 260.296L65.318 210.411C66.9999 208.729 66.9999 206.002 65.318 204.32C63.639 202.641 63.639 199.909 65.318 198.23C66.9971 196.55 69.7292 196.55 71.4088 198.23L95.7706 222.591C97.4508 224.271 97.4508 227.003 95.7712 228.683ZM92.7261 207.366L86.6353 201.275L98.9265 188.984C100.879 191.09 102.91 193.122 105.017 195.075L92.7261 207.366ZM181.454 216.48C124.145 216.48 77.5208 169.856 77.5208 112.547C77.5208 55.2375 124.145 8.61328 181.454 8.61328C238.764 8.61328 285.388 55.2375 285.388 112.547C285.388 169.856 238.764 216.48 181.454 216.48Z" fill="white"/>
<path d="M181.453 17.2266C159.321 17.2266 137.756 24.9843 120.73 39.0698C118.898 40.5864 118.641 43.3007 120.157 45.1336C121.674 46.9665 124.388 47.2232 126.221 45.7067C141.706 32.8953 161.321 25.8398 181.453 25.8398C229.264 25.8398 268.16 64.7363 268.16 112.547C268.16 160.357 229.264 199.254 181.453 199.254C133.643 199.254 94.7461 160.357 94.7461 112.547C94.7461 92.4148 101.802 72.7994 114.613 57.3139C116.129 55.4816 115.872 52.7667 114.04 51.2502C112.207 49.7337 109.493 49.9909 107.976 51.8232C93.8905 68.8494 86.1328 90.4148 86.1328 112.547C86.1328 165.107 128.893 207.867 181.453 207.867C234.013 207.867 276.773 165.107 276.773 112.547C276.773 59.9869 234.013 17.2266 181.453 17.2266Z" fill="white"/>
<path d="M129.773 116.852C122.649 116.852 116.854 122.648 116.854 129.772C116.854 136.897 122.649 142.692 129.773 142.692C136.898 142.692 142.693 136.897 142.693 129.772C142.693 127.78 142.24 125.892 141.431 124.206L158.66 106.977C160.346 107.785 162.234 108.24 164.227 108.24C166.219 108.24 168.107 107.786 169.794 106.977L187.022 124.206C186.214 125.892 185.76 127.78 185.76 129.773C185.76 136.897 191.555 142.693 198.68 142.693C205.804 142.693 211.6 136.897 211.6 129.773C211.6 127.781 211.146 125.893 210.337 124.206L227.566 106.978C229.252 107.786 231.14 108.24 233.133 108.24C240.257 108.24 246.053 102.445 246.053 95.3203C246.053 88.196 240.257 82.4004 233.133 82.4004C226.008 82.4004 220.213 88.196 220.213 95.3203C220.213 97.3123 220.667 99.2003 221.476 100.887L204.247 118.116C202.56 117.307 200.672 116.854 198.68 116.854C196.688 116.854 194.8 117.307 193.113 118.116L175.884 100.887C176.692 99.2009 177.146 97.3129 177.146 95.3209C177.146 88.1966 171.351 82.401 164.227 82.401C157.102 82.401 151.307 88.1966 151.307 95.3209C151.307 97.3129 151.76 99.2009 152.569 100.888L135.341 118.117C133.653 117.306 131.766 116.852 129.773 116.852ZM129.773 134.079C127.398 134.079 125.467 132.147 125.467 129.772C125.467 127.397 127.398 125.466 129.773 125.466C132.148 125.466 134.08 127.397 134.08 129.772C134.08 132.147 132.148 134.079 129.773 134.079ZM233.133 91.0125C235.508 91.0125 237.439 92.9442 237.439 95.3192C237.439 97.6941 235.508 99.6258 233.133 99.6258C230.758 99.6258 228.826 97.6941 228.826 95.3192C228.826 92.9442 230.758 91.0125 233.133 91.0125ZM198.68 125.466C201.055 125.466 202.986 127.397 202.986 129.772C202.986 132.147 201.055 134.079 198.68 134.079C196.305 134.079 194.373 132.147 194.373 129.772C194.373 127.397 196.305 125.466 198.68 125.466ZM164.227 91.0125C166.602 91.0125 168.533 92.9442 168.533 95.3192C168.533 97.6941 166.602 99.6258 164.227 99.6258C161.852 99.6258 159.92 97.6941 159.92 95.3192C159.92 92.9442 161.852 91.0125 164.227 91.0125Z" fill="white"/>
</g>
<defs>
<clipPath id="clip0">
<rect width="294" height="294" fill="white"/>
</clipPath>
</defs>
</svg>
