<svg width="1121" height="690" viewBox="0 0 1121 690" fill="none" xmlns="http://www.w3.org/2000/svg">
<g opacity="0.3" filter="url(#filter0_f)">
<path fill-rule="evenodd" clip-rule="evenodd" d="M875.311 186.619L889.287 149.028L849.744 155.72L857.759 165.406L837.312 182.324L846.85 193.851L867.297 176.933L875.311 186.619Z" fill="white"/>
</g>
<path opacity="0.5" fill-rule="evenodd" clip-rule="evenodd" d="M890.014 176.041L903.99 138.45L864.447 145.141L872.462 154.828L852.015 171.746L861.552 183.273L881.999 166.355L890.014 176.041Z" fill="white"/>
<g opacity="0.3" filter="url(#filter1_f)">
<path fill-rule="evenodd" clip-rule="evenodd" d="M276.081 239.04L276.812 250.219L287.991 250.95L287.859 265.161L282.744 265.209L282.832 255.745L271.995 255.036L271.286 244.199L261.822 244.287L261.87 239.172L276.081 239.04Z" fill="white"/>
</g>
<path opacity="0.3" fill-rule="evenodd" clip-rule="evenodd" d="M268.081 231.04L268.812 242.219L279.991 242.95L279.859 257.161L274.744 257.209L274.832 247.745L263.995 247.036L263.286 236.199L253.822 236.287L253.87 231.172L268.081 231.04Z" fill="white"/>
<g opacity="0.3" filter="url(#filter2_f)">
<path fill-rule="evenodd" clip-rule="evenodd" d="M1061.95 612.991L1061.22 601.813L1050.04 601.082L1050.17 586.87L1055.29 586.823L1055.2 596.286L1066.04 596.995L1066.74 607.832L1076.21 607.744L1076.16 612.86L1061.95 612.991Z" fill="white"/>
</g>
<path opacity="0.3" fill-rule="evenodd" clip-rule="evenodd" d="M1069.95 620.991L1069.22 609.813L1058.04 609.082L1058.17 594.87L1063.29 594.823L1063.2 604.286L1074.04 604.995L1074.74 615.832L1084.21 615.744L1084.16 620.86L1069.95 620.991Z" fill="white"/>
<g opacity="0.3" filter="url(#filter3_f)">
<path fill-rule="evenodd" clip-rule="evenodd" d="M1084.8 153.698L1083.69 170.686L1066.7 171.797L1066.9 193.393L1074.67 193.465L1074.54 179.084L1091.01 178.007L1092.08 161.538L1106.47 161.672L1106.39 153.898L1084.8 153.698Z" fill="white"/>
</g>
<path opacity="0.5" fill-rule="evenodd" clip-rule="evenodd" d="M1092.29 146.698L1091.18 163.686L1074.19 164.797L1074.39 186.393L1082.17 186.465L1082.03 172.084L1098.5 171.007L1099.58 154.538L1113.96 154.672L1113.89 146.898L1092.29 146.698Z" fill="white"/>
<path opacity="0.5" fill-rule="evenodd" clip-rule="evenodd" d="M57.2241 396.741L68.4556 392.411L74.5211 402.808L88.2913 396.285L85.8876 391.355L76.7177 395.699L70.8376 385.62L59.9495 389.817L55.5024 380.697L50.546 383.045L57.2241 396.741Z" fill="white"/>
<path opacity="0.5" fill-rule="evenodd" clip-rule="evenodd" d="M31.9803 154.621L22.0671 127.958L50.1145 132.705L44.4299 139.575L58.9328 151.575L52.1677 159.751L37.6648 147.751L31.9803 154.621Z" fill="white"/>
<g opacity="0.3" filter="url(#filter4_f)">
<path fill-rule="evenodd" clip-rule="evenodd" d="M39.9803 164.621L30.0671 137.958L58.1145 142.705L52.4299 149.575L66.9328 161.575L60.1677 169.751L45.6648 157.751L39.9803 164.621Z" fill="white"/>
</g>
<g opacity="0.3" filter="url(#filter5_f)">
<path fill-rule="evenodd" clip-rule="evenodd" d="M192.957 657.928L187.235 673.32L203.426 670.58L200.145 666.614L208.517 659.686L204.612 654.966L196.239 661.894L192.957 657.928Z" fill="white"/>
</g>
<path opacity="0.5" fill-rule="evenodd" clip-rule="evenodd" d="M182.957 665.928L177.235 681.32L193.426 678.58L190.145 674.614L198.517 667.686L194.612 662.966L186.239 669.894L182.957 665.928Z" fill="white"/>
<path opacity="0.3" fill-rule="evenodd" clip-rule="evenodd" d="M457.069 14.2723L449.729 6.93228L443.205 13.4568L436.272 6.5245L428.932 13.8646L435.865 20.7968L428.932 27.7291L436.272 35.0692L443.205 28.1369L449.729 34.6614L457.069 27.3213L450.545 20.7968L457.069 14.2723Z" fill="white"/>
<path opacity="0.6" fill-rule="evenodd" clip-rule="evenodd" d="M1008.64 406.691L1001.6 399.65L995.34 405.908L988.691 399.259L981.65 406.299L988.299 412.949L981.65 419.599L988.691 426.64L995.34 419.99L1001.6 426.249L1008.64 419.208L1002.38 412.949L1008.64 406.691Z" fill="white"/>
<path opacity="0.6" fill-rule="evenodd" clip-rule="evenodd" d="M35.3261 574.377L27.9323 566.983L21.36 573.555L14.3769 566.572L6.98305 573.966L13.9661 580.949L6.98308 587.932L14.3769 595.326L21.36 588.343L27.9323 594.915L35.3261 587.522L28.7538 580.949L35.3261 574.377Z" fill="white"/>
<path opacity="0.6" fill-rule="evenodd" clip-rule="evenodd" d="M784.663 49.1885L780.966 45.4915L777.68 48.7777L774.188 45.2862L770.492 48.9831L773.983 52.4746L770.492 55.9661L774.188 59.6631L777.68 56.1715L780.966 59.4577L784.663 55.7608L781.377 52.4746L784.663 49.1885Z" fill="white"/>
<defs>
<filter id="filter0_f" x="819.297" y="123.578" width="92.7733" height="89.959" filterUnits="userSpaceOnUse" color-interpolation-filters="sRGB">
<feFlood flood-opacity="0" result="BackgroundImageFix"/>
<feBlend mode="normal" in="SourceGraphic" in2="BackgroundImageFix" result="shape"/>
<feGaussianBlur stdDeviation="5" result="effect1_foregroundBlur"/>
</filter>
<filter id="filter1_f" x="249" y="222" width="56.031" height="56.031" filterUnits="userSpaceOnUse" color-interpolation-filters="sRGB">
<feFlood flood-opacity="0" result="BackgroundImageFix"/>
<feBlend mode="normal" in="SourceGraphic" in2="BackgroundImageFix" result="shape"/>
<feGaussianBlur stdDeviation="5" result="effect1_foregroundBlur"/>
</filter>
<filter id="filter2_f" x="1033" y="574" width="56.031" height="56.031" filterUnits="userSpaceOnUse" color-interpolation-filters="sRGB">
<feFlood flood-opacity="0" result="BackgroundImageFix"/>
<feBlend mode="normal" in="SourceGraphic" in2="BackgroundImageFix" result="shape"/>
<feGaussianBlur stdDeviation="5" result="effect1_foregroundBlur"/>
</filter>
<filter id="filter3_f" x="1046" y="133" width="74.7542" height="74.7542" filterUnits="userSpaceOnUse" color-interpolation-filters="sRGB">
<feFlood flood-opacity="0" result="BackgroundImageFix"/>
<feBlend mode="normal" in="SourceGraphic" in2="BackgroundImageFix" result="shape"/>
<feGaussianBlur stdDeviation="5" result="effect1_foregroundBlur"/>
</filter>
<filter id="filter4_f" x="11" y="117" width="71.6174" height="69.6213" filterUnits="userSpaceOnUse" color-interpolation-filters="sRGB">
<feFlood flood-opacity="0" result="BackgroundImageFix"/>
<feBlend mode="normal" in="SourceGraphic" in2="BackgroundImageFix" result="shape"/>
<feGaussianBlur stdDeviation="5" result="effect1_foregroundBlur"/>
</filter>
<filter id="filter5_f" x="172" y="641" width="49.7988" height="48.6464" filterUnits="userSpaceOnUse" color-interpolation-filters="sRGB">
<feFlood flood-opacity="0" result="BackgroundImageFix"/>
<feBlend mode="normal" in="SourceGraphic" in2="BackgroundImageFix" result="shape"/>
<feGaussianBlur stdDeviation="5" result="effect1_foregroundBlur"/>
</filter>
</defs>
</svg>
