<svg width="47" height="47" viewBox="0 0 47 47" fill="none" xmlns="http://www.w3.org/2000/svg">
<path d="M46.2167 0.437012H0.783333C0.350737 0.437012 0 0.787749 0 1.22035V32.5537C0 32.9863 0.350737 33.337 0.783333 33.337H14.928C14.9515 33.5979 14.9899 33.8548 15.0361 34.1094L10.7395 39.23C10.4612 39.5613 10.5042 40.0554 10.8355 40.3336C10.9288 40.4121 11.0392 40.4676 11.1578 40.4959L15.8876 41.6255L17.8216 46.0905C17.9936 46.4874 18.4547 46.6699 18.8517 46.498C18.9635 46.4496 19.0624 46.3758 19.1408 46.2824L23.4303 41.1703C23.4538 41.1703 23.4765 41.1703 23.5 41.1703C23.5235 41.1703 23.5462 41.1703 23.5697 41.1703L27.8592 46.2824C28.1371 46.6139 28.6312 46.6574 28.9628 46.3795C29.0561 46.3013 29.1299 46.2023 29.1784 46.0905L31.1124 41.6255L35.8422 40.4959C36.263 40.3956 36.523 39.9732 36.4227 39.5524C36.3945 39.4338 36.3389 39.3233 36.2605 39.23L31.9639 34.1094C32.0101 33.8548 32.0485 33.5979 32.072 33.337H46.2167C46.6493 33.337 47 32.9863 47 32.5537V1.22035C47 0.787651 46.6493 0.437012 46.2167 0.437012ZM18.7554 44.3037L17.1691 40.6455C17.0711 40.4193 16.8723 40.2525 16.6325 40.1951L12.755 39.2684L15.5672 35.9165C15.5821 35.951 15.6017 35.9823 15.6165 36.0168C15.7184 36.2518 15.8288 36.475 15.951 36.6967C16.0012 36.7892 16.0544 36.88 16.1077 36.9701C16.2153 37.1492 16.3291 37.3247 16.4492 37.4965C16.533 37.6164 16.6208 37.7315 16.7109 37.849C16.8158 37.9822 16.9239 38.1122 17.0375 38.2407C17.1511 38.3691 17.2835 38.5109 17.4143 38.641C17.5106 38.7373 17.6101 38.8305 17.712 38.9222C17.7966 39.0005 17.8725 39.0828 17.9611 39.1572C18.0496 39.2316 18.1326 39.2817 18.2172 39.3475C18.2556 39.3773 18.2885 39.4118 18.3277 39.4407C18.3981 39.494 18.4726 39.5402 18.5446 39.5911C18.6574 39.6695 18.7687 39.7541 18.8854 39.8261C19.1079 39.9687 19.3374 40.0987 19.57 40.2178C19.6593 40.2632 19.7502 40.3048 19.8411 40.3471C20.0499 40.4453 20.2601 40.5346 20.4716 40.615C20.5327 40.6377 20.5931 40.6635 20.6542 40.6847C20.9508 40.789 21.2532 40.8766 21.5597 40.9471L21.5683 40.9494L18.7554 44.3037ZM24.9711 39.4376C24.6118 39.5135 24.2473 39.5615 23.8807 39.581H23.8705C23.7467 39.5872 23.623 39.5958 23.4984 39.5958C23.3739 39.5958 23.2501 39.5872 23.1264 39.581H23.1162C22.7504 39.5614 22.3866 39.5137 22.0281 39.4384L21.9623 39.4251C21.8229 39.3945 21.685 39.3569 21.5487 39.3178C21.4915 39.3013 21.4336 39.2864 21.3772 39.2684C21.2793 39.2379 21.1829 39.2018 21.0866 39.1674C20.9902 39.1329 20.8986 39.0992 20.8061 39.0608C20.7489 39.0365 20.6925 39.0107 20.6361 38.9825C20.5077 38.9245 20.38 38.8658 20.2554 38.8008L20.1928 38.7663C19.8698 38.5936 19.5608 38.3961 19.2684 38.1757C19.1055 38.0542 18.9551 37.9203 18.8071 37.7879C18.632 37.6317 18.4648 37.4667 18.3065 37.2936C18.2438 37.2263 18.1765 37.162 18.1169 37.0923C17.8982 36.835 17.6986 36.5619 17.52 36.2753C17.4934 36.233 17.4707 36.1883 17.4417 36.1445C17.2751 35.8662 17.1286 35.5764 17.003 35.2773C16.9921 35.2507 16.9795 35.2241 16.9694 35.199C16.8306 34.8563 16.719 34.5033 16.6357 34.1431C16.6357 34.129 16.6247 34.118 16.6208 34.1039C16.507 33.595 16.4497 33.0751 16.45 32.5537C16.4477 28.66 19.6021 25.5018 23.4957 25.4994C27.3893 25.497 30.5476 28.6515 30.55 32.5451C30.5503 33.0724 30.4914 33.5982 30.3745 34.1124C30.3706 34.1257 30.3628 34.1375 30.3597 34.1508C30.2764 34.5106 30.1651 34.8634 30.0267 35.2059C30.0158 35.2334 30.0032 35.2608 29.9915 35.2843C29.8663 35.5815 29.7203 35.8694 29.5544 36.1459C29.5285 36.1898 29.505 36.236 29.4761 36.2799C29.2975 36.5661 29.0982 36.8389 28.8799 37.0961C28.8212 37.1651 28.7546 37.2277 28.6927 37.2951C28.5322 37.4698 28.363 37.6363 28.1859 37.7941C28.0371 37.9265 27.889 38.0604 27.7269 38.181C27.5647 38.3017 27.4198 38.4035 27.2616 38.5046L27.2522 38.51C27.1104 38.6001 26.9655 38.6832 26.8182 38.7615C26.7892 38.7772 26.761 38.7936 26.732 38.8085C26.6138 38.8704 26.497 38.926 26.3725 38.98C26.3098 39.0082 26.2479 39.0372 26.1845 39.0631C26.0968 39.0999 26.0075 39.132 25.9182 39.1641C25.8289 39.1962 25.7184 39.2378 25.6166 39.2691C25.5625 39.2863 25.5077 39.3012 25.4529 39.3169C25.3142 39.356 25.1748 39.3952 25.0338 39.425L24.9711 39.4376ZM34.245 39.2661L30.3675 40.1927C30.1277 40.2501 29.9289 40.417 29.8309 40.6432L28.2446 44.3037L25.4317 40.9518H25.4387C25.7464 40.8815 26.0498 40.7937 26.3474 40.6886C26.4062 40.6682 26.4626 40.6439 26.5213 40.6228C26.7399 40.5398 26.9553 40.4489 27.1668 40.3478C27.253 40.3079 27.3391 40.2695 27.4237 40.2256C27.6587 40.1034 27.8937 39.9711 28.1193 39.8261C28.2282 39.7572 28.3324 39.6797 28.4381 39.6052C28.5165 39.5512 28.5948 39.5018 28.6731 39.4447C28.7147 39.4133 28.7515 39.3765 28.7922 39.3444C28.8705 39.2802 28.9614 39.2261 29.0413 39.1587C29.1212 39.0914 29.2027 39.0021 29.2857 38.9284C29.3891 38.8344 29.4909 38.7397 29.5896 38.6417C29.7186 38.5128 29.8434 38.3801 29.9641 38.2438C30.0777 38.1153 30.1857 37.9853 30.2915 37.8521C30.3816 37.737 30.4693 37.6171 30.5531 37.4996C30.6738 37.3289 30.7881 37.1534 30.8939 36.9748C30.9487 36.8839 31.002 36.7923 31.0506 36.6991C31.1723 36.4782 31.2832 36.2523 31.3835 36.0215C31.3976 35.9815 31.4179 35.9494 31.4328 35.9142L34.245 39.2661ZM45.4333 31.7703H32.0767C31.6517 27.0331 27.4667 23.5374 22.7295 23.9626C18.5814 24.3348 15.294 27.6222 14.9217 31.7703H1.56667V2.00368H45.4333V31.7703Z" fill="#3C2458"/>
<path d="M3.91667 3.57031C3.48407 3.57031 3.13334 3.92105 3.13334 4.35365V7.48698H4.7V5.13698H7.05V3.57031H3.91667Z" fill="#3C2458"/>
<path d="M43.0833 3.57031H39.95V5.13698H42.3V7.48698H43.8667V4.35365C43.8667 3.92095 43.5159 3.57031 43.0833 3.57031Z" fill="#3C2458"/>
<path d="M42.3 26.2871V28.6371H39.95V30.2038H43.0833C43.5159 30.2038 43.8667 29.853 43.8667 29.4204V26.2871H42.3Z" fill="#3C2458"/>
<path d="M4.7 28.6371V26.2871H3.13334V29.4204C3.13334 29.853 3.48407 30.2038 3.91667 30.2038H7.05V28.6371H4.7Z" fill="#3C2458"/>
<path d="M32.9 9.05371H14.1V10.6204H32.9V9.05371Z" fill="#3C2458"/>
<path d="M37.6 13.7539H9.4V15.3206H37.6V13.7539Z" fill="#3C2458"/>
<path d="M23.5 27.0703C20.4716 27.0703 18.0167 29.5253 18.0167 32.5536C18.0201 35.5805 20.4731 38.0336 23.5 38.037C26.5284 38.037 28.9833 35.582 28.9833 32.5536C28.9833 29.5253 26.5284 27.0703 23.5 27.0703ZM23.5 36.4703C21.3369 36.4703 19.5833 34.7167 19.5833 32.5536C19.5859 30.3916 21.338 28.6395 23.5 28.637C25.6631 28.637 27.4167 30.3906 27.4167 32.5536C27.4167 34.7167 25.6631 36.4703 23.5 36.4703Z" fill="#3C2458"/>
</svg>
