<svg width="289" height="59" viewBox="0 0 289 59" fill="none" xmlns="http://www.w3.org/2000/svg">
<g filter="url(#filter0_di)">
<rect x="4.56421" y="11.1064" width="279.673" height="39.2523" rx="19.6262" fill="white"/>
<rect x="5.06421" y="11.6064" width="278.673" height="38.2523" rx="19.1262" stroke="white"/>
</g>
<path d="M95.1006 33.5284H94.195V36.6209H92.9473V29.3627H94.195V32.435H95.0067L97.4484 29.3627H98.9511L96.08 32.8509L99.1926 36.6209H97.6161L95.1006 33.5284Z" fill="#555555"/>
<path d="M102.634 34.803L104.324 29.3627H105.653L102.734 37.7412C102.283 38.9486 101.565 39.5524 100.581 39.5524L100.346 39.5323L99.8835 39.445V38.4388L100.219 38.4657C100.639 38.4657 100.966 38.3807 101.198 38.2107C101.435 38.0408 101.63 37.73 101.782 37.2783L102.057 36.5404L99.4676 29.3627H100.823L102.634 34.803Z" fill="#555555"/>
<path d="M112.703 36.6209H111.462V30.389H108.121V36.6209H106.873V29.3627H112.703V36.6209Z" fill="#555555"/>
<path d="M119.391 29.3627H120.632V36.6209H119.391V31.3282L116.043 36.6209H114.802V29.3627H116.043V34.6621L119.391 29.3627Z" fill="#555555"/>
<path d="M128.018 30.3689H125.582V36.6209H124.341V30.3689H121.953V29.3627H128.018V30.3689Z" fill="#555555"/>
<path d="M130.58 31.8648H132.465C133.288 31.8738 133.939 32.0884 134.417 32.5088C134.896 32.9292 135.135 33.4994 135.135 34.2194C135.135 34.9439 134.889 35.5252 134.397 35.9635C133.905 36.4018 133.243 36.6209 132.411 36.6209H129.339V29.3627H130.58V31.8648ZM130.58 32.8778V35.608H132.425C132.89 35.608 133.25 35.4895 133.505 35.2524C133.76 35.011 133.887 34.6823 133.887 34.2663C133.887 33.8639 133.762 33.5352 133.512 33.2802C133.266 33.0209 132.919 32.8867 132.472 32.8778H130.58Z" fill="#555555"/>
<path d="M144.271 34.9774L146.74 29.3627H148.29V36.6209H147.049V31.3416L144.701 36.6209H143.842L141.447 31.2275V36.6209H140.206V29.3627H141.816L144.271 34.9774Z" fill="#555555"/>
<path d="M154.77 36.6209C154.698 36.4778 154.64 36.2229 154.595 35.8562C154.018 36.4554 153.33 36.7551 152.529 36.7551C151.814 36.7551 151.226 36.5538 150.765 36.1513C150.309 35.7444 150.081 35.2301 150.081 34.6085C150.081 33.8527 150.367 33.2668 150.939 32.8509C151.516 32.4305 152.326 32.2204 153.368 32.2204H154.575V31.6502C154.575 31.2164 154.445 30.872 154.186 30.6171C153.927 30.3577 153.544 30.228 153.039 30.228C152.596 30.228 152.225 30.3398 151.925 30.5634C151.626 30.787 151.476 31.0576 151.476 31.3751H150.228C150.228 31.0129 150.356 30.6641 150.611 30.3287C150.87 29.9888 151.219 29.7204 151.657 29.5237C152.1 29.3269 152.585 29.2285 153.113 29.2285C153.949 29.2285 154.604 29.4387 155.078 29.8591C155.552 30.275 155.798 30.8497 155.816 31.5831V34.9237C155.816 35.5901 155.901 36.12 156.071 36.5136V36.6209H154.77ZM152.71 35.6751C153.099 35.6751 153.468 35.5744 153.817 35.3732C154.166 35.1719 154.419 34.9103 154.575 34.5883V33.0991H153.602C152.082 33.0991 151.322 33.5441 151.322 34.4341C151.322 34.8231 151.451 35.1272 151.711 35.3464C151.97 35.5655 152.303 35.6751 152.71 35.6751Z" fill="#555555"/>
<path d="M163.048 30.3689H160.613V36.6209H159.371V30.3689H156.983V29.3627H163.048V30.3689Z" fill="#555555"/>
<path d="M170.386 33.0723C170.386 34.1769 170.134 35.0669 169.628 35.7421C169.123 36.4174 168.439 36.7551 167.576 36.7551C166.695 36.7551 166.001 36.4756 165.496 35.9166V39.4115H164.255V29.3627H165.389L165.449 30.1677C165.954 29.5416 166.657 29.2285 167.555 29.2285C168.428 29.2285 169.116 29.5572 169.622 30.2146C170.131 30.872 170.386 31.7866 170.386 32.9583V33.0723ZM169.145 32.9314C169.145 32.113 168.971 31.4668 168.622 30.9928C168.273 30.5187 167.795 30.2817 167.187 30.2817C166.435 30.2817 165.872 30.6149 165.496 31.2812V34.7493C165.867 35.4112 166.435 35.7421 167.2 35.7421C167.795 35.7421 168.267 35.5074 168.615 35.0378C168.969 34.5637 169.145 33.8616 169.145 32.9314Z" fill="#555555"/>
<path d="M176.45 36.6209C176.379 36.4778 176.321 36.2229 176.276 35.8562C175.699 36.4554 175.01 36.7551 174.21 36.7551C173.494 36.7551 172.906 36.5538 172.446 36.1513C171.99 35.7444 171.761 35.2301 171.761 34.6085C171.761 33.8527 172.048 33.2668 172.62 32.8509C173.197 32.4305 174.006 32.2204 175.048 32.2204H176.256V31.6502C176.256 31.2164 176.126 30.872 175.867 30.6171C175.607 30.3577 175.225 30.228 174.72 30.228C174.277 30.228 173.906 30.3398 173.606 30.5634C173.307 30.787 173.157 31.0576 173.157 31.3751H171.909C171.909 31.0129 172.037 30.6641 172.291 30.3287C172.551 29.9888 172.9 29.7204 173.338 29.5237C173.781 29.3269 174.266 29.2285 174.794 29.2285C175.63 29.2285 176.285 29.4387 176.759 29.8591C177.233 30.275 177.479 30.8497 177.497 31.5831V34.9237C177.497 35.5901 177.582 36.12 177.752 36.5136V36.6209H176.45ZM174.391 35.6751C174.78 35.6751 175.149 35.5744 175.498 35.3732C175.847 35.1719 176.099 34.9103 176.256 34.5883V33.0991H175.283C173.763 33.0991 173.002 33.5441 173.002 34.4341C173.002 34.8231 173.132 35.1272 173.392 35.3464C173.651 35.5655 173.984 35.6751 174.391 35.6751Z" fill="#555555"/>
<path d="M182.354 35.7421C182.796 35.7421 183.183 35.608 183.514 35.3397C183.845 35.0713 184.028 34.7359 184.064 34.3334H185.238C185.216 34.7493 185.073 35.1451 184.809 35.5208C184.545 35.8964 184.192 36.1961 183.749 36.4197C183.311 36.6433 182.846 36.7551 182.354 36.7551C181.365 36.7551 180.578 36.4264 179.992 35.769C179.411 35.1071 179.12 34.2037 179.12 33.0589V32.8509C179.12 32.1443 179.25 31.516 179.509 30.9659C179.769 30.4159 180.14 29.9888 180.623 29.6847C181.11 29.3806 181.685 29.2285 182.347 29.2285C183.161 29.2285 183.836 29.4722 184.373 29.9597C184.914 30.4472 185.202 31.08 185.238 31.8581H184.064C184.028 31.3885 183.85 31.0039 183.528 30.7043C183.21 30.4002 182.817 30.2482 182.347 30.2482C181.716 30.2482 181.227 30.4762 180.878 30.9324C180.534 31.3841 180.361 32.0392 180.361 32.8979V33.1327C180.361 33.969 180.534 34.6129 180.878 35.0646C181.222 35.5163 181.714 35.7421 182.354 35.7421Z" fill="#555555"/>
<path d="M190.155 36.6209V29.3627H192.986C193.952 29.3627 194.692 29.5326 195.206 29.8725C195.725 30.2079 195.985 30.7021 195.985 31.355C195.985 31.6904 195.884 31.9945 195.683 32.2673C195.482 32.5356 195.184 32.7414 194.791 32.8845C195.229 32.9873 195.58 33.1886 195.844 33.4882C196.112 33.7878 196.246 34.1456 196.246 34.5615C196.246 35.2278 196 35.7377 195.508 36.091C195.021 36.4443 194.33 36.6209 193.436 36.6209H190.155ZM191.396 33.4345V35.6214H193.449C193.968 35.6214 194.355 35.5252 194.609 35.3329C194.869 35.1406 194.999 34.8701 194.999 34.5213C194.999 33.7968 194.466 33.4345 193.402 33.4345H191.396ZM191.396 32.4417H193C194.162 32.4417 194.744 32.1018 194.744 31.4221C194.744 30.7423 194.194 30.3913 193.093 30.3689H191.396V32.4417Z" fill="#555555"/>
<path d="M205.477 34.9774L207.945 29.3627H209.495V36.6209H208.254V31.3416L205.906 36.6209H205.047L202.653 31.2275V36.6209H201.412V29.3627H203.022L205.477 34.9774Z" fill="#555555"/>
<path d="M211.165 32.9247C211.165 32.2136 211.304 31.5741 211.581 31.0062C211.863 30.4382 212.252 30 212.748 29.6914C213.249 29.3828 213.819 29.2285 214.459 29.2285C215.447 29.2285 216.246 29.5706 216.854 30.2549C217.466 30.9391 217.773 31.8492 217.773 32.9851V33.0723C217.773 33.7789 217.636 34.4139 217.364 34.9774C217.095 35.5364 216.708 35.9725 216.203 36.2855C215.702 36.5986 215.125 36.7551 214.472 36.7551C213.488 36.7551 212.69 36.413 212.078 35.7287C211.469 35.0445 211.165 34.1389 211.165 33.0119V32.9247ZM212.413 33.0723C212.413 33.8773 212.599 34.5235 212.97 35.011C213.345 35.4984 213.846 35.7421 214.472 35.7421C215.103 35.7421 215.604 35.4962 215.975 35.0042C216.346 34.5078 216.532 33.8147 216.532 32.9247C216.532 32.1287 216.342 31.4847 215.962 30.9928C215.586 30.4964 215.085 30.2482 214.459 30.2482C213.846 30.2482 213.352 30.4919 212.976 30.9793C212.601 31.4668 212.413 32.1645 212.413 33.0723Z" fill="#555555"/>
<path d="M222.24 35.7421C222.683 35.7421 223.07 35.608 223.401 35.3397C223.732 35.0713 223.915 34.7359 223.951 34.3334H225.125C225.103 34.7493 224.959 35.1451 224.696 35.5208C224.432 35.8964 224.078 36.1961 223.636 36.4197C223.197 36.6433 222.732 36.7551 222.24 36.7551C221.252 36.7551 220.465 36.4264 219.879 35.769C219.298 35.1071 219.007 34.2037 219.007 33.0589V32.8509C219.007 32.1443 219.137 31.516 219.396 30.9659C219.656 30.4159 220.027 29.9888 220.51 29.6847C220.997 29.3806 221.572 29.2285 222.234 29.2285C223.048 29.2285 223.723 29.4722 224.26 29.9597C224.801 30.4472 225.089 31.08 225.125 31.8581H223.951C223.915 31.3885 223.736 31.0039 223.414 30.7043C223.097 30.4002 222.703 30.2482 222.234 30.2482C221.603 30.2482 221.113 30.4762 220.765 30.9324C220.42 31.3841 220.248 32.0392 220.248 32.8979V33.1327C220.248 33.969 220.42 34.6129 220.765 35.0646C221.109 35.5163 221.601 35.7421 222.24 35.7421Z" fill="#555555"/>
<path d="M228.781 33.5284H227.875V36.6209H226.628V29.3627H227.875V32.435H228.687L231.129 29.3627H232.631L229.76 32.8509L232.873 36.6209H231.296L228.781 33.5284Z" fill="#555555"/>
<path d="M234.053 36.6209V29.3627H236.884C237.85 29.3627 238.59 29.5326 239.105 29.8725C239.623 30.2079 239.883 30.7021 239.883 31.355C239.883 31.6904 239.782 31.9945 239.581 32.2673C239.38 32.5356 239.082 32.7414 238.689 32.8845C239.127 32.9873 239.478 33.1886 239.742 33.4882C240.01 33.7878 240.144 34.1456 240.144 34.5615C240.144 35.2278 239.899 35.7377 239.407 36.091C238.919 36.4443 238.228 36.6209 237.334 36.6209H234.053ZM235.294 33.4345V35.6214H237.347C237.866 35.6214 238.253 35.5252 238.508 35.3329C238.767 35.1406 238.897 34.8701 238.897 34.5213C238.897 33.7968 238.365 33.4345 237.3 33.4345H235.294ZM235.294 32.4417H236.898C238.06 32.4417 238.642 32.1018 238.642 31.4221C238.642 30.7423 238.092 30.3913 236.992 30.3689H235.294V32.4417Z" fill="#555555"/>
<path d="M244.8 36.7551C243.816 36.7551 243.016 36.4331 242.398 35.7891C241.781 35.1406 241.473 34.2753 241.473 33.193V32.965C241.473 32.245 241.609 31.6032 241.882 31.0397C242.159 30.4718 242.544 30.029 243.036 29.7115C243.532 29.3895 244.069 29.2285 244.646 29.2285C245.589 29.2285 246.323 29.5393 246.846 30.161C247.369 30.7826 247.631 31.6725 247.631 32.8308V33.3473H242.714C242.732 34.0629 242.94 34.642 243.338 35.0847C243.74 35.523 244.25 35.7421 244.867 35.7421C245.305 35.7421 245.676 35.6527 245.981 35.4738C246.285 35.2949 246.551 35.0579 246.779 34.7628L247.537 35.3531C246.929 36.2877 246.016 36.7551 244.8 36.7551ZM244.646 30.2482C244.145 30.2482 243.724 30.4315 243.385 30.7982C243.045 31.1605 242.834 31.6703 242.754 32.3277H246.39V32.2338C246.354 31.6032 246.184 31.1157 245.88 30.7714C245.576 30.4226 245.164 30.2482 244.646 30.2482Z" fill="#555555"/>
<g clip-path="url(#clip0)">
<path d="M44.7574 32.9474C44.7574 35.6716 42.5588 37.679 39.8607 37.679C37.1626 37.679 34.9641 35.6716 34.9641 32.9474C34.9641 30.204 37.1626 28.2158 39.8607 28.2158C42.5588 28.2158 44.7574 30.204 44.7574 32.9474ZM42.6138 32.9474C42.6138 31.2451 41.3396 30.0803 39.8607 30.0803C38.3818 30.0803 37.1076 31.2451 37.1076 32.9474C37.1076 34.6327 38.3818 35.8146 39.8607 35.8146C41.3396 35.8146 42.6138 34.6306 42.6138 32.9474Z" fill="#EA4335"/>
<path d="M55.3208 32.9474C55.3208 35.6716 53.1223 37.679 50.4242 37.679C47.7261 37.679 45.5276 35.6716 45.5276 32.9474C45.5276 30.2062 47.7261 28.2158 50.4242 28.2158C53.1223 28.2158 55.3208 30.204 55.3208 32.9474ZM53.1773 32.9474C53.1773 31.2451 51.9031 30.0803 50.4242 30.0803C48.9453 30.0803 47.6711 31.2451 47.6711 32.9474C47.6711 34.6327 48.9453 35.8146 50.4242 35.8146C51.9031 35.8146 53.1773 34.6306 53.1773 32.9474Z" fill="#FBBC05"/>
<path d="M65.4442 28.5017V36.9964C65.4442 40.4907 63.3183 41.9179 60.805 41.9179C58.4392 41.9179 57.0154 40.384 56.4784 39.1297L58.3446 38.3766C58.6769 39.1467 59.4912 40.0555 60.8028 40.0555C62.4116 40.0555 63.4085 39.0934 63.4085 37.2823V36.6017H63.3337C62.8539 37.1756 61.9296 37.6769 60.7632 37.6769C58.3226 37.6769 56.0867 35.6162 56.0867 32.9645C56.0867 30.2936 58.3226 28.2158 60.7632 28.2158C61.9274 28.2158 62.8517 28.7171 63.3337 29.2739H63.4085V28.5038H65.4442V28.5017ZM63.5603 32.9645C63.5603 31.2984 62.4138 30.0803 60.9547 30.0803C59.4758 30.0803 58.2368 31.2984 58.2368 32.9645C58.2368 34.6135 59.4758 35.8146 60.9547 35.8146C62.4138 35.8146 63.5603 34.6135 63.5603 32.9645Z" fill="#2C6DD8"/>
<path d="M68.8004 23.5225V37.3888H66.7097V23.5225H68.8004Z" fill="#34A853"/>
<path d="M76.9474 34.5049L78.6112 35.5801C78.0742 36.3502 76.7802 37.6771 74.5442 37.6771C71.7713 37.6771 69.7004 35.5993 69.7004 32.9455C69.7004 30.1317 71.7889 28.2139 74.3044 28.2139C76.8374 28.2139 78.0764 30.168 78.4813 31.2239L78.7036 31.7615L72.1785 34.3812C72.678 35.3305 73.4549 35.8147 74.5442 35.8147C75.6358 35.8147 76.3929 35.2942 76.9474 34.5049ZM71.8263 32.8025L76.1882 31.0469C75.9483 30.4559 75.2265 30.0442 74.377 30.0442C73.2876 30.0442 71.7713 30.9765 71.8263 32.8025Z" fill="#EA4335"/>
<path d="M27.0499 31.7161V29.7087H34.0284C34.0967 30.0585 34.1319 30.4724 34.1319 30.9204C34.1319 32.4264 33.7071 34.2888 32.3383 35.6157C31.0068 36.9597 29.3057 37.6764 27.0521 37.6764C22.8752 37.6764 19.3628 34.3784 19.3628 30.3294C19.3628 26.2805 22.8752 22.9824 27.0521 22.9824C29.3629 22.9824 31.009 23.8613 32.2459 25.0069L30.7846 26.4234C29.8977 25.617 28.6961 24.9898 27.0499 24.9898C23.9997 24.9898 21.6141 27.3727 21.6141 30.3294C21.6141 33.2862 23.9997 35.669 27.0499 35.669C29.0284 35.669 30.1552 34.8989 30.877 34.1992C31.4624 33.6317 31.8475 32.8211 31.9994 31.7139L27.0499 31.7161Z" fill="#2C6DD8"/>
</g>
<path d="M241.177 0.3125L247.976 12.0882H234.378L241.177 0.3125Z" fill="white"/>
<defs>
<filter id="filter0_di" x="0.564209" y="11.1064" width="287.673" height="47.2523" filterUnits="userSpaceOnUse" color-interpolation-filters="sRGB">
<feFlood flood-opacity="0" result="BackgroundImageFix"/>
<feColorMatrix in="SourceAlpha" type="matrix" values="0 0 0 0 0 0 0 0 0 0 0 0 0 0 0 0 0 0 127 0"/>
<feOffset dy="4"/>
<feGaussianBlur stdDeviation="2"/>
<feColorMatrix type="matrix" values="0 0 0 0 0 0 0 0 0 0 0 0 0 0 0 0 0 0 0.25 0"/>
<feBlend mode="normal" in2="BackgroundImageFix" result="effect1_dropShadow"/>
<feBlend mode="normal" in="SourceGraphic" in2="effect1_dropShadow" result="shape"/>
<feColorMatrix in="SourceAlpha" type="matrix" values="0 0 0 0 0 0 0 0 0 0 0 0 0 0 0 0 0 0 127 0" result="hardAlpha"/>
<feOffset dx="3" dy="3"/>
<feGaussianBlur stdDeviation="2"/>
<feComposite in2="hardAlpha" operator="arithmetic" k2="-1" k3="1"/>
<feColorMatrix type="matrix" values="0 0 0 0 0 0 0 0 0 0 0 0 0 0 0 0 0 0 0.09 0"/>
<feBlend mode="normal" in2="shape" result="effect2_innerShadow"/>
</filter>
<clipPath id="clip0">
<rect width="59.8598" height="19.6262" fill="white" transform="translate(19.2839 22.8828)"/>
</clipPath>
</defs>
</svg>
