<svg width="219" height="59" viewBox="0 0 219 59" fill="none" xmlns="http://www.w3.org/2000/svg">
<g filter="url(#filter0_di)">
<path d="M4.53857 31.2297C4.53857 20.3905 13.3255 11.6035 24.1647 11.6035H194.585C205.425 11.6035 214.211 20.3905 214.211 31.2297C214.211 42.0689 205.425 50.8559 194.585 50.8559H24.1647C13.3255 50.8559 4.53857 42.0689 4.53857 31.2297Z" fill="white"/>
<path d="M5.03857 31.2297C5.03857 20.6666 13.6016 12.1035 24.1647 12.1035H194.585C205.148 12.1035 213.711 20.6666 213.711 31.2297C213.711 41.7928 205.148 50.3559 194.585 50.3559H24.1647C13.6017 50.3559 5.03857 41.7928 5.03857 31.2297Z" stroke="white"/>
</g>
<path d="M95.0747 34.0255H94.1691V37.118H92.9214V29.8597H94.1691V32.9321H94.9808L97.4226 29.8597H98.9252L96.0541 33.348L99.1667 37.118H97.5903L95.0747 34.0255Z" fill="#555555"/>
<path d="M103.138 37.2521C102.154 37.2521 101.354 36.9302 100.736 36.2862C100.119 35.6377 99.8107 34.7724 99.8107 33.6901V33.462C99.8107 32.742 99.9471 32.1003 100.22 31.5368C100.497 30.9688 100.882 30.5261 101.374 30.2086C101.87 29.8866 102.407 29.7256 102.984 29.7256C103.927 29.7256 104.661 30.0364 105.184 30.658C105.707 31.2796 105.969 32.1696 105.969 33.3279V33.8444H101.052C101.07 34.5599 101.278 35.1391 101.676 35.5818C102.078 36.0201 102.588 36.2392 103.205 36.2392C103.643 36.2392 104.014 36.1498 104.319 35.9709C104.623 35.792 104.889 35.555 105.117 35.2598L105.875 35.8501C105.267 36.7848 104.354 37.2521 103.138 37.2521ZM102.984 30.7452C102.483 30.7452 102.062 30.9286 101.722 31.2953C101.383 31.6575 101.172 32.1674 101.092 32.8248H104.728V32.7308C104.692 32.1003 104.522 31.6128 104.218 31.2685C103.914 30.9196 103.502 30.7452 102.984 30.7452Z" fill="#555555"/>
<path d="M113.348 37.118H112.107V30.8861H108.766V37.118H107.518V29.8597H113.348V37.118Z" fill="#555555"/>
<path d="M117.601 34.0255H116.695V37.118H115.447V29.8597H116.695V32.9321H117.507L119.949 29.8597H121.451L118.58 33.348L121.693 37.118H120.116L117.601 34.0255Z" fill="#555555"/>
<path d="M127.455 29.8597H128.696V37.118H127.455V31.8252L124.108 37.118H122.867V29.8597H124.108V35.1592L127.455 29.8597Z" fill="#555555"/>
<path d="M136.531 32.5095L138.141 29.8597H139.59L137.215 33.4486L139.664 37.118H138.228L136.551 34.4012L134.874 37.118H133.432L135.88 33.4486L133.506 29.8597H134.941L136.531 32.5095Z" fill="#555555"/>
<path d="M143.286 35.3001L144.977 29.8597H146.305L143.387 38.2382C142.935 39.4457 142.217 40.0494 141.234 40.0494L140.999 40.0293L140.536 39.9421V38.9359L140.871 38.9627C141.292 38.9627 141.618 38.8778 141.851 38.7078C142.088 38.5379 142.282 38.2271 142.434 37.7754L142.709 37.0375L140.12 29.8597H141.475L143.286 35.3001Z" fill="#555555"/>
<path d="M153.087 29.8597V37.118H151.839V30.8861H149.371L149.223 33.6029C149.143 34.8506 148.932 35.7428 148.592 36.2795C148.257 36.8161 147.723 37.0956 146.989 37.118H146.493V36.0246L146.848 35.9977C147.251 35.953 147.539 35.7204 147.714 35.3001C147.888 34.8797 148 34.1015 148.049 32.9656L148.183 29.8597H153.087Z" fill="#555555"/>
<path d="M159.775 29.8597H161.016V37.118H159.775V31.8252L156.428 37.118H155.187V29.8597H156.428V35.1592L159.775 29.8597Z" fill="#555555"/>
<path d="M167.697 30.8861H164.35V37.118H163.102V29.8597H167.697V30.8861Z" fill="#555555"/>
<path d="M173.258 37.118C173.187 36.9749 173.129 36.72 173.084 36.3533C172.507 36.9525 171.818 37.2521 171.018 37.2521C170.302 37.2521 169.714 37.0509 169.254 36.6484C168.797 36.2414 168.569 35.7272 168.569 35.1055C168.569 34.3497 168.856 33.7639 169.428 33.348C170.005 32.9276 170.814 32.7174 171.856 32.7174H173.064V32.1472C173.064 31.7134 172.934 31.3691 172.675 31.1142C172.415 30.8548 172.033 30.7251 171.528 30.7251C171.085 30.7251 170.714 30.8369 170.414 31.0605C170.114 31.2841 169.965 31.5547 169.965 31.8722H168.717C168.717 31.51 168.844 31.1611 169.099 30.8257C169.359 30.4858 169.707 30.2175 170.146 30.0207C170.588 29.824 171.074 29.7256 171.601 29.7256C172.438 29.7256 173.093 29.9358 173.567 30.3562C174.041 30.7721 174.287 31.3467 174.305 32.0802V35.4208C174.305 36.0872 174.39 36.6171 174.56 37.0107V37.118H173.258ZM171.199 36.1721C171.588 36.1721 171.957 36.0715 172.306 35.8703C172.655 35.669 172.907 35.4074 173.064 35.0854V33.5962H172.091C170.571 33.5962 169.81 34.0412 169.81 34.9311C169.81 35.3202 169.94 35.6243 170.199 35.8434C170.459 36.0626 170.792 36.1721 171.199 36.1721Z" fill="#555555"/>
<path d="M182.18 37.118H180.939V34.0188H177.605V37.118H176.358V29.8597H177.605V33.0059H180.939V29.8597H182.18V37.118Z" fill="#555555"/>
<path d="M186.44 34.0255H185.534V37.118H184.287V29.8597H185.534V32.9321H186.346L188.788 29.8597H190.29L187.419 33.348L190.532 37.118H188.955L186.44 34.0255Z" fill="#555555"/>
<path d="M196.294 29.8597H197.535V37.118H196.294V31.8252L192.947 37.118H191.706V29.8597H192.947V35.1592L196.294 29.8597Z" fill="#555555"/>
<g clip-path="url(#clip0)">
<path d="M44.7315 33.4445C44.7315 36.1687 42.5329 38.1761 39.8349 38.1761C37.1368 38.1761 34.9382 36.1687 34.9382 33.4445C34.9382 30.7011 37.1368 28.7129 39.8349 28.7129C42.5329 28.7129 44.7315 30.7011 44.7315 33.4445ZM42.588 33.4445C42.588 31.7421 41.3137 30.5774 39.8349 30.5774C38.356 30.5774 37.0817 31.7421 37.0817 33.4445C37.0817 35.1298 38.356 36.3116 39.8349 36.3116C41.3137 36.3116 42.588 35.1277 42.588 33.4445Z" fill="#EA4335"/>
<path d="M55.2949 33.4445C55.2949 36.1687 53.0964 38.1761 50.3983 38.1761C47.7002 38.1761 45.5017 36.1687 45.5017 33.4445C45.5017 30.7032 47.7002 28.7129 50.3983 28.7129C53.0964 28.7129 55.2949 30.7011 55.2949 33.4445ZM53.1514 33.4445C53.1514 31.7421 51.8772 30.5774 50.3983 30.5774C48.9194 30.5774 47.6452 31.7421 47.6452 33.4445C47.6452 35.1298 48.9194 36.3116 50.3983 36.3116C51.8772 36.3116 53.1514 35.1277 53.1514 33.4445Z" fill="#FBBC05"/>
<path d="M65.4183 28.9988V37.4935C65.4183 40.9878 63.2924 42.4149 60.7792 42.4149C58.4134 42.4149 56.9895 40.8811 56.4525 39.6267L58.3187 38.8737C58.6511 39.6438 59.4653 40.5526 60.777 40.5526C62.3857 40.5526 63.3826 39.5905 63.3826 37.7793V37.0988H63.3078C62.828 37.6727 61.9037 38.174 60.7373 38.174C58.2967 38.174 56.0608 36.1132 56.0608 33.4616C56.0608 30.7907 58.2967 28.7129 60.7373 28.7129C61.9015 28.7129 62.8258 29.2142 63.3078 29.771H63.3826V29.0009H65.4183V28.9988ZM63.5345 33.4616C63.5345 31.7955 62.3879 30.5774 60.9288 30.5774C59.4499 30.5774 58.2109 31.7955 58.2109 33.4616C58.2109 35.1106 59.4499 36.3116 60.9288 36.3116C62.3879 36.3116 63.5345 35.1106 63.5345 33.4616Z" fill="#2C6DD8"/>
<path d="M68.7745 24.0195V37.8858H66.6838V24.0195H68.7745Z" fill="#34A853"/>
<path d="M76.9216 35.002L78.5853 36.0771C78.0483 36.8473 76.7543 38.1742 74.5184 38.1742C71.7454 38.1742 69.6746 36.0963 69.6746 33.4425C69.6746 30.6288 71.7631 28.7109 74.2785 28.7109C76.8115 28.7109 78.0505 30.665 78.4555 31.721L78.6777 32.2586L72.1526 34.8782C72.6521 35.8276 73.429 36.3118 74.5184 36.3118C75.6099 36.3118 76.367 35.7913 76.9216 35.002ZM71.8005 33.2996L76.1623 31.5439C75.9224 30.953 75.2006 30.5413 74.3511 30.5413C73.2617 30.5413 71.7454 31.4735 71.8005 33.2996Z" fill="#EA4335"/>
<path d="M27.0241 32.2131V30.2057H34.0026C34.0708 30.5556 34.106 30.9694 34.106 31.4174C34.106 32.9235 33.6813 34.7859 32.3124 36.1128C30.981 37.4567 29.2798 38.1735 27.0263 38.1735C22.8493 38.1735 19.3369 34.8755 19.3369 30.8265C19.3369 26.7775 22.8493 23.4795 27.0263 23.4795C29.337 23.4795 30.9832 24.3584 32.22 25.504L30.7587 26.9205C29.8718 26.1141 28.6702 25.4869 27.0241 25.4869C23.9738 25.4869 21.5883 27.8698 21.5883 30.8265C21.5883 33.7832 23.9738 36.1661 27.0241 36.1661C29.0025 36.1661 30.1293 35.396 30.8511 34.6963C31.4365 34.1288 31.8216 33.3182 31.9735 32.211L27.0241 32.2131Z" fill="#2C6DD8"/>
</g>
<path d="M36.9218 0.80957L43.7205 12.5853H30.1231L36.9218 0.80957Z" fill="white"/>
<defs>
<filter id="filter0_di" x="0.538574" y="11.6035" width="217.673" height="47.2523" filterUnits="userSpaceOnUse" color-interpolation-filters="sRGB">
<feFlood flood-opacity="0" result="BackgroundImageFix"/>
<feColorMatrix in="SourceAlpha" type="matrix" values="0 0 0 0 0 0 0 0 0 0 0 0 0 0 0 0 0 0 127 0"/>
<feOffset dy="4"/>
<feGaussianBlur stdDeviation="2"/>
<feColorMatrix type="matrix" values="0 0 0 0 0 0 0 0 0 0 0 0 0 0 0 0 0 0 0.25 0"/>
<feBlend mode="normal" in2="BackgroundImageFix" result="effect1_dropShadow"/>
<feBlend mode="normal" in="SourceGraphic" in2="effect1_dropShadow" result="shape"/>
<feColorMatrix in="SourceAlpha" type="matrix" values="0 0 0 0 0 0 0 0 0 0 0 0 0 0 0 0 0 0 127 0" result="hardAlpha"/>
<feOffset dx="3" dy="3"/>
<feGaussianBlur stdDeviation="2"/>
<feComposite in2="hardAlpha" operator="arithmetic" k2="-1" k3="1"/>
<feColorMatrix type="matrix" values="0 0 0 0 0 0 0 0 0 0 0 0 0 0 0 0 0 0 0.09 0"/>
<feBlend mode="normal" in2="shape" result="effect2_innerShadow"/>
</filter>
<clipPath id="clip0">
<rect width="59.8598" height="19.6262" fill="white" transform="translate(19.2581 23.3799)"/>
</clipPath>
</defs>
</svg>
