<svg width="233" height="55" viewBox="0 0 233 55" fill="none" xmlns="http://www.w3.org/2000/svg">
<g filter="url(#filter0_di)">
<path d="M4.94336 19.9269C4.94336 9.08772 13.7303 0.300781 24.5695 0.300781H208.719C219.558 0.300781 228.345 9.08772 228.345 19.9269C228.345 30.7662 219.558 39.5531 208.719 39.5531H24.5695C13.7303 39.5531 4.94336 30.7662 4.94336 19.9269Z" fill="white"/>
<path d="M5.44336 19.9269C5.44336 9.36386 14.0064 0.800781 24.5695 0.800781H208.719C219.282 0.800781 227.845 9.36386 227.845 19.9269C227.845 30.49 219.282 39.0531 208.719 39.0531H24.5695C14.0064 39.0531 5.44336 30.49 5.44336 19.9269Z" stroke="white"/>
</g>
<g clip-path="url(#clip0)">
<path d="M25.1317 19.494H24.171C22.6615 19.494 21.1977 18.3907 21.1977 15.6317C21.1977 12.7582 22.5701 11.5857 23.9651 11.5857H25.1317V19.494ZM26.6412 10.1144H24.034C21.4718 10.1144 19.2995 12.0688 19.2995 15.8619C19.2995 18.1378 20.3515 19.8161 22.2272 20.6433L18.7275 26.9885C18.613 27.1954 18.7275 27.3564 18.9102 27.3564H20.5343C20.6713 27.3564 20.7633 27.3105 20.809 27.1954L23.9883 20.9654H25.1317V27.1954C25.1317 27.2646 25.2005 27.3564 25.2919 27.3564H26.71C26.8471 27.3564 26.8928 27.2873 26.8928 27.1728V10.344C26.8928 10.1835 26.8014 10.1144 26.6412 10.1144Z" fill="#ED1E24"/>
<path d="M35.2385 15.8299H33.8203C33.7058 15.8299 33.6376 15.9217 33.6376 15.9909V20.3816H31.0072V15.9909C31.0072 15.8758 30.9615 15.8299 30.847 15.8299H29.4288C29.3149 15.8299 29.2461 15.8991 29.2461 15.9909V27.164C29.2461 27.2785 29.2918 27.3477 29.4057 27.3477H30.847C30.9384 27.3477 31.0072 27.2785 31.0072 27.164V21.8303H33.6376V27.164C33.6376 27.2785 33.7058 27.3477 33.8203 27.3477H35.2385C35.353 27.3477 35.3987 27.2552 35.3987 27.164V15.9909C35.3987 15.8991 35.3298 15.8299 35.2385 15.8299Z" fill="#231F20"/>
<path d="M67.6164 26.6115L67.4336 25.8303C67.4105 25.7611 67.3879 25.7378 67.3191 25.7378C67.2046 25.7378 66.5875 25.9907 65.6951 25.9907C63.9571 25.9907 63.1104 24.3124 63.1104 21.6459C63.1104 19.3008 63.8194 16.979 65.0091 16.979C65.3289 16.979 65.7182 17.0708 66.3353 17.6458C66.4041 17.715 66.4498 17.7376 66.5187 17.7376C66.5875 17.7376 66.6557 17.6917 66.7245 17.5766L67.3422 16.5651C67.3879 16.4965 67.4105 16.4273 67.4105 16.3581C67.4105 16.2663 67.3191 16.1977 67.182 16.1285C66.2439 15.6454 65.6037 15.5536 65.0548 15.5536C62.9051 15.5536 61.2354 18.1283 61.2354 22.1516C61.2354 25.6227 62.8362 27.623 65.1237 27.623C66.0843 27.623 67.1132 27.1632 67.525 26.8644C67.6164 26.7952 67.6395 26.7034 67.6164 26.6115Z" fill="#231F20"/>
<path d="M57.6757 21.0258L60.4206 15.9909C60.4663 15.9223 60.4431 15.8299 60.3518 15.8299H59.0025C58.6132 15.8299 58.4761 15.9682 58.3391 16.267L56.2807 20.5659C56.1662 20.8188 56.0517 20.9798 55.9371 21.049V15.9909C55.9371 15.8991 55.8914 15.8299 55.8001 15.8299H54.3131C54.2449 15.8299 54.176 15.8991 54.176 15.9909V27.1866C54.176 27.2558 54.2217 27.3477 54.3131 27.3477H55.8001C55.8914 27.3477 55.9371 27.2785 55.9371 27.1866V21.4164C56.006 21.4623 56.0517 21.5315 56.0973 21.6234L58.7046 27.0029C58.8422 27.2785 59.0481 27.3477 59.3454 27.3477H60.8092C60.9006 27.3477 60.9238 27.2558 60.8775 27.1866L57.6757 21.0258Z" fill="#231F20"/>
<path d="M42.0998 25.8993H38.7835C39.95 23.8996 40.4075 21.6463 40.5677 18.8873C40.6134 18.2897 40.6359 17.6695 40.6359 17.2782H42.0998V25.8993ZM44.5699 25.8993H44.2958C43.9522 25.8993 43.8609 25.7615 43.8609 25.4854V15.9912C43.8609 15.8761 43.8152 15.8302 43.7238 15.8302H39.1496C39.035 15.8302 38.9662 15.8988 38.9662 15.9912V16.8184C38.9662 19.6 38.8066 23.1869 37.3428 25.8993H36.839C36.7019 25.8993 36.6562 25.9685 36.6562 26.083V29.4396C36.6562 29.5547 36.7476 29.6006 36.8165 29.6006H37.9142C38.1658 29.6006 38.2571 29.4169 38.2571 29.2559V27.3474H43.1518V29.4396C43.1518 29.5314 43.2206 29.6006 43.312 29.6006H44.4786C44.6156 29.6006 44.7533 29.4855 44.7533 29.2559V26.083C44.7533 25.9685 44.6845 25.8993 44.5699 25.8993Z" fill="#231F20"/>
<path d="M48.9843 20.5425C48.4586 20.5425 47.635 20.6344 47.635 20.6344C47.635 20.6344 47.635 20.2897 47.6807 19.9217C47.8866 17.9679 48.3666 16.979 49.1676 16.979C49.8992 16.979 50.3567 17.9905 50.4712 19.7613C50.4938 20.1286 50.4938 20.5425 50.4938 20.5425H48.9843ZM49.2358 15.5542C46.7657 15.5542 45.668 18.6806 45.668 22.0831C45.668 25.5541 47.2232 27.623 49.5106 27.623C50.6308 27.623 51.6146 27.1865 52.1178 26.8644C52.2092 26.8185 52.2323 26.7499 52.2092 26.6575L52.0264 25.8762C52.0033 25.7844 51.9576 25.7384 51.8431 25.7384C51.7517 25.7384 51.0883 25.9913 50.1508 25.9913C48.3897 25.9913 47.5661 24.4508 47.5661 22.4278V21.8837C47.5661 21.8837 48.4586 21.9912 48.9843 21.9912H52.3237V21.0256C52.3237 17.4621 51.0658 15.5542 49.2358 15.5542Z" fill="#231F20"/>
</g>
<path d="M79.7788 22.7228H78.8732V25.8152H77.6255V18.557H78.8732V21.6293H79.6849L82.1267 18.557H83.6293L80.7582 22.0453L83.8708 25.8152H82.2944L79.7788 22.7228Z" fill="#555555"/>
<path d="M85.0514 25.8152V18.557H87.8823C88.8482 18.557 89.5884 18.7269 90.1027 19.0668C90.6214 19.4022 90.8808 19.8964 90.8808 20.5493C90.8808 20.8847 90.7802 21.1888 90.5789 21.4616C90.3777 21.73 90.0803 21.9357 89.6868 22.0788C90.125 22.1816 90.4761 22.3829 90.7399 22.6825C91.0083 22.9822 91.1424 23.3399 91.1424 23.7558C91.1424 24.4222 90.8965 24.932 90.4045 25.2853C89.9171 25.6386 89.2261 25.8152 88.3317 25.8152H85.0514ZM86.2924 22.6289V24.8157H88.3451C88.8639 24.8157 89.2507 24.7196 89.5056 24.5273C89.765 24.335 89.8947 24.0644 89.8947 23.7156C89.8947 22.9911 89.3625 22.6289 88.2982 22.6289H86.2924ZM86.2924 21.6361H87.8957C89.0584 21.6361 89.6398 21.2962 89.6398 20.6164C89.6398 19.9367 89.0897 19.5856 87.9896 19.5632H86.2924V21.6361Z" fill="#555555"/>
<path d="M97.267 25.8152C97.1954 25.6721 97.1373 25.4172 97.0926 25.0505C96.5157 25.6498 95.827 25.9494 95.0265 25.9494C94.3109 25.9494 93.7228 25.7482 93.2622 25.3457C92.8061 24.9387 92.578 24.4244 92.578 23.8028C92.578 23.047 92.8642 22.4612 93.4366 22.0453C94.0135 21.6249 94.823 21.4147 95.865 21.4147H97.0725V20.8445C97.0725 20.4107 96.9428 20.0663 96.6834 19.8114C96.424 19.552 96.0416 19.4224 95.5363 19.4224C95.0935 19.4224 94.7224 19.5342 94.4227 19.7578C94.1231 19.9814 93.9733 20.2519 93.9733 20.5695H92.7256C92.7256 20.2072 92.853 19.8584 93.1079 19.523C93.3673 19.1831 93.7161 18.9148 94.1544 18.718C94.5971 18.5212 95.0824 18.4228 95.6101 18.4228C96.4464 18.4228 97.1015 18.633 97.5756 19.0534C98.0496 19.4693 98.2956 20.044 98.3135 20.7774V24.1181C98.3135 24.7844 98.3984 25.3144 98.5684 25.7079V25.8152H97.267ZM95.2076 24.8694C95.5967 24.8694 95.9656 24.7688 96.3144 24.5675C96.6633 24.3663 96.9159 24.1047 97.0725 23.7827V22.2935H96.0998C94.5793 22.2935 93.819 22.7384 93.819 23.6284C93.819 24.0175 93.9487 24.3216 94.2081 24.5407C94.4674 24.7598 94.8006 24.8694 95.2076 24.8694Z" fill="#555555"/>
<path d="M106.39 22.2666C106.39 23.3712 106.137 24.2612 105.632 24.9365C105.127 25.6118 104.442 25.9494 103.579 25.9494C102.698 25.9494 102.005 25.6699 101.5 25.1109V28.6058H100.259V18.557H101.393L101.453 19.362C101.958 18.7359 102.66 18.4228 103.559 18.4228C104.431 18.4228 105.12 18.7515 105.625 19.4089C106.135 20.0663 106.39 20.9809 106.39 22.1526V22.2666ZM105.149 22.1257C105.149 21.3074 104.975 20.6611 104.626 20.1871C104.277 19.713 103.799 19.476 103.19 19.476C102.439 19.476 101.875 19.8092 101.5 20.4755V23.9437C101.871 24.6055 102.439 24.9365 103.204 24.9365C103.799 24.9365 104.27 24.7017 104.619 24.2321C104.972 23.7581 105.149 23.0559 105.149 22.1257Z" fill="#555555"/>
<path d="M112.83 19.5632H110.395V25.8152H109.154V19.5632H106.766V18.557H112.83V19.5632Z" fill="#555555"/>
<path d="M118.733 18.557H119.974V25.8152H118.733V20.5225L115.386 25.8152H114.145V18.557H115.386V23.8565L118.733 18.557Z" fill="#555555"/>
<path d="M128.098 22.2666C128.098 23.3712 127.845 24.2612 127.34 24.9365C126.834 25.6118 126.15 25.9494 125.287 25.9494C124.406 25.9494 123.713 25.6699 123.207 25.1109V28.6058H121.966V18.557H123.1L123.16 19.362C123.666 18.7359 124.368 18.4228 125.267 18.4228C126.139 18.4228 126.828 18.7515 127.333 19.4089C127.843 20.0663 128.098 20.9809 128.098 22.1526V22.2666ZM126.857 22.1257C126.857 21.3074 126.682 20.6611 126.333 20.1871C125.985 19.713 125.506 19.476 124.898 19.476C124.147 19.476 123.583 19.8092 123.207 20.4755V23.9437C123.579 24.6055 124.147 24.9365 124.911 24.9365C125.506 24.9365 125.978 24.7017 126.327 24.2321C126.68 23.7581 126.857 23.0559 126.857 22.1257Z" fill="#555555"/>
<path d="M131.036 21.0592H132.921C133.744 21.0681 134.394 21.2828 134.873 21.7031C135.351 22.1235 135.591 22.6937 135.591 23.4137C135.591 24.1382 135.345 24.7196 134.853 25.1578C134.361 25.5961 133.699 25.8152 132.867 25.8152H129.795V18.557H131.036V21.0592ZM138.18 25.8152H136.932V18.557H138.18V25.8152ZM131.036 22.0721V24.8023H132.881C133.346 24.8023 133.706 24.6838 133.961 24.4468C134.216 24.2053 134.343 23.8766 134.343 23.4607C134.343 23.0582 134.218 22.7295 133.967 22.4746C133.721 22.2152 133.375 22.081 132.928 22.0721H131.036Z" fill="#555555"/>
<path d="M143.869 25.8152V18.557H146.699C147.665 18.557 148.406 18.7269 148.92 19.0668C149.439 19.4022 149.698 19.8964 149.698 20.5493C149.698 20.8847 149.597 21.1888 149.396 21.4616C149.195 21.73 148.897 21.9357 148.504 22.0788C148.942 22.1816 149.293 22.3829 149.557 22.6825C149.825 22.9822 149.96 23.3399 149.96 23.7558C149.96 24.4222 149.714 24.932 149.222 25.2853C148.734 25.6386 148.043 25.8152 147.149 25.8152H143.869ZM145.11 22.6289V24.8157H147.162C147.681 24.8157 148.068 24.7196 148.323 24.5273C148.582 24.335 148.712 24.0644 148.712 23.7156C148.712 22.9911 148.18 22.6289 147.115 22.6289H145.11ZM145.11 21.6361H146.713C147.876 21.6361 148.457 21.2962 148.457 20.6164C148.457 19.9367 147.907 19.5856 146.807 19.5632H145.11V21.6361Z" fill="#555555"/>
<path d="M158.197 18.9729C159.11 18.9729 159.838 19.2793 160.384 19.8919C160.934 20.5001 161.209 21.3029 161.209 22.3002V22.4142C161.209 23.0984 161.077 23.7111 160.813 24.2522C160.55 24.7889 160.169 25.207 159.673 25.5067C159.181 25.8018 158.613 25.9494 157.969 25.9494C156.994 25.9494 156.209 25.6252 155.615 24.9767C155.02 24.3238 154.722 23.4495 154.722 22.3538V21.7501C154.722 20.2251 155.004 19.0132 155.568 18.1143C156.136 17.2154 156.972 16.6675 158.076 16.4708C158.703 16.359 159.125 16.2226 159.344 16.0616C159.563 15.9006 159.673 15.6792 159.673 15.3975H160.693C160.693 15.9565 160.565 16.3925 160.31 16.7056C160.06 17.0186 159.657 17.24 159.103 17.3697L158.177 17.5776C157.439 17.752 156.885 18.0472 156.513 18.4631C156.147 18.8745 155.908 19.4246 155.796 20.1133C156.453 19.353 157.254 18.9729 158.197 18.9729ZM157.956 19.9926C157.348 19.9926 156.865 20.1983 156.507 20.6097C156.149 21.0167 155.97 21.5824 155.97 22.3069V22.4142C155.97 23.1923 156.149 23.8095 156.507 24.2657C156.869 24.7173 157.356 24.9432 157.969 24.9432C158.586 24.9432 159.074 24.7151 159.432 24.2589C159.789 23.8028 159.968 23.1364 159.968 22.2599C159.968 21.5757 159.787 21.0278 159.425 20.6164C159.067 20.2005 158.577 19.9926 157.956 19.9926Z" fill="#555555"/>
<path d="M162.276 22.119C162.276 21.408 162.414 20.7685 162.692 20.2005C162.973 19.6325 163.363 19.1943 163.859 18.8857C164.36 18.5771 164.93 18.4228 165.569 18.4228C166.558 18.4228 167.356 18.765 167.964 19.4492C168.577 20.1334 168.883 21.0435 168.883 22.1794V22.2666C168.883 22.9732 168.747 23.6083 168.474 24.1717C168.206 24.7308 167.819 25.1668 167.314 25.4798C166.813 25.7929 166.236 25.9494 165.583 25.9494C164.599 25.9494 163.801 25.6073 163.188 24.9231C162.58 24.2388 162.276 23.3332 162.276 22.2062V22.119ZM163.524 22.2666C163.524 23.0716 163.709 23.7178 164.08 24.2053C164.456 24.6927 164.957 24.9365 165.583 24.9365C166.213 24.9365 166.714 24.6905 167.086 24.1986C167.457 23.7022 167.642 23.009 167.642 22.119C167.642 21.323 167.452 20.679 167.072 20.1871C166.696 19.6907 166.196 19.4425 165.569 19.4425C164.957 19.4425 164.463 19.6862 164.087 20.1737C163.711 20.6611 163.524 21.3588 163.524 22.2666Z" fill="#555555"/>
<path d="M176.282 18.557V25.8152H175.035V19.5834H172.566L172.419 22.3002C172.338 23.5479 172.128 24.4401 171.788 24.9767C171.453 25.5134 170.918 25.7929 170.185 25.8152H169.688V24.7218L170.044 24.695C170.446 24.6503 170.735 24.4177 170.909 23.9973C171.084 23.5769 171.195 22.7988 171.245 21.6629L171.379 18.557H176.282Z" fill="#555555"/>
<path d="M182.964 19.5834H179.616V25.8152H178.369V18.557H182.964V19.5834Z" fill="#555555"/>
<path d="M188.525 25.8152C188.453 25.6721 188.395 25.4172 188.35 25.0505C187.774 25.6498 187.085 25.9494 186.284 25.9494C185.569 25.9494 184.981 25.7482 184.52 25.3457C184.064 24.9387 183.836 24.4244 183.836 23.8028C183.836 23.047 184.122 22.4612 184.694 22.0453C185.271 21.6249 186.081 21.4147 187.123 21.4147H188.33V20.8445C188.33 20.4107 188.201 20.0663 187.941 19.8114C187.682 19.552 187.299 19.4224 186.794 19.4224C186.351 19.4224 185.98 19.5342 185.681 19.7578C185.381 19.9814 185.231 20.2519 185.231 20.5695H183.983C183.983 20.2072 184.111 19.8584 184.366 19.523C184.625 19.1831 184.974 18.9148 185.412 18.718C185.855 18.5212 186.34 18.4228 186.868 18.4228C187.704 18.4228 188.359 18.633 188.833 19.0534C189.307 19.4693 189.553 20.044 189.571 20.7774V24.1181C189.571 24.7844 189.656 25.3144 189.826 25.7079V25.8152H188.525ZM186.465 24.8694C186.854 24.8694 187.223 24.7688 187.572 24.5675C187.921 24.3663 188.174 24.1047 188.33 23.7827V22.2935H187.358C185.837 22.2935 185.077 22.7384 185.077 23.6284C185.077 24.0175 185.207 24.3216 185.466 24.5407C185.725 24.7598 186.058 24.8694 186.465 24.8694Z" fill="#555555"/>
<path d="M197.648 22.2666C197.648 23.3712 197.395 24.2612 196.89 24.9365C196.385 25.6118 195.7 25.9494 194.837 25.9494C193.956 25.9494 193.263 25.6699 192.758 25.1109V28.6058H191.517V18.557H192.65L192.711 19.362C193.216 18.7359 193.918 18.4228 194.817 18.4228C195.689 18.4228 196.378 18.7515 196.883 19.4089C197.393 20.0663 197.648 20.9809 197.648 22.1526V22.2666ZM196.407 22.1257C196.407 21.3074 196.233 20.6611 195.884 20.1871C195.535 19.713 195.056 19.476 194.448 19.476C193.697 19.476 193.133 19.8092 192.758 20.4755V23.9437C193.129 24.6055 193.697 24.9365 194.462 24.9365C195.056 24.9365 195.528 24.7017 195.877 24.2321C196.23 23.7581 196.407 23.0559 196.407 22.1257Z" fill="#555555"/>
<path d="M203.927 18.557H205.168V25.8152H203.927V20.5225L200.579 25.8152H199.338V18.557H200.579V23.8565L203.927 18.557Z" fill="#555555"/>
<path d="M211.856 18.557H213.097V25.8152H211.856V20.5225L208.508 25.8152H207.267V18.557H208.508V23.8565L211.856 18.557Z" fill="#555555"/>
<g filter="url(#filter1_d)">
<path d="M61.9488 49.3027L56 38.999L61.2559 39.2881L67.8977 38.999L61.9488 49.3027Z" fill="white"/>
</g>
<defs>
<filter id="filter0_di" x="0.943359" y="0.300781" width="231.402" height="47.2523" filterUnits="userSpaceOnUse" color-interpolation-filters="sRGB">
<feFlood flood-opacity="0" result="BackgroundImageFix"/>
<feColorMatrix in="SourceAlpha" type="matrix" values="0 0 0 0 0 0 0 0 0 0 0 0 0 0 0 0 0 0 127 0"/>
<feOffset dy="4"/>
<feGaussianBlur stdDeviation="2"/>
<feColorMatrix type="matrix" values="0 0 0 0 0 0 0 0 0 0 0 0 0 0 0 0 0 0 0.25 0"/>
<feBlend mode="normal" in2="BackgroundImageFix" result="effect1_dropShadow"/>
<feBlend mode="normal" in="SourceGraphic" in2="effect1_dropShadow" result="shape"/>
<feColorMatrix in="SourceAlpha" type="matrix" values="0 0 0 0 0 0 0 0 0 0 0 0 0 0 0 0 0 0 127 0" result="hardAlpha"/>
<feOffset dx="3" dy="3"/>
<feGaussianBlur stdDeviation="2"/>
<feComposite in2="hardAlpha" operator="arithmetic" k2="-1" k3="1"/>
<feColorMatrix type="matrix" values="0 0 0 0 0 0 0 0 0 0 0 0 0 0 0 0 0 0 0.09 0"/>
<feBlend mode="normal" in2="shape" result="effect2_innerShadow"/>
</filter>
<filter id="filter1_d" x="54" y="38.999" width="15.8977" height="15.3037" filterUnits="userSpaceOnUse" color-interpolation-filters="sRGB">
<feFlood flood-opacity="0" result="BackgroundImageFix"/>
<feColorMatrix in="SourceAlpha" type="matrix" values="0 0 0 0 0 0 0 0 0 0 0 0 0 0 0 0 0 0 127 0"/>
<feOffset dy="3"/>
<feGaussianBlur stdDeviation="1"/>
<feColorMatrix type="matrix" values="0 0 0 0 0 0 0 0 0 0 0 0 0 0 0 0 0 0 0.1 0"/>
<feBlend mode="normal" in2="BackgroundImageFix" result="effect1_dropShadow"/>
<feBlend mode="normal" in="SourceGraphic" in2="effect1_dropShadow" result="shape"/>
</filter>
<clipPath id="clip0">
<rect width="49.0654" height="19.6262" fill="white" transform="translate(18.6816 10.1143)"/>
</clipPath>
</defs>
</svg>
