<svg width="221" height="57" viewBox="0 0 221 57" fill="none" xmlns="http://www.w3.org/2000/svg">
<g filter="url(#filter0_di)">
<path d="M4.41992 19.9211C4.41992 9.08186 13.2069 0.294922 24.0461 0.294922H197.196C208.035 0.294922 216.822 9.08186 216.822 19.9211C216.822 30.7603 208.035 39.5473 197.196 39.5473H24.0461C13.2069 39.5473 4.41992 30.7603 4.41992 19.9211Z" fill="white"/>
<path d="M4.91992 19.9211C4.91992 9.358 13.483 0.794922 24.0461 0.794922H197.196C207.759 0.794922 216.322 9.358 216.322 19.9211C216.322 30.4842 207.759 39.0473 197.196 39.0473H24.0461C13.483 39.0473 4.91992 30.4842 4.91992 19.9211Z" stroke="white"/>
</g>
<g clip-path="url(#clip0)">
<path d="M22.4498 19.4882H21.4891C19.9796 19.4882 18.5158 18.3848 18.5158 15.6258C18.5158 12.7524 19.8882 11.5798 21.2832 11.5798H22.4498V19.4882ZM23.9593 10.1085H21.3521C18.7899 10.1085 16.6176 12.0629 16.6176 15.8561C16.6176 18.1319 17.6697 19.8102 19.5453 20.6374L16.0456 26.9826C15.9311 27.1896 16.0456 27.3506 16.2284 27.3506H17.8524C17.9895 27.3506 18.0815 27.3047 18.1271 27.1896L21.3064 20.9595H22.4498V27.1896C22.4498 27.2587 22.5186 27.3506 22.61 27.3506H24.0281C24.1652 27.3506 24.2109 27.2814 24.2109 27.1669V10.3381C24.2109 10.1777 24.1195 10.1085 23.9593 10.1085Z" fill="#ED1E24"/>
<path d="M32.5566 15.824H31.1384C31.0239 15.824 30.9557 15.9158 30.9557 15.985V20.3758H28.3253V15.985C28.3253 15.8699 28.2796 15.824 28.1651 15.824H26.747C26.6331 15.824 26.5642 15.8932 26.5642 15.985V27.1581C26.5642 27.2726 26.6099 27.3418 26.7238 27.3418H28.1651C28.2565 27.3418 28.3253 27.2726 28.3253 27.1581V21.8245H30.9557V27.1581C30.9557 27.2726 31.0239 27.3418 31.1384 27.3418H32.5566C32.6711 27.3418 32.7168 27.2493 32.7168 27.1581V15.985C32.7168 15.8932 32.6479 15.824 32.5566 15.824Z" fill="#231F20"/>
<path d="M64.9345 26.6057L64.7517 25.8244C64.7286 25.7552 64.7061 25.7319 64.6372 25.7319C64.5227 25.7319 63.9056 25.9848 63.0132 25.9848C61.2752 25.9848 60.4285 24.3065 60.4285 21.64C60.4285 19.2949 61.1375 16.9731 62.3273 16.9731C62.6471 16.9731 63.0363 17.065 63.6534 17.6399C63.7222 17.7091 63.7679 17.7318 63.8368 17.7318C63.9056 17.7318 63.9738 17.6858 64.0427 17.5707L64.6604 16.5592C64.7061 16.4907 64.7286 16.4215 64.7286 16.3523C64.7286 16.2604 64.6372 16.1919 64.5002 16.1227C63.562 15.6396 62.9218 15.5477 62.3729 15.5477C60.2232 15.5477 58.5535 18.1224 58.5535 22.1458C58.5535 25.6168 60.1544 27.6172 62.4418 27.6172C63.4024 27.6172 64.4313 27.1574 64.8431 26.8586C64.9345 26.7894 64.9576 26.6975 64.9345 26.6057Z" fill="#231F20"/>
<path d="M54.9938 21.0199L57.7387 15.985C57.7844 15.9165 57.7613 15.824 57.6699 15.824H56.3206C55.9313 15.824 55.7943 15.9624 55.6572 16.2612L53.5988 20.5601C53.4843 20.813 53.3698 20.974 53.2552 21.0432V15.985C53.2552 15.8932 53.2096 15.824 53.1182 15.824H51.6312C51.563 15.824 51.4941 15.8932 51.4941 15.985V27.1808C51.4941 27.25 51.5398 27.3418 51.6312 27.3418H53.1182C53.2096 27.3418 53.2552 27.2726 53.2552 27.1808V21.4105C53.3241 21.4565 53.3698 21.5257 53.4155 21.6175L56.0227 26.9971C56.1604 27.2726 56.3663 27.3418 56.6635 27.3418H58.1274C58.2187 27.3418 58.2419 27.25 58.1956 27.1808L54.9938 21.0199Z" fill="#231F20"/>
<path d="M39.4179 25.8934H36.1016C37.2681 23.8937 37.7256 21.6405 37.8858 18.8815C37.9315 18.2839 37.954 17.6637 37.954 17.2724H39.4179V25.8934ZM41.888 25.8934H41.6139C41.2703 25.8934 41.179 25.7557 41.179 25.4795V15.9854C41.179 15.8702 41.1333 15.8243 41.0419 15.8243H36.4677C36.3532 15.8243 36.2843 15.8929 36.2843 15.9854V16.8126C36.2843 19.5942 36.1247 23.181 34.6609 25.8934H34.1571C34.0201 25.8934 33.9744 25.9626 33.9744 26.0771V29.4337C33.9744 29.5488 34.0657 29.5947 34.1346 29.5947H35.2323C35.4839 29.5947 35.5752 29.411 35.5752 29.25V27.3415H40.4699V29.4337C40.4699 29.5255 40.5387 29.5947 40.6301 29.5947H41.7967C41.9337 29.5947 42.0714 29.4796 42.0714 29.25V26.0771C42.0714 25.9626 42.0026 25.8934 41.888 25.8934Z" fill="#231F20"/>
<path d="M46.3024 20.5367C45.7767 20.5367 44.9531 20.6285 44.9531 20.6285C44.9531 20.6285 44.9531 20.2838 44.9988 19.9158C45.2047 17.962 45.6847 16.9731 46.4857 16.9731C47.2173 16.9731 47.6748 17.9846 47.7894 19.7554C47.8119 20.1228 47.8119 20.5367 47.8119 20.5367H46.3024ZM46.554 15.5484C44.0838 15.5484 42.9861 18.6747 42.9861 22.0772C42.9861 25.5483 44.5413 27.6172 46.8287 27.6172C47.9489 27.6172 48.9328 27.1806 49.4359 26.8586C49.5273 26.8126 49.5505 26.7441 49.5273 26.6516L49.3446 25.8703C49.3214 25.7785 49.2757 25.7326 49.1612 25.7326C49.0698 25.7326 48.4064 25.9854 47.4689 25.9854C45.7078 25.9854 44.8842 24.4449 44.8842 22.4219V21.8778C44.8842 21.8778 45.7767 21.9854 46.3024 21.9854H49.6418V21.0198C49.6418 17.4562 48.3839 15.5484 46.554 15.5484Z" fill="#231F20"/>
</g>
<path d="M79.532 18.5511H80.773V25.8094H79.532V20.5166L76.1846 25.8094H74.9436V18.5511H76.1846V23.8506L79.532 18.5511Z" fill="#555555"/>
<path d="M86.9445 24.1659L89.4131 18.5511H90.9627V25.8094H89.7217V20.5301L87.3738 25.8094H86.5152L84.1204 20.416V25.8094H82.8794V18.5511H84.4893L86.9445 24.1659Z" fill="#555555"/>
<path d="M98.8985 25.8094H97.6574V19.5775H94.3168V25.8094H93.0691V18.5511H98.8985V25.8094Z" fill="#555555"/>
<path d="M106.841 18.5511V25.8094H105.593V19.5775H103.125L102.977 22.2943C102.897 23.542 102.686 24.4342 102.346 24.9709C102.011 25.5075 101.477 25.787 100.743 25.8094H100.247V24.7159L100.602 24.6891C101.005 24.6444 101.293 24.4118 101.468 23.9915C101.642 23.5711 101.754 22.7929 101.803 21.657L101.937 18.5511H106.841Z" fill="#555555"/>
<path d="M113.314 25.8094C113.243 25.6663 113.185 25.4114 113.14 25.0446C112.563 25.6439 111.874 25.9435 111.074 25.9435C110.358 25.9435 109.77 25.7423 109.31 25.3398C108.853 24.9328 108.625 24.4186 108.625 23.7969C108.625 23.0411 108.912 22.4553 109.484 22.0394C110.061 21.619 110.87 21.4088 111.912 21.4088H113.12V20.8386C113.12 20.4048 112.99 20.0605 112.731 19.8056C112.471 19.5462 112.089 19.4165 111.584 19.4165C111.141 19.4165 110.77 19.5283 110.47 19.7519C110.17 19.9755 110.021 20.2461 110.021 20.5636H108.773C108.773 20.2014 108.9 19.8525 109.155 19.5171C109.415 19.1772 109.763 18.9089 110.202 18.7121C110.644 18.5154 111.13 18.417 111.657 18.417C112.494 18.417 113.149 18.6272 113.623 19.0476C114.097 19.4635 114.343 20.0381 114.361 20.7715V24.1122C114.361 24.7786 114.446 25.3085 114.616 25.702V25.8094H113.314ZM111.255 24.8635C111.644 24.8635 112.013 24.7629 112.362 24.5617C112.711 24.3604 112.963 24.0988 113.12 23.7768V22.2876H112.147C110.627 22.2876 109.866 22.7326 109.866 23.6225C109.866 24.0116 109.996 24.3157 110.255 24.5348C110.515 24.754 110.848 24.8635 111.255 24.8635Z" fill="#555555"/>
<path d="M122.236 25.8094H120.995V22.7102H117.661V25.8094H116.413V18.5511H117.661V21.6973H120.995V18.5511H122.236V25.8094Z" fill="#555555"/>
<path d="M129.629 19.5574H127.193V25.8094H125.952V19.5574H123.564V18.5511H129.629V19.5574Z" fill="#555555"/>
<path d="M135.21 25.8094C135.138 25.6663 135.08 25.4114 135.035 25.0446C134.458 25.6439 133.77 25.9435 132.969 25.9435C132.254 25.9435 131.666 25.7423 131.205 25.3398C130.749 24.9328 130.521 24.4186 130.521 23.7969C130.521 23.0411 130.807 22.4553 131.379 22.0394C131.956 21.619 132.766 21.4088 133.808 21.4088H135.015V20.8386C135.015 20.4048 134.886 20.0605 134.626 19.8056C134.367 19.5462 133.984 19.4165 133.479 19.4165C133.036 19.4165 132.665 19.5283 132.365 19.7519C132.066 19.9755 131.916 20.2461 131.916 20.5636H130.668C130.668 20.2014 130.796 19.8525 131.051 19.5171C131.31 19.1772 131.659 18.9089 132.097 18.7121C132.54 18.5154 133.025 18.417 133.553 18.417C134.389 18.417 135.044 18.6272 135.518 19.0476C135.992 19.4635 136.238 20.0381 136.256 20.7715V24.1122C136.256 24.7786 136.341 25.3085 136.511 25.702V25.8094H135.21ZM133.15 24.8635C133.539 24.8635 133.908 24.7629 134.257 24.5617C134.606 24.3604 134.859 24.0988 135.015 23.7768V22.2876H134.043C132.522 22.2876 131.762 22.7326 131.762 23.6225C131.762 24.0116 131.891 24.3157 132.151 24.5348C132.41 24.754 132.743 24.8635 133.15 24.8635Z" fill="#555555"/>
<path d="M138.309 18.5511H139.557V24.7964H142.897V18.5511H144.138V24.7964H145.004L144.883 27.9627H143.769V25.8094H138.309V18.5511Z" fill="#555555"/>
<path d="M151.041 18.5511H152.282V25.8094H151.041V20.5166L147.694 25.8094H146.453V18.5511H147.694V23.8506L151.041 18.5511Z" fill="#555555"/>
<path d="M159.822 18.5511V25.8094H158.574V22.9852H156.703L154.992 25.8094H153.65L155.475 22.7974C155.01 22.6275 154.652 22.3659 154.402 22.0126C154.156 21.6548 154.033 21.2389 154.033 20.7648C154.033 20.103 154.281 19.5708 154.777 19.1683C155.274 18.7613 155.938 18.5556 156.77 18.5511H159.822ZM155.281 20.7783C155.281 21.1316 155.401 21.4178 155.643 21.6369C155.884 21.8516 156.204 21.9611 156.602 21.9656H158.574V19.5574H156.79C156.329 19.5574 155.963 19.6714 155.69 19.8995C155.417 20.1231 155.281 20.416 155.281 20.7783Z" fill="#555555"/>
<path d="M169.213 20.5368C169.213 20.1969 169.084 19.9286 168.824 19.7318C168.565 19.5305 168.209 19.4299 167.758 19.4299C167.319 19.4299 166.953 19.544 166.658 19.772C166.367 20.0001 166.222 20.2684 166.222 20.577H164.987C164.987 19.9464 165.251 19.4299 165.779 19.0274C166.307 18.6249 166.966 18.4237 167.758 18.4237C168.607 18.4237 169.269 18.607 169.743 18.9738C170.217 19.336 170.454 19.8548 170.454 20.5301C170.454 20.8565 170.356 21.1561 170.159 21.4289C169.962 21.7017 169.683 21.9186 169.321 22.0796C170.166 22.3659 170.589 22.9293 170.589 23.7701C170.589 24.4364 170.331 24.9642 169.817 25.3532C169.303 25.7423 168.616 25.9368 167.758 25.9368C166.921 25.9368 166.231 25.7334 165.685 25.3264C165.144 24.915 164.873 24.3604 164.873 23.6628H166.108C166.108 24.0161 166.264 24.3202 166.577 24.5751C166.895 24.8255 167.288 24.9507 167.758 24.9507C168.232 24.9507 168.614 24.8412 168.905 24.622C169.196 24.4029 169.341 24.1189 169.341 23.7701C169.341 23.3631 169.218 23.0724 168.972 22.898C168.73 22.7192 168.353 22.6297 167.838 22.6297H166.597V21.5832H167.946C168.791 21.5609 169.213 21.2121 169.213 20.5368Z" fill="#555555"/>
<path d="M174.573 23.9915L176.264 18.5511H177.592L174.674 26.9296C174.222 28.1371 173.504 28.7408 172.521 28.7408L172.286 28.7207L171.823 28.6335V27.6273L172.158 27.6541C172.579 27.6541 172.905 27.5692 173.138 27.3992C173.375 27.2293 173.569 26.9185 173.721 26.4668L173.996 25.7289L171.407 18.5511H172.762L174.573 23.9915Z" fill="#555555"/>
<path d="M181.892 18.9671C182.804 18.9671 183.533 19.2734 184.079 19.8861C184.629 20.4943 184.904 21.297 184.904 22.2943V22.4083C184.904 23.0926 184.772 23.7053 184.508 24.2464C184.244 24.783 183.864 25.2012 183.368 25.5008C182.876 25.796 182.308 25.9435 181.664 25.9435C180.689 25.9435 179.904 25.6193 179.309 24.9709C178.714 24.3179 178.417 23.4436 178.417 22.348V21.7442C178.417 20.2192 178.699 19.0073 179.262 18.1084C179.83 17.2095 180.666 16.6617 181.771 16.4649C182.397 16.3531 182.82 16.2167 183.039 16.0557C183.258 15.8947 183.368 15.6733 183.368 15.3916H184.387C184.387 15.9506 184.26 16.3866 184.005 16.6997C183.754 17.0127 183.352 17.2341 182.797 17.3638L181.872 17.5718C181.134 17.7462 180.579 18.0413 180.208 18.4572C179.841 18.8687 179.602 19.4187 179.49 20.1074C180.148 19.3472 180.948 18.9671 181.892 18.9671ZM181.65 19.9867C181.042 19.9867 180.559 20.1924 180.201 20.6038C179.844 21.0108 179.665 21.5765 179.665 22.301V22.4083C179.665 23.1865 179.844 23.8036 180.201 24.2598C180.564 24.7115 181.051 24.9373 181.664 24.9373C182.281 24.9373 182.768 24.7092 183.126 24.2531C183.484 23.7969 183.663 23.1306 183.663 22.2541C183.663 21.5698 183.482 21.022 183.119 20.6106C182.762 20.1946 182.272 19.9867 181.65 19.9867Z" fill="#555555"/>
<path d="M185.97 22.1132C185.97 21.4021 186.109 20.7626 186.386 20.1946C186.668 19.6267 187.057 19.1884 187.554 18.8798C188.054 18.5713 188.625 18.417 189.264 18.417C190.252 18.417 191.051 18.7591 191.659 19.4433C192.272 20.1276 192.578 21.0376 192.578 22.1736V22.2608C192.578 22.9674 192.442 23.6024 192.169 24.1659C191.9 24.7249 191.514 25.1609 191.008 25.474C190.507 25.787 189.93 25.9435 189.278 25.9435C188.294 25.9435 187.495 25.6014 186.883 24.9172C186.275 24.233 185.97 23.3274 185.97 22.2004V22.1132ZM187.218 22.2608C187.218 23.0657 187.404 23.712 187.775 24.1994C188.151 24.6869 188.651 24.9306 189.278 24.9306C189.908 24.9306 190.409 24.6846 190.78 24.1927C191.151 23.6963 191.337 23.0031 191.337 22.1132C191.337 21.3171 191.147 20.6732 190.767 20.1812C190.391 19.6848 189.89 19.4366 189.264 19.4366C188.651 19.4366 188.157 19.6804 187.782 20.1678C187.406 20.6553 187.218 21.3529 187.218 22.2608Z" fill="#555555"/>
<path d="M194.248 25.8094V18.5511H197.079C198.045 18.5511 198.785 18.7211 199.3 19.061C199.818 19.3964 200.078 19.8905 200.078 20.5435C200.078 20.8789 199.977 21.183 199.776 21.4558C199.575 21.7241 199.277 21.9298 198.884 22.0729C199.322 22.1758 199.673 22.377 199.937 22.6767C200.205 22.9763 200.339 23.3341 200.339 23.75C200.339 24.4163 200.093 24.9261 199.601 25.2794C199.114 25.6327 198.423 25.8094 197.529 25.8094H194.248ZM195.489 22.623V24.8099H197.542C198.061 24.8099 198.448 24.7137 198.702 24.5214C198.962 24.3291 199.092 24.0585 199.092 23.7097C199.092 22.9852 198.559 22.623 197.495 22.623H195.489ZM195.489 21.6302H197.093C198.255 21.6302 198.837 21.2903 198.837 20.6106C198.837 19.9308 198.287 19.5797 197.186 19.5574H195.489V21.6302Z" fill="#555555"/>
<g filter="url(#filter1_d)">
<path d="M183.457 51.3232L176.659 39.5475L190.256 39.5475L183.457 51.3232Z" fill="white"/>
</g>
<defs>
<filter id="filter0_di" x="0.419922" y="0.294922" width="220.402" height="47.2523" filterUnits="userSpaceOnUse" color-interpolation-filters="sRGB">
<feFlood flood-opacity="0" result="BackgroundImageFix"/>
<feColorMatrix in="SourceAlpha" type="matrix" values="0 0 0 0 0 0 0 0 0 0 0 0 0 0 0 0 0 0 127 0"/>
<feOffset dy="4"/>
<feGaussianBlur stdDeviation="2"/>
<feColorMatrix type="matrix" values="0 0 0 0 0 0 0 0 0 0 0 0 0 0 0 0 0 0 0.25 0"/>
<feBlend mode="normal" in2="BackgroundImageFix" result="effect1_dropShadow"/>
<feBlend mode="normal" in="SourceGraphic" in2="effect1_dropShadow" result="shape"/>
<feColorMatrix in="SourceAlpha" type="matrix" values="0 0 0 0 0 0 0 0 0 0 0 0 0 0 0 0 0 0 127 0" result="hardAlpha"/>
<feOffset dx="3" dy="3"/>
<feGaussianBlur stdDeviation="2"/>
<feComposite in2="hardAlpha" operator="arithmetic" k2="-1" k3="1"/>
<feColorMatrix type="matrix" values="0 0 0 0 0 0 0 0 0 0 0 0 0 0 0 0 0 0 0.09 0"/>
<feBlend mode="normal" in2="shape" result="effect2_innerShadow"/>
</filter>
<filter id="filter1_d" x="174.659" y="39.5479" width="17.5974" height="16.7757" filterUnits="userSpaceOnUse" color-interpolation-filters="sRGB">
<feFlood flood-opacity="0" result="BackgroundImageFix"/>
<feColorMatrix in="SourceAlpha" type="matrix" values="0 0 0 0 0 0 0 0 0 0 0 0 0 0 0 0 0 0 127 0"/>
<feOffset dy="3"/>
<feGaussianBlur stdDeviation="1"/>
<feColorMatrix type="matrix" values="0 0 0 0 0 0 0 0 0 0 0 0 0 0 0 0 0 0 0.1 0"/>
<feBlend mode="normal" in2="BackgroundImageFix" result="effect1_dropShadow"/>
<feBlend mode="normal" in="SourceGraphic" in2="effect1_dropShadow" result="shape"/>
</filter>
<clipPath id="clip0">
<rect width="49.0654" height="19.6262" fill="white" transform="translate(15.9998 10.1084)"/>
</clipPath>
</defs>
</svg>
