<svg width="238" height="57" viewBox="0 0 238 57" fill="none" xmlns="http://www.w3.org/2000/svg">
<g filter="url(#filter0_di)">
<path d="M4.79395 19.9182C4.79395 9.07893 13.5809 0.291992 24.4201 0.291992H213.57C224.409 0.291992 233.196 9.07893 233.196 19.9182C233.196 30.7574 224.409 39.5443 213.57 39.5443H24.4201C13.5809 39.5443 4.79395 30.7574 4.79395 19.9182Z" fill="white"/>
<path d="M5.29395 19.9182C5.29395 9.35507 13.857 0.791992 24.4201 0.791992H213.57C224.133 0.791992 232.696 9.35507 232.696 19.9182C232.696 30.4812 224.133 39.0443 213.57 39.0443H24.4201C13.857 39.0443 5.29395 30.4812 5.29395 19.9182Z" stroke="white"/>
</g>
<g clip-path="url(#clip0)">
<path d="M24.9823 19.4852H24.0216C22.5121 19.4852 21.0483 18.3819 21.0483 15.6229C21.0483 12.7494 22.4207 11.5769 23.8157 11.5769H24.9823V19.4852ZM26.4918 10.1056H23.8845C21.3224 10.1056 19.1501 12.06 19.1501 15.8531C19.1501 18.129 20.2021 19.8073 22.0778 20.6345L18.5781 26.9797C18.4636 27.1866 18.5781 27.3477 18.7608 27.3477H20.3849C20.5219 27.3477 20.6139 27.3017 20.6596 27.1866L23.8389 20.9566H24.9823V27.1866C24.9823 27.2558 25.0511 27.3477 25.1425 27.3477H26.5606C26.6977 27.3477 26.7434 27.2785 26.7434 27.164V10.3352C26.7434 10.1748 26.652 10.1056 26.4918 10.1056Z" fill="#ED1E24"/>
<path d="M35.089 15.8211H33.6709C33.5564 15.8211 33.4882 15.9129 33.4882 15.9821V20.3728H30.8578V15.9821C30.8578 15.867 30.8121 15.8211 30.6976 15.8211H29.2794C29.1655 15.8211 29.0967 15.8903 29.0967 15.9821V27.1552C29.0967 27.2697 29.1424 27.3389 29.2563 27.3389H30.6976C30.7889 27.3389 30.8578 27.2697 30.8578 27.1552V21.8215H33.4882V27.1552C33.4882 27.2697 33.5564 27.3389 33.6709 27.3389H35.089C35.2036 27.3389 35.2493 27.2464 35.2493 27.1552V15.9821C35.2493 15.8903 35.1804 15.8211 35.089 15.8211Z" fill="#231F20"/>
<path d="M67.467 26.6028L67.2842 25.8215C67.2611 25.7523 67.2385 25.729 67.1697 25.729C67.0552 25.729 66.4381 25.9819 65.5456 25.9819C63.8077 25.9819 62.9609 24.3036 62.9609 21.6371C62.9609 19.292 63.67 16.9702 64.8597 16.9702C65.1795 16.9702 65.5688 17.0621 66.1859 17.637C66.2547 17.7062 66.3004 17.7288 66.3692 17.7288C66.4381 17.7288 66.5063 17.6829 66.5751 17.5678L67.1928 16.5563C67.2385 16.4877 67.2611 16.4185 67.2611 16.3493C67.2611 16.2575 67.1697 16.1889 67.0326 16.1197C66.0945 15.6366 65.4543 15.5448 64.9054 15.5448C62.7557 15.5448 61.0859 18.1195 61.0859 22.1428C61.0859 25.6139 62.6868 27.6143 64.9743 27.6143C65.9349 27.6143 66.9638 27.1544 67.3756 26.8556C67.467 26.7864 67.4901 26.6946 67.467 26.6028Z" fill="#231F20"/>
<path d="M57.5263 21.017L60.2712 15.9821C60.3169 15.9135 60.2937 15.8211 60.2023 15.8211H58.853C58.4638 15.8211 58.3267 15.9595 58.1897 16.2583L56.1313 20.5571C56.0168 20.81 55.9022 20.9711 55.7877 21.0402V15.9821C55.7877 15.8903 55.742 15.8211 55.6507 15.8211H54.1637C54.0955 15.8211 54.0266 15.8903 54.0266 15.9821V27.1778C54.0266 27.247 54.0723 27.3389 54.1637 27.3389H55.6507C55.742 27.3389 55.7877 27.2697 55.7877 27.1778V21.4076C55.8566 21.4535 55.9022 21.5227 55.9479 21.6146L58.5552 26.9942C58.6928 27.2697 58.8987 27.3389 59.196 27.3389H60.6598C60.7512 27.3389 60.7744 27.247 60.728 27.1778L57.5263 21.017Z" fill="#231F20"/>
<path d="M41.9503 25.8905H38.634C39.8006 23.8908 40.2581 21.6375 40.4183 18.8786C40.464 18.281 40.4865 17.6607 40.4865 17.2695H41.9503V25.8905ZM44.4205 25.8905H44.1464C43.8028 25.8905 43.7114 25.7527 43.7114 25.4766V15.9824C43.7114 15.8673 43.6658 15.8214 43.5744 15.8214H39.0002C38.8856 15.8214 38.8168 15.89 38.8168 15.9824V16.8096C38.8168 19.5913 38.6572 23.1781 37.1934 25.8905H36.6896C36.5525 25.8905 36.5068 25.9597 36.5068 26.0742V29.4308C36.5068 29.5459 36.5982 29.5918 36.667 29.5918H37.7648C38.0163 29.5918 38.1077 29.4081 38.1077 29.2471V27.3386H43.0024V29.4308C43.0024 29.5226 43.0712 29.5918 43.1626 29.5918H44.3291C44.4662 29.5918 44.6039 29.4767 44.6039 29.2471V26.0742C44.6039 25.9597 44.535 25.8905 44.4205 25.8905Z" fill="#231F20"/>
<path d="M48.8348 20.5337C48.3091 20.5337 47.4856 20.6256 47.4856 20.6256C47.4856 20.6256 47.4856 20.2809 47.5312 19.9129C47.7371 17.9591 48.2172 16.9702 49.0182 16.9702C49.7498 16.9702 50.2073 17.9817 50.3218 19.7525C50.3444 20.1198 50.3444 20.5337 50.3444 20.5337H48.8348ZM49.0864 15.5454C46.6163 15.5454 45.5186 18.6718 45.5186 22.0743C45.5186 25.5453 47.0738 27.6143 49.3612 27.6143C50.4814 27.6143 51.4652 27.1777 51.9684 26.8556C52.0598 26.8097 52.0829 26.7411 52.0598 26.6487L51.877 25.8674C51.8539 25.7756 51.8082 25.7296 51.6937 25.7296C51.6023 25.7296 50.9389 25.9825 50.0014 25.9825C48.2403 25.9825 47.4167 24.442 47.4167 22.419V21.8749C47.4167 21.8749 48.3091 21.9824 48.8348 21.9824H52.1743V21.0168C52.1743 17.4533 50.9164 15.5454 49.0864 15.5454Z" fill="#231F20"/>
</g>
<path d="M79.6292 22.714H78.7235V25.8064H77.4758V18.5482H78.7235V21.6206H79.5352L81.977 18.5482H83.4796L80.6085 22.0365L83.7211 25.8064H82.1447L79.6292 22.714Z" fill="#555555"/>
<path d="M84.3114 22.1103C84.3114 21.3992 84.4501 20.7597 84.7274 20.1917C85.0091 19.6238 85.3982 19.1855 85.8946 18.8769C86.3955 18.5683 86.9656 18.4141 87.6052 18.4141C88.5935 18.4141 89.3918 18.7562 90 19.4404C90.6126 20.1246 90.919 21.0347 90.919 22.1706V22.2578C90.919 22.9644 90.7826 23.5995 90.5098 24.1629C90.2415 24.722 89.8546 25.158 89.3493 25.471C88.8484 25.7841 88.2715 25.9406 87.6186 25.9406C86.6347 25.9406 85.8364 25.5985 85.2238 24.9143C84.6156 24.23 84.3114 23.3244 84.3114 22.1975V22.1103ZM85.5592 22.2578C85.5592 23.0628 85.7448 23.709 86.1159 24.1965C86.4916 24.6839 86.9925 24.9277 87.6186 24.9277C88.2491 24.9277 88.75 24.6817 89.1212 24.1898C89.4924 23.6934 89.678 23.0002 89.678 22.1103C89.678 21.3142 89.4879 20.6702 89.1078 20.1783C88.7321 19.6819 88.2313 19.4337 87.6052 19.4337C86.9925 19.4337 86.4983 19.6774 86.1227 20.1649C85.747 20.6523 85.5592 21.35 85.5592 22.2578Z" fill="#555555"/>
<path d="M92.5893 25.8064V18.5482H95.4202C96.3861 18.5482 97.1263 18.7182 97.6406 19.058C98.1593 19.3934 98.4187 19.8876 98.4187 20.5405C98.4187 20.8759 98.3181 21.1801 98.1168 21.4529C97.9156 21.7212 97.6182 21.9269 97.2247 22.07C97.6629 22.1729 98.014 22.3741 98.2778 22.6737C98.5462 22.9734 98.6803 23.3311 98.6803 23.747C98.6803 24.4134 98.4344 24.9232 97.9424 25.2765C97.455 25.6298 96.764 25.8064 95.8696 25.8064H92.5893ZM93.8303 22.6201V24.8069H95.883C96.4018 24.8069 96.7886 24.7108 97.0435 24.5185C97.3029 24.3262 97.4326 24.0556 97.4326 23.7068C97.4326 22.9823 96.9004 22.6201 95.8361 22.6201H93.8303ZM93.8303 21.6273H95.4336C96.5963 21.6273 97.1777 21.2874 97.1777 20.6076C97.1777 19.9279 96.6276 19.5768 95.5275 19.5544H93.8303V21.6273Z" fill="#555555"/>
<path d="M106.455 22.2578C106.455 23.3624 106.202 24.2524 105.697 24.9277C105.192 25.603 104.507 25.9406 103.644 25.9406C102.763 25.9406 102.07 25.6611 101.565 25.1021V28.597H100.324V18.5482H101.458L101.518 19.3532C102.023 18.7271 102.725 18.4141 103.624 18.4141C104.496 18.4141 105.185 18.7428 105.69 19.4002C106.2 20.0576 106.455 20.9721 106.455 22.1438V22.2578ZM105.214 22.117C105.214 21.2986 105.04 20.6523 104.691 20.1783C104.342 19.7043 103.864 19.4672 103.255 19.4672C102.504 19.4672 101.941 19.8004 101.565 20.4668V23.9349C101.936 24.5967 102.504 24.9277 103.269 24.9277C103.864 24.9277 104.335 24.6929 104.684 24.2233C105.037 23.7493 105.214 23.0472 105.214 22.117Z" fill="#555555"/>
<path d="M109.393 21.0504H111.278C112.101 21.0593 112.752 21.274 113.23 21.6943C113.709 22.1147 113.948 22.6849 113.948 23.4049C113.948 24.1294 113.702 24.7108 113.21 25.149C112.718 25.5873 112.056 25.8064 111.225 25.8064H108.152V18.5482H109.393V21.0504ZM116.537 25.8064H115.29V18.5482H116.537V25.8064ZM109.393 22.0633V24.7935H111.238C111.703 24.7935 112.063 24.675 112.318 24.438C112.573 24.1965 112.7 23.8678 112.7 23.4519C112.7 23.0494 112.575 22.7207 112.325 22.4658C112.079 22.2064 111.732 22.0722 111.285 22.0633H109.393Z" fill="#555555"/>
<path d="M128.243 22.2578C128.243 23.3624 127.991 24.2524 127.485 24.9277C126.98 25.603 126.296 25.9406 125.432 25.9406C124.551 25.9406 123.858 25.6611 123.353 25.1021V28.597H122.112V18.5482H123.246L123.306 19.3532C123.811 18.7271 124.513 18.4141 125.412 18.4141C126.284 18.4141 126.973 18.7428 127.478 19.4002C127.988 20.0576 128.243 20.9721 128.243 22.1438V22.2578ZM127.002 22.117C127.002 21.2986 126.828 20.6523 126.479 20.1783C126.13 19.7043 125.652 19.4672 125.043 19.4672C124.292 19.4672 123.729 19.8004 123.353 20.4668V23.9349C123.724 24.5967 124.292 24.9277 125.057 24.9277C125.652 24.9277 126.123 24.6929 126.472 24.2233C126.826 23.7493 127.002 23.0472 127.002 22.117Z" fill="#555555"/>
<path d="M132.121 23.9885L133.811 18.5482H135.139L132.221 26.9267C131.769 28.1342 131.052 28.7379 130.068 28.7379L129.833 28.7178L129.37 28.6306V27.6244L129.706 27.6512C130.126 27.6512 130.452 27.5662 130.685 27.3963C130.922 27.2263 131.117 26.9155 131.269 26.4638L131.544 25.726L128.954 18.5482H130.309L132.121 23.9885Z" fill="#555555"/>
<path d="M141.733 25.8064H140.486V23.1768C139.94 23.32 139.381 23.3915 138.809 23.3915C137.901 23.3915 137.208 23.159 136.729 22.6939C136.255 22.2288 136.014 21.5669 136.005 20.7082V18.5415H137.246V20.7485C137.268 21.8307 137.789 22.3719 138.809 22.3719C139.381 22.3719 139.94 22.3003 140.486 22.1572V18.5482H141.733V25.8064Z" fill="#555555"/>
<path d="M149.656 25.8064H148.415V22.7073H145.081V25.8064H143.833V18.5482H145.081V21.6943H148.415V18.5482H149.656V25.8064Z" fill="#555555"/>
<path d="M151.326 22.1103C151.326 21.3992 151.465 20.7597 151.742 20.1917C152.024 19.6238 152.413 19.1855 152.909 18.8769C153.41 18.5683 153.98 18.4141 154.62 18.4141C155.608 18.4141 156.406 18.7562 157.015 19.4404C157.627 20.1246 157.934 21.0347 157.934 22.1706V22.2578C157.934 22.9644 157.797 23.5995 157.524 24.1629C157.256 24.722 156.869 25.158 156.364 25.471C155.863 25.7841 155.286 25.9406 154.633 25.9406C153.649 25.9406 152.851 25.5985 152.238 24.9143C151.63 24.23 151.326 23.3244 151.326 22.1975V22.1103ZM152.574 22.2578C152.574 23.0628 152.759 23.709 153.13 24.1965C153.506 24.6839 154.007 24.9277 154.633 24.9277C155.264 24.9277 155.765 24.6817 156.136 24.1898C156.507 23.6934 156.693 23.0002 156.693 22.1103C156.693 21.3142 156.502 20.6702 156.122 20.1783C155.747 19.6819 155.246 19.4337 154.62 19.4337C154.007 19.4337 153.513 19.6774 153.137 20.1649C152.762 20.6523 152.574 21.35 152.574 22.2578Z" fill="#555555"/>
<path d="M164.186 18.5482H165.427V25.8064H164.186V20.5137L160.838 25.8064H159.597V18.5482H160.838V23.8477L164.186 18.5482ZM164.521 15.9052C164.521 16.4463 164.335 16.8824 163.964 17.2133C163.597 17.5398 163.114 17.703 162.515 17.703C161.916 17.703 161.431 17.5375 161.06 17.2066C160.688 16.8756 160.503 16.4419 160.503 15.9052H161.516C161.516 16.2182 161.601 16.4642 161.771 16.6431C161.941 16.8175 162.189 16.9047 162.515 16.9047C162.828 16.9047 163.072 16.8175 163.246 16.6431C163.425 16.4687 163.515 16.2227 163.515 15.9052H164.521Z" fill="#555555"/>
<path d="M176.958 22.2578C176.958 23.3624 176.705 24.2524 176.2 24.9277C175.695 25.603 175.01 25.9406 174.147 25.9406C173.266 25.9406 172.573 25.6611 172.068 25.1021V28.597H170.827V18.5482H171.96L172.021 19.3532C172.526 18.7271 173.228 18.4141 174.127 18.4141C174.999 18.4141 175.688 18.7428 176.193 19.4002C176.703 20.0576 176.958 20.9721 176.958 22.1438V22.2578ZM175.717 22.117C175.717 21.2986 175.542 20.6523 175.194 20.1783C174.845 19.7043 174.366 19.4672 173.758 19.4672C173.007 19.4672 172.443 19.8004 172.068 20.4668V23.9349C172.439 24.5967 173.007 24.9277 173.772 24.9277C174.366 24.9277 174.838 24.6929 175.187 24.2233C175.54 23.7493 175.717 23.0472 175.717 22.117Z" fill="#555555"/>
<path d="M183.022 25.8064C182.951 25.6633 182.892 25.4084 182.848 25.0417C182.271 25.641 181.582 25.9406 180.782 25.9406C180.066 25.9406 179.478 25.7394 179.017 25.3369C178.561 24.9299 178.333 24.4156 178.333 23.794C178.333 23.0382 178.619 22.4524 179.192 22.0365C179.769 21.6161 180.578 21.4059 181.62 21.4059H182.828V20.8357C182.828 20.4019 182.698 20.0576 182.438 19.8026C182.179 19.5433 181.797 19.4136 181.291 19.4136C180.849 19.4136 180.477 19.5254 180.178 19.749C179.878 19.9726 179.728 20.2431 179.728 20.5607H178.481C178.481 20.1984 178.608 19.8496 178.863 19.5142C179.122 19.1743 179.471 18.906 179.909 18.7092C180.352 18.5124 180.837 18.4141 181.365 18.4141C182.201 18.4141 182.857 18.6242 183.331 19.0446C183.805 19.4605 184.051 20.0352 184.069 20.7686V24.1093C184.069 24.7756 184.154 25.3056 184.323 25.6991V25.8064H183.022ZM180.963 24.8606C181.352 24.8606 181.721 24.76 182.07 24.5587C182.418 24.3575 182.671 24.0959 182.828 23.7739V22.2847H181.855C180.334 22.2847 179.574 22.7296 179.574 23.6196C179.574 24.0087 179.704 24.3128 179.963 24.5319C180.223 24.751 180.556 24.8606 180.963 24.8606Z" fill="#555555"/>
<path d="M189.2 18.9641C190.113 18.9641 190.842 19.2705 191.387 19.8831C191.937 20.4913 192.212 21.2941 192.212 22.2914V22.4054C192.212 23.0896 192.08 23.7023 191.816 24.2434C191.553 24.7801 191.172 25.1982 190.676 25.4979C190.184 25.793 189.616 25.9406 188.972 25.9406C187.997 25.9406 187.212 25.6164 186.618 24.9679C186.023 24.315 185.725 23.4407 185.725 22.345V21.7413C185.725 20.2163 186.007 19.0044 186.571 18.1055C187.139 17.2066 187.975 16.6588 189.08 16.462C189.706 16.3502 190.128 16.2138 190.347 16.0528C190.567 15.8918 190.676 15.6704 190.676 15.3887H191.696C191.696 15.9477 191.568 16.3837 191.313 16.6968C191.063 17.0098 190.66 17.2312 190.106 17.3609L189.18 17.5688C188.442 17.7432 187.888 18.0384 187.517 18.4543C187.15 18.8657 186.911 19.4158 186.799 20.1045C187.456 19.3443 188.257 18.9641 189.2 18.9641ZM188.959 19.9838C188.351 19.9838 187.868 20.1895 187.51 20.6009C187.152 21.0079 186.973 21.5736 186.973 22.2981V22.4054C186.973 23.1836 187.152 23.8007 187.51 24.2569C187.872 24.7085 188.36 24.9344 188.972 24.9344C189.589 24.9344 190.077 24.7063 190.435 24.2502C190.792 23.794 190.971 23.1277 190.971 22.2511C190.971 21.5669 190.79 21.0191 190.428 20.6076C190.07 20.1917 189.58 19.9838 188.959 19.9838Z" fill="#555555"/>
<path d="M193.279 22.1103C193.279 21.3992 193.417 20.7597 193.695 20.1917C193.977 19.6238 194.366 19.1855 194.862 18.8769C195.363 18.5683 195.933 18.4141 196.573 18.4141C197.561 18.4141 198.359 18.7562 198.967 19.4404C199.58 20.1246 199.886 21.0347 199.886 22.1706V22.2578C199.886 22.9644 199.75 23.5995 199.477 24.1629C199.209 24.722 198.822 25.158 198.317 25.471C197.816 25.7841 197.239 25.9406 196.586 25.9406C195.602 25.9406 194.804 25.5985 194.191 24.9143C193.583 24.23 193.279 23.3244 193.279 22.1975V22.1103ZM194.527 22.2578C194.527 23.0628 194.712 23.709 195.083 24.1965C195.459 24.6839 195.96 24.9277 196.586 24.9277C197.217 24.9277 197.717 24.6817 198.089 24.1898C198.46 23.6934 198.645 23.0002 198.645 22.1103C198.645 21.3142 198.455 20.6702 198.075 20.1783C197.7 19.6819 197.199 19.4337 196.573 19.4337C195.96 19.4337 195.466 19.6774 195.09 20.1649C194.714 20.6523 194.527 21.35 194.527 22.2578Z" fill="#555555"/>
<path d="M206.688 19.5544H204.253V25.8064H203.012V19.5544H200.624V18.5482H206.688V19.5544Z" fill="#555555"/>
<path d="M209.251 21.0504H211.136C211.959 21.0593 212.61 21.274 213.088 21.6943C213.567 22.1147 213.806 22.6849 213.806 23.4049C213.806 24.1294 213.56 24.7108 213.068 25.149C212.576 25.5873 211.914 25.8064 211.082 25.8064H208.01V18.5482H209.251V21.0504ZM216.395 25.8064H215.147V18.5482H216.395V25.8064ZM209.251 22.0633V24.7935H211.096C211.561 24.7935 211.921 24.675 212.176 24.438C212.431 24.1965 212.558 23.8678 212.558 23.4519C212.558 23.0494 212.433 22.7207 212.182 22.4658C211.936 22.2064 211.59 22.0722 211.143 22.0633H209.251Z" fill="#555555"/>
<g filter="url(#filter1_d)">
<path d="M38.1583 51.3203L31.3596 39.5446L44.957 39.5446L38.1583 51.3203Z" fill="white"/>
</g>
<defs>
<filter id="filter0_di" x="0.793945" y="0.291992" width="236.402" height="47.2523" filterUnits="userSpaceOnUse" color-interpolation-filters="sRGB">
<feFlood flood-opacity="0" result="BackgroundImageFix"/>
<feColorMatrix in="SourceAlpha" type="matrix" values="0 0 0 0 0 0 0 0 0 0 0 0 0 0 0 0 0 0 127 0"/>
<feOffset dy="4"/>
<feGaussianBlur stdDeviation="2"/>
<feColorMatrix type="matrix" values="0 0 0 0 0 0 0 0 0 0 0 0 0 0 0 0 0 0 0.25 0"/>
<feBlend mode="normal" in2="BackgroundImageFix" result="effect1_dropShadow"/>
<feBlend mode="normal" in="SourceGraphic" in2="effect1_dropShadow" result="shape"/>
<feColorMatrix in="SourceAlpha" type="matrix" values="0 0 0 0 0 0 0 0 0 0 0 0 0 0 0 0 0 0 127 0" result="hardAlpha"/>
<feOffset dx="3" dy="3"/>
<feGaussianBlur stdDeviation="2"/>
<feComposite in2="hardAlpha" operator="arithmetic" k2="-1" k3="1"/>
<feColorMatrix type="matrix" values="0 0 0 0 0 0 0 0 0 0 0 0 0 0 0 0 0 0 0.09 0"/>
<feBlend mode="normal" in2="shape" result="effect2_innerShadow"/>
</filter>
<filter id="filter1_d" x="29.3596" y="39.5449" width="17.5974" height="16.7757" filterUnits="userSpaceOnUse" color-interpolation-filters="sRGB">
<feFlood flood-opacity="0" result="BackgroundImageFix"/>
<feColorMatrix in="SourceAlpha" type="matrix" values="0 0 0 0 0 0 0 0 0 0 0 0 0 0 0 0 0 0 127 0"/>
<feOffset dy="3"/>
<feGaussianBlur stdDeviation="1"/>
<feColorMatrix type="matrix" values="0 0 0 0 0 0 0 0 0 0 0 0 0 0 0 0 0 0 0.1 0"/>
<feBlend mode="normal" in2="BackgroundImageFix" result="effect1_dropShadow"/>
<feBlend mode="normal" in="SourceGraphic" in2="effect1_dropShadow" result="shape"/>
</filter>
<clipPath id="clip0">
<rect width="49.0654" height="19.6262" fill="white" transform="translate(18.5322 10.1055)"/>
</clipPath>
</defs>
</svg>
