<svg width="250" height="57" viewBox="0 0 250 57" fill="none" xmlns="http://www.w3.org/2000/svg">
<g filter="url(#filter0_di)">
<rect x="4.56006" y="0.728516" width="241.402" height="39.2523" rx="19.6262" fill="white"/>
<rect x="5.06006" y="1.22852" width="240.402" height="38.2523" rx="19.1262" stroke="white"/>
</g>
<g clip-path="url(#clip0)">
<path d="M24.7484 19.9218H23.7877C22.2782 19.9218 20.8144 18.8184 20.8144 16.0594C20.8144 13.186 22.1868 12.0134 23.5818 12.0134H24.7484V19.9218ZM26.2579 10.5421H23.6507C21.0885 10.5421 18.9162 12.4965 18.9162 16.2897C18.9162 18.5655 19.9682 20.2438 21.8439 21.071L18.3442 27.4162C18.2297 27.6231 18.3442 27.7842 18.5269 27.7842H20.151C20.288 27.7842 20.38 27.7383 20.4257 27.6231L23.605 21.3931H24.7484V27.6231C24.7484 27.6923 24.8172 27.7842 24.9086 27.7842H26.3267C26.4638 27.7842 26.5095 27.715 26.5095 27.6005V10.7717C26.5095 10.6113 26.4181 10.5421 26.2579 10.5421Z" fill="#ED1E24"/>
<path d="M34.8552 16.2576H33.437C33.3225 16.2576 33.2543 16.3494 33.2543 16.4186V20.8094H30.6239V16.4186C30.6239 16.3035 30.5782 16.2576 30.4637 16.2576H29.0455C28.9316 16.2576 28.8628 16.3268 28.8628 16.4186V27.5917C28.8628 27.7062 28.9085 27.7754 29.0224 27.7754H30.4637C30.555 27.7754 30.6239 27.7062 30.6239 27.5917V22.258H33.2543V27.5917C33.2543 27.7062 33.3225 27.7754 33.437 27.7754H34.8552C34.9697 27.7754 35.0154 27.6829 35.0154 27.5917V16.4186C35.0154 16.3268 34.9465 16.2576 34.8552 16.2576Z" fill="#231F20"/>
<path d="M67.2331 27.0393L67.0503 26.258C67.0272 26.1888 67.0046 26.1655 66.9358 26.1655C66.8213 26.1655 66.2042 26.4184 65.3118 26.4184C63.5738 26.4184 62.7271 24.7401 62.7271 22.0736C62.7271 19.7285 63.4361 17.4067 64.6258 17.4067C64.9456 17.4067 65.3349 17.4986 65.952 18.0735C66.0208 18.1427 66.0665 18.1654 66.1353 18.1654C66.2042 18.1654 66.2724 18.1194 66.3412 18.0043L66.9589 16.9928C67.0046 16.9243 67.0272 16.8551 67.0272 16.7859C67.0272 16.694 66.9358 16.6255 66.7987 16.5563C65.8606 16.0732 65.2204 15.9813 64.6715 15.9813C62.5218 15.9813 60.8521 18.556 60.8521 22.5794C60.8521 26.0504 62.4529 28.0508 64.7404 28.0508C65.701 28.0508 66.7299 27.591 67.1417 27.2922C67.2331 27.223 67.2562 27.1311 67.2331 27.0393Z" fill="#231F20"/>
<path d="M57.2924 21.4535L60.0373 16.4186C60.083 16.3501 60.0598 16.2576 59.9685 16.2576H58.6192C58.2299 16.2576 58.0928 16.396 57.9558 16.6948L55.8974 20.9937C55.7829 21.2465 55.6684 21.4076 55.5538 21.4768V16.4186C55.5538 16.3268 55.5081 16.2576 55.4168 16.2576H53.9298C53.8616 16.2576 53.7927 16.3268 53.7927 16.4186V27.6144C53.7927 27.6835 53.8384 27.7754 53.9298 27.7754H55.4168C55.5081 27.7754 55.5538 27.7062 55.5538 27.6144V21.8441C55.6227 21.8901 55.6684 21.9592 55.714 22.0511L58.3213 27.4307C58.4589 27.7062 58.6648 27.7754 58.9621 27.7754H60.4259C60.5173 27.7754 60.5405 27.6835 60.4942 27.6144L57.2924 21.4535Z" fill="#231F20"/>
<path d="M41.7165 26.327H38.4002C39.5667 24.3273 40.0242 22.0741 40.1844 19.3151C40.2301 18.7175 40.2526 18.0972 40.2526 17.706H41.7165V26.327ZM44.1866 26.327H43.9125C43.5689 26.327 43.4776 26.1893 43.4776 25.9131V16.419C43.4776 16.3038 43.4319 16.2579 43.3405 16.2579H38.7663C38.6517 16.2579 38.5829 16.3265 38.5829 16.419V17.2461C38.5829 20.0278 38.4233 23.6146 36.9595 26.327H36.4557C36.3186 26.327 36.2729 26.3962 36.2729 26.5107V29.8673C36.2729 29.9824 36.3643 30.0283 36.4332 30.0283H37.5309C37.7825 30.0283 37.8738 29.8446 37.8738 29.6836V27.7751H42.7685V29.8673C42.7685 29.9591 42.8373 30.0283 42.9287 30.0283H44.0953C44.2323 30.0283 44.37 29.9132 44.37 29.6836V26.5107C44.37 26.3962 44.3012 26.327 44.1866 26.327Z" fill="#231F20"/>
<path d="M48.601 20.9703C48.0753 20.9703 47.2517 21.0621 47.2517 21.0621C47.2517 21.0621 47.2517 20.7174 47.2974 20.3494C47.5032 18.3956 47.9833 17.4067 48.7843 17.4067C49.5159 17.4067 49.9734 18.4182 50.0879 20.189C50.1105 20.5564 50.1105 20.9703 50.1105 20.9703H48.601ZM48.8525 15.9819C46.3824 15.9819 45.2847 19.1083 45.2847 22.5108C45.2847 25.9819 46.8399 28.0508 49.1273 28.0508C50.2475 28.0508 51.2313 27.6142 51.7345 27.2922C51.8259 27.2462 51.849 27.1777 51.8259 27.0852L51.6431 26.3039C51.62 26.2121 51.5743 26.1662 51.4598 26.1662C51.3684 26.1662 50.705 26.419 49.7675 26.419C48.0064 26.419 47.1828 24.8785 47.1828 22.8555V22.3114C47.1828 22.3114 48.0753 22.419 48.601 22.419H51.9404V21.4534C51.9404 17.8898 50.6825 15.9819 48.8525 15.9819Z" fill="#231F20"/>
</g>
<path d="M80.0461 25.3642C80.4888 25.3642 80.8757 25.23 81.2066 24.9617C81.5375 24.6934 81.7209 24.358 81.7567 23.9555H82.9306C82.9082 24.3714 82.7651 24.7672 82.5013 25.1428C82.2374 25.5185 81.8841 25.8181 81.4414 26.0417C81.0031 26.2653 80.538 26.3771 80.0461 26.3771C79.0577 26.3771 78.2707 26.0484 77.6848 25.391C77.1034 24.7292 76.8127 23.8258 76.8127 22.6809V22.473C76.8127 21.7664 76.9424 21.1381 77.2018 20.588C77.4612 20.0379 77.8324 19.6108 78.3154 19.3067C78.8028 19.0026 79.3775 18.8506 80.0394 18.8506C80.8533 18.8506 81.5286 19.0943 82.0652 19.5818C82.6064 20.0692 82.8948 20.702 82.9306 21.4802H81.7567C81.7209 21.0106 81.542 20.626 81.22 20.3264C80.9025 20.0223 80.5089 19.8702 80.0394 19.8702C79.4088 19.8702 78.9191 20.0983 78.5703 20.5545C78.2259 21.0061 78.0538 21.6613 78.0538 22.5199V22.7547C78.0538 23.591 78.2259 24.235 78.5703 24.6867C78.9146 25.1384 79.4066 25.3642 80.0461 25.3642Z" fill="#555555"/>
<path d="M90.2559 26.243H89.0149V23.1438H85.6809V26.243H84.4332V18.9847H85.6809V22.1309H89.0149V18.9847H90.2559V26.243Z" fill="#555555"/>
<path d="M97.8026 18.9847V26.243H96.5549V23.4188H94.6833L92.9727 26.243H91.6311L93.4557 23.231C92.9906 23.0611 92.6328 22.7994 92.3824 22.4462C92.1364 22.0884 92.0134 21.6725 92.0134 21.1984C92.0134 20.5366 92.2616 20.0044 92.758 19.6019C93.2545 19.1949 93.9186 18.9892 94.7504 18.9847H97.8026ZM93.2612 21.2119C93.2612 21.5651 93.3819 21.8514 93.6234 22.0705C93.8649 22.2852 94.1847 22.3947 94.5827 22.3992H96.5549V19.991H94.7705C94.3099 19.991 93.9432 20.105 93.6704 20.3331C93.3976 20.5567 93.2612 20.8496 93.2612 21.2119Z" fill="#555555"/>
<path d="M105.188 19.991H102.753V26.243H101.512V19.991H99.1241V18.9847H105.188V19.991Z" fill="#555555"/>
<path d="M107.751 21.4869H109.636C110.459 21.4958 111.109 21.7105 111.588 22.1309C112.066 22.5512 112.306 23.1214 112.306 23.8414C112.306 24.5659 112.06 25.1473 111.568 25.5856C111.076 26.0238 110.414 26.243 109.582 26.243H106.51V18.9847H107.751V21.4869ZM107.751 22.4998V25.23H109.596C110.061 25.23 110.421 25.1115 110.676 24.8745C110.93 24.633 111.058 24.3043 111.058 23.8884C111.058 23.4859 110.933 23.1572 110.682 22.9023C110.436 22.6429 110.09 22.5088 109.642 22.4998H107.751Z" fill="#555555"/>
<path d="M119.524 23.1505H118.618V26.243H117.37V18.9847H118.618V22.0571H119.43L121.871 18.9847H123.374L120.503 22.473L123.616 26.243H122.039L119.524 23.1505Z" fill="#555555"/>
<path d="M124.796 26.243V18.9847H127.627C128.593 18.9847 129.333 19.1547 129.847 19.4946C130.366 19.83 130.626 20.3241 130.626 20.9771C130.626 21.3125 130.525 21.6166 130.324 21.8894C130.123 22.1577 129.825 22.3634 129.432 22.5065C129.87 22.6094 130.221 22.8106 130.485 23.1103C130.753 23.4099 130.887 23.7677 130.887 24.1836C130.887 24.8499 130.641 25.3597 130.149 25.713C129.662 26.0663 128.971 26.243 128.077 26.243H124.796ZM126.037 23.0566V25.2435H128.09C128.609 25.2435 128.996 25.1473 129.25 24.955C129.51 24.7627 129.64 24.4921 129.64 24.1433C129.64 23.4188 129.107 23.0566 128.043 23.0566H126.037ZM126.037 22.0638H127.64C128.803 22.0638 129.385 21.7239 129.385 21.0441C129.385 20.3644 128.835 20.0133 127.734 19.991H126.037V22.0638Z" fill="#555555"/>
<path d="M137.012 26.243C136.94 26.0999 136.882 25.845 136.837 25.4782C136.26 26.0775 135.572 26.3771 134.771 26.3771C134.056 26.3771 133.468 26.1759 133.007 25.7734C132.551 25.3664 132.323 24.8521 132.323 24.2305C132.323 23.4747 132.609 22.8889 133.181 22.473C133.758 22.0526 134.568 21.8424 135.61 21.8424H136.817V21.2722C136.817 20.8384 136.688 20.4941 136.428 20.2392C136.169 19.9798 135.786 19.8501 135.281 19.8501C134.838 19.8501 134.467 19.9619 134.168 20.1855C133.868 20.4091 133.718 20.6797 133.718 20.9972H132.47C132.47 20.6349 132.598 20.2861 132.853 19.9507C133.112 19.6108 133.461 19.3425 133.899 19.1457C134.342 18.949 134.827 18.8506 135.355 18.8506C136.191 18.8506 136.846 19.0608 137.32 19.4811C137.794 19.8971 138.04 20.4717 138.058 21.2051V24.5458C138.058 25.2122 138.143 25.7421 138.313 26.1356V26.243H137.012ZM134.952 25.2971C135.341 25.2971 135.71 25.1965 136.059 24.9953C136.408 24.794 136.661 24.5324 136.817 24.2104V22.7212H135.845C134.324 22.7212 133.564 23.1662 133.564 24.0561C133.564 24.4452 133.693 24.7493 133.953 24.9684C134.212 25.1876 134.545 25.2971 134.952 25.2971Z" fill="#555555"/>
<path d="M146.135 22.6944C146.135 23.799 145.882 24.6889 145.377 25.3642C144.872 26.0395 144.187 26.3771 143.324 26.3771C142.443 26.3771 141.75 26.0976 141.245 25.5386V29.0336H140.004V18.9847H141.137L141.198 19.7897C141.703 19.1636 142.405 18.8506 143.304 18.8506C144.176 18.8506 144.865 19.1793 145.37 19.8367C145.88 20.4941 146.135 21.4086 146.135 22.5803V22.6944ZM144.894 22.5535C144.894 21.7351 144.719 21.0889 144.371 20.6148C144.022 20.1408 143.543 19.9038 142.935 19.9038C142.184 19.9038 141.62 20.2369 141.245 20.9033V24.3714C141.616 25.0333 142.184 25.3642 142.949 25.3642C143.543 25.3642 144.015 25.1294 144.364 24.6598C144.717 24.1858 144.894 23.4837 144.894 22.5535Z" fill="#555555"/>
<path d="M152.575 19.991H150.14V26.243H148.899V19.991H146.511V18.9847H152.575V19.991Z" fill="#555555"/>
<path d="M158.478 18.9847H159.719V26.243H158.478V20.9502L155.131 26.243H153.89V18.9847H155.131V24.2842L158.478 18.9847Z" fill="#555555"/>
<path d="M167.843 22.6944C167.843 23.799 167.59 24.6889 167.084 25.3642C166.579 26.0395 165.895 26.3771 165.032 26.3771C164.151 26.3771 163.458 26.0976 162.952 25.5386V29.0336H161.711V18.9847H162.845L162.905 19.7897C163.411 19.1636 164.113 18.8506 165.012 18.8506C165.884 18.8506 166.572 19.1793 167.078 19.8367C167.588 20.4941 167.843 21.4086 167.843 22.5803V22.6944ZM166.602 22.5535C166.602 21.7351 166.427 21.0889 166.078 20.6148C165.729 20.1408 165.251 19.9038 164.643 19.9038C163.891 19.9038 163.328 20.2369 162.952 20.9033V24.3714C163.323 25.0333 163.891 25.3642 164.656 25.3642C165.251 25.3642 165.723 25.1294 166.072 24.6598C166.425 24.1858 166.602 23.4837 166.602 22.5535Z" fill="#555555"/>
<path d="M171.72 24.4251L173.41 18.9847H174.739L171.82 27.3632C171.369 28.5707 170.651 29.1744 169.667 29.1744L169.432 29.1543L168.969 29.0671V28.0609L169.305 28.0877C169.725 28.0877 170.052 28.0027 170.284 27.8328C170.521 27.6629 170.716 27.3521 170.868 26.9004L171.143 26.1625L168.554 18.9847H169.909L171.72 24.4251Z" fill="#555555"/>
<path d="M179.374 26.243V18.9847H182.205C183.171 18.9847 183.911 19.1547 184.425 19.4946C184.944 19.83 185.203 20.3241 185.203 20.9771C185.203 21.3125 185.103 21.6166 184.901 21.8894C184.7 22.1577 184.403 22.3634 184.009 22.5065C184.447 22.6094 184.799 22.8106 185.062 23.1103C185.331 23.4099 185.465 23.7677 185.465 24.1836C185.465 24.8499 185.219 25.3597 184.727 25.713C184.24 26.0663 183.549 26.243 182.654 26.243H179.374ZM180.615 23.0566V25.2435H182.668C183.186 25.2435 183.573 25.1473 183.828 24.955C184.087 24.7627 184.217 24.4921 184.217 24.1433C184.217 23.4188 183.685 23.0566 182.621 23.0566H180.615ZM180.615 22.0638H182.218C183.381 22.0638 183.962 21.7239 183.962 21.0441C183.962 20.3644 183.412 20.0133 182.312 19.991H180.615V22.0638Z" fill="#555555"/>
<path d="M193.427 25.3642C193.87 25.3642 194.257 25.23 194.588 24.9617C194.919 24.6934 195.102 24.358 195.138 23.9555H196.312C196.29 24.3714 196.146 24.7672 195.883 25.1428C195.619 25.5185 195.265 25.8181 194.823 26.0417C194.384 26.2653 193.919 26.3771 193.427 26.3771C192.439 26.3771 191.652 26.0484 191.066 25.391C190.485 24.7292 190.194 23.8258 190.194 22.6809V22.473C190.194 21.7664 190.324 21.1381 190.583 20.588C190.843 20.0379 191.214 19.6108 191.697 19.3067C192.184 19.0026 192.759 18.8506 193.421 18.8506C194.235 18.8506 194.91 19.0943 195.447 19.5818C195.988 20.0692 196.276 20.702 196.312 21.4802H195.138C195.102 21.0106 194.923 20.626 194.601 20.3264C194.284 20.0223 193.89 19.8702 193.421 19.8702C192.79 19.8702 192.3 20.0983 191.952 20.5545C191.607 21.0061 191.435 21.6613 191.435 22.5199V22.7547C191.435 23.591 191.607 24.235 191.952 24.6867C192.296 25.1384 192.788 25.3642 193.427 25.3642Z" fill="#555555"/>
<path d="M203.644 26.243H202.403V20.0111H199.062V26.243H197.815V18.9847H203.644V26.243Z" fill="#555555"/>
<path d="M208.823 19.4006C209.735 19.4006 210.464 19.707 211.01 20.3197C211.56 20.9279 211.835 21.7306 211.835 22.7279V22.8419C211.835 23.5262 211.703 24.1388 211.439 24.68C211.175 25.2166 210.795 25.6348 210.298 25.9344C209.807 26.2296 209.239 26.3771 208.595 26.3771C207.62 26.3771 206.835 26.0529 206.24 25.4045C205.645 24.7515 205.348 23.8772 205.348 22.7816V22.1778C205.348 20.6528 205.63 19.4409 206.193 18.542C206.761 17.6431 207.597 17.0953 208.702 16.8985C209.328 16.7867 209.751 16.6503 209.97 16.4893C210.189 16.3283 210.298 16.1069 210.298 15.8252H211.318C211.318 16.3842 211.191 16.8202 210.936 17.1333C210.685 17.4463 210.283 17.6677 209.728 17.7974L208.803 18.0053C208.065 18.1798 207.51 18.4749 207.139 18.8908C206.772 19.3023 206.533 19.8523 206.421 20.541C207.079 19.7808 207.879 19.4006 208.823 19.4006ZM208.581 20.4203C207.973 20.4203 207.49 20.626 207.132 21.0374C206.774 21.4444 206.596 22.0101 206.596 22.7346V22.8419C206.596 23.6201 206.774 24.2372 207.132 24.6934C207.494 25.1451 207.982 25.3709 208.595 25.3709C209.212 25.3709 209.699 25.1428 210.057 24.6867C210.415 24.2305 210.594 23.5642 210.594 22.6876C210.594 22.0034 210.413 21.4556 210.05 21.0441C209.693 20.6282 209.203 20.4203 208.581 20.4203Z" fill="#555555"/>
<g filter="url(#filter1_d)">
<path d="M123.298 51.7568L116.5 39.9811L130.097 39.9811L123.298 51.7568Z" fill="white"/>
</g>
<defs>
<filter id="filter0_di" x="0.560059" y="0.728516" width="249.402" height="47.2523" filterUnits="userSpaceOnUse" color-interpolation-filters="sRGB">
<feFlood flood-opacity="0" result="BackgroundImageFix"/>
<feColorMatrix in="SourceAlpha" type="matrix" values="0 0 0 0 0 0 0 0 0 0 0 0 0 0 0 0 0 0 127 0"/>
<feOffset dy="4"/>
<feGaussianBlur stdDeviation="2"/>
<feColorMatrix type="matrix" values="0 0 0 0 0 0 0 0 0 0 0 0 0 0 0 0 0 0 0.25 0"/>
<feBlend mode="normal" in2="BackgroundImageFix" result="effect1_dropShadow"/>
<feBlend mode="normal" in="SourceGraphic" in2="effect1_dropShadow" result="shape"/>
<feColorMatrix in="SourceAlpha" type="matrix" values="0 0 0 0 0 0 0 0 0 0 0 0 0 0 0 0 0 0 127 0" result="hardAlpha"/>
<feOffset dx="3" dy="3"/>
<feGaussianBlur stdDeviation="2"/>
<feComposite in2="hardAlpha" operator="arithmetic" k2="-1" k3="1"/>
<feColorMatrix type="matrix" values="0 0 0 0 0 0 0 0 0 0 0 0 0 0 0 0 0 0 0.09 0"/>
<feBlend mode="normal" in2="shape" result="effect2_innerShadow"/>
</filter>
<filter id="filter1_d" x="114.5" y="39.9814" width="17.5974" height="16.7757" filterUnits="userSpaceOnUse" color-interpolation-filters="sRGB">
<feFlood flood-opacity="0" result="BackgroundImageFix"/>
<feColorMatrix in="SourceAlpha" type="matrix" values="0 0 0 0 0 0 0 0 0 0 0 0 0 0 0 0 0 0 127 0"/>
<feOffset dy="3"/>
<feGaussianBlur stdDeviation="1"/>
<feColorMatrix type="matrix" values="0 0 0 0 0 0 0 0 0 0 0 0 0 0 0 0 0 0 0.1 0"/>
<feBlend mode="normal" in2="BackgroundImageFix" result="effect1_dropShadow"/>
<feBlend mode="normal" in="SourceGraphic" in2="effect1_dropShadow" result="shape"/>
</filter>
<clipPath id="clip0">
<rect width="49.0654" height="19.6262" fill="white" transform="translate(18.2983 10.542)"/>
</clipPath>
</defs>
</svg>
