<svg width="55" height="17" viewBox="0 0 55 17" fill="none" xmlns="http://www.w3.org/2000/svg">
<path fill-rule="evenodd" clip-rule="evenodd" d="M31.9196 0.902637C32.3969 0.572602 32.9924 0.404785 33.6904 0.404785C34.377 0.404785 34.9628 0.558933 35.4294 0.88791C35.8987 1.21886 36.1675 1.6704 36.3191 2.11846C36.4672 2.55586 36.512 3.01298 36.5258 3.40579C36.5348 3.66318 36.5305 3.94244 36.5269 4.17364C36.5252 4.27868 36.5238 4.3738 36.5238 4.45243L34.9047 4.45238C34.9047 4.32251 34.9067 4.20167 34.9087 4.08371C34.9122 3.87881 34.9155 3.68255 34.9078 3.46256C34.8962 3.13439 34.8601 2.85788 34.7856 2.63753C34.7146 2.42786 34.619 2.29756 34.4964 2.21109C34.371 2.12266 34.1372 2.02383 33.6904 2.02383C33.2551 2.02383 32.9973 2.12586 32.8404 2.23431C32.683 2.34319 32.5658 2.50115 32.4841 2.71615C32.3079 3.1796 32.3394 3.80591 32.452 4.25607C32.4718 4.33545 32.4904 4.41124 32.5082 4.48401C32.622 4.94768 32.7055 5.28835 32.8919 5.64957C33.0947 6.04246 33.4431 6.4931 34.1761 7.04289C35.2204 7.82608 35.7846 8.60634 36.0986 9.30732C36.3369 9.83943 36.4342 10.3781 36.4778 10.6197C36.4873 10.6724 36.4943 10.711 36.4996 10.7323L36.5238 10.8289L36.5238 14.5714C36.5238 14.9608 36.3766 15.4721 35.9744 15.891C35.5526 16.3304 34.9221 16.5953 34.0952 16.5953C32.4078 16.5953 31.5341 15.5193 31.3034 14.8274L31.2619 14.7028V10.9286H32.8809V14.4012C32.9948 14.5938 33.3374 14.9762 34.0952 14.9762C34.5636 14.9762 34.7426 14.8363 34.8065 14.7698C34.8463 14.7283 34.8715 14.6842 34.887 14.6438C34.9036 14.6 34.9048 14.5715 34.9048 14.5715L34.9047 11.0224C34.8841 10.9294 34.8684 10.8439 34.8531 10.7606C34.8088 10.5194 34.768 10.2973 34.621 9.96911C34.4288 9.54 34.0486 8.97105 33.2047 8.33811C32.3187 7.67362 31.7901 7.04489 31.4532 6.39214C31.1718 5.84684 31.0409 5.30622 30.9304 4.84971C30.9137 4.7807 30.8975 4.71363 30.8813 4.64874C30.724 4.01953 30.634 3.02679 30.9706 2.14104C31.1452 1.68143 31.4429 1.23225 31.9196 0.902637Z" fill="white"/>
<path fill-rule="evenodd" clip-rule="evenodd" d="M9.02285 2.42857C5.65348 2.42857 2.92857 5.15042 2.92857 8.5C2.92857 11.8496 5.65348 14.5714 9.02285 14.5714C10.5704 14.5714 11.9801 13.9984 13.055 13.0526L14.6593 14.8759C13.1574 16.1974 11.1824 17 9.02285 17C4.3194 17 0.5 13.198 0.5 8.5C0.5 3.802 4.3194 0 9.02285 0C11.1824 0 13.1574 0.802637 14.6593 2.12407L13.055 3.94736C11.9801 3.00161 10.5704 2.42857 9.02285 2.42857Z" fill="white"/>
<path fill-rule="evenodd" clip-rule="evenodd" d="M46.2563 0.324219L54.6445 16.2176L53.2126 16.9733L50.7488 12.3049H41.4525L38.8505 16.9886L37.4352 16.2023L46.2563 0.324219ZM42.352 10.6859H49.8943L46.2198 3.72375L42.352 10.6859Z" fill="white"/>
<path fill-rule="evenodd" clip-rule="evenodd" d="M21.5383 1.95559C22.1741 1.07253 23.2267 0.404785 24.7857 0.404785C26.3448 0.404785 27.3974 1.07253 28.0332 1.95559C28.6392 2.79736 28.8333 3.78318 28.8333 4.4524H27.2143C27.2143 4.04226 27.0846 3.40903 26.7192 2.9016C26.3836 2.43545 25.8171 2.02383 24.7857 2.02383C23.7543 2.02383 23.1878 2.43545 22.8522 2.9016C22.4869 3.40903 22.3572 4.04226 22.3572 4.4524C22.3572 5.04727 22.8506 6.74601 25.3661 7.30501C27.325 7.74032 28.4498 8.67533 29.047 9.77358C29.6208 10.8287 29.6429 11.9252 29.6429 12.5476C29.6429 13.2378 29.4173 14.2372 28.7338 15.081C28.0225 15.9591 26.8736 16.5953 25.1905 16.5953C23.3715 16.5953 22.1585 15.9786 21.3938 15.1045C20.6552 14.2604 20.4174 13.2706 20.3396 12.6481L21.9461 12.4472C22.0033 12.9041 22.1702 13.5333 22.6122 14.0384C23.028 14.5135 23.7714 14.9762 25.1905 14.9762C26.4217 14.9762 27.0941 14.533 27.4757 14.0619C27.8851 13.5565 28.0238 12.9369 28.0238 12.5476C28.0238 11.9558 27.9897 11.2184 27.6247 10.547C27.283 9.91878 26.5865 9.23475 25.0149 8.88551C21.7018 8.14928 20.7381 5.74643 20.7381 4.4524C20.7381 3.78318 20.9322 2.79736 21.5383 1.95559Z" fill="white"/>
<path fill-rule="evenodd" clip-rule="evenodd" d="M15.881 6.07144C14.2239 6.07144 13.0476 7.24575 13.0476 8.50001C13.0476 9.75427 14.2239 10.9286 15.881 10.9286C17.538 10.9286 18.7143 9.75427 18.7143 8.50001C18.7143 7.24575 17.538 6.07144 15.881 6.07144ZM11.4286 8.50001C11.4286 6.17757 13.5143 4.45239 15.881 4.45239C18.2477 4.45239 20.3334 6.17757 20.3334 8.50001C20.3334 10.8225 18.2477 12.5476 15.881 12.5476C13.5143 12.5476 11.4286 10.8225 11.4286 8.50001Z" fill="white"/>
</svg>
