<svg width="56" height="56" viewBox="0 0 56 56" fill="none" xmlns="http://www.w3.org/2000/svg">
<path d="M51.16 52.5002L48.1487 41.9605L52.4842 19.4155C52.5086 19.2889 52.5047 19.1584 52.4728 19.0335C52.4408 18.9086 52.3817 18.7923 52.2996 18.693C52.2175 18.5936 52.1145 18.5135 51.9979 18.4586C51.8812 18.4037 51.7539 18.3752 51.625 18.3752H49.4222C48.6078 18.3759 47.819 18.6603 47.1916 19.1795C46.5641 19.6988 46.1372 20.4203 45.9841 21.2202L43.0259 36.7502H30.1875C29.3753 36.7502 28.5963 37.0728 28.022 37.6472C27.4477 38.2215 27.125 39.0005 27.125 39.8127C27.125 40.6249 27.4477 41.4039 28.022 41.9782C28.5963 42.5525 29.3753 42.8752 30.1875 42.8752H30.9925L29.1878 52.5002H25.375V31.5002H30.5156C30.7766 31.4999 31.0268 31.3961 31.2114 31.2116C31.3959 31.027 31.4997 30.7768 31.5 30.5158V27.2346C31.4997 26.9736 31.3959 26.7234 31.2114 26.5388C31.0268 26.3543 30.7766 26.2505 30.5156 26.2502H13.0375C12.8644 25.4102 12.4489 24.6394 11.8424 24.033C11.2359 23.4266 10.465 23.0112 9.625 22.8382V14.5926L12.0141 13.637L13.4094 19.4954C13.5919 20.26 14.0262 20.9411 14.6424 21.4291C15.2587 21.9171 16.0212 22.1837 16.8073 22.186C17.0958 22.1858 17.3832 22.1502 17.6631 22.0799L18.5876 21.8488C18.8111 21.793 19.0035 21.6512 19.1232 21.4543C19.2428 21.2575 19.2799 21.0214 19.2266 20.7973L14.8516 2.4223C14.8248 2.30972 14.7759 2.20358 14.7078 2.11002C14.6397 2.01646 14.5537 1.93734 14.4548 1.87724C14.3559 1.81715 14.2461 1.77726 14.1317 1.7599C14.0172 1.74254 13.9005 1.74805 13.7882 1.77611L12.8064 2.02155C11.914 2.24774 11.1462 2.81526 10.6681 3.60196C10.19 4.38866 10.0399 5.33163 10.2501 6.22789L11.6047 11.916L8.42505 13.1877C8.26267 13.2527 8.12349 13.3648 8.02544 13.5096C7.9274 13.6544 7.875 13.8253 7.875 14.0002V22.8382C7.0351 23.0113 6.26432 23.4267 5.65794 24.0331C5.05156 24.6395 4.63615 25.4103 4.46305 26.2502H2.73438C2.47339 26.2505 2.22318 26.3543 2.03864 26.5388C1.85409 26.7234 1.75029 26.9736 1.75 27.2346V30.5158C1.75029 30.7768 1.85409 31.027 2.03864 31.2116C2.22318 31.3961 2.47339 31.4999 2.73438 31.5002H4.375V52.5002H1.75V54.2502H54.25V52.5002H51.16ZM13.2304 3.71948L13.3538 3.68864L17.3235 20.3611L17.2382 20.3824C17.0136 20.4386 16.7801 20.4496 16.5513 20.4149C16.3224 20.3802 16.1027 20.3005 15.9049 20.1803C15.7071 20.0601 15.5351 19.9018 15.3989 19.7147C15.2626 19.5275 15.1649 19.3152 15.1112 19.0901L11.9524 5.82287C11.8472 5.37473 11.9223 4.90322 12.1613 4.50983C12.4003 4.11644 12.7842 3.83263 13.2304 3.71948ZM8.75 24.5002C9.29262 24.5009 9.82174 24.6695 10.2648 24.9828C10.7078 25.2961 11.043 25.7388 11.2245 26.2502H6.2755C6.45696 25.7388 6.7922 25.2961 7.23523 24.9828C7.67826 24.6695 8.20738 24.5009 8.75 24.5002ZM3.5 29.7502V28.0002H29.75V29.7502H3.5ZM7.875 52.5002H6.125V31.5002H7.875V52.5002ZM20.125 52.5002H9.625V31.5002H20.125V52.5002ZM23.625 52.5002H21.875V31.5002H23.625V52.5002ZM30.1875 41.1252C29.8394 41.1252 29.5056 40.9869 29.2594 40.7408C29.0133 40.4946 28.875 40.1608 28.875 39.8127C28.875 39.4646 29.0133 39.1308 29.2594 38.8846C29.5056 38.6385 29.8394 38.5002 30.1875 38.5002H43.75C43.9536 38.5002 44.1508 38.4292 44.3077 38.2994C44.4646 38.1696 44.5713 37.9892 44.6095 37.7893L47.7031 21.548C47.7796 21.148 47.9931 20.7872 48.3068 20.5275C48.6205 20.2678 49.0149 20.1255 49.4222 20.1252H50.5657L46.5272 41.1252H30.1875ZM30.9684 52.5002L32.7731 42.8752H34.4925L32.6878 52.5002H30.9684ZM34.4684 52.5002L36.2731 42.8752H43.0899L45.8399 52.5002H34.4684ZM47.66 52.5002L44.9099 42.8752H46.59L49.34 52.5002H47.66Z" fill="#3C2458"/>
<path d="M35 25.375C37.2498 25.375 39.449 24.7079 41.3196 23.458C43.1902 22.2081 44.6482 20.4315 45.5091 18.353C46.3701 16.2745 46.5953 13.9874 46.1564 11.7809C45.7175 9.57432 44.6342 7.54749 43.0433 5.95667C41.4525 4.36584 39.4257 3.28248 37.2192 2.84357C35.0126 2.40467 32.7255 2.62993 30.647 3.49088C28.5685 4.35182 26.7919 5.80978 25.542 7.68039C24.2921 9.551 23.625 11.7502 23.625 14C23.6284 17.0158 24.8279 19.9071 26.9604 22.0396C29.0929 24.1721 31.9842 25.3716 35 25.375ZM25.4151 13.125C25.6228 10.8851 26.6071 8.78836 28.1977 7.19773C29.7884 5.60711 31.8851 4.62277 34.125 4.41515V5.25001H35.875V4.41515C38.1149 4.62277 40.2116 5.60711 41.8023 7.19773C43.3929 8.78836 44.3772 10.8851 44.5849 13.125H43.75V14.875H44.5849C44.3772 17.1149 43.3929 19.2116 41.8023 20.8023C40.2117 22.3929 38.1149 23.3772 35.875 23.5848V22.75H34.125V23.5848C31.8851 23.3772 29.7883 22.3929 28.1977 20.8023C26.6071 19.2116 25.6227 17.1149 25.4151 14.875H26.25V13.125H25.4151Z" fill="#3C2458"/>
<path d="M35.5469 14.6833C35.6493 14.6013 35.732 14.4973 35.7888 14.379C35.8456 14.2607 35.875 14.1312 35.875 14V7H34.125V13.5795L30.0781 16.817L31.1719 18.1835L35.5469 14.6833Z" fill="#3C2458"/>
</svg>
