<svg width="88" height="16" viewBox="0 0 88 16" fill="none" xmlns="http://www.w3.org/2000/svg">
<path d="M6.06918 0.320513H0.176392V15.5283H5.98178C11.482 15.5283 14.6898 12.2697 14.6898 7.88111V7.83731C14.6902 3.44891 11.5254 0.320513 6.06918 0.320513ZM10.3468 7.94611C10.3468 10.4005 8.66638 11.7915 6.13487 11.7915H4.41064V4.05731H6.13487C8.66638 4.05731 10.3468 5.46931 10.3468 7.90251V7.94611ZM17.5052 15.5275H21.7609V0.320513H17.5052V15.5275ZM31.5821 6.05591C29.4649 5.57771 28.9411 5.27371 28.9411 4.57891V4.53491C28.9411 3.99171 29.4434 3.55731 30.4689 3.55731C31.8216 3.55731 33.3496 4.07831 34.7467 5.05651L36.8635 2.07951C35.2046 0.754513 33.1752 0.0589133 30.5782 0.0589133C26.9115 0.0589133 24.6637 2.10091 24.6637 4.92531V4.96891C24.6637 8.09771 27.1735 9.01031 30.4251 9.74811C32.4985 10.2259 33.0004 10.5735 33.0004 11.2039V11.2473C33.0004 11.8989 32.3892 12.2899 31.2544 12.2899C29.4868 12.2899 27.8062 11.6603 26.3005 10.4653L23.9434 13.2681C25.8204 14.9411 28.3957 15.7889 31.102 15.7889C34.812 15.7889 37.2784 13.9423 37.2784 10.8353V10.7919C37.2782 7.94611 35.0955 6.81651 31.5821 6.05591ZM55.8068 7.92451V7.88091C55.8068 3.51411 52.3152 0.0161133 47.6007 0.0161133C42.8869 0.0161133 39.3512 3.55771 39.3512 7.92451V7.96771C39.3512 12.3345 42.8431 15.8325 47.5576 15.8325C49.3033 15.8325 50.8965 15.3325 52.2061 14.4853L53.8863 15.9841L56.025 13.6161L54.4541 12.2915C55.3265 11.0529 55.8068 9.53171 55.8068 7.92451ZM51.5077 8.01111C51.5077 8.53251 51.4203 9.03211 51.2457 9.48811L49.1725 7.61971L47.0338 10.0095L49.1508 11.8131C48.6925 11.9869 48.1689 12.0955 47.6016 12.0955C45.2667 12.0955 43.6952 10.1623 43.6952 7.96771V7.92451C43.6952 5.73011 45.2446 3.81811 47.5578 3.81811C49.9151 3.81811 51.5085 5.75171 51.5085 7.96771V8.01091L51.5077 8.01111ZM68.2908 8.88011C68.2908 11.0087 67.1771 12.0079 65.4748 12.0079C63.7729 12.0079 62.6596 10.9657 62.6596 8.77111V0.320513H58.3605V8.85851C58.3605 13.6163 61.0885 15.8111 65.4316 15.8111C69.7747 15.8111 72.5899 13.6603 72.5899 8.75011V0.320513H68.2908V8.88011ZM82.1273 6.05591C80.0103 5.57771 79.4863 5.27371 79.4863 4.57891V4.53491C79.4863 3.99171 79.9886 3.55731 81.0146 3.55731C82.367 3.55731 83.8953 4.07831 85.2919 5.05651L87.4091 2.08011C85.7507 0.755113 83.7213 0.0595133 81.1243 0.0595133C77.4577 0.0595133 75.2096 2.10151 75.2096 4.92591V4.96951C75.2096 8.09831 77.7195 9.01051 80.971 9.74871C83.0445 10.2269 83.5463 10.5745 83.5463 11.2049V11.2479C83.5463 11.8995 82.935 12.2909 81.8002 12.2909C80.0324 12.2909 78.3517 11.6605 76.8461 10.4659L74.4896 13.2683C76.3667 14.9417 78.9418 15.7887 81.6475 15.7887C85.358 15.7887 87.824 13.9421 87.824 10.8355V10.7917C87.8236 7.94611 85.6409 6.81651 82.1273 6.05591Z" fill="#229CFF"/>
</svg>
