<svg width="335" height="463" viewBox="0 0 335 463" fill="none" xmlns="http://www.w3.org/2000/svg">
<path d="M7.75781 35H1.05469V33.4375L4.13281 29.5234C4.52344 28.9818 4.8099 28.5078 4.99219 28.1016C5.17969 27.6901 5.27344 27.2969 5.27344 26.9219C5.27344 26.4167 5.1849 26.0208 5.00781 25.7344C4.83594 25.4479 4.58594 25.3047 4.25781 25.3047C3.89844 25.3047 3.61198 25.4714 3.39844 25.8047C3.1901 26.138 3.08594 26.6068 3.08594 27.2109H0.867188C0.867188 26.513 1.01042 25.875 1.29688 25.2969C1.58854 24.7188 1.99479 24.2708 2.51562 23.9531C3.04167 23.6302 3.63542 23.4688 4.29688 23.4688C5.3125 23.4688 6.09896 23.75 6.65625 24.3125C7.21875 24.8698 7.5 25.6641 7.5 26.6953C7.5 27.3359 7.34375 27.987 7.03125 28.6484C6.72396 29.3047 6.16406 30.1146 5.35156 31.0781L3.89062 33.1641H7.75781V35ZM15.7578 30.2969C15.7578 31.8698 15.4714 33.0729 14.8984 33.9062C14.3307 34.7396 13.5182 35.1562 12.4609 35.1562C11.4141 35.1562 10.6042 34.7526 10.0312 33.9453C9.46354 33.1328 9.16927 31.9714 9.14844 30.4609V28.3125C9.14844 26.7448 9.43229 25.5469 10 24.7188C10.5677 23.8854 11.3828 23.4688 12.4453 23.4688C13.5078 23.4688 14.3229 23.8802 14.8906 24.7031C15.4583 25.526 15.7474 26.7005 15.7578 28.2266V30.2969ZM13.5391 27.9922C13.5391 27.0964 13.4505 26.4245 13.2734 25.9766C13.0964 25.5286 12.8203 25.3047 12.4453 25.3047C11.7422 25.3047 11.3776 26.125 11.3516 27.7656V30.6016C11.3516 31.5182 11.4401 32.2005 11.6172 32.6484C11.7995 33.0964 12.0807 33.3203 12.4609 33.3203C12.8203 33.3203 13.0859 33.112 13.2578 32.6953C13.4349 32.2734 13.5286 31.6302 13.5391 30.7656V27.9922ZM23.8516 30.2969C23.8516 31.8698 23.5651 33.0729 22.9922 33.9062C22.4245 34.7396 21.612 35.1562 20.5547 35.1562C19.5078 35.1562 18.6979 34.7526 18.125 33.9453C17.5573 33.1328 17.263 31.9714 17.2422 30.4609V28.3125C17.2422 26.7448 17.526 25.5469 18.0938 24.7188C18.6615 23.8854 19.4766 23.4688 20.5391 23.4688C21.6016 23.4688 22.4167 23.8802 22.9844 24.7031C23.5521 25.526 23.8411 26.7005 23.8516 28.2266V30.2969ZM21.6328 27.9922C21.6328 27.0964 21.5443 26.4245 21.3672 25.9766C21.1901 25.5286 20.9141 25.3047 20.5391 25.3047C19.8359 25.3047 19.4714 26.125 19.4453 27.7656V30.6016C19.4453 31.5182 19.5339 32.2005 19.7109 32.6484C19.8932 33.0964 20.1745 33.3203 20.5547 33.3203C20.9141 33.3203 21.1797 33.112 21.3516 32.6953C21.5286 32.2734 21.6224 31.6302 21.6328 30.7656V27.9922ZM31.7109 26.6484C31.7109 27.2005 31.5938 27.6901 31.3594 28.1172C31.125 28.5443 30.8021 28.8854 30.3906 29.1406C30.8594 29.4062 31.2292 29.7734 31.5 30.2422C31.7708 30.7057 31.9062 31.2526 31.9062 31.8828C31.9062 32.8932 31.6146 33.6927 31.0312 34.2812C30.4479 34.8646 29.6536 35.1562 28.6484 35.1562C27.6432 35.1562 26.8438 34.8646 26.25 34.2812C25.6562 33.6927 25.3594 32.8932 25.3594 31.8828C25.3594 31.2526 25.4948 30.7031 25.7656 30.2344C26.0365 29.7656 26.4089 29.401 26.8828 29.1406C26.4661 28.8854 26.1406 28.5443 25.9062 28.1172C25.6719 27.6901 25.5547 27.2005 25.5547 26.6484C25.5547 25.6536 25.8333 24.875 26.3906 24.3125C26.9479 23.75 27.6953 23.4688 28.6328 23.4688C29.5807 23.4688 30.3307 23.7526 30.8828 24.3203C31.4349 24.888 31.7109 25.6641 31.7109 26.6484ZM28.6484 33.3203C28.9818 33.3203 29.237 33.1797 29.4141 32.8984C29.5964 32.612 29.6875 32.2161 29.6875 31.7109C29.6875 31.2057 29.5938 30.8099 29.4062 30.5234C29.2188 30.237 28.9609 30.0938 28.6328 30.0938C28.3047 30.0938 28.0443 30.237 27.8516 30.5234C27.6641 30.8099 27.5703 31.2057 27.5703 31.7109C27.5703 32.2161 27.6641 32.612 27.8516 32.8984C28.0443 33.1797 28.3099 33.3203 28.6484 33.3203ZM29.5078 26.7656C29.5078 26.3229 29.4349 25.9688 29.2891 25.7031C29.1484 25.4375 28.9297 25.3047 28.6328 25.3047C28.3516 25.3047 28.138 25.4349 27.9922 25.6953C27.8464 25.9505 27.7734 26.3073 27.7734 26.7656C27.7734 27.2135 27.8464 27.5755 27.9922 27.8516C28.138 28.1224 28.3568 28.2578 28.6484 28.2578C28.9401 28.2578 29.1562 28.1224 29.2969 27.8516C29.4375 27.5755 29.5078 27.2135 29.5078 26.7656Z" fill="#CDCCCC"/>
<path d="M7.75781 67H1.05469V65.4375L4.13281 61.5234C4.52344 60.9818 4.8099 60.5078 4.99219 60.1016C5.17969 59.6901 5.27344 59.2969 5.27344 58.9219C5.27344 58.4167 5.1849 58.0208 5.00781 57.7344C4.83594 57.4479 4.58594 57.3047 4.25781 57.3047C3.89844 57.3047 3.61198 57.4714 3.39844 57.8047C3.1901 58.138 3.08594 58.6068 3.08594 59.2109H0.867188C0.867188 58.513 1.01042 57.875 1.29688 57.2969C1.58854 56.7188 1.99479 56.2708 2.51562 55.9531C3.04167 55.6302 3.63542 55.4688 4.29688 55.4688C5.3125 55.4688 6.09896 55.75 6.65625 56.3125C7.21875 56.8698 7.5 57.6641 7.5 58.6953C7.5 59.3359 7.34375 59.987 7.03125 60.6484C6.72396 61.3047 6.16406 62.1146 5.35156 63.0781L3.89062 65.1641H7.75781V67ZM15.7578 62.2969C15.7578 63.8698 15.4714 65.0729 14.8984 65.9062C14.3307 66.7396 13.5182 67.1562 12.4609 67.1562C11.4141 67.1562 10.6042 66.7526 10.0312 65.9453C9.46354 65.1328 9.16927 63.9714 9.14844 62.4609V60.3125C9.14844 58.7448 9.43229 57.5469 10 56.7188C10.5677 55.8854 11.3828 55.4688 12.4453 55.4688C13.5078 55.4688 14.3229 55.8802 14.8906 56.7031C15.4583 57.526 15.7474 58.7005 15.7578 60.2266V62.2969ZM13.5391 59.9922C13.5391 59.0964 13.4505 58.4245 13.2734 57.9766C13.0964 57.5286 12.8203 57.3047 12.4453 57.3047C11.7422 57.3047 11.3776 58.125 11.3516 59.7656V62.6016C11.3516 63.5182 11.4401 64.2005 11.6172 64.6484C11.7995 65.0964 12.0807 65.3203 12.4609 65.3203C12.8203 65.3203 13.0859 65.112 13.2578 64.6953C13.4349 64.2734 13.5286 63.6302 13.5391 62.7656V59.9922ZM23.8516 62.2969C23.8516 63.8698 23.5651 65.0729 22.9922 65.9062C22.4245 66.7396 21.612 67.1562 20.5547 67.1562C19.5078 67.1562 18.6979 66.7526 18.125 65.9453C17.5573 65.1328 17.263 63.9714 17.2422 62.4609V60.3125C17.2422 58.7448 17.526 57.5469 18.0938 56.7188C18.6615 55.8854 19.4766 55.4688 20.5391 55.4688C21.6016 55.4688 22.4167 55.8802 22.9844 56.7031C23.5521 57.526 23.8411 58.7005 23.8516 60.2266V62.2969ZM21.6328 59.9922C21.6328 59.0964 21.5443 58.4245 21.3672 57.9766C21.1901 57.5286 20.9141 57.3047 20.5391 57.3047C19.8359 57.3047 19.4714 58.125 19.4453 59.7656V62.6016C19.4453 63.5182 19.5339 64.2005 19.7109 64.6484C19.8932 65.0964 20.1745 65.3203 20.5547 65.3203C20.9141 65.3203 21.1797 65.112 21.3516 64.6953C21.5286 64.2734 21.6224 63.6302 21.6328 62.7656V59.9922ZM29.625 62.6016C29.1562 63.0807 28.6432 63.3203 28.0859 63.3203C27.2214 63.3203 26.5391 62.974 26.0391 62.2812C25.5443 61.5833 25.2969 60.6536 25.2969 59.4922C25.2969 58.7422 25.4375 58.0573 25.7188 57.4375C26 56.8125 26.3906 56.3281 26.8906 55.9844C27.3958 55.6406 27.9583 55.4688 28.5781 55.4688C29.2188 55.4688 29.7891 55.6589 30.2891 56.0391C30.7891 56.4193 31.1771 56.9661 31.4531 57.6797C31.7292 58.388 31.8672 59.1953 31.8672 60.1016V60.9062C31.8672 62.8438 31.4401 64.3594 30.5859 65.4531C29.737 66.5417 28.5312 67.0964 26.9688 67.1172H26.7422V65.2109H26.8906C27.7552 65.2057 28.4036 64.9818 28.8359 64.5391C29.2734 64.0964 29.5365 63.4505 29.625 62.6016ZM28.6484 61.5859C29.0755 61.5859 29.4115 61.2943 29.6562 60.7109V59.6953C29.6562 58.9505 29.5547 58.3672 29.3516 57.9453C29.1484 57.5182 28.8854 57.3047 28.5625 57.3047C28.2448 57.3047 27.987 57.5156 27.7891 57.9375C27.5964 58.3542 27.5 58.8646 27.5 59.4688C27.5 60.125 27.6016 60.6432 27.8047 61.0234C28.0078 61.3984 28.2891 61.5859 28.6484 61.5859Z" fill="#CDCCCC"/>
<path d="M7.75781 99H1.05469V97.4375L4.13281 93.5234C4.52344 92.9818 4.8099 92.5078 4.99219 92.1016C5.17969 91.6901 5.27344 91.2969 5.27344 90.9219C5.27344 90.4167 5.1849 90.0208 5.00781 89.7344C4.83594 89.4479 4.58594 89.3047 4.25781 89.3047C3.89844 89.3047 3.61198 89.4714 3.39844 89.8047C3.1901 90.138 3.08594 90.6068 3.08594 91.2109H0.867188C0.867188 90.513 1.01042 89.875 1.29688 89.2969C1.58854 88.7188 1.99479 88.2708 2.51562 87.9531C3.04167 87.6302 3.63542 87.4688 4.29688 87.4688C5.3125 87.4688 6.09896 87.75 6.65625 88.3125C7.21875 88.8698 7.5 89.6641 7.5 90.6953C7.5 91.3359 7.34375 91.987 7.03125 92.6484C6.72396 93.3047 6.16406 94.1146 5.35156 95.0781L3.89062 97.1641H7.75781V99ZM15.7578 94.2969C15.7578 95.8698 15.4714 97.0729 14.8984 97.9062C14.3307 98.7396 13.5182 99.1562 12.4609 99.1562C11.4141 99.1562 10.6042 98.7526 10.0312 97.9453C9.46354 97.1328 9.16927 95.9714 9.14844 94.4609V92.3125C9.14844 90.7448 9.43229 89.5469 10 88.7188C10.5677 87.8854 11.3828 87.4688 12.4453 87.4688C13.5078 87.4688 14.3229 87.8802 14.8906 88.7031C15.4583 89.526 15.7474 90.7005 15.7578 92.2266V94.2969ZM13.5391 91.9922C13.5391 91.0964 13.4505 90.4245 13.2734 89.9766C13.0964 89.5286 12.8203 89.3047 12.4453 89.3047C11.7422 89.3047 11.3776 90.125 11.3516 91.7656V94.6016C11.3516 95.5182 11.4401 96.2005 11.6172 96.6484C11.7995 97.0964 12.0807 97.3203 12.4609 97.3203C12.8203 97.3203 13.0859 97.112 13.2578 96.6953C13.4349 96.2734 13.5286 95.6302 13.5391 94.7656V91.9922ZM22.1094 99H19.8906V90.3125L17.7266 91.1484V89.3047L21.875 87.6094H22.1094V99ZM31.9453 94.2969C31.9453 95.8698 31.6589 97.0729 31.0859 97.9062C30.5182 98.7396 29.7057 99.1562 28.6484 99.1562C27.6016 99.1562 26.7917 98.7526 26.2188 97.9453C25.651 97.1328 25.3568 95.9714 25.3359 94.4609V92.3125C25.3359 90.7448 25.6198 89.5469 26.1875 88.7188C26.7552 87.8854 27.5703 87.4688 28.6328 87.4688C29.6953 87.4688 30.5104 87.8802 31.0781 88.7031C31.6458 89.526 31.9349 90.7005 31.9453 92.2266V94.2969ZM29.7266 91.9922C29.7266 91.0964 29.638 90.4245 29.4609 89.9766C29.2839 89.5286 29.0078 89.3047 28.6328 89.3047C27.9297 89.3047 27.5651 90.125 27.5391 91.7656V94.6016C27.5391 95.5182 27.6276 96.2005 27.8047 96.6484C27.987 97.0964 28.2682 97.3203 28.6484 97.3203C29.0078 97.3203 29.2734 97.112 29.4453 96.6953C29.6224 96.2734 29.7161 95.6302 29.7266 94.7656V91.9922Z" fill="#CDCCCC"/>
<path d="M7.75781 131H1.05469V129.438L4.13281 125.523C4.52344 124.982 4.8099 124.508 4.99219 124.102C5.17969 123.69 5.27344 123.297 5.27344 122.922C5.27344 122.417 5.1849 122.021 5.00781 121.734C4.83594 121.448 4.58594 121.305 4.25781 121.305C3.89844 121.305 3.61198 121.471 3.39844 121.805C3.1901 122.138 3.08594 122.607 3.08594 123.211H0.867188C0.867188 122.513 1.01042 121.875 1.29688 121.297C1.58854 120.719 1.99479 120.271 2.51562 119.953C3.04167 119.63 3.63542 119.469 4.29688 119.469C5.3125 119.469 6.09896 119.75 6.65625 120.312C7.21875 120.87 7.5 121.664 7.5 122.695C7.5 123.336 7.34375 123.987 7.03125 124.648C6.72396 125.305 6.16406 126.115 5.35156 127.078L3.89062 129.164H7.75781V131ZM15.7578 126.297C15.7578 127.87 15.4714 129.073 14.8984 129.906C14.3307 130.74 13.5182 131.156 12.4609 131.156C11.4141 131.156 10.6042 130.753 10.0312 129.945C9.46354 129.133 9.16927 127.971 9.14844 126.461V124.312C9.14844 122.745 9.43229 121.547 10 120.719C10.5677 119.885 11.3828 119.469 12.4453 119.469C13.5078 119.469 14.3229 119.88 14.8906 120.703C15.4583 121.526 15.7474 122.701 15.7578 124.227V126.297ZM13.5391 123.992C13.5391 123.096 13.4505 122.424 13.2734 121.977C13.0964 121.529 12.8203 121.305 12.4453 121.305C11.7422 121.305 11.3776 122.125 11.3516 123.766V126.602C11.3516 127.518 11.4401 128.201 11.6172 128.648C11.7995 129.096 12.0807 129.32 12.4609 129.32C12.8203 129.32 13.0859 129.112 13.2578 128.695C13.4349 128.273 13.5286 127.63 13.5391 126.766V123.992ZM22.1094 131H19.8906V122.312L17.7266 123.148V121.305L21.875 119.609H22.1094V131ZM30.2031 131H27.9844V122.312L25.8203 123.148V121.305L29.9688 119.609H30.2031V131Z" fill="#CDCCCC"/>
<path d="M7.75781 163H1.05469V161.438L4.13281 157.523C4.52344 156.982 4.8099 156.508 4.99219 156.102C5.17969 155.69 5.27344 155.297 5.27344 154.922C5.27344 154.417 5.1849 154.021 5.00781 153.734C4.83594 153.448 4.58594 153.305 4.25781 153.305C3.89844 153.305 3.61198 153.471 3.39844 153.805C3.1901 154.138 3.08594 154.607 3.08594 155.211H0.867188C0.867188 154.513 1.01042 153.875 1.29688 153.297C1.58854 152.719 1.99479 152.271 2.51562 151.953C3.04167 151.63 3.63542 151.469 4.29688 151.469C5.3125 151.469 6.09896 151.75 6.65625 152.312C7.21875 152.87 7.5 153.664 7.5 154.695C7.5 155.336 7.34375 155.987 7.03125 156.648C6.72396 157.305 6.16406 158.115 5.35156 159.078L3.89062 161.164H7.75781V163ZM15.7578 158.297C15.7578 159.87 15.4714 161.073 14.8984 161.906C14.3307 162.74 13.5182 163.156 12.4609 163.156C11.4141 163.156 10.6042 162.753 10.0312 161.945C9.46354 161.133 9.16927 159.971 9.14844 158.461V156.312C9.14844 154.745 9.43229 153.547 10 152.719C10.5677 151.885 11.3828 151.469 12.4453 151.469C13.5078 151.469 14.3229 151.88 14.8906 152.703C15.4583 153.526 15.7474 154.701 15.7578 156.227V158.297ZM13.5391 155.992C13.5391 155.096 13.4505 154.424 13.2734 153.977C13.0964 153.529 12.8203 153.305 12.4453 153.305C11.7422 153.305 11.3776 154.125 11.3516 155.766V158.602C11.3516 159.518 11.4401 160.201 11.6172 160.648C11.7995 161.096 12.0807 161.32 12.4609 161.32C12.8203 161.32 13.0859 161.112 13.2578 160.695C13.4349 160.273 13.5286 159.63 13.5391 158.766V155.992ZM22.1094 163H19.8906V154.312L17.7266 155.148V153.305L21.875 151.609H22.1094V163ZM32.0391 163H25.3359V161.438L28.4141 157.523C28.8047 156.982 29.0911 156.508 29.2734 156.102C29.4609 155.69 29.5547 155.297 29.5547 154.922C29.5547 154.417 29.4661 154.021 29.2891 153.734C29.1172 153.448 28.8672 153.305 28.5391 153.305C28.1797 153.305 27.8932 153.471 27.6797 153.805C27.4714 154.138 27.3672 154.607 27.3672 155.211H25.1484C25.1484 154.513 25.2917 153.875 25.5781 153.297C25.8698 152.719 26.276 152.271 26.7969 151.953C27.3229 151.63 27.9167 151.469 28.5781 151.469C29.5938 151.469 30.3802 151.75 30.9375 152.312C31.5 152.87 31.7812 153.664 31.7812 154.695C31.7812 155.336 31.625 155.987 31.3125 156.648C31.0052 157.305 30.4453 158.115 29.6328 159.078L28.1719 161.164H32.0391V163Z" fill="#CDCCCC"/>
<path d="M7.75781 195H1.05469V193.438L4.13281 189.523C4.52344 188.982 4.8099 188.508 4.99219 188.102C5.17969 187.69 5.27344 187.297 5.27344 186.922C5.27344 186.417 5.1849 186.021 5.00781 185.734C4.83594 185.448 4.58594 185.305 4.25781 185.305C3.89844 185.305 3.61198 185.471 3.39844 185.805C3.1901 186.138 3.08594 186.607 3.08594 187.211H0.867188C0.867188 186.513 1.01042 185.875 1.29688 185.297C1.58854 184.719 1.99479 184.271 2.51562 183.953C3.04167 183.63 3.63542 183.469 4.29688 183.469C5.3125 183.469 6.09896 183.75 6.65625 184.312C7.21875 184.87 7.5 185.664 7.5 186.695C7.5 187.336 7.34375 187.987 7.03125 188.648C6.72396 189.305 6.16406 190.115 5.35156 191.078L3.89062 193.164H7.75781V195ZM15.7578 190.297C15.7578 191.87 15.4714 193.073 14.8984 193.906C14.3307 194.74 13.5182 195.156 12.4609 195.156C11.4141 195.156 10.6042 194.753 10.0312 193.945C9.46354 193.133 9.16927 191.971 9.14844 190.461V188.312C9.14844 186.745 9.43229 185.547 10 184.719C10.5677 183.885 11.3828 183.469 12.4453 183.469C13.5078 183.469 14.3229 183.88 14.8906 184.703C15.4583 185.526 15.7474 186.701 15.7578 188.227V190.297ZM13.5391 187.992C13.5391 187.096 13.4505 186.424 13.2734 185.977C13.0964 185.529 12.8203 185.305 12.4453 185.305C11.7422 185.305 11.3776 186.125 11.3516 187.766V190.602C11.3516 191.518 11.4401 192.201 11.6172 192.648C11.7995 193.096 12.0807 193.32 12.4609 193.32C12.8203 193.32 13.0859 193.112 13.2578 192.695C13.4349 192.273 13.5286 191.63 13.5391 190.766V187.992ZM22.1094 195H19.8906V186.312L17.7266 187.148V185.305L21.875 183.609H22.1094V195ZM27.3047 188.305H28.375C28.7812 188.305 29.0781 188.164 29.2656 187.883C29.4583 187.596 29.5547 187.216 29.5547 186.742C29.5547 186.289 29.4557 185.938 29.2578 185.688C29.0651 185.432 28.8047 185.305 28.4766 185.305C28.1693 185.305 27.9167 185.424 27.7188 185.664C27.526 185.904 27.4297 186.206 27.4297 186.57H25.2188C25.2188 185.977 25.3542 185.445 25.625 184.977C25.901 184.503 26.2839 184.133 26.7734 183.867C27.2682 183.602 27.8151 183.469 28.4141 183.469C29.4609 183.469 30.2812 183.758 30.875 184.336C31.4688 184.914 31.7656 185.706 31.7656 186.711C31.7656 187.227 31.6302 187.706 31.3594 188.148C31.0938 188.586 30.7422 188.922 30.3047 189.156C30.8411 189.385 31.2396 189.729 31.5 190.188C31.7656 190.646 31.8984 191.188 31.8984 191.812C31.8984 192.823 31.5755 193.633 30.9297 194.242C30.2891 194.852 29.4453 195.156 28.3984 195.156C27.4245 195.156 26.6328 194.857 26.0234 194.258C25.4193 193.654 25.1172 192.862 25.1172 191.883H27.3281C27.3281 192.289 27.4349 192.63 27.6484 192.906C27.862 193.182 28.1328 193.32 28.4609 193.32C28.8411 193.32 29.1406 193.18 29.3594 192.898C29.5833 192.617 29.6953 192.242 29.6953 191.773C29.6953 190.654 29.2604 190.091 28.3906 190.086H27.3047V188.305Z" fill="#CDCCCC"/>
<path d="M7.75781 227H1.05469V225.438L4.13281 221.523C4.52344 220.982 4.8099 220.508 4.99219 220.102C5.17969 219.69 5.27344 219.297 5.27344 218.922C5.27344 218.417 5.1849 218.021 5.00781 217.734C4.83594 217.448 4.58594 217.305 4.25781 217.305C3.89844 217.305 3.61198 217.471 3.39844 217.805C3.1901 218.138 3.08594 218.607 3.08594 219.211H0.867188C0.867188 218.513 1.01042 217.875 1.29688 217.297C1.58854 216.719 1.99479 216.271 2.51562 215.953C3.04167 215.63 3.63542 215.469 4.29688 215.469C5.3125 215.469 6.09896 215.75 6.65625 216.312C7.21875 216.87 7.5 217.664 7.5 218.695C7.5 219.336 7.34375 219.987 7.03125 220.648C6.72396 221.305 6.16406 222.115 5.35156 223.078L3.89062 225.164H7.75781V227ZM15.7578 222.297C15.7578 223.87 15.4714 225.073 14.8984 225.906C14.3307 226.74 13.5182 227.156 12.4609 227.156C11.4141 227.156 10.6042 226.753 10.0312 225.945C9.46354 225.133 9.16927 223.971 9.14844 222.461V220.312C9.14844 218.745 9.43229 217.547 10 216.719C10.5677 215.885 11.3828 215.469 12.4453 215.469C13.5078 215.469 14.3229 215.88 14.8906 216.703C15.4583 217.526 15.7474 218.701 15.7578 220.227V222.297ZM13.5391 219.992C13.5391 219.096 13.4505 218.424 13.2734 217.977C13.0964 217.529 12.8203 217.305 12.4453 217.305C11.7422 217.305 11.3776 218.125 11.3516 219.766V222.602C11.3516 223.518 11.4401 224.201 11.6172 224.648C11.7995 225.096 12.0807 225.32 12.4609 225.32C12.8203 225.32 13.0859 225.112 13.2578 224.695C13.4349 224.273 13.5286 223.63 13.5391 222.766V219.992ZM22.1094 227H19.8906V218.312L17.7266 219.148V217.305L21.875 215.609H22.1094V227ZM31.1641 222.703H32.1328V224.539H31.1641V227H28.9531V224.539H25.1875L25.0859 223.109L28.9453 215.625H31.1641V222.703ZM27.2344 222.703H28.9531V218.898L28.9062 218.984L27.2344 222.703Z" fill="#CDCCCC"/>
<path d="M7.75781 259H1.05469V257.438L4.13281 253.523C4.52344 252.982 4.8099 252.508 4.99219 252.102C5.17969 251.69 5.27344 251.297 5.27344 250.922C5.27344 250.417 5.1849 250.021 5.00781 249.734C4.83594 249.448 4.58594 249.305 4.25781 249.305C3.89844 249.305 3.61198 249.471 3.39844 249.805C3.1901 250.138 3.08594 250.607 3.08594 251.211H0.867188C0.867188 250.513 1.01042 249.875 1.29688 249.297C1.58854 248.719 1.99479 248.271 2.51562 247.953C3.04167 247.63 3.63542 247.469 4.29688 247.469C5.3125 247.469 6.09896 247.75 6.65625 248.312C7.21875 248.87 7.5 249.664 7.5 250.695C7.5 251.336 7.34375 251.987 7.03125 252.648C6.72396 253.305 6.16406 254.115 5.35156 255.078L3.89062 257.164H7.75781V259ZM15.7578 254.297C15.7578 255.87 15.4714 257.073 14.8984 257.906C14.3307 258.74 13.5182 259.156 12.4609 259.156C11.4141 259.156 10.6042 258.753 10.0312 257.945C9.46354 257.133 9.16927 255.971 9.14844 254.461V252.312C9.14844 250.745 9.43229 249.547 10 248.719C10.5677 247.885 11.3828 247.469 12.4453 247.469C13.5078 247.469 14.3229 247.88 14.8906 248.703C15.4583 249.526 15.7474 250.701 15.7578 252.227V254.297ZM13.5391 251.992C13.5391 251.096 13.4505 250.424 13.2734 249.977C13.0964 249.529 12.8203 249.305 12.4453 249.305C11.7422 249.305 11.3776 250.125 11.3516 251.766V254.602C11.3516 255.518 11.4401 256.201 11.6172 256.648C11.7995 257.096 12.0807 257.32 12.4609 257.32C12.8203 257.32 13.0859 257.112 13.2578 256.695C13.4349 256.273 13.5286 255.63 13.5391 254.766V251.992ZM22.1094 259H19.8906V250.312L17.7266 251.148V249.305L21.875 247.609H22.1094V259ZM25.5625 253.406L26.125 247.625H31.6328V249.516H27.9375L27.7344 251.953C28.1615 251.667 28.6016 251.523 29.0547 251.523C29.9922 251.523 30.7135 251.857 31.2188 252.523C31.7292 253.19 31.9844 254.133 31.9844 255.352C31.9844 256.492 31.6823 257.411 31.0781 258.109C30.474 258.807 29.6667 259.156 28.6562 259.156C28.0573 259.156 27.5026 259.016 26.9922 258.734C26.4818 258.448 26.0781 258.052 25.7812 257.547C25.4896 257.042 25.3411 256.469 25.3359 255.828H27.5234C27.5599 256.302 27.6771 256.669 27.875 256.93C28.0729 257.19 28.3281 257.32 28.6406 257.32C29.0052 257.32 29.2865 257.146 29.4844 256.797C29.6823 256.443 29.7812 255.917 29.7812 255.219C29.7812 254.562 29.6615 254.068 29.4219 253.734C29.1875 253.401 28.8568 253.234 28.4297 253.234C28.013 253.234 27.6901 253.378 27.4609 253.664L27.3203 253.859L25.5625 253.406Z" fill="#CDCCCC"/>
<path d="M7.75781 291H1.05469V289.438L4.13281 285.523C4.52344 284.982 4.8099 284.508 4.99219 284.102C5.17969 283.69 5.27344 283.297 5.27344 282.922C5.27344 282.417 5.1849 282.021 5.00781 281.734C4.83594 281.448 4.58594 281.305 4.25781 281.305C3.89844 281.305 3.61198 281.471 3.39844 281.805C3.1901 282.138 3.08594 282.607 3.08594 283.211H0.867188C0.867188 282.513 1.01042 281.875 1.29688 281.297C1.58854 280.719 1.99479 280.271 2.51562 279.953C3.04167 279.63 3.63542 279.469 4.29688 279.469C5.3125 279.469 6.09896 279.75 6.65625 280.312C7.21875 280.87 7.5 281.664 7.5 282.695C7.5 283.336 7.34375 283.987 7.03125 284.648C6.72396 285.305 6.16406 286.115 5.35156 287.078L3.89062 289.164H7.75781V291ZM15.7578 286.297C15.7578 287.87 15.4714 289.073 14.8984 289.906C14.3307 290.74 13.5182 291.156 12.4609 291.156C11.4141 291.156 10.6042 290.753 10.0312 289.945C9.46354 289.133 9.16927 287.971 9.14844 286.461V284.312C9.14844 282.745 9.43229 281.547 10 280.719C10.5677 279.885 11.3828 279.469 12.4453 279.469C13.5078 279.469 14.3229 279.88 14.8906 280.703C15.4583 281.526 15.7474 282.701 15.7578 284.227V286.297ZM13.5391 283.992C13.5391 283.096 13.4505 282.424 13.2734 281.977C13.0964 281.529 12.8203 281.305 12.4453 281.305C11.7422 281.305 11.3776 282.125 11.3516 283.766V286.602C11.3516 287.518 11.4401 288.201 11.6172 288.648C11.7995 289.096 12.0807 289.32 12.4609 289.32C12.8203 289.32 13.0859 289.112 13.2578 288.695C13.4349 288.273 13.5286 287.63 13.5391 286.766V283.992ZM22.1094 291H19.8906V282.312L17.7266 283.148V281.305L21.875 279.609H22.1094V291ZM30.6094 279.508V281.383H30.4844C29.6562 281.388 28.9974 281.638 28.5078 282.133C28.0234 282.622 27.7292 283.31 27.625 284.195C28.099 283.654 28.6927 283.383 29.4062 283.383C30.2292 283.383 30.8854 283.734 31.375 284.438C31.8698 285.141 32.1172 286.078 32.1172 287.25C32.1172 287.995 31.9766 288.667 31.6953 289.266C31.4141 289.865 31.0182 290.331 30.5078 290.664C30.0026 290.992 29.4297 291.156 28.7891 291.156C27.7578 291.156 26.9297 290.742 26.3047 289.914C25.6849 289.086 25.375 287.971 25.375 286.57V285.75C25.375 284.495 25.5703 283.396 25.9609 282.453C26.3568 281.51 26.9245 280.786 27.6641 280.281C28.4089 279.771 29.276 279.513 30.2656 279.508H30.6094ZM28.7109 285.211C28.4297 285.211 28.1927 285.299 28 285.477C27.8125 285.654 27.6719 285.872 27.5781 286.133V286.93C27.5781 287.732 27.6849 288.331 27.8984 288.727C28.112 289.122 28.3932 289.32 28.7422 289.32C29.0964 289.32 29.3802 289.13 29.5938 288.75C29.8073 288.365 29.9141 287.872 29.9141 287.273C29.9141 286.664 29.8021 286.169 29.5781 285.789C29.3594 285.404 29.0703 285.211 28.7109 285.211Z" fill="#CDCCCC"/>
<path d="M7.75781 323H1.05469V321.438L4.13281 317.523C4.52344 316.982 4.8099 316.508 4.99219 316.102C5.17969 315.69 5.27344 315.297 5.27344 314.922C5.27344 314.417 5.1849 314.021 5.00781 313.734C4.83594 313.448 4.58594 313.305 4.25781 313.305C3.89844 313.305 3.61198 313.471 3.39844 313.805C3.1901 314.138 3.08594 314.607 3.08594 315.211H0.867188C0.867188 314.513 1.01042 313.875 1.29688 313.297C1.58854 312.719 1.99479 312.271 2.51562 311.953C3.04167 311.63 3.63542 311.469 4.29688 311.469C5.3125 311.469 6.09896 311.75 6.65625 312.312C7.21875 312.87 7.5 313.664 7.5 314.695C7.5 315.336 7.34375 315.987 7.03125 316.648C6.72396 317.305 6.16406 318.115 5.35156 319.078L3.89062 321.164H7.75781V323ZM15.7578 318.297C15.7578 319.87 15.4714 321.073 14.8984 321.906C14.3307 322.74 13.5182 323.156 12.4609 323.156C11.4141 323.156 10.6042 322.753 10.0312 321.945C9.46354 321.133 9.16927 319.971 9.14844 318.461V316.312C9.14844 314.745 9.43229 313.547 10 312.719C10.5677 311.885 11.3828 311.469 12.4453 311.469C13.5078 311.469 14.3229 311.88 14.8906 312.703C15.4583 313.526 15.7474 314.701 15.7578 316.227V318.297ZM13.5391 315.992C13.5391 315.096 13.4505 314.424 13.2734 313.977C13.0964 313.529 12.8203 313.305 12.4453 313.305C11.7422 313.305 11.3776 314.125 11.3516 315.766V318.602C11.3516 319.518 11.4401 320.201 11.6172 320.648C11.7995 321.096 12.0807 321.32 12.4609 321.32C12.8203 321.32 13.0859 321.112 13.2578 320.695C13.4349 320.273 13.5286 319.63 13.5391 318.766V315.992ZM22.1094 323H19.8906V314.312L17.7266 315.148V313.305L21.875 311.609H22.1094V323ZM32.0078 312.898L28.4141 323H26.0781L29.6875 313.461H25.125V311.625H32.0078V312.898Z" fill="#CDCCCC"/>
<path d="M7.75781 355H1.05469V353.438L4.13281 349.523C4.52344 348.982 4.8099 348.508 4.99219 348.102C5.17969 347.69 5.27344 347.297 5.27344 346.922C5.27344 346.417 5.1849 346.021 5.00781 345.734C4.83594 345.448 4.58594 345.305 4.25781 345.305C3.89844 345.305 3.61198 345.471 3.39844 345.805C3.1901 346.138 3.08594 346.607 3.08594 347.211H0.867188C0.867188 346.513 1.01042 345.875 1.29688 345.297C1.58854 344.719 1.99479 344.271 2.51562 343.953C3.04167 343.63 3.63542 343.469 4.29688 343.469C5.3125 343.469 6.09896 343.75 6.65625 344.312C7.21875 344.87 7.5 345.664 7.5 346.695C7.5 347.336 7.34375 347.987 7.03125 348.648C6.72396 349.305 6.16406 350.115 5.35156 351.078L3.89062 353.164H7.75781V355ZM15.7578 350.297C15.7578 351.87 15.4714 353.073 14.8984 353.906C14.3307 354.74 13.5182 355.156 12.4609 355.156C11.4141 355.156 10.6042 354.753 10.0312 353.945C9.46354 353.133 9.16927 351.971 9.14844 350.461V348.312C9.14844 346.745 9.43229 345.547 10 344.719C10.5677 343.885 11.3828 343.469 12.4453 343.469C13.5078 343.469 14.3229 343.88 14.8906 344.703C15.4583 345.526 15.7474 346.701 15.7578 348.227V350.297ZM13.5391 347.992C13.5391 347.096 13.4505 346.424 13.2734 345.977C13.0964 345.529 12.8203 345.305 12.4453 345.305C11.7422 345.305 11.3776 346.125 11.3516 347.766V350.602C11.3516 351.518 11.4401 352.201 11.6172 352.648C11.7995 353.096 12.0807 353.32 12.4609 353.32C12.8203 353.32 13.0859 353.112 13.2578 352.695C13.4349 352.273 13.5286 351.63 13.5391 350.766V347.992ZM22.1094 355H19.8906V346.312L17.7266 347.148V345.305L21.875 343.609H22.1094V355ZM31.7109 346.648C31.7109 347.201 31.5938 347.69 31.3594 348.117C31.125 348.544 30.8021 348.885 30.3906 349.141C30.8594 349.406 31.2292 349.773 31.5 350.242C31.7708 350.706 31.9062 351.253 31.9062 351.883C31.9062 352.893 31.6146 353.693 31.0312 354.281C30.4479 354.865 29.6536 355.156 28.6484 355.156C27.6432 355.156 26.8438 354.865 26.25 354.281C25.6562 353.693 25.3594 352.893 25.3594 351.883C25.3594 351.253 25.4948 350.703 25.7656 350.234C26.0365 349.766 26.4089 349.401 26.8828 349.141C26.4661 348.885 26.1406 348.544 25.9062 348.117C25.6719 347.69 25.5547 347.201 25.5547 346.648C25.5547 345.654 25.8333 344.875 26.3906 344.312C26.9479 343.75 27.6953 343.469 28.6328 343.469C29.5807 343.469 30.3307 343.753 30.8828 344.32C31.4349 344.888 31.7109 345.664 31.7109 346.648ZM28.6484 353.32C28.9818 353.32 29.237 353.18 29.4141 352.898C29.5964 352.612 29.6875 352.216 29.6875 351.711C29.6875 351.206 29.5938 350.81 29.4062 350.523C29.2188 350.237 28.9609 350.094 28.6328 350.094C28.3047 350.094 28.0443 350.237 27.8516 350.523C27.6641 350.81 27.5703 351.206 27.5703 351.711C27.5703 352.216 27.6641 352.612 27.8516 352.898C28.0443 353.18 28.3099 353.32 28.6484 353.32ZM29.5078 346.766C29.5078 346.323 29.4349 345.969 29.2891 345.703C29.1484 345.438 28.9297 345.305 28.6328 345.305C28.3516 345.305 28.138 345.435 27.9922 345.695C27.8464 345.951 27.7734 346.307 27.7734 346.766C27.7734 347.214 27.8464 347.576 27.9922 347.852C28.138 348.122 28.3568 348.258 28.6484 348.258C28.9401 348.258 29.1562 348.122 29.2969 347.852C29.4375 347.576 29.5078 347.214 29.5078 346.766Z" fill="#CDCCCC"/>
<path d="M7.75781 387H1.05469V385.438L4.13281 381.523C4.52344 380.982 4.8099 380.508 4.99219 380.102C5.17969 379.69 5.27344 379.297 5.27344 378.922C5.27344 378.417 5.1849 378.021 5.00781 377.734C4.83594 377.448 4.58594 377.305 4.25781 377.305C3.89844 377.305 3.61198 377.471 3.39844 377.805C3.1901 378.138 3.08594 378.607 3.08594 379.211H0.867188C0.867188 378.513 1.01042 377.875 1.29688 377.297C1.58854 376.719 1.99479 376.271 2.51562 375.953C3.04167 375.63 3.63542 375.469 4.29688 375.469C5.3125 375.469 6.09896 375.75 6.65625 376.312C7.21875 376.87 7.5 377.664 7.5 378.695C7.5 379.336 7.34375 379.987 7.03125 380.648C6.72396 381.305 6.16406 382.115 5.35156 383.078L3.89062 385.164H7.75781V387ZM15.7578 382.297C15.7578 383.87 15.4714 385.073 14.8984 385.906C14.3307 386.74 13.5182 387.156 12.4609 387.156C11.4141 387.156 10.6042 386.753 10.0312 385.945C9.46354 385.133 9.16927 383.971 9.14844 382.461V380.312C9.14844 378.745 9.43229 377.547 10 376.719C10.5677 375.885 11.3828 375.469 12.4453 375.469C13.5078 375.469 14.3229 375.88 14.8906 376.703C15.4583 377.526 15.7474 378.701 15.7578 380.227V382.297ZM13.5391 379.992C13.5391 379.096 13.4505 378.424 13.2734 377.977C13.0964 377.529 12.8203 377.305 12.4453 377.305C11.7422 377.305 11.3776 378.125 11.3516 379.766V382.602C11.3516 383.518 11.4401 384.201 11.6172 384.648C11.7995 385.096 12.0807 385.32 12.4609 385.32C12.8203 385.32 13.0859 385.112 13.2578 384.695C13.4349 384.273 13.5286 383.63 13.5391 382.766V379.992ZM22.1094 387H19.8906V378.312L17.7266 379.148V377.305L21.875 375.609H22.1094V387ZM29.625 382.602C29.1562 383.081 28.6432 383.32 28.0859 383.32C27.2214 383.32 26.5391 382.974 26.0391 382.281C25.5443 381.583 25.2969 380.654 25.2969 379.492C25.2969 378.742 25.4375 378.057 25.7188 377.438C26 376.812 26.3906 376.328 26.8906 375.984C27.3958 375.641 27.9583 375.469 28.5781 375.469C29.2188 375.469 29.7891 375.659 30.2891 376.039C30.7891 376.419 31.1771 376.966 31.4531 377.68C31.7292 378.388 31.8672 379.195 31.8672 380.102V380.906C31.8672 382.844 31.4401 384.359 30.5859 385.453C29.737 386.542 28.5312 387.096 26.9688 387.117H26.7422V385.211H26.8906C27.7552 385.206 28.4036 384.982 28.8359 384.539C29.2734 384.096 29.5365 383.451 29.625 382.602ZM28.6484 381.586C29.0755 381.586 29.4115 381.294 29.6562 380.711V379.695C29.6562 378.951 29.5547 378.367 29.3516 377.945C29.1484 377.518 28.8854 377.305 28.5625 377.305C28.2448 377.305 27.987 377.516 27.7891 377.938C27.5964 378.354 27.5 378.865 27.5 379.469C27.5 380.125 27.6016 380.643 27.8047 381.023C28.0078 381.398 28.2891 381.586 28.6484 381.586Z" fill="#CDCCCC"/>
<path d="M7.75781 419H1.05469V417.438L4.13281 413.523C4.52344 412.982 4.8099 412.508 4.99219 412.102C5.17969 411.69 5.27344 411.297 5.27344 410.922C5.27344 410.417 5.1849 410.021 5.00781 409.734C4.83594 409.448 4.58594 409.305 4.25781 409.305C3.89844 409.305 3.61198 409.471 3.39844 409.805C3.1901 410.138 3.08594 410.607 3.08594 411.211H0.867188C0.867188 410.513 1.01042 409.875 1.29688 409.297C1.58854 408.719 1.99479 408.271 2.51562 407.953C3.04167 407.63 3.63542 407.469 4.29688 407.469C5.3125 407.469 6.09896 407.75 6.65625 408.312C7.21875 408.87 7.5 409.664 7.5 410.695C7.5 411.336 7.34375 411.987 7.03125 412.648C6.72396 413.305 6.16406 414.115 5.35156 415.078L3.89062 417.164H7.75781V419ZM15.7578 414.297C15.7578 415.87 15.4714 417.073 14.8984 417.906C14.3307 418.74 13.5182 419.156 12.4609 419.156C11.4141 419.156 10.6042 418.753 10.0312 417.945C9.46354 417.133 9.16927 415.971 9.14844 414.461V412.312C9.14844 410.745 9.43229 409.547 10 408.719C10.5677 407.885 11.3828 407.469 12.4453 407.469C13.5078 407.469 14.3229 407.88 14.8906 408.703C15.4583 409.526 15.7474 410.701 15.7578 412.227V414.297ZM13.5391 411.992C13.5391 411.096 13.4505 410.424 13.2734 409.977C13.0964 409.529 12.8203 409.305 12.4453 409.305C11.7422 409.305 11.3776 410.125 11.3516 411.766V414.602C11.3516 415.518 11.4401 416.201 11.6172 416.648C11.7995 417.096 12.0807 417.32 12.4609 417.32C12.8203 417.32 13.0859 417.112 13.2578 416.695C13.4349 416.273 13.5286 415.63 13.5391 414.766V411.992ZM23.9453 419H17.2422V417.438L20.3203 413.523C20.7109 412.982 20.9974 412.508 21.1797 412.102C21.3672 411.69 21.4609 411.297 21.4609 410.922C21.4609 410.417 21.3724 410.021 21.1953 409.734C21.0234 409.448 20.7734 409.305 20.4453 409.305C20.0859 409.305 19.7995 409.471 19.5859 409.805C19.3776 410.138 19.2734 410.607 19.2734 411.211H17.0547C17.0547 410.513 17.1979 409.875 17.4844 409.297C17.776 408.719 18.1823 408.271 18.7031 407.953C19.2292 407.63 19.8229 407.469 20.4844 407.469C21.5 407.469 22.2865 407.75 22.8438 408.312C23.4062 408.87 23.6875 409.664 23.6875 410.695C23.6875 411.336 23.5312 411.987 23.2188 412.648C22.9115 413.305 22.3516 414.115 21.5391 415.078L20.0781 417.164H23.9453V419ZM31.9453 414.297C31.9453 415.87 31.6589 417.073 31.0859 417.906C30.5182 418.74 29.7057 419.156 28.6484 419.156C27.6016 419.156 26.7917 418.753 26.2188 417.945C25.651 417.133 25.3568 415.971 25.3359 414.461V412.312C25.3359 410.745 25.6198 409.547 26.1875 408.719C26.7552 407.885 27.5703 407.469 28.6328 407.469C29.6953 407.469 30.5104 407.88 31.0781 408.703C31.6458 409.526 31.9349 410.701 31.9453 412.227V414.297ZM29.7266 411.992C29.7266 411.096 29.638 410.424 29.4609 409.977C29.2839 409.529 29.0078 409.305 28.6328 409.305C27.9297 409.305 27.5651 410.125 27.5391 411.766V414.602C27.5391 415.518 27.6276 416.201 27.8047 416.648C27.987 417.096 28.2682 417.32 28.6484 417.32C29.0078 417.32 29.2734 417.112 29.4453 416.695C29.6224 416.273 29.7161 415.63 29.7266 414.766V411.992Z" fill="#CDCCCC"/>
<path d="M7.75781 451H1.05469V449.438L4.13281 445.523C4.52344 444.982 4.8099 444.508 4.99219 444.102C5.17969 443.69 5.27344 443.297 5.27344 442.922C5.27344 442.417 5.1849 442.021 5.00781 441.734C4.83594 441.448 4.58594 441.305 4.25781 441.305C3.89844 441.305 3.61198 441.471 3.39844 441.805C3.1901 442.138 3.08594 442.607 3.08594 443.211H0.867188C0.867188 442.513 1.01042 441.875 1.29688 441.297C1.58854 440.719 1.99479 440.271 2.51562 439.953C3.04167 439.63 3.63542 439.469 4.29688 439.469C5.3125 439.469 6.09896 439.75 6.65625 440.312C7.21875 440.87 7.5 441.664 7.5 442.695C7.5 443.336 7.34375 443.987 7.03125 444.648C6.72396 445.305 6.16406 446.115 5.35156 447.078L3.89062 449.164H7.75781V451ZM15.7578 446.297C15.7578 447.87 15.4714 449.073 14.8984 449.906C14.3307 450.74 13.5182 451.156 12.4609 451.156C11.4141 451.156 10.6042 450.753 10.0312 449.945C9.46354 449.133 9.16927 447.971 9.14844 446.461V444.312C9.14844 442.745 9.43229 441.547 10 440.719C10.5677 439.885 11.3828 439.469 12.4453 439.469C13.5078 439.469 14.3229 439.88 14.8906 440.703C15.4583 441.526 15.7474 442.701 15.7578 444.227V446.297ZM13.5391 443.992C13.5391 443.096 13.4505 442.424 13.2734 441.977C13.0964 441.529 12.8203 441.305 12.4453 441.305C11.7422 441.305 11.3776 442.125 11.3516 443.766V446.602C11.3516 447.518 11.4401 448.201 11.6172 448.648C11.7995 449.096 12.0807 449.32 12.4609 449.32C12.8203 449.32 13.0859 449.112 13.2578 448.695C13.4349 448.273 13.5286 447.63 13.5391 446.766V443.992ZM23.9453 451H17.2422V449.438L20.3203 445.523C20.7109 444.982 20.9974 444.508 21.1797 444.102C21.3672 443.69 21.4609 443.297 21.4609 442.922C21.4609 442.417 21.3724 442.021 21.1953 441.734C21.0234 441.448 20.7734 441.305 20.4453 441.305C20.0859 441.305 19.7995 441.471 19.5859 441.805C19.3776 442.138 19.2734 442.607 19.2734 443.211H17.0547C17.0547 442.513 17.1979 441.875 17.4844 441.297C17.776 440.719 18.1823 440.271 18.7031 439.953C19.2292 439.63 19.8229 439.469 20.4844 439.469C21.5 439.469 22.2865 439.75 22.8438 440.312C23.4062 440.87 23.6875 441.664 23.6875 442.695C23.6875 443.336 23.5312 443.987 23.2188 444.648C22.9115 445.305 22.3516 446.115 21.5391 447.078L20.0781 449.164H23.9453V451ZM30.2031 451H27.9844V442.312L25.8203 443.148V441.305L29.9688 439.609H30.2031V451Z" fill="#CDCCCC"/>
<g opacity="0.3">
<rect width="32.651" height="283" transform="matrix(4.37114e-08 1 1 -4.37114e-08 52 38.651)" fill="#D6D6D6"/>
<rect opacity="0.5" width="33.0352" height="283" transform="matrix(4.37114e-08 1 1 -4.37114e-08 52 71.3021)" fill="#D6D6D6"/>
<rect opacity="0.5" width="33.0352" height="283" transform="matrix(4.37114e-08 1 1 -4.37114e-08 52 6)" fill="#D6D6D6"/>
<rect width="32.651" height="283" transform="matrix(4.37114e-08 1 1 -4.37114e-08 52 104.337)" fill="#D6D6D6"/>
<rect opacity="0.5" width="32.651" height="283" transform="matrix(4.37114e-08 1 1 -4.37114e-08 52 136.988)" fill="#D6D6D6"/>
<rect width="33.0352" height="283" transform="matrix(4.37114e-08 1 1 -4.37114e-08 52 169.639)" fill="#D6D6D6"/>
<rect opacity="0.5" width="32.651" height="283" transform="matrix(4.37114e-08 1 1 -4.37114e-08 52 202.674)" fill="#D6D6D6"/>
<rect width="32.651" height="283" transform="matrix(4.37114e-08 1 1 -4.37114e-08 52 235.326)" fill="#D6D6D6"/>
<rect opacity="0.5" width="33.0352" height="283" transform="matrix(4.37114e-08 1 1 -4.37114e-08 52 267.977)" fill="#D6D6D6"/>
<rect width="32.651" height="283" transform="matrix(4.37114e-08 1 1 -4.37114e-08 52 301.012)" fill="#D6D6D6"/>
<rect opacity="0.5" width="32.651" height="283" transform="matrix(4.37114e-08 1 1 -4.37114e-08 52 333.663)" fill="#D6D6D6"/>
<rect width="33.0352" height="283" transform="matrix(4.37114e-08 1 1 -4.37114e-08 52 366.314)" fill="#D6D6D6"/>
<rect width="33.0352" height="283" transform="matrix(4.37114e-08 1 1 -4.37114e-08 52 429)" fill="#D6D6D6"/>
<rect opacity="0.5" width="32.651" height="283" transform="matrix(4.37114e-08 1 1 -4.37114e-08 52 399.349)" fill="#D6D6D6"/>
</g>
<path d="M315.5 49C315.5 45.4102 312.59 42.5 309 42.5C305.41 42.5 302.5 45.4102 302.5 49L302.5 438C302.5 441.59 305.41 444.5 309 444.5C312.59 444.5 315.5 441.59 315.5 438L315.5 49Z" fill="url(#paint0_linear)" stroke="white"/>
<path d="M277.5 29C277.5 25.4102 274.59 22.5 271 22.5C267.41 22.5 264.5 25.4102 264.5 29L264.5 437.5C264.5 441.09 267.41 444 271 444C274.59 444 277.5 441.09 277.5 437.5L277.5 29Z" fill="url(#paint1_linear)" stroke="white"/>
<path d="M236.5 62C236.5 58.4101 233.59 55.5 230 55.5C226.41 55.5 223.5 58.4101 223.5 62L223.5 437.5C223.5 441.09 226.41 444 230 444C233.59 444 236.5 441.09 236.5 437.5L236.5 62Z" fill="url(#paint2_linear)" stroke="white"/>
<path d="M199.5 134C199.5 130.41 196.59 127.5 193 127.5C189.41 127.5 186.5 130.41 186.5 134L186.5 437.5C186.5 441.09 189.41 444 193 444C196.59 444 199.5 441.09 199.5 437.5L199.5 134Z" fill="url(#paint3_linear)" stroke="white"/>
<path d="M161.5 192C161.5 188.41 158.59 185.5 155 185.5C151.41 185.5 148.5 188.41 148.5 192L148.5 437.5C148.5 441.09 151.41 444 155 444C158.59 444 161.5 441.09 161.5 437.5L161.5 192Z" fill="url(#paint4_linear)" stroke="white"/>
<path d="M121.499 265C121.499 261.41 118.589 258.5 114.999 258.5C111.41 258.5 108.499 261.41 108.499 265L108.5 438C108.5 441.59 111.41 444.5 115 444.5C118.59 444.5 121.5 441.59 121.5 438L121.499 265Z" fill="url(#paint5_linear)" stroke="white"/>
<path d="M84.4996 245C84.4996 241.41 81.5895 238.5 77.9996 238.5C74.4098 238.5 71.4996 241.41 71.4996 245L71.5 438C71.5 441.59 74.4102 444.5 78 444.5C81.5899 444.5 84.5 441.59 84.5 438L84.4996 245Z" fill="url(#paint6_linear)" stroke="white"/>
<circle r="5" transform="matrix(-1 0 0 1 309 49)" fill="white"/>
<g filter="url(#filter0_d)">
<path d="M289 28.8644L309 21V35.5L289 28.8644Z" fill="#3493EC" fill-opacity="0.7"/>
<path d="M309 50V35.5M309 35.5V21L289 28.8644L309 35.5Z" stroke="#3493EC"/>
</g>
<circle r="5" transform="matrix(-1 0 0 1 271 29)" fill="white"/>
<path d="M251 8.86441L271 1V15.5L251 8.86441Z" fill="#7746E9" fill-opacity="0.7"/>
<path d="M271 30V15.5M271 15.5V1L251 8.86441L271 15.5Z" stroke="#7746E9" stroke-linecap="round" stroke-linejoin="round"/>
<circle r="5" transform="matrix(-1 0 0 1 230 62)" fill="white"/>
<path d="M210 41.8644L230 34V48.5L210 41.8644Z" fill="#B426CF" fill-opacity="0.7"/>
<path d="M230 63V48.5M230 48.5V34L210 41.8644L230 48.5Z" stroke="#B426CF" stroke-linecap="round" stroke-linejoin="round"/>
<circle r="5" transform="matrix(-1 0 0 1 193 134)" fill="white"/>
<path d="M173 113.864L193 106V120.5L173 113.864Z" fill="#CD22B4" fill-opacity="0.7"/>
<path d="M193 135V120.5M193 120.5V106L173 113.864L193 120.5Z" stroke="#CD22B4" stroke-linecap="round" stroke-linejoin="round"/>
<circle r="5" transform="matrix(-1 0 0 1 155 192)" fill="white"/>
<path d="M135 171.864L155 164V178.5L135 171.864Z" fill="#E22293" fill-opacity="0.7"/>
<path d="M155 193V178.5M155 178.5V164L135 171.864L155 178.5Z" stroke="#E22293" stroke-linecap="round" stroke-linejoin="round"/>
<circle r="5" transform="matrix(-1 0 0 1 115 265)" fill="white"/>
<path d="M95 244.864L115 237V251.5L95 244.864Z" fill="#E92762" fill-opacity="0.7"/>
<path d="M115 266V251.5M115 251.5V237L95 244.864L115 251.5Z" stroke="#E92762" stroke-linecap="round" stroke-linejoin="round"/>
<circle r="5" transform="matrix(-1 0 0 1 78 245)" fill="white"/>
<path d="M58 224.864L78 217V231.5L58 224.864Z" fill="#ED3F3E" fill-opacity="0.7"/>
<path d="M78 246V231.5M78 231.5V217L58 224.864L78 231.5Z" stroke="#ED3F3E" stroke-linecap="round" stroke-linejoin="round"/>
<defs>
<filter id="filter0_d" x="277.532" y="14.2661" width="41.9677" height="49.7339" filterUnits="userSpaceOnUse" color-interpolation-filters="sRGB">
<feFlood flood-opacity="0" result="BackgroundImageFix"/>
<feColorMatrix in="SourceAlpha" type="matrix" values="0 0 0 0 0 0 0 0 0 0 0 0 0 0 0 0 0 0 127 0"/>
<feOffset dy="4"/>
<feGaussianBlur stdDeviation="5"/>
<feColorMatrix type="matrix" values="0 0 0 0 0.102083 0 0 0 0 0.232786 0 0 0 0 0.4375 0 0 0 0.19 0"/>
<feBlend mode="normal" in2="BackgroundImageFix" result="effect1_dropShadow"/>
<feBlend mode="normal" in="SourceGraphic" in2="effect1_dropShadow" result="shape"/>
</filter>
<linearGradient id="paint0_linear" x1="309.317" y1="633.44" x2="309.317" y2="43" gradientUnits="userSpaceOnUse">
<stop stop-color="#6AB0F2"/>
<stop offset="1" stop-color="#3191EB"/>
</linearGradient>
<linearGradient id="paint1_linear" x1="271.315" y1="633.32" x2="271.315" y2="23" gradientUnits="userSpaceOnUse">
<stop stop-color="#926FFA"/>
<stop offset="1" stop-color="#7544E8"/>
</linearGradient>
<linearGradient id="paint2_linear" x1="230.316" y1="637" x2="230.316" y2="56" gradientUnits="userSpaceOnUse">
<stop stop-color="#D95AF1"/>
<stop offset="1" stop-color="#B324CE"/>
</linearGradient>
<linearGradient id="paint3_linear" x1="193.316" y1="637" x2="193.316" y2="128" gradientUnits="userSpaceOnUse">
<stop stop-color="#E94BD2"/>
<stop offset="1" stop-color="#CB20B2"/>
</linearGradient>
<linearGradient id="paint4_linear" x1="154.684" y1="637" x2="154.684" y2="186" gradientUnits="userSpaceOnUse">
<stop stop-color="#F96DC2"/>
<stop offset="1" stop-color="#E11F91"/>
</linearGradient>
<linearGradient id="paint5_linear" x1="114.684" y1="637" x2="114.684" y2="259" gradientUnits="userSpaceOnUse">
<stop stop-color="#F4668D"/>
<stop offset="1" stop-color="#E82560"/>
</linearGradient>
<linearGradient id="paint6_linear" x1="77.6838" y1="637" x2="77.6839" y2="239" gradientUnits="userSpaceOnUse">
<stop stop-color="#F97C69"/>
<stop offset="1" stop-color="#EC3D3C"/>
</linearGradient>
</defs>
</svg>
