<svg width="34" height="34" viewBox="0 0 34 34" fill="none" xmlns="http://www.w3.org/2000/svg">
<mask id="mask0" mask-type="alpha" maskUnits="userSpaceOnUse" x="0" y="0" width="34" height="34">
<circle cx="17" cy="17" r="17" fill="#6ABEE3"/>
</mask>
<g mask="url(#mask0)">
<circle cx="17" cy="17" r="17" fill="#6ABEE3"/>
<path fill-rule="evenodd" clip-rule="evenodd" d="M27.7368 3.57895L-5.6351e-06 31.3158L-5.0614 26.2544L22.6754 -1.48245L27.7368 3.57895Z" fill="url(#paint0_linear)"/>
<path fill-rule="evenodd" clip-rule="evenodd" d="M38.3471 10.6103L10.6102 38.3471L1.78949 29.5264L29.5263 1.78953L38.3471 10.6103Z" fill="url(#paint1_linear)"/>
<path opacity="0.56" fill-rule="evenodd" clip-rule="evenodd" d="M9.53506 -3.579L37.2719 24.1578L32.2105 29.2192L4.47367 1.4824L9.53506 -3.579Z" fill="url(#paint2_linear)"/>
<path opacity="0.56" fill-rule="evenodd" clip-rule="evenodd" d="M6.26317 3.13155L33.693 30.421L28.6316 35.4824L0.89475 7.74558L6.26317 3.13155Z" fill="url(#paint3_linear)"/>
<path d="M17 14.3159L22.424 19.6843H11.5759L17 14.3159Z" fill="white"/>
</g>
<defs>
<linearGradient id="paint0_linear" x1="8.80702" y1="12.386" x2="13.8684" y2="17.4474" gradientUnits="userSpaceOnUse">
<stop stop-color="#0EB9A5"/>
<stop offset="1" stop-color="#5BB6DC"/>
</linearGradient>
<linearGradient id="paint1_linear" x1="11.1842" y1="30.4211" x2="32.6579" y2="9.39479" gradientUnits="userSpaceOnUse">
<stop stop-color="#0EB9A5"/>
<stop offset="0.229167" stop-color="#59AADF"/>
<stop offset="0.708333" stop-color="#6CACEA"/>
<stop offset="1" stop-color="#1FA2BB"/>
</linearGradient>
<linearGradient id="paint2_linear" x1="12.0789" y1="4.921" x2="31.7631" y2="22.8157" gradientUnits="userSpaceOnUse">
<stop stop-color="#05CA99"/>
<stop offset="1" stop-color="#3480D6"/>
</linearGradient>
<linearGradient id="paint3_linear" x1="8.50001" y1="11.1842" x2="28.1842" y2="29.0789" gradientUnits="userSpaceOnUse">
<stop stop-color="#05CA99" stop-opacity="0.49"/>
<stop offset="1" stop-color="#3480D6"/>
</linearGradient>
</defs>
</svg>
