<svg width="1218" height="809" viewBox="0 0 1218 809" fill="none" xmlns="http://www.w3.org/2000/svg">
<g opacity="0.3" filter="url(#filter0_f)">
<path fill-rule="evenodd" clip-rule="evenodd" d="M945.311 186.619L959.287 149.027L919.744 155.719L927.759 165.405L907.312 182.324L916.85 193.851L937.297 176.933L945.311 186.619Z" fill="white"/>
</g>
<path opacity="0.5" fill-rule="evenodd" clip-rule="evenodd" d="M960.014 176.041L973.99 138.45L934.447 145.141L942.462 154.828L922.015 171.746L931.552 183.273L951.999 166.355L960.014 176.041Z" fill="white"/>
<g opacity="0.3" filter="url(#filter1_f)">
<path fill-rule="evenodd" clip-rule="evenodd" d="M346.081 239.04L346.812 250.219L357.991 250.95L357.859 265.161L352.744 265.209L352.832 255.745L341.995 255.036L341.286 244.199L331.822 244.287L331.87 239.172L346.081 239.04Z" fill="white"/>
</g>
<path opacity="0.3" fill-rule="evenodd" clip-rule="evenodd" d="M338.081 231.04L338.812 242.219L349.991 242.95L349.859 257.161L344.744 257.209L344.832 247.745L333.995 247.036L333.286 236.199L323.822 236.287L323.87 231.172L338.081 231.04Z" fill="white"/>
<g opacity="0.3" filter="url(#filter2_f)">
<path fill-rule="evenodd" clip-rule="evenodd" d="M1191.95 702.991L1191.22 691.812L1180.04 691.081L1180.17 676.87L1185.29 676.822L1185.2 686.286L1196.04 686.995L1196.74 697.832L1206.21 697.744L1206.16 702.859L1191.95 702.991Z" fill="white"/>
</g>
<path opacity="0.3" fill-rule="evenodd" clip-rule="evenodd" d="M1199.95 710.991L1199.22 699.812L1188.04 699.081L1188.17 684.87L1193.29 684.822L1193.2 694.286L1204.04 694.995L1204.74 705.832L1214.21 705.744L1214.16 710.859L1199.95 710.991Z" fill="white"/>
<g opacity="0.3" filter="url(#filter3_f)">
<path fill-rule="evenodd" clip-rule="evenodd" d="M1154.8 153.698L1153.69 170.686L1136.7 171.797L1136.9 193.393L1144.67 193.465L1144.54 179.084L1161.01 178.007L1162.08 161.538L1176.47 161.672L1176.39 153.898L1154.8 153.698Z" fill="white"/>
</g>
<path opacity="0.5" fill-rule="evenodd" clip-rule="evenodd" d="M1162.29 146.698L1161.18 163.686L1144.19 164.797L1144.39 186.393L1152.17 186.465L1152.03 172.084L1168.5 171.007L1169.58 154.538L1183.96 154.672L1183.89 146.898L1162.29 146.698Z" fill="white"/>
<path opacity="0.5" fill-rule="evenodd" clip-rule="evenodd" d="M127.224 396.741L138.456 392.411L144.521 402.808L158.291 396.285L155.888 391.356L146.718 395.699L140.838 385.62L129.95 389.818L125.502 380.697L120.546 383.045L127.224 396.741Z" fill="white"/>
<path opacity="0.5" fill-rule="evenodd" clip-rule="evenodd" d="M101.98 154.621L92.0671 127.958L120.115 132.705L114.43 139.575L128.933 151.575L122.168 159.751L107.665 147.751L101.98 154.621Z" fill="white"/>
<g opacity="0.3" filter="url(#filter4_f)">
<path fill-rule="evenodd" clip-rule="evenodd" d="M109.98 164.621L100.067 137.958L128.115 142.705L122.43 149.575L136.933 161.575L130.168 169.751L115.665 157.751L109.98 164.621Z" fill="white"/>
</g>
<g opacity="0.3" filter="url(#filter5_f)">
<path fill-rule="evenodd" clip-rule="evenodd" d="M1027.85 751.021L1040.26 784.398L1005.15 778.456L1012.27 769.856L994.116 754.835L1002.58 744.6L1020.74 759.621L1027.85 751.021Z" fill="white"/>
</g>
<path opacity="0.5" fill-rule="evenodd" clip-rule="evenodd" d="M1033.85 755.021L1046.26 788.398L1011.15 782.456L1018.27 773.856L1000.12 758.835L1008.58 748.6L1026.74 763.621L1033.85 755.021Z" fill="white"/>
<g opacity="0.3" filter="url(#filter6_f)">
<path fill-rule="evenodd" clip-rule="evenodd" d="M251.957 744.928L246.234 760.32L262.426 757.58L259.145 753.614L267.517 746.686L263.612 741.966L255.239 748.894L251.957 744.928Z" fill="white"/>
</g>
<path opacity="0.5" fill-rule="evenodd" clip-rule="evenodd" d="M241.957 752.928L236.234 768.32L252.426 765.58L249.145 761.614L257.517 754.686L253.612 749.966L245.239 756.894L241.957 752.928Z" fill="white"/>
<path opacity="0.3" fill-rule="evenodd" clip-rule="evenodd" d="M527.069 14.2723L519.729 6.93228L513.205 13.4568L506.272 6.5245L498.932 13.8646L505.865 20.7968L498.932 27.7291L506.272 35.0692L513.205 28.1369L519.729 34.6614L527.069 27.3213L520.545 20.7968L527.069 14.2723Z" fill="white"/>
<path opacity="0.6" fill-rule="evenodd" clip-rule="evenodd" d="M1078.64 406.691L1071.6 399.65L1065.34 405.908L1058.69 399.259L1051.65 406.299L1058.3 412.949L1051.65 419.599L1058.69 426.64L1065.34 419.99L1071.6 426.249L1078.64 419.208L1072.38 412.949L1078.64 406.691Z" fill="white"/>
<path opacity="0.6" fill-rule="evenodd" clip-rule="evenodd" d="M35.3261 665.377L27.9323 657.983L21.36 664.555L14.3769 657.572L6.98305 664.966L13.9661 671.949L6.98308 678.932L14.3769 686.326L21.36 679.343L27.9323 685.915L35.3261 678.522L28.7538 671.949L35.3261 665.377Z" fill="white"/>
<path opacity="0.6" fill-rule="evenodd" clip-rule="evenodd" d="M854.663 49.1885L850.966 45.4915L847.68 48.7777L844.188 45.2862L840.492 48.9831L843.983 52.4746L840.492 55.9661L844.188 59.6631L847.68 56.1715L850.966 59.4577L854.663 55.7608L851.377 52.4746L854.663 49.1885Z" fill="white"/>
<defs>
<filter id="filter0_f" x="889.297" y="123.578" width="92.7733" height="89.959" filterUnits="userSpaceOnUse" color-interpolation-filters="sRGB">
<feFlood flood-opacity="0" result="BackgroundImageFix"/>
<feBlend mode="normal" in="SourceGraphic" in2="BackgroundImageFix" result="shape"/>
<feGaussianBlur stdDeviation="5" result="effect1_foregroundBlur"/>
</filter>
<filter id="filter1_f" x="321.822" y="229.04" width="46.1688" height="46.1688" filterUnits="userSpaceOnUse" color-interpolation-filters="sRGB">
<feFlood flood-opacity="0" result="BackgroundImageFix"/>
<feBlend mode="normal" in="SourceGraphic" in2="BackgroundImageFix" result="shape"/>
<feGaussianBlur stdDeviation="5" result="effect1_foregroundBlur"/>
</filter>
<filter id="filter2_f" x="1170.04" y="666.822" width="46.1688" height="46.1688" filterUnits="userSpaceOnUse" color-interpolation-filters="sRGB">
<feFlood flood-opacity="0" result="BackgroundImageFix"/>
<feBlend mode="normal" in="SourceGraphic" in2="BackgroundImageFix" result="shape"/>
<feGaussianBlur stdDeviation="5" result="effect1_foregroundBlur"/>
</filter>
<filter id="filter3_f" x="1116" y="133" width="74.7542" height="74.7542" filterUnits="userSpaceOnUse" color-interpolation-filters="sRGB">
<feFlood flood-opacity="0" result="BackgroundImageFix"/>
<feBlend mode="normal" in="SourceGraphic" in2="BackgroundImageFix" result="shape"/>
<feGaussianBlur stdDeviation="5" result="effect1_foregroundBlur"/>
</filter>
<filter id="filter4_f" x="81" y="117" width="71.6174" height="69.6213" filterUnits="userSpaceOnUse" color-interpolation-filters="sRGB">
<feFlood flood-opacity="0" result="BackgroundImageFix"/>
<feBlend mode="normal" in="SourceGraphic" in2="BackgroundImageFix" result="shape"/>
<feGaussianBlur stdDeviation="5" result="effect1_foregroundBlur"/>
</filter>
<filter id="filter5_f" x="977" y="726" width="84.6137" height="82.115" filterUnits="userSpaceOnUse" color-interpolation-filters="sRGB">
<feFlood flood-opacity="0" result="BackgroundImageFix"/>
<feBlend mode="normal" in="SourceGraphic" in2="BackgroundImageFix" result="shape"/>
<feGaussianBlur stdDeviation="5" result="effect1_foregroundBlur"/>
</filter>
<filter id="filter6_f" x="231" y="728" width="49.7988" height="48.6464" filterUnits="userSpaceOnUse" color-interpolation-filters="sRGB">
<feFlood flood-opacity="0" result="BackgroundImageFix"/>
<feBlend mode="normal" in="SourceGraphic" in2="BackgroundImageFix" result="shape"/>
<feGaussianBlur stdDeviation="5" result="effect1_foregroundBlur"/>
</filter>
</defs>
</svg>
