<svg width="30" height="30" viewBox="0 0 30 30" fill="none" xmlns="http://www.w3.org/2000/svg">
<path d="M27.1663 8.10307C25.8682 5.88999 24.1076 4.13789 21.8838 2.84638C19.6596 1.5548 17.2316 0.90918 14.5978 0.90918C11.9644 0.90918 9.5355 1.555 7.31184 2.84638C5.08785 4.13783 3.32724 5.88999 2.02923 8.10307C0.731414 10.3161 0.0824738 12.7327 0.0824738 15.3529C0.0824738 18.5003 1.00528 21.3306 2.85134 23.8444C4.69721 26.3583 7.0818 28.0979 10.0049 29.0633C10.3452 29.1261 10.5971 29.0819 10.7608 28.9318C10.9247 28.7815 11.0065 28.5932 11.0065 28.3678C11.0065 28.3302 11.0032 27.9918 10.997 27.3522C10.9905 26.7127 10.9874 26.1547 10.9874 25.6787L10.5527 25.7535C10.2755 25.804 9.92587 25.8254 9.50373 25.8194C9.08178 25.8135 8.64375 25.7695 8.19022 25.6877C7.7365 25.6066 7.31449 25.4185 6.92385 25.1239C6.53342 24.8292 6.25624 24.4435 6.0924 23.9674L5.90341 23.5346C5.77743 23.2465 5.5791 22.9264 5.30815 22.5756C5.03721 22.2244 4.76321 21.9863 4.48604 21.861L4.35371 21.7667C4.26553 21.7041 4.18371 21.6285 4.10805 21.5408C4.03245 21.4532 3.97585 21.3654 3.93805 21.2775C3.90019 21.1896 3.93156 21.1175 4.03252 21.0609C4.13347 21.0043 4.31591 20.9768 4.58064 20.9768L4.9585 21.033C5.21051 21.0833 5.52224 21.2334 5.89407 21.4843C6.26571 21.735 6.57122 22.061 6.81065 22.462C7.1006 22.9762 7.44993 23.368 7.85963 23.6376C8.269 23.9073 8.68174 24.0418 9.09747 24.0418C9.51319 24.0418 9.87225 24.0105 10.1748 23.9481C10.477 23.8854 10.7605 23.7911 11.0252 23.6658C11.1386 22.8254 11.4474 22.1798 11.9512 21.7285C11.2331 21.6534 10.5875 21.5403 10.014 21.3899C9.44084 21.2393 8.84856 20.9949 8.23755 20.6561C7.62621 20.3177 7.11907 19.8975 6.71599 19.3962C6.31284 18.8946 5.98199 18.2362 5.72388 17.4214C5.46564 16.6063 5.33649 15.666 5.33649 14.6003C5.33649 13.0829 5.8343 11.7916 6.82972 10.7258C6.36342 9.58502 6.40744 8.30616 6.96192 6.88936C7.32733 6.77638 7.86923 6.86116 8.58735 7.14317C9.30559 7.4253 9.83147 7.66699 10.1655 7.86738C10.4995 8.0677 10.7672 8.23745 10.9688 8.37513C12.1409 8.04925 13.3504 7.88628 14.5977 7.88628C15.845 7.88628 17.0547 8.04925 18.2269 8.37513L18.945 7.92396C19.4362 7.62292 20.0161 7.34704 20.6835 7.09626C21.3513 6.84562 21.862 6.77658 22.215 6.88955C22.7817 8.30642 22.8323 9.58522 22.3658 10.726C23.3612 11.7918 23.8592 13.0834 23.8592 14.6005C23.8592 15.6662 23.7296 16.6094 23.4717 17.4308C23.2136 18.2523 22.8799 18.9101 22.4705 19.4056C22.0607 19.901 21.5503 20.318 20.9393 20.6563C20.3281 20.9949 19.7356 21.2393 19.1625 21.3898C18.5891 21.5404 17.9435 21.6536 17.2253 21.7288C17.8803 22.2928 18.2079 23.1831 18.2079 24.3993V28.3673C18.2079 28.5927 18.2866 28.7809 18.4443 28.9313C18.6018 29.0814 18.8505 29.1256 19.1908 29.0627C22.1143 28.0975 24.4989 26.3578 26.3447 23.8438C28.1903 21.33 29.1134 18.4998 29.1134 15.3524C29.1127 12.7325 28.4635 10.3161 27.1663 8.10307Z" fill="white"/>
</svg>
