<svg width="306" height="38" viewBox="0 0 306 38" fill="none" xmlns="http://www.w3.org/2000/svg">
<path d="M13.9719 5.2229L2.36108 25.3328L12.4169 31.1386L24.0277 11.0288L13.9719 5.2229Z" fill="#FBBC04"/>
<path d="M35.6388 25.3314L24.0271 5.22111C22.4239 2.44434 18.8733 1.49236 16.0965 3.09549C13.3198 4.69861 12.3678 8.24924 13.9709 11.026L25.5827 31.1363C27.1858 33.9131 30.7364 34.8631 33.5132 33.2619C36.29 31.6588 37.24 28.1082 35.6388 25.3314Z" fill="#4285F4"/>
<path d="M7.39022 34.0397C10.5962 34.0397 13.1951 31.4408 13.1951 28.2348C13.1951 25.0289 10.5962 22.4299 7.39022 22.4299C4.18427 22.4299 1.58533 25.0289 1.58533 28.2348C1.58533 31.4408 4.18427 34.0397 7.39022 34.0397Z" fill="#34A853"/>
<path d="M64.3616 16.92V20.2H72.2281C71.9873 22.04 71.3719 23.3867 70.4354 24.3333C69.2849 25.48 67.4922 26.7333 64.3616 26.7333C59.5186 26.7333 55.7326 22.84 55.7326 18.0133C55.7326 13.1867 59.5186 9.29333 64.3616 9.29333C66.9704 9.29333 68.8835 10.32 70.2882 11.64L72.6027 9.33333C70.6495 7.44 68.0273 6 64.3616 6C57.7259 6 52.1472 11.3867 52.1472 18C52.1472 24.6133 57.7259 30 64.3616 30C67.947 30 70.6495 28.8267 72.7632 26.64C74.9305 24.48 75.6128 21.4267 75.6128 18.9733C75.6128 18.2133 75.5593 17.5067 75.4389 16.92H64.3616Z" fill="black"/>
<path d="M85.446 14.2534C81.1515 14.2534 77.6464 17.5068 77.6464 22.0001C77.6464 26.4534 81.1515 29.7468 85.446 29.7468C89.7404 29.7468 93.2455 26.4668 93.2455 22.0001C93.2455 17.5068 89.7404 14.2534 85.446 14.2534ZM85.446 26.6934C83.0914 26.6934 81.0578 24.7601 81.0578 22.0001C81.0578 19.2134 83.0914 17.3068 85.446 17.3068C87.8006 17.3068 89.8341 19.2134 89.8341 22.0001C89.8341 24.7601 87.8006 26.6934 85.446 26.6934Z" fill="black"/>
<path d="M123.681 15.9868H123.561C122.798 15.0801 121.327 14.2534 119.467 14.2534C115.587 14.2534 112.203 17.6268 112.203 22.0001C112.203 26.3468 115.587 29.7467 119.467 29.7467C121.327 29.7467 122.798 28.9201 123.561 27.9867H123.681V29.0667C123.681 32.0267 122.089 33.6134 119.534 33.6134C117.447 33.6134 116.149 32.1201 115.614 30.8534L112.644 32.0801C113.5 34.1334 115.761 36.6534 119.534 36.6534C123.534 36.6534 126.919 34.3067 126.919 28.5868V14.6534H123.681V15.9868ZM119.761 26.6934C117.407 26.6934 115.614 24.6934 115.614 22.0001C115.614 19.2668 117.407 17.3068 119.761 17.3068C122.089 17.3068 123.909 19.3068 123.909 22.0268C123.922 24.7334 122.089 26.6934 119.761 26.6934Z" fill="black"/>
<path d="M102.838 14.2534C98.5434 14.2534 95.0383 17.5068 95.0383 22.0001C95.0383 26.4534 98.5434 29.7468 102.838 29.7468C107.132 29.7468 110.637 26.4668 110.637 22.0001C110.637 17.5068 107.132 14.2534 102.838 14.2534ZM102.838 26.6934C100.483 26.6934 98.4498 24.7601 98.4498 22.0001C98.4498 19.2134 100.483 17.3068 102.838 17.3068C105.192 17.3068 107.226 19.2134 107.226 22.0001C107.226 24.7601 105.192 26.6934 102.838 26.6934Z" fill="black"/>
<path d="M129.595 6.32007H132.953V29.7467H129.595V6.32007Z" fill="black"/>
<path d="M143.321 26.6934C141.582 26.6934 140.351 25.9068 139.548 24.3468L149.943 20.0668L149.595 19.1868C148.953 17.4534 146.973 14.2534 142.946 14.2534C138.946 14.2534 135.615 17.3868 135.615 22.0001C135.615 26.3468 138.906 29.7468 143.321 29.7468C146.879 29.7468 148.94 27.5734 149.796 26.3201L147.147 24.5601C146.264 25.8401 145.06 26.6934 143.321 26.6934ZM143.08 17.1601C144.458 17.1601 145.635 17.8668 146.023 18.8668L139 21.7601C139 18.5068 141.314 17.1601 143.08 17.1601Z" fill="black"/>
<path d="M166.737 22.0498L165.173 23.6758V28H163.485V15.2031H165.173V21.5312L170.859 15.2031H172.898L167.862 20.8545L173.294 28H171.272L166.737 22.0498ZM178.233 28.1758C176.944 28.1758 175.896 27.7539 175.087 26.9102C174.278 26.0605 173.874 24.9268 173.874 23.5088V23.21C173.874 22.2666 174.053 21.4258 174.41 20.6875C174.773 19.9434 175.277 19.3633 175.922 18.9473C176.572 18.5254 177.275 18.3145 178.031 18.3145C179.268 18.3145 180.229 18.7217 180.914 19.5361C181.6 20.3506 181.942 21.5166 181.942 23.0342V23.7109H175.5C175.523 24.6484 175.796 25.4072 176.317 25.9873C176.845 26.5615 177.513 26.8486 178.321 26.8486C178.896 26.8486 179.382 26.7314 179.78 26.4971C180.179 26.2627 180.527 25.9521 180.826 25.5654L181.819 26.3389C181.022 27.5635 179.827 28.1758 178.233 28.1758ZM178.031 19.6504C177.375 19.6504 176.824 19.8906 176.379 20.3711C175.934 20.8457 175.658 21.5137 175.553 22.375H180.316V22.252C180.27 21.4258 180.047 20.7871 179.648 20.3359C179.25 19.8789 178.711 19.6504 178.031 19.6504ZM186.82 25.6182L189.035 18.4902H190.775L186.952 29.4678C186.36 31.0498 185.42 31.8408 184.131 31.8408L183.823 31.8145L183.217 31.7002V30.3818L183.656 30.417C184.207 30.417 184.635 30.3057 184.939 30.083C185.25 29.8604 185.505 29.4531 185.704 28.8613L186.064 27.8945L182.672 18.4902H184.447L186.82 25.6182ZM200.654 25.7588L202.482 18.4902H204.108L201.34 28H200.021L197.71 20.793L195.46 28H194.142L191.382 18.4902H192.999L194.871 25.6094L197.086 18.4902H198.396L200.654 25.7588ZM205.339 23.1572C205.339 22.2256 205.521 21.3877 205.884 20.6436C206.253 19.8994 206.763 19.3252 207.413 18.9209C208.069 18.5166 208.816 18.3145 209.654 18.3145C210.949 18.3145 211.995 18.7627 212.792 19.6592C213.595 20.5557 213.996 21.748 213.996 23.2363V23.3506C213.996 24.2764 213.817 25.1084 213.46 25.8467C213.108 26.5791 212.602 27.1504 211.939 27.5605C211.283 27.9707 210.527 28.1758 209.672 28.1758C208.383 28.1758 207.337 27.7275 206.534 26.8311C205.737 25.9346 205.339 24.748 205.339 23.2715V23.1572ZM206.974 23.3506C206.974 24.4053 207.217 25.252 207.703 25.8906C208.195 26.5293 208.852 26.8486 209.672 26.8486C210.498 26.8486 211.154 26.5264 211.641 25.8818C212.127 25.2314 212.37 24.3232 212.37 23.1572C212.37 22.1143 212.121 21.2705 211.623 20.626C211.131 19.9756 210.475 19.6504 209.654 19.6504C208.852 19.6504 208.204 19.9697 207.712 20.6084C207.22 21.2471 206.974 22.1611 206.974 23.3506ZM220.632 19.9492C220.386 19.9082 220.119 19.8877 219.832 19.8877C218.766 19.8877 218.042 20.3418 217.661 21.25V28H216.035V18.4902H217.617L217.644 19.5889C218.177 18.7393 218.933 18.3145 219.911 18.3145C220.228 18.3145 220.468 18.3555 220.632 18.4375V19.9492ZM221.563 23.166C221.563 21.707 221.909 20.5352 222.601 19.6504C223.292 18.7598 224.197 18.3145 225.316 18.3145C226.43 18.3145 227.312 18.6953 227.962 19.457V14.5H229.588V28H228.094L228.015 26.9805C227.364 27.7773 226.459 28.1758 225.299 28.1758C224.197 28.1758 223.298 27.7246 222.601 26.8223C221.909 25.9199 221.563 24.7422 221.563 23.2891V23.166ZM223.189 23.3506C223.189 24.4287 223.412 25.2725 223.857 25.8818C224.303 26.4912 224.918 26.7959 225.703 26.7959C226.734 26.7959 227.487 26.333 227.962 25.4072V21.0391C227.476 20.1426 226.729 19.6943 225.721 19.6943C224.924 19.6943 224.303 20.002 223.857 20.6172C223.412 21.2324 223.189 22.1436 223.189 23.3506ZM237.656 25.4775C237.656 25.0381 237.489 24.6982 237.155 24.458C236.827 24.2119 236.25 24.001 235.424 23.8252C234.604 23.6494 233.95 23.4385 233.464 23.1924C232.983 22.9463 232.626 22.6533 232.392 22.3135C232.163 21.9736 232.049 21.5693 232.049 21.1006C232.049 20.3213 232.377 19.6621 233.033 19.123C233.695 18.584 234.539 18.3145 235.564 18.3145C236.643 18.3145 237.516 18.5928 238.184 19.1494C238.857 19.7061 239.194 20.418 239.194 21.2852H237.56C237.56 20.8398 237.369 20.4561 236.988 20.1338C236.613 19.8115 236.139 19.6504 235.564 19.6504C234.973 19.6504 234.51 19.7793 234.176 20.0371C233.842 20.2949 233.675 20.6318 233.675 21.0479C233.675 21.4404 233.83 21.7363 234.141 21.9355C234.451 22.1348 235.011 22.3252 235.819 22.5068C236.634 22.6885 237.293 22.9053 237.797 23.1572C238.301 23.4092 238.673 23.7139 238.913 24.0713C239.159 24.4229 239.282 24.8535 239.282 25.3633C239.282 26.2129 238.942 26.8955 238.263 27.4111C237.583 27.9209 236.701 28.1758 235.617 28.1758C234.855 28.1758 234.182 28.041 233.596 27.7715C233.01 27.502 232.55 27.127 232.216 26.6465C231.888 26.1602 231.724 25.6357 231.724 25.0732H233.35C233.379 25.6182 233.596 26.0518 234 26.374C234.41 26.6904 234.949 26.8486 235.617 26.8486C236.232 26.8486 236.725 26.7256 237.094 26.4795C237.469 26.2275 237.656 25.8936 237.656 25.4775ZM247.808 22.9902V28H246.12V15.2031H250.84C252.24 15.2031 253.336 15.5605 254.127 16.2754C254.924 16.9902 255.322 17.9365 255.322 19.1143C255.322 20.3564 254.933 21.3145 254.153 21.9883C253.38 22.6562 252.27 22.9902 250.822 22.9902H247.808ZM247.808 21.6104H250.84C251.742 21.6104 252.434 21.3994 252.914 20.9775C253.395 20.5498 253.635 19.9346 253.635 19.1318C253.635 18.3701 253.395 17.7607 252.914 17.3037C252.434 16.8467 251.774 16.6094 250.937 16.5918H247.808V21.6104ZM258.987 28H257.361V14.5H258.987V28ZM267.469 28C267.375 27.8125 267.299 27.4785 267.24 26.998C266.484 27.7832 265.582 28.1758 264.533 28.1758C263.596 28.1758 262.825 27.9121 262.222 27.3848C261.624 26.8516 261.325 26.1777 261.325 25.3633C261.325 24.373 261.7 23.6055 262.45 23.0605C263.206 22.5098 264.267 22.2344 265.632 22.2344H267.214V21.4873C267.214 20.9189 267.044 20.4678 266.704 20.1338C266.364 19.7939 265.863 19.624 265.201 19.624C264.621 19.624 264.135 19.7705 263.742 20.0635C263.35 20.3564 263.153 20.7109 263.153 21.127H261.519C261.519 20.6523 261.686 20.1953 262.02 19.7559C262.359 19.3105 262.816 18.959 263.391 18.7012C263.971 18.4434 264.606 18.3145 265.298 18.3145C266.394 18.3145 267.252 18.5898 267.873 19.1406C268.494 19.6855 268.816 20.4385 268.84 21.3994V25.7764C268.84 26.6494 268.951 27.3438 269.174 27.8594V28H267.469ZM264.771 26.7607C265.28 26.7607 265.764 26.6289 266.221 26.3652C266.678 26.1016 267.009 25.7588 267.214 25.3369V23.3857H265.939C263.947 23.3857 262.951 23.9688 262.951 25.1348C262.951 25.6445 263.121 26.043 263.461 26.3301C263.801 26.6172 264.237 26.7607 264.771 26.7607ZM272.927 18.4902L272.979 19.6855C273.706 18.7715 274.655 18.3145 275.827 18.3145C277.837 18.3145 278.851 19.4482 278.868 21.7158V28H277.242V21.707C277.236 21.0215 277.078 20.5146 276.768 20.1865C276.463 19.8584 275.985 19.6943 275.335 19.6943C274.808 19.6943 274.345 19.835 273.946 20.1162C273.548 20.3975 273.237 20.7666 273.015 21.2236V28H271.389V18.4902H272.927ZM282.858 18.4902L282.911 19.6855C283.638 18.7715 284.587 18.3145 285.759 18.3145C287.769 18.3145 288.782 19.4482 288.8 21.7158V28H287.174V21.707C287.168 21.0215 287.01 20.5146 286.699 20.1865C286.395 19.8584 285.917 19.6943 285.267 19.6943C284.739 19.6943 284.276 19.835 283.878 20.1162C283.479 20.3975 283.169 20.7666 282.946 21.2236V28H281.32V18.4902H282.858ZM295.198 28.1758C293.909 28.1758 292.86 27.7539 292.052 26.9102C291.243 26.0605 290.839 24.9268 290.839 23.5088V23.21C290.839 22.2666 291.018 21.4258 291.375 20.6875C291.738 19.9434 292.242 19.3633 292.887 18.9473C293.537 18.5254 294.24 18.3145 294.996 18.3145C296.232 18.3145 297.193 18.7217 297.879 19.5361C298.564 20.3506 298.907 21.5166 298.907 23.0342V23.7109H292.465C292.488 24.6484 292.761 25.4072 293.282 25.9873C293.81 26.5615 294.478 26.8486 295.286 26.8486C295.86 26.8486 296.347 26.7314 296.745 26.4971C297.144 26.2627 297.492 25.9521 297.791 25.5654L298.784 26.3389C297.987 27.5635 296.792 28.1758 295.198 28.1758ZM294.996 19.6504C294.34 19.6504 293.789 19.8906 293.344 20.3711C292.898 20.8457 292.623 21.5137 292.518 22.375H297.281V22.252C297.234 21.4258 297.012 20.7871 296.613 20.3359C296.215 19.8789 295.676 19.6504 294.996 19.6504ZM305.394 19.9492C305.147 19.9082 304.881 19.8877 304.594 19.8877C303.527 19.8877 302.804 20.3418 302.423 21.25V28H300.797V18.4902H302.379L302.405 19.5889C302.938 18.7393 303.694 18.3145 304.673 18.3145C304.989 18.3145 305.229 18.3555 305.394 18.4375V19.9492Z" fill="#222222"/>
</svg>
