<svg width="112" height="38" viewBox="0 0 112 38" fill="none" xmlns="http://www.w3.org/2000/svg">
<path d="M13.9849 12.74V16.5667H22.8843C22.6119 18.7133 21.9157 20.2844 20.8562 21.3889C19.5546 22.7267 17.5265 24.1889 13.9849 24.1889C8.50596 24.1889 4.22272 19.6467 4.22272 14.0156C4.22272 8.38444 8.50596 3.84222 13.9849 3.84222C16.9362 3.84222 19.1006 5.04 20.6897 6.58L23.3081 3.88889C21.0984 1.68 18.1319 0 13.9849 0C6.47786 0 0.166504 6.28444 0.166504 14C0.166504 21.7155 6.47786 28 13.9849 28C18.0411 28 21.0984 26.6311 23.4897 24.08C25.9416 21.56 26.7135 17.9978 26.7135 15.1355C26.7135 14.2489 26.653 13.4244 26.5168 12.74H13.9849Z" fill="#4285F4"/>
<path d="M37.8378 9.62891C32.9794 9.62891 29.014 13.4245 29.014 18.6667C29.014 23.8622 32.9794 27.7045 37.8378 27.7045C42.6962 27.7045 46.6616 23.8778 46.6616 18.6667C46.6616 13.4245 42.6962 9.62891 37.8378 9.62891ZM37.8378 24.1422C35.174 24.1422 32.8735 21.8867 32.8735 18.6667C32.8735 15.4156 35.174 13.1911 37.8378 13.1911C40.5016 13.1911 42.8022 15.4156 42.8022 18.6667C42.8022 21.8867 40.5016 24.1422 37.8378 24.1422Z" fill="#EA4335"/>
<path d="M81.094 11.6511H80.9578C80.0951 10.5934 78.4302 9.62891 76.3265 9.62891C71.9373 9.62891 68.1081 13.5645 68.1081 18.6667C68.1081 23.7378 71.9373 27.7045 76.3265 27.7045C78.4302 27.7045 80.0951 26.74 80.9578 25.6511H81.094V26.9111C81.094 30.3645 79.2929 32.2156 76.4021 32.2156C74.0411 32.2156 72.573 30.4734 71.9675 28.9956L68.6076 30.4267C69.5762 32.8222 72.134 35.7622 76.4021 35.7622C80.9275 35.7622 84.7567 33.0245 84.7567 26.3511V10.0956H81.094V11.6511ZM76.6594 24.1422C73.9957 24.1422 71.9675 21.8089 71.9675 18.6667C71.9675 15.4778 73.9957 13.1911 76.6594 13.1911C79.293 13.1911 81.3513 15.5245 81.3513 18.6978C81.3665 21.8556 79.293 24.1422 76.6594 24.1422Z" fill="#4285F4"/>
<path d="M57.5135 9.62891C52.6552 9.62891 48.6898 13.4245 48.6898 18.6667C48.6898 23.8622 52.6552 27.7045 57.5135 27.7045C62.3719 27.7045 66.3373 23.8778 66.3373 18.6667C66.3373 13.4245 62.3719 9.62891 57.5135 9.62891ZM57.5135 24.1422C54.8498 24.1422 52.5492 21.8867 52.5492 18.6667C52.5492 15.4156 54.8498 13.1911 57.5135 13.1911C60.1773 13.1911 62.4779 15.4156 62.4779 18.6667C62.4779 21.8867 60.1773 24.1422 57.5135 24.1422Z" fill="#FBBC05"/>
<path d="M87.7838 0.373291H91.5827V27.7044H87.7838V0.373291Z" fill="#34A853"/>
<path d="M103.312 24.1422C101.345 24.1422 99.9524 23.2245 99.0443 21.4045L110.804 16.4111L110.411 15.3845C109.684 13.3622 107.444 9.62891 102.889 9.62891C98.3632 9.62891 94.5945 13.2845 94.5945 18.6667C94.5945 23.7378 98.3178 27.7045 103.312 27.7045C107.338 27.7045 109.669 25.1689 110.638 23.7067L107.641 21.6534C106.642 23.1467 105.28 24.1422 103.312 24.1422ZM103.04 13.02C104.599 13.02 105.931 13.8445 106.37 15.0111L98.4237 18.3867C98.4237 14.5911 101.042 13.02 103.04 13.02Z" fill="#EA4335"/>
</svg>
