<svg width="238" height="38" viewBox="0 0 238 38" fill="none" xmlns="http://www.w3.org/2000/svg">
<path d="M68.3616 16.92V20.2H76.2281C75.9873 22.04 75.3719 23.3867 74.4354 24.3333C73.2849 25.48 71.4922 26.7333 68.3616 26.7333C63.5186 26.7333 59.7326 22.84 59.7326 18.0133C59.7326 13.1867 63.5186 9.29333 68.3616 9.29333C70.9704 9.29333 72.8835 10.32 74.2882 11.64L76.6027 9.33333C74.6495 7.44 72.0273 6 68.3616 6C61.7259 6 56.1472 11.3867 56.1472 18C56.1472 24.6133 61.7259 30 68.3616 30C71.947 30 74.6495 28.8267 76.7632 26.64C78.9305 24.48 79.6128 21.4267 79.6128 18.9733C79.6128 18.2133 79.5593 17.5067 79.4389 16.92H68.3616Z" fill="black"/>
<path d="M89.446 14.2534C85.1515 14.2534 81.6464 17.5068 81.6464 22.0001C81.6464 26.4534 85.1515 29.7468 89.446 29.7468C93.7404 29.7468 97.2455 26.4668 97.2455 22.0001C97.2455 17.5068 93.7404 14.2534 89.446 14.2534ZM89.446 26.6934C87.0914 26.6934 85.0578 24.7601 85.0578 22.0001C85.0578 19.2134 87.0914 17.3068 89.446 17.3068C91.8006 17.3068 93.8341 19.2134 93.8341 22.0001C93.8341 24.7601 91.8006 26.6934 89.446 26.6934Z" fill="black"/>
<path d="M127.681 15.9868H127.561C126.798 15.0801 125.327 14.2534 123.467 14.2534C119.587 14.2534 116.203 17.6268 116.203 22.0001C116.203 26.3468 119.587 29.7467 123.467 29.7467C125.327 29.7467 126.798 28.9201 127.561 27.9867H127.681V29.0667C127.681 32.0267 126.089 33.6134 123.534 33.6134C121.447 33.6134 120.149 32.1201 119.614 30.8534L116.644 32.0801C117.5 34.1334 119.761 36.6534 123.534 36.6534C127.534 36.6534 130.919 34.3067 130.919 28.5868V14.6534H127.681V15.9868ZM123.761 26.6934C121.407 26.6934 119.614 24.6934 119.614 22.0001C119.614 19.2668 121.407 17.3068 123.761 17.3068C126.089 17.3068 127.909 19.3068 127.909 22.0268C127.922 24.7334 126.089 26.6934 123.761 26.6934Z" fill="black"/>
<path d="M106.838 14.2534C102.543 14.2534 99.0383 17.5068 99.0383 22.0001C99.0383 26.4534 102.543 29.7468 106.838 29.7468C111.132 29.7468 114.637 26.4668 114.637 22.0001C114.637 17.5068 111.132 14.2534 106.838 14.2534ZM106.838 26.6934C104.483 26.6934 102.45 24.7601 102.45 22.0001C102.45 19.2134 104.483 17.3068 106.838 17.3068C109.192 17.3068 111.226 19.2134 111.226 22.0001C111.226 24.7601 109.192 26.6934 106.838 26.6934Z" fill="black"/>
<path d="M133.595 6.32007H136.953V29.7467H133.595V6.32007Z" fill="black"/>
<path d="M147.321 26.6934C145.582 26.6934 144.351 25.9068 143.548 24.3468L153.943 20.0668L153.595 19.1868C152.953 17.4534 150.973 14.2534 146.946 14.2534C142.946 14.2534 139.615 17.3868 139.615 22.0001C139.615 26.3468 142.906 29.7468 147.321 29.7468C150.879 29.7468 152.94 27.5734 153.796 26.3201L151.147 24.5601C150.264 25.8401 149.06 26.6934 147.321 26.6934ZM147.08 17.1601C148.458 17.1601 149.635 17.8668 150.023 18.8668L143 21.7601C143 18.5068 145.314 17.1601 147.08 17.1601Z" fill="black"/>
<path d="M24.375 5.4375V30.1875C24.375 32.9569 26.2856 34.5 28.3125 34.5C30.1875 34.5 32.25 33.1875 32.25 30.1875V5.625C32.25 3.08625 30.375 1.5 28.3125 1.5C26.25 1.5 24.375 3.24937 24.375 5.4375Z" fill="#F9AB00"/>
<path d="M14.0625 18V30.1875C14.0625 32.9569 15.9731 34.5 18 34.5C19.875 34.5 21.9375 33.1875 21.9375 30.1875V18.1875C21.9375 15.6488 20.0625 14.0625 18 14.0625C15.9375 14.0625 14.0625 15.8119 14.0625 18Z" fill="#E37400"/>
<path d="M7.6875 34.5C9.86212 34.5 11.625 32.7371 11.625 30.5625C11.625 28.3879 9.86212 26.625 7.6875 26.625C5.51288 26.625 3.75 28.3879 3.75 30.5625C3.75 32.7371 5.51288 34.5 7.6875 34.5Z" fill="#E37400"/>
<path d="M172.884 24.6602H167.522L166.318 28H164.578L169.465 15.2031H170.941L175.837 28H174.105L172.884 24.6602ZM168.032 23.2715H172.383L170.203 17.2861L168.032 23.2715ZM178.843 18.4902L178.896 19.6855C179.622 18.7715 180.571 18.3145 181.743 18.3145C183.753 18.3145 184.767 19.4482 184.784 21.7158V28H183.158V21.707C183.152 21.0215 182.994 20.5146 182.684 20.1865C182.379 19.8584 181.901 19.6943 181.251 19.6943C180.724 19.6943 180.261 19.835 179.862 20.1162C179.464 20.3975 179.153 20.7666 178.931 21.2236V28H177.305V18.4902H178.843ZM193.107 28C193.014 27.8125 192.938 27.4785 192.879 26.998C192.123 27.7832 191.221 28.1758 190.172 28.1758C189.234 28.1758 188.464 27.9121 187.86 27.3848C187.263 26.8516 186.964 26.1777 186.964 25.3633C186.964 24.373 187.339 23.6055 188.089 23.0605C188.845 22.5098 189.905 22.2344 191.271 22.2344H192.853V21.4873C192.853 20.9189 192.683 20.4678 192.343 20.1338C192.003 19.7939 191.502 19.624 190.84 19.624C190.26 19.624 189.773 19.7705 189.381 20.0635C188.988 20.3564 188.792 20.7109 188.792 21.127H187.157C187.157 20.6523 187.324 20.1953 187.658 19.7559C187.998 19.3105 188.455 18.959 189.029 18.7012C189.609 18.4434 190.245 18.3145 190.937 18.3145C192.032 18.3145 192.891 18.5898 193.512 19.1406C194.133 19.6855 194.455 20.4385 194.479 21.3994V25.7764C194.479 26.6494 194.59 27.3438 194.812 27.8594V28H193.107ZM190.409 26.7607C190.919 26.7607 191.402 26.6289 191.859 26.3652C192.316 26.1016 192.647 25.7588 192.853 25.3369V23.3857H191.578C189.586 23.3857 188.59 23.9688 188.59 25.1348C188.59 25.6445 188.76 26.043 189.1 26.3301C189.439 26.6172 189.876 26.7607 190.409 26.7607ZM198.794 28H197.168V14.5H198.794V28ZM204.516 25.6182L206.73 18.4902H208.471L204.647 29.4678C204.056 31.0498 203.115 31.8408 201.826 31.8408L201.519 31.8145L200.912 31.7002V30.3818L201.352 30.417C201.902 30.417 202.33 30.3057 202.635 30.083C202.945 29.8604 203.2 29.4531 203.399 28.8613L203.76 27.8945L200.367 18.4902H202.143L204.516 25.6182ZM212.136 16.1875V18.4902H213.911V19.7471H212.136V25.6445C212.136 26.0254 212.215 26.3125 212.373 26.5059C212.531 26.6934 212.801 26.7871 213.182 26.7871C213.369 26.7871 213.627 26.752 213.955 26.6816V28C213.527 28.1172 213.111 28.1758 212.707 28.1758C211.98 28.1758 211.433 27.9561 211.063 27.5166C210.694 27.0771 210.51 26.4531 210.51 25.6445V19.7471H208.778V18.4902H210.51V16.1875H212.136ZM217.585 28H215.959V18.4902H217.585V28ZM215.827 15.9678C215.827 15.7041 215.906 15.4814 216.064 15.2998C216.229 15.1182 216.469 15.0273 216.785 15.0273C217.102 15.0273 217.342 15.1182 217.506 15.2998C217.67 15.4814 217.752 15.7041 217.752 15.9678C217.752 16.2314 217.67 16.4512 217.506 16.627C217.342 16.8027 217.102 16.8906 216.785 16.8906C216.469 16.8906 216.229 16.8027 216.064 16.627C215.906 16.4512 215.827 16.2314 215.827 15.9678ZM224.01 26.8486C224.59 26.8486 225.097 26.6729 225.53 26.3213C225.964 25.9697 226.204 25.5303 226.251 25.0029H227.789C227.76 25.5479 227.572 26.0664 227.227 26.5586C226.881 27.0508 226.418 27.4434 225.838 27.7363C225.264 28.0293 224.654 28.1758 224.01 28.1758C222.715 28.1758 221.684 27.7451 220.916 26.8838C220.154 26.0166 219.773 24.833 219.773 23.333V23.0605C219.773 22.1348 219.943 21.3115 220.283 20.5908C220.623 19.8701 221.109 19.3105 221.742 18.9121C222.381 18.5137 223.134 18.3145 224.001 18.3145C225.067 18.3145 225.952 18.6338 226.655 19.2725C227.364 19.9111 227.742 20.7402 227.789 21.7598H226.251C226.204 21.1445 225.97 20.6406 225.548 20.248C225.132 19.8496 224.616 19.6504 224.001 19.6504C223.175 19.6504 222.533 19.9492 222.076 20.5469C221.625 21.1387 221.399 21.9971 221.399 23.1221V23.4297C221.399 24.5254 221.625 25.3691 222.076 25.9609C222.527 26.5527 223.172 26.8486 224.01 26.8486ZM235.154 25.4775C235.154 25.0381 234.987 24.6982 234.653 24.458C234.325 24.2119 233.748 24.001 232.922 23.8252C232.102 23.6494 231.448 23.4385 230.962 23.1924C230.481 22.9463 230.124 22.6533 229.89 22.3135C229.661 21.9736 229.547 21.5693 229.547 21.1006C229.547 20.3213 229.875 19.6621 230.531 19.123C231.193 18.584 232.037 18.3145 233.062 18.3145C234.141 18.3145 235.014 18.5928 235.682 19.1494C236.355 19.7061 236.692 20.418 236.692 21.2852H235.058C235.058 20.8398 234.867 20.4561 234.486 20.1338C234.111 19.8115 233.637 19.6504 233.062 19.6504C232.471 19.6504 232.008 19.7793 231.674 20.0371C231.34 20.2949 231.173 20.6318 231.173 21.0479C231.173 21.4404 231.328 21.7363 231.639 21.9355C231.949 22.1348 232.509 22.3252 233.317 22.5068C234.132 22.6885 234.791 22.9053 235.295 23.1572C235.799 23.4092 236.171 23.7139 236.411 24.0713C236.657 24.4229 236.78 24.8535 236.78 25.3633C236.78 26.2129 236.44 26.8955 235.761 27.4111C235.081 27.9209 234.199 28.1758 233.115 28.1758C232.354 28.1758 231.68 28.041 231.094 27.7715C230.508 27.502 230.048 27.127 229.714 26.6465C229.386 26.1602 229.222 25.6357 229.222 25.0732H230.848C230.877 25.6182 231.094 26.0518 231.498 26.374C231.908 26.6904 232.447 26.8486 233.115 26.8486C233.73 26.8486 234.223 26.7256 234.592 26.4795C234.967 26.2275 235.154 25.8936 235.154 25.4775Z" fill="#222222"/>
</svg>
