<svg width="221" height="36" viewBox="0 0 221 36" fill="none" xmlns="http://www.w3.org/2000/svg">
<path d="M176.37 14.8499H172.257V26.2581H170.578V14.8499H166.474V13.4612H176.37V14.8499ZM181.942 18.2073C181.696 18.1663 181.43 18.1458 181.143 18.1458C180.076 18.1458 179.353 18.5999 178.972 19.5081V26.2581H177.346V16.7483H178.928L178.954 17.8469C179.487 16.9973 180.243 16.5725 181.222 16.5725C181.538 16.5725 181.778 16.6135 181.942 16.6956V18.2073ZM187.216 26.4338C185.927 26.4338 184.878 26.012 184.069 25.1682C183.261 24.3186 182.856 23.1848 182.856 21.7668V21.468C182.856 20.5247 183.035 19.6838 183.393 18.9456C183.756 18.2014 184.26 17.6213 184.904 17.2053C185.555 16.7834 186.258 16.5725 187.014 16.5725C188.25 16.5725 189.211 16.9797 189.896 17.7942C190.582 18.6086 190.925 19.7747 190.925 21.2922V21.969H184.482C184.506 22.9065 184.778 23.6653 185.3 24.2454C185.827 24.8196 186.495 25.1067 187.304 25.1067C187.878 25.1067 188.364 24.9895 188.763 24.7551C189.161 24.5208 189.51 24.2102 189.809 23.8235L190.802 24.5969C190.005 25.8215 188.81 26.4338 187.216 26.4338ZM187.014 17.9084C186.357 17.9084 185.807 18.1487 185.361 18.6292C184.916 19.1038 184.641 19.7717 184.535 20.6331H189.299V20.51C189.252 19.6838 189.029 19.0452 188.631 18.594C188.232 18.137 187.693 17.9084 187.014 17.9084ZM194.353 16.7483L194.405 17.9436C195.132 17.0295 196.081 16.5725 197.253 16.5725C199.263 16.5725 200.276 17.7063 200.294 19.9739V26.2581H198.668V19.9651C198.662 19.2795 198.504 18.7727 198.193 18.4446C197.889 18.1165 197.411 17.9524 196.761 17.9524C196.233 17.9524 195.771 18.093 195.372 18.3743C194.974 18.6555 194.663 19.0247 194.44 19.4817V26.2581H192.814V16.7483H194.353ZM202.351 21.4241C202.351 19.9651 202.696 18.7932 203.388 17.9084C204.079 17.0178 204.984 16.5725 206.104 16.5725C207.217 16.5725 208.099 16.9534 208.749 17.7151V12.7581H210.375V26.2581H208.881L208.802 25.2385C208.151 26.0354 207.246 26.4338 206.086 26.4338C204.984 26.4338 204.085 25.9827 203.388 25.0803C202.696 24.178 202.351 23.0002 202.351 21.5471V21.4241ZM203.977 21.6086C203.977 22.6868 204.199 23.5305 204.645 24.1399C205.09 24.7493 205.705 25.054 206.49 25.054C207.521 25.054 208.274 24.5911 208.749 23.6653V19.2971C208.263 18.4006 207.516 17.9524 206.508 17.9524C205.711 17.9524 205.09 18.26 204.645 18.8752C204.199 19.4905 203.977 20.4016 203.977 21.6086ZM218.443 23.7356C218.443 23.2961 218.276 22.9563 217.942 22.7161C217.614 22.47 217.037 22.259 216.211 22.0833C215.391 21.9075 214.737 21.6965 214.251 21.4504C213.771 21.2043 213.413 20.9114 213.179 20.5715C212.95 20.2317 212.836 19.8274 212.836 19.3586C212.836 18.5793 213.164 17.9202 213.82 17.3811C214.482 16.842 215.326 16.5725 216.352 16.5725C217.43 16.5725 218.303 16.8508 218.971 17.4075C219.645 17.9641 219.981 18.676 219.981 19.5432H218.347C218.347 19.0979 218.156 18.7141 217.775 18.3918C217.4 18.0696 216.926 17.9084 216.352 17.9084C215.76 17.9084 215.297 18.0374 214.963 18.2952C214.629 18.553 214.462 18.8899 214.462 19.3059C214.462 19.6985 214.617 19.9944 214.928 20.1936C215.238 20.3928 215.798 20.5833 216.606 20.7649C217.421 20.9465 218.08 21.1633 218.584 21.4153C219.088 21.6672 219.46 21.9719 219.7 22.3293C219.946 22.6809 220.069 23.1116 220.069 23.6213C220.069 24.4709 219.729 25.1536 219.05 25.6692C218.37 26.179 217.488 26.4338 216.404 26.4338C215.643 26.4338 214.969 26.2991 214.383 26.0295C213.797 25.76 213.337 25.385 213.003 24.9045C212.675 24.4182 212.511 23.8938 212.511 23.3313H214.137C214.166 23.8762 214.383 24.3098 214.787 24.6321C215.197 24.9485 215.736 25.1067 216.404 25.1067C217.02 25.1067 217.512 24.9836 217.881 24.7375C218.256 24.4856 218.443 24.1516 218.443 23.7356Z" fill="#222222"/>
<path d="M66.3616 14.92V18.2H74.2281C73.9873 20.04 73.3719 21.3867 72.4354 22.3333C71.2849 23.48 69.4922 24.7333 66.3616 24.7333C61.5186 24.7333 57.7326 20.84 57.7326 16.0133C57.7326 11.1867 61.5186 7.29333 66.3616 7.29333C68.9704 7.29333 70.8835 8.32 72.2882 9.64L74.6027 7.33333C72.6495 5.44 70.0273 4 66.3616 4C59.7259 4 54.1472 9.38667 54.1472 16C54.1472 22.6133 59.7259 28 66.3616 28C69.947 28 72.6495 26.8267 74.7632 24.64C76.9305 22.48 77.6128 19.4267 77.6128 16.9733C77.6128 16.2133 77.5593 15.5067 77.4389 14.92H66.3616Z" fill="black"/>
<path d="M87.446 12.2534C83.1515 12.2534 79.6464 15.5068 79.6464 20.0001C79.6464 24.4534 83.1515 27.7468 87.446 27.7468C91.7404 27.7468 95.2455 24.4668 95.2455 20.0001C95.2455 15.5068 91.7404 12.2534 87.446 12.2534ZM87.446 24.6934C85.0914 24.6934 83.0578 22.7601 83.0578 20.0001C83.0578 17.2134 85.0914 15.3068 87.446 15.3068C89.8006 15.3068 91.8341 17.2134 91.8341 20.0001C91.8341 22.7601 89.8006 24.6934 87.446 24.6934Z" fill="black"/>
<path d="M125.681 13.9868H125.561C124.798 13.0801 123.327 12.2534 121.467 12.2534C117.587 12.2534 114.203 15.6268 114.203 20.0001C114.203 24.3468 117.587 27.7467 121.467 27.7467C123.327 27.7467 124.798 26.9201 125.561 25.9867H125.681V27.0667C125.681 30.0267 124.089 31.6134 121.534 31.6134C119.447 31.6134 118.149 30.1201 117.614 28.8534L114.644 30.0801C115.5 32.1334 117.761 34.6534 121.534 34.6534C125.534 34.6534 128.919 32.3067 128.919 26.5868V12.6534H125.681V13.9868ZM121.761 24.6934C119.407 24.6934 117.614 22.6934 117.614 20.0001C117.614 17.2668 119.407 15.3068 121.761 15.3068C124.089 15.3068 125.909 17.3068 125.909 20.0268C125.922 22.7334 124.089 24.6934 121.761 24.6934Z" fill="black"/>
<path d="M104.838 12.2534C100.543 12.2534 97.0383 15.5068 97.0383 20.0001C97.0383 24.4534 100.543 27.7468 104.838 27.7468C109.132 27.7468 112.637 24.4668 112.637 20.0001C112.637 15.5068 109.132 12.2534 104.838 12.2534ZM104.838 24.6934C102.483 24.6934 100.45 22.7601 100.45 20.0001C100.45 17.2134 102.483 15.3068 104.838 15.3068C107.192 15.3068 109.226 17.2134 109.226 20.0001C109.226 22.7601 107.192 24.6934 104.838 24.6934Z" fill="black"/>
<path d="M131.595 4.32007H134.953V27.7467H131.595V4.32007Z" fill="black"/>
<path d="M145.321 24.6934C143.582 24.6934 142.351 23.9068 141.548 22.3468L151.943 18.0668L151.595 17.1868C150.953 15.4534 148.973 12.2534 144.946 12.2534C140.946 12.2534 137.615 15.3868 137.615 20.0001C137.615 24.3468 140.906 27.7468 145.321 27.7468C148.879 27.7468 150.94 25.5734 151.796 24.3201L149.147 22.5601C148.264 23.8401 147.06 24.6934 145.321 24.6934ZM145.08 15.1601C146.458 15.1601 147.635 15.8668 148.023 16.8668L141 19.7601C141 16.5068 143.314 15.1601 145.08 15.1601Z" fill="black"/>
<rect y="28.9709" width="18.1908" height="4.09089" transform="rotate(-45 0 28.9709)" fill="#5185EC"/>
<rect x="36.7755" y="13.5283" width="15.0712" height="4.09089" transform="rotate(135 36.7755 13.5283)" fill="#F1BD41"/>
<path d="M41.0846 6.91533L41.5819 18.3958L29.6042 6.41806L41.0846 6.91533Z" fill="#58A55C"/>
<rect x="15.4818" y="13.4841" width="15.0771" height="4.09089" transform="rotate(45 15.4818 13.4841)" fill="#D7503F"/>
</svg>
