<svg width="1439" height="374" viewBox="0 0 1439 374" fill="none" xmlns="http://www.w3.org/2000/svg">
<g clip-path="url(#clip0)">
<line x1="680.494" y1="0.0760286" x2="618.494" y2="403.076" stroke="#2C6BC9" stroke-opacity="0.2"/>
<line x1="719.5" x2="719.5" y2="418" stroke="#2C6BC9" stroke-opacity="0.2"/>
<line y1="-0.5" x2="407.741" y2="-0.5" transform="matrix(0.152057 0.988372 0.988372 -0.152057 766 0)" stroke="#2C6BC9" stroke-opacity="0.2"/>
<line x1="639.478" y1="0.145959" x2="516.478" y2="403.146" stroke="#2C6BC9" stroke-opacity="0.2"/>
<line y1="-0.5" x2="421.353" y2="-0.5" transform="matrix(0.291917 0.956444 0.956444 -0.291917 807 0)" stroke="#2C6BC9" stroke-opacity="0.2"/>
<line x1="401.333" y1="0.372837" x2="-49.1111" y2="402.876" stroke="#2C6BC9" stroke-opacity="0.2"/>
<line x1="325.731" y1="0.409553" x2="-249.713" y2="403.41" stroke="#2C6BC9" stroke-opacity="0.2"/>
<line x1="242.684" y1="0.438728" x2="-470.76" y2="390.439" stroke="#2C6BC9" stroke-opacity="0.2"/>
<line x1="155.635" y1="0.462293" x2="-861.375" y2="419.519" stroke="#2C6BC9" stroke-opacity="0.2"/>
<line y1="-0.5" x2="702.528" y2="-0.5" transform="matrix(0.819106 0.573643 0.573643 -0.819106 1106 0)" stroke="#2C6BC9" stroke-opacity="0.2"/>
<line y1="-0.5" x2="813.082" y2="-0.5" transform="matrix(0.877456 0.479656 0.479656 -0.877456 1189 0)" stroke="#2C6BC9" stroke-opacity="0.2"/>
<line y1="-0.5" x2="1099.96" y2="-0.5" transform="matrix(0.924586 0.380974 0.380974 -0.924586 1276 0)" stroke="#2C6BC9" stroke-opacity="0.2"/>
<line y1="-0.5" x2="604.077" y2="-0.5" transform="matrix(0.745674 0.666311 0.666311 -0.745674 1045 0)" stroke="#2C6BC9" stroke-opacity="0.2"/>
<line x1="590.453" y1="0.212303" x2="401.453" y2="403.212" stroke="#2C6BC9" stroke-opacity="0.2"/>
<line y1="-0.5" x2="445.118" y2="-0.5" transform="matrix(0.424607 0.905378 0.905378 -0.424607 856 0)" stroke="#2C6BC9" stroke-opacity="0.2"/>
<line x1="532.419" y1="0.272531" x2="270.419" y2="403.273" stroke="#2C6BC9" stroke-opacity="0.2"/>
<line y1="-0.5" x2="480.68" y2="-0.5" transform="matrix(0.545061 0.838396 0.838396 -0.545061 914 0)" stroke="#2C6BC9" stroke-opacity="0.2"/>
<line x1="468.381" y1="0.323522" x2="126.381" y2="403.324" stroke="#2C6BC9" stroke-opacity="0.2"/>
<line y1="-0.5" x2="528.557" y2="-0.5" transform="matrix(0.647044 0.762453 0.762453 -0.647044 978 0)" stroke="#2C6BC9" stroke-opacity="0.2"/>
<line x1="-1" y1="287.5" x2="1439" y2="287.5" stroke="#2C6BC9" stroke-opacity="0.2"/>
<line x1="-1" y1="208.5" x2="1439" y2="208.5" stroke="#2C6BC9" stroke-opacity="0.2"/>
<line x1="-1" y1="144.5" x2="1439" y2="144.5" stroke="#2C6BC9" stroke-opacity="0.2"/>
<line x1="-1" y1="95.5" x2="1439" y2="95.5" stroke="#2C6BC9" stroke-opacity="0.2"/>
<line x1="-1" y1="55.5" x2="1439" y2="55.5" stroke="#2C6BC9" stroke-opacity="0.2"/>
<line x1="-1" y1="21.5" x2="1439" y2="21.5" stroke="#2C6BC9" stroke-opacity="0.2"/>
<line x1="-1" y1="0.5" x2="1439" y2="0.5" stroke="#2C6BC9" stroke-opacity="0.2"/>
</g>
<defs>
<clipPath id="clip0">
<rect width="1440" height="374" fill="white" transform="translate(-1)"/>
</clipPath>
</defs>
</svg>
