<svg width="30" height="30" viewBox="0 0 30 30" fill="none" xmlns="http://www.w3.org/2000/svg">
<path d="M14.5767 17.4576C16.1782 17.4576 17.4838 16.1516 17.4838 14.5457C17.4838 13.9118 17.2768 13.3264 16.9342 12.8484C16.4062 12.1148 15.5479 11.6338 14.5785 11.6338C13.6085 11.6338 12.7508 12.1142 12.2216 12.8478C11.8778 13.3259 11.6726 13.9112 11.672 14.5451C11.6703 16.151 12.9747 17.4576 14.5767 17.4576Z" fill="white"/>
<path d="M20.9224 10.9833V8.54245V8.1792L20.5581 8.18037L18.1235 8.18799L18.1328 10.9927L20.9224 10.9833Z" fill="white"/>
<path fill-rule="evenodd" clip-rule="evenodd" d="M0.0618591 14.5455C0.0618591 6.52512 6.57353 0 14.5773 0C22.5817 0 29.0928 6.52512 29.0928 14.5455C29.0928 22.5652 22.5805 29.0909 14.5773 29.0909C6.57353 29.0909 0.0618591 22.5652 0.0618591 14.5455ZM22.8325 19.6211V12.8481V9.47101C22.8325 7.70746 21.4012 6.27377 19.6413 6.27377H9.51276C7.75284 6.27377 6.32211 7.70746 6.32211 9.47101V12.8481V19.6211C6.32211 21.3852 7.75284 22.8189 9.51276 22.8189H19.6419C21.4012 22.8189 22.8325 21.3852 22.8325 19.6211Z" fill="white"/>
<path d="M19.0929 14.5455C19.0929 17.0396 17.0675 19.0704 14.5773 19.0704C12.0871 19.0704 10.0624 17.0396 10.0624 14.5455C10.0624 13.9455 10.1816 13.3719 10.3945 12.8481H7.93001V19.6211C7.93001 20.4964 8.63923 21.2054 9.51217 21.2054H19.6407C20.5125 21.2054 21.2229 20.4964 21.2229 19.6211V12.8481H18.7573C18.9718 13.3719 19.0929 13.9455 19.0929 14.5455Z" fill="white"/>
</svg>
