<svg width="25" height="58" viewBox="0 0 25 58" fill="none" xmlns="http://www.w3.org/2000/svg">
<g clip-path="url(#clip0)">
<path fill-rule="evenodd" clip-rule="evenodd" d="M19.0337 10.5446L8.10737 6.55115L8.09474 6.54703C7.73695 6.45194 7.69589 6.29347 7.69589 6.17938C7.69589 6.13184 7.73695 6.00031 8.11716 5.80475L19.0337 1.56727L19.0337 -2.3894e-07L7.42526 4.7018C7.26148 4.72937 7.10686 4.7966 6.97479 4.89766C6.84273 4.99872 6.73721 5.13058 6.66737 5.2818C6.49102 5.55391 6.39795 5.87189 6.39963 6.19649C6.40132 6.52108 6.49769 6.83808 6.67684 7.10833C6.85607 7.37297 7.11724 7.57092 7.41989 7.67153L19.0337 12.1182L19.0337 10.5446ZM17.7131 26.7035C18.2512 26.1741 18.6776 25.5413 18.9668 24.843C19.2559 24.1446 19.402 23.3949 19.3962 22.6387C19.3962 20.6547 18.6509 19.0779 17.1825 17.9524C15.9876 16.9898 14.5015 16.4644 12.9693 16.4628L0.499999 16.4628L0.499999 18.05L8.40358 18.05C7.63727 18.5168 7.00977 19.1814 6.58653 19.9745L6.58021 19.9872C6.20914 20.7897 6.02553 21.6667 6.04337 22.5512C6.04337 24.5086 6.75642 26.0838 8.16737 27.2356C9.5304 28.2441 11.1893 28.7682 12.8821 28.7252C13.7848 28.756 14.6835 28.5913 15.5171 28.2424C16.3507 27.8935 17.0997 27.3688 17.7131 26.7035ZM12.7157 18.051C14.1999 18.051 15.3727 18.4671 16.3015 19.3226C16.771 19.7329 17.1425 20.2441 17.3885 20.8181C17.6345 21.3921 17.7487 22.0144 17.7225 22.6387C17.7488 23.248 17.6354 23.8551 17.3909 24.4134C17.1464 24.9717 16.7775 25.4662 16.3125 25.8588L16.3018 25.8683C15.3727 26.7241 14.1996 27.1392 12.7157 27.1392C11.3683 27.1551 10.0621 26.6729 9.04621 25.7843C8.38937 25.1749 7.87368 23.6513 7.62958 22.5198C7.6329 21.5658 7.93762 20.6373 8.49989 19.868C9.07879 19.1437 9.84764 18.596 10.7199 18.2865L11.3777 18.0497L12.7154 18.0497L12.7157 18.051ZM19.2873 42.6519L11.0973 42.6519C10.6443 42.6625 10.1947 42.571 9.78158 42.384C9.36851 42.1971 9.0025 41.9195 8.71053 41.5717C8.0842 40.8587 7.75081 39.9338 7.77768 38.9836C7.73251 38.1115 8.00579 37.2528 8.54631 36.5685L8.55484 36.559C9.12958 35.8402 9.93484 35.4909 11.018 35.4909L19.2873 35.4909L19.2873 33.9008L10.6769 33.9008C10.0336 33.8936 9.39745 34.0367 8.8187 34.3187C8.23994 34.6007 7.73446 35.014 7.34221 35.5258C6.57556 36.5552 6.16829 37.8094 6.18341 39.0945C6.19854 40.3796 6.63522 41.6238 7.42589 42.6348C7.83961 43.1419 8.36141 43.5494 8.95285 43.8274C9.5443 44.1053 10.1903 44.2465 10.8434 44.2407L19.2876 44.2407L19.2876 42.6506L19.2873 42.6519ZM9.21768 56.8222L8.936 56.5972C8.54907 56.2788 8.2582 55.8584 8.096 55.3833L8.08021 55.3453C7.86946 54.9142 7.76547 54.4384 7.77705 53.9584C7.77092 53.2282 8.01635 52.5184 8.47179 51.949C8.66534 51.6814 8.92263 51.4668 9.22013 51.3247C9.51764 51.1826 9.84587 51.1177 10.1748 51.1357L17.5296 51.1357L17.5296 55.7649L19.0368 55.7649L19.0368 51.1357L24.5 51.1357L24.5 49.5466L10.0959 49.5466C9.54883 49.5355 9.00588 49.6436 8.50436 49.8632C8.00284 50.0828 7.55466 50.4088 7.19063 50.8188L7.18052 50.8308C6.46127 51.7106 6.0813 52.8207 6.11 53.9584C6.12848 54.6362 6.27934 55.3039 6.554 55.9234C6.83587 56.5654 7.1833 57.1764 7.59073 57.7464L7.76979 58L9.21768 56.8222Z" fill="#333333"/>
</g>
<defs>
<clipPath id="clip0">
<rect width="58" height="24" fill="white" transform="translate(24.5) rotate(90)"/>
</clipPath>
</defs>
</svg>
