<svg width="27" height="85" viewBox="0 0 27 85" fill="none" xmlns="http://www.w3.org/2000/svg">
<g clip-path="url(#clip0)">
<path d="M17.7146 35.5196C18.1097 36.0261 18.7353 36.2793 19.5585 36.2793C20.0195 36.2793 20.3817 36.1527 20.7109 35.9311C21.0073 35.7095 21.2378 35.3929 21.3366 34.9814C21.4683 35.3613 21.6988 35.6462 21.9951 35.8361C22.2914 36.0261 22.6536 36.1211 23.0817 36.1211C23.839 36.1211 24.3988 35.8361 24.7939 35.298C25.189 34.7598 25.3866 33.9684 25.3866 32.9553L25.3866 30.0745L17.0561 30.0745L17.0561 33.3352C17.089 34.2533 17.2866 35.013 17.7146 35.5196ZM23.8719 31.9739L23.8719 32.9237C23.8719 33.3669 23.8061 33.6834 23.6414 33.8734C23.4768 34.0633 23.2463 34.1583 22.8841 34.1583C22.5878 34.1583 22.3573 34.0633 22.1927 33.8734C22.028 33.6834 21.9622 33.3985 21.9622 32.9553L21.9622 31.9739L23.8719 31.9739ZM18.6366 31.9739L20.6451 31.9739L20.6451 33.3352C20.6451 34 20.2829 34.3482 19.5914 34.3482C19.2951 34.3482 19.0646 34.2533 18.9 34.0633C18.7353 33.8734 18.6366 33.6201 18.6366 33.2719L18.6366 31.9739ZM16.9573 39.8883C16.9573 40.7747 17.2536 41.4712 17.8134 41.9777C18.3731 42.4842 19.1305 42.7374 20.1183 42.7374L20.1841 42.7374C21.1719 42.7374 21.9622 42.4842 22.5219 41.9777C23.0817 41.4712 23.378 40.743 23.378 39.8566C23.378 39.2868 23.2463 38.7486 22.9829 38.3371C22.7195 37.8939 22.3573 37.5773 21.8634 37.324C21.3489 37.0903 20.7861 36.9713 20.217 36.9758L19.8878 36.9758C18.9988 37.0075 18.2744 37.2924 17.7475 37.7989C17.2207 38.3371 16.9573 39.0335 16.9573 39.8883ZM20.4475 38.8752C21.4024 38.9386 21.8963 39.2551 21.8963 39.8883C21.8963 40.5847 21.3366 40.9013 20.217 40.9013L20.0195 40.9013C18.9658 40.9013 18.439 40.5531 18.439 39.8883C18.439 39.5401 18.5707 39.2868 18.8341 39.1285C19.0975 38.9702 19.5256 38.8752 20.0853 38.8752L20.4475 38.8752ZM25.8475 45.5233L25.8475 43.6555L17.0561 43.6555L17.0561 45.5233L25.8475 45.5233ZM16.9573 48.9106C16.9573 49.4488 17.1548 49.892 17.5829 50.2719L17.3853 50.2719C16.4963 50.2719 16.0683 49.8603 16.0683 49.0373C16.0683 48.4674 16.2658 48.0242 16.6939 47.676L15.5744 46.8846C15.3109 47.1062 15.0805 47.4227 14.9158 47.8343C14.7512 48.2458 14.6524 48.6574 14.6524 49.1006C14.6524 49.7021 14.7512 50.2402 14.9817 50.7151C15.2122 51.19 15.5085 51.5382 15.9036 51.7915C16.2988 52.0447 16.7927 52.1713 17.3195 52.1713L23.2792 52.1713L23.2792 50.4935L22.7524 50.4302C23.1805 50.0819 23.4109 49.6071 23.4109 48.9739C23.4109 48.4674 23.2792 48.0559 23.0158 47.676C22.7524 47.2961 22.3902 47.0112 21.8963 46.8212C21.4024 46.6313 20.8756 46.5363 20.25 46.5363L20.1841 46.5363C19.2292 46.5363 18.439 46.7579 17.8792 47.2011C17.2536 47.581 16.9573 48.1825 16.9573 48.9106ZM21.4353 48.5941C21.7317 48.784 21.8963 49.0373 21.8963 49.3855C21.8963 49.797 21.7646 50.0819 21.4683 50.2402L18.867 50.2402C18.6036 50.0503 18.439 49.7654 18.439 49.3538C18.439 49.0373 18.5707 48.7523 18.867 48.5941C19.1634 48.4041 19.5585 48.3091 20.0853 48.3091C20.678 48.3408 21.139 48.4041 21.4353 48.5941ZM17.1878 58.4078C17.4841 58.2495 17.9122 58.1546 18.5048 58.1546L21.2378 58.1546C21.8963 58.1546 22.4231 57.933 22.8183 57.4898C23.2134 57.0466 23.4109 56.4451 23.4109 55.6853C23.4109 54.9255 23.2134 54.2924 22.8512 53.8175C22.489 53.311 21.9951 53.0894 21.4024 53.0894L21.4024 54.9572C21.8634 54.9572 22.0939 55.1788 22.0939 55.622C22.0939 56.0968 21.7975 56.3184 21.2378 56.3184L20.9085 56.3184L20.9085 55.717C20.9085 54.7989 20.7439 54.1024 20.3817 53.6276C20.0524 53.1527 19.5256 52.8995 18.867 52.8995C18.3402 52.8995 17.8792 53.0894 17.55 53.5009C17.1878 53.8808 17.0231 54.3874 17.0231 54.9255C17.0231 55.527 17.2536 56.0019 17.6817 56.3501C17.4512 56.4134 17.2536 56.4451 17.1219 56.5401L17.1219 58.4078L17.1878 58.4078ZM18.8341 56.2868C18.7024 56.2235 18.6036 56.0968 18.4719 55.9702C18.3731 55.8119 18.3073 55.622 18.3073 55.4004C18.3073 55.2104 18.3731 55.0838 18.4719 54.9572C18.5707 54.8306 18.7353 54.7989 18.9 54.7989C19.4927 54.7989 19.789 55.1155 19.789 55.7803L19.789 56.3184L18.8341 56.3184L18.8341 56.2868ZM21.0073 61.0354C21.4024 61.1937 21.567 61.5736 21.567 62.1751L21.5341 62.7766L23.3122 62.8082C23.3451 62.6499 23.378 62.4916 23.378 62.3017C23.378 61.7319 23.0817 61.3203 22.4561 61.0037L23.2463 60.9404L23.2463 59.1993L17.0561 59.1993L17.0561 61.0671L21.0073 61.0671L21.0073 61.0354ZM18.4061 66.3855C18.3073 66.2589 18.2414 66.0689 18.2414 65.8157C18.2414 65.5307 18.3073 65.3091 18.439 65.1508C18.5707 64.9609 18.7683 64.8976 19.0646 64.8659L19.0646 63.1248C18.7024 63.1248 18.3731 63.2514 18.0439 63.473C17.7146 63.6946 17.4512 64.0112 17.2536 64.4227C17.0561 64.8343 16.9573 65.2775 16.9573 65.784C16.9573 66.5438 17.1219 67.1769 17.4841 67.6518C17.8463 68.1266 18.3073 68.3799 18.867 68.3799C19.6902 68.3799 20.2829 67.9367 20.5792 67.0186C20.678 66.7654 20.7439 66.4488 20.8097 66.0689C20.8756 65.7207 20.9744 65.4674 21.0731 65.3091C21.1719 65.1508 21.3036 65.0559 21.5012 65.0559C21.6658 65.0559 21.7975 65.1192 21.9292 65.2458C22.028 65.3725 22.0939 65.5307 22.0939 65.7523C22.0939 66.2589 21.8305 66.5121 21.3366 66.5121L21.3366 68.3799C21.9292 68.3799 22.4231 68.1266 22.7853 67.6518C23.1475 67.1769 23.3451 66.5438 23.3451 65.7523C23.3451 65.0242 23.1475 64.4227 22.7853 63.9795C22.4231 63.5363 21.9622 63.3147 21.3695 63.3147C21.0402 63.3147 20.7768 63.378 20.5134 63.5363C20.25 63.6946 20.0524 63.9162 19.8878 64.2328C19.7231 64.5494 19.5585 64.9292 19.4597 65.3725C19.3609 65.8473 19.2622 66.1639 19.1634 66.3222C19.0646 66.4805 18.9329 66.5754 18.7683 66.5754C18.6366 66.5754 18.5048 66.5121 18.4061 66.3855ZM23.2792 74.933L23.2792 72.717L21.4683 71.324L21.2048 71.1341L25.8475 71.1341L25.8475 69.2663L17.0561 69.2663L17.0561 71.1341L18.8012 71.1341L19.328 71.6723L17.0231 72.9702L17.0231 75.0913L20.678 72.8752L23.2792 74.933ZM25.8146 76.4209C25.8146 76.1043 25.7158 75.8827 25.5512 75.6611C25.3866 75.4712 25.1561 75.3762 24.8597 75.3762C24.5963 75.3762 24.3658 75.4712 24.1683 75.6611C24.0036 75.851 23.9048 76.1043 23.9048 76.4209C23.9048 76.7374 24.0036 76.959 24.1683 77.1806C24.3329 77.3706 24.5634 77.4656 24.8597 77.4656C25.1231 77.4656 25.3536 77.3706 25.5512 77.1806C25.7158 76.9907 25.8146 76.7374 25.8146 76.4209ZM17.089 75.5028L17.089 77.3706L23.2792 77.3706L23.2792 75.5028L17.089 75.5028ZM23.2792 81.8976L19.789 80.9162L23.2792 79.9665L23.2792 77.9721L17.0231 80.0615L16.5951 79.9032C16.3975 79.8399 16.2658 79.7449 16.167 79.5866C16.1012 79.46 16.0353 79.2384 16.0353 78.9851L16.0353 78.7319L14.6524 78.7319C14.5892 78.9806 14.556 79.2356 14.5536 79.4916C14.5536 80.378 14.9487 80.9795 15.739 81.3278L16.0024 81.4227L23.2134 83.8603L23.2134 81.8976L23.2792 81.8976ZM10.8658 34.5382C11.1951 33.9684 11.3597 33.3352 11.3597 32.6387L11.3597 30.0428L3.02924 30.0428L3.02924 32.6704C3.02924 33.3669 3.19387 34 3.55607 34.5698C3.88534 35.1397 4.37924 35.5829 4.97192 35.8678C5.56461 36.1844 6.25607 36.3427 7.01339 36.3427L7.40851 36.3427C8.16582 36.3427 8.85729 36.1844 9.44997 35.8678C10.0427 35.5512 10.5366 35.108 10.8658 34.5382ZM7.01339 34.3799C6.19022 34.3799 5.59753 34.2216 5.20241 33.9367C4.80729 33.6518 4.5768 33.2086 4.5768 32.6704L4.5768 31.9739L9.81217 31.9739L9.81217 32.6387C9.81217 33.2086 9.61461 33.6518 9.18656 33.9367C8.79143 34.2216 8.16582 34.3799 7.37558 34.3799L7.01339 34.3799ZM10.9646 42.4525C11.2939 41.9144 11.4585 41.3129 11.4585 40.6481C11.4585 39.9516 11.2939 39.3501 10.9646 38.8119C10.6353 38.2738 10.1414 37.8622 9.51583 37.5773C8.89022 37.2924 8.16582 37.1341 7.34265 37.1341L6.88168 37.1341C6.09143 37.1341 5.39997 37.2924 4.80729 37.609C4.2146 37.9255 3.7207 38.3054 3.42436 38.8436C3.09509 39.3818 2.93046 39.9833 2.93046 40.6481C2.93046 41.3445 3.09509 41.946 3.42436 42.4842C3.75363 43.0224 4.24753 43.4339 4.87314 43.7188C5.49875 44.0037 6.22314 44.162 7.01339 44.162L7.40851 44.162C8.19875 44.162 8.92314 44.0037 9.54875 43.7188C10.1414 43.4022 10.6353 42.959 10.9646 42.4525ZM6.98046 42.1676C6.15729 42.1676 5.5646 42.041 5.13655 41.7561C4.70851 41.5028 4.47802 41.1229 4.47802 40.6164C4.47802 40.1099 4.70851 39.6983 5.13655 39.4451C5.5646 39.1918 6.19022 39.0652 7.01339 39.0652L7.639 39.0652C9.15363 39.1285 9.91095 39.635 9.91095 40.6164C9.91095 41.1229 9.68046 41.5028 9.25241 41.7561C8.82436 42.0093 8.19875 42.1676 7.37558 42.1676L6.98046 42.1676ZM5.56461 49.4805L11.3597 47.676L11.3597 45.1434L3.02924 45.1434L3.02924 47.0745L4.97192 47.0745L8.95607 46.8846L3.02924 48.8473L3.02924 50.1136L8.95607 52.0447L4.97192 51.8548L3.02924 51.8548L3.02924 53.7859L11.3597 53.7859L11.3597 51.2216L5.56461 49.4805ZM8.03412 62.3967C8.03412 62.1434 7.83655 61.9851 7.44143 61.9851L7.30973 61.9851C7.07924 61.9851 6.88168 62.0168 6.7829 62.0801C6.68411 62.1434 6.61826 62.27 6.61826 62.3967C6.61826 62.6816 6.84875 62.8082 7.2768 62.8082L7.34265 62.8082C7.80363 62.8399 8.03412 62.6816 8.03412 62.3967ZM13.9609 63.2514C13.9609 59.7691 11.0305 56.9516 7.44143 56.9516C3.85241 56.9516 0.921922 59.7691 0.921922 63.2514C0.921922 66.7337 3.85241 69.5512 7.44143 69.5512C11.0634 69.5196 13.9609 66.7021 13.9609 63.2514ZM6.74997 59.5158C6.65119 59.5792 6.58534 59.6741 6.58534 59.8008C6.58534 59.8957 6.61826 59.9907 6.68412 60.054C6.74997 60.1173 6.81582 60.149 6.94753 60.149L6.94753 60.8771C6.65119 60.8771 6.4207 60.7821 6.25607 60.5922C6.05851 60.4022 5.99265 60.149 5.99265 59.8324C5.99265 59.4525 6.12436 59.1676 6.35485 58.9777C6.58534 58.7561 6.9146 58.6611 7.34265 58.6611L7.37558 58.6611C7.63899 58.6611 7.86948 58.6927 8.06704 58.7877C8.2646 58.8827 8.42924 59.0093 8.52802 59.1993C8.6268 59.3892 8.69265 59.5792 8.69265 59.8324C8.69265 60.149 8.59387 60.4339 8.39631 60.6238C8.19875 60.8138 7.96826 60.9088 7.639 60.9088L7.639 60.149C7.7707 60.149 7.86948 60.1173 7.93533 60.054C8.00119 59.9907 8.03412 59.8957 8.03412 59.8008C8.03412 59.6108 7.90241 59.4842 7.639 59.4525C7.54021 59.4525 7.44143 59.4209 7.2768 59.4209C7.01338 59.4209 6.84875 59.4525 6.74997 59.5158ZM7.2768 63.5996C6.88168 63.5996 6.55241 63.5047 6.32192 63.2831C6.09143 63.0615 5.95973 62.7766 5.95973 62.3967C5.95973 62.0484 6.05851 61.7635 6.28899 61.5419C6.40481 61.4289 6.54337 61.3397 6.69622 61.2798C6.84907 61.2199 7.013 61.1906 7.17802 61.1937L7.30973 61.1937C7.54994 61.1936 7.78681 61.2478 8.00119 61.352C8.19875 61.4469 8.36338 61.5736 8.46217 61.7635C8.56095 61.9535 8.6268 62.1751 8.6268 62.3967C8.6268 62.7766 8.49509 63.0615 8.2646 63.2831C8.06704 63.5047 7.73777 63.5996 7.2768 63.5996ZM6.02558 67.6518L6.02558 66.8603L7.67192 66.8603C7.80363 66.8603 7.90241 66.8287 7.96826 66.797C8.03412 66.7654 8.06704 66.6704 8.06704 66.5754C8.06704 66.4171 8.00119 66.2905 7.86948 66.2272L6.05851 66.2272L6.05851 65.4358L7.70485 65.4358C7.83656 65.4358 7.93534 65.4041 8.00119 65.3725C8.06704 65.3408 8.09997 65.2458 8.09997 65.1192C8.09997 64.9609 8.03412 64.8659 7.90241 64.771L6.09143 64.771L6.09143 63.9795L8.69265 63.9795L8.69265 64.7076L8.39631 64.7393C8.6268 64.9292 8.75851 65.1508 8.75851 65.4674C8.75851 65.784 8.6268 66.0056 8.36339 66.1006C8.6268 66.2589 8.75851 66.5121 8.75851 66.8287C8.75851 67.3352 8.42924 67.5885 7.80363 67.6201L6.02558 67.6201L6.02558 67.6518ZM15.278 4.08381L2.89753 4.08381L2.89753 21.7803L15.278 21.7803L21.2378 12.9479L15.278 4.08381ZM17.3195 1.13968L15.739 2.62757L22.917 13.0745L15.7719 23.2682L17.3195 24.7877L25.5512 13.1062L17.3195 1.13968Z" fill="#333333"/>
</g>
<defs>
<clipPath id="clip0">
<rect width="85" height="27" fill="white" transform="translate(27) rotate(90)"/>
</clipPath>
</defs>
</svg>
