<svg width="21" height="95" viewBox="0 0 21 95" fill="none" xmlns="http://www.w3.org/2000/svg">
<g clip-path="url(#clip0)">
<path fill-rule="evenodd" clip-rule="evenodd" d="M7.37805 42.5064C7.20146 43.7463 7.10341 44.9959 7.08537 46.2479C7.06954 46.8755 7.11036 47.5033 7.20732 48.1236C7.28864 48.6342 7.45343 49.1279 7.69512 49.5851C8.13756 50.4879 8.99122 50.9395 10.2561 50.9395L10.9634 50.9395C11.343 50.9695 11.7245 50.9117 12.0781 50.7706C12.4317 50.6295 12.748 50.4089 13.0024 50.1259C13.4512 49.5803 13.6707 48.7082 13.6707 47.5049L13.6707 46.2333C13.6707 45.2916 13.9488 44.8205 14.5049 44.8205L15.2512 44.8205C15.4069 44.8188 15.5593 44.8645 15.6883 44.9516C15.8173 45.0386 15.9167 45.1628 15.9732 45.3077C16.1508 45.871 16.222 46.4625 16.1829 47.0518C16.1829 47.6705 16.0854 48.7959 15.8902 50.4377L17.7927 50.4377C17.9293 49.0785 18.0024 48.0018 18.0024 47.1297C18.0024 45.4587 17.7829 44.2408 17.3488 43.4662C17.1547 43.0994 16.8596 42.7958 16.4983 42.5912C16.1369 42.3866 15.7245 42.2895 15.3098 42.3115L14.5293 42.3115C12.682 42.3149 11.7585 43.4759 11.7585 45.7949L11.7585 47.0128C11.7997 47.3935 11.7009 47.7762 11.4805 48.0895C11.3774 48.1956 11.2525 48.278 11.1143 48.331C10.9762 48.384 10.8281 48.4063 10.6805 48.3964L9.99756 48.3964C9.27073 48.3964 8.90488 47.6949 8.90488 46.2821C8.96698 45.0159 9.10873 43.7548 9.32927 42.5064L7.37805 42.5064ZM17.8317 4.4918L17.8317 -7.46292e-09L7.23659 -4.7059e-07L7.23659 4.46744C7.21073 5.46615 7.29903 6.46487 7.5 7.4441C7.61717 8.0532 7.94529 8.60166 8.42683 8.99333C8.98753 9.34534 9.64353 9.51551 10.3049 9.48051L14.6073 9.48051C15.2928 9.52633 15.9753 9.35591 16.5585 8.99333C17.0619 8.60026 17.4079 8.04041 17.5341 7.41487C17.7568 6.45702 17.8568 5.47481 17.8317 4.4918ZM9.13415 5.94846C9.06923 5.42982 9.04151 4.9072 9.05122 4.38462L9.0561 2.51872L16.0024 2.51872L16.0024 4.46744C16.042 5.11295 15.9353 5.75905 15.6902 6.35769C15.598 6.55214 15.4488 6.71403 15.2624 6.82191C15.076 6.92978 14.8611 6.97857 14.6463 6.96179L10.3098 6.96179C10.0162 6.98757 9.72416 6.89848 9.49512 6.71333C9.29063 6.5072 9.1632 6.23719 9.13415 5.94846ZM17.8317 27.4185L17.8317 24.8462L7.24634 24.8462L7.24634 27.1067L14.5634 27.1067L7.24634 32.222L7.24634 34.7944L17.8317 34.7944L17.8317 32.529L10.6073 32.529L17.8317 27.4185ZM12.822 36.0513L12.822 41.0692L10.9976 41.0692L10.9976 36.0513L12.822 36.0513ZM16.022 55.1487L16.022 51.8895L17.8317 51.8895L17.8317 60.9267L16.022 60.9267L16.022 57.6869L7.24146 57.6869L7.24146 55.1487L16.022 55.1487ZM17.8317 67.1431L17.8317 62.3882L7.25122 62.3785L7.25122 64.9215L11.4122 64.9215L11.4122 66.0908L7.25122 68.8579L7.25122 71.781L11.6073 68.7215C11.6676 69.3512 11.8987 69.9525 12.2756 70.4608C12.4494 70.6796 12.6726 70.8541 12.927 70.9702C13.1814 71.0862 13.4596 71.1403 13.739 71.1282L15.5976 71.1282C15.9423 71.1577 16.2881 71.0857 16.5923 70.9212C16.8966 70.7568 17.146 70.5069 17.3098 70.2026C17.6576 69.5756 17.8317 68.5559 17.8317 67.1431ZM13.3146 68.3318C13.1274 67.9529 13.0481 67.5299 13.0854 67.109L13.0951 64.9313L16.022 64.9313L16.022 67.109C16.0554 67.5187 15.9761 67.9297 15.7927 68.2977C15.7045 68.4245 15.5835 68.525 15.4426 68.5885C15.3017 68.652 15.1462 68.6761 14.9927 68.6582L14.2415 68.6582C14.0722 68.68 13.9001 68.6618 13.7392 68.6051C13.5782 68.5484 13.4328 68.4548 13.3146 68.3318ZM7.08536 78.0364C7.08323 77.492 7.12072 76.9482 7.19756 76.4092C7.28333 75.8886 7.41556 75.3766 7.59268 74.8795C7.75881 74.3417 8.08772 73.8686 8.53415 73.5251C9.0053 73.1923 9.57193 73.0214 10.1488 73.0379L14.7829 73.0379C15.2538 73.0262 15.7197 73.1351 16.1365 73.3543C16.5532 73.5735 16.9067 73.8956 17.1634 74.29C17.3909 74.6721 17.5648 75.0835 17.6805 75.5128C17.8138 75.9476 17.9021 76.3949 17.9439 76.8477C17.978 77.2277 17.9927 77.6272 17.9927 78.051C17.9968 78.4855 17.9756 78.9198 17.9293 79.3518C17.8854 79.7698 17.8088 80.1834 17.7 80.5892C17.5756 81.0326 17.3883 81.4559 17.1439 81.8462C16.9118 82.1973 16.599 82.4879 16.2317 82.6938C15.7863 82.9457 15.28 83.0704 14.7683 83.0544L10.1341 83.0544C9.58876 83.0617 9.05595 82.8906 8.61707 82.5672C8.17654 82.2455 7.83789 81.8041 7.64146 81.2956C7.25085 80.2543 7.06213 79.1482 7.08536 78.0364ZM8.89512 78.0705C8.89512 78.4262 8.89512 78.7233 8.92927 78.9621C8.96039 79.2228 9.01426 79.4804 9.09024 79.7318C9.14408 79.9678 9.27999 80.1772 9.47381 80.3226C9.66762 80.468 9.90679 80.54 10.1488 80.5259L14.7976 80.5259C15.0136 80.5419 15.2295 80.4936 15.418 80.3869C15.6064 80.2802 15.7589 80.12 15.8561 79.9267C16.1112 79.3358 16.2231 78.6932 16.1829 78.051C16.2224 77.4119 16.1156 76.7721 15.8707 76.1803C15.7729 75.9839 15.6183 75.8214 15.427 75.7137C15.2357 75.606 15.0164 75.5581 14.7976 75.5762L10.1488 75.5762C9.90355 75.5694 9.66311 75.6448 9.46585 75.7905C9.27855 75.9521 9.14711 76.1686 9.09024 76.4092C9.01512 76.6528 8.96146 76.9023 8.92927 77.1546C8.90488 77.4079 8.89512 77.71 8.89512 78.0705ZM17.8268 84.1018L11.4854 87.931L7.24634 87.931L7.24634 90.4692L11.5195 90.4692L17.8122 94.3521L17.8122 91.429L13.6707 89.2172L17.8268 86.9859L17.8268 84.1018Z" fill="#333333"/>
<path fill-rule="evenodd" clip-rule="evenodd" d="M2.88534 94.8197L3.21705 94.8197L3.47559 93.7821L4.2512 93.7821L4.739 94.3472L5.02681 94.3472L5.02681 93.7821L5.07559 93.7821L5.07559 93.1244L5.48046 93.1244L5.48046 92.3497L5.07559 92.3497L5.07559 87.02C5.0743 86.8141 4.9915 86.6171 4.84527 86.472C4.69904 86.3268 4.50125 86.2454 4.2951 86.2454L1.96339 86.2454C1.75769 86.2454 1.56041 86.327 1.41495 86.4723C1.2695 86.6175 1.18778 86.8146 1.18778 87.02L1.18778 92.3497L0.802416 92.3497L0.802416 93.1244L1.18778 93.1244L1.18778 93.7821L1.28046 93.7821L1.28046 94.3472L1.56827 94.3472L2.05607 93.7821L2.69998 93.7821L2.88534 94.8197ZM3.80242 87.9846L4.2512 87.9846L4.2512 92.8808L3.77803 92.8808L3.77803 88.4182L3.32437 88.4182L3.32437 86.869L3.80242 86.869L3.80242 87.9846ZM2.92437 86.8885L2.92437 88.4377L2.48534 88.4377L2.48534 92.8808L2.01217 92.8808L2.01217 87.9846L2.4512 87.9846L2.4512 86.8885L2.92437 86.8885ZM4.60729 70.3585L1.68047 70.3585L1.68046 85.9482L4.60729 85.9482L4.60729 70.3585ZM1.71461 71.8687L1.71461 71.5667L3.17803 71.5667L3.17803 71.8687L1.71461 71.8687ZM1.71461 72.7895L1.71461 72.4923L3.17803 72.4923L3.17803 72.7895L1.71461 72.7895ZM1.71461 73.7151L1.71461 73.4131L3.17803 73.4131L3.17803 73.7151L1.71461 73.7151ZM1.71461 74.6408L1.71461 74.3387L3.17803 74.3387L3.17803 74.6408L1.71461 74.6408ZM1.71461 75.5615L1.71461 75.2644L3.17803 75.2644L3.17803 75.5615L1.71461 75.5615ZM1.71461 76.4872L1.71461 76.1851L3.17803 76.1851L3.17803 76.4872L1.71461 76.4872ZM1.71461 77.4128L1.71461 77.1108L3.17803 77.1108L3.17803 77.4128L1.71461 77.4128ZM1.71461 78.3385L1.71461 78.0364L3.17803 78.0364L3.17803 78.3385L1.71461 78.3385ZM1.71461 79.2592L1.71461 78.9572L3.17803 78.9572L3.17803 79.2592L1.71461 79.2592ZM1.71461 80.1849L1.71461 79.8974L3.17803 79.8974L3.17803 80.1995L1.71461 80.1849ZM1.71461 81.1105L1.71461 80.8085L3.17803 80.8085L3.17803 81.1105L1.71461 81.1105ZM1.71461 82.0313L1.71461 81.7341L3.17803 81.7341L3.17803 82.0313L1.71461 82.0313ZM1.71461 82.9569L1.71461 82.6549L3.17803 82.6549L3.17803 82.9569L1.71461 82.9569ZM1.71461 83.8826L1.71461 83.5805L3.17803 83.5805L3.17803 83.8826L1.71461 83.8826ZM1.71461 84.8033L1.71461 84.5062L3.17803 84.5062L3.17803 84.8033L1.71461 84.8033ZM4.09998 16.5641L4.09998 -6.0343e-08L2.14876 -1.45634e-07L2.14876 16.5641L4.09998 16.5641ZM2.14876 17.5385L2.14876 69.9979L4.09998 69.9979L4.09998 17.5385L2.14876 17.5385Z" fill="#333333"/>
<path fill-rule="evenodd" clip-rule="evenodd" d="M19.4659 19.6285L20.5 19.6285L20.5 16.3887L19.4659 16.3887L19.4659 15.9892L20.5 15.9892L20.5 14.6397L19.4659 14.6397L19.4659 13.568L18.4317 13.568L18.4317 15.4436L19.4659 15.4436L19.4659 15.8431L18.4317 15.8431L18.4317 20.7003L19.4659 20.7003L19.4659 19.6285ZM4.31951 16.8369L4.31951 15.7505L2.9 15.7505L2.9 16.8369L4.31951 16.8369ZM2.9 17.3241L4.31951 17.3241L4.31951 18.5128L2.9 18.5128L2.9 17.3241ZM2.84634 16.9197L1.3439 16.9197L1.3439 17.2072L2.84634 17.2072L2.84634 17.9721L1.76341 17.9721L0.943901 17.1097L1.76341 16.2962L2.84634 16.2962L2.84634 16.9197ZM17.7537 12.9346L17.7537 14.6251L14.9341 15.9668L14.9341 12.9346L17.7537 12.9346ZM17.7537 17.3124L14.9341 18.6575L14.9341 21.4749L17.7537 21.4749L17.7537 17.3124ZM14.7927 13.4072L14.7927 16.0341L13.5 16.6494L13.5 13.4072L14.7927 13.4072ZM14.7927 18.7252L13.5 19.3415L13.5 23.3456L14.7927 23.3456L14.7927 18.7252ZM13.378 11.6095L13.378 16.7073L12.0659 17.3314L12.0659 13.831L13.3634 13.831L13.3634 13.4315L12.0659 13.4315L12.0659 11.6095L13.378 11.6095ZM13.378 19.3995L12.0659 20.0255L12.0659 22.6587L13.378 22.6587L13.378 19.3995ZM11.9683 14.2841L11.9683 17.3777L10.661 17.9998L10.661 14.2841L11.9683 14.2841ZM11.9683 20.0723L10.661 20.6959L10.661 21.9674L11.9683 21.9674L11.9683 20.0718L11.9683 20.0723ZM10.5488 14.7177L10.5488 18.0534L9.28049 18.657L9.28049 14.7177L10.5488 14.7177ZM10.5488 20.749L9.44634 21.2751L10.5488 21.2751L10.5488 20.749ZM6.67561 19.8964L7.72927 19.3946L7.72927 15.6044L6.44146 15.6044L6.44146 19.8964L6.67561 19.8964ZM7.87561 19.3254L9.13902 18.7243L9.13902 15.1513L7.87561 15.1513L7.87561 19.3254ZM17.7537 12.5351L17.7537 10.2308L14.9341 10.2308L14.9341 12.5351L17.7537 12.5351ZM15.8512 14.479C15.9209 14.4234 15.9739 14.3498 16.0046 14.2663C16.0354 14.1827 16.0426 14.0923 16.0255 14.0049C16.0084 13.9176 15.9676 13.8365 15.9077 13.7707C15.8477 13.7048 15.7708 13.6566 15.6854 13.6313C15.6205 13.6225 15.5545 13.6268 15.4913 13.6439C15.4281 13.6611 15.3691 13.6908 15.3176 13.7313C15.2662 13.7717 15.2234 13.8221 15.1919 13.8794C15.1604 13.9368 15.1407 13.9998 15.1341 14.0649C15.1336 14.1568 15.1608 14.2468 15.2122 14.3231C15.28 14.424 15.3832 14.4959 15.5014 14.5248C15.6197 14.5536 15.7444 14.5373 15.8512 14.479ZM15.4073 14.211C15.3838 14.1743 15.3716 14.1315 15.3721 14.0879C15.3726 14.0443 15.3859 14.0018 15.4102 13.9656C15.4345 13.9294 15.4689 13.9011 15.5091 13.8841C15.5493 13.8671 15.5936 13.8622 15.6366 13.87C15.694 13.8843 15.7443 13.9189 15.778 13.9674C15.7951 13.9914 15.8069 14.0186 15.813 14.0474C15.819 14.0762 15.8191 14.1059 15.8131 14.1347C15.8072 14.1634 15.7953 14.1907 15.7784 14.2147C15.7615 14.2388 15.7398 14.2591 15.7146 14.2744C15.6887 14.289 15.6602 14.2983 15.6307 14.3018C15.6011 14.3053 15.5712 14.3029 15.5426 14.2947C15.514 14.2866 15.4873 14.2728 15.4641 14.2543C15.4409 14.2357 15.4216 14.2127 15.4073 14.1867L15.4073 14.211ZM17.4268 13.5339C17.4016 13.6539 17.3319 13.76 17.2317 13.831C17.1282 13.8904 17.0065 13.9098 16.8896 13.8855C16.7728 13.8613 16.6688 13.7951 16.5976 13.6995C16.5439 13.624 16.5149 13.5338 16.5146 13.4413C16.5101 13.4106 16.5101 13.3794 16.5146 13.3487C16.526 13.2895 16.5492 13.2331 16.5827 13.1829C16.6162 13.1327 16.6594 13.0897 16.7098 13.0564C16.8133 12.9884 16.9389 12.9623 17.061 12.9833C17.1801 13.0124 17.2838 13.0852 17.3516 13.1872C17.4194 13.2892 17.4463 13.413 17.4268 13.5339ZM16.7537 13.3974C16.7459 13.4408 16.7501 13.4854 16.7657 13.5266C16.7813 13.5678 16.8079 13.604 16.8424 13.6313C16.8789 13.6593 16.923 13.6756 16.969 13.6782C17.0149 13.6808 17.0606 13.6696 17.1 13.6459C17.1242 13.6298 17.1449 13.609 17.1608 13.5847C17.1768 13.5605 17.1876 13.5332 17.1927 13.5046L17.1927 13.4413C17.1924 13.3977 17.1788 13.3552 17.1537 13.3195C17.1209 13.2699 17.0702 13.235 17.0122 13.2221C16.9692 13.2134 16.9246 13.2178 16.8842 13.2348C16.8437 13.2517 16.8093 13.2804 16.7854 13.3171C16.7694 13.3414 16.7587 13.3688 16.7537 13.3974ZM17.7537 21.8744L17.7537 24.0374L14.9341 24.0374L14.9341 21.8744L17.7537 21.8744ZM11.9683 13.8797L11.9683 12.3013L10.661 12.3013L10.661 13.8797L11.9683 13.8797ZM10.5488 12.9931L10.5488 14.3182L9.28049 14.3182L9.28049 12.9931L10.5488 12.9931ZM9.13902 14.7518L9.13902 13.68L7.87561 13.68L7.87561 14.7518L9.13902 14.7518ZM7.72927 14.3718L7.72927 15.2049L6.44146 15.2049L6.44146 14.3718L7.72927 14.3718ZM6.31951 15.6628L6.31951 15.0636L4.9 15.0636L4.9 15.6628L6.31951 15.6628ZM6.31951 16.0623L6.31951 19.2046L4.9 19.2046L4.9 16.0623L6.31951 16.0623ZM7.43024 17.8746C7.46837 17.9275 7.49551 17.9874 7.51005 18.0509C7.52459 18.1144 7.52623 18.1801 7.51489 18.2443C7.50354 18.3084 7.47943 18.3696 7.44399 18.4243C7.40855 18.4789 7.36249 18.526 7.30853 18.5625C7.25458 18.5991 7.19383 18.6245 7.12988 18.6373C7.06592 18.65 7.00006 18.6498 6.93619 18.6367C6.87231 18.6235 6.81173 18.5978 6.758 18.5608C6.70428 18.5239 6.65851 18.4766 6.62341 18.4217C6.55505 18.3148 6.53113 18.1855 6.55673 18.0613C6.58234 17.937 6.65544 17.8277 6.76051 17.7564C6.86559 17.6852 6.99434 17.6577 7.1194 17.6797C7.24447 17.7018 7.35598 17.7717 7.43024 17.8746ZM6.90244 18.011C6.87911 18.0299 6.85983 18.0533 6.84573 18.0798C6.83162 18.1063 6.82299 18.1354 6.82034 18.1653C6.81769 18.1951 6.82108 18.2253 6.8303 18.2538C6.83952 18.2824 6.85439 18.3088 6.87402 18.3315C6.89366 18.3542 6.91766 18.3727 6.9446 18.386C6.97154 18.3993 7.00088 18.407 7.03087 18.4088C7.06086 18.4105 7.0909 18.4062 7.1192 18.3961C7.14749 18.386 7.17348 18.3704 7.19561 18.3501C7.24069 18.3113 7.26849 18.2562 7.27288 18.1969C7.27727 18.1376 7.2579 18.079 7.21902 18.0339C7.18015 17.9889 7.12495 17.9611 7.06558 17.9568C7.00621 17.9524 6.94752 17.9717 6.90244 18.0105L6.90244 18.011ZM8.42683 17.8892C8.5562 17.8892 8.68028 17.8379 8.77176 17.7465C8.86324 17.6552 8.91463 17.5313 8.91463 17.4021C8.91463 17.2728 8.86324 17.1489 8.77176 17.0576C8.68028 16.9662 8.5562 16.9149 8.42683 16.9149C8.29745 16.9149 8.17338 16.9662 8.0819 17.0576C7.99042 17.1489 7.93902 17.2728 7.93902 17.4021C7.93902 17.5313 7.99042 17.6552 8.0819 17.7465C8.17338 17.8379 8.29745 17.8892 8.42683 17.8892ZM8.20244 17.4021C8.20244 17.3577 8.2156 17.3144 8.24025 17.2776C8.26491 17.2407 8.29996 17.212 8.34096 17.195C8.38196 17.1781 8.42708 17.1736 8.4706 17.1823C8.51413 17.1909 8.55411 17.2123 8.5855 17.2436C8.61688 17.2749 8.63825 17.3149 8.64691 17.3583C8.65556 17.4018 8.65112 17.4469 8.63414 17.4878C8.61715 17.5288 8.58839 17.5638 8.55149 17.5884C8.51459 17.613 8.47121 17.6262 8.42683 17.6262C8.36771 17.6249 8.31135 17.6009 8.26954 17.5591C8.22772 17.5174 8.20368 17.4611 8.20244 17.4021ZM10.0722 17.2125C10.0088 17.2238 9.94372 17.2225 9.88082 17.2085C9.81793 17.1945 9.75842 17.1683 9.70574 17.1312C9.65307 17.0942 9.60826 17.0471 9.57391 16.9926C9.53957 16.9382 9.51636 16.8775 9.50563 16.814C9.4949 16.7506 9.49687 16.6856 9.51141 16.623C9.52595 16.5603 9.55278 16.5011 9.59036 16.4488C9.62793 16.3965 9.6755 16.3522 9.73033 16.3184C9.78515 16.2846 9.84613 16.262 9.90976 16.2518C10.0368 16.2316 10.1666 16.2623 10.2711 16.3372C10.3756 16.4121 10.4462 16.5251 10.4676 16.6518C10.489 16.7785 10.4595 16.9084 10.3854 17.0134C10.3114 17.1185 10.1988 17.19 10.0722 17.2125ZM9.64341 16.6265C9.63241 16.653 9.62678 16.6815 9.62683 16.7103L9.62683 16.7297C9.63164 16.7849 9.65673 16.8363 9.69727 16.8741C9.7378 16.9119 9.7909 16.9334 9.84634 16.9344C9.90546 16.9331 9.96182 16.9091 10.0036 16.8674C10.0454 16.8256 10.0695 16.7693 10.0707 16.7103C10.0699 16.674 10.0603 16.6385 10.0427 16.6068C10.0251 16.5751 10.0001 16.5482 9.96977 16.5282C9.93946 16.5083 9.90476 16.496 9.86865 16.4924C9.83254 16.4888 9.79609 16.494 9.76244 16.5076C9.73574 16.5186 9.71149 16.5348 9.69106 16.5552C9.67064 16.5756 9.65445 16.5998 9.64341 16.6265ZM11.0873 16.5739C11.1487 16.5934 11.2133 16.6006 11.2774 16.5951C11.3416 16.5896 11.404 16.5715 11.4611 16.5418C11.5182 16.5121 11.5688 16.4713 11.6101 16.422C11.6513 16.3726 11.6824 16.3156 11.7015 16.2542C11.7206 16.1928 11.7273 16.1282 11.7213 16.0642C11.7153 16.0002 11.6966 15.938 11.6664 15.8812C11.6362 15.8244 11.5951 15.7741 11.5453 15.7333C11.4956 15.6925 11.4382 15.6619 11.3766 15.6433C11.253 15.605 11.1193 15.6172 11.0047 15.6773C10.8902 15.7374 10.8043 15.8405 10.7659 15.9639C10.7274 16.0873 10.7397 16.2209 10.7999 16.3353C10.86 16.4497 10.9633 16.5355 11.0868 16.5739L11.0873 16.5739ZM10.8678 16.0867C10.8719 16.0573 10.8817 16.0291 10.8968 16.0036C10.9119 15.9781 10.9318 15.9558 10.9556 15.9381C10.9793 15.9203 11.0063 15.9075 11.035 15.9002C11.0638 15.893 11.0937 15.8914 11.123 15.8958C11.1523 15.9001 11.1805 15.9102 11.2059 15.9255C11.2313 15.9408 11.2534 15.961 11.2709 15.9848C11.2885 16.0087 11.3011 16.0358 11.3081 16.0646C11.3151 16.0933 11.3163 16.1232 11.3117 16.1524C11.3025 16.2108 11.2706 16.2631 11.2229 16.2981C11.1752 16.3331 11.1156 16.3478 11.0571 16.3391C10.9986 16.3305 10.9459 16.2991 10.9105 16.2518C10.875 16.2045 10.8597 16.1452 10.8678 16.0867ZM12.9663 15.8046C12.8588 15.8764 12.727 15.9027 12.6001 15.8775C12.4732 15.8523 12.3614 15.7778 12.2895 15.6704C12.2176 15.5629 12.1913 15.4314 12.2165 15.3046C12.2417 15.1778 12.3163 15.0663 12.4239 14.9944C12.4772 14.9588 12.5369 14.9341 12.5998 14.9216C12.6626 14.9091 12.7273 14.9091 12.7901 14.9215C12.853 14.934 12.9128 14.9587 12.9661 14.9942C13.0194 15.0298 13.0651 15.0754 13.1007 15.1286C13.1727 15.2361 13.1989 15.3676 13.1737 15.4944C13.1612 15.5572 13.1365 15.6169 13.1009 15.6701C13.0653 15.7233 13.0196 15.769 12.9663 15.8046ZM12.538 15.2424C12.4961 15.2842 12.472 15.3406 12.4707 15.3997L12.4707 15.4192C12.4767 15.4748 12.5028 15.5263 12.5441 15.564C12.5854 15.6017 12.6392 15.623 12.6951 15.6239C12.7546 15.6239 12.8117 15.6002 12.8538 15.5582C12.8959 15.5162 12.9195 15.4592 12.9195 15.3997C12.9195 15.3403 12.8959 15.2833 12.8538 15.2413C12.8117 15.1993 12.7546 15.1756 12.6951 15.1756C12.6361 15.1769 12.5799 15.2008 12.538 15.2424ZM13.5 13.0077L14.7927 13.0077L14.7927 10.9177L13.5 10.9177L13.5 13.0077ZM14.4376 15.1415C14.541 15.0695 14.6125 14.9603 14.6371 14.8368C14.6616 14.7132 14.6373 14.585 14.5693 14.479C14.4982 14.3789 14.3919 14.3093 14.2717 14.2841C14.1502 14.2616 14.0247 14.286 13.9205 14.3523C13.8579 14.3956 13.8063 14.453 13.7698 14.5199C13.7334 14.5867 13.7132 14.6611 13.7107 14.7372C13.7119 14.8289 13.739 14.9184 13.7888 14.9954C13.8583 15.0972 13.964 15.1689 14.0844 15.196C14.2048 15.2231 14.331 15.2037 14.4376 15.1415ZM13.9937 14.8785C13.9617 14.8284 13.9505 14.7679 13.9623 14.7098C13.9741 14.6516 14.0081 14.6003 14.0571 14.5667C14.0814 14.5511 14.1086 14.5406 14.1371 14.5355C14.1655 14.5305 14.1947 14.5312 14.2229 14.5374C14.2515 14.5426 14.2788 14.5534 14.3031 14.5693C14.3274 14.5852 14.3483 14.6059 14.3644 14.63C14.389 14.666 14.4025 14.7083 14.4034 14.7518L14.4034 14.7956C14.3981 14.8247 14.3866 14.8524 14.3698 14.8767C14.353 14.9011 14.3312 14.9216 14.3059 14.9369C14.2815 14.9536 14.2541 14.9653 14.2253 14.9714C14.1964 14.9775 14.1666 14.9778 14.1376 14.9724C14.1086 14.9669 14.081 14.9558 14.0563 14.9397C14.0316 14.9236 14.0103 14.9028 13.9937 14.8785Z" fill="#333333"/>
</g>
<defs>
<clipPath id="clip0">
<rect width="95" height="20" fill="white" transform="translate(20.5) rotate(90)"/>
</clipPath>
</defs>
</svg>
