<svg width="21" height="64" viewBox="0 0 21 64" fill="none" xmlns="http://www.w3.org/2000/svg">
<g clip-path="url(#clip0)">
<path d="M20.9824 41.5386C20.977 41.4957 20.9582 41.3432 20.942 41.204C20.8721 40.5888 20.6597 39.834 20.4096 39.3205C20.0223 38.5205 19.3849 37.8436 18.683 37.4877C18.1344 37.2094 17.5562 37.0756 16.8839 37.0756C15.6065 37.0729 14.6303 37.6214 13.8692 38.7667C13.2856 39.6416 12.893 40.7172 12.4869 42.5284C12.4062 42.8977 12.2906 43.3713 12.2314 43.5881C11.7823 45.239 11.2472 46.0469 10.4108 46.3465C10.1876 46.4241 9.59861 46.4456 9.3216 46.3838C8.29699 46.1564 7.54665 45.1159 7.35034 43.6521C7.29926 43.2696 7.29926 42.4617 7.35034 42.028C7.5117 40.6554 8.02268 39.5746 9.04193 38.4587C9.25166 38.2287 9.27319 38.1967 9.27319 38.0977C9.27319 37.9934 9.25706 37.972 8.92628 37.6375L8.57937 37.287L8.42336 37.4288C8.01728 37.7901 7.48211 38.4456 7.16479 38.9647C6.58391 39.9172 6.21008 41.0756 6.09713 42.2528C6.05681 42.7023 6.0783 43.8234 6.13748 44.2007C6.48439 46.3921 7.69459 47.8155 9.4749 48.1205C10.3785 48.2729 11.2552 48.1284 11.9598 47.7056C12.9952 47.0878 13.7697 45.8116 14.3129 43.8261C14.3613 43.6416 14.4851 43.1304 14.5845 42.6918C14.8723 41.4129 15.0579 40.8162 15.3618 40.2007C15.714 39.4865 16.1013 39.0984 16.6607 38.8977C16.8866 38.8175 17.446 38.7987 17.7337 38.8631C18.7288 39.0769 19.4602 40.0429 19.6996 41.4611C19.7588 41.8195 19.7668 42.8977 19.713 43.2776C19.6082 44.0188 19.4307 44.6072 19.1321 45.204C18.8363 45.798 18.4948 46.2822 17.9838 46.8307C17.8144 47.0155 17.7902 47.0528 17.7902 47.1439C17.7902 47.2403 17.8144 47.2723 18.1237 47.5961C18.3065 47.7888 18.4706 47.9465 18.484 47.9465C18.5271 47.9465 19.1564 47.3017 19.3581 47.0528C20.2374 45.9667 20.7995 44.5673 20.9582 43.0716C20.9931 42.7211 21.0093 41.7739 20.9824 41.5386ZM13.3663 18.9164L5.94117 18.9164L5.86587 18.9806L5.79057 19.0448L5.79057 20.1338L11.8146 20.1472L17.8359 20.1606L12.0459 25.3084C8.0388 28.8696 6.22084 30.5044 6.14018 30.6141C5.89005 30.9485 5.80669 31.2187 5.78517 31.7405L5.76904 32.107L20.5951 32.107L20.6812 32.0294L20.7699 31.9519L20.778 31.4141L20.7888 30.8763L14.797 30.8709L8.80797 30.8629L14.52 25.7445C17.6611 22.9271 20.2912 20.5565 20.3612 20.4736C20.5091 20.2997 20.6516 20.0214 20.7161 19.786C20.7377 19.6977 20.7646 19.4649 20.7753 19.2722L20.7914 18.9164L13.3663 18.9164ZM20.7699 50.4885C20.7619 50.4885 18.675 51.77 16.1336 53.338L11.5134 56.1875L5.7771 56.1875L5.7771 56.9928C5.7771 57.5518 5.78786 57.8327 5.80939 57.9102C5.8551 58.06 6.0084 58.2046 6.16166 58.2423C6.25043 58.2663 7.01149 58.2743 8.91551 58.2743L11.5457 58.2743L16.1524 61.1373C18.6857 62.7132 20.7646 64 20.7726 64C20.7968 64 20.7807 62.9914 20.7538 62.8898C20.7377 62.8307 20.6973 62.7452 20.6624 62.6997C20.6193 62.6462 19.2693 61.8033 16.658 60.198C14.4904 58.8683 12.7155 57.7739 12.7155 57.766C12.7182 57.7577 14.3909 56.7224 16.4321 55.465C20.5091 52.9551 20.3961 53.03 20.5897 52.6528C20.7538 52.329 20.7646 52.2703 20.7753 51.3393C20.7834 50.871 20.7807 50.4885 20.7699 50.4885ZM20.6462 7.54248C20.5817 7.51036 17.2147 5.80066 13.1646 3.74315C9.11453 1.68294 5.79593 -6.6441e-07 5.79057 -6.64644e-07C5.76368 -6.65819e-07 5.7798 0.955184 5.80669 1.05686C5.86587 1.2709 5.94117 1.31639 7.92315 2.31438L9.78417 3.25084L9.78147 7.06357L9.78147 10.8763L8.12217 11.7191C6.57045 12.5084 6.45214 12.5726 6.28272 12.7304C6.06754 12.9338 5.95729 13.097 5.86317 13.3565C5.79593 13.5492 5.79327 13.5679 5.7825 14.4027C5.7771 14.8683 5.7771 15.2509 5.78517 15.2509C5.80669 15.2509 20.7135 7.64683 20.7403 7.62541C20.7511 7.61205 20.7108 7.57726 20.6462 7.54248ZM14.0736 8.68495C12.3444 9.56521 10.9137 10.2903 10.8948 10.2956C10.8653 10.3037 10.8599 9.69901 10.8599 7.06357C10.8599 4.29432 10.8653 3.8234 10.8975 3.83145C10.9836 3.85016 17.2577 7.05016 17.2389 7.06624C17.2281 7.07426 15.8055 7.80469 14.0736 8.68495ZM1.58989 13.4448C1.01704 13.1987 0.452292 12.9552 0.339342 12.907L0.129604 12.8187L0.129604 13.1532L0.438867 13.2843L0.74813 13.4181L0.742767 14.0147L0.734666 14.6114L0.438867 14.7398L0.14303 14.8683L0.134967 15.0341C0.126905 15.1866 0.132267 15.2 0.175317 15.1866C0.202205 15.1786 0.761592 14.9378 1.42047 14.6542L2.6172 14.1405L2.62527 14.0174L2.63333 13.8943L1.58989 13.4448ZM1.60872 14.2341C1.33707 14.3518 1.1031 14.4481 1.09234 14.4481C1.08162 14.4481 1.07085 14.2475 1.07085 14.004C1.07085 13.592 1.07352 13.5599 1.11927 13.5759C1.22146 13.6134 2.11429 14.0067 2.10893 14.012C2.10623 14.0147 1.88033 14.1164 1.60872 14.2341ZM2.15464 45.8515C1.89109 45.7393 1.329 45.4984 0.904089 45.3165L0.129602 44.9818L0.129602 45.3192L0.438866 45.4475L0.748129 45.5785L0.740066 46.1779L0.734665 46.7772L0.438866 46.9056L0.143028 47.034L0.134966 47.1947C0.129603 47.2858 0.137665 47.3577 0.148428 47.3577C0.15919 47.3577 0.723941 47.1198 1.39894 46.8307L2.63063 46.301L2.63063 46.0548L2.15464 45.8515ZM1.58183 46.4136L1.07085 46.63L1.07085 46.1752C1.07085 45.8221 1.07891 45.7231 1.1058 45.7336C1.33976 45.8274 2.09277 46.1647 2.09277 46.1779C2.09277 46.1862 1.8615 46.2931 1.58183 46.4136ZM1.36936 16.5351L0.129604 16.5351L0.129604 16.8562L1.07352 16.8562L1.06545 17.2361L1.05739 17.6134L0.594829 17.8274L0.129604 18.0415L0.129604 18.2127C0.129604 18.3037 0.134968 18.3813 0.137668 18.3813C0.14303 18.3813 0.371629 18.2769 0.643241 18.1512C1.09234 17.9425 1.14075 17.9264 1.16498 17.9692C1.29945 18.202 1.53878 18.3331 1.83728 18.3358C2.17077 18.3385 2.41819 18.1833 2.52844 17.9023C2.57955 17.7686 2.58762 17.6883 2.59838 17.1451L2.60914 16.5351L1.36936 16.5351ZM2.21378 17.8167C2.12235 17.9692 2.03093 18.0201 1.84268 18.0201C1.6356 18.0174 1.51995 17.9559 1.44735 17.806C1.40164 17.7097 1.39358 17.6401 1.39358 17.2763L1.39358 16.8562L2.28642 16.8562L2.27565 17.2923C2.26759 17.6669 2.25953 17.7391 2.21378 17.8167ZM1.36936 19.8261L0.129603 19.8261L0.129603 20.1472L1.06545 20.1472L1.07622 20.61C1.08968 21.1318 1.11927 21.2495 1.27793 21.41C1.49843 21.6348 1.89109 21.6963 2.18423 21.5545C2.26489 21.5144 2.36978 21.4368 2.41549 21.3833C2.56339 21.204 2.58222 21.1023 2.59838 20.4361L2.60914 19.8261L1.36936 19.8261ZM2.21378 21.1077C2.12235 21.2629 2.03093 21.3111 1.83728 21.3111C1.65173 21.3111 1.57107 21.2709 1.46348 21.1264C1.4124 21.0595 1.407 21.0087 1.39894 20.5993L1.39088 20.1472L2.28642 20.1472L2.27565 20.5833C2.26759 20.9579 2.25953 21.0301 2.21378 21.1077ZM2.56339 35.1653C2.41819 34.6275 2.00134 34.3438 1.35323 34.3438C0.944441 34.3438 0.664766 34.4402 0.425404 34.6649C0.00319152 35.0582 -0.00487183 35.8555 0.411978 36.2676C0.629816 36.4843 0.957903 36.602 1.35323 36.602C1.86687 36.602 2.28908 36.388 2.4666 36.0428C2.59568 35.794 2.63333 35.4301 2.56339 35.1653ZM2.18423 35.8796C2.03629 36.1525 1.77544 36.2783 1.35859 36.281C0.777716 36.2836 0.460391 36.0268 0.430804 35.5318C0.409279 35.1492 0.53569 34.9111 0.839552 34.7559C1.02244 34.6649 1.0305 34.6622 1.35053 34.6622C1.73509 34.6622 1.87493 34.7104 2.06588 34.903C2.22454 35.0636 2.28372 35.2428 2.27295 35.5184C2.26489 35.695 2.25143 35.7592 2.18423 35.8796ZM1.36665 38.1003L0.129603 38.1003L0.129603 38.3947L1.09504 38.4L2.06318 38.4079L1.52535 38.8495C1.22952 39.0931 0.963265 39.3096 0.931015 39.3336C0.879903 39.3739 0.898727 39.3928 1.45811 39.8554C1.77544 40.1178 2.03629 40.3426 2.03899 40.3558C2.03899 40.3667 1.60872 40.3746 1.08428 40.3746L0.129603 40.3746L0.129603 40.669L2.60914 40.669L2.59028 40.5297C2.57955 40.4495 2.55267 40.3693 2.52844 40.3479C2.50155 40.3264 2.22994 40.099 1.92334 39.8423L1.36665 39.3792L1.98522 38.8683L2.60374 38.3597L2.60374 38.1003L1.36665 38.1003ZM1.36935 42.2743L0.129602 42.2743L0.129602 42.5687L1.06545 42.5687L1.07891 43.0449C1.09234 43.5799 1.11387 43.6683 1.26447 43.8396C1.52535 44.1336 2.09277 44.1472 2.37514 43.8664C2.56073 43.6841 2.58221 43.5825 2.59838 42.8841L2.60914 42.2743L1.36935 42.2743ZM2.21378 43.5584C2.06052 43.8182 1.65173 43.8287 1.46348 43.5772C1.4124 43.5076 1.407 43.4594 1.39894 43.034L1.39088 42.5687L2.28642 42.5687L2.27565 43.0182C2.26759 43.4086 2.25953 43.4756 2.21378 43.5584ZM2.58491 48.7145C2.57685 48.7036 2.02017 48.6957 1.34783 48.6957L0.129602 48.6957L0.129602 49.0168L1.08698 49.0221L2.04705 49.03L1.08968 49.8195L0.129602 50.6086L0.129602 50.8898L2.60644 50.8898L2.59838 50.7373L2.59028 50.5818L1.6329 50.5687L0.672826 50.5551L1.6383 49.7577L2.60374 48.9604L2.60374 48.8456C2.60374 48.7838 2.59568 48.7224 2.58491 48.7145ZM2.57145 52.1367C2.55263 52.1472 2.2353 52.3772 1.86956 52.6475L1.20263 53.1373L0.129602 53.1373L0.129602 53.4313L1.20799 53.4313L1.89915 53.94L2.59028 54.4482L2.59838 54.2822C2.60374 54.1941 2.60104 54.1056 2.59298 54.0872C2.58761 54.0683 2.34555 53.8835 2.05511 53.6749C1.76468 53.4637 1.53342 53.2841 1.54148 53.2736C1.54684 53.2631 1.7889 53.0808 2.07934 52.8723L2.60374 52.4924L2.60374 52.3049C2.60374 52.1604 2.59568 52.1231 2.57145 52.1367ZM2.52308 10.2823C2.45851 10.0843 2.34019 9.92109 2.16001 9.78729C1.96906 9.64548 1.75392 9.57862 1.43389 9.55987C0.995555 9.53848 0.651304 9.64548 0.411979 9.8863C0.0838918 10.21 0.00859091 10.7906 0.234491 11.2348C0.293628 11.3472 0.471116 11.5398 0.608291 11.6335L0.694354 11.6977L0.758892 11.5532L0.823429 11.4114L0.753492 11.3579C0.535692 11.1973 0.425405 10.9726 0.425405 10.6917C0.425405 10.3465 0.565241 10.1003 0.839553 9.96657C1.22145 9.78195 1.79427 9.84617 2.05245 10.1003C2.20035 10.2502 2.26219 10.4161 2.26489 10.6756C2.26489 10.9405 2.20572 11.109 2.04705 11.2696C1.99598 11.3231 1.95563 11.3766 1.96099 11.39C1.99058 11.4569 2.10893 11.6388 2.12235 11.6388C2.17883 11.6388 2.44508 11.3017 2.49885 11.1652C2.58492 10.9405 2.59838 10.5124 2.52308 10.2823ZM1.35323 22.9833L0.129603 22.9833L0.129603 24.7492L0.425404 24.7492L0.425404 23.3044L1.20533 23.3044L1.20533 24.6421L1.50113 24.6421L1.50113 23.3044L2.28102 23.3044L2.28102 24.7492L2.57685 24.7492L2.57685 22.9833L1.35323 22.9833ZM2.42895 25.9264L2.28102 25.9264L2.28102 26.8094L0.129603 26.8094L0.129603 27.1305L2.28102 27.1305L2.28102 28.0134L2.57685 28.0134L2.57685 25.9264L2.42895 25.9264ZM2.52038 31.6629C2.40743 31.3391 2.1654 31.1117 1.81309 31.0047C1.66249 30.9565 1.5603 30.9458 1.32634 30.9458C0.877205 30.9485 0.613653 31.0529 0.363566 31.3285C0.0865535 31.6361 0.0220164 32.1713 0.215666 32.5806C0.274804 32.709 0.522229 32.9793 0.632479 33.0408C0.688954 33.0703 0.697016 33.0622 0.758891 32.9391L0.826128 32.8081L0.713179 32.7144C0.651304 32.6636 0.562578 32.5565 0.519528 32.4789C0.444228 32.3452 0.438866 32.3131 0.438866 32.0669C0.438866 31.8181 0.444229 31.7886 0.522229 31.6522C0.619054 31.4783 0.791142 31.3525 1.01168 31.2883C1.21605 31.2294 1.62754 31.2482 1.79963 31.3231C2.10893 31.4595 2.26489 31.7084 2.26489 32.0669C2.26759 32.2569 2.25683 32.3023 2.17883 32.4602C2.13042 32.5592 2.05781 32.6662 2.02016 32.6957C1.94756 32.7519 1.94757 32.7518 1.99328 32.8375C2.09277 33.0141 2.10623 33.0248 2.18153 32.9793C2.27835 32.915 2.41013 32.7385 2.49079 32.5672C2.54996 32.4388 2.56073 32.3692 2.56879 32.1204C2.57685 31.8743 2.56879 31.7993 2.52038 31.6629ZM1.38012 -8.57431e-07L1.20533 -8.65071e-07L1.20533 7.22677L1.37475 7.21875L1.54148 7.21069L1.54954 3.60669L1.5549 -8.49791e-07L1.38012 -8.57431e-07ZM1.50919 56.7947C1.50113 56.7838 1.42047 56.7759 1.3344 56.7759L1.1784 56.7759L1.1784 64L1.52801 64L1.52801 60.4066C1.52801 58.4294 1.51995 56.8026 1.50919 56.7947Z" fill="#333333"/>
</g>
<defs>
<clipPath id="clip0">
<rect width="64" height="21" fill="white" transform="translate(21) rotate(90)"/>
</clipPath>
</defs>
</svg>
