<svg width="184" height="49" viewBox="0 0 184 49" fill="none" xmlns="http://www.w3.org/2000/svg">
<g clip-path="url(#clip0)">
<path fill-rule="evenodd" clip-rule="evenodd" d="M38.1982 0.675909C43.3994 2.36556 47.4262 6.75867 48.6006 12.2219H38.1982V0.675909ZM15.5477 -0.0562744H30.1447V8.11039H18.1204C15.2681 8.11039 12.8073 9.80005 11.6328 12.2219H0.503357C1.95746 5.23798 8.16536 -0.0562744 15.5477 -0.0562744ZM48.8802 20.3885V33.5678C48.8802 42.0724 42.0012 49 33.5562 49H15.5477C7.04681 49 0.167786 42.0724 0.167786 33.5678V20.3885H10.9058V33.5678C10.9058 37.5667 14.1496 40.8334 18.1204 40.8334H30.9277C34.8985 40.8334 38.1423 37.5667 38.1423 33.5678V20.3885H48.8802ZM21.0286 16.277H28.0754C29.1939 16.277 30.1447 17.1782 30.1447 18.3609V30.5828C30.1447 31.7092 29.2499 32.6667 28.0754 32.6667H21.0286C19.91 32.6667 18.9593 31.7655 18.9593 30.5828V18.3609C18.9593 17.2345 19.91 16.277 21.0286 16.277ZM154.582 16.3334V24.3874C154.582 30.6954 157.099 32.6104 162.356 32.6104H165.936V28.6679H162.915C159.951 28.6679 159.336 28.2736 159.336 24.4437V16.3334H154.582ZM146.976 28.6679C144.515 28.6679 143.677 28.4426 143.453 26.1897V26.1334H150.108V22.3035H143.509C143.788 20.3885 144.683 20.2196 146.976 20.2196H151.786V16.277H146.417C141.16 16.277 138.643 17.9667 138.643 24.3311C138.643 30.6954 141.216 32.6104 146.417 32.6104H151.786V28.6679H146.976ZM120.97 32.6104V16.3334V16.277H128.297C133.554 16.277 136.071 17.9667 136.071 24.3311C136.071 30.6954 133.498 32.6104 128.297 32.6104H120.97ZM127.793 28.6679C130.757 28.6679 131.373 28.2736 131.373 24.4437C131.373 20.5575 130.702 20.2759 127.793 20.2759H125.5V28.6679H127.793ZM184 24.2747C184 17.6851 181.148 15.9391 175.947 15.9391C170.689 15.9391 167.893 17.6851 167.893 24.2747C167.893 30.977 170.689 32.9483 175.947 32.9483C181.204 32.9483 184 30.977 184 24.2747ZM179.246 24.2747C179.246 28.4426 178.911 28.8368 175.947 28.8368C172.926 28.8368 172.591 28.4426 172.647 24.2747C172.647 20.3885 172.926 20.0506 175.947 20.0506C178.911 20.0506 179.246 20.3885 179.246 24.2747ZM93.1185 26.1897C93.3422 28.4426 94.1812 28.6678 96.6419 28.6678H101.452V32.6104H96.0827C90.8815 32.6104 88.3088 30.6954 88.3088 24.3311C88.3088 17.9667 90.8255 16.277 96.0827 16.277H101.452V20.2196H96.6419C94.3489 20.2196 93.4541 20.3885 93.1745 22.3035H99.7739V26.1334H93.1185V26.1897ZM72.7052 32.6104C67.504 32.6104 64.9313 30.6954 64.9313 24.3311V16.3334H69.6851V24.4437C69.6851 28.2173 70.3003 28.6678 73.1526 28.6678V16.3334H77.5708V28.6678C80.479 28.6678 81.0942 28.2173 81.0942 24.4437V16.3334H85.848V24.3874C85.848 30.7518 83.3313 32.6667 78.0742 32.6667C76.3404 32.6104 74.5508 32.6104 72.7052 32.6104ZM108.666 20.1069H112.469C112.861 20.1069 113.14 20.3322 113.14 21.2897C113.14 22.3035 112.861 22.4161 112.469 22.4161H108.666V20.1069ZM108.666 28.7805V26.0207H112.469C113.029 26.0207 113.42 26.3023 113.42 27.4288C113.42 28.4989 113.084 28.7805 112.581 28.7805H108.666ZM114.427 24.1058C117.335 23.8805 117.95 22.5851 117.95 20.2759C117.95 17.5161 117.111 16.3334 113.867 16.3334H104.248V32.6104H113.867C116.496 32.6104 118.23 31.5966 118.23 28.2736C118.174 25.6265 117.503 24.2747 114.427 24.1058ZM123.655 38.4115C124.438 38.4115 125.221 38.5242 125.668 38.6931L125.277 40.0449C125.207 40.0349 125.133 40.0232 125.053 40.0106C124.682 39.9522 124.197 39.8759 123.599 39.8759C122.76 39.8759 122.648 40.0449 122.648 40.2701C122.648 40.6081 122.76 40.6644 123.767 40.777C125.109 40.946 125.724 41.5092 125.724 42.6357C125.724 44.2127 124.997 44.6633 123.04 44.6633C122.257 44.6633 121.529 44.5506 121.026 44.3816L121.362 42.9736C121.422 42.9823 121.488 42.9924 121.559 43.0032C121.945 43.0621 122.472 43.1426 123.04 43.1426C123.878 43.1426 123.99 43.0299 123.99 42.7483C123.99 42.4667 123.878 42.3541 122.76 42.2414C121.529 42.0724 120.97 41.6782 120.97 40.5518C120.97 39.0311 121.753 38.4115 123.655 38.4115ZM132.156 39.9885V44.5506H130.534V39.9885H128.576V38.5242H134.113V39.9885H132.156ZM142.39 38.5805H140.768V42.6357C140.768 42.9736 140.545 43.1426 139.818 43.1426C139.091 43.1426 138.867 42.9736 138.867 42.6357V38.5805H137.245V43.0299C137.245 44.3816 138.252 44.7196 139.818 44.7196C141.328 44.7196 142.39 44.3253 142.39 43.0299V38.5805ZM145.858 44.5506V38.5805H148.542C150.444 38.5805 151.395 39.2 151.395 41.5092C151.395 43.8747 150.444 44.5506 148.542 44.5506H145.858ZM148.319 43.1426C149.437 43.1426 149.661 42.9736 149.661 41.5656C149.661 40.1012 149.437 39.9885 148.319 39.9885H147.48V43.1426H148.319ZM156.26 44.5506V38.5805H154.638V44.5506H156.26ZM165.936 41.4529C165.936 39.0311 164.873 38.4115 162.971 38.4115C161.014 38.4115 160.007 39.0311 160.007 41.4529C160.007 43.9311 161.07 44.6633 162.971 44.6633C164.929 44.6633 165.936 43.9311 165.936 41.4529ZM164.202 41.4529C164.202 42.9736 164.09 43.1426 162.971 43.1426C161.853 43.1426 161.741 43.0299 161.741 41.4529C161.741 39.9885 161.853 39.8759 162.971 39.8759C164.09 39.8759 164.202 40.0449 164.202 41.4529Z" fill="white"/>
</g>
<defs>
<clipPath id="clip0">
<rect width="184" height="49" fill="white"/>
</clipPath>
</defs>
</svg>
