<svg width="15" height="25" viewBox="0 0 15 25" fill="none" xmlns="http://www.w3.org/2000/svg">
<path fill-rule="evenodd" clip-rule="evenodd" d="M7.51562 12.9266C3.98437 12.9266 1.05 9.99375 1.05 6.52344C1.05 2.93281 3.98437 0 7.51719 0C11.1687 0 13.9828 2.93281 13.9828 6.52344C13.9799 7.36877 13.8103 8.20522 13.4836 8.98487C13.1569 9.76452 12.6795 10.472 12.0789 11.0669C11.4783 11.6617 10.7661 12.1322 9.98335 12.4513C9.20057 12.7704 8.3625 12.9319 7.51719 12.9266H7.51562ZM7.51562 3.77031C6.02031 3.77031 4.88281 5.02656 4.88281 6.52344C4.88281 8.01875 6.02031 9.15625 7.51719 9.15625C9.07344 9.15625 10.1516 8.01875 10.1516 6.52344C10.1516 5.02656 9.07344 3.77031 7.51719 3.77031H7.51562ZM10.0906 18.2531L13.7437 21.7844C14.4625 22.5609 14.4625 23.6984 13.7437 24.4172C12.9656 25.1938 11.7672 25.1938 11.1687 24.4172L7.51719 20.8266L3.98437 24.4172C3.625 24.7766 3.14531 24.9547 2.60625 24.9547C2.1875 24.9547 1.70937 24.775 1.28906 24.4172C0.570312 23.6984 0.570312 22.5609 1.28906 21.7828L5.00156 18.2516C3.66071 17.8543 2.37432 17.2922 1.17187 16.5781C0.273437 16.1 0.093749 14.9031 0.571874 14.0047C1.17187 13.1078 2.24844 12.8688 3.20781 13.4672C4.50607 14.2597 5.99769 14.6791 7.51875 14.6791C9.03981 14.6791 10.5314 14.2597 11.8297 13.4672C12.7875 12.8688 13.925 13.1078 14.4641 14.0047C15.0031 14.9031 14.7625 16.0984 13.925 16.5781C12.7875 17.2969 11.4703 17.8359 10.0922 18.2547L10.0906 18.2531Z" fill="#EE8208"/>
</svg>
