<svg width="61" height="61" viewBox="0 0 61 61" fill="none" xmlns="http://www.w3.org/2000/svg">
<path d="M57.2412 4.77539H3.75877C1.68608 4.77539 0 6.46147 0 8.53404V44.8258C0 46.8984 1.68608 48.5845 3.75877 48.5845H21.8474L21.1158 54.4377H18.0844C17.5908 54.4377 17.1908 54.8378 17.1908 55.3313C17.1908 55.8248 17.5908 56.2248 18.0844 56.2248H42.9156C43.4092 56.2248 43.8092 55.8248 43.8092 55.3313C43.8092 54.8378 43.4092 54.4377 42.9156 54.4377H39.8843L39.1526 48.5845H57.2412C59.3138 48.5845 61 46.8984 61 44.8258V8.53404C61 6.46147 59.3139 4.77539 57.2412 4.77539ZM22.9168 54.4377L23.6486 48.5845H26.9372L27.2599 49.8748C27.6323 51.3644 28.9648 52.4046 30.5001 52.4046C32.0355 52.4046 33.368 51.3644 33.7404 49.8748L34.063 48.5845H37.3517L38.0832 54.4377H22.9168ZM28.7793 48.5845H32.2206L32.0064 49.4413C31.8333 50.1339 31.2139 50.6175 30.4999 50.6175C29.7859 50.6175 29.1666 50.1338 28.9933 49.4413L28.7793 48.5845ZM59.2129 44.8258C59.2129 45.913 58.3284 46.7974 57.2412 46.7974H3.75877C2.67161 46.7974 1.78711 45.913 1.78711 44.8258V8.53404C1.78711 7.44688 2.67161 6.5625 3.75877 6.5625H57.2412C58.3284 6.5625 59.2129 7.44688 59.2129 8.53404V44.8258Z" fill="#3C2458"/>
<path d="M50.5559 8.5957H4.71368C4.22008 8.5957 3.82013 8.99566 3.82013 9.48926V43.8709C3.82013 44.3645 4.22008 44.7644 4.71368 44.7644H6.62387C7.11747 44.7644 7.51742 44.3645 7.51742 43.8709C7.51754 43.3774 7.11747 42.9773 6.62398 42.9773H5.60736V10.3828H50.5559C51.0495 10.3828 51.4495 9.98274 51.4495 9.48926C51.4495 8.99566 51.0495 8.5957 50.5559 8.5957Z" fill="#3C2458"/>
<path d="M56.2863 8.5957H54.3762C53.8826 8.5957 53.4826 8.99566 53.4826 9.48926C53.4826 9.98274 53.8826 10.3828 54.3762 10.3828H55.3928V42.9773H10.4441C9.95052 42.9773 9.55057 43.3774 9.55057 43.8709C9.55057 44.3645 9.95052 44.7644 10.4441 44.7644H56.2862C56.7798 44.7644 57.1798 44.3645 57.1798 43.8709V9.48926C57.1799 8.99566 56.7798 8.5957 56.2863 8.5957Z" fill="#3C2458"/>
<path d="M42.6643 18.4883C42.5037 18.283 42.2614 18.1582 42.0012 18.1464L20.9903 17.1912C20.9739 17.1905 20.9578 17.1902 20.9412 17.1904C20.8168 16.7821 20.554 16.428 20.1983 16.1907L17.6252 14.4753C17.2146 14.2016 16.6598 14.3126 16.3861 14.7232C16.1125 15.1339 16.2234 15.6886 16.6339 15.9623L19.2069 17.6775C19.219 17.6856 19.228 17.6978 19.232 17.7119L22.5095 29.1829C22.6117 29.5405 22.7799 29.862 22.9959 30.1396L21.7968 32.5379C21.5081 33.1151 21.5384 33.7874 21.8777 34.3364C22.0007 34.5355 22.1568 34.705 22.3361 34.8409C22.1014 35.2506 21.9664 35.7245 21.9664 36.2297C21.9664 37.7756 23.2242 39.0333 24.77 39.0333C26.3159 39.0333 27.5737 37.7755 27.5737 36.2297C27.5737 35.8712 27.5053 35.5285 27.3821 35.2132H35.5286C35.4054 35.5285 35.337 35.8712 35.337 36.2297C35.337 37.7756 36.5948 39.0333 38.1406 39.0333C39.6865 39.0333 40.9442 37.7755 40.9442 36.2297C40.9442 35.7812 40.8378 35.3574 40.6498 34.9812C40.8302 34.8177 40.9442 34.5823 40.9442 34.3196C40.9442 33.8261 40.5443 33.4261 40.0507 33.4261H23.4498C23.4371 33.4261 23.4155 33.4261 23.3975 33.3969C23.3796 33.3678 23.3892 33.3486 23.3949 33.3371L24.4996 31.1278C24.7244 31.1856 24.9586 31.2168 25.1984 31.2168C25.3088 31.2168 25.4203 31.2103 25.5325 31.1972L38.0883 29.7201C39.7099 29.5292 41.0146 28.3254 41.3349 26.7242L42.8368 19.2142C42.8879 18.9587 42.8249 18.6936 42.6643 18.4883ZM38.1404 35.2134C38.7009 35.2134 39.1569 35.6695 39.1569 36.2299C39.1569 36.7905 38.7009 37.2464 38.1404 37.2464C37.5798 37.2464 37.1239 36.7905 37.1239 36.2299C37.1239 35.6694 37.5798 35.2134 38.1404 35.2134ZM24.7698 35.2134C25.3304 35.2134 25.7863 35.6694 25.7863 36.2299C25.7863 36.7905 25.3304 37.2464 24.7698 37.2464C24.2093 37.2464 23.7533 36.7905 23.7533 36.2299C23.7533 35.6694 24.2093 35.2134 24.7698 35.2134ZM22.5786 22.9207L21.4588 19.0016L25.0312 19.164L25.6506 22.9207H22.5786ZM25.3238 29.4223C24.8256 29.481 24.3651 29.1737 24.2276 28.692L23.0892 24.7078H25.9453L26.696 29.2609L25.3238 29.4223ZM30.5616 28.8061L28.4728 29.0519L27.7567 24.7079H30.5616V28.8061ZM30.5616 22.9207H27.4619L26.8562 19.247L30.5616 19.4155V22.9207ZM35.0868 28.2737L32.3487 28.5959V24.7078H35.4095L35.0868 28.2737ZM35.5713 22.9207H32.3487V19.4966L35.8668 19.6565L35.5713 22.9207ZM39.5823 26.3739C39.4143 27.2136 38.73 27.8452 37.8795 27.9452L36.9005 28.0604L37.2039 24.7079H39.9154L39.5823 26.3739ZM40.273 22.9207H37.3658L37.6539 19.7378L40.8802 19.8844L40.273 22.9207Z" fill="#3C2458"/>
</svg>
