<svg width="131" height="27" viewBox="0 0 131 27" fill="none" xmlns="http://www.w3.org/2000/svg">
<g clip-path="url(#clip0)">
<path d="M43.9587 0.496355C43.8451 0.312103 43.5755 0.212891 43.1213 0.212891H35.4433C34.9891 0.212891 34.6769 0.312103 34.535 0.496355C34.3692 0.746818 34.2669 1.03382 34.2369 1.33258L32.7751 11.6365C32.7467 11.8775 32.8603 11.9908 33.1157 11.9908H35.4433C35.557 12.0061 35.6726 11.981 35.7697 11.92C35.8228 11.8337 35.8566 11.737 35.8691 11.6365L37.1038 2.94832H40.7228L39.4881 11.6365C39.4597 11.8775 39.5732 11.9908 39.8429 11.9908H42.1562C42.3407 11.9908 42.4685 11.9625 42.4969 11.92C42.5499 11.8337 42.5838 11.737 42.5962 11.6365L44.058 1.33258C44.0864 0.964072 44.0722 0.680607 43.9587 0.496355ZM52.5166 3.16092H50.3452C50.2224 3.14726 50.0984 3.17202 49.9904 3.23179C49.9282 3.30802 49.8932 3.40278 49.891 3.50108L49.0253 9.69478C48.8656 9.72231 48.7045 9.74124 48.5428 9.75148C48.3725 9.76565 48.2305 9.76565 48.1312 9.76565C47.8942 9.77354 47.658 9.73502 47.4358 9.65226C47.276 9.58804 47.1415 9.47361 47.0526 9.32628C46.9672 9.16521 46.9279 8.98377 46.939 8.80187C46.9393 8.55042 46.9583 8.29933 46.9958 8.05069L47.6345 3.50108C47.6629 3.27431 47.5493 3.16092 47.2939 3.16092H45.094C44.9758 3.1465 44.8561 3.17141 44.7534 3.23179C44.6912 3.30802 44.6563 3.40278 44.6541 3.50108L44.0722 7.76722C43.9462 8.45494 43.9319 9.15841 44.0296 9.85069C44.0879 10.3668 44.309 10.851 44.6611 11.2332C45.0132 11.6154 45.478 11.8758 45.9882 11.9767C46.6801 12.144 47.391 12.2203 48.1028 12.2034C48.2873 12.2034 48.5002 12.2034 48.7557 12.1893C49.0111 12.1751 49.2666 12.1609 49.5362 12.1468C49.7917 12.1326 50.033 12.1042 50.26 12.0759C50.4871 12.0475 50.6574 12.0192 50.771 12.005C51.1684 11.92 51.4238 11.7641 51.5657 11.5373C51.7192 11.2718 51.8159 10.9774 51.8496 10.6727L52.8572 3.50108C52.8714 3.27431 52.7721 3.16092 52.5166 3.16092ZM60.4217 8.26329C60.385 8.10522 60.3175 7.95592 60.223 7.82392C60.127 7.68548 60.0068 7.56546 59.8682 7.46958C59.687 7.35162 59.4845 7.26981 59.2722 7.22864L59.2863 7.17195C59.6344 7.05399 59.9436 6.84324 60.1805 6.5625C60.4121 6.2912 60.5902 5.97863 60.7056 5.64124L61.6281 3.44439C61.6544 3.38656 61.6594 3.3213 61.6423 3.26014C61.6323 3.2248 61.6089 3.19471 61.5772 3.17621C61.5454 3.15771 61.5077 3.15223 61.472 3.16092H59.0451C58.9919 3.16218 58.9392 3.17175 58.889 3.18927C58.8211 3.23172 58.7707 3.2971 58.747 3.37352L57.9948 5.07431C57.7962 5.52785 57.5833 5.82549 57.3562 5.96722C57.1359 6.10769 56.8796 6.18152 56.6182 6.17982H56.1782L56.5614 3.43021C56.5898 3.30265 56.5756 3.23179 56.533 3.20344C56.4576 3.16889 56.3745 3.15425 56.2918 3.16092H53.9358C53.8625 3.15846 53.7897 3.17301 53.723 3.20344C53.6889 3.23095 53.6612 3.26542 53.6416 3.30454C53.622 3.34366 53.611 3.38651 53.6094 3.43021L52.4457 11.7074C52.4173 11.8349 52.4315 11.9058 52.4882 11.9342C52.5544 11.9661 52.6277 11.9807 52.7011 11.9767H55.057C55.1397 11.9817 55.2224 11.9672 55.2983 11.9342C55.3297 11.9053 55.3548 11.8703 55.3719 11.8312C55.389 11.7922 55.3978 11.75 55.3977 11.7074L55.8518 8.47588H56.5188C56.794 8.46379 57.0676 8.52235 57.3136 8.64596C57.5123 8.75935 57.64 8.98612 57.6968 9.3121L58.08 11.7641C58.0868 11.8218 58.1158 11.8747 58.1607 11.9117C58.2057 11.9487 58.2632 11.9669 58.3213 11.9625H60.7056C60.8333 11.9625 60.9043 11.92 60.9185 11.8491C60.9339 11.784 60.9434 11.7175 60.9468 11.6507L60.4785 8.74518C60.4932 8.58235 60.4739 8.41825 60.4217 8.26329ZM68.1423 9.28376C68.114 9.12785 68.0714 9.04281 68.0004 9.04281C67.8987 9.0459 67.7981 9.06503 67.7024 9.09951C67.4138 9.18857 67.1199 9.25957 66.8224 9.3121C66.5005 9.38015 66.1722 9.41342 65.8432 9.41132C65.3465 9.41132 65.02 9.29793 64.8497 9.05699C64.6794 8.81604 64.5943 8.47588 64.5943 8.03651C64.5943 7.29951 64.722 6.7184 64.9916 6.27903C65.2613 5.85384 65.6871 5.62706 66.2831 5.62706C66.4925 5.62789 66.7015 5.64686 66.9076 5.68376C67.1631 5.72628 67.4469 5.7688 67.7591 5.82549C67.9295 5.85384 68.0572 5.88218 68.1565 5.89636C68.2559 5.91053 68.341 5.82549 68.3978 5.65541L68.9371 3.95462C68.989 3.84412 69.0039 3.71991 68.9797 3.60029C68.9308 3.51179 68.8494 3.44573 68.7526 3.41604C68.3502 3.24688 67.9318 3.11868 67.5037 3.03336C67.0414 2.93853 66.5706 2.89104 66.0986 2.89163C65.4596 2.88655 64.8249 2.99699 64.2253 3.21762C63.668 3.42479 63.1673 3.75977 62.7635 4.19557C62.3299 4.6869 62.0101 5.2676 61.8268 5.89636C61.5828 6.7097 61.4679 7.55617 61.4862 8.40502C61.4862 10.8995 62.6925 12.1468 65.1194 12.1468C65.3465 12.1468 65.5877 12.1326 65.8716 12.1184C66.1412 12.0901 66.4251 12.0617 66.7231 12.005C67.0209 11.9543 67.3149 11.8833 67.603 11.7924C67.8979 11.7087 68.1832 11.5947 68.4546 11.4523C68.6391 11.3672 68.7242 11.2822 68.7242 11.2113C68.7242 11.1405 68.71 11.0412 68.6958 10.9137L68.1423 9.28376ZM71.9317 8.49006C72.1588 8.5184 72.3858 8.53258 72.5987 8.54675C72.8116 8.56092 73.0245 8.56092 73.2374 8.56092C74.5573 8.56092 75.5649 8.30581 76.2603 7.79557C76.9558 7.28533 77.3106 6.53415 77.3106 5.54203C77.3267 5.10243 77.2237 4.66663 77.0125 4.28061C76.8238 3.94583 76.5496 3.66705 76.2177 3.47273C75.863 3.2637 75.4737 3.1197 75.0682 3.04754C74.6191 2.96164 74.1629 2.91893 73.7057 2.91998C72.1588 2.91998 70.9524 3.41604 70.1009 4.40817C69.2493 5.40029 68.8094 6.84596 68.8094 8.731C68.7986 9.22869 68.8608 9.72528 68.9939 10.205C69.1078 10.6078 69.3171 10.9772 69.6041 11.2822C69.9135 11.5907 70.2935 11.8193 70.7111 11.9483C71.2581 12.1147 71.8285 12.1912 72.4 12.1751C72.6413 12.1751 72.9109 12.1609 73.2232 12.1326C73.5474 12.1042 73.8696 12.0568 74.1883 11.9908C74.5095 11.9226 74.8269 11.8375 75.1391 11.7357C75.417 11.649 75.6837 11.5301 75.9339 11.3814C76.0088 11.3357 76.0759 11.2782 76.1326 11.2113C76.1569 11.1737 76.171 11.1304 76.1734 11.0856C76.1759 11.0409 76.1667 10.9963 76.1468 10.9562L75.5081 9.38297C75.4993 9.34755 75.4834 9.31426 75.4615 9.28505C75.4395 9.25584 75.412 9.23131 75.3804 9.21289C75.3236 9.18455 75.2243 9.21289 75.0682 9.26959C74.761 9.37202 74.4482 9.45719 74.1315 9.5247C73.8565 9.58647 73.5759 9.61972 73.2941 9.62392C73.0813 9.62392 72.8968 9.60974 72.7264 9.59557C72.5786 9.58517 72.4341 9.54669 72.3007 9.48218C72.1805 9.42385 72.0813 9.32978 72.0168 9.21289C71.9429 9.06341 71.9087 8.89748 71.9175 8.731C71.9143 8.69263 71.9191 8.65401 71.9317 8.61762V8.49006ZM72.6839 5.64124C72.9193 5.42482 73.2297 5.30797 73.5496 5.31525C73.8334 5.31525 74.0179 5.37195 74.1173 5.48533C74.2155 5.59451 74.2709 5.73544 74.2734 5.88218C74.2779 6.00516 74.2485 6.12701 74.1884 6.23446C74.1284 6.34191 74.0399 6.43086 73.9328 6.49163C73.7057 6.63336 73.2658 6.70423 72.6129 6.70423H72.4C72.3335 6.70609 72.2669 6.70134 72.2013 6.69006C72.3007 6.20817 72.4568 5.86801 72.6839 5.64124ZM85.9537 3.43021C85.8401 3.26014 85.5705 3.1751 85.1305 3.1751H80.2767C79.8226 3.1751 79.5246 3.26014 79.3543 3.41604C79.1981 3.57195 79.0846 3.84124 79.0278 4.23809L78.7298 6.15147C78.6162 6.84596 78.5027 7.41289 78.3892 7.85226C78.3016 8.22628 78.1681 8.58807 77.9918 8.92943C77.8529 9.18977 77.6592 9.41701 77.4241 9.59557C77.169 9.78307 76.8927 9.94005 76.6009 10.0633C76.4768 10.1083 76.375 10.1998 76.3171 10.3184C76.3067 10.4382 76.3212 10.5588 76.3597 10.6727L76.8848 12.1751C76.9036 12.2804 76.9589 12.3757 77.0409 12.4444C77.1119 12.5011 77.2396 12.5011 77.4099 12.4444C78.05 12.2526 78.6575 11.966 79.2123 11.594C79.6665 11.268 80.0442 10.8472 80.3193 10.3609C80.6185 9.81364 80.8383 9.22667 80.9722 8.61762C81.1283 7.9373 81.2844 7.12943 81.4405 6.19399L81.5399 5.57037H82.9023L82.065 11.6223C82.0393 11.7159 82.0442 11.8153 82.0792 11.9058C82.1076 11.9625 82.2069 12.005 82.3772 12.005H84.577C84.6905 12.0158 84.8046 11.991 84.9034 11.9342C84.9652 11.8522 84.9999 11.7532 85.0028 11.6507L86.053 4.29478C86.0956 3.88376 86.0672 3.60029 85.9537 3.43021ZM93.5607 6.20817C93.2791 5.92665 92.9334 5.71753 92.5531 5.59872C92.0379 5.44402 91.5013 5.37226 90.9635 5.38612C90.5065 5.38899 90.0507 5.43168 89.6011 5.51368L89.8849 3.50108C89.9125 3.4125 89.9075 3.31699 89.8707 3.23179C89.8424 3.18927 89.7288 3.16092 89.5301 3.16092H87.3587C87.3084 3.15529 87.2574 3.15963 87.2088 3.17368C87.1601 3.18773 87.1147 3.21123 87.0752 3.24282C87.0356 3.27442 87.0027 3.31349 86.9783 3.35781C86.9539 3.40212 86.9385 3.45081 86.9329 3.50108L85.9111 10.8286C85.8826 10.945 85.8826 11.0666 85.9111 11.183C85.935 11.2457 85.9712 11.303 86.0175 11.3517C86.0638 11.4003 86.1193 11.4393 86.1807 11.4664C86.72 11.7409 87.2998 11.9275 87.898 12.0192C88.5453 12.1263 89.2005 12.1784 89.8565 12.1751C90.7365 12.1751 91.4745 12.0475 92.0422 11.7924C92.5574 11.5746 93.0178 11.2454 93.3904 10.8286C93.7108 10.4633 93.948 10.0329 94.0859 9.56722C94.211 9.14844 94.2779 8.71445 94.2845 8.27746C94.2854 7.89411 94.2328 7.5125 94.1284 7.1436C94.0069 6.79554 93.8135 6.47685 93.5607 6.20817ZM91.0771 8.85856C91.0312 8.99424 90.9589 9.11949 90.8642 9.22707C90.7518 9.34687 90.6167 9.44322 90.4668 9.51053C90.278 9.58883 90.0751 9.62743 89.8707 9.62392C89.757 9.62519 89.6433 9.62045 89.5301 9.60974C89.3681 9.60244 89.2069 9.58349 89.0476 9.55305L89.303 7.97982C89.4892 7.91331 89.6787 7.85654 89.8707 7.80974C90.039 7.77531 90.21 7.75633 90.3817 7.75305C90.8926 7.75305 91.1622 7.99399 91.1622 8.46171C91.1475 8.59655 91.119 8.72953 91.0771 8.85856ZM107.384 2.50895L107.654 0.623914C107.682 0.439662 107.668 0.312103 107.625 0.283757C107.545 0.2333 107.449 0.213189 107.356 0.227064H98.7551C98.6615 0.217242 98.5672 0.237076 98.4855 0.283757C98.4059 0.378695 98.3653 0.500262 98.3719 0.623914L98.1023 2.50895C98.0597 2.76407 98.159 2.89163 98.3861 2.89163H101.111L99.8621 11.6223C99.8337 11.8633 99.9473 11.9767 100.203 11.9767H102.53C102.644 11.9919 102.76 11.9669 102.857 11.9058C102.91 11.8195 102.944 11.7228 102.956 11.6223L104.205 2.89163H107.001C107.2 2.89163 107.341 2.76407 107.384 2.50895ZM115.616 3.1751H113.004C112.777 3.1751 112.635 3.20344 112.564 3.27431C112.468 3.37773 112.391 3.49778 112.337 3.62864L111.273 6.32155L110.137 9.18455H110.038L109.74 6.39242L109.456 3.57195C109.428 3.38769 109.385 3.28848 109.314 3.24596C109.173 3.19574 109.023 3.17641 108.874 3.18927H106.561C106.471 3.189 106.382 3.21352 106.305 3.26014C106.234 3.31683 106.22 3.41604 106.263 3.57195L107.753 10.7436C107.779 10.9509 107.852 11.1496 107.966 11.3247C108.051 11.4381 108.236 11.4948 108.534 11.4948H109.045L108.69 12.2318C108.608 12.4087 108.513 12.5793 108.406 12.742C108.334 12.8566 108.237 12.9535 108.122 13.0255C108.022 13.0968 107.904 13.1408 107.781 13.1531C107.622 13.1789 107.46 13.1884 107.299 13.1814C107.185 13.1838 107.071 13.179 106.958 13.1672C106.845 13.1531 106.703 13.1389 106.533 13.1105C106.43 13.0904 106.325 13.0809 106.22 13.0822C106.163 13.0822 106.107 13.1672 106.078 13.3231L105.695 14.9389C105.663 15.0446 105.658 15.1568 105.681 15.2649C105.712 15.3027 105.751 15.3336 105.795 15.3556C105.839 15.3775 105.887 15.3901 105.936 15.3924C106.278 15.4764 106.624 15.5426 106.972 15.5908C107.278 15.6296 107.587 15.6486 107.895 15.6475C108.279 15.6535 108.662 15.6009 109.03 15.4916C109.337 15.4021 109.626 15.2581 109.882 15.0664C110.134 14.8756 110.355 14.646 110.535 14.3861C110.731 14.0989 110.902 13.7954 111.046 13.479L115.814 3.48691C115.899 3.28848 115.857 3.1751 115.616 3.1751ZM123.45 3.43021C123.336 3.26014 123.067 3.1751 122.627 3.1751H117.773C117.319 3.1751 117.021 3.26014 116.85 3.41604C116.694 3.57195 116.581 3.84124 116.524 4.23809L116.226 6.15147C116.112 6.84596 115.999 7.41289 115.885 7.85226C115.798 8.22628 115.664 8.58807 115.488 8.92943C115.349 9.18977 115.155 9.41701 114.92 9.59557C114.665 9.78307 114.389 9.94005 114.097 10.0633C113.973 10.1083 113.871 10.1998 113.813 10.3184C113.795 10.4382 113.81 10.5605 113.856 10.6727L114.381 12.1751C114.4 12.2804 114.455 12.3757 114.537 12.4444C114.608 12.5011 114.736 12.5011 114.906 12.4444C115.546 12.2526 116.154 11.966 116.708 11.594C117.163 11.268 117.54 10.8472 117.815 10.3609C118.115 9.81364 118.334 9.22667 118.468 8.61762C118.624 7.9373 118.78 7.12943 118.937 6.19399L119.036 5.57037H120.398L119.561 11.6223C119.535 11.7159 119.54 11.8153 119.575 11.9058C119.604 11.9625 119.703 12.005 119.873 12.005H122.073C122.187 12.0158 122.301 11.991 122.399 11.9342C122.461 11.8522 122.496 11.7532 122.499 11.6507L123.549 4.29478C123.606 3.88376 123.577 3.60029 123.45 3.43021ZM128.289 5.64124C128.499 5.64207 128.708 5.66104 128.914 5.69793C129.169 5.74045 129.453 5.78297 129.765 5.83966C129.936 5.86801 130.063 5.89636 130.163 5.91053C130.262 5.9247 130.347 5.83966 130.404 5.66958L130.943 3.9688C130.995 3.8583 131.01 3.73408 130.986 3.61447C130.937 3.52597 130.856 3.4599 130.759 3.43021C130.356 3.26106 129.938 3.13285 129.51 3.04754C129.048 2.95271 128.577 2.90522 128.105 2.9058C127.466 2.90072 126.831 3.01116 126.231 3.23179C125.674 3.43897 125.173 3.77394 124.77 4.20974C124.336 4.70108 124.016 5.28177 123.833 5.91053C123.589 6.72387 123.474 7.57034 123.492 8.41919C123.492 10.9137 124.699 12.1609 127.126 12.1609C127.353 12.1609 127.594 12.1468 127.878 12.1326C128.147 12.1042 128.431 12.0759 128.729 12.0192C129.027 11.9685 129.321 11.8975 129.609 11.8066C129.904 11.7228 130.189 11.6088 130.461 11.4664C130.645 11.3814 130.73 11.2964 130.73 11.2255C130.73 11.1546 130.716 11.0554 130.702 10.9279L130.163 9.26959C130.134 9.11368 130.092 9.02864 130.021 9.02864C129.919 9.03173 129.818 9.05086 129.723 9.08533C129.434 9.17439 129.14 9.2454 128.843 9.29793C128.521 9.36598 128.193 9.39924 127.864 9.39714C127.367 9.39714 127.04 9.28376 126.87 9.04281C126.7 8.80187 126.615 8.46171 126.615 8.02234C126.615 7.28533 126.742 6.70423 127.012 6.26486C127.267 5.85384 127.693 5.64124 128.289 5.64124Z" fill="black"/>
<path d="M31.6397 17.986L31.2424 18.5387H31.214L31.3843 18.0285L32.0513 14.882H31.512L30.5186 19.5167H30.8592L33.6267 16.4411L34.0241 15.8883H34.0524L33.8963 16.4269L33.2435 19.5167H33.7828L34.762 14.882H34.4214L31.6397 17.986ZM37.1322 17.5891H35.6987L35.9826 16.2143H35.4859L34.7762 19.5167H35.273L35.5852 18.0568H37.0186L36.7064 19.5167H37.2031L37.9127 16.2143H37.416L37.1322 17.5891ZM40.1835 16.1293C39.946 16.1301 39.7122 16.1884 39.5023 16.2993C39.2717 16.41 39.0719 16.5755 38.9204 16.7812C38.7436 17.0056 38.609 17.2601 38.523 17.5324C38.4173 17.8573 38.3646 18.1971 38.3669 18.5387C38.3671 18.6591 38.3862 18.7786 38.4237 18.893C38.4542 19.0178 38.5124 19.134 38.594 19.2332C38.68 19.3439 38.7921 19.4316 38.9204 19.4883C39.0899 19.5632 39.2746 19.5972 39.4597 19.5875C39.5409 19.5859 39.6217 19.5764 39.701 19.5592C39.7945 19.5439 39.8853 19.5152 39.9706 19.4741C40.0594 19.445 40.1449 19.407 40.2261 19.3608C40.3127 19.319 40.3937 19.2666 40.4674 19.2049L40.3396 18.8789C40.2277 18.9518 40.1089 19.0136 39.9848 19.0631C39.8563 19.1237 39.7152 19.1529 39.5732 19.1482C39.4817 19.1536 39.3901 19.1372 39.3062 19.1002C39.2223 19.0632 39.1484 19.0068 39.0907 18.9356C38.9566 18.751 38.8913 18.5253 38.9062 18.2978C38.9114 18.0725 38.9448 17.8487 39.0055 17.6316C39.0707 17.4343 39.1563 17.2443 39.261 17.0647C39.3584 16.9063 39.4892 16.7708 39.6442 16.6678C39.7707 16.5708 39.9247 16.5163 40.0842 16.5119C40.2037 16.5112 40.3229 16.5255 40.439 16.5545C40.5332 16.5741 40.6241 16.6075 40.7086 16.6537L40.8931 16.2426C40.8002 16.1928 40.6994 16.1592 40.5951 16.1434C40.4815 16.1434 40.3538 16.1293 40.1835 16.1293ZM44.9947 16.1293C44.8777 16.1309 44.762 16.1549 44.6541 16.2001C44.5389 16.2376 44.4291 16.29 44.3277 16.356C44.227 16.4237 44.132 16.4996 44.0438 16.5828L43.8025 16.8238C43.8068 16.6439 43.773 16.4652 43.7032 16.2993C43.6582 16.2373 43.5981 16.1878 43.5285 16.1556C43.459 16.1233 43.3823 16.1094 43.3058 16.1151C43.1703 16.1167 43.0361 16.1407 42.9084 16.186C42.7921 16.2205 42.682 16.2731 42.582 16.3419C42.4836 16.4012 42.393 16.4726 42.3124 16.5545C42.2272 16.6395 42.1562 16.7104 42.0711 16.7812H42.0427L42.0853 16.2143H41.7305L41.0209 19.5167H41.5176L41.9575 17.3907C42.0046 17.2961 42.0669 17.2099 42.142 17.1356C42.2272 17.0505 42.2982 16.9513 42.3975 16.8663C42.4969 16.7812 42.5962 16.7104 42.6955 16.6395C42.7951 16.5834 42.9076 16.5541 43.022 16.5545C43.0638 16.5507 43.1059 16.5564 43.1452 16.5711C43.1845 16.5858 43.22 16.6092 43.249 16.6395C43.2975 16.7208 43.3221 16.8142 43.32 16.9088C43.3163 17.0132 43.3069 17.1173 43.2916 17.2206C43.2727 17.3594 43.2443 17.4967 43.2065 17.6316L42.8091 19.5025H43.3058L43.7316 17.419C43.781 17.3172 43.843 17.222 43.9161 17.1356C44.0012 17.0363 44.0864 16.9371 44.1715 16.8521C44.2647 16.7687 44.3644 16.6929 44.4696 16.6253C44.5576 16.5666 44.6618 16.5369 44.7676 16.5403C44.8117 16.5353 44.8563 16.5403 44.8981 16.555C44.9399 16.5698 44.9778 16.5938 45.0089 16.6253C45.0684 16.7021 45.0986 16.7976 45.094 16.8946C45.0916 16.9803 45.0821 17.0656 45.0657 17.1497C45.0515 17.2489 45.0231 17.3765 44.9947 17.4899L44.5831 19.4741H45.0798L45.4914 17.4899C45.5512 17.2534 45.5845 17.0109 45.5908 16.7671C45.6095 16.5786 45.5535 16.3903 45.4347 16.2426C45.3016 16.1643 45.1491 16.125 44.9947 16.1293ZM48.9969 16.6537C48.9639 16.5385 48.9057 16.432 48.8266 16.3419C48.7596 16.2683 48.6772 16.2103 48.5853 16.1718C48.4914 16.1313 48.3896 16.1119 48.2873 16.1151C48.1666 16.112 48.0463 16.1312 47.9325 16.1718C47.8281 16.2076 47.7281 16.2551 47.6345 16.3135C47.5431 16.3766 47.4576 16.4477 47.379 16.5261C47.2938 16.6112 47.2371 16.682 47.1661 16.7671H47.1377L47.1803 16.2001H46.8397L45.8462 20.8348H46.343L46.6268 19.46C46.6986 19.5085 46.7817 19.5378 46.8681 19.545C46.9983 19.5755 47.1318 19.5898 47.2655 19.5875C47.4892 19.5847 47.7087 19.5262 47.9041 19.4174C48.1248 19.2979 48.3181 19.1338 48.4718 18.9356C48.6562 18.7034 48.7957 18.4391 48.8834 18.156C48.989 17.8214 49.0417 17.4723 49.0395 17.1214C49.0492 16.9642 49.0349 16.8065 48.9969 16.6537ZM48.4008 17.986C48.3303 18.2108 48.2301 18.4253 48.1028 18.6237C48.0032 18.7901 47.8612 18.927 47.6912 19.0206C47.54 19.1083 47.3693 19.157 47.1945 19.1623C47.1075 19.1632 47.021 19.1488 46.939 19.1198C46.856 19.0879 46.7754 19.05 46.6978 19.0064L47.0242 17.4474C47.0735 17.3486 47.1305 17.2539 47.1945 17.1639C47.2672 17.0631 47.3479 16.9683 47.4358 16.8804C47.5287 16.7925 47.6283 16.7119 47.7338 16.6395C47.8359 16.5768 47.9548 16.5471 48.0744 16.5545C48.1388 16.5528 48.2025 16.5676 48.2596 16.5974C48.3168 16.6271 48.3653 16.6709 48.4008 16.7245C48.4815 16.8561 48.5164 17.0105 48.5002 17.1639C48.5198 17.4417 48.4861 17.7208 48.4008 17.986ZM51.807 16.2001L50.7142 18.3403L50.4729 18.9781H50.4303L50.3878 18.3403L50.0613 16.2001H49.522L50.0897 19.5025C49.9812 19.7441 49.8377 19.9686 49.664 20.1686C49.6163 20.2252 49.5579 20.2719 49.4921 20.3059C49.4264 20.34 49.3546 20.3607 49.2808 20.3671C49.2277 20.3645 49.1752 20.355 49.1247 20.3387L48.9685 20.7923C49.012 20.8196 49.0601 20.8388 49.1105 20.8489C49.1759 20.8618 49.2426 20.8666 49.3092 20.8631C49.4529 20.8569 49.5914 20.8075 49.7065 20.7214C49.8501 20.6098 49.9747 20.4758 50.0755 20.3245C50.2066 20.1488 50.3252 19.9641 50.4303 19.7718C50.5439 19.5592 50.6574 19.3608 50.771 19.134L52.3321 16.186H51.7928V16.2001H51.807ZM54.3474 17.6741L54.0778 18.071H54.0636L53.9642 17.6883L53.4107 16.2001H52.9566L52.247 19.5025H52.7153L53.1269 17.5324L53.212 16.9088H53.2404L53.3398 17.419L53.8649 18.723H54.0352L55.0712 17.419L55.4118 16.9088H55.4402L55.2699 17.5324L54.8583 19.5025H55.3551L56.0647 16.2001H55.5112L54.3474 17.6741ZM58.9173 16.3702C58.8371 16.2924 58.74 16.2342 58.6335 16.2001C58.5016 16.1524 58.3622 16.1284 58.2219 16.1293C57.9956 16.1337 57.7729 16.1869 57.5691 16.2852C57.3514 16.3907 57.1617 16.5461 57.0156 16.7387C56.839 16.9527 56.7042 17.1979 56.6182 17.4615C56.5113 17.7764 56.4585 18.1071 56.4621 18.4395C56.4418 18.7467 56.5381 19.0503 56.7317 19.2899C56.9162 19.5025 57.1717 19.5875 57.5265 19.5875C57.7427 19.5812 57.9572 19.5479 58.1651 19.4883C58.3663 19.4238 58.5539 19.3229 58.7186 19.1907L58.5625 18.8789C58.448 18.9678 58.3181 19.035 58.1793 19.0773C58.0076 19.1432 57.8238 19.1722 57.64 19.1623C57.5395 19.1676 57.4392 19.1484 57.3478 19.1064C57.2563 19.0644 57.1764 19.001 57.1149 18.9214C56.9709 18.6887 56.9155 18.412 56.9588 18.1419C56.973 18.0568 56.9872 17.986 57.0014 17.9009C57.0723 17.9009 57.1149 17.9151 57.1859 17.9151H57.3562C57.9381 17.9151 58.3922 17.83 58.6903 17.6458C58.8259 17.5758 58.9399 17.4702 59.0199 17.3403C59.1 17.2105 59.143 17.0613 59.1444 16.9088C59.1476 16.8066 59.1282 16.705 59.0876 16.6112C59.0441 16.5223 58.9866 16.441 58.9173 16.3702ZM58.4916 17.2915C58.3845 17.3805 58.2582 17.4436 58.1226 17.4757C57.9613 17.5231 57.794 17.547 57.6258 17.5466C57.4413 17.5608 57.271 17.5608 57.1007 17.5608C57.1706 17.2862 57.3071 17.0331 57.4981 16.8238C57.671 16.6628 57.9004 16.5762 58.1368 16.5828C58.2192 16.5806 58.3013 16.595 58.378 16.6253C58.4306 16.6437 58.4789 16.6727 58.5199 16.7104C58.5578 16.7457 58.587 16.7894 58.6051 16.8379C58.6198 16.8791 58.6294 16.922 58.6335 16.9655C58.6326 17.0265 58.6196 17.0867 58.5952 17.1427C58.5709 17.1986 58.5356 17.2492 58.4916 17.2915ZM61.7558 17.5891H60.3224L60.6062 16.2143H60.1095L59.3999 19.5167H59.8966L60.2088 18.0568H61.6564L61.3442 19.5167H61.8409L62.5506 16.2143H62.0538L61.7558 17.5891ZM66.8224 16.1293C66.7054 16.1309 66.5898 16.1549 66.4818 16.2001C66.3666 16.2376 66.2569 16.29 66.1554 16.356C66.0547 16.4237 65.9598 16.4996 65.8716 16.5828L65.6303 16.8238C65.6346 16.6439 65.6007 16.4652 65.5309 16.2993C65.486 16.2373 65.4258 16.1878 65.3563 16.1556C65.2867 16.1233 65.21 16.1094 65.1336 16.1151C64.9981 16.1167 64.8638 16.1407 64.7362 16.186C64.6199 16.2205 64.5097 16.2731 64.4098 16.3419C64.3113 16.4012 64.2207 16.4726 64.1401 16.5545C64.0549 16.6395 63.984 16.7104 63.8988 16.7812H63.8704L63.913 16.2143H63.5582L62.8628 19.5308H63.3595L63.7995 17.4049C63.8465 17.3103 63.9089 17.2241 63.984 17.1497C64.0691 17.0647 64.1401 16.9655 64.2394 16.8804C64.3388 16.7954 64.4381 16.7245 64.5375 16.6537C64.6371 16.5975 64.7496 16.5682 64.8639 16.5686C64.9057 16.5649 64.9479 16.5705 64.9872 16.5853C65.0265 16.6 65.062 16.6234 65.091 16.6537C65.1395 16.735 65.1641 16.8283 65.1619 16.923C65.1583 17.0273 65.1488 17.1314 65.1336 17.2348C65.1147 17.3736 65.0862 17.5109 65.0484 17.6458L64.651 19.5167H65.1478L65.5735 17.4332C65.623 17.3314 65.685 17.2362 65.758 17.1497C65.8432 17.0505 65.9283 16.9513 66.0135 16.8663C66.1066 16.7829 66.2063 16.7071 66.3115 16.6395C66.3995 16.5808 66.5038 16.551 66.6096 16.5545C66.6536 16.5494 66.6982 16.5545 66.74 16.5692C66.7818 16.5839 66.8197 16.608 66.8508 16.6395C66.9064 16.7183 66.9361 16.8124 66.936 16.9088C66.9335 16.9945 66.924 17.0798 66.9076 17.1639C66.8934 17.2631 66.865 17.3907 66.8366 17.5041L66.4251 19.4883H66.9218L67.3334 17.5041C67.3931 17.2675 67.4264 17.0251 67.4327 16.7812C67.4553 16.695 67.4557 16.6045 67.4338 16.5182C67.4119 16.4318 67.3685 16.3523 67.3075 16.2873C67.2466 16.2222 67.1702 16.1735 67.0853 16.1459C67.0005 16.1183 66.9101 16.1126 66.8224 16.1293ZM69.519 17.4332C69.405 17.4368 69.2913 17.4462 69.1784 17.4615C69.0766 17.4735 68.9766 17.4973 68.8803 17.5324L69.1926 16.2285H68.6958L68.1281 18.7797C68.11 18.8587 68.1005 18.9395 68.0997 19.0206C68.0962 19.0974 68.1097 19.174 68.1391 19.245C68.1685 19.3161 68.2132 19.3798 68.2701 19.4316C68.4246 19.5479 68.6165 19.6034 68.8094 19.5875C69.0019 19.5892 69.1935 19.5605 69.3771 19.5025C69.5612 19.4417 69.7338 19.3507 69.888 19.2332C70.0403 19.114 70.166 18.9644 70.257 18.7938C70.3488 18.6037 70.3973 18.3955 70.3989 18.1844C70.4021 18.0903 70.3862 17.9966 70.3521 17.9089C70.3179 17.8212 70.2662 17.7413 70.2002 17.6741C70.0725 17.4899 69.8312 17.4332 69.519 17.4332ZM69.7886 18.6096C69.7386 18.714 69.6658 18.806 69.5757 18.8789C69.4858 18.9616 69.3794 19.0244 69.2635 19.0631C69.1411 19.1097 69.0113 19.1337 68.8803 19.134C68.8365 19.1364 68.7926 19.1301 68.7512 19.1155C68.7098 19.1009 68.6717 19.0783 68.6391 19.0489C68.6133 19.0232 68.5936 18.992 68.5813 18.9577C68.569 18.9234 68.5645 18.8868 68.5681 18.8505V18.7938C68.5671 18.7694 68.572 18.7451 68.5823 18.723L68.7526 17.9293C68.9191 17.861 69.0978 17.8273 69.2777 17.83C69.4334 17.8119 69.5902 17.8523 69.7177 17.9434C69.7575 17.9845 69.7882 18.0335 69.8078 18.0872C69.8274 18.141 69.8353 18.1982 69.8312 18.2552C69.8501 18.3139 69.856 18.3759 69.8487 18.4371C69.8413 18.4982 69.8209 18.5571 69.7886 18.6096ZM70.6402 19.5167H71.1369L71.8465 16.2143H71.3498L70.6402 19.5167ZM76.8422 16.6678C76.8445 16.4289 76.8159 16.1908 76.757 15.9592C76.7093 15.746 76.6121 15.5469 76.4732 15.3781C76.3334 15.2048 76.1531 15.0685 75.9481 14.9812C75.6895 14.8844 75.4152 14.8364 75.1391 14.8395L75.054 15.2647C75.3836 15.2448 75.7085 15.3513 75.9623 15.5623C76.0758 15.6616 76.1672 15.7835 76.2308 15.9202C76.2943 16.0569 76.3286 16.2054 76.3313 16.356H76.2887C76.2215 16.3063 76.1438 16.2723 76.0616 16.2568C75.9461 16.2252 75.8265 16.2109 75.7068 16.2143C75.4587 16.2165 75.215 16.2798 74.9972 16.3986C74.782 16.5208 74.5975 16.6904 74.4579 16.8946C74.3108 17.1082 74.1961 17.3422 74.1173 17.5891C74.0369 17.8507 73.9986 18.1234 74.0037 18.397C73.9851 18.7173 74.0697 19.0352 74.245 19.3041C74.4153 19.5308 74.6708 19.63 75.0398 19.63C75.2853 19.6278 75.5256 19.5593 75.7352 19.4316C75.9603 19.2869 76.1496 19.0931 76.2887 18.8647C76.4628 18.5789 76.592 18.2683 76.6719 17.9434C76.787 17.528 76.8443 17.0988 76.8422 16.6678ZM76.2461 17.6175C76.214 17.8772 76.1422 18.1306 76.0332 18.3686C75.9599 18.5856 75.833 18.7806 75.6642 18.9356C75.5932 19.0112 75.5075 19.0715 75.4123 19.113C75.3172 19.1544 75.2146 19.176 75.1107 19.1765C75.0258 19.181 74.9413 19.1623 74.8662 19.1223C74.7912 19.0823 74.7285 19.0227 74.685 18.9497C74.5931 18.7804 74.5489 18.5894 74.5572 18.397C74.555 18.1534 74.5836 17.9105 74.6424 17.6741C74.6976 17.4754 74.7787 17.2848 74.8837 17.1072C74.9755 16.9615 75.0963 16.8361 75.2385 16.7387C75.3599 16.6563 75.5032 16.6119 75.65 16.6112C75.7811 16.6101 75.9112 16.6341 76.0332 16.682C76.1336 16.726 76.2213 16.7942 76.2887 16.8804C76.2934 17.1268 76.2792 17.3732 76.2461 17.6175ZM82.7604 16.186C82.6752 16.1718 82.5901 16.1576 82.5191 16.1434C82.4345 16.132 82.3491 16.1273 82.2637 16.1293C82.0619 16.1287 81.8611 16.1573 81.6676 16.2143C81.4899 16.2734 81.3223 16.3594 81.1708 16.4694C81.0321 16.5779 80.9163 16.7128 80.8302 16.8663C80.7416 17.0368 80.6977 17.227 80.7025 17.419C80.6988 17.5098 80.7132 17.6004 80.7449 17.6855C80.7766 17.7707 80.8249 17.8487 80.887 17.9151C81.0068 18.034 81.1605 18.1132 81.327 18.1419L81.0005 18.3828L80.0355 19.5167H80.6741L81.7385 18.2269L82.2495 18.1419L81.9656 19.5025H82.4623L83.1436 16.271C83.101 16.2568 83.0584 16.2426 82.9875 16.2143C82.9111 16.211 82.8352 16.2015 82.7604 16.186ZM82.3204 17.83C82.2353 17.83 82.1643 17.8442 82.1075 17.8442H81.9089C81.4547 17.8442 81.2134 17.6883 81.2134 17.3623C81.2096 17.2539 81.2292 17.1459 81.2708 17.0456C81.3125 16.9453 81.3752 16.8552 81.4547 16.7812C81.6377 16.6293 81.8696 16.5488 82.1075 16.5545C82.2076 16.5532 82.3075 16.5627 82.4056 16.5828C82.4601 16.5878 82.5108 16.6131 82.5475 16.6537L82.3204 17.83ZM88.0967 16.2852C87.9445 16.1751 87.7593 16.1201 87.5716 16.1293C87.4314 16.1297 87.2922 16.1536 87.16 16.2001C87.0403 16.2375 86.9259 16.2899 86.8194 16.356C86.7235 16.419 86.6333 16.4901 86.5497 16.5686C86.4646 16.6537 86.4078 16.7245 86.3368 16.7954H86.3227L86.351 16.2285H86.0104L85.3008 19.5308H85.7975L86.2375 17.4049C86.2971 17.3014 86.3635 17.2019 86.4362 17.1072C86.5141 17.0109 86.5995 16.9208 86.6917 16.8379C86.7846 16.7557 86.8899 16.6887 87.0039 16.6395C87.1085 16.5832 87.2256 16.554 87.3445 16.5545C87.406 16.5487 87.4681 16.5558 87.5268 16.5753C87.5854 16.5948 87.6394 16.6263 87.6851 16.6678C87.7511 16.7577 87.7814 16.8688 87.7703 16.9797C87.7669 17.0512 87.7574 17.1223 87.7419 17.1923C87.7297 17.274 87.7107 17.3546 87.6851 17.4332L87.2451 19.5308H87.7419L88.2102 17.334C88.2517 17.1765 88.2755 17.0149 88.2812 16.8521C88.2954 16.5828 88.2244 16.3844 88.0967 16.2852ZM91.5454 16.356C91.4784 16.2825 91.396 16.2244 91.3041 16.186C91.2102 16.1455 91.1084 16.1261 91.0061 16.1293C90.8853 16.1262 90.7651 16.1454 90.6513 16.186C90.5481 16.2246 90.4484 16.272 90.3533 16.3277C90.2619 16.3907 90.1764 16.4619 90.0978 16.5403C90.0127 16.6253 89.9559 16.6962 89.8849 16.7812H89.8565L89.8991 16.2143H89.5585L88.565 20.8489H89.0618L89.3456 19.4741C89.4174 19.5227 89.5005 19.5519 89.5869 19.5592C89.7171 19.5897 89.8506 19.6039 89.9843 19.6017C90.208 19.5989 90.4275 19.5404 90.6229 19.4316C90.8436 19.3121 91.0369 19.148 91.1906 18.9497C91.375 18.7176 91.5145 18.4533 91.6022 18.1702C91.7078 17.8355 91.7605 17.4865 91.7583 17.1356C91.76 16.9769 91.736 16.8189 91.6873 16.6678C91.6819 16.5496 91.6311 16.4379 91.5454 16.356H91.5454ZM91.148 17.986C91.0775 18.2108 90.9773 18.4253 90.85 18.6237C90.7504 18.7901 90.6084 18.927 90.4384 19.0206C90.2872 19.1083 90.1165 19.157 89.9417 19.1623C89.8547 19.1632 89.7682 19.1488 89.6862 19.1198C89.6032 19.0879 89.5225 19.05 89.445 19.0064L89.7714 17.4474C89.8207 17.3486 89.8777 17.2539 89.9417 17.1639C90.0144 17.0631 90.095 16.9683 90.183 16.8804C90.2759 16.7925 90.3755 16.7119 90.481 16.6395C90.5831 16.5768 90.702 16.5471 90.8216 16.5545C90.886 16.5528 90.9497 16.5676 91.0068 16.5974C91.0639 16.6271 91.1125 16.6709 91.148 16.7245C91.2287 16.8561 91.2636 17.0105 91.2474 17.1639C91.2458 17.4408 91.2125 17.7166 91.148 17.986ZM94.7954 16.4694C94.711 16.3665 94.6042 16.2842 94.4832 16.2285C94.3368 16.1611 94.1757 16.1319 94.0149 16.1434C93.7772 16.1426 93.543 16.201 93.3336 16.3135C93.1147 16.4298 92.9253 16.5946 92.7801 16.7954C92.6162 17.0206 92.4871 17.269 92.3969 17.5324C92.3021 17.8397 92.2589 18.1606 92.2692 18.482C92.2662 18.6165 92.2853 18.7506 92.326 18.8789C92.3674 19.0064 92.4298 19.1261 92.5105 19.2332C92.5996 19.3407 92.711 19.4278 92.8369 19.4883C92.993 19.5569 93.1636 19.5861 93.3336 19.5734C93.568 19.5692 93.7975 19.5058 94.0007 19.3891C94.2159 19.2669 94.4004 19.0972 94.54 18.893C94.7001 18.6697 94.8201 18.4204 94.8948 18.156C94.9818 17.8567 95.0249 17.5464 95.0225 17.2348C95.0256 17.0956 95.0064 16.9569 94.9658 16.8238C94.9538 16.689 94.8933 16.5631 94.7954 16.4694ZM94.4123 17.986C94.3542 18.1927 94.2733 18.3924 94.171 18.5812C94.0882 18.741 93.9721 18.8812 93.8304 18.9923C93.7144 19.0885 93.5695 19.1434 93.4188 19.1482C93.3291 19.1552 93.2391 19.1393 93.1572 19.1022C93.0753 19.065 93.0041 19.0077 92.9505 18.9356C92.8503 18.7535 92.8012 18.5479 92.8085 18.3403C92.808 18.1062 92.8366 17.8729 92.8937 17.6458C92.9489 17.4471 93.03 17.2565 93.135 17.0789C93.2265 16.925 93.347 16.7903 93.4898 16.682C93.6069 16.5896 93.752 16.5396 93.9013 16.5403C94.1426 16.5403 94.2987 16.6112 94.3697 16.7387C94.4515 16.9061 94.4905 17.0912 94.4832 17.2773C94.497 17.5158 94.4731 17.7549 94.4123 17.986ZM98.528 16.1576C98.4709 16.1553 98.4137 16.16 98.3577 16.1718C98.2861 16.1752 98.2149 16.1846 98.1448 16.2001L98.4145 14.8962H97.9319L97.6623 16.2001C97.3213 16.1363 96.9689 16.1809 96.6546 16.3277C96.4248 16.4329 96.2248 16.5936 96.0728 16.7954C95.896 17.0198 95.7614 17.2743 95.6754 17.5466C95.5805 17.8736 95.5328 18.2124 95.5335 18.5529C95.5199 18.8334 95.6166 19.1081 95.8031 19.3182C95.9876 19.5167 96.2573 19.6159 96.6263 19.6159C96.6834 19.6188 96.7407 19.6141 96.7966 19.6017C96.8533 19.5875 96.8959 19.5734 96.9669 19.5592L96.6972 20.8631H97.1798L97.4494 19.5734C97.5048 19.5927 97.5618 19.6069 97.6197 19.6159C97.6759 19.6261 97.7329 19.6308 97.79 19.63C98.0146 19.6238 98.236 19.5758 98.4429 19.4883C98.6713 19.394 98.8716 19.2427 99.0247 19.0489C99.2089 18.8325 99.3488 18.5821 99.4363 18.3119C99.545 17.9634 99.5977 17.5998 99.5924 17.2348C99.5992 17.098 99.5788 16.9612 99.5326 16.8323C99.4863 16.7034 99.415 16.5849 99.3228 16.4836C99.2227 16.374 99.0994 16.2879 98.962 16.2316C98.8246 16.1752 98.6764 16.15 98.528 16.1576ZM97.0378 19.134C96.9669 19.1482 96.9243 19.1482 96.8675 19.1623C96.7508 19.186 96.63 19.1802 96.516 19.1456C96.402 19.1109 96.2984 19.0485 96.2147 18.9639C96.0996 18.8082 96.0397 18.6188 96.0444 18.4253C96.0421 18.1612 96.0804 17.8983 96.1579 17.6458C96.2222 17.4361 96.3231 17.2393 96.4559 17.0647C96.5631 16.9172 96.6981 16.792 96.8533 16.6962C96.9775 16.6213 97.1199 16.582 97.2649 16.5828C97.3174 16.5791 97.3701 16.5838 97.421 16.597C97.4636 16.6112 97.5062 16.6112 97.563 16.6253L97.0378 19.134ZM98.9254 18.0993C98.8551 18.311 98.7547 18.5115 98.6274 18.6946C98.5202 18.8383 98.385 18.9588 98.23 19.0489C98.0957 19.1244 97.9441 19.1635 97.79 19.1623C97.7423 19.1647 97.6944 19.1599 97.6481 19.1482C97.6041 19.1471 97.5607 19.1375 97.5204 19.1198L98.0597 16.597C98.1108 16.5831 98.163 16.5736 98.2158 16.5686C98.262 16.5562 98.31 16.5514 98.3577 16.5545C98.8402 16.5545 99.0673 16.7812 99.0673 17.2206C99.0641 17.5189 99.0163 17.8151 98.9254 18.0993H98.9254ZM102.559 16.3702C102.478 16.2924 102.381 16.2342 102.275 16.2001C102.143 16.1524 102.004 16.1284 101.863 16.1293C101.637 16.1337 101.414 16.1869 101.21 16.2852C100.993 16.3907 100.803 16.5461 100.657 16.7387C100.48 16.9527 100.345 17.1979 100.259 17.4615C100.153 17.7764 100.1 18.1071 100.103 18.4395C100.083 18.7467 100.179 19.0503 100.373 19.2899C100.558 19.5025 100.813 19.5875 101.168 19.5875C101.384 19.5812 101.599 19.5479 101.806 19.4883C102.008 19.4238 102.195 19.3229 102.36 19.1907L102.204 18.8789C102.089 18.9678 101.959 19.035 101.821 19.0773C101.649 19.1432 101.465 19.1722 101.281 19.1623C101.181 19.1676 101.081 19.1484 100.989 19.1064C100.898 19.0644 100.818 19.001 100.756 18.9214C100.612 18.6887 100.557 18.412 100.6 18.1419C100.614 18.0568 100.628 17.986 100.643 17.9009C100.714 17.9009 100.756 17.9151 100.827 17.9151H100.997C101.579 17.9151 102.034 17.83 102.332 17.6458C102.467 17.5758 102.581 17.4702 102.661 17.3403C102.741 17.2105 102.784 17.0613 102.786 16.9088C102.789 16.8066 102.769 16.705 102.729 16.6112C102.685 16.5223 102.628 16.441 102.559 16.3702ZM102.104 17.2915C101.997 17.3805 101.871 17.4436 101.735 17.4757C101.574 17.5231 101.407 17.547 101.239 17.5466C101.054 17.5608 100.884 17.5608 100.714 17.5608C100.783 17.2862 100.92 17.0331 101.111 16.8238C101.284 16.6628 101.513 16.5762 101.75 16.5828C101.832 16.5806 101.914 16.595 101.991 16.6253C102.044 16.6437 102.092 16.6727 102.133 16.7104C102.171 16.7457 102.2 16.7894 102.218 16.8379C102.233 16.8791 102.242 16.922 102.246 16.9655C102.255 17.0276 102.247 17.091 102.222 17.1485C102.197 17.2061 102.156 17.2555 102.104 17.2915ZM104.986 16.1293C104.748 16.1301 104.514 16.1884 104.304 16.2993C104.074 16.41 103.874 16.5755 103.722 16.7812C103.546 17.0056 103.411 17.2601 103.325 17.5324C103.219 17.8573 103.167 18.1971 103.169 18.5387C103.169 18.6591 103.188 18.7786 103.226 18.893C103.256 19.0178 103.314 19.134 103.396 19.2332C103.482 19.3439 103.594 19.4316 103.722 19.4883C103.892 19.5632 104.077 19.5972 104.262 19.5875C104.343 19.5859 104.424 19.5764 104.503 19.5592C104.596 19.5439 104.687 19.5152 104.773 19.4741C104.861 19.445 104.947 19.407 105.028 19.3608C105.115 19.319 105.196 19.2666 105.269 19.2049L105.142 18.8789C105.03 18.9518 104.911 19.0136 104.787 19.0631C104.658 19.1237 104.517 19.1529 104.375 19.1482C104.284 19.1536 104.192 19.1372 104.108 19.1002C104.024 19.0632 103.95 19.0068 103.893 18.9356C103.759 18.751 103.693 18.5253 103.708 18.2978C103.713 18.0725 103.747 17.8487 103.808 17.6316C103.873 17.4343 103.958 17.2443 104.063 17.0647C104.16 16.9063 104.291 16.7708 104.446 16.6678C104.573 16.5708 104.727 16.5163 104.886 16.5119C105.006 16.5112 105.125 16.5255 105.241 16.5545C105.335 16.5741 105.426 16.6075 105.511 16.6537L105.695 16.2426C105.602 16.1928 105.501 16.1592 105.397 16.1434C105.284 16.1434 105.142 16.1293 104.986 16.1293ZM107.569 16.1293C107.331 16.1301 107.097 16.1884 106.887 16.2993C106.657 16.41 106.457 16.5755 106.305 16.7812C106.129 17.0056 105.994 17.2601 105.908 17.5324C105.802 17.8573 105.75 18.1971 105.752 18.5387C105.752 18.6591 105.771 18.7786 105.809 18.893C105.839 19.0178 105.897 19.134 105.979 19.2332C106.065 19.3439 106.177 19.4316 106.305 19.4883C106.475 19.5632 106.66 19.5972 106.845 19.5875C106.926 19.5859 107.007 19.5764 107.086 19.5592C107.179 19.5439 107.27 19.5152 107.356 19.4741C107.444 19.445 107.53 19.407 107.611 19.3608C107.698 19.319 107.779 19.2666 107.852 19.2049L107.725 18.8789C107.613 18.9518 107.494 19.0136 107.37 19.0631C107.241 19.1237 107.1 19.1529 106.958 19.1482C106.867 19.1536 106.775 19.1372 106.691 19.1002C106.607 19.0632 106.533 19.0068 106.476 18.9356C106.342 18.751 106.276 18.5253 106.291 18.2978C106.296 18.0725 106.33 17.8487 106.391 17.6316C106.456 17.4343 106.541 17.2443 106.646 17.0647C106.743 16.9063 106.874 16.7708 107.029 16.6678C107.156 16.5708 107.31 16.5163 107.469 16.5119C107.589 16.5112 107.708 16.5255 107.824 16.5545C107.918 16.5741 108.009 16.6075 108.094 16.6537L108.278 16.2426C108.185 16.1928 108.084 16.1592 107.98 16.1434C107.881 16.1434 107.739 16.1293 107.569 16.1293ZM110.549 18.3119C110.489 18.4186 110.418 18.5184 110.336 18.6096C110.257 18.7097 110.167 18.8001 110.066 18.8789C109.969 18.9593 109.865 19.0304 109.754 19.0915C109.654 19.146 109.542 19.1751 109.428 19.1765C109.379 19.1837 109.329 19.1768 109.284 19.1568C109.238 19.1367 109.2 19.1042 109.172 19.0631C109.113 18.9703 109.083 18.8615 109.087 18.7513C109.088 18.6413 109.102 18.5319 109.13 18.4253L109.598 16.2285H109.101L108.647 18.3686C108.605 18.5405 108.582 18.7163 108.576 18.893C108.569 18.9982 108.582 19.1039 108.617 19.2037C108.651 19.3035 108.705 19.3955 108.775 19.4741C108.841 19.5285 108.919 19.5672 109.002 19.5875C109.089 19.6165 109.18 19.6309 109.272 19.63C109.402 19.6271 109.532 19.6032 109.655 19.5592C109.776 19.5246 109.89 19.472 109.995 19.4033C110.096 19.3356 110.191 19.2597 110.279 19.1765C110.364 19.0915 110.435 19.0064 110.521 18.9214H110.549V19.545H110.946V19.46C110.945 19.3606 110.949 19.2611 110.96 19.1623C110.975 19.0489 110.989 18.9214 111.003 18.808C111.014 18.6934 111.033 18.5797 111.06 18.4678C111.074 18.3686 111.102 18.2694 111.117 18.1986L111.528 16.2285H111.031L110.549 18.3119ZM114.438 16.4694C114.353 16.3665 114.246 16.2842 114.125 16.2285C113.977 16.1678 113.817 16.1389 113.657 16.1434C113.419 16.1426 113.185 16.201 112.976 16.3135C112.757 16.4298 112.567 16.5946 112.422 16.7954C112.258 17.0206 112.129 17.269 112.039 17.5324C111.951 17.8412 111.908 18.161 111.911 18.482C111.908 18.6165 111.927 18.7506 111.968 18.8789C112.01 19.0064 112.072 19.1261 112.153 19.2332C112.242 19.3407 112.353 19.4278 112.479 19.4883C112.635 19.5569 112.806 19.5861 112.976 19.5734C113.21 19.5692 113.44 19.5058 113.643 19.3891C113.858 19.2669 114.043 19.0972 114.182 18.893C114.342 18.6697 114.462 18.4204 114.537 18.156C114.624 17.8567 114.667 17.5464 114.665 17.2348C114.668 17.0956 114.649 16.9569 114.608 16.8238C114.584 16.6927 114.525 16.5704 114.438 16.4694ZM114.04 17.986C113.982 18.1927 113.901 18.3924 113.799 18.5812C113.716 18.741 113.6 18.8812 113.458 18.9923C113.342 19.0885 113.197 19.1434 113.047 19.1482C112.957 19.1552 112.867 19.1393 112.785 19.1022C112.703 19.065 112.632 19.0077 112.578 18.9356C112.478 18.7535 112.429 18.5479 112.436 18.3403C112.436 18.1062 112.465 17.8729 112.522 17.6458C112.577 17.4471 112.658 17.2565 112.763 17.0789C112.854 16.925 112.975 16.7903 113.118 16.682C113.235 16.5896 113.38 16.5396 113.529 16.5403C113.771 16.5403 113.927 16.6112 113.998 16.7387C114.079 16.9061 114.118 17.0912 114.111 17.2773C114.132 17.5159 114.108 17.7562 114.04 17.986H114.04ZM117.446 17.5891H116.013L116.297 16.2143H115.8L115.09 19.5167H115.587L115.899 18.0568H117.333L117.021 19.5167H117.517L118.227 16.2143H117.73L117.446 17.5891ZM120.98 16.1718C120.83 16.1461 120.678 16.1319 120.526 16.1293C120.222 16.1248 119.923 16.2032 119.66 16.356C119.43 16.5036 119.232 16.6965 119.078 16.923C118.925 17.1637 118.81 17.4267 118.738 17.7025C118.662 17.9842 118.629 18.2755 118.639 18.5671C118.639 19.2615 118.894 19.6017 119.433 19.6017C119.549 19.6048 119.665 19.5856 119.774 19.545C119.877 19.5064 119.977 19.459 120.072 19.4033C120.163 19.3402 120.249 19.2691 120.327 19.1907C120.398 19.1139 120.464 19.0335 120.526 18.9497H120.554L120.64 19.5167H121.009C120.997 19.4656 120.992 19.4131 120.994 19.3608V19.1765C120.994 19.0348 121.009 18.8789 121.023 18.7088C121.036 18.5412 121.065 18.3752 121.108 18.2127L121.52 16.2852C121.343 16.2353 121.162 16.1974 120.98 16.1718ZM120.54 18.4112C120.498 18.4976 120.446 18.5786 120.384 18.6521C120.315 18.7427 120.234 18.8237 120.143 18.893C120.064 18.9686 119.972 19.0308 119.873 19.0773C119.784 19.1332 119.681 19.1626 119.575 19.1623C119.513 19.1655 119.45 19.1513 119.395 19.1212C119.34 19.0912 119.294 19.0466 119.263 18.9923C119.19 18.8627 119.156 18.7153 119.164 18.5671C119.164 18.3236 119.192 18.0811 119.249 17.8442C119.297 17.6163 119.378 17.3966 119.49 17.1923C119.583 17.0068 119.719 16.8464 119.887 16.7245C120.043 16.6074 120.232 16.5429 120.427 16.5403C120.601 16.5348 120.775 16.5637 120.938 16.6253L120.54 18.4112ZM127.651 16.4694C127.566 16.3665 127.459 16.2842 127.338 16.2285C127.192 16.1611 127.031 16.1319 126.87 16.1434C126.632 16.1426 126.398 16.201 126.189 16.3135C125.97 16.4298 125.78 16.5946 125.635 16.7954C125.471 17.0206 125.342 17.269 125.252 17.5324C125.164 17.8412 125.121 18.161 125.124 18.482C125.121 18.6165 125.14 18.7506 125.181 18.8789C125.223 19.0064 125.285 19.1261 125.366 19.2332C125.451 19.3447 125.563 19.4326 125.692 19.4883C125.848 19.5569 126.019 19.5861 126.189 19.5734C126.423 19.5692 126.653 19.5058 126.856 19.3891C127.071 19.2669 127.256 19.0972 127.395 18.893C127.555 18.6697 127.675 18.4204 127.75 18.156C127.837 17.8567 127.88 17.5464 127.878 17.2348C127.881 17.0956 127.862 16.9569 127.821 16.8238C127.803 16.6907 127.743 16.5668 127.651 16.4694ZM127.267 17.986C127.209 18.1927 127.128 18.3924 127.026 18.5812C126.943 18.741 126.827 18.8812 126.686 18.9923C126.57 19.0885 126.425 19.1434 126.274 19.1482C126.184 19.1552 126.094 19.1393 126.012 19.1022C125.93 19.065 125.859 19.0077 125.806 18.9356C125.705 18.7535 125.656 18.5479 125.664 18.3403C125.663 18.1062 125.692 17.8729 125.749 17.6458C125.804 17.4471 125.885 17.2565 125.99 17.0789C126.082 16.925 126.202 16.7903 126.345 16.682C126.462 16.5896 126.607 16.5396 126.756 16.5403C126.998 16.5403 127.154 16.6112 127.225 16.7387C127.307 16.9061 127.346 17.0912 127.338 17.2773C127.352 17.5158 127.328 17.7549 127.267 17.986ZM130.134 17.7734L130.148 17.745C130.382 17.6796 130.592 17.5523 130.759 17.3765C130.913 17.2112 131 16.9934 131 16.7671C131.002 16.6847 130.988 16.6027 130.957 16.5261C130.927 16.4495 130.878 16.3814 130.815 16.3277C130.741 16.2658 130.654 16.2221 130.56 16.2001C130.426 16.1623 130.288 16.1433 130.148 16.1434C129.777 16.1308 129.416 16.263 129.141 16.5119C128.871 16.7529 128.687 17.1214 128.573 17.6175C128.545 17.745 128.516 17.8584 128.488 17.9576C128.474 18.0426 128.46 18.1419 128.445 18.1986C128.431 18.2694 128.431 18.3261 128.417 18.397C128.417 18.4537 128.403 18.5104 128.403 18.5812C128.401 18.7399 128.425 18.8979 128.474 19.0489C128.511 19.1648 128.58 19.2679 128.672 19.3466C128.752 19.4224 128.85 19.4762 128.956 19.5025C129.077 19.5362 129.2 19.5553 129.325 19.5592C129.513 19.5609 129.7 19.5321 129.879 19.4741C130.051 19.4288 130.21 19.3465 130.347 19.2332C130.482 19.13 130.593 18.9996 130.674 18.8505C130.757 18.6838 130.797 18.4982 130.787 18.3119C130.791 18.2372 130.777 18.1627 130.748 18.094C130.718 18.0252 130.673 17.9641 130.617 17.9151C130.471 17.8264 130.305 17.7776 130.134 17.7734ZM129.07 17.5041C129.13 17.2545 129.247 17.0218 129.41 16.8238C129.49 16.7439 129.586 16.6814 129.69 16.6399C129.795 16.5984 129.908 16.579 130.021 16.5828C130.145 16.5667 130.272 16.597 130.376 16.6678C130.409 16.7036 130.434 16.7463 130.449 16.7929C130.463 16.8395 130.467 16.8887 130.461 16.9371C130.463 17.0338 130.433 17.1286 130.376 17.2064C130.309 17.2874 130.227 17.3547 130.134 17.4049C130.047 17.4616 129.951 17.5046 129.85 17.5324C129.773 17.5616 129.692 17.5807 129.609 17.5891L129.013 17.66L129.07 17.5041ZM130.205 18.723C130.156 18.8123 130.094 18.8935 130.021 18.9639C129.942 19.0302 129.85 19.0785 129.751 19.1056C129.645 19.1394 129.536 19.1585 129.425 19.1623C129.07 19.1623 128.885 18.9639 128.885 18.5954C128.883 18.5195 128.888 18.4437 128.9 18.3686C128.914 18.2836 128.928 18.1844 128.956 18.071C129.098 18.0568 129.212 18.0426 129.311 18.0426C129.396 18.0426 129.467 18.0285 129.524 18.0285C129.557 18.0271 129.591 18.0223 129.623 18.0143H129.68C129.847 18.004 130.013 18.0383 130.163 18.1135C130.204 18.1456 130.239 18.1862 130.263 18.2327C130.288 18.2792 130.302 18.3304 130.305 18.3828C130.289 18.5005 130.255 18.6151 130.205 18.723ZM122.485 17.6883C122.408 17.9838 122.308 18.2729 122.187 18.5529C122.136 18.7117 122.042 18.8538 121.917 18.9639C121.841 19.0273 121.746 19.0624 121.647 19.0631C121.594 19.0606 121.542 19.051 121.491 19.0348L121.335 19.46C121.379 19.4873 121.427 19.5065 121.477 19.5167C121.547 19.5289 121.619 19.5337 121.69 19.5308C121.879 19.5321 122.062 19.4611 122.201 19.3324C122.364 19.1724 122.499 18.9854 122.598 18.7797C122.731 18.4866 122.84 18.1832 122.925 17.8726C123.024 17.5041 123.137 17.093 123.251 16.6253H124.131L123.521 19.5167H124.017L124.727 16.2143H122.896C122.712 16.8238 122.598 17.3056 122.485 17.6883H122.485ZM77.8073 17.6883C77.7306 17.9838 77.631 18.2729 77.5092 18.5529C77.4582 18.7117 77.365 18.8538 77.2396 18.9639C77.164 19.0273 77.0686 19.0624 76.9699 19.0631C76.9169 19.0606 76.8644 19.051 76.8138 19.0348L76.6577 19.46C76.7012 19.4873 76.7493 19.5065 76.7996 19.5167C76.8699 19.5289 76.9412 19.5337 77.0125 19.5308C77.2019 19.5321 77.3846 19.4611 77.5234 19.3324C77.6868 19.1724 77.8212 18.9854 77.9208 18.7797C78.0539 18.4866 78.1631 18.1832 78.2472 17.8726C78.3466 17.5041 78.4601 17.093 78.5737 16.6253H79.4536L78.8433 19.5167H79.34L80.0497 16.2143H78.2189C78.0344 16.8238 77.9208 17.3056 77.8073 17.6883Z" fill="black"/>
<path d="M13.1887 0H8.15047C6.9867 0 5.83713 0.96378 5.58167 2.12598L4.4037 7.29921C4.39498 7.33711 4.39505 7.3765 4.40392 7.41437C4.41279 7.45223 4.43023 7.48757 4.45488 7.51767C4.47954 7.54776 4.51077 7.57183 4.54618 7.58801C4.58159 7.60419 4.62024 7.61206 4.65917 7.61102H11.5992C11.6574 7.60954 11.7136 7.58947 11.7596 7.55376C11.8056 7.51805 11.8389 7.46858 11.8547 7.4126L13.4584 0.325984C13.4633 0.286691 13.4602 0.246805 13.4491 0.208777C13.438 0.17075 13.4193 0.135384 13.394 0.104853C13.3688 0.0743218 13.3375 0.0492709 13.3022 0.0312396C13.2669 0.0132082 13.2283 0.00257722 13.1887 0V0ZM10.5206 11.8205H3.59474C3.53652 11.822 3.48031 11.842 3.43434 11.8777C3.38837 11.9134 3.35506 11.9629 3.33928 12.0189L0.00409295 26.6882C-0.00527011 26.7255 -0.0049723 26.7646 0.00495838 26.8018C0.0148891 26.839 0.0341264 26.8731 0.0608621 26.9008C0.0850859 26.9304 0.115317 26.9546 0.149564 26.9717C0.183811 26.9888 0.221298 26.9984 0.259554 27H4.92882C6.27709 27 7.66793 25.8945 7.96597 24.5339L10.776 12.1181C10.7834 12.0811 10.7823 12.0429 10.7727 12.0063C10.7632 11.9698 10.7454 11.9359 10.7208 11.9073C10.6962 11.8786 10.6654 11.8559 10.6307 11.8408C10.596 11.8258 10.5584 11.8188 10.5206 11.8205ZM22.4137 11.8205L15.4737 11.8063C15.4155 11.8078 15.3593 11.8279 15.3133 11.8636C15.2673 11.8993 15.234 11.9487 15.2182 12.0047L13.5861 19.0913C13.5768 19.1287 13.5771 19.1678 13.587 19.205C13.5969 19.2422 13.6162 19.2762 13.6429 19.3039C13.6671 19.3336 13.6973 19.3577 13.7316 19.3748C13.7658 19.3919 13.8033 19.4016 13.8416 19.4032L18.8089 19.389C19.9727 19.389 21.1932 18.4535 21.4628 17.2913L22.655 12.1039C22.6644 12.0666 22.6641 12.0275 22.6541 11.9903C22.6442 11.9531 22.625 11.9191 22.5982 11.8913C22.5479 11.8453 22.482 11.8199 22.4137 11.8205ZM23.3646 0H18.1702C18.112 0.00148888 18.0558 0.0215565 18.0098 0.0572634C17.9639 0.0929702 17.9305 0.14244 17.9148 0.198425L16.2543 7.29921C16.2458 7.33659 16.2466 7.37546 16.2565 7.41248C16.2664 7.44951 16.2851 7.48359 16.311 7.51181C16.3342 7.54262 16.3642 7.56762 16.3987 7.58484C16.4331 7.60206 16.4712 7.61102 16.5097 7.61102H23.4781C23.5364 7.60954 23.5926 7.58947 23.6385 7.55376C23.6845 7.51805 23.7178 7.46858 23.7336 7.4126L24.9683 2.11181C25.238 0.963779 24.5142 0 23.3646 0Z" fill="#E32D35"/>
</g>
<defs>
<clipPath id="clip0">
<rect width="131" height="27" fill="white"/>
</clipPath>
</defs>
</svg>
