<svg width="52" height="52" viewBox="0 0 52 52" fill="none" xmlns="http://www.w3.org/2000/svg">
<g clip-path="url(#clip0)">
<path d="M48.4139 23.2925C47.853 23.2925 47.3983 23.7473 47.3983 24.3081C47.3983 24.8689 47.853 25.3237 48.4139 25.3237C49.2712 25.3237 49.9688 26.0212 49.9688 26.8785C49.9688 27.7359 49.2713 28.4334 48.4139 28.4334H46.4878C46.3146 25.2547 45.3303 22.1863 43.6144 19.5031C41.9055 16.831 39.548 14.6505 36.7666 13.157C36.832 12.6723 36.8672 12.1807 36.8672 11.6841C36.8672 5.69189 31.9922 0.816895 26 0.816895C20.0078 0.816895 15.1328 5.69189 15.1328 11.6841C15.1328 11.9179 15.1421 12.1503 15.1567 12.3817C15.1386 12.3892 15.1203 12.3962 15.1023 12.4039L10.6039 9.79512C10.0255 9.45966 9.3342 9.45864 8.75469 9.79238C8.17517 10.1262 7.82925 10.7247 7.82925 11.3935V17.9031C6.4998 19.5618 5.48041 21.4086 4.79111 23.4061H2.81836C1.26435 23.4061 0 24.6704 0 26.2245V32.6737C0 34.2278 1.26435 35.4921 2.81836 35.4921H4.79141C6.04358 39.1105 8.41212 42.2748 11.5442 44.5087V49.028C11.5442 50.2165 12.5112 51.1835 13.6998 51.1835H17.4842C18.2955 51.1835 19.03 50.7354 19.401 50.014L20.5138 47.8507C21.0969 47.9056 21.6829 47.9334 22.2637 47.9334H28.0312C28.6121 47.9334 29.1982 47.9056 29.7812 47.8507L30.894 50.014C31.265 50.7354 31.9995 51.1835 32.8108 51.1835H36.5952C37.7838 51.1835 38.7508 50.2165 38.7508 49.028V44.5088C43.3473 41.2335 46.1802 36.0745 46.4867 30.4647H48.414C50.3913 30.4647 52.0001 28.856 52.0001 26.8786C52.0001 24.9013 50.3914 23.2925 48.4139 23.2925ZM26 2.84804C30.8722 2.84804 34.8359 6.81182 34.8359 11.684C34.8359 13.2435 34.4334 14.7445 33.6676 16.0763C32.1945 15.2706 30.6204 14.7141 29.0075 14.4079C29.238 13.9815 29.3687 13.5003 29.3687 12.9908C29.3687 11.2533 27.8576 9.83961 26 9.83961C25.2626 9.83961 24.6625 9.33728 24.6625 8.71978C24.6625 8.10228 25.2626 7.59995 26 7.59995C26.7374 7.59995 27.3375 8.10228 27.3375 8.71978C27.3375 9.28061 27.7922 9.7354 28.3531 9.7354C28.914 9.7354 29.3687 9.28061 29.3687 8.71978C29.3687 7.31324 28.3783 6.11927 27.0156 5.71535V5.57408C27.0156 5.01325 26.5609 4.55846 26 4.55846C25.4391 4.55846 24.9844 5.01325 24.9844 5.57408V5.71535C23.6217 6.11927 22.6313 7.31324 22.6313 8.71978C22.6313 10.4573 24.1424 11.8709 26 11.8709C26.7374 11.8709 27.3375 12.3733 27.3375 12.9908C27.3375 13.6083 26.7374 14.1106 26 14.1106C25.2626 14.1106 24.6625 13.6083 24.6625 12.9908C24.6625 12.43 24.2078 11.9752 23.6469 11.9752C23.086 11.9752 22.6313 12.43 22.6313 12.9908C22.6313 13.502 22.7629 13.9847 22.9949 14.4121C21.383 14.7205 19.8102 15.2791 18.3385 16.0868C17.5686 14.7526 17.1641 13.2478 17.1641 11.684C17.1641 6.81182 21.1278 2.84804 26 2.84804ZM37.1701 43.1319C36.8885 43.3204 36.7194 43.6371 36.7194 43.976V49.0279C36.7194 49.0964 36.6637 49.1521 36.5951 49.1521H32.8108C32.7641 49.1521 32.7217 49.1263 32.7003 49.0848L31.2667 46.2979C31.0702 45.9159 30.6546 45.6985 30.2294 45.7558C29.5009 45.8529 28.7613 45.9021 28.0312 45.9021H22.2637C21.5337 45.9021 20.7941 45.8529 20.0656 45.7558C19.6394 45.6983 19.2247 45.916 19.0282 46.2979L17.5947 49.0848C17.5734 49.1263 17.531 49.1521 17.4842 49.1521H13.6998C13.6312 49.1521 13.5755 49.0964 13.5755 49.0279V43.976C13.5755 43.6371 13.4064 43.3205 13.1247 43.1319C9.94794 41.0055 7.59637 37.8279 6.50325 34.1843C6.37437 33.7548 5.97898 33.4606 5.53048 33.4606H2.81836C2.38438 33.4606 2.03125 33.1075 2.03125 32.6735V30.4645H3.45312C4.01405 30.4645 4.46875 30.0097 4.46875 29.4489C4.46875 28.8881 4.01405 28.4333 3.45312 28.4333H2.03125V26.2243C2.03125 25.7903 2.38438 25.4372 2.81836 25.4372H5.53059C5.97909 25.4372 6.37447 25.143 6.50335 24.7134C7.14259 22.5827 8.19274 20.632 9.62467 18.9158C9.77702 18.7332 9.8605 18.5031 9.8605 18.2652V11.7121L14.5284 14.4191C14.8128 14.584 15.1592 14.601 15.4585 14.465C15.4687 14.4604 15.4789 14.4559 15.4891 14.4514C15.739 15.4049 16.1192 16.3199 16.6232 17.177C15.9657 17.657 15.3366 18.1931 14.7434 18.7864C14.3468 19.1831 14.3468 19.8261 14.7434 20.2228C15.14 20.6193 15.7831 20.6193 16.1798 20.2228C21.6018 14.8007 30.4242 14.8007 35.8462 20.2228C36.0445 20.4211 36.3044 20.5203 36.5643 20.5203C36.8242 20.5203 37.0842 20.4211 37.2825 20.2228C37.6791 19.8262 37.6791 19.1832 37.2825 18.7864C36.6838 18.1877 36.0486 17.6473 35.3845 17.164C35.7495 16.5414 36.0491 15.8883 36.2811 15.212C41.3011 18.1339 44.4844 23.5945 44.4844 29.449C44.4844 34.9513 41.7501 40.0663 37.1701 43.1319Z" fill="#362758"/>
<path d="M12.5603 22.3398C12.2922 22.3398 12.0312 22.4475 11.8423 22.6374C11.6523 22.8263 11.5447 23.0884 11.5447 23.3555C11.5447 23.6226 11.6523 23.8846 11.8423 24.0735C12.0312 24.2623 12.2922 24.3711 12.5603 24.3711C12.8274 24.3711 13.0894 24.2624 13.2783 24.0735C13.4673 23.8846 13.5759 23.6226 13.5759 23.3555C13.5759 23.0884 13.4673 22.8263 13.2783 22.6374C13.0884 22.4475 12.8274 22.3398 12.5603 22.3398Z" fill="#362758"/>
</g>
<defs>
<clipPath id="clip0">
<rect width="52" height="52" fill="white"/>
</clipPath>
</defs>
</svg>
