<svg width="152" height="17" viewBox="0 0 152 17" fill="none" xmlns="http://www.w3.org/2000/svg">
<path d="M11.2393 1.86865V0.490723H12.833V4.5H11.2061C10.7965 3.69759 10.2349 3.07227 9.521 2.62402C8.80713 2.17578 8.02409 1.95166 7.17188 1.95166C6.34733 1.95166 5.61133 2.17025 4.96387 2.60742C4.31641 3.03906 3.81006 3.62012 3.44482 4.35059C3.08512 5.07552 2.90527 5.85579 2.90527 6.69141C2.90527 7.55469 3.09342 8.35156 3.46973 9.08203C3.85156 9.8125 4.37451 10.3963 5.03857 10.8335C5.70264 11.2707 6.44141 11.4893 7.25488 11.4893C8.25651 11.4893 9.14193 11.1849 9.91113 10.5762C10.6803 9.96191 11.242 9.0931 11.5962 7.96973L13.1899 8.81641C12.7583 10.2109 11.9946 11.2928 10.8989 12.062C9.80876 12.8257 8.52767 13.2075 7.05566 13.2075C5.84375 13.2075 4.76742 12.9198 3.82666 12.3442C2.8859 11.7632 2.15267 10.9857 1.62695 10.0117C1.10677 9.03223 0.84668 7.95866 0.84668 6.79102C0.84668 5.52376 1.1123 4.39486 1.64355 3.4043C2.18034 2.41374 2.91911 1.6473 3.85986 1.10498C4.80062 0.557129 5.87695 0.283203 7.08887 0.283203C7.90234 0.283203 8.65218 0.418783 9.33838 0.689941C10.0246 0.9611 10.6582 1.354 11.2393 1.86865ZM23.873 9.07373H16.5601C16.6652 9.90934 16.9889 10.5706 17.5312 11.0576C18.0736 11.5391 18.7376 11.7798 19.5234 11.7798C20.099 11.7798 20.633 11.6608 21.1255 11.4229C21.618 11.1849 22.0303 10.8197 22.3623 10.3271L23.873 11.0078C23.3971 11.7493 22.7718 12.311 21.9971 12.6929C21.2279 13.0692 20.3895 13.2573 19.4819 13.2573C18.5412 13.2573 17.7056 13.0609 16.9751 12.668C16.2446 12.2751 15.6746 11.7272 15.2651 11.0244C14.8612 10.3216 14.6592 9.53027 14.6592 8.65039C14.6592 7.77604 14.8584 6.98747 15.2568 6.28467C15.6608 5.58187 16.2114 5.03402 16.9087 4.64111C17.606 4.24268 18.3752 4.04346 19.2163 4.04346C20.1349 4.04346 20.9346 4.24821 21.6152 4.65771C22.3014 5.06169 22.841 5.64274 23.2339 6.40088C23.6268 7.15348 23.8398 8.04443 23.873 9.07373ZM19.2495 5.47119C18.6021 5.47119 18.0348 5.68978 17.5479 6.12695C17.0609 6.55859 16.7482 7.13135 16.6099 7.84521H22.0718C21.9113 7.13135 21.571 6.55859 21.0508 6.12695C20.5306 5.68978 19.9302 5.47119 19.2495 5.47119ZM35.353 8.68359C35.353 9.49707 35.1649 10.258 34.7886 10.9663C34.4123 11.6746 33.8976 12.2336 33.2446 12.6431C32.5972 13.0526 31.8778 13.2573 31.0864 13.2573C29.9188 13.2573 28.8978 12.8091 28.0234 11.9126V15.3823H29.7251V16.9097H24.728V15.3823H26.3052V5.81152H24.8442V4.27588H28.0234V5.67041C28.4551 5.1613 28.931 4.78223 29.4512 4.5332C29.9714 4.28418 30.5275 4.15967 31.1196 4.15967C31.9442 4.15967 32.6774 4.36442 33.3193 4.77393C33.9613 5.1779 34.4593 5.72575 34.8135 6.41748C35.1732 7.10921 35.353 7.86458 35.353 8.68359ZM31.0615 11.6885C31.5374 11.6885 31.9663 11.5501 32.3481 11.2734C32.73 10.9967 33.0288 10.6204 33.2446 10.1445C33.4604 9.66862 33.5684 9.16504 33.5684 8.63379C33.5684 8.09701 33.4494 7.60449 33.2114 7.15625C32.9735 6.70247 32.647 6.34277 32.2319 6.07715C31.8169 5.80599 31.3493 5.67041 30.8291 5.67041C30.2868 5.67041 29.7998 5.81429 29.3682 6.10205C28.9365 6.38428 28.6017 6.76058 28.3638 7.23096C28.1258 7.70133 28.0068 8.21875 28.0068 8.7832C28.0068 9.69076 28.2918 10.4019 28.8618 10.9165C29.4373 11.4312 30.1706 11.6885 31.0615 11.6885ZM44.542 6.45898C44.542 6.94596 44.4175 7.34163 44.1685 7.646C43.9194 7.95036 43.5514 8.18831 43.0645 8.35986C43.7673 8.48161 44.2874 8.7168 44.625 9.06543C44.9681 9.40853 45.1396 9.88167 45.1396 10.4849C45.1396 11.3315 44.7716 11.9624 44.0356 12.3774C43.2996 12.7925 42.1984 13 40.7319 13H36.3657V11.4727H37.8101V5.81152H36.3657V4.27588H40.8232C42.1348 4.27588 43.0811 4.4585 43.6621 4.82373C44.2487 5.18343 44.542 5.72852 44.542 6.45898ZM42.7739 6.75781C42.7739 6.43132 42.6356 6.18783 42.3589 6.02734C42.0822 5.86133 41.6257 5.77832 40.9893 5.77832H39.5283V7.79541H40.9561C41.5814 7.79541 42.0407 7.71517 42.334 7.55469C42.6273 7.38867 42.7739 7.12305 42.7739 6.75781ZM43.2471 10.2773C43.2471 9.8457 43.0396 9.54688 42.6245 9.38086C42.215 9.20931 41.6423 9.12354 40.9062 9.12354H39.5283V11.5225H41.0059C41.8249 11.5225 42.4032 11.4256 42.7407 11.2319C43.0783 11.0382 43.2471 10.7201 43.2471 10.2773ZM49.3232 5.81152V9.33105L53.2329 6.41748V5.81152H51.8965V4.27588H56.4121V5.81152H54.9512V11.4727H56.4121V13H51.8965V11.4727H53.2329V7.90332L49.3232 10.8252V11.4727H50.668V13H46.144V11.4727H47.605V5.81152H46.144V4.27588H50.668V5.81152H49.3232ZM64.2563 4.90674V4.27588H65.7837V7.57959H64.2563C64.1899 6.9432 63.9354 6.45898 63.4927 6.12695C63.05 5.78939 62.5381 5.62061 61.957 5.62061C61.459 5.62061 61.0107 5.75342 60.6123 6.01904C60.2194 6.28467 59.915 6.64437 59.6992 7.09814C59.4834 7.55192 59.3755 8.0472 59.3755 8.58398C59.3755 9.49707 59.619 10.2441 60.106 10.8252C60.5929 11.4007 61.2349 11.6885 62.0317 11.6885C63.2658 11.6885 64.1374 11.1157 64.6465 9.97021L66.0742 10.6509C65.2718 12.3885 63.8994 13.2573 61.957 13.2573C61.0882 13.2573 60.3162 13.0526 59.6411 12.6431C58.966 12.2336 58.443 11.6719 58.0723 10.958C57.707 10.2441 57.5244 9.4528 57.5244 8.58398C57.5244 7.73177 57.7098 6.95703 58.0806 6.25977C58.4569 5.5625 58.9715 5.02018 59.6245 4.63281C60.2775 4.23991 61.0052 4.04346 61.8076 4.04346C62.7594 4.04346 63.5757 4.33122 64.2563 4.90674ZM74.8813 2.05127V11.4395H76.3257V13H71.4282V11.4395H72.9888V2.05127H71.4282V0.490723H76.4917V2.05127H74.8813ZM81.0986 2.05127L77.2222 6.40088L81.2065 11.4395H82.543V13H77.4629V11.4395H78.8408L75.0806 6.45898L78.957 2.05127H77.5127V0.490723H82.4268V2.05127H81.0986ZM84.9834 5.81152L86.876 10.7422L88.7104 5.81152H87.5483V4.27588H91.7153V5.81152H90.4287L86.1206 16.9097H83.2153V15.4155H84.9336L85.9712 12.8506L83.1157 5.81152H81.6548V4.27588H86.021V5.81152H84.9834ZM97.833 5.81152L99.8003 11.4727H101.145V13H96.8618V11.4727H98.0737L96.1978 5.70361L94.1641 11.4727H95.4507V13H91.0679V11.4727H92.5454L94.7202 5.81152H93.3423V4.27588H99.1611V5.81152H97.833ZM109.496 7.35547V11.4727H110.957V13H107.985V11.9292C107.155 12.7427 106.231 13.1494 105.212 13.1494C104.676 13.1494 104.183 13.0249 103.735 12.7759C103.292 12.5269 102.935 12.1948 102.664 11.7798C102.398 11.3592 102.266 10.8944 102.266 10.3853C102.266 9.8374 102.412 9.35042 102.706 8.92432C103.004 8.49268 103.406 8.16064 103.909 7.92822C104.413 7.6958 104.919 7.57959 105.428 7.57959C106.28 7.57959 107.075 7.82861 107.811 8.32666V7.38867C107.811 6.70801 107.667 6.22103 107.379 5.92773C107.091 5.63444 106.618 5.48779 105.959 5.48779C105.495 5.48779 105.104 5.57357 104.789 5.74512C104.479 5.91113 104.222 6.16569 104.017 6.50879L102.374 6.10205C102.744 5.41032 103.245 4.89567 103.876 4.55811C104.507 4.21501 105.257 4.04346 106.125 4.04346C107.293 4.04346 108.145 4.30908 108.682 4.84033C109.224 5.37158 109.496 6.20996 109.496 7.35547ZM105.445 11.8296C106.286 11.8296 107.075 11.4782 107.811 10.7754V9.75439C107.063 9.17334 106.316 8.88281 105.569 8.88281C105.116 8.88281 104.723 9.02669 104.391 9.31445C104.064 9.59668 103.901 9.95361 103.901 10.3853C103.901 10.8003 104.045 11.1462 104.333 11.4229C104.62 11.694 104.991 11.8296 105.445 11.8296ZM114.916 5.81152V8.31006L119.34 4.27588H121.548V5.81152H119.764L116.958 8.42627L120.021 11.4727H121.548V13H119.324L114.916 8.61719V11.4727H116.261V13H111.737V11.4727H113.198V5.81152H111.737V4.27588H116.194V5.81152H114.916ZM131.202 8.65039C131.202 9.49707 131 10.2718 130.596 10.9746C130.192 11.6774 129.642 12.2336 128.944 12.6431C128.247 13.0526 127.475 13.2573 126.628 13.2573C125.754 13.2573 124.965 13.0526 124.263 12.6431C123.56 12.2336 123.012 11.6774 122.619 10.9746C122.232 10.2718 122.038 9.49707 122.038 8.65039C122.038 7.76497 122.232 6.97363 122.619 6.27637C123.012 5.5791 123.557 5.03402 124.254 4.64111C124.952 4.24268 125.743 4.04346 126.628 4.04346C127.486 4.04346 128.264 4.25374 128.961 4.67432C129.658 5.08936 130.206 5.64827 130.604 6.35107C131.003 7.05387 131.202 7.82031 131.202 8.65039ZM126.628 11.5889C127.138 11.5889 127.605 11.4561 128.031 11.1904C128.457 10.9248 128.789 10.5679 129.027 10.1196C129.265 9.67139 129.384 9.18164 129.384 8.65039C129.384 8.13021 129.265 7.646 129.027 7.19775C128.789 6.74951 128.457 6.38981 128.031 6.11865C127.605 5.84196 127.132 5.70361 126.612 5.70361C126.103 5.70361 125.635 5.83919 125.209 6.11035C124.783 6.37598 124.448 6.73568 124.205 7.18945C123.961 7.64323 123.839 8.13021 123.839 8.65039C123.839 9.17057 123.961 9.65755 124.205 10.1113C124.448 10.5651 124.786 10.9248 125.217 11.1904C125.649 11.4561 126.119 11.5889 126.628 11.5889ZM140.399 6.45898C140.399 6.94596 140.275 7.34163 140.026 7.646C139.777 7.95036 139.409 8.18831 138.922 8.35986C139.625 8.48161 140.145 8.7168 140.482 9.06543C140.826 9.40853 140.997 9.88167 140.997 10.4849C140.997 11.3315 140.629 11.9624 139.893 12.3774C139.157 12.7925 138.056 13 136.589 13H132.223V11.4727H133.667V5.81152H132.223V4.27588H136.681C137.992 4.27588 138.938 4.4585 139.52 4.82373C140.106 5.18343 140.399 5.72852 140.399 6.45898ZM138.631 6.75781C138.631 6.43132 138.493 6.18783 138.216 6.02734C137.94 5.86133 137.483 5.77832 136.847 5.77832H135.386V7.79541H136.813C137.439 7.79541 137.898 7.71517 138.191 7.55469C138.485 7.38867 138.631 7.12305 138.631 6.75781ZM139.104 10.2773C139.104 9.8457 138.897 9.54688 138.482 9.38086C138.072 9.20931 137.5 9.12354 136.764 9.12354H135.386V11.5225H136.863C137.682 11.5225 138.261 11.4256 138.598 11.2319C138.936 11.0382 139.104 10.7201 139.104 10.2773ZM149.622 7.35547V11.4727H151.083V13H148.111V11.9292C147.281 12.7427 146.357 13.1494 145.338 13.1494C144.802 13.1494 144.309 13.0249 143.861 12.7759C143.418 12.5269 143.061 12.1948 142.79 11.7798C142.524 11.3592 142.392 10.8944 142.392 10.3853C142.392 9.8374 142.538 9.35042 142.832 8.92432C143.13 8.49268 143.532 8.16064 144.035 7.92822C144.539 7.6958 145.045 7.57959 145.554 7.57959C146.406 7.57959 147.201 7.82861 147.937 8.32666V7.38867C147.937 6.70801 147.793 6.22103 147.505 5.92773C147.217 5.63444 146.744 5.48779 146.085 5.48779C145.621 5.48779 145.23 5.57357 144.915 5.74512C144.605 5.91113 144.348 6.16569 144.143 6.50879L142.5 6.10205C142.87 5.41032 143.371 4.89567 144.002 4.55811C144.633 4.21501 145.383 4.04346 146.251 4.04346C147.419 4.04346 148.271 4.30908 148.808 4.84033C149.35 5.37158 149.622 6.20996 149.622 7.35547ZM145.571 11.8296C146.412 11.8296 147.201 11.4782 147.937 10.7754V9.75439C147.189 9.17334 146.442 8.88281 145.695 8.88281C145.242 8.88281 144.849 9.02669 144.517 9.31445C144.19 9.59668 144.027 9.95361 144.027 10.3853C144.027 10.8003 144.171 11.1462 144.458 11.4229C144.746 11.694 145.117 11.8296 145.571 11.8296Z" fill="#222222"/>
</svg>
