<svg width="679" height="279" viewBox="0 0 679 279" fill="none" xmlns="http://www.w3.org/2000/svg">
<path opacity="0.1" fill-rule="evenodd" clip-rule="evenodd" d="M337.578 6.25287C423.322 -7.30534 459.029 3.35776 509.034 17.5961C560.594 32.2772 580.121 53.1896 606.976 77.8017C638.685 106.862 676.975 125.085 678.915 173.289C681.598 239.942 620.459 258.725 552.798 274.75C487.885 290.125 410.968 253.671 337.578 254.134C262.602 254.606 152.646 291.204 87.2356 274.75C20.6017 257.989 26.2384 204.832 8.86277 171.448C-7.3983 140.205 -0.690657 107.89 24.128 77.8017C61.524 5.1754 74.839 5.1754 146.015 5.1754C216.712 23.5541 265.839 17.5961 337.578 6.25287Z" fill="#FFB854"/>
<path d="M100.59 42.9271L99.0356 42.4217L103.231 29.4421L104.752 29.9367L106.548 40.0677L106.634 41.5187L106.675 41.5323L107.05 40.2308L109.842 31.5916L111.397 32.0971L107.202 45.0767L105.647 44.5712L103.93 34.6231L103.744 33.0561L103.342 34.4134L100.59 42.9271ZM111.65 41.4306L112.069 40.1343L118.555 42.2431L118.136 43.5394L111.65 41.4306ZM122.715 50.1204L121.027 49.5715L124.046 40.2299L130.925 42.4664L130.506 43.7627L125.315 42.0751L122.715 50.1204ZM139.928 49.6173C139.429 51.1617 138.599 52.3304 137.437 53.1234C136.164 53.997 134.769 54.1874 133.253 53.6946C133.047 53.6276 132.482 53.3946 131.558 52.9956L130.385 56.6252L128.83 56.1197L133.023 43.1485L134.577 43.654L133.899 45.7531C134.509 45.2368 135.183 44.8581 135.919 44.6171C136.758 44.3475 137.52 44.3241 138.205 44.5469C139.219 44.8767 139.857 45.58 140.119 46.657C140.338 47.5601 140.274 48.5469 139.928 49.6173ZM138.172 49.2775C138.392 48.5973 138.468 47.9627 138.4 47.3736C138.306 46.5975 137.958 46.1117 137.356 45.916C136.771 45.7258 136.044 45.8499 135.176 46.2885C134.521 46.6179 133.897 47.0555 133.301 47.6014L132.007 51.6073C132.523 51.9353 133.018 52.1762 133.491 52.3302C134.567 52.6799 135.551 52.5195 136.445 51.849C137.235 51.2553 137.81 50.3981 138.172 49.2775ZM147.206 55.7636C146.602 56.2817 145.928 56.6603 145.186 56.8996C144.342 57.1674 143.577 57.1898 142.892 56.967C141.883 56.6391 141.248 55.9366 140.987 54.8596C140.767 53.9566 140.831 52.9698 141.177 51.8993C141.683 50.3326 142.523 49.1546 143.695 48.3652C144.956 47.5121 146.339 47.3301 147.843 47.8193C148.05 47.8863 148.615 48.1194 149.539 48.5184L151.102 49.0265L148.969 55.6251C148.605 56.7513 148.427 57.7037 148.434 58.4823L146.812 57.9551C146.856 57.4394 146.987 56.7089 147.206 55.7636ZM147.804 53.9153L149.098 49.9094C148.594 49.585 148.102 49.345 147.622 49.1892C146.541 48.8377 145.555 48.9944 144.662 49.6593C143.873 50.253 143.297 51.113 142.933 52.2392C142.715 52.9138 142.639 53.5484 142.705 54.143C142.794 54.9173 143.139 55.4023 143.741 55.5979C144.331 55.79 145.061 55.6667 145.929 55.2282C146.591 54.895 147.216 54.4574 147.804 53.9153ZM151.217 59.3872L149.855 58.9443L152.874 49.6027L154.57 50.1543L155.409 57.7926L160.555 52.1001L162.21 52.6381L159.191 61.9798L157.636 61.4743L159.892 54.6385L159.85 54.6249L159.115 55.6427L155.679 59.4146L154.057 58.8874L153.456 53.8029L153.431 52.5378L153.389 52.5242L153.063 53.6752L151.217 59.3872ZM161.498 62.7298L160.135 62.2869L163.155 52.9452L164.851 53.4969L165.689 61.1352L170.836 55.4426L172.491 55.9807L169.472 65.3223L167.917 64.8169L170.173 57.9811L170.131 57.9675L169.395 58.9853L165.96 62.7572L164.338 62.23L163.737 57.1455L163.712 55.8804L163.67 55.8668L163.344 57.0178L161.498 62.7298ZM178.049 65.7913C177.444 66.3094 176.771 66.6881 176.028 66.9273C175.184 67.1951 174.42 67.2176 173.734 66.9947C172.726 66.6668 172.091 65.9643 171.829 64.8873C171.61 63.9843 171.673 62.9975 172.019 61.927C172.526 60.3603 173.365 59.1823 174.538 58.3929C175.799 57.5398 177.181 57.3579 178.686 57.847C178.892 57.914 179.457 58.1471 180.381 58.5461L181.944 59.0543L179.812 65.6528C179.448 66.779 179.269 67.7314 179.276 68.51L177.655 67.9828C177.698 67.4671 177.83 66.7366 178.049 65.7913ZM178.646 63.943L179.941 59.9371C179.436 59.6128 178.944 59.3727 178.465 59.2169C177.384 58.8654 176.397 59.0221 175.505 59.687C174.716 60.2807 174.139 61.1407 173.775 62.2669C173.557 62.9415 173.481 63.5761 173.548 64.1708C173.636 64.945 173.981 65.43 174.583 65.6257C175.174 65.8177 175.903 65.6944 176.772 65.2559C177.434 64.9227 178.058 64.4851 178.646 63.943Z" fill="#555555"/>
<path d="M224.793 71.6583L223.399 71.9899L220.26 58.7154L221.996 58.3025L227.124 66.3156L228.118 56.846L229.811 56.4433L232.95 69.7178L231.36 70.0961L229.127 60.4637L229.084 60.4738L228.983 61.7266L228.305 68.0223L226.577 68.4332L223.126 63.1199L222.518 62.036L222.475 62.0462L222.793 63.1993L224.793 71.6583ZM237.824 68.5583L235.031 56.7464L231.055 57.6923L230.709 56.2297L240.397 53.9251L240.742 55.3876L236.758 56.3355L239.551 68.1475L237.824 68.5583ZM245.425 66.75L242.286 53.4755L244.877 52.8592C246.433 52.489 247.504 52.3577 248.089 52.4654C249.25 52.6891 249.982 53.4425 250.286 54.7255C250.642 56.2308 250.17 57.5596 248.871 58.7119C250.842 59.0018 252.011 59.9223 252.378 61.4732C252.524 62.0891 252.496 62.71 252.295 63.3361C252.098 63.9551 251.76 64.4722 251.28 64.8875C250.78 65.3196 249.903 65.6848 248.649 65.9832L245.425 66.75ZM245.427 59.0433L247.24 58.6121C248.499 57.6982 248.978 56.6055 248.677 55.3339C248.494 54.5584 248.086 54.0953 247.455 53.9444C247.021 53.8427 246.38 53.8929 245.53 54.095L244.325 54.3818L245.427 59.0433ZM246.839 65.0134L248.472 64.6249C249.236 64.4432 249.817 64.1243 250.215 63.6683C250.665 63.1517 250.803 62.5256 250.629 61.79C250.397 60.8093 249.739 60.2188 248.656 60.0187C248.103 59.9214 247.291 60.0002 246.22 60.2551L245.741 60.369L246.839 65.0134Z" fill="#555555"/>
<path d="M292.76 40.3594C293.609 40.3594 294.274 40.6758 294.755 41.3086C295.241 41.9414 295.484 42.7617 295.484 43.7695C295.484 44.7832 295.241 45.6064 294.755 46.2393C294.274 46.8662 293.609 47.1797 292.76 47.1797C291.91 47.1797 291.242 46.8662 290.756 46.2393C290.27 45.6064 290.026 44.7832 290.026 43.7695C290.026 42.7617 290.27 41.9414 290.756 41.3086C291.242 40.6758 291.91 40.3594 292.76 40.3594ZM292.76 41.458C292.285 41.458 291.939 41.6865 291.723 42.1436C291.506 42.5947 291.397 43.1367 291.397 43.7695C291.397 44.4082 291.506 44.9561 291.723 45.4131C291.939 45.8643 292.285 46.0898 292.76 46.0898C293.229 46.0898 293.571 45.8643 293.788 45.4131C294.011 44.9561 294.122 44.4082 294.122 43.7695C294.122 43.1367 294.011 42.5947 293.788 42.1436C293.571 41.6865 293.229 41.458 292.76 41.458ZM291.459 54.4131H290.018L299.343 39.9551H300.793L291.459 54.4131ZM298.016 47.1797C298.83 47.1797 299.492 47.4844 300.002 48.0938C300.512 48.7031 300.767 49.4883 300.767 50.4492C300.767 51.5566 300.497 52.4268 299.958 53.0596C299.419 53.6865 298.766 54 297.998 54C297.248 54 296.612 53.7012 296.091 53.1035C295.569 52.5 295.309 51.6621 295.309 50.5898C295.309 49.5703 295.555 48.7471 296.047 48.1201C296.539 47.4932 297.195 47.1797 298.016 47.1797ZM298.042 48.2695C297.579 48.2695 297.236 48.4922 297.014 48.9375C296.791 49.3828 296.68 49.9512 296.68 50.6426C296.68 51.4102 296.814 51.9814 297.084 52.3564C297.354 52.7256 297.67 52.9102 298.033 52.9102C298.42 52.9102 298.745 52.708 299.009 52.3037C299.272 51.8994 299.404 51.3164 299.404 50.5547C299.404 49.957 299.293 49.4268 299.07 48.9639C298.854 48.501 298.511 48.2695 298.042 48.2695Z" fill="#555555"/>
<path d="M349.383 50.0079L351.48 36.5294L354.111 36.9411C355.691 37.1884 356.732 37.4729 357.234 37.7945C358.224 38.4417 358.618 39.4167 358.415 40.7194C358.177 42.2479 357.24 43.2992 355.603 43.8733C357.319 44.8891 358.054 46.1844 357.809 47.7592C357.712 48.3845 357.452 48.9488 357.03 49.452C356.615 49.9504 356.107 50.3009 355.506 50.5034C354.88 50.7139 353.93 50.7195 352.657 50.5202L349.383 50.0079ZM352.29 42.8744L354.13 43.1625C355.641 42.7939 356.496 41.964 356.697 40.6729C356.819 39.8855 356.617 39.3022 356.088 38.923C355.725 38.6646 355.113 38.4679 354.25 38.3329L353.026 38.1413L352.29 42.8744ZM351.347 48.9363L353.005 49.1958C353.781 49.3172 354.439 49.2423 354.979 48.971C355.59 48.6633 355.954 48.136 356.07 47.3892C356.225 46.3933 355.839 45.5975 354.912 45.0017C354.437 44.7019 353.655 44.4669 352.566 44.2966L352.08 44.2205L351.347 48.9363ZM363.869 52.5504C362.445 52.3276 361.389 51.6434 360.701 50.4979C360.062 49.4252 359.855 48.1623 360.081 46.709C360.307 45.2558 360.89 44.1194 361.83 43.2997C362.827 42.4179 364.037 42.0884 365.461 42.3112C366.88 42.5332 367.933 43.2168 368.62 44.3623C369.26 45.435 369.467 46.6951 369.242 48.1425C369.017 49.59 368.436 50.7298 367.5 51.5619C366.497 52.4428 365.287 52.7723 363.869 52.5504ZM364.078 51.2043C365.051 51.3565 365.849 51.0662 366.473 50.3336C366.988 49.7263 367.327 48.9044 367.488 47.8681C367.648 46.8375 367.572 45.9538 367.26 45.217C366.888 44.3285 366.219 43.8086 365.252 43.6573C364.279 43.5052 363.482 43.7925 362.859 44.5194C362.337 45.1258 361.996 45.9471 361.835 46.9835C361.674 48.0199 361.749 48.9065 362.062 49.6433C362.433 50.5318 363.105 51.0521 364.078 51.2043ZM379.072 57.6249L377.492 57.3776L377.943 54.4769L371.213 53.4239L370.762 56.3246L369.182 56.0773L369.841 51.8392C370.821 51.7138 371.617 51.0377 372.229 49.8109C372.651 48.9637 372.957 47.935 373.145 46.725L373.591 43.859L379.652 44.8075L378.351 53.1708L379.731 53.3868L379.072 57.6249ZM376.736 52.918L377.827 45.9009L374.953 45.4511L374.633 47.5094C374.47 48.5573 374.214 49.4959 373.866 50.325C373.452 51.3042 372.979 51.9447 372.446 52.2468L376.736 52.918ZM388.334 51.5482L383.584 50.8049L382.892 55.2514L381.277 54.9987L382.786 45.298L384.401 45.5507L383.793 49.4588L388.543 50.2021L389.151 46.294L390.766 46.5467L389.257 56.2474L387.642 55.9947L388.334 51.5482ZM395.91 57.5643C394.486 57.3414 393.43 56.6573 392.743 55.5118C392.103 54.4391 391.897 53.1761 392.123 51.7229C392.349 50.2697 392.932 49.1332 393.871 48.3136C394.868 47.4318 396.079 47.1023 397.503 47.3251C398.921 47.547 399.974 48.2307 400.662 49.3762C401.301 50.4489 401.509 51.709 401.284 53.1564C401.058 54.6038 400.478 55.7436 399.542 56.5757C398.539 57.4567 397.329 57.7862 395.91 57.5643ZM396.12 56.2181C397.092 56.3703 397.891 56.0801 398.514 55.3474C399.03 54.7401 399.368 53.9183 399.529 52.8819C399.69 51.8514 399.614 50.9677 399.301 50.2308C398.93 49.3424 398.26 48.8225 397.294 48.6712C396.321 48.519 395.523 48.8064 394.9 49.5332C394.379 50.1396 394.038 50.961 393.877 51.9974C393.715 53.0337 393.791 53.9203 394.103 54.6572C394.475 55.5456 395.147 56.066 396.12 56.2181ZM410.844 59.3406C409.705 59.536 408.646 59.5571 407.668 59.404C406.192 59.1731 405.061 58.4921 404.276 57.3611C403.512 56.251 403.243 54.9665 403.47 53.5075C403.692 52.0832 404.339 50.951 405.413 50.1107C406.508 49.2501 407.761 48.9303 409.174 49.1513C410.175 49.308 411.205 49.6619 412.264 50.2131L412.022 51.7676C410.973 51.0757 410.003 50.66 409.112 50.5205C408.093 50.3611 407.218 50.6097 406.487 51.2663C405.812 51.8723 405.394 52.6906 405.234 53.7212C405.07 54.7749 405.236 55.6905 405.732 56.4679C406.244 57.2894 407.019 57.7813 408.055 57.9434C408.802 58.0603 409.812 58.0078 411.086 57.7861L410.844 59.3406ZM416.428 60.499L417.727 52.1444L414.037 51.5669L414.246 50.2208L423.39 51.6516L423.18 52.9977L419.481 52.4189L418.182 60.7735L416.428 60.499ZM432.536 60.1017C432.35 61.2944 431.734 62.052 430.688 62.3746C430.183 62.5328 429.427 62.5331 428.419 62.3755L424.373 61.7423L425.882 52.0416L427.488 52.293L426.97 55.6278L428.767 55.9091C430.012 56.1039 430.976 56.5394 431.659 57.2157C432.425 57.9702 432.718 58.9322 432.536 60.1017ZM430.797 59.7852C431.019 58.3609 430.241 57.5097 428.464 57.2316L426.762 56.9653L426.187 60.6562L428.107 60.9565C428.917 61.0834 429.519 61.0827 429.912 60.9545C430.407 60.7886 430.702 60.3989 430.797 59.7852Z" fill="#555555"/>
<path d="M486.552 75.0185L484.132 61.5943L485.879 61.2775L486.92 67.0554L491.884 66.1552L490.843 60.3772L492.581 60.062L495.001 73.4862L493.263 73.8014L492.126 67.4959L487.162 68.3961L488.299 74.7017L486.552 75.0185ZM497.189 73.0894L494.769 59.6652L503.218 58.1328L505.638 71.557L503.9 71.8723L501.722 59.7888L496.758 60.689L498.936 72.7726L497.189 73.0894ZM511.407 69.1263L509.539 58.7641C509.124 59.2382 508.713 59.6521 508.307 60.0058C507.9 60.3594 507.325 60.7496 506.58 61.1765L506.318 59.7233C507.484 58.9581 508.454 58.0646 509.228 57.0428L510.837 56.7511L513.015 68.8346L516.241 68.2496L516.483 69.5903L508.362 71.063L508.121 69.7223L511.407 69.1263Z" fill="#555555"/>
<path d="M539.236 59.6146L545.292 47.3918L546.795 48.3368L544.189 53.5976L548.459 56.2829L551.066 51.022L552.561 51.9624L546.506 64.1852L545.01 63.2449L547.855 57.5036L543.584 54.8183L540.739 60.5596L539.236 59.6146ZM548.388 65.3688L554.444 53.1459L561.713 57.7165L555.658 69.9393L554.162 68.999L559.613 57.9969L555.342 55.3116L549.891 66.3138L548.388 65.3688ZM564.698 75.6233L557.711 71.2305L558.379 69.8838C558.55 69.5373 558.801 69.2092 559.13 68.8997C559.461 68.5848 559.938 68.2992 560.559 68.0427C561.181 67.7862 561.816 67.5621 562.464 67.3704L563.674 67.0157C563.918 66.9422 564.464 66.7589 565.312 66.4657C566.16 66.1725 566.752 65.9109 567.087 65.6809C567.427 65.454 567.677 65.1778 567.839 64.8523C568.099 64.3273 568.101 63.7983 567.844 63.2652C567.591 62.727 567.216 62.3019 566.72 61.99C566.437 61.8122 566.103 61.6468 565.717 61.4936C565.336 61.3435 564.99 61.2331 564.68 61.1623C564.373 61.0863 563.854 61.0044 563.124 60.9168L563.767 59.6174C564.548 59.6953 565.28 59.873 565.962 60.1505C566.652 60.4258 567.2 60.6913 567.607 60.9471C568.207 61.3244 568.706 61.7756 569.103 62.3006C569.507 62.8235 569.723 63.3793 569.75 63.9679C569.783 64.5596 569.676 65.1022 569.432 65.5957C569.159 66.147 568.72 66.6116 568.117 66.9896C567.518 67.3706 566.557 67.7409 565.234 68.1003L563.945 68.4569L562.864 68.7481C562.173 68.9473 561.577 69.1854 561.076 69.4622C560.574 69.7391 560.154 70.1806 559.815 70.7867L565.365 74.2766L564.698 75.6233Z" fill="#555555"/>
<path d="M41.3893 109.209L36.8161 96.358L44.9058 93.4786L49.479 106.33L47.8147 106.922L43.6982 95.3545L38.9454 97.0461L43.0619 108.614L41.3893 109.209ZM57.1438 101.26C56.9797 102.04 56.6762 102.751 56.2333 103.394C55.7272 104.121 55.1346 104.606 54.4557 104.848C53.4565 105.203 52.5256 105.034 51.6628 104.34C50.9394 103.758 50.3892 102.937 50.012 101.877C49.46 100.325 49.4086 98.879 49.8579 97.5374C50.3384 96.0914 51.3239 95.1031 52.8143 94.5726C53.0185 94.4999 53.6083 94.3398 54.5837 94.0921L56.1321 93.541L58.457 100.074C58.8538 101.189 59.2919 102.053 59.7713 102.666L58.1649 103.238C57.8856 102.803 57.5452 102.143 57.1438 101.26ZM56.4926 99.43L55.0811 95.4637C54.4836 95.5147 53.9474 95.6247 53.4727 95.7936C52.4018 96.1748 51.715 96.9013 51.4122 97.9731C51.1479 98.9254 51.2141 99.9592 51.6109 101.074C51.8486 101.742 52.1747 102.292 52.5893 102.722C53.1306 103.282 53.6993 103.456 54.2955 103.244C54.8806 103.036 55.384 102.493 55.8055 101.615C56.1275 100.947 56.3565 100.219 56.4926 99.43ZM69.6878 98.8382C68.7792 99.5534 67.8585 100.077 66.9256 100.409C65.518 100.91 64.2001 100.851 62.9719 100.23C61.7716 99.619 60.924 98.6177 60.429 97.2266C59.9457 95.8686 59.976 94.5642 60.5197 93.3134C61.0721 92.0345 62.0218 91.1554 63.3687 90.676C64.3237 90.3361 65.3977 90.1559 66.5908 90.1355L67.1183 91.6177C65.867 91.5096 64.8163 91.6068 63.9662 91.9094C62.9947 92.2552 62.344 92.891 62.0143 93.8169C61.709 94.6719 61.7313 95.5907 62.0809 96.5733C62.4385 97.578 63.0202 98.3039 63.8261 98.7509C64.6678 99.2287 65.5827 99.2918 66.5708 98.9401C67.2829 98.6867 68.1461 98.1586 69.1603 97.356L69.6878 98.8382ZM79.8724 95.2132C78.9639 95.9284 78.0432 96.452 77.1103 96.784C75.7026 97.2851 74.3847 97.2255 73.1565 96.6054C71.9563 95.9939 71.1086 94.9926 70.6136 93.6015C70.1303 92.2436 70.1606 90.9391 70.7043 89.6883C71.2568 88.4095 72.2065 87.5303 73.5534 87.0509C74.5084 86.711 75.5824 86.5309 76.7755 86.5105L77.3029 87.9927C76.0516 87.8845 75.001 87.9817 74.1509 88.2843C73.1793 88.6301 72.5287 89.2659 72.1989 90.1919C71.8937 91.0468 71.9159 91.9656 72.2656 92.9482C72.6231 93.9529 73.2048 94.6788 74.0107 95.1258C74.8524 95.6037 75.7673 95.6667 76.7554 95.315C77.4675 95.0616 78.3307 94.5336 79.3449 93.731L79.8724 95.2132ZM87.6977 90.3848C87.5337 91.1646 87.2302 91.8759 86.7872 92.5187C86.2811 93.2462 85.6886 93.7307 85.0096 93.9724C84.0104 94.328 83.0795 94.1587 82.2167 93.4645C81.4933 92.8823 80.9431 92.0613 80.5659 91.0014C80.0139 89.4502 79.9625 88.0038 80.4118 86.6622C80.8923 85.2162 81.8778 84.2279 83.3682 83.6974C83.5724 83.6247 84.1623 83.4646 85.1376 83.2169L86.686 82.6658L89.0109 89.199C89.4077 90.3141 89.8458 91.1782 90.3252 91.7912L88.7188 92.3629C88.4395 91.9275 88.0991 91.2681 87.6977 90.3848ZM87.0465 88.5548L85.6351 84.5885C85.0375 84.6395 84.5013 84.7495 84.0266 84.9184C82.9557 85.2996 82.2689 86.0261 81.9662 87.0978C81.7018 88.0502 81.768 89.084 82.1648 90.1991C82.4025 90.867 82.7287 91.4164 83.1432 91.8473C83.6845 92.4072 84.2532 92.581 84.8494 92.3688C85.4345 92.1605 85.9379 91.6176 86.3594 90.7398C86.6814 90.0717 86.9104 89.3434 87.0465 88.5548ZM101.462 87.8272L99.5328 88.5139L95.4775 84.537L97.1895 89.3479L95.5252 89.9403L93.8132 85.1294L93.1819 90.7744L91.2526 91.4611L91.9705 85.5614L88.1102 82.1588L89.7994 81.5576L93.8132 85.1294L92.2338 80.6911L93.8981 80.0987L95.4775 84.537L96.3324 79.2323L98.0216 78.631L97.1787 83.7076L101.462 87.8272ZM106.346 78.1404L104.277 86.8251L102.737 87.3733L99.4458 78.1241L100.986 77.5759L103.007 83.2563L103.406 84.5604L105.515 75.9638L107.055 75.4156L110.347 84.6648L108.807 85.213L106.346 78.1404Z" fill="#555555"/>
<path d="M162.635 103.922L164.898 90.4699L173.364 91.9027L171.101 105.354L169.36 105.06L171.396 92.9513L166.422 92.1096L164.385 104.218L162.635 103.922ZM177.486 106.711C176.065 106.471 175.018 105.773 174.344 104.619C173.718 103.539 173.527 102.273 173.771 100.823C174.015 99.3728 174.612 98.2437 175.562 97.4358C176.57 96.5664 177.784 96.2519 179.205 96.4924C180.621 96.732 181.665 97.4287 182.339 98.5826C182.965 99.6632 183.156 100.926 182.913 102.37C182.67 103.815 182.076 104.947 181.13 105.768C180.116 106.636 178.902 106.951 177.486 106.711ZM177.712 105.368C178.683 105.532 179.485 105.252 180.118 104.527C180.641 103.926 180.989 103.108 181.163 102.074C181.336 101.046 181.271 100.161 180.968 99.4203C180.607 98.5273 179.944 97.9991 178.979 97.8359C178.009 97.6716 177.207 97.949 176.576 98.6681C176.047 99.268 175.695 100.085 175.521 101.119C175.348 102.154 175.412 103.041 175.715 103.782C176.076 104.675 176.742 105.203 177.712 105.368ZM184.369 107.6L185.997 97.9182L190.001 98.5957C191.133 98.7873 191.879 99.0026 192.236 99.2414C192.948 99.7124 193.224 100.416 193.067 101.352C192.896 102.369 192.219 103.074 191.035 103.468C191.589 103.746 192.008 104.15 192.293 104.68C192.578 105.209 192.668 105.789 192.562 106.419C192.487 106.864 192.295 107.265 191.985 107.623C191.681 107.981 191.313 108.231 190.879 108.371C190.427 108.515 189.745 108.509 188.832 108.355L184.369 107.6ZM190.864 105.811C191.047 104.724 190.35 104.048 188.772 103.781L186.675 103.426L186.146 106.572L188.824 107.025C189.321 107.109 189.755 107.055 190.126 106.862C190.536 106.647 190.782 106.296 190.864 105.811ZM191.328 101.254C191.402 100.809 191.277 100.479 190.951 100.263C190.715 100.11 190.299 99.9833 189.704 99.8826L187.339 99.4823L186.878 102.221L189.651 102.69C190.64 102.495 191.199 102.016 191.328 101.254ZM197.966 109.901L199.368 101.563L195.685 100.939L195.911 99.5959L205.036 101.14L204.81 102.484L201.119 101.859L199.716 110.197L197.966 109.901ZM209.463 112.123C208.042 111.882 206.995 111.185 206.321 110.031C205.695 108.95 205.504 107.685 205.748 106.235C205.992 104.784 206.589 103.655 207.539 102.847C208.547 101.978 209.761 101.663 211.182 101.904C212.598 102.143 213.642 102.84 214.316 103.994C214.942 105.075 215.133 106.337 214.89 107.782C214.647 109.226 214.053 110.359 213.107 111.179C212.093 112.048 210.879 112.362 209.463 112.123ZM209.689 110.779C210.66 110.943 211.462 110.663 212.095 109.938C212.617 109.337 212.966 108.52 213.14 107.486C213.313 106.457 213.248 105.572 212.945 104.832C212.584 103.939 211.921 103.411 210.956 103.247C209.986 103.083 209.184 103.36 208.553 104.08C208.024 104.679 207.672 105.497 207.498 106.531C207.324 107.565 207.389 108.453 207.692 109.193C208.053 110.086 208.719 110.615 209.689 110.779ZM225.463 108.671C225.193 110.271 224.542 111.548 223.508 112.503C222.375 113.553 221.022 113.945 219.451 113.679C219.237 113.643 218.644 113.495 217.672 113.235L217.039 116.997L215.427 116.724L217.688 103.281L219.3 103.554L218.934 105.73C219.463 105.13 220.074 104.657 220.768 104.311C221.559 103.921 222.309 103.787 223.02 103.907C224.071 104.085 224.805 104.688 225.22 105.715C225.569 106.576 225.649 107.561 225.463 108.671ZM223.676 108.591C223.794 107.886 223.777 107.247 223.624 106.675C223.418 105.921 223.003 105.491 222.379 105.385C221.772 105.283 221.071 105.512 220.276 106.072C219.676 106.494 219.122 107.018 218.612 107.645L217.914 111.797C218.472 112.046 218.997 112.212 219.488 112.295C220.603 112.483 221.554 112.181 222.341 111.387C223.035 110.684 223.48 109.752 223.676 108.591ZM235.471 106.291L237.083 106.563L235.454 116.245L233.842 115.972L235.471 106.291ZM233.077 112.892C232.877 114.082 232.239 114.836 231.164 115.153C230.644 115.309 229.876 115.301 228.859 115.129L226.19 114.677L227.819 104.996L229.422 105.267L228.864 108.586L229.288 108.658C230.553 108.872 231.528 109.311 232.213 109.973C232.988 110.735 233.276 111.707 233.077 112.892ZM231.319 112.639C231.566 111.171 230.826 110.291 229.098 109.999L228.639 109.921L228.018 113.613L228.694 113.728C229.491 113.863 230.082 113.868 230.465 113.742C230.936 113.59 231.221 113.223 231.319 112.639Z" fill="#555555"/>
<path d="M280.801 113.741C279.862 114.293 278.995 114.639 278.199 114.779C276.364 115.103 274.794 114.612 273.488 113.306C272.341 112.152 271.596 110.602 271.256 108.657C270.916 106.712 271.092 105 271.785 103.522C272.563 101.85 273.869 100.852 275.704 100.529C276.501 100.389 277.434 100.418 278.504 100.616L278.782 102.209C277.759 101.836 276.789 101.73 275.872 101.892C274.619 102.113 273.755 102.967 273.278 104.455C272.894 105.665 272.824 106.959 273.065 108.339C273.307 109.718 273.816 110.911 274.592 111.916C275.542 113.159 276.642 113.67 277.895 113.45C278.806 113.289 279.683 112.858 280.524 112.157L280.801 113.741ZM291.137 112.082L289.527 112.365L288.07 104.037L285.161 104.549L285.319 105.601C285.723 108.284 285.874 110.051 285.774 110.902C285.589 112.535 284.739 113.485 283.221 113.752C282.898 113.809 282.535 113.828 282.133 113.81L281.877 112.347C282.179 112.407 282.541 112.4 282.962 112.325C283.724 112.191 284.137 111.562 284.202 110.438C284.235 109.808 284.121 108.614 283.861 106.857L283.36 103.483L289.445 102.411L291.137 112.082ZM298.074 111.137C296.655 111.387 295.435 111.081 294.416 110.219C293.466 109.411 292.864 108.282 292.61 106.834C292.356 105.385 292.543 104.121 293.169 103.041C293.828 101.883 294.868 101.18 296.288 100.93C297.702 100.681 298.918 100.987 299.937 101.849C300.888 102.657 301.489 103.783 301.742 105.226C301.995 106.669 301.812 107.935 301.194 109.026C300.528 110.184 299.488 110.888 298.074 111.137ZM297.84 109.795C298.809 109.624 299.471 109.091 299.826 108.196C300.118 107.454 300.174 106.567 299.993 105.534C299.814 104.506 299.457 103.694 298.925 103.098C298.287 102.377 297.486 102.102 296.523 102.272C295.553 102.442 294.891 102.972 294.535 103.862C294.236 104.605 294.178 105.493 294.359 106.526C294.539 107.559 294.896 108.374 295.429 108.97C296.066 109.691 296.87 109.966 297.84 109.795ZM304.857 109.666L303.164 99.9955L307.163 99.2913C308.294 99.0922 309.068 99.0451 309.485 99.1502C310.312 99.3556 310.808 99.9257 310.971 100.861C311.149 101.877 310.746 102.769 309.762 103.537C310.376 103.613 310.906 103.853 311.352 104.256C311.797 104.66 312.075 105.176 312.185 105.805C312.263 106.25 312.215 106.692 312.043 107.133C311.876 107.573 311.611 107.932 311.249 108.21C310.871 108.497 310.226 108.72 309.315 108.881L304.857 109.666ZM310.382 105.802C310.192 104.716 309.309 104.313 307.734 104.59L305.639 104.959L306.189 108.102L308.864 107.631C309.36 107.543 309.751 107.346 310.036 107.04C310.352 106.699 310.467 106.286 310.382 105.802ZM309.299 101.351C309.222 100.907 308.993 100.638 308.614 100.544C308.341 100.479 307.907 100.499 307.313 100.604L304.95 101.02L305.428 103.755L308.198 103.268C309.066 102.752 309.433 102.113 309.299 101.351ZM319.368 107.387C317.948 107.637 316.729 107.331 315.71 106.47C314.759 105.661 314.157 104.533 313.904 103.084C313.65 101.636 313.836 100.371 314.462 99.2912C315.122 98.1338 316.162 97.4302 317.581 97.1802C318.995 96.9312 320.212 97.2376 321.231 98.0993C322.181 98.9076 322.783 100.033 323.035 101.476C323.288 102.919 323.105 104.186 322.487 105.276C321.821 106.435 320.782 107.138 319.368 107.387ZM319.133 106.045C320.102 105.875 320.765 105.342 321.119 104.446C321.412 103.705 321.468 102.817 321.287 101.784C321.107 100.757 320.751 99.9449 320.218 99.3485C319.581 98.6279 318.78 98.3524 317.816 98.5221C316.847 98.6928 316.184 99.223 315.828 100.113C315.53 100.855 315.471 101.743 315.652 102.776C315.833 103.809 316.19 104.624 316.722 105.221C317.36 105.941 318.164 106.216 319.133 106.045ZM329.241 96.555L330.543 103.992C331.302 103.709 331.817 103.149 332.086 102.31C332.318 101.597 332.354 100.781 332.193 99.8636C332.033 98.9459 331.723 98.1943 331.263 97.6089C330.719 96.9134 330.045 96.5621 329.241 96.555ZM327.684 96.838C326.931 97.1195 326.418 97.6767 326.148 98.5097C325.915 99.2171 325.878 100.03 326.039 100.947C326.2 101.865 326.51 102.619 326.971 103.211C327.508 103.901 328.179 104.25 328.983 104.257L327.684 96.838ZM329.222 105.625C327.941 105.714 326.845 105.333 325.935 104.482C325.074 103.675 324.526 102.6 324.291 101.255C324.055 99.9104 324.206 98.7148 324.742 97.6684C325.309 96.5571 326.21 95.8244 327.445 95.4701L326.734 91.4098L328.292 91.1354L329.003 95.1958C330.284 95.107 331.383 95.4877 332.299 96.3378C333.159 97.1383 333.707 98.2109 333.942 99.5557C334.177 100.9 334.027 102.099 333.492 103.151C332.919 104.263 332.015 104.997 330.78 105.351L331.396 108.866L329.838 109.14L329.222 105.625ZM340.661 103.638C339.242 103.888 338.022 103.582 337.003 102.72C336.053 101.912 335.451 100.783 335.197 99.3347C334.943 97.886 335.13 96.6217 335.755 95.5417C336.415 94.3843 337.455 93.6807 338.875 93.4307C340.289 93.1817 341.505 93.4881 342.524 94.3498C343.475 95.1581 344.076 96.2838 344.329 97.7267C344.582 99.1696 344.399 100.436 343.781 101.527C343.115 102.685 342.075 103.389 340.661 103.638ZM340.426 102.296C341.396 102.125 342.058 101.592 342.413 100.697C342.705 99.9551 342.761 99.0677 342.58 98.0346C342.401 97.0072 342.044 96.1954 341.512 95.599C340.874 94.8784 340.073 94.6029 339.11 94.7726C338.14 94.9433 337.478 95.4735 337.122 96.3631C336.823 97.1058 336.765 97.9937 336.945 99.0268C337.126 100.06 337.483 100.875 338.016 101.471C338.653 102.192 339.457 102.467 340.426 102.296ZM354.589 95.0187C354.869 96.6174 354.681 98.0398 354.024 99.2858C353.306 100.656 352.163 101.479 350.593 101.755C350.379 101.793 349.771 101.852 348.768 101.934L349.426 105.691L347.816 105.974L345.466 92.5468L347.076 92.2633L347.456 94.4363C347.754 93.6936 348.173 93.0428 348.711 92.4839C349.326 91.8521 349.989 91.4736 350.699 91.3486C351.749 91.1637 352.641 91.4856 353.375 92.3142C353.99 93.009 354.395 93.9105 354.589 95.0187ZM352.878 95.543C352.755 94.8389 352.526 94.2426 352.191 93.7543C351.745 93.1129 351.211 92.847 350.588 92.9567C349.982 93.0634 349.397 93.5144 348.835 94.3096C348.41 94.9079 348.062 95.5879 347.791 96.3496L348.517 100.497C349.126 100.544 349.676 100.524 350.166 100.438C351.28 100.242 352.075 99.6379 352.552 98.6257C352.973 97.7307 353.081 96.7031 352.878 95.543ZM358.48 100.224L357.069 100.472L355.377 90.8016L357.134 90.4922L361.44 96.8465L363.331 89.4009L365.045 89.0991L366.738 98.7694L365.128 99.0529L363.93 91.9549L363.887 91.9625L363.712 93.207L362.436 98.1526L360.757 98.4482L357.852 94.2388L357.239 93.1331L357.196 93.1407L357.445 94.3105L358.48 100.224ZM373.874 87.5444L375.484 87.2609L377.177 96.9313L375.567 97.2148L373.874 87.5444ZM373.819 94.5686C374.027 95.7576 373.677 96.6819 372.77 97.3414C372.332 97.6624 371.605 97.9123 370.59 98.0912L367.924 98.5606L366.231 88.8903L367.832 88.6083L368.413 91.9241L368.837 91.8494C370.101 91.6269 371.166 91.713 372.032 92.1078C373.016 92.5652 373.612 93.3854 373.819 94.5686ZM372.078 94.9198C371.821 93.4538 370.83 92.8727 369.105 93.1765L368.646 93.2573L369.292 96.9454L369.967 96.8265C370.763 96.6863 371.321 96.4928 371.641 96.2462C372.034 95.9449 372.18 95.5027 372.078 94.9198Z" fill="#555555"/>
<path d="M434.509 105V92.8623H430.422V91.3594H440.38V92.8623H436.284V105H434.509ZM442.322 105V91.3594H444.985C446.585 91.3594 447.657 91.4795 448.202 91.7197C449.28 92.2061 449.819 93.1084 449.819 94.4268C449.819 95.9736 449.055 97.1572 447.525 97.9775C449.377 98.7158 450.303 99.8818 450.303 101.476C450.303 102.108 450.133 102.706 449.793 103.269C449.459 103.825 449.011 104.25 448.448 104.543C447.862 104.848 446.925 105 445.636 105H442.322ZM444.098 97.5029H445.961C447.396 96.9053 448.114 95.9531 448.114 94.6465C448.114 93.8496 447.824 93.3047 447.244 93.0117C446.846 92.8125 446.21 92.7129 445.337 92.7129H444.098V97.5029ZM444.098 103.638H445.776C446.562 103.638 447.2 103.462 447.692 103.11C448.249 102.712 448.527 102.135 448.527 101.379C448.527 100.371 448.023 99.6445 447.016 99.1992C446.5 98.9766 445.691 98.8652 444.59 98.8652H444.098V103.638Z" fill="#555555"/>
<path d="M539.604 122.399C538.728 123.046 537.901 123.481 537.124 123.703C535.333 124.217 533.72 123.892 532.287 122.73C531.025 121.702 530.124 120.239 529.583 118.339C529.042 116.44 529.04 114.719 529.575 113.176C530.175 111.432 531.37 110.303 533.161 109.79C533.939 109.567 534.87 109.499 535.954 109.584L536.397 111.139C535.341 110.875 534.365 110.871 533.469 111.128C532.247 111.478 531.476 112.418 531.156 113.948C530.901 115.192 530.965 116.487 531.349 117.833C531.733 119.18 532.363 120.313 533.24 121.232C534.313 122.369 535.461 122.763 536.683 122.413C537.573 122.158 538.4 121.637 539.163 120.852L539.604 122.399ZM546.034 111.926L541.412 113.25L543.728 121.382L542.156 121.832L539.467 112.39L547.232 110.165L549.921 119.607L548.349 120.058L546.034 111.926ZM558.138 114.958C557.924 115.727 557.575 116.418 557.092 117.032C556.541 117.726 555.919 118.173 555.226 118.371C554.206 118.663 553.288 118.435 552.472 117.688C551.788 117.061 551.292 116.207 550.984 115.125C550.533 113.541 550.575 112.094 551.109 110.783C551.681 109.369 552.728 108.445 554.249 108.009C554.457 107.949 555.056 107.826 556.045 107.641L557.625 107.188L559.524 113.857C559.848 114.996 560.23 115.886 560.668 116.528L559.029 116.998C558.779 116.546 558.481 115.866 558.138 114.958ZM557.606 113.09L556.453 109.041C555.853 109.055 555.311 109.131 554.827 109.269C553.734 109.583 553.002 110.265 552.631 111.316C552.307 112.25 552.306 113.286 552.63 114.424C552.825 115.106 553.115 115.675 553.5 116.132C554.004 116.725 554.561 116.934 555.169 116.76C555.766 116.589 556.303 116.078 556.78 115.229C557.144 114.582 557.419 113.869 557.606 113.09ZM563.482 115.722L562.105 116.117L559.416 106.675L561.131 106.183L566.074 112.054L567.18 104.45L568.853 103.971L571.542 113.413L569.971 113.863L568.042 106.928L567.999 106.94L567.955 108.196L567.201 113.249L565.561 113.718L562.235 109.835L561.51 108.799L561.468 108.811L561.838 109.949L563.482 115.722ZM578.294 106.797L573.673 108.122L574.905 112.449L573.334 112.9L570.645 103.458L572.216 103.008L573.299 106.811L577.921 105.487L576.838 101.683L578.409 101.233L581.098 110.675L579.527 111.125L578.294 106.797ZM587.687 109.071C586.302 109.468 585.057 109.291 583.954 108.54C582.925 107.836 582.209 106.776 581.806 105.362C581.403 103.947 581.457 102.67 581.967 101.531C582.503 100.31 583.463 99.5018 584.849 99.1048C586.229 98.7094 587.471 98.887 588.574 99.6376C589.603 100.342 590.318 101.399 590.72 102.808C591.121 104.217 591.071 105.496 590.57 106.645C590.028 107.867 589.067 108.675 587.687 109.071ZM587.314 107.761C588.26 107.49 588.863 106.89 589.123 105.962C589.337 105.194 589.3 104.306 589.013 103.297C588.727 102.294 588.289 101.524 587.697 100.986C586.988 100.336 586.163 100.146 585.222 100.415C584.276 100.686 583.672 101.283 583.411 102.205C583.191 102.975 583.225 103.864 583.513 104.873C583.8 105.881 584.239 106.655 584.831 107.192C585.54 107.842 586.368 108.032 587.314 107.761ZM601.984 104.399C601.031 105.056 600.079 105.521 599.127 105.793C597.691 106.205 596.38 106.062 595.195 105.366C594.037 104.68 593.256 103.626 592.851 102.206C592.456 100.82 592.57 99.5196 593.193 98.3051C593.826 97.0631 594.83 96.2452 596.205 95.8515C597.179 95.5723 598.262 95.4601 599.454 95.5149L599.884 97.028C598.643 96.8412 597.589 96.872 596.721 97.1205C595.73 97.4045 595.04 97.9984 594.652 98.902C594.292 99.7364 594.255 100.655 594.541 101.658C594.833 102.684 595.367 103.445 596.142 103.942C596.951 104.472 597.86 104.593 598.868 104.304C599.594 104.096 600.489 103.623 601.553 102.886L601.984 104.399ZM607.536 103.101L605.22 94.9692L601.629 95.9979L601.256 94.6877L610.153 92.1388L610.526 93.449L606.927 94.4802L609.242 102.612L607.536 103.101ZM621.988 95.9615C622.319 97.1223 622.077 98.0694 621.262 98.8026C620.87 99.1587 620.184 99.4772 619.204 99.758L615.267 100.886L612.578 91.4441L614.141 90.9962L615.065 94.2422L616.814 93.7411C618.025 93.3941 619.082 93.3838 619.986 93.7102C620.997 94.0727 621.664 94.8231 621.988 95.9615ZM620.278 96.4058C619.883 95.0195 618.821 94.574 617.092 95.0695L615.436 95.5439L616.459 99.1364L618.326 98.6015C619.115 98.3755 619.661 98.1216 619.964 97.8396C620.344 97.481 620.448 97.0031 620.278 96.4058Z" fill="#555555"/>
<path d="M40.0825 140.553L42.8439 128.733L38.8654 127.798L39.2073 126.335L48.9012 128.613L48.5592 130.077L44.5722 129.14L41.8108 140.959L40.0825 140.553ZM51.4171 143.497C50.0139 143.167 49.0126 142.405 48.4131 141.211C47.8559 140.093 47.7447 138.818 48.0792 137.385C48.4138 135.953 49.0805 134.864 50.0792 134.118C51.1396 133.314 52.3713 133.076 53.7745 133.406C55.172 133.735 56.1705 134.496 56.77 135.69C57.3271 136.808 57.439 138.08 57.1058 139.507C56.7725 140.933 56.108 142.026 55.1123 142.785C54.0463 143.588 52.8145 143.825 51.4171 143.497ZM51.727 142.17C52.6853 142.395 53.503 142.166 54.1801 141.483C54.7397 140.916 55.1388 140.122 55.3775 139.101C55.6147 138.085 55.6053 137.198 55.3493 136.44C55.0454 135.526 54.4171 134.957 53.4646 134.733C52.5063 134.507 51.6893 134.734 51.0134 135.412C50.4481 135.977 50.0462 136.77 49.8075 137.792C49.5689 138.813 49.5777 139.703 49.8337 140.461C50.1376 141.375 50.7687 141.945 51.727 142.17ZM57.2457 144.587L59.4792 135.027L61.0706 135.401L59.1451 143.643L61.5236 144.202L63.4492 135.96L65.032 136.332L63.1065 144.574L65.4765 145.131L67.402 136.889L68.9934 137.263L66.7599 146.823L57.2457 144.587ZM75.8862 144.345L71.2061 143.245L70.1823 147.627L68.5909 147.253L70.8244 137.693L72.4158 138.067L71.516 141.919L76.1961 143.019L77.0959 139.167L78.6873 139.541L76.4538 149.101L74.8624 148.727L75.8862 144.345ZM82.9885 150.917C81.5853 150.587 80.5839 149.825 79.9844 148.631C79.4273 147.513 79.3161 146.238 79.6506 144.806C79.9852 143.373 80.6519 142.284 81.6506 141.538C82.711 140.734 83.9427 140.496 85.3459 140.826C86.7434 141.155 87.7418 141.916 88.3413 143.11C88.8985 144.228 89.0104 145.501 88.6771 146.927C88.3439 148.353 87.6794 149.446 86.6837 150.205C85.6177 151.008 84.3859 151.245 82.9885 150.917ZM83.2984 149.59C84.2566 149.815 85.0744 149.586 85.7515 148.903C86.3111 148.336 86.7102 147.542 86.9489 146.521C87.1861 145.505 87.1767 144.618 86.9207 143.86C86.6168 142.946 85.9885 142.377 85.036 142.153C84.0777 141.928 83.2607 142.154 82.5848 142.832C82.0195 143.397 81.6175 144.19 81.3789 145.212C81.1403 146.233 81.1491 147.123 81.4051 147.881C81.709 148.795 82.3401 149.365 83.2984 149.59ZM92.7015 152.92L94.6251 144.686L90.9888 143.832L91.2987 142.505L100.308 144.623L99.9982 145.949L96.3534 145.093L94.4298 153.326L92.7015 152.92ZM106.936 153.999C106.376 154.566 105.736 154.999 105.016 155.299C104.197 155.637 103.437 155.723 102.736 155.558C101.703 155.315 101.012 154.668 100.662 153.617C100.368 152.735 100.35 151.747 100.606 150.651C100.98 149.048 101.719 147.804 102.822 146.92C104.008 145.965 105.371 145.668 106.911 146.03C107.122 146.08 107.705 146.265 108.659 146.585L110.259 146.961L108.681 153.714C108.412 154.867 108.313 155.831 108.385 156.606L106.725 156.216C106.725 155.698 106.796 154.959 106.936 153.999ZM107.378 152.108L108.335 148.008C107.805 147.727 107.295 147.529 106.804 147.414C105.698 147.153 104.728 147.392 103.894 148.129C103.156 148.786 102.653 149.691 102.384 150.844C102.223 151.534 102.2 152.173 102.315 152.76C102.468 153.524 102.852 153.978 103.468 154.123C104.073 154.265 104.789 154.081 105.618 153.572C106.25 153.185 106.837 152.697 107.378 152.108Z" fill="#555555"/>
<path d="M137.854 128.525L136.786 128.171L137.792 123.328L139.869 124.017L137.854 128.525ZM141.449 129.719L140.39 129.367L141.454 124.544L143.489 125.219L141.449 129.719ZM143.065 140.025L145.838 126.573L147.372 127.082L145.654 135.263L145.338 136.612L145.38 136.626L145.979 135.371L149.942 127.935L151.476 128.445L150.321 137.164L150.066 138.469L150.108 138.483L150.624 137.256L154.304 129.383L155.622 129.821L149.78 142.254L148.186 141.725L149.415 132.391L149.675 131.014L149.634 131L149.04 132.266L144.641 140.548L143.065 140.025ZM152.99 143.014L153.513 141.428C154.639 142.506 155.746 143.225 156.836 143.587C157.292 143.738 157.757 143.797 158.231 143.763C158.707 143.724 159.105 143.575 159.425 143.316C159.75 143.06 159.976 142.74 160.102 142.356C160.251 141.905 160.242 141.436 160.076 140.949C159.912 140.456 159.502 139.838 158.846 139.096L158.157 138.321L157.461 137.543C156.244 136.146 155.855 134.782 156.294 133.452C156.615 132.478 157.221 131.772 158.113 131.333C159.011 130.89 160.178 130.907 161.613 131.384C162.536 131.69 163.384 132.12 164.158 132.673L163.682 134.117C162.852 133.434 161.987 132.943 161.086 132.644C160.369 132.406 159.725 132.402 159.155 132.633C158.591 132.865 158.221 133.249 158.045 133.783C157.87 134.312 157.895 134.807 158.118 135.271C158.342 135.734 158.669 136.2 159.1 136.671L159.621 137.279L160.268 138.04L160.82 138.668C161.951 140.006 162.3 141.332 161.867 142.646C161.537 143.647 160.889 144.386 159.923 144.862C158.958 145.338 157.672 145.309 156.065 144.776C155.553 144.606 155.078 144.399 154.641 144.155C154.207 143.918 153.656 143.538 152.99 143.014ZM168.634 138.743L167.566 138.388L168.572 133.546L170.649 134.235L168.634 138.743ZM172.229 139.936L171.17 139.585L172.234 134.761L174.269 135.437L172.229 139.936Z" fill="#555555"/>
<path d="M212.816 157.822C211.805 158.262 210.896 158.506 210.089 158.553C208.229 158.661 206.756 157.99 205.67 156.54C204.717 155.258 204.222 153.63 204.188 151.656C204.153 149.682 204.592 148 205.504 146.609C206.53 145.037 207.973 144.196 209.834 144.088C210.641 144.041 211.557 144.178 212.581 144.5L212.61 146.117C211.658 145.627 210.718 145.409 209.788 145.463C208.518 145.537 207.533 146.286 206.832 147.711C206.267 148.87 205.997 150.149 206.021 151.549C206.046 152.95 206.364 154.195 206.974 155.285C207.718 156.632 208.725 157.268 209.994 157.195C210.919 157.141 211.85 156.814 212.788 156.214L212.816 157.822ZM215.17 157.844L214.93 144.205L216.702 144.102L216.806 149.972L221.842 149.679L221.739 143.809L223.502 143.706L223.743 157.345L221.979 157.447L221.866 151.041L216.83 151.334L216.943 157.74L215.17 157.844ZM225.963 157.216L225.722 143.577L234.295 143.079L234.535 156.717L232.772 156.82L232.555 144.543L227.519 144.836L227.735 157.113L225.963 157.216ZM238.164 142.854C239.012 142.804 239.682 143.082 240.173 143.687C240.669 144.291 240.926 145.097 240.944 146.105C240.962 147.118 240.734 147.956 240.259 148.617C239.791 149.271 239.132 149.623 238.284 149.673C237.436 149.722 236.764 149.447 236.267 148.849C235.771 148.244 235.513 147.435 235.495 146.422C235.478 145.414 235.706 144.58 236.18 143.919C236.655 143.258 237.316 142.903 238.164 142.854ZM238.183 143.952C237.71 143.98 237.369 144.228 237.16 144.698C236.952 145.161 236.853 145.71 236.864 146.342C236.875 146.981 236.993 147.522 237.218 147.967C237.442 148.405 237.791 148.611 238.265 148.583C238.733 148.556 239.071 148.31 239.28 147.847C239.494 147.377 239.595 146.823 239.584 146.184C239.573 145.551 239.452 145.016 239.222 144.578C238.998 144.133 238.651 143.925 238.183 143.952ZM237.113 156.981L235.674 157.064L244.729 142.067L246.177 141.983L237.113 156.981ZM243.531 149.368C244.344 149.32 245.011 149.586 245.53 150.166C246.05 150.746 246.318 151.516 246.335 152.477C246.355 153.584 246.101 154.47 245.574 155.134C245.047 155.792 244.4 156.143 243.634 156.188C242.885 156.231 242.245 155.97 241.714 155.402C241.183 154.829 240.908 154.006 240.889 152.934C240.871 151.915 241.102 151.078 241.582 150.422C242.063 149.767 242.712 149.415 243.531 149.368ZM243.577 150.456C243.115 150.483 242.776 150.725 242.562 151.183C242.348 151.641 242.247 152.216 242.259 152.907C242.272 153.675 242.417 154.238 242.693 154.598C242.968 154.951 243.287 155.117 243.65 155.096C244.036 155.074 244.357 154.853 244.613 154.433C244.869 154.014 244.991 153.423 244.977 152.661C244.967 152.064 244.846 151.54 244.616 151.09C244.391 150.64 244.045 150.428 243.577 150.456Z" fill="#555555"/>
<path d="M302.116 169.983L297.759 158.654L293.948 160.129L293.408 158.726L302.696 155.133L303.235 156.536L299.415 158.014L303.772 169.343L302.116 169.983ZM309.026 167.31L304.13 154.578L305.786 153.938L307.893 159.418L312.598 157.598L310.491 152.118L312.139 151.48L317.035 164.212L315.387 164.849L313.087 158.869L308.382 160.689L310.682 166.67L309.026 167.31ZM319.108 163.41L314.213 150.678L322.221 147.58L327.117 160.312L325.469 160.949L321.063 149.489L316.357 151.309L320.764 162.769L319.108 163.41Z" fill="#555555"/>
<path d="M361.672 129.055L371.989 126.347L371.678 127.835L364.633 129.668L370.344 134.219L370.037 135.69L361.672 129.055ZM380.113 137.404C379.295 137.561 378.712 137.633 378.361 137.619C378.01 137.611 377.677 137.574 377.361 137.508C376.69 137.367 376.104 137.109 375.601 136.734C375.099 136.359 374.757 135.889 374.576 135.324C374.401 134.76 374.423 133.95 374.644 132.895L375.452 129.024L373.053 128.519L373.331 127.186L375.731 127.69L376.54 123.819L378.14 124.155L377.331 128.026L381.606 128.925L381.327 130.258L377.052 129.36L376.249 133.206C376.087 133.98 376.064 134.547 376.181 134.907C376.298 135.261 376.493 135.544 376.766 135.757C377.045 135.971 377.393 136.122 377.812 136.21C378.586 136.373 379.451 136.301 380.407 135.993L380.113 137.404ZM385.27 138.892L386.999 130.615L384.333 130.055L384.611 128.721L388.877 129.618L387.148 137.894L389.823 138.457L389.545 139.79L385.27 138.892ZM387.735 125.759C387.811 125.397 387.99 125.154 388.274 125.028C388.558 124.902 388.809 124.861 389.026 124.907C389.25 124.954 389.467 125.093 389.676 125.322C389.885 125.552 389.952 125.847 389.877 126.209C389.803 126.564 389.624 126.805 389.34 126.931C389.056 127.057 388.803 127.097 388.579 127.05C388.361 127.004 388.147 126.866 387.938 126.636C387.729 126.407 387.661 126.114 387.735 125.759ZM401.271 141.851C400.454 142.008 399.871 142.08 399.52 142.066C399.169 142.058 398.835 142.021 398.52 141.955C397.849 141.814 397.262 141.556 396.76 141.181C396.258 140.806 395.916 140.336 395.735 139.771C395.559 139.207 395.582 138.398 395.802 137.342L396.611 133.471L394.212 132.966L394.49 131.633L396.89 132.137L397.699 128.266L399.298 128.602L398.49 132.474L402.764 133.372L402.486 134.705L398.211 133.807L397.408 137.653C397.246 138.427 397.223 138.994 397.339 139.354C397.457 139.708 397.652 139.991 397.925 140.204C398.203 140.419 398.552 140.57 398.971 140.658C399.745 140.82 400.61 140.748 401.566 140.44L401.271 141.851ZM406.317 143.315L408.937 130.772L406.065 130.168L406.345 128.826L410.818 129.766L408.195 142.318L411.197 142.949L410.918 144.282L406.317 143.315ZM422.439 146.039C421.034 146.378 419.76 146.428 418.619 146.188C417.753 146.006 417.024 145.629 416.432 145.055C415.839 144.481 415.42 143.753 415.173 142.869C414.934 141.98 414.91 141.08 415.1 140.168C415.283 139.29 415.655 138.488 416.213 137.761C416.772 137.035 417.448 136.521 418.241 136.221C419.036 135.915 419.863 135.852 420.723 136.033C421.864 136.273 422.693 136.872 423.211 137.831C423.735 138.791 423.82 140.12 423.465 141.818L423.393 142.162L416.77 140.77C416.631 141.436 416.642 142.072 416.802 142.681C416.968 143.291 417.248 143.781 417.644 144.151C418.039 144.522 418.527 144.768 419.106 144.89C420.138 145.107 421.351 145.002 422.745 144.577L422.439 146.039ZM417.114 139.594L421.905 140.601L421.954 140.369C422.118 139.583 422.057 138.918 421.769 138.372C421.482 137.827 421.018 137.487 420.375 137.352C419.727 137.216 419.116 137.336 418.54 137.712C417.972 138.083 417.497 138.711 417.114 139.594ZM434.49 144.36L424.173 147.068L424.484 145.58L431.538 143.748L425.817 139.196L426.125 137.725L434.49 144.36Z" fill="#555555"/>
<path d="M448.357 157.955L458.771 155.652L458.403 157.127L451.292 158.684L456.822 163.454L456.458 164.912L448.357 157.955ZM458.401 165.401L461.84 151.638L463.425 152.037L461.846 158.355C462.484 157.736 463.176 157.3 463.922 157.046C464.668 156.793 465.362 156.747 466.004 156.908C466.544 157.044 467 157.307 467.374 157.697C467.755 158.082 467.984 158.494 468.062 158.93C468.129 159.267 468.146 159.613 468.111 159.966C468.079 160.315 467.93 161.017 467.666 162.075L466.337 167.396L464.751 166.997L466.13 161.48C466.358 160.565 466.464 159.951 466.445 159.638C466.434 159.321 466.332 159.039 466.14 158.791C465.954 158.545 465.722 158.387 465.443 158.317C464.887 158.177 464.221 158.291 463.447 158.658C462.678 159.027 461.987 159.557 461.373 160.248L459.986 165.799L458.401 165.401ZM472.736 167.599L475.288 157.384C474.716 157.645 474.172 157.853 473.656 158.007C473.14 158.161 472.456 158.279 471.602 158.361L471.96 156.928C473.336 156.712 474.587 156.299 475.712 155.687L477.298 156.086L474.321 167.998L477.501 168.797L477.171 170.119L469.167 168.107L469.497 166.785L472.736 167.599ZM489.068 168.189L478.654 170.492L479.022 169.017L486.142 167.462L480.603 162.69L480.968 161.231L489.068 168.189Z" fill="#555555"/>
<path d="M521.311 154.492L529.73 147.927L530.029 149.418L524.273 153.886L531.31 155.812L531.605 157.286L521.311 154.492ZM533.569 156.89L530.783 142.981L532.385 142.658L533.665 149.043C533.976 148.21 534.414 147.518 534.979 146.967C535.544 146.417 536.151 146.077 536.8 145.946C537.345 145.836 537.87 145.877 538.375 146.068C538.884 146.252 539.267 146.524 539.525 146.885C539.729 147.161 539.892 147.465 540.013 147.8C540.132 148.128 540.299 148.827 540.513 149.896L541.591 155.273L539.988 155.596L538.871 150.02C538.686 149.095 538.518 148.496 538.367 148.221C538.221 147.94 538.008 147.729 537.729 147.588C537.456 147.445 537.178 147.403 536.897 147.459C536.334 147.573 535.781 147.962 535.239 148.627C534.703 149.291 534.306 150.068 534.048 150.957L535.172 156.567L533.569 156.89ZM544.032 154.53L543.694 152.841C545.143 153.242 546.35 153.346 547.315 153.151C548.199 152.973 548.875 152.559 549.342 151.909C549.814 151.252 549.966 150.501 549.797 149.656C549.626 148.806 549.169 148.178 548.424 147.772C547.685 147.365 546.555 147.315 545.033 147.622L544.145 147.801L543.878 146.465L545.11 146.217C546.23 145.991 546.989 145.578 547.389 144.977C547.787 144.371 547.925 143.76 547.802 143.146C547.69 142.588 547.393 142.161 546.909 141.864C546.424 141.561 545.759 141.495 544.915 141.665C543.967 141.856 543.001 142.329 542.017 143.083L541.711 141.558C542.721 140.93 543.679 140.525 544.587 140.342C546.212 140.014 547.397 140.11 548.14 140.63C548.889 141.142 549.345 141.81 549.509 142.631C549.632 143.24 549.582 143.845 549.362 144.445C549.142 145.045 548.634 145.644 547.839 146.24C548.661 146.314 549.303 146.477 549.766 146.731C550.229 146.984 550.607 147.317 550.899 147.731C551.196 148.143 551.402 148.63 551.514 149.193C551.765 150.446 551.507 151.574 550.74 152.577C549.979 153.579 548.863 154.229 547.393 154.525C546.968 154.611 546.496 154.673 545.978 154.712C545.466 154.749 544.817 154.688 544.032 154.53ZM562.46 146.198L554.04 152.764L553.742 151.273L559.506 146.803L552.461 144.878L552.165 143.405L562.46 146.198Z" fill="#555555"/>
<path d="M590.274 137.758L600.932 137.505L600.287 138.882L593.012 139.039L597.521 144.788L596.883 146.149L590.274 137.758ZM598.696 147.003L604.714 134.157L606.192 134.854L603.43 140.752C604.174 140.267 604.937 139.972 605.717 139.867C606.498 139.762 607.187 139.851 607.786 140.133C608.29 140.37 608.687 140.716 608.979 141.171C609.278 141.623 609.425 142.071 609.417 142.514C609.418 142.858 609.368 143.2 609.266 143.541C609.167 143.877 608.887 144.538 608.424 145.525L606.098 150.491L604.619 149.794L607.031 144.645C607.432 143.791 607.653 143.208 607.695 142.898C607.744 142.584 607.699 142.288 607.558 142.008C607.423 141.73 607.226 141.53 606.966 141.408C606.446 141.163 605.772 141.146 604.942 141.357C604.117 141.571 603.337 141.958 602.602 142.519L600.175 147.7L598.696 147.003ZM615.893 155.107L608.427 151.589L609.065 150.228C609.229 149.878 609.476 149.538 609.805 149.207C610.137 148.871 610.622 148.549 611.258 148.24C611.895 147.931 612.546 147.652 613.213 147.402L614.458 146.94C614.71 146.845 615.271 146.614 616.142 146.247C617.013 145.88 617.618 145.569 617.957 145.314C618.301 145.062 618.551 144.772 618.705 144.443C618.953 143.912 618.933 143.404 618.643 142.917C618.356 142.426 617.947 142.055 617.417 141.805C617.115 141.663 616.759 141.537 616.351 141.429C615.947 141.323 615.583 141.252 615.257 141.215C614.934 141.173 614.39 141.146 613.625 141.136L614.24 139.822C615.057 139.819 615.827 139.916 616.55 140.114C617.28 140.309 617.862 140.509 618.297 140.714C618.938 141.016 619.477 141.399 619.913 141.864C620.357 142.326 620.605 142.838 620.659 143.401C620.717 143.966 620.63 144.498 620.396 144.997C620.135 145.554 619.698 146.044 619.086 146.468C618.478 146.895 617.493 147.347 616.13 147.825L614.803 148.297L613.689 148.686C612.978 148.947 612.367 149.235 611.857 149.552C611.346 149.868 610.927 150.335 610.599 150.951L616.531 153.746L615.893 155.107ZM628.245 155.652L617.586 155.905L618.231 154.528L625.514 154.375L620.998 148.623L621.635 147.262L628.245 155.652Z" fill="#555555"/>
<path d="M65.8771 190.505C65.3843 191.329 64.7877 191.951 64.0872 192.371C63.3926 192.792 62.7524 193.004 62.1664 193.008C61.3461 193.013 60.6056 192.663 59.9448 191.959C59.2899 191.254 58.9579 190.181 58.9487 188.739C58.9414 187.603 59.1517 186.588 59.5796 185.694C60.0075 184.795 60.583 184.085 61.3063 183.565C62.0295 183.039 62.9272 182.772 63.9994 182.765C64.31 182.763 64.7789 182.793 65.4063 182.853C65.5001 182.864 65.6408 182.878 65.8284 182.894L65.8005 178.526L67.444 178.516L67.5347 192.701L65.8912 192.711L65.8771 190.505ZM65.8647 188.563L65.8378 184.353C65.2567 184.205 64.7172 184.132 64.2191 184.135C63.2113 184.142 62.373 184.537 61.7042 185.32C61.0412 186.104 60.714 187.166 60.7226 188.508C60.7288 189.481 60.9152 190.215 61.2816 190.711C61.6539 191.201 62.0744 191.444 62.5431 191.441C63.0529 191.438 63.6137 191.176 64.2257 190.657C64.8376 190.137 65.3839 189.439 65.8647 188.563ZM78.3057 191.981C77.0031 192.611 75.7688 192.929 74.6028 192.937C73.718 192.942 72.9256 192.728 72.2255 192.293C71.5255 191.858 70.9619 191.234 70.5348 190.423C70.1136 189.605 69.9 188.73 69.894 187.799C69.8883 186.902 70.082 186.04 70.4752 185.211C70.8683 184.382 71.4208 183.737 72.1328 183.276C72.8446 182.808 73.64 182.572 74.5189 182.566C75.6849 182.558 76.6221 182.968 77.3305 183.796C78.0448 184.623 78.4075 185.904 78.4186 187.639L78.4208 187.99L71.6534 188.034C71.6577 188.713 71.8023 189.333 72.0872 189.894C72.3779 190.455 72.7556 190.874 73.2202 191.153C73.6849 191.431 74.2131 191.568 74.8049 191.564C75.8596 191.557 77.0233 191.198 78.2962 190.487L78.3057 191.981ZM71.7423 186.811L76.6377 186.78L76.6361 186.543C76.631 185.74 76.4307 185.102 76.035 184.63C75.6394 184.158 75.1135 183.924 74.4573 183.929C73.7952 183.933 73.2225 184.18 72.7393 184.669C72.2619 185.153 71.9296 185.867 71.7423 186.811ZM81.0663 192.095L81.0552 190.364C81.7142 190.787 82.4104 191.085 83.1439 191.256C83.8774 191.421 84.4991 191.502 85.0088 191.499C85.835 191.493 86.4288 191.358 86.7904 191.092C87.152 190.82 87.3315 190.485 87.3289 190.086C87.3273 189.823 87.2409 189.597 87.0697 189.411C86.8986 189.225 86.4753 188.996 85.7997 188.725L85.2358 188.5L84.0991 188.059C82.8774 187.592 82.107 187.158 81.788 186.756C81.4632 186.359 81.299 185.874 81.2953 185.3C81.2901 184.491 81.5964 183.824 82.2142 183.299C82.8378 182.773 83.8498 182.506 85.2501 182.497C86.2989 182.49 87.293 182.636 88.2325 182.935L88.242 184.42C87.1614 184.04 86.1465 183.853 85.1973 183.86C84.5059 183.864 83.9647 183.99 83.5737 184.239C83.1885 184.482 82.9971 184.785 82.9994 185.148C83.0017 185.5 83.1734 185.78 83.5146 185.989C83.8499 186.197 84.3964 186.437 85.154 186.708L86.264 187.105C87.28 187.467 87.9944 187.864 88.4074 188.295C88.8203 188.726 89.0288 189.267 89.033 189.917C89.0384 190.767 88.7148 191.469 88.062 192.024C87.4151 192.573 86.3739 192.852 84.9384 192.861C83.6845 192.869 82.3938 192.614 81.0663 192.095ZM100.025 192.211C98.9321 192.587 97.8903 192.778 96.9001 192.784C95.9157 192.791 95.0383 192.571 94.2679 192.125C93.5033 191.672 92.9046 191.061 92.472 190.29C92.0392 189.514 91.8197 188.631 91.8134 187.64C91.8039 186.152 92.2794 184.913 93.2399 183.922C94.2062 182.931 95.3749 182.432 96.746 182.423C97.7596 182.416 98.8331 182.6 99.9664 182.974L99.9764 184.547C98.8305 184.033 97.8064 183.778 96.9041 183.784C96.3064 183.788 95.7449 183.941 95.2195 184.243C94.694 184.54 94.2897 185.002 94.0067 185.631C93.7236 186.26 93.5841 186.905 93.5884 187.567C93.594 188.452 93.8748 189.294 94.4307 190.093C94.9925 190.892 95.8651 191.288 97.0487 191.281C97.4061 191.278 97.7575 191.253 98.1029 191.203C98.4483 191.148 99.0857 190.96 100.015 190.637L100.025 192.211ZM103.411 192.47L103.348 182.653L104.983 182.642L104.997 184.787C105.501 183.975 106.08 183.368 106.734 182.965C107.394 182.557 108.128 182.35 108.936 182.345C109.528 182.341 110.12 182.428 110.713 182.606L110.736 186.147L109.163 186.158L109.148 183.916C108.873 183.871 108.656 183.849 108.498 183.85C107.888 183.854 107.292 184.098 106.709 184.583C106.126 185.067 105.56 185.791 105.009 186.756L105.046 192.46L103.411 192.47ZM116.137 192.388L116.083 183.933L113.359 183.951L113.35 182.589L117.709 182.561L117.763 191.015L120.497 190.998L120.505 192.36L116.137 192.388ZM115.779 179.031C115.777 178.662 115.901 178.386 116.152 178.202C116.403 178.019 116.64 177.927 116.862 177.925C117.091 177.924 117.331 178.013 117.585 178.193C117.838 178.373 117.965 178.648 117.968 179.017C117.97 179.38 117.846 179.653 117.595 179.837C117.344 180.02 117.105 180.112 116.876 180.114C116.653 180.115 116.416 180.026 116.163 179.846C115.909 179.666 115.782 179.394 115.779 179.031ZM125.66 184.716C126.158 183.892 126.755 183.27 127.45 182.85C128.144 182.429 128.784 182.217 129.37 182.213C130.191 182.208 130.931 182.558 131.592 183.262C132.253 183.967 132.588 185.04 132.597 186.482C132.604 187.618 132.391 188.636 131.957 189.536C131.529 190.429 130.954 191.139 130.231 191.665C129.507 192.185 128.61 192.449 127.537 192.456C127.233 192.458 126.764 192.428 126.13 192.368C126.037 192.357 125.896 192.343 125.708 192.327L125.733 196.141L124.098 196.152L124.011 182.52L125.646 182.51L125.66 184.716ZM125.672 186.658L125.699 190.868C126.292 191.016 126.837 191.089 127.335 191.086C128.325 191.079 129.155 190.687 129.824 189.91C130.498 189.126 130.832 188.06 130.823 186.713C130.817 185.734 130.627 185 130.255 184.51C129.883 184.02 129.462 183.777 128.994 183.78C128.484 183.783 127.923 184.045 127.311 184.564C126.705 185.084 126.159 185.782 125.672 186.658ZM143.213 191.819C142.448 192.146 141.892 192.34 141.547 192.401C141.202 192.467 140.868 192.502 140.546 192.504C139.86 192.508 139.232 192.38 138.662 192.12C138.092 191.86 137.659 191.474 137.363 190.96C137.072 190.446 136.924 189.65 136.917 188.572L136.892 184.617L134.44 184.633L134.431 183.27L136.883 183.255L136.858 179.3L138.492 179.289L138.518 183.244L142.886 183.216L142.894 184.578L138.526 184.606L138.552 188.535C138.557 189.326 138.654 189.885 138.843 190.212C139.033 190.533 139.284 190.769 139.595 190.919C139.912 191.069 140.285 191.143 140.713 191.14C141.504 191.135 142.334 190.881 143.204 190.377L143.213 191.819ZM148.568 192.18L148.514 183.725L145.79 183.742L145.781 182.38L150.14 182.352L150.194 190.807L152.928 190.789L152.936 192.152L148.568 192.18ZM148.21 178.822C148.208 178.453 148.332 178.177 148.583 177.994C148.834 177.811 149.07 177.718 149.293 177.717C149.522 177.715 149.762 177.805 150.016 177.985C150.269 178.165 150.396 178.439 150.399 178.808C150.401 179.172 150.277 179.445 150.026 179.628C149.775 179.811 149.536 179.904 149.307 179.905C149.084 179.907 148.847 179.817 148.593 179.637C148.34 179.457 148.213 179.186 148.21 178.822ZM160.672 192.374C159.266 192.383 158.138 191.901 157.288 190.928C156.438 189.949 156.008 188.713 155.999 187.219C155.989 185.725 156.403 184.486 157.24 183.502C158.078 182.518 159.2 182.021 160.606 182.012C162.006 182.003 163.132 182.485 163.981 183.458C164.831 184.431 165.261 185.665 165.271 187.159C165.28 188.653 164.866 189.895 164.029 190.885C163.191 191.869 162.073 192.365 160.672 192.374ZM160.664 191.012C161.537 191.006 162.229 190.662 162.74 189.979C163.251 189.296 163.503 188.36 163.495 187.171C163.488 185.987 163.224 185.057 162.704 184.381C162.184 183.704 161.488 183.369 160.615 183.375C159.736 183.38 159.041 183.725 158.529 184.408C158.018 185.091 157.766 186.024 157.774 187.207C157.781 188.397 158.045 189.33 158.565 190.006C159.085 190.682 159.785 191.018 160.664 191.012ZM167.438 192.058L167.375 182.241L169.01 182.231L169.024 184.375C169.488 183.616 170.049 183.021 170.709 182.589C171.368 182.157 172.029 181.939 172.691 181.935C173.271 181.931 173.799 182.083 174.276 182.39C174.752 182.692 175.086 183.091 175.277 183.588C175.473 184.085 175.576 185.063 175.585 186.522L175.62 192.006L173.986 192.016L173.949 186.33C173.943 185.387 173.892 184.766 173.797 184.468C173.707 184.163 173.538 183.915 173.291 183.724C173.05 183.532 172.785 183.437 172.498 183.439C171.924 183.442 171.308 183.719 170.649 184.268C169.996 184.817 169.459 185.503 169.036 186.326L169.073 192.048L167.438 192.058Z" fill="#555555"/>
<path d="M201.932 191.801L202.287 177.62L203.917 177.742L203.694 186.652L208.514 182.463L210.688 182.626L205.877 186.816L210.565 192.45L208.321 192.281L203.694 186.652L203.562 191.923L201.932 191.801ZM220.432 192.54C219.114 193.063 217.873 193.281 216.71 193.193C215.828 193.127 215.045 192.848 214.361 192.357C213.676 191.865 213.134 191.196 212.734 190.35C212.339 189.499 212.154 188.608 212.177 187.677C212.2 186.78 212.42 185.934 212.838 185.138C213.256 184.342 213.827 183.742 214.551 183.339C215.276 182.93 216.076 182.758 216.953 182.824C218.115 182.912 219.037 183.398 219.717 184.282C220.403 185.167 220.725 186.476 220.681 188.21L220.672 188.562L213.924 188.054C213.907 188.734 214.032 189.365 214.298 189.949C214.57 190.533 214.934 190.982 215.388 191.298C215.843 191.614 216.365 191.794 216.955 191.839C218.007 191.918 219.178 191.654 220.47 191.046L220.432 192.54ZM214.051 186.84L218.933 187.207L218.939 186.97C218.959 186.168 218.779 185.514 218.399 185.01C218.02 184.507 217.503 184.23 216.848 184.181C216.188 184.131 215.609 184.331 215.112 184.781C214.621 185.225 214.267 185.912 214.051 186.84ZM226.666 193.264L222.38 183.505L224.176 183.64L227.594 191.274L230.793 184.137L232.432 184.261L228.409 193.096C227.56 194.962 226.766 196.185 226.025 196.763C225.291 197.342 224.351 197.588 223.206 197.502C222.709 197.465 222.266 197.387 221.877 197.27L221.913 195.829C222.359 196.004 222.787 196.106 223.196 196.137C223.722 196.176 224.192 196.109 224.606 195.935C225.02 195.76 225.403 195.425 225.755 194.93C226.107 194.434 226.358 194.001 226.508 193.63L226.666 193.264ZM234.246 194.23L232.897 184.295L234.413 184.409L235.192 190.454L235.403 191.861L235.674 190.49L237.384 184.633L238.848 184.743L240.46 190.85L240.732 192.261L240.968 190.888L242.056 184.984L243.309 185.078L241.477 194.773L239.952 194.658L238.234 188.2L237.971 186.79L237.927 186.786L237.621 188.145L235.832 194.349L234.246 194.23ZM248.639 195.584C247.237 195.479 246.127 194.906 245.31 193.864C244.494 192.817 244.104 191.546 244.141 190.053C244.179 188.559 244.63 187.355 245.496 186.44C246.362 185.525 247.496 185.12 248.899 185.225C250.295 185.33 251.402 185.903 252.219 186.945C253.035 187.986 253.425 189.254 253.388 190.748C253.35 192.241 252.899 193.448 252.033 194.369C251.167 195.284 250.036 195.689 248.639 195.584ZM248.673 194.222C249.544 194.288 250.245 194 250.776 193.359C251.307 192.719 251.588 191.804 251.617 190.614C251.647 189.431 251.413 188.481 250.916 187.762C250.419 187.044 249.735 186.653 248.864 186.587C247.988 186.521 247.284 186.809 246.753 187.45C246.222 188.09 245.941 189.002 245.912 190.186C245.882 191.375 246.116 192.328 246.613 193.046C247.11 193.765 247.797 194.157 248.673 194.222ZM256.227 195.882L256.473 186.067L258.103 186.19L258.049 188.334C258.578 187.564 259.174 187.004 259.839 186.655C260.509 186.3 261.248 186.153 262.054 186.214C262.644 186.258 263.232 186.394 263.817 186.619L263.729 190.16L262.16 190.042L262.216 187.802C261.943 187.734 261.727 187.695 261.569 187.683C260.962 187.637 260.36 187.833 259.763 188.269C259.167 188.705 258.579 189.383 258 190.302L257.857 196.004L256.227 195.882ZM272.768 194.915C272.251 195.698 271.637 196.271 270.925 196.634C270.219 196.998 269.574 197.158 268.99 197.114C268.172 197.052 267.445 196.643 266.808 195.885C266.177 195.127 265.88 194.028 265.916 192.587C265.944 191.451 266.186 190.454 266.641 189.596C267.095 188.732 267.692 188.07 268.429 187.609C269.167 187.142 270.07 186.949 271.139 187.029C271.449 187.052 271.916 187.12 272.539 187.231C272.632 187.25 272.772 187.275 272.959 187.306L273.068 182.94L274.707 183.063L274.352 197.244L272.713 197.121L272.768 194.915ZM272.817 192.974L272.922 188.765C272.348 188.569 271.812 188.453 271.315 188.415C270.31 188.34 269.462 188.666 268.771 189.395C268.085 190.124 267.725 191.159 267.692 192.5C267.667 193.473 267.83 194.222 268.18 194.747C268.536 195.266 268.947 195.544 269.415 195.579C269.923 195.617 270.49 195.402 271.117 194.932C271.743 194.463 272.31 193.81 272.817 192.974ZM277.082 196.93L277.125 195.199C277.769 195.676 278.454 196.029 279.18 196.26C279.906 196.485 280.523 196.616 281.031 196.654C281.855 196.716 282.451 196.629 282.82 196.393C283.189 196.151 283.379 195.83 283.389 195.432C283.395 195.168 283.316 194.937 283.152 194.736C282.987 194.536 282.572 194.273 281.907 193.947L281.352 193.677L280.232 193.144C279.029 192.578 278.274 192.081 277.969 191.653C277.658 191.231 277.509 190.732 277.524 190.158C277.544 189.35 277.87 188.709 278.502 188.234C279.141 187.759 280.158 187.575 281.555 187.68C282.6 187.758 283.587 187.985 284.514 188.36L284.477 189.845C283.412 189.377 282.406 189.108 281.459 189.037C280.77 188.985 280.226 189.068 279.828 189.284C279.437 189.495 279.236 189.782 279.227 190.146C279.219 190.497 279.381 190.791 279.715 191.027C280.042 191.263 280.58 191.547 281.326 191.879L282.421 192.366C283.422 192.811 284.122 193.266 284.52 193.73C284.918 194.194 285.109 194.751 285.093 195.402C285.072 196.251 284.727 196.926 284.059 197.428C283.397 197.924 282.35 198.118 280.918 198.01C279.668 197.916 278.389 197.556 277.082 196.93Z" fill="#555555"/>
<path d="M340.925 201H339.492V191.183H341.276L344.423 198.188L347.569 191.183H349.31V201H347.675L347.719 193.802H347.675L347.288 194.997L345.179 199.646H343.474L341.338 194.997L340.925 193.802H340.881L340.925 194.997V201ZM357.615 198.794C357.199 199.474 356.675 200.042 356.042 200.499C355.321 201.015 354.601 201.272 353.88 201.272C352.819 201.272 351.999 200.801 351.419 199.857C350.933 199.066 350.689 198.108 350.689 196.983C350.689 195.337 351.126 193.957 351.999 192.844C352.937 191.643 354.196 191.042 355.778 191.042C355.995 191.042 356.604 191.089 357.606 191.183H359.25V198.117C359.25 199.301 359.373 200.262 359.619 201H357.914C357.797 200.496 357.697 199.761 357.615 198.794ZM357.615 196.852V192.642C357.035 192.489 356.493 192.413 355.989 192.413C354.853 192.413 353.962 192.867 353.317 193.775C352.749 194.584 352.465 195.58 352.465 196.764C352.465 197.473 352.588 198.1 352.834 198.645C353.156 199.354 353.634 199.708 354.267 199.708C354.888 199.708 355.544 199.365 356.235 198.68C356.763 198.158 357.223 197.549 357.615 196.852ZM365.13 201V192.545H361.395V191.183H370.649V192.545H366.905V201H365.13ZM381.231 195.199C381.231 196.822 380.801 198.19 379.939 199.304C378.996 200.528 377.728 201.141 376.134 201.141C375.917 201.141 375.308 201.094 374.306 201V204.814H372.671V191.183H374.306V193.389C374.728 192.709 375.252 192.141 375.879 191.684C376.594 191.168 377.312 190.91 378.032 190.91C379.099 190.91 379.922 191.382 380.502 192.325C380.988 193.116 381.231 194.074 381.231 195.199ZM379.456 195.419C379.456 194.704 379.333 194.077 379.087 193.538C378.759 192.829 378.278 192.475 377.646 192.475C377.03 192.475 376.377 192.817 375.686 193.503C375.164 194.019 374.704 194.628 374.306 195.331V199.541C374.897 199.693 375.442 199.77 375.94 199.77C377.071 199.77 377.959 199.312 378.604 198.398C379.172 197.59 379.456 196.597 379.456 195.419ZM390.1 193.512L385.239 201H383.604V191.183H385.239V197.212L385.178 198.574L390.047 191.183H391.682V201H390.047L390.1 193.512ZM394.854 201V191.183H396.489V195.814L401.209 191.183H403.389L398.678 195.814L403.512 201H401.262L396.489 195.814V201H394.854ZM413.487 200.719C412.392 201.088 411.349 201.272 410.358 201.272C408.864 201.272 407.643 200.774 406.693 199.778C405.768 198.8 405.305 197.572 405.305 196.096C405.305 194.654 405.771 193.436 406.702 192.439C407.651 191.42 408.841 190.91 410.271 190.91C411.284 190.91 412.356 191.101 413.487 191.481V193.055C412.345 192.533 411.322 192.272 410.42 192.272C409.389 192.272 408.562 192.653 407.941 193.415C407.367 194.118 407.08 194.991 407.08 196.034C407.08 197.101 407.385 197.979 407.994 198.671C408.627 199.403 409.468 199.77 410.517 199.77C411.272 199.77 412.263 199.562 413.487 199.146V200.719ZM422.479 196.5H417.671V201H416.036V191.183H417.671V195.138H422.479V191.183H424.113V201H422.479V196.5ZM435.012 200.35C433.705 200.971 432.469 201.281 431.303 201.281C429.914 201.281 428.774 200.754 427.884 199.699C427.046 198.709 426.627 197.514 426.627 196.113C426.627 194.701 427.049 193.494 427.893 192.492C428.783 191.438 429.914 190.91 431.285 190.91C432.656 190.91 433.673 191.44 434.335 192.501C434.88 193.374 435.152 194.543 435.152 196.008V196.359H428.385C428.385 197.35 428.657 198.179 429.202 198.847C429.788 199.556 430.559 199.91 431.514 199.91C432.568 199.91 433.734 199.559 435.012 198.855V200.35ZM428.446 195.138H433.377V194.9C433.377 194.162 433.201 193.556 432.85 193.081C432.457 192.542 431.903 192.272 431.188 192.272C430.427 192.272 429.794 192.571 429.29 193.169C428.868 193.679 428.587 194.335 428.446 195.138ZM440.804 201V192.545H437.068V191.183H446.323V192.545H442.579V201H440.804Z" fill="#555555"/>
<path d="M512.333 184.749L507.6 183.908L506.13 192.235L504.521 191.949L506.227 182.281L514.18 183.693L512.474 193.361L510.864 193.075L512.333 184.749ZM523.317 194.625C521.923 195.009 520.652 195.098 519.504 194.894C518.136 194.652 517.106 193.933 516.412 192.739C515.759 191.617 515.554 190.367 515.798 188.988C516.043 187.597 516.668 186.482 517.673 185.643C518.733 184.76 519.939 184.438 521.289 184.678C522.639 184.918 523.547 185.618 524.015 186.778C524.4 187.733 524.465 188.932 524.21 190.374L524.149 190.72L517.486 189.537C517.314 190.513 517.438 191.377 517.858 192.13C518.312 192.93 519.009 193.414 519.949 193.581C520.988 193.765 522.197 193.623 523.577 193.154L523.317 194.625ZM517.759 188.345L522.613 189.207L522.655 188.973C522.783 188.246 522.715 187.618 522.452 187.089C522.159 186.49 521.66 186.128 520.957 186.003C520.207 185.87 519.532 186.053 518.932 186.554C518.428 186.982 518.037 187.579 517.759 188.345ZM535.125 191.49C534.843 193.089 534.181 194.361 533.139 195.307C531.998 196.348 530.642 196.729 529.073 196.45C528.86 196.413 528.268 196.26 527.298 195.992L526.635 199.749L525.025 199.463L527.394 186.039L529.004 186.324L528.62 188.497C529.154 187.901 529.769 187.433 530.466 187.093C531.259 186.71 532.011 186.582 532.72 186.707C533.77 186.894 534.499 187.502 534.906 188.533C535.247 189.397 535.32 190.383 535.125 191.49ZM533.338 191.397C533.463 190.693 533.451 190.054 533.302 189.48C533.102 188.724 532.691 188.291 532.067 188.181C531.462 188.073 530.759 188.296 529.959 188.851C529.356 189.267 528.797 189.787 528.283 190.41L527.551 194.556C528.107 194.809 528.631 194.979 529.121 195.066C530.234 195.264 531.188 194.969 531.981 194.182C532.681 193.485 533.134 192.556 533.338 191.397ZM544.606 198.404C543.211 198.788 541.94 198.877 540.792 198.674C539.424 198.431 538.394 197.712 537.7 196.518C537.047 195.396 536.843 194.146 537.086 192.767C537.331 191.376 537.957 190.261 538.961 189.422C540.022 188.539 541.227 188.218 542.577 188.457C543.927 188.697 544.836 189.397 545.303 190.557C545.688 191.512 545.753 192.711 545.499 194.153L545.437 194.5L538.774 193.317C538.602 194.292 538.726 195.156 539.147 195.909C539.6 196.71 540.297 197.193 541.238 197.36C542.276 197.545 543.485 197.402 544.865 196.933L544.606 198.404ZM539.047 192.124L543.902 192.986L543.943 192.752C544.071 192.025 544.004 191.397 543.74 190.869C543.447 190.269 542.949 189.907 542.245 189.782C541.495 189.649 540.82 189.832 540.22 190.333C539.716 190.761 539.325 191.358 539.047 192.124ZM551.031 200.482C549.611 200.23 548.57 199.525 547.906 198.365C547.288 197.28 547.107 196.013 547.363 194.565C547.618 193.116 548.224 191.992 549.181 191.192C550.195 190.33 551.412 190.026 552.831 190.278C554.245 190.529 555.284 191.234 555.948 192.393C556.565 193.479 556.747 194.743 556.492 196.185C556.238 197.628 555.634 198.756 554.682 199.568C553.661 200.429 552.444 200.733 551.031 200.482ZM551.267 199.141C552.237 199.313 553.041 199.039 553.679 198.319C554.207 197.723 554.562 196.908 554.744 195.875C554.926 194.848 554.868 193.963 554.57 193.22C554.217 192.324 553.558 191.79 552.595 191.619C551.626 191.447 550.822 191.718 550.184 192.432C549.651 193.028 549.293 193.842 549.111 194.875C548.928 195.908 548.986 196.796 549.283 197.539C549.637 198.435 550.298 198.969 551.267 199.141ZM565.554 194.197L560.82 193.356L559.351 201.683L557.741 201.397L559.448 191.729L567.4 193.141L565.694 202.809L564.085 202.523L565.554 194.197ZM571.484 203.837L572.953 195.51L569.275 194.857L569.512 193.516L578.624 195.133L578.388 196.475L574.701 195.82L573.232 204.147L571.484 203.837ZM586.726 198.937L580.639 205.462L579.03 205.176L580.736 195.508L582.345 195.794L581.298 201.731L581 203.062L587.079 196.634L588.689 196.92L586.982 206.588L585.373 206.302L586.726 198.937ZM590.228 207.164L588.817 206.914L590.523 197.246L592.28 197.557L594.161 205.006L598.476 198.657L600.189 198.962L598.483 208.63L596.874 208.344L598.168 201.263L598.125 201.255L597.536 202.365L594.651 206.575L592.972 206.277L591.678 201.325L591.479 200.075L591.435 200.068L591.271 201.252L590.228 207.164ZM608.014 202.716L601.928 209.241L600.318 208.955L602.024 199.287L603.634 199.573L602.586 205.511L602.289 206.841L608.367 200.413L609.977 200.699L608.271 210.367L606.661 210.081L608.014 202.716ZM619.404 209.335C619.228 210.328 618.655 211.05 617.682 211.502C616.815 211.902 615.853 212.008 614.797 211.82C613.591 211.606 612.382 211.127 611.169 210.382L611.47 208.677C612.501 209.645 613.671 210.246 614.98 210.478C615.58 210.585 616.136 210.52 616.648 210.283C617.212 210.02 617.541 209.626 617.633 209.101C617.756 208.403 617.567 207.873 617.066 207.51C616.713 207.251 616.156 207.054 615.394 206.919L614.2 206.707L614.411 205.512L615.848 205.767C616.361 205.858 616.804 205.809 617.177 205.619C617.602 205.403 617.861 205.03 617.955 204.499C618.1 203.674 617.547 203.15 616.295 202.928C615.153 202.725 613.935 202.916 612.642 203.502L612.929 201.875C614.235 201.488 615.444 201.393 616.558 201.591C617.51 201.76 618.275 202.074 618.855 202.534C619.586 203.11 619.875 203.831 619.722 204.697C619.558 205.626 618.986 206.274 618.005 206.641C619.136 207.312 619.602 208.21 619.404 209.335ZM628.333 211.688C627.805 212.285 627.19 212.753 626.487 213.092C625.688 213.474 624.934 213.602 624.224 213.476C623.18 213.291 622.454 212.683 622.047 211.652C621.706 210.788 621.633 209.802 621.828 208.694C622.114 207.073 622.784 205.79 623.837 204.847C624.969 203.828 626.314 203.456 627.871 203.733C628.085 203.771 628.677 203.924 629.647 204.191L631.265 204.478L630.06 211.307C629.854 212.473 629.808 213.441 629.922 214.211L628.244 213.913C628.216 213.396 628.246 212.654 628.333 211.688ZM628.67 209.775L629.402 205.629C628.857 205.378 628.337 205.208 627.841 205.12C626.721 204.921 625.766 205.213 624.973 205.995C624.273 206.692 623.82 207.623 623.614 208.788C623.491 209.487 623.503 210.126 623.651 210.705C623.845 211.46 624.254 211.892 624.877 212.003C625.488 212.111 626.194 211.889 626.994 211.334C627.604 210.913 628.163 210.393 628.67 209.775ZM632.164 214.609L633.87 204.941L635.479 205.226L634.009 213.562L638.405 214.342L639.876 206.007L641.485 206.293L640.014 214.628L641.563 214.903L640.818 219.126L639.243 218.847L639.753 215.956L632.164 214.609ZM650.591 210.275L644.504 216.799L642.894 216.514L644.601 206.846L646.21 207.131L645.162 213.069L644.865 214.4L650.944 207.972L652.553 208.257L650.847 217.925L649.238 217.64L650.591 210.275ZM658.62 215.351L655.062 218.674L652.941 218.297L656.921 214.764C656.264 214.373 655.771 213.86 655.443 213.225C655.093 212.544 654.984 211.831 655.115 211.087C655.257 210.285 655.668 209.739 656.35 209.449C656.923 209.206 657.624 209.158 658.455 209.305L663.197 210.147L661.491 219.815L659.882 219.529L660.558 215.695L658.62 215.351ZM660.794 214.362L661.353 211.194L659.016 210.779C657.695 210.545 656.961 210.846 656.813 211.683C656.675 212.462 656.999 213.177 657.782 213.827L660.794 214.362Z" fill="#555555"/>
<path d="M96.8931 250.864C95.8994 251.455 94.9185 251.856 93.9505 252.064C92.9883 252.272 92.0847 252.236 91.2398 251.957C90.3994 251.67 89.6891 251.194 89.1089 250.528C88.5275 249.856 88.133 249.036 87.9255 248.068C87.6136 246.613 87.827 245.302 88.5658 244.136C89.3103 242.968 90.3527 242.24 91.693 241.951C92.6839 241.737 93.772 241.697 94.9573 241.831L95.287 243.37C94.0608 243.101 93.0067 243.061 92.1246 243.251C91.5404 243.377 91.0218 243.642 90.5689 244.045C90.1148 244.443 89.8131 244.978 89.6639 245.652C89.5146 246.326 89.5093 246.986 89.6481 247.633C89.8335 248.499 90.2795 249.266 90.9862 249.934C91.6985 250.602 92.6332 250.811 93.7902 250.562C94.1396 250.486 94.4784 250.389 94.8065 250.271C95.1334 250.146 95.719 249.831 96.5634 249.325L96.8931 250.864ZM105.288 247.085C104.973 247.992 104.515 248.723 103.915 249.278C103.32 249.831 102.737 250.17 102.164 250.294C101.362 250.466 100.566 250.275 99.7762 249.72C98.9918 249.164 98.4486 248.182 98.1465 246.772C97.9083 245.661 97.9078 244.624 98.145 243.662C98.381 242.694 98.8001 241.881 99.4023 241.224C100.003 240.561 100.828 240.116 101.876 239.89C102.18 239.825 102.645 239.757 103.271 239.688C103.365 239.68 103.506 239.665 103.693 239.642L105.299 239.296L106.752 246.076C107 247.234 107.322 248.147 107.717 248.817L106.051 249.177C105.812 248.677 105.557 247.98 105.288 247.085ZM104.881 245.185L103.998 241.069C103.399 241.042 102.856 241.081 102.37 241.186C101.384 241.399 100.644 241.957 100.149 242.861C99.659 243.764 99.5548 244.871 99.836 246.183C100.04 247.134 100.371 247.815 100.831 248.225C101.295 248.629 101.756 248.781 102.214 248.682C102.713 248.575 103.208 248.204 103.702 247.57C104.195 246.937 104.588 246.142 104.881 245.185ZM110.011 248.323L107.954 238.724L109.552 238.379L110.001 240.476C110.301 239.638 110.73 238.94 111.288 238.382C111.845 237.825 112.448 237.476 113.095 237.336C113.662 237.214 114.21 237.255 114.739 237.458C115.267 237.656 115.674 237.979 115.962 238.426C116.255 238.873 116.555 239.809 116.861 241.236L118.01 246.598L116.412 246.943L115.22 241.383C115.023 240.46 114.847 239.863 114.692 239.59C114.543 239.311 114.327 239.103 114.046 238.965C113.771 238.827 113.493 238.788 113.212 238.849C112.651 238.97 112.104 239.366 111.571 240.039C111.043 240.71 110.657 241.491 110.41 242.384L111.609 247.978L110.011 248.323ZM124.588 245.459C123.214 245.755 122.011 245.514 120.982 244.735C119.95 243.95 119.278 242.827 118.965 241.366C118.652 239.905 118.805 238.608 119.425 237.473C120.045 236.338 121.042 235.623 122.417 235.327C123.786 235.031 124.985 235.273 126.015 236.052C127.045 236.831 127.716 237.951 128.029 239.412C128.342 240.873 128.19 242.174 127.571 243.314C126.952 244.449 125.957 245.164 124.588 245.459ZM124.303 244.127C125.156 243.943 125.764 243.464 126.125 242.691C126.487 241.917 126.543 240.949 126.294 239.786C126.046 238.629 125.599 237.772 124.952 237.216C124.306 236.661 123.556 236.475 122.702 236.659C121.843 236.844 121.233 237.323 120.871 238.096C120.509 238.87 120.453 239.835 120.701 240.992C120.95 242.155 121.398 243.015 122.044 243.571C122.691 244.127 123.444 244.312 124.303 244.127ZM131.147 243.766L129.089 234.167L130.687 233.822L131.137 235.919C131.437 235.081 131.865 234.383 132.423 233.825C132.981 233.268 133.583 232.919 134.23 232.779C134.797 232.657 135.345 232.698 135.874 232.901C136.402 233.099 136.81 233.422 137.098 233.87C137.391 234.316 137.69 235.252 137.996 236.679L139.146 242.041L137.548 242.386L136.356 236.826C136.158 235.903 135.982 235.306 135.828 235.033C135.678 234.754 135.463 234.546 135.182 234.408C134.906 234.27 134.628 234.231 134.348 234.292C133.786 234.413 133.239 234.809 132.706 235.482C132.179 236.153 131.792 236.935 131.546 237.827L132.745 243.421L131.147 243.766ZM144.404 240.908L142.632 232.64L139.968 233.215L139.683 231.883L143.944 230.964L145.716 239.231L148.388 238.655L148.674 239.987L144.404 240.908ZM141.338 227.902C141.26 227.541 141.326 227.246 141.534 227.015C141.742 226.784 141.955 226.645 142.173 226.598C142.396 226.55 142.65 226.588 142.934 226.713C143.219 226.837 143.4 227.08 143.477 227.441C143.553 227.796 143.487 228.089 143.279 228.32C143.071 228.551 142.855 228.69 142.631 228.738C142.414 228.785 142.163 228.746 141.878 228.622C141.594 228.497 141.414 228.258 141.338 227.902ZM160.299 237.193C159.306 237.785 158.325 238.185 157.357 238.394C156.395 238.601 155.491 238.565 154.646 238.286C153.806 237.999 153.095 237.523 152.515 236.857C151.934 236.185 151.539 235.365 151.332 234.397C151.02 232.942 151.233 231.631 151.972 230.465C152.717 229.297 153.759 228.569 155.099 228.28C156.09 228.066 157.178 228.026 158.364 228.161L158.693 229.699C157.467 229.43 156.413 229.39 155.531 229.58C154.947 229.706 154.428 229.971 153.975 230.374C153.521 230.772 153.219 231.308 153.07 231.981C152.921 232.655 152.916 233.315 153.054 233.963C153.24 234.828 153.686 235.595 154.392 236.264C155.105 236.931 156.039 237.14 157.196 236.891C157.546 236.815 157.885 236.718 158.213 236.6C158.54 236.475 159.125 236.16 159.97 235.654L160.299 237.193ZM168.694 233.414C168.379 234.321 167.921 235.052 167.321 235.607C166.727 236.161 166.143 236.499 165.57 236.623C164.768 236.796 163.973 236.605 163.182 236.05C162.398 235.493 161.855 234.511 161.553 233.101C161.315 231.99 161.314 230.953 161.551 229.991C161.787 229.023 162.206 228.21 162.809 227.553C163.409 226.89 164.234 226.445 165.282 226.219C165.586 226.154 166.051 226.087 166.677 226.017C166.771 226.009 166.912 225.994 167.099 225.971L168.705 225.625L170.159 232.406C170.407 233.563 170.728 234.477 171.124 235.147L169.457 235.506C169.218 235.006 168.964 234.309 168.694 233.414ZM168.287 231.515L167.405 227.398C166.806 227.371 166.263 227.41 165.776 227.515C164.791 227.728 164.05 228.286 163.555 229.19C163.065 230.093 162.961 231.2 163.242 232.512C163.446 233.463 163.778 234.144 164.237 234.554C164.701 234.958 165.162 235.11 165.621 235.011C166.119 234.904 166.615 234.533 167.108 233.9C167.601 233.266 167.994 232.471 168.287 231.515ZM175.995 234.096L173.31 221.566L170.44 222.185L170.153 220.844L174.62 219.881L177.308 232.42L180.306 231.773L180.592 233.105L175.995 234.096Z" fill="#555555"/>
<path d="M234.911 244.244L233.303 230.15L234.927 229.964L235.665 236.434C236.045 235.63 236.54 234.978 237.149 234.477C237.759 233.977 238.392 233.689 239.05 233.613C239.603 233.55 240.123 233.634 240.609 233.868C241.101 234.094 241.46 234.398 241.686 234.779C241.867 235.071 242.004 235.388 242.096 235.732C242.187 236.069 242.295 236.779 242.419 237.862L243.04 243.311L241.416 243.498L240.772 237.848C240.665 236.91 240.548 236.299 240.421 236.012C240.299 235.72 240.105 235.491 239.838 235.327C239.578 235.163 239.305 235.097 239.019 235.129C238.449 235.195 237.866 235.536 237.27 236.153C236.68 236.769 236.218 237.509 235.886 238.373L236.535 244.058L234.911 244.244ZM246.481 242.916L245.368 233.162L246.992 232.976L247.235 235.107C247.65 234.245 248.16 233.579 248.767 233.108C249.379 232.631 250.087 232.346 250.89 232.254C251.478 232.187 252.076 232.209 252.685 232.322L253.086 235.842L251.523 236.021L251.269 233.794C250.99 233.779 250.772 233.78 250.615 233.799C250.01 233.868 249.443 234.175 248.916 234.719C248.388 235.263 247.902 236.044 247.458 237.063L248.105 242.73L246.481 242.916ZM264.429 240.202C263.201 240.968 262.008 241.417 260.85 241.55C259.971 241.651 259.16 241.523 258.418 241.166C257.675 240.809 257.048 240.25 256.537 239.489C256.03 238.721 255.724 237.874 255.619 236.949C255.517 236.058 255.618 235.18 255.92 234.313C256.222 233.447 256.702 232.746 257.361 232.21C258.018 231.669 258.784 231.348 259.657 231.248C260.815 231.115 261.791 231.422 262.584 232.168C263.382 232.914 263.88 234.149 264.077 235.872L264.117 236.221L257.393 236.993C257.47 237.668 257.68 238.269 258.023 238.796C258.372 239.322 258.793 239.699 259.285 239.925C259.776 240.152 260.316 240.231 260.904 240.164C261.952 240.044 263.07 239.561 264.26 238.717L264.429 240.202ZM257.351 235.768L262.214 235.21L262.187 234.974C262.096 234.176 261.829 233.564 261.385 233.138C260.941 232.711 260.393 232.535 259.741 232.61C259.084 232.685 258.541 232.992 258.113 233.531C257.69 234.063 257.436 234.809 257.351 235.768ZM269.401 240.286L268.536 232.697L266.37 232.946L266.216 231.592L268.381 231.344L268.329 230.89C268.183 229.603 268.22 228.635 268.44 227.984C268.661 227.334 269.051 226.776 269.612 226.31C270.178 225.844 270.961 225.554 271.962 225.439C272.719 225.352 273.497 225.342 274.295 225.41L274.471 226.956C273.595 226.773 272.831 226.719 272.179 226.794C271.661 226.854 271.215 227.002 270.841 227.24C270.467 227.477 270.192 227.827 270.014 228.29C269.842 228.746 269.815 229.492 269.934 230.529L270.005 231.157L273.873 230.713L274.028 232.067L270.16 232.511L271.025 240.099L269.401 240.286ZM280.491 239.013L279.038 226.281L276.122 226.616L275.966 225.254L280.507 224.733L281.96 237.473L285.008 237.123L285.162 238.477L280.491 239.013ZM294.77 235.154C294.368 236.025 293.842 236.708 293.19 237.202C292.545 237.694 291.931 237.974 291.349 238.041C290.534 238.135 289.76 237.867 289.028 237.237C288.301 236.607 287.856 235.576 287.693 234.143C287.564 233.014 287.665 231.982 287.995 231.048C288.324 230.108 288.82 229.34 289.483 228.745C290.146 228.144 291.01 227.782 292.075 227.66C292.384 227.625 292.853 227.603 293.483 227.596C293.578 227.597 293.719 227.595 293.907 227.591L295.54 227.404L296.326 234.294C296.46 235.47 296.692 236.411 297.02 237.116L295.326 237.31C295.137 236.79 294.951 236.071 294.77 235.154ZM294.55 233.224L294.073 229.041C293.479 228.956 292.935 228.942 292.44 228.998C291.439 229.113 290.648 229.596 290.067 230.447C289.492 231.298 289.28 232.39 289.432 233.723C289.542 234.689 289.806 235.399 290.223 235.852C290.646 236.299 291.09 236.496 291.556 236.443C292.062 236.385 292.592 236.064 293.145 235.482C293.697 234.899 294.166 234.147 294.55 233.224ZM299.351 236.848L298.238 227.094L299.863 226.908L300.106 229.039C300.486 228.234 300.98 227.582 301.59 227.081C302.199 226.581 302.832 226.293 303.49 226.217C304.067 226.151 304.608 226.245 305.115 226.5C305.621 226.748 305.995 227.109 306.238 227.583C306.486 228.056 306.693 229.017 306.859 230.466L307.48 235.915L305.856 236.102L305.212 230.452C305.105 229.515 304.988 228.903 304.861 228.617C304.739 228.324 304.545 228.096 304.278 227.932C304.018 227.767 303.745 227.701 303.46 227.734C302.889 227.799 302.306 228.14 301.71 228.757C301.12 229.373 300.659 230.113 300.327 230.977L300.975 236.662L299.351 236.848ZM316.355 232.676C315.953 233.548 315.427 234.231 314.775 234.724C314.13 235.217 313.516 235.497 312.934 235.564C312.119 235.657 311.345 235.389 310.613 234.76C309.886 234.129 309.441 233.098 309.278 231.666C309.149 230.537 309.25 229.505 309.579 228.571C309.909 227.63 310.405 226.863 311.068 226.268C311.731 225.667 312.595 225.305 313.66 225.183C313.969 225.147 314.438 225.126 315.068 225.119C315.163 225.119 315.304 225.118 315.492 225.114L317.125 224.927L317.912 231.825C318.099 233.467 318.19 234.471 318.185 234.837C318.186 235.209 318.158 235.586 318.102 235.97C317.968 236.864 317.514 237.61 316.738 238.206C315.969 238.801 314.996 239.167 313.82 239.302C312.638 239.437 311.408 239.272 310.128 238.805L309.941 237.164C310.436 237.425 311.032 237.637 311.729 237.799C312.432 237.966 313.098 238.013 313.727 237.941C314.222 237.884 314.681 237.752 315.106 237.544C315.53 237.336 315.862 237.068 316.102 236.74C316.342 236.411 316.489 236.043 316.542 235.636C316.597 235.235 316.587 234.708 316.512 234.056L316.355 232.676ZM316.135 230.746L315.658 226.564C315.064 226.478 314.52 226.464 314.025 226.521C313.024 226.636 312.233 227.119 311.652 227.97C311.076 228.82 310.865 229.912 311.017 231.245C311.127 232.212 311.391 232.922 311.808 233.375C312.231 233.822 312.675 234.019 313.141 233.965C313.647 233.907 314.177 233.587 314.729 233.004C315.282 232.422 315.751 231.669 316.135 230.746ZM328.792 226.472L328.947 227.825L319.464 228.914L319.31 227.56L328.792 226.472ZM329.14 229.519L329.295 230.873L319.812 231.961L319.657 230.608L329.14 229.519ZM333.227 223.627L332.109 223.755L330.994 218.938L333.168 218.689L333.227 223.627ZM336.991 223.195L335.882 223.323L334.827 218.498L336.958 218.254L336.991 223.195ZM343.967 222.395L342.85 222.523L341.734 217.706L343.908 217.456L343.967 222.395ZM347.731 221.963L346.622 222.09L345.567 217.266L347.698 217.021L347.731 221.963Z" fill="#555555"/>
<path d="M446.596 235.845C446.573 237.257 446.156 238.438 445.344 239.389C444.485 240.394 443.361 240.908 441.972 240.932C440.326 240.96 439.127 240.324 438.374 239.025C437.776 237.987 437.491 236.598 437.518 234.858C437.544 233.276 437.722 231.826 438.053 230.509C438.559 228.52 440.076 227.423 442.604 227.215C443.724 227.126 444.363 227.068 444.522 227.042C445.262 226.924 445.851 226.715 446.289 226.414L446.263 228.066C445.743 228.321 445.137 228.496 444.445 228.59C443.84 228.647 443.239 228.701 442.641 228.752C441.368 228.879 440.46 229.267 439.917 229.915C439.379 230.562 439.024 231.707 438.851 233.35L438.904 233.35C439.691 231.755 440.855 230.944 442.396 230.918C443.655 230.896 444.676 231.35 445.458 232.28C446.239 233.203 446.619 234.392 446.596 235.845ZM444.82 235.875C444.836 234.897 444.641 234.08 444.236 233.425C443.75 232.649 443.042 232.268 442.11 232.284C441.173 232.3 440.449 232.705 439.938 233.499C439.512 234.168 439.291 234.992 439.275 235.97C439.26 236.954 439.455 237.774 439.86 238.429C440.345 239.205 441.057 239.586 441.994 239.57C442.926 239.554 443.647 239.149 444.157 238.355C444.584 237.686 444.805 236.859 444.82 235.875ZM455.176 238.228C454.749 238.915 454.216 239.492 453.576 239.96C452.847 240.488 452.122 240.758 451.402 240.77C450.341 240.788 449.529 240.331 448.964 239.398C448.49 238.615 448.262 237.661 448.28 236.536C448.306 234.89 448.765 233.503 449.655 232.375C450.612 231.158 451.881 230.536 453.463 230.509C453.68 230.505 454.288 230.541 455.289 230.618L456.932 230.59L456.821 237.523C456.802 238.707 456.91 239.666 457.144 240.4L455.44 240.429C455.331 239.927 455.243 239.193 455.176 238.228ZM455.207 236.286L455.274 232.077C454.697 231.934 454.156 231.867 453.652 231.876C452.515 231.895 451.618 232.365 450.959 233.284C450.378 234.102 450.078 235.103 450.059 236.286C450.047 236.995 450.16 237.62 450.398 238.161C450.709 238.864 451.181 239.21 451.813 239.199C452.434 239.189 453.096 238.835 453.798 238.137C454.334 237.607 454.803 236.99 455.207 236.286ZM468.495 243.14L466.896 243.167L466.943 240.232L460.132 240.348L460.086 243.284L458.486 243.311L458.555 239.022C459.508 238.731 460.203 237.928 460.64 236.615C460.941 235.708 461.102 234.642 461.121 233.417L461.168 230.517L467.301 230.412L467.167 238.875L468.564 238.851L468.495 243.14ZM465.532 238.903L465.645 231.802L462.736 231.852L462.703 233.935C462.686 234.995 462.563 235.964 462.332 236.841C462.058 237.876 461.677 238.588 461.191 238.977L465.532 238.903ZM478.492 239.384C477.175 240.027 475.934 240.359 474.768 240.379C473.38 240.403 472.249 239.895 471.375 238.856C470.553 237.88 470.153 236.692 470.176 235.292C470.198 233.88 470.639 232.666 471.499 231.65C472.406 230.58 473.545 230.033 474.916 230.01C476.287 229.986 477.295 230.499 477.94 231.548C478.471 232.412 478.725 233.576 478.701 235.04L478.696 235.392L471.929 235.508C471.913 236.498 472.173 237.322 472.707 237.981C473.281 238.68 474.046 239.021 475.001 239.005C476.056 238.987 477.227 238.615 478.515 237.89L478.492 239.384ZM472.01 234.285L476.94 234.201L476.944 233.964C476.956 233.225 476.79 232.622 476.446 232.153C476.062 231.621 475.512 231.361 474.798 231.373C474.036 231.386 473.399 231.696 472.885 232.302C472.455 232.819 472.164 233.48 472.01 234.285ZM487.639 235.379L482.833 235.462L482.761 239.961L481.126 239.989L481.283 230.173L482.917 230.145L482.854 234.1L487.661 234.017L487.724 230.063L489.359 230.035L489.202 239.851L487.568 239.879L487.639 235.379ZM492.645 234.951L492.667 233.589L499.486 233.472L499.464 234.834L492.645 234.951ZM511.449 234.735C511.427 236.147 511.01 237.328 510.198 238.279C509.339 239.284 508.215 239.798 506.826 239.822C505.18 239.85 503.981 239.214 503.228 237.915C502.63 236.877 502.344 235.488 502.372 233.748C502.397 232.166 502.576 230.716 502.907 229.399C503.413 227.41 504.93 226.313 507.458 226.105C508.578 226.016 509.217 225.958 509.376 225.932C510.116 225.814 510.705 225.605 511.143 225.304L511.116 226.956C510.597 227.211 509.991 227.386 509.298 227.48C508.694 227.537 508.093 227.591 507.495 227.642C506.222 227.769 505.314 228.157 504.77 228.805C504.233 229.452 503.878 230.597 503.705 232.24L503.758 232.239C504.545 230.645 505.709 229.834 507.249 229.808C508.509 229.786 509.53 230.24 510.311 231.17C511.093 232.093 511.473 233.282 511.449 234.735ZM509.674 234.765C509.69 233.787 509.495 232.97 509.09 232.315C508.604 231.539 507.896 231.158 506.964 231.174C506.027 231.19 505.303 231.595 504.792 232.389C504.366 233.058 504.145 233.882 504.129 234.86C504.113 235.844 504.308 236.664 504.714 237.319C505.199 238.095 505.911 238.476 506.848 238.459C507.779 238.444 508.5 238.039 509.011 237.245C509.437 236.576 509.659 235.749 509.674 234.765ZM520.03 237.118C519.603 237.805 519.07 238.382 518.43 238.85C517.701 239.378 516.976 239.648 516.255 239.66C515.195 239.678 514.382 239.221 513.817 238.287C513.344 237.505 513.116 236.551 513.134 235.426C513.16 233.78 513.619 232.393 514.509 231.265C515.466 230.048 516.735 229.426 518.317 229.399C518.533 229.395 519.142 229.431 520.142 229.508L521.786 229.48L521.675 236.413C521.656 237.597 521.764 238.556 521.998 239.29L520.293 239.319C520.184 238.817 520.096 238.083 520.03 237.118ZM520.061 235.176L520.128 230.967C519.55 230.824 519.01 230.757 518.506 230.766C517.369 230.785 516.471 231.255 515.813 232.174C515.231 232.992 514.931 233.993 514.913 235.176C514.901 235.885 515.014 236.51 515.252 237.051C515.563 237.754 516.034 238.1 516.667 238.089C517.288 238.079 517.95 237.725 518.652 237.027C519.188 236.497 519.657 235.88 520.061 235.176ZM533.349 242.03L531.75 242.057L531.797 239.122L524.986 239.238L524.939 242.174L523.34 242.201L523.408 237.912C524.362 237.621 525.057 236.818 525.494 235.505C525.795 234.598 525.956 233.532 525.975 232.307L526.021 229.407L532.155 229.302L532.02 237.765L533.418 237.741L533.349 242.03ZM530.386 237.793L530.499 230.692L527.59 230.742L527.557 232.825C527.54 233.885 527.416 234.854 527.186 235.73C526.911 236.766 526.531 237.478 526.045 237.867L530.386 237.793ZM543.345 238.274C542.029 238.917 540.788 239.249 539.622 239.269C538.234 239.293 537.103 238.785 536.229 237.746C535.407 236.77 535.007 235.582 535.029 234.182C535.052 232.77 535.493 231.556 536.352 230.539C537.26 229.47 538.399 228.923 539.77 228.9C541.141 228.876 542.149 229.389 542.794 230.438C543.325 231.302 543.578 232.466 543.555 233.93L543.55 234.282L536.783 234.398C536.767 235.388 537.026 236.212 537.561 236.871C538.135 237.57 538.9 237.911 539.855 237.895C540.909 237.876 542.081 237.505 543.369 236.78L543.345 238.274ZM536.864 233.175L541.794 233.091L541.798 232.854C541.809 232.115 541.643 231.512 541.299 231.043C540.915 230.511 540.366 230.251 539.651 230.263C538.89 230.276 538.252 230.586 537.739 231.192C537.309 231.709 537.017 232.37 536.864 233.175ZM552.493 234.269L547.686 234.352L547.615 238.851L545.98 238.879L546.137 229.063L547.771 229.035L547.708 232.99L552.515 232.907L552.578 228.953L554.213 228.925L554.056 238.741L552.422 238.769L552.493 234.269Z" fill="#555555"/>
</svg>
