<svg width="121" height="19" viewBox="0 0 121 19" fill="none" xmlns="http://www.w3.org/2000/svg">
<path d="M12.7586 1.74014C12.5999 1.68465 12.4361 1.6269 12.2655 1.57679C9.55452 0.763982 8.04656 2.09488 7.64594 3.46795C7.09675 5.34425 8.03272 6.62971 10.4582 8.52102C13.4314 10.8383 14.6621 12.9903 13.8 15.9427C13.5454 16.8161 13.1202 17.5997 12.5369 18.2481C14.9401 17.2576 16.8954 15.2086 17.6888 12.4927C18.9708 8.11206 16.7888 3.52953 12.7584 1.74028L12.7586 1.74014Z" fill="#FF9700"/>
<path d="M8.54329 10.2496C5.64433 8.12004 4.13805 5.81851 4.96449 2.98955C5.08843 2.56998 5.25265 2.18014 5.45464 1.82073C3.2316 2.8671 1.44808 4.83895 0.696617 7.40547C-0.0877146 10.0851 0.424962 12.8383 1.86143 14.9857C2.85266 16.2127 3.81226 17.1342 5.76001 17.6781C8.39781 18.4153 10.5245 17.3911 11.1162 15.3637C11.6665 13.4871 10.9208 12.0983 8.54329 10.2497V10.2496ZM26.0563 8.94884C25.2754 8.42084 24.7283 7.9489 24.4154 7.53372C24.1021 7.11868 23.9457 6.63202 23.9457 6.07331C23.9457 5.50709 24.0763 5.06006 24.3381 4.7318C24.5996 4.40339 24.9734 4.23919 25.4597 4.23919C25.9017 4.23919 26.316 4.32242 26.7029 4.48832C27.0897 4.65451 27.4597 4.84334 27.8136 5.05454L28.8082 2.58654C27.6662 1.87735 26.4763 1.52248 25.2388 1.52248C23.942 1.52248 22.9087 1.93766 22.1389 2.76773C21.369 3.59809 20.9842 4.72259 20.9842 6.14139C20.9842 6.88116 21.0818 7.53004 21.2772 8.08861C21.4724 8.64705 21.7487 9.15084 22.1061 9.59985C22.4633 10.049 22.9883 10.5188 23.6809 11.0093C24.4765 11.5679 25.0476 12.0755 25.3938 12.532C25.74 12.9888 25.9132 13.4924 25.9132 14.0434C25.9132 14.602 25.7677 15.0435 25.4767 15.3679C25.1858 15.6925 24.753 15.8548 24.1783 15.8548C23.1689 15.8548 22.0602 15.451 20.8519 14.6434V17.6888C21.8392 18.255 23.0363 18.5379 24.4435 18.5379C25.8801 18.5379 26.9796 18.1267 27.7423 17.3039C28.5047 16.4815 28.886 15.2967 28.886 13.7492C28.886 12.7833 28.6776 11.9229 28.2615 11.168C27.8447 10.4135 27.11 9.6736 26.0565 8.94898L26.0563 8.94884ZM30.72 18.3112H33.6594V5.69989H30.72V18.3115V18.3112ZM32.2116 0.786537C31.7032 0.786537 31.3071 0.931913 31.0236 1.22252C30.74 1.51299 30.5983 1.90736 30.5983 2.40549C30.5983 2.91891 30.7456 3.3171 31.0403 3.60021C31.3349 3.88304 31.7255 4.02459 32.2117 4.02459C32.6759 4.02459 33.0552 3.88304 33.35 3.59993C33.6447 3.3171 33.792 2.91905 33.792 2.40563C33.792 1.90765 33.6485 1.51328 33.3612 1.22267C33.0738 0.932196 32.6907 0.786679 32.2119 0.786679L32.2116 0.786537ZM48.0367 5.46207C46.6514 5.46207 45.6458 6.19065 45.0197 7.64711H44.9092C44.4081 6.19051 43.4063 5.46222 41.9033 5.46222C41.3214 5.46222 40.7742 5.61127 40.2625 5.90953C39.7502 6.20764 39.3468 6.67746 39.0522 7.31884H38.8644L38.5107 5.70003H36.1789V18.3117H39.1185V12.2546C39.1185 10.7453 39.2622 9.66213 39.5494 9.0056C39.8368 8.34879 40.2972 8.02067 40.9309 8.02067C41.837 8.02067 42.2901 8.9453 42.2901 10.7943V18.3114H45.2518V12.1866C45.2518 10.7303 45.3916 9.67176 45.6717 9.01126C45.9515 8.35091 46.4159 8.02067 47.0641 8.02067C47.9556 8.02067 48.4014 8.9453 48.4014 10.7943V18.3114H51.363V10.081C51.363 8.5716 51.0812 7.42444 50.5176 6.63938C49.9538 5.85446 49.1271 5.46207 48.0367 5.46207ZM53.7608 18.3115H56.7005V5.69974H53.7608V18.3114V18.3115ZM55.2529 0.786395C54.7446 0.786395 54.3484 0.931772 54.065 1.22238C53.7813 1.51285 53.6395 1.90722 53.6395 2.40535C53.6395 2.91877 53.7868 3.31696 54.0815 3.60007C54.3761 3.88289 54.7667 4.02445 55.2529 4.02445C55.7171 4.02445 56.0964 3.88289 56.3912 3.59979C56.6858 3.31696 56.8332 2.91891 56.8332 2.40549C56.8332 1.90751 56.6895 1.51314 56.4024 1.22252C56.1149 0.932055 55.7318 0.786537 55.2529 0.786537V0.786395ZM59.2201 18.3114H62.1597V0.695801H59.2201V18.3114ZM68.8123 5.43928C67.3757 5.43928 66.0458 5.83564 64.8228 6.62806L65.8398 8.71117C66.7973 8.1223 67.6446 7.82815 68.3815 7.82815C69.3761 7.82815 69.8732 8.41702 69.8732 9.59418V10.4998L68.2377 10.5678C66.8232 10.6357 65.7603 10.9925 65.0495 11.6377C64.3384 12.2831 63.983 13.2698 63.983 14.5981C63.983 15.836 64.2426 16.8021 64.7621 17.4963C65.2814 18.1908 65.9941 18.5379 66.9003 18.5379C67.6075 18.5379 68.1932 18.3982 68.6572 18.1189C69.1216 17.84 69.5707 17.3304 70.0057 16.5906H70.0719L70.6576 18.3114H72.8125V9.84332C72.8125 8.43953 72.4716 7.3548 71.7903 6.58856C71.1091 5.82247 70.1162 5.43914 68.8122 5.43914L68.8123 5.43928ZM69.8732 13.466C69.8732 14.2887 69.7129 14.9472 69.3924 15.4415C69.0721 15.936 68.6427 16.1833 68.1051 16.1833C67.383 16.1833 67.0221 15.6623 67.0221 14.6208C67.0221 13.9187 67.1785 13.3907 67.4918 13.0358C67.8049 12.6809 68.2966 12.4849 68.9672 12.4469L69.8734 12.4016V13.4658L69.8732 13.466ZM79.1007 5.97153C78.7174 6.31126 78.3639 6.87719 78.0398 7.66961H77.9405L77.609 5.69974H75.1887V18.3114H78.1282V11.8242C78.1282 10.7225 78.3199 9.88281 78.7029 9.30541C79.0859 8.72787 79.6348 8.43938 80.3493 8.43938C80.6808 8.43938 80.9498 8.47718 81.1562 8.55263L81.4989 5.6318C81.1524 5.51855 80.7988 5.46193 80.4379 5.46193C79.9296 5.46193 79.4838 5.6318 79.1008 5.97153H79.1007ZM94.9146 11.1C94.7967 11.817 94.6088 13.2924 94.3509 15.5264C94.2184 14.017 94.0378 12.5641 93.8095 11.168L92.0856 1.75972H88.9693L87.2453 11.1674C87.0831 12.0356 86.91 13.481 86.7259 15.5035C86.4901 13.5036 86.3021 12.0354 86.1622 11.0998L84.7148 1.75972H81.7642L84.6927 18.3111H88.45L89.9859 9.6845L90.4392 6.27686L90.5276 5.43914C90.6305 7.05428 90.8037 8.45425 91.0468 9.63906L92.6271 18.3111H96.3844L99.2906 1.75972H96.3181L94.9145 11.0995L94.9146 11.1ZM104.529 5.46193C103.092 5.46193 101.972 6.04712 101.169 7.21678C100.366 8.38687 99.965 10.0132 99.965 12.0962C99.965 14.1493 100.408 15.7359 101.297 16.8566C102.184 17.9777 103.398 18.538 104.938 18.538C106.257 18.538 107.387 18.2475 108.331 17.6663V15.187C107.328 15.7985 106.348 16.104 105.391 16.104C104.639 16.104 104.05 15.8305 103.623 15.2833C103.195 14.7361 102.971 13.9003 102.948 12.7756H108.861V11.1678C108.861 9.36402 108.474 7.96221 107.701 6.96227C106.927 5.96204 105.87 5.46207 104.529 5.46207V5.46193ZM102.993 10.5904C103.037 9.63212 103.195 8.92435 103.468 8.4677C103.74 8.01118 104.087 7.78257 104.507 7.78257C104.956 7.78257 105.31 8.02038 105.568 8.49601C105.825 8.97163 105.962 9.66949 105.977 10.5904H102.993H102.993ZM119.005 7.17134C118.365 6.03183 117.484 5.46207 116.364 5.46207C115.819 5.46207 115.336 5.60179 114.916 5.88108C114.497 6.16022 114.106 6.64688 113.745 7.34135H113.59C113.679 6.20934 113.727 5.54927 113.734 5.3603C113.741 5.17175 113.745 4.99056 113.745 4.81673V0.696084H110.805V18.3115H112.971L113.469 16.8738H113.656C114.032 17.4928 114.432 17.9249 114.856 18.1701C115.279 18.4153 115.767 18.5382 116.32 18.5382C117.461 18.5382 118.355 17.9683 118.999 16.8286C119.644 15.6891 119.966 14.074 119.966 11.9832C119.966 9.91551 119.646 8.31156 119.005 7.17177L119.005 7.17134ZM115.37 15.9453C114.795 15.9453 114.381 15.6472 114.126 15.051C113.872 14.455 113.745 13.4245 113.745 11.9603V11.6548C113.76 10.3039 113.89 9.36048 114.137 8.82455C114.384 8.28877 114.787 8.02081 115.347 8.02081C116.423 8.02081 116.961 9.32665 116.961 11.9379C116.961 14.6096 116.431 15.9453 115.369 15.9453H115.37Z" fill="#2B3D52"/>
</svg>
