<svg width="31" height="31" viewBox="0 0 31 31" fill="none" xmlns="http://www.w3.org/2000/svg">
<g clip-path="url(#clip0)">
<path d="M26.6429 0H25.31C24.7241 0 24.7241 0.908334 25.31 0.908334H26.6429C28.0193 0.908334 29.1391 2.02413 29.1391 3.3956V13.9064C29.1391 15.2779 28.0193 16.3937 26.6429 16.3937H25.1312C25.0315 16.3937 24.9345 16.4265 24.8553 16.4871L22.0814 18.6089V16.8478C22.0814 16.597 21.8782 16.3937 21.6273 16.3937H16.0998C15.6471 16.3937 15.2121 16.2742 14.8284 16.0471V10.9488C14.8284 9.9938 14.342 9.15008 13.6034 8.65092V3.3956C13.6034 2.02413 14.7233 0.908334 16.0998 0.908334H22.4639C23.0497 0.908334 23.0497 0 22.4639 0H16.0998C14.2224 0 12.6951 1.52328 12.6951 3.3956V8.25173C12.4871 8.20208 12.2705 8.17501 12.0475 8.17501H3.73344C2.20011 8.17501 0.952606 9.41931 0.952606 10.9488V11.9295C0.952606 12.5153 1.86094 12.5153 1.86094 11.9295V10.9488C1.86094 9.92016 2.70091 9.08334 3.73344 9.08334H12.0476C13.0801 9.08334 13.9201 9.92016 13.9201 10.9488V16.2279C13.9147 16.268 13.9149 16.3084 13.9201 16.3481V19.2374C13.9201 19.2945 13.9167 19.3513 13.9115 19.4079H12.9749C11.9429 19.4079 11.0825 20.1528 10.9041 21.1318C10.8628 21.1474 10.8231 21.1691 10.7864 21.1974L8.75502 22.7659V21.557C8.75502 21.3061 8.55173 21.1028 8.30085 21.1028H3.73344C2.70091 21.1028 1.86094 20.266 1.86094 19.2374V14.6545C1.86094 14.0686 0.952606 14.0686 0.952606 14.6545V19.2374C0.952606 20.7669 2.20011 22.0112 3.73344 22.0112H7.84674V23.6904C7.84674 24.0547 8.2891 24.2732 8.5785 24.0499L10.8696 22.2809V27.3903C10.8696 28.5484 11.8141 29.4905 12.975 29.4905H15.762V30.5503C15.762 30.9145 16.2044 31.1333 16.4937 30.9098L18.332 29.4905H18.875C20.0359 29.4905 20.9804 28.5483 20.9804 27.3903V26.5839C20.9804 25.9981 20.072 25.9981 20.072 26.5839V27.3903C20.072 28.0476 19.5351 28.5822 18.875 28.5822H18.177C18.0765 28.5822 17.9789 28.6155 17.8995 28.6768L16.6703 29.6258V29.0363C16.6703 28.7855 16.467 28.5821 16.2161 28.5821H12.9749C12.3149 28.5821 11.7779 28.0474 11.7779 27.3902V21.5082C11.7779 20.8509 12.3148 20.3163 12.9749 20.3163H18.875C19.535 20.3163 20.072 20.851 20.072 21.5082V23.7378C20.072 24.3236 20.9804 24.3236 20.9804 23.7378V21.5083C20.9804 20.3501 20.0359 19.408 18.875 19.408H14.8232C14.8267 19.3513 14.8284 17.0574 14.8284 17.0574C15.2289 17.2184 15.6582 17.3021 16.0998 17.3021H21.1732V19.5281C21.1732 19.8915 21.6136 20.1103 21.9033 19.8888L25.2851 17.3021H26.6429C28.5202 17.3021 30.0475 15.7788 30.0475 13.9064V3.3956C30.0475 1.52328 28.5201 0 26.6429 0V0Z" fill="#383838"/>
<path d="M22.5061 3.35571C21.9294 3.2085 21.3418 3.66412 21.3418 4.25998C21.3418 4.91102 21.1045 5.53843 20.6741 6.02633L19.4227 7.4423C19.3417 7.31798 19.2017 7.23569 19.0423 7.23569H16.5994C16.3486 7.23569 16.1453 7.43903 16.1453 7.68985V13.1862C16.1453 13.437 16.3486 13.6404 16.5994 13.6404H19.0423C19.2258 13.6404 19.3835 13.5313 19.4551 13.3747C19.9497 13.6769 20.5228 13.8402 21.1059 13.8402H25.423C26.0827 13.8402 26.6269 13.2678 26.596 12.6098C26.5822 12.3184 26.5972 8.40574 26.5972 8.31885C26.5972 7.67138 26.0705 7.14455 25.4243 7.14455L23.1794 7.13783L23.2723 6.91771C23.6971 5.9117 23.6272 4.74516 23.0854 3.79704C22.959 3.57552 22.7532 3.41887 22.5061 3.35571C22.2589 3.29261 22.7532 3.41887 22.5061 3.35571C21.9295 3.2085 22.7532 3.41887 22.5061 3.35571ZM18.5881 12.732H17.0536V8.14402H18.5881V12.732ZM25.423 8.05282C25.5697 8.05282 25.689 8.17212 25.689 8.31879C25.689 8.4052 25.6881 8.63973 25.6868 8.95771C25.6801 10.7133 25.6756 12.3761 25.6886 12.6524C25.6933 12.7522 25.6448 12.8187 25.6155 12.8494C25.5648 12.9026 25.4964 12.9319 25.423 12.9319H21.1059C20.5913 12.9319 20.0876 12.7535 19.6876 12.4297L19.4964 12.2749V8.73056L21.3549 6.62753C21.9322 5.97328 22.2501 5.13247 22.2501 4.25992C22.2501 4.23425 22.2852 4.22759 22.2968 4.24757C22.699 4.95141 22.7509 5.81741 22.4356 6.56425L22.0771 7.41318C22.018 7.55324 22.0329 7.71353 22.1166 7.84033C22.2005 7.96714 22.3422 8.04356 22.4941 8.04404L25.423 8.05282Z" fill="#383838"/>
<path d="M4.84148 15.7749C4.5906 15.7749 4.38731 15.9783 4.38731 16.2291C4.38731 16.4799 4.5906 16.6833 4.84148 16.6833H6.18025L5.93015 18.1959C5.88922 18.4433 6.05671 18.6771 6.30414 18.7181C6.32928 18.7222 6.35416 18.7242 6.37875 18.7242C6.59699 18.7242 6.7895 18.5665 6.82632 18.3441L7.10088 16.6833H8.19651L7.94642 18.196C7.90548 18.4434 8.07298 18.6772 8.32041 18.7181C8.34554 18.7223 8.37043 18.7243 8.39501 18.7243C8.61325 18.7243 8.80576 18.5666 8.84258 18.3441L9.11714 16.6834H10.9394C11.1903 16.6834 11.3936 16.4801 11.3936 16.2292C11.3936 15.9784 11.1903 15.7751 10.9394 15.7751H9.26732L9.4505 14.6671H10.9394C11.1903 14.6671 11.3936 14.4638 11.3936 14.213C11.3936 13.9622 11.1903 13.7588 10.9394 13.7588H9.60068L9.85077 12.2462C9.89171 11.9988 9.72421 11.765 9.47678 11.724C9.22905 11.683 8.99554 11.8506 8.95461 12.098L8.68005 13.7587H7.58441L7.83451 12.2461C7.87544 11.9987 7.70795 11.7649 7.46052 11.724C7.21248 11.6829 6.97934 11.8505 6.93834 12.098L6.66378 13.7587H4.84148C4.5906 13.7587 4.38731 13.962 4.38731 14.2129C4.38731 14.4637 4.5906 14.667 4.84148 14.667H6.51361L6.33043 15.7749H4.84148ZM7.4343 14.667H8.52993L8.34675 15.7749H7.25111L7.4343 14.667Z" fill="#383838"/>
<path d="M15.9195 22.6596C15.5527 22.3576 15.0648 22.2385 14.5754 22.3575C13.9483 22.5098 13.3154 23.0961 13.3154 24.0625C13.3154 24.664 13.5349 25.1861 13.9865 25.6587C14.3553 26.0447 14.8876 26.4118 15.7122 26.849C15.7788 26.8843 15.8519 26.902 15.925 26.902C15.9981 26.902 16.0712 26.8843 16.1377 26.849C17.5764 26.0863 18.5345 25.3206 18.5345 24.0625C18.5345 23.0908 17.8792 22.5105 17.2296 22.3665C16.7417 22.2582 16.2686 22.3731 15.9195 22.6596ZM17.6261 24.0625C17.6261 24.7411 17.176 25.2429 15.9249 25.9316C14.6738 25.2429 14.2237 24.741 14.2237 24.0625C14.2237 23.5576 14.516 23.3067 14.7897 23.2402C14.8401 23.2279 14.8941 23.221 14.9497 23.221C15.1555 23.221 15.3818 23.3161 15.5213 23.5866C15.6008 23.7405 15.7615 23.836 15.9339 23.8324C16.1071 23.829 16.2632 23.7273 16.3364 23.5704C16.4834 23.2554 16.7925 23.2 17.0328 23.2533C17.3197 23.3168 17.6261 23.5629 17.6261 24.0625Z" fill="#383838"/>
</g>
<defs>
<clipPath id="clip0">
<rect width="31" height="31" fill="white"/>
</clipPath>
</defs>
</svg>
