<svg width="324" height="324" viewBox="0 0 324 324" fill="none" xmlns="http://www.w3.org/2000/svg">
<g opacity="0.1" clip-path="url(#clip0)">
<path d="M278.461 0H264.531C258.407 0 258.407 9.49356 264.531 9.49356H278.461C292.847 9.49356 304.551 21.1555 304.551 35.4895V145.344C304.551 159.679 292.847 171.34 278.461 171.34H262.662C261.619 171.34 260.606 171.683 259.777 172.317L230.787 194.493V176.087C230.787 173.466 228.662 171.34 226.04 171.34H168.268C163.537 171.34 158.991 170.092 154.981 167.718V114.432C154.981 104.451 149.897 95.6331 142.178 90.416V35.4895C142.178 21.1555 153.882 9.49356 168.268 9.49356H234.784C240.907 9.49356 240.907 0 234.784 0H168.268C148.647 0 132.684 15.9207 132.684 35.4895V86.2439C130.511 85.725 128.246 85.442 125.916 85.442H39.0205C22.9947 85.442 9.95627 98.447 9.95627 114.432V124.682C9.95627 130.805 19.4498 130.805 19.4498 124.682V114.432C19.4498 103.682 28.2288 94.9356 39.0205 94.9356H125.916C136.708 94.9356 145.488 103.682 145.488 114.432V169.608C145.431 170.027 145.433 170.449 145.488 170.864V201.062C145.488 201.658 145.452 202.253 145.398 202.844H135.609C124.822 202.844 115.83 210.629 113.965 220.861C113.534 221.024 113.119 221.251 112.735 221.547L91.5041 237.94V225.305C91.5041 222.683 89.3794 220.558 86.7573 220.558H39.0205C28.2288 220.558 19.4498 211.812 19.4498 201.062V153.163C19.4498 147.04 9.95627 147.04 9.95627 153.163V201.062C9.95627 217.047 22.9947 230.052 39.0205 230.052H82.0111V247.603C82.0111 251.41 86.6345 253.695 89.6591 251.36L113.605 232.871V286.273C113.605 298.377 123.476 308.224 135.609 308.224H164.739V319.3C164.739 323.106 169.362 325.393 172.386 323.058L191.598 308.224H197.274C209.407 308.224 219.279 298.376 219.279 286.273V277.845C219.279 271.722 209.785 271.722 209.785 277.845V286.273C209.785 293.142 204.173 298.73 197.274 298.73H189.979C188.929 298.73 187.909 299.078 187.078 299.719L174.232 309.638V303.476C174.232 300.855 172.107 298.729 169.485 298.729H135.609C128.711 298.729 123.098 293.141 123.098 286.272V224.796C123.098 217.926 128.71 212.338 135.609 212.338H197.274C204.172 212.338 209.785 217.927 209.785 224.796V248.098C209.785 254.221 219.279 254.221 219.279 248.098V224.796C219.279 212.692 209.407 202.845 197.274 202.845H154.927C154.963 202.252 154.981 178.277 154.981 178.277C159.167 179.96 163.654 180.835 168.269 180.835H221.294V204.1C221.294 207.898 225.897 210.185 228.925 207.87L264.27 180.835H278.461C298.082 180.835 314.045 164.914 314.045 145.345V35.4895C314.045 15.9207 298.081 0 278.461 0V0Z" fill="white"/>
<path d="M235.225 35.0724C229.198 33.5338 223.056 38.2958 223.056 44.5236C223.056 51.3279 220.577 57.8854 216.077 62.9847L202.999 77.7839C202.152 76.4846 200.689 75.6245 199.023 75.6245H173.491C170.869 75.6245 168.744 77.7498 168.744 80.3713V137.817C168.744 140.438 170.869 142.564 173.491 142.564H199.023C200.941 142.564 202.589 141.424 203.338 139.787C208.507 142.945 214.496 144.653 220.591 144.653H265.712C272.606 144.653 278.294 138.67 277.971 131.793C277.827 128.747 277.984 87.8534 277.984 86.9452C277.984 80.1782 272.479 74.672 265.726 74.672L242.262 74.6017L243.233 72.3011C247.673 61.7867 246.942 49.5944 241.28 39.685C239.959 37.3699 237.808 35.7325 235.225 35.0724C237.808 35.7325 232.642 34.4129 235.225 35.0724C237.808 35.7325 229.199 33.5338 235.225 35.0724ZM194.276 133.07H178.238V85.118H194.276V133.07ZM265.712 84.1649C267.245 84.1649 268.491 85.4117 268.491 86.9446C268.491 87.8477 268.482 90.299 268.469 93.6224C268.399 111.972 268.352 129.35 268.488 132.238C268.537 133.281 268.03 133.976 267.724 134.297C267.193 134.853 266.479 135.159 265.712 135.159H220.591C215.212 135.159 209.948 133.295 205.767 129.911L203.769 128.293V91.2483L223.194 69.2682C229.227 62.4303 232.55 53.6425 232.55 44.5229C232.55 44.2546 232.916 44.185 233.038 44.3938C237.242 51.7501 237.783 60.8012 234.488 68.6068L230.742 77.4795C230.123 78.9434 230.279 80.6187 231.154 81.944C232.031 83.2693 233.512 84.068 235.1 84.0731L265.712 84.1649Z" fill="white"/>
<path d="M50.6013 164.873C47.9792 164.873 45.8545 166.998 45.8545 169.62C45.8545 172.241 47.9792 174.367 50.6013 174.367H64.5936L61.9797 190.176C61.5518 192.762 63.3024 195.206 65.8885 195.634C66.1511 195.677 66.4113 195.698 66.6682 195.698C68.9492 195.698 70.9612 194.049 71.346 191.725L74.2156 174.367H85.6668L83.0529 190.177C82.625 192.763 84.3756 195.206 86.9617 195.634C87.2243 195.678 87.4845 195.699 87.7414 195.699C90.0224 195.699 92.0344 194.05 92.4192 191.725L95.2888 174.368H114.335C116.957 174.368 119.082 172.243 119.082 169.621C119.082 167 116.957 164.874 114.335 164.874H96.8584L98.7729 153.295H114.335C116.957 153.295 119.082 151.17 119.082 148.548C119.082 145.927 116.957 143.801 114.335 143.801H100.343L102.956 127.992C103.384 125.406 101.634 122.962 99.0476 122.535C96.4584 122.105 94.0179 123.857 93.5901 126.443L90.7205 143.801H79.2694L81.8832 127.991C82.3111 125.405 80.5605 122.962 77.9744 122.534C75.382 122.105 72.9454 123.857 72.5169 126.443L69.6473 143.8H50.6013C47.9792 143.8 45.8545 145.925 45.8545 148.547C45.8545 151.168 47.9792 153.294 50.6013 153.294H68.0777L66.1632 164.873H50.6013ZM77.7004 153.294H89.1515L87.237 164.873H75.7858L77.7004 153.294Z" fill="white"/>
<path d="M166.384 236.829C162.551 233.674 157.452 232.429 152.337 233.672C145.782 235.264 139.167 241.392 139.167 251.492C139.167 257.779 141.461 263.236 146.181 268.175C150.036 272.21 155.599 276.047 164.218 280.616C164.914 280.985 165.678 281.169 166.441 281.169C167.205 281.169 167.969 280.985 168.665 280.616C183.701 272.645 193.715 264.642 193.715 251.492C193.715 241.337 186.866 235.272 180.077 233.766C174.977 232.634 170.033 233.836 166.384 236.829ZM184.221 251.492C184.221 258.585 179.517 263.83 166.441 271.028C153.365 263.829 148.66 258.584 148.66 251.492C148.66 246.215 151.716 243.592 154.576 242.898C155.103 242.77 155.668 242.698 156.248 242.698C158.399 242.698 160.764 243.691 162.223 246.518C163.054 248.127 164.733 249.125 166.535 249.087C168.345 249.051 169.977 247.989 170.742 246.349C172.278 243.056 175.508 242.477 178.02 243.035C181.019 243.699 184.221 246.27 184.221 251.492Z" fill="white"/>
</g>
<defs>
<clipPath id="clip0">
<rect width="324" height="324" fill="white"/>
</clipPath>
</defs>
</svg>
