<svg width="31" height="31" viewBox="0 0 31 31" fill="none" xmlns="http://www.w3.org/2000/svg">
<g clip-path="url(#clip0)">
<path d="M26.6429 0H25.31C24.7241 0 24.7241 0.908334 25.31 0.908334H26.6429C28.0193 0.908334 29.1391 2.02413 29.1391 3.3956V13.9064C29.1391 15.2779 28.0193 16.3937 26.6429 16.3937H25.1312C25.0315 16.3937 24.9345 16.4265 24.8553 16.4871L22.0814 18.6089V16.8478C22.0814 16.597 21.8782 16.3937 21.6273 16.3937H16.0998C15.6471 16.3937 15.2121 16.2742 14.8284 16.0471V10.9488C14.8284 9.9938 14.342 9.15008 13.6034 8.65092V3.3956C13.6034 2.02413 14.7233 0.908334 16.0998 0.908334H22.4639C23.0497 0.908334 23.0497 0 22.4639 0H16.0998C14.2224 0 12.6951 1.52328 12.6951 3.3956V8.25173C12.4871 8.20208 12.2705 8.17501 12.0475 8.17501H3.73344C2.20011 8.17501 0.952606 9.41931 0.952606 10.9488V11.9295C0.952606 12.5153 1.86094 12.5153 1.86094 11.9295V10.9488C1.86094 9.92016 2.70091 9.08334 3.73344 9.08334H12.0476C13.0801 9.08334 13.9201 9.92016 13.9201 10.9488V16.2279C13.9147 16.268 13.9149 16.3084 13.9201 16.3481V19.2374C13.9201 19.2945 13.9167 19.3513 13.9115 19.4079H12.9749C11.9429 19.4079 11.0825 20.1528 10.9041 21.1318C10.8628 21.1474 10.8231 21.1691 10.7864 21.1974L8.75502 22.7659V21.557C8.75502 21.3061 8.55173 21.1028 8.30085 21.1028H3.73344C2.70091 21.1028 1.86094 20.266 1.86094 19.2374V14.6545C1.86094 14.0686 0.952606 14.0686 0.952606 14.6545V19.2374C0.952606 20.7669 2.20011 22.0112 3.73344 22.0112H7.84674V23.6904C7.84674 24.0547 8.2891 24.2732 8.5785 24.0499L10.8696 22.2809V27.3903C10.8696 28.5484 11.8141 29.4905 12.975 29.4905H15.762V30.5503C15.762 30.9145 16.2044 31.1333 16.4937 30.9098L18.332 29.4905H18.875C20.0359 29.4905 20.9804 28.5483 20.9804 27.3903V26.5839C20.9804 25.9981 20.072 25.9981 20.072 26.5839V27.3903C20.072 28.0476 19.5351 28.5822 18.875 28.5822H18.177C18.0765 28.5822 17.9789 28.6155 17.8995 28.6768L16.6703 29.6258V29.0363C16.6703 28.7855 16.467 28.5821 16.2161 28.5821H12.9749C12.3149 28.5821 11.7779 28.0474 11.7779 27.3902V21.5082C11.7779 20.8509 12.3148 20.3163 12.9749 20.3163H18.875C19.535 20.3163 20.072 20.851 20.072 21.5082V23.7378C20.072 24.3236 20.9804 24.3236 20.9804 23.7378V21.5083C20.9804 20.3501 20.0359 19.408 18.875 19.408H14.8232C14.8267 19.3513 14.8284 17.0574 14.8284 17.0574C15.2289 17.2184 15.6582 17.3021 16.0998 17.3021H21.1732V19.5281C21.1732 19.8915 21.6136 20.1103 21.9033 19.8888L25.2851 17.3021H26.6429C28.5202 17.3021 30.0475 15.7788 30.0475 13.9064V3.3956C30.0475 1.52328 28.5201 0 26.6429 0V0Z" fill="white"/>
<path d="M22.5061 3.35546C21.9294 3.20825 21.3418 3.66387 21.3418 4.25974C21.3418 4.91077 21.1045 5.53819 20.6741 6.02609L19.4227 7.44206C19.3417 7.31774 19.2017 7.23544 19.0423 7.23544H16.5994C16.3486 7.23544 16.1453 7.43879 16.1453 7.68961V13.1859C16.1453 13.4368 16.3486 13.6401 16.5994 13.6401H19.0423C19.2258 13.6401 19.3835 13.531 19.4551 13.3745C19.9497 13.6766 20.5228 13.84 21.1059 13.84H25.423C26.0827 13.84 26.6269 13.2676 26.596 12.6096C26.5822 12.3182 26.5972 8.4055 26.5972 8.3186C26.5972 7.67114 26.0705 7.14431 25.4243 7.14431L23.1794 7.13759L23.2723 6.91747C23.6971 5.91145 23.6272 4.74491 23.0854 3.79679C22.959 3.57528 22.7532 3.41862 22.5061 3.35546C22.2589 3.29236 22.7532 3.41862 22.5061 3.35546C21.9295 3.20825 22.7532 3.41862 22.5061 3.35546ZM18.5881 12.7318H17.0536V8.14378H18.5881V12.7318ZM25.423 8.05258C25.5697 8.05258 25.689 8.17188 25.689 8.31854C25.689 8.40495 25.6881 8.63949 25.6868 8.95746C25.6801 10.7131 25.6756 12.3758 25.6886 12.6522C25.6933 12.7519 25.6448 12.8184 25.6155 12.8492C25.5648 12.9024 25.4964 12.9316 25.423 12.9316H21.1059C20.5913 12.9316 20.0876 12.7533 19.6876 12.4295L19.4964 12.2747V8.73032L21.3549 6.62728C21.9322 5.97304 22.2501 5.13222 22.2501 4.25968C22.2501 4.234 22.2852 4.22734 22.2968 4.24733C22.699 4.95116 22.7509 5.81717 22.4356 6.564L22.0771 7.41293C22.018 7.553 22.0329 7.71329 22.1166 7.84009C22.2005 7.96689 22.3422 8.04332 22.4941 8.0438L25.423 8.05258Z" fill="white"/>
<path d="M4.84148 15.7747C4.5906 15.7747 4.38731 15.978 4.38731 16.2289C4.38731 16.4797 4.5906 16.683 4.84148 16.683H6.18025L5.93015 18.1956C5.88922 18.4431 6.05671 18.6769 6.30414 18.7178C6.32928 18.722 6.35416 18.724 6.37875 18.724C6.59699 18.724 6.7895 18.5662 6.82632 18.3438L7.10088 16.6831H8.19651L7.94642 18.1957C7.90548 18.4431 8.07298 18.6769 8.32041 18.7179C8.34554 18.7221 8.37043 18.7241 8.39501 18.7241C8.61325 18.7241 8.80576 18.5663 8.84258 18.3439L9.11714 16.6832H10.9394C11.1903 16.6832 11.3936 16.4798 11.3936 16.229C11.3936 15.9782 11.1903 15.7748 10.9394 15.7748H9.26732L9.4505 14.6669H10.9394C11.1903 14.6669 11.3936 14.4636 11.3936 14.2127C11.3936 13.9619 11.1903 13.7586 10.9394 13.7586H9.60068L9.85077 12.2459C9.89171 11.9985 9.72421 11.7647 9.47678 11.7238C9.22905 11.6827 8.99554 11.8503 8.95461 12.0978L8.68005 13.7585H7.58441L7.83451 12.2459C7.87544 11.9985 7.70795 11.7647 7.46052 11.7237C7.21248 11.6827 6.97934 11.8503 6.93834 12.0977L6.66378 13.7584H4.84148C4.5906 13.7584 4.38731 13.9618 4.38731 14.2126C4.38731 14.4634 4.5906 14.6668 4.84148 14.6668H6.51361L6.33043 15.7747H4.84148ZM7.4343 14.6668H8.52993L8.34675 15.7747H7.25111L7.4343 14.6668Z" fill="white"/>
<path d="M15.9195 22.6598C15.5527 22.3579 15.0648 22.2388 14.5754 22.3578C13.9483 22.5101 13.3154 23.0964 13.3154 24.0628C13.3154 24.6643 13.5349 25.1864 13.9865 25.6589C14.3553 26.045 14.8876 26.4121 15.7122 26.8493C15.7788 26.8846 15.8519 26.9022 15.925 26.9022C15.9981 26.9022 16.0712 26.8846 16.1377 26.8493C17.5764 26.0866 18.5345 25.3209 18.5345 24.0628C18.5345 23.0911 17.8792 22.5108 17.2296 22.3667C16.7417 22.2584 16.2686 22.3734 15.9195 22.6598ZM17.6261 24.0628C17.6261 24.7413 17.176 25.2432 15.9249 25.9319C14.6738 25.2431 14.2237 24.7413 14.2237 24.0628C14.2237 23.5578 14.516 23.3069 14.7897 23.2404C14.8401 23.2282 14.8941 23.2213 14.9497 23.2213C15.1555 23.2213 15.3818 23.3164 15.5213 23.5869C15.6008 23.7408 15.7615 23.8362 15.9339 23.8326C16.1071 23.8292 16.2632 23.7276 16.3364 23.5706C16.4834 23.2556 16.7925 23.2002 17.0328 23.2536C17.3197 23.3171 17.6261 23.5631 17.6261 24.0628Z" fill="white"/>
</g>
<defs>
<clipPath id="clip0">
<rect width="31" height="31" fill="white"/>
</clipPath>
</defs>
</svg>
