<svg width="66" height="66" viewBox="0 0 66 66" fill="none" xmlns="http://www.w3.org/2000/svg">
<path d="M47.8987 34.1402L43.7737 32.0777C43.5291 31.9554 43.2459 31.9352 42.9865 32.0217C42.727 32.1082 42.5125 32.2942 42.3902 32.5388L41.25 34.8191V32.4556C41.2533 31.4974 40.9879 30.5574 40.4842 29.7422C39.9804 28.9271 39.2583 28.2694 38.3998 27.8438L35.6629 26.4753C36.4027 26.1559 37.0329 25.6272 37.4759 24.9541C37.9189 24.2811 38.1554 23.4932 38.1562 22.6875V19.5938H40.2188V17.5312H38.0294L39.1138 14.8205L37.1987 14.0545L35.8081 17.5312H35.0625V13.4062H33V17.5312H32.2544L30.8638 14.0545L28.9487 14.8205L30.0331 17.5312H27.8438V19.5938H29.9062V22.6875C29.9066 23.0132 29.9455 23.3378 30.0223 23.6543L28.6319 22.9591L24.289 13.4062H24.75C25.0235 13.4062 25.2858 13.2976 25.4792 13.1042C25.6726 12.9108 25.7812 12.6485 25.7812 12.375V9.28125C25.7812 9.00775 25.6726 8.74544 25.4792 8.55205C25.2858 8.35865 25.0235 8.25 24.75 8.25H19.5938C19.3202 8.25 19.0579 8.35865 18.8645 8.55205C18.6711 8.74544 18.5625 9.00775 18.5625 9.28125V13.4062C18.5625 13.5022 18.5759 13.5976 18.6022 13.6898L22.6875 27.9883V57.75H21.6562C21.3827 57.75 21.1204 57.8587 20.927 58.052C20.7336 58.2454 20.625 58.5077 20.625 58.7812V62.9062C20.625 63.1798 20.7336 63.4421 20.927 63.6355C21.1204 63.8288 21.3827 63.9375 21.6562 63.9375H42.2812C42.5548 63.9375 42.8171 63.8288 43.0105 63.6355C43.2039 63.4421 43.3125 63.1798 43.3125 62.9062V58.7812C43.3125 58.5077 43.2039 58.2454 43.0105 58.052C42.8171 57.8587 42.5548 57.75 42.2812 57.75H41.25V40.8561L43.8825 42.1723C44.0036 42.233 44.1355 42.2692 44.2706 42.2789C44.4057 42.2886 44.5414 42.2715 44.6699 42.2287C44.7984 42.1858 44.9172 42.1181 45.0195 42.0293C45.1218 41.9405 45.2056 41.8324 45.2661 41.7112L48.3598 35.5237C48.4821 35.2791 48.5023 34.9959 48.4158 34.7365C48.3293 34.477 48.1433 34.2625 47.8987 34.1402ZM36.0938 19.5938V22.6875C36.0938 23.2345 35.8765 23.7591 35.4897 24.1459C35.1029 24.5327 34.5783 24.75 34.0312 24.75C33.4842 24.75 32.9596 24.5327 32.5728 24.1459C32.186 23.7591 31.9688 23.2345 31.9688 22.6875V19.5938H36.0938ZM39.1875 32.4556V49.0728L37.7815 47.6668L38.5392 47.3638C38.7487 47.28 38.9249 47.1298 39.0408 46.9363C39.1568 46.7428 39.2061 46.5166 39.1812 46.2924L37.328 29.6139L37.4772 29.6885C37.9923 29.9439 38.4256 30.3385 38.7279 30.8276C39.0302 31.3166 39.1894 31.8807 39.1875 32.4556ZM33.0166 36.9405L30.9541 48.2843C30.9063 48.5472 30.9625 48.8185 31.1107 49.0408L32.4681 51.0776L24.75 54.1643V45.8548C28.731 42.5119 31.9823 38.3862 34.302 33.734L35.4548 31.4282L37.0451 45.7402L33.2364 47.2637L35.0463 37.3095L33.0166 36.9405ZM30.6378 26.2688L29.9463 27.8824C28.9196 30.2971 27.0816 32.2773 24.75 33.4809V28.2709L28.0474 24.9735L30.6378 26.2688ZM24.75 35.7534C27.9421 34.4123 30.486 31.8803 31.8422 28.6945L32.4858 27.1925L34.7102 28.3047L32.4568 32.8114C30.5292 36.6787 27.9183 40.1657 24.75 43.1041V35.7534ZM20.625 10.3125H23.7188V11.3438H22.6875C22.5149 11.3437 22.3451 11.387 22.1936 11.4697C22.0422 11.5523 21.9138 11.6716 21.8204 11.8167C21.727 11.9618 21.6715 12.128 21.6589 12.3001C21.6464 12.4722 21.6773 12.6447 21.7487 12.8018L26.6092 23.4948L24.2288 25.8752L20.625 13.2617V10.3125ZM24.75 56.3857L29.5822 54.4528L29.0327 57.75H24.75V56.3857ZM41.25 61.875H22.6875V59.8125H41.25V61.875ZM36.8989 57.75L36.0629 54.4062L34.0621 54.9063L34.773 57.75H31.1236L31.8226 53.5567L34.4136 52.52C34.5561 52.463 34.684 52.3749 34.7882 52.2622C34.8923 52.1495 34.9699 52.0149 35.0155 51.8684C35.061 51.7218 35.0732 51.5669 35.0513 51.4151C35.0293 51.2632 34.9737 51.1181 34.8886 50.9904L33.7483 49.2798L35.6974 48.5002L39.1875 51.9897V57.75H36.8989ZM43.8825 39.8664L41.6023 38.7263L43.7737 34.3836L46.0539 35.5237L43.8825 39.8664Z" fill="#3C2458"/>
<path d="M25.7813 5.15625V4.97926C25.7809 4.84377 25.8074 4.70955 25.8593 4.58438C25.9111 4.4592 25.9873 4.34556 26.0834 4.25004L26.5105 3.82297C26.6547 3.67875 26.7529 3.49499 26.7927 3.29495C26.8325 3.0949 26.8121 2.88754 26.734 2.6991C26.656 2.51066 26.5238 2.3496 26.3542 2.23629C26.1846 2.12297 25.9852 2.06249 25.7813 2.0625H22.6875C22.0756 2.0625 21.4775 2.24395 20.9687 2.58389C20.4599 2.92384 20.0634 3.40701 19.8292 3.97232C19.5951 4.53763 19.5338 5.15968 19.6532 5.75981C19.7726 6.35994 20.0672 6.91119 20.4999 7.34386C20.9326 7.77653 21.4838 8.07118 22.0839 8.19055C22.6841 8.30993 23.3061 8.24866 23.8714 8.0145C24.4367 7.78034 24.9199 7.38381 25.2599 6.87505C25.5998 6.36628 25.7813 5.76814 25.7813 5.15625ZM23.7188 4.97926V5.15625C23.7188 5.36021 23.6583 5.55959 23.545 5.72918C23.4316 5.89877 23.2706 6.03095 23.0821 6.109C22.8937 6.18705 22.6864 6.20748 22.4863 6.16769C22.2863 6.12789 22.1025 6.02968 21.9583 5.88545C21.8141 5.74123 21.7159 5.55748 21.6761 5.35744C21.6363 5.15739 21.6567 4.95004 21.7348 4.76161C21.8128 4.57317 21.945 4.41211 22.1146 4.2988C22.2842 4.18548 22.4835 4.125 22.6875 4.125H23.8376C23.7585 4.40284 23.7185 4.69037 23.7188 4.97926Z" fill="#3C2458"/>
</svg>
