<svg width="364" height="364" viewBox="0 0 364 364" fill="none" xmlns="http://www.w3.org/2000/svg">
<circle opacity="0.9" cx="181.859" cy="181.86" r="158.698" fill="#A3CDFF" fill-opacity="0.34" stroke="white"/>
<circle opacity="0.9" cx="181.859" cy="181.859" r="181.359" fill="white" fill-opacity="0.34" stroke="white"/>
<circle opacity="0.9" cx="181.859" cy="181.86" r="133.77" fill="white" fill-opacity="0.34" stroke="white"/>
<circle opacity="0.9" cx="181.859" cy="181.293" r="108.276" fill="#A3CDFF" fill-opacity="0.34" stroke="white"/>
<circle opacity="0.9" cx="181.859" cy="181.86" r="83.3479" fill="white" fill-opacity="0.34" stroke="white"/>
<circle opacity="0.9" cx="181.859" cy="181.86" r="57.8536" fill="#A3CDFF" fill-opacity="0.34" stroke="white"/>
<circle opacity="0.9" cx="181.859" cy="181.86" r="32.9259" fill="white" fill-opacity="0.34" stroke="white"/>
<circle cx="181.859" cy="181.86" r="7.43156" fill="white" stroke="white"/>
<path d="M183.353 185.26H181.67V179.902L180.016 180.385V179.11L183.198 178.01H183.353V185.26Z" fill="#EE520F"/>
<path opacity="0.9" d="M184.692 165.996H179.633V164.901L181.963 162.451C182.538 161.797 182.825 161.277 182.825 160.892C182.825 160.58 182.757 160.343 182.621 160.18C182.485 160.018 182.287 159.936 182.028 159.936C181.772 159.936 181.565 160.046 181.406 160.265C181.246 160.481 181.167 160.751 181.167 161.077H179.484C179.484 160.632 179.595 160.222 179.817 159.847C180.04 159.468 180.348 159.173 180.743 158.96C181.138 158.748 181.58 158.642 182.068 158.642C182.851 158.642 183.454 158.823 183.875 159.184C184.3 159.546 184.513 160.066 184.513 160.743C184.513 161.028 184.46 161.307 184.353 161.579C184.247 161.848 184.081 162.132 183.856 162.431C183.633 162.726 183.273 163.123 182.775 163.621L181.839 164.701H184.692V165.996Z" fill="white"/>
<path opacity="0.8" d="M181.167 136.176H181.958C182.586 136.176 182.899 135.869 182.899 135.255C182.899 135.016 182.825 134.822 182.675 134.672C182.526 134.519 182.315 134.443 182.043 134.443C181.821 134.443 181.626 134.508 181.46 134.637C181.298 134.767 181.216 134.928 181.216 135.12H179.538C179.538 134.739 179.645 134.398 179.857 134.099C180.069 133.801 180.363 133.568 180.738 133.402C181.117 133.233 181.532 133.148 181.983 133.148C182.79 133.148 183.424 133.333 183.885 133.701C184.347 134.07 184.577 134.576 184.577 135.22C184.577 135.532 184.481 135.827 184.289 136.106C184.099 136.382 183.822 136.606 183.457 136.778C183.842 136.918 184.144 137.13 184.363 137.416C184.582 137.698 184.692 138.048 184.692 138.466C184.692 139.114 184.443 139.632 183.945 140.02C183.447 140.408 182.793 140.603 181.983 140.603C181.509 140.603 181.067 140.513 180.659 140.334C180.254 140.151 179.947 139.9 179.738 139.582C179.528 139.26 179.424 138.895 179.424 138.486H181.112C181.112 138.709 181.201 138.901 181.381 139.064C181.56 139.227 181.781 139.308 182.043 139.308C182.338 139.308 182.574 139.227 182.75 139.064C182.926 138.898 183.014 138.687 183.014 138.432C183.014 138.066 182.923 137.807 182.74 137.655C182.558 137.502 182.305 137.426 181.983 137.426H181.167V136.176Z" fill="white"/>
<path opacity="0.7" d="M184.065 112.175H184.802V113.47H184.065V115.009H182.387V113.47H179.583L179.484 112.444L182.387 107.774V107.759H184.065V112.175ZM181.082 112.175H182.387V109.945L182.282 110.114L181.082 112.175Z" fill="white"/>
<path opacity="0.6" d="M179.733 85.9683L180.176 82.2637H184.413V83.5683H181.54L181.376 85.0073C181.495 84.9376 181.651 84.8762 181.844 84.8231C182.04 84.7699 182.23 84.7434 182.416 84.7434C183.137 84.7434 183.689 84.9575 184.075 85.3857C184.463 85.8106 184.657 86.4082 184.657 87.1783C184.657 87.643 184.553 88.0646 184.343 88.4431C184.138 88.8182 183.847 89.107 183.472 89.3095C183.097 89.512 182.654 89.6132 182.143 89.6132C181.688 89.6132 181.261 89.5203 180.863 89.3344C180.464 89.1451 180.152 88.8879 179.927 88.5626C179.701 88.2339 179.59 87.8638 179.593 87.4522H181.276C181.293 87.7177 181.377 87.9285 181.53 88.0845C181.683 88.2406 181.884 88.3186 182.133 88.3186C182.697 88.3186 182.979 87.9003 182.979 87.0638C182.979 86.2903 182.634 85.9036 181.943 85.9036C181.552 85.9036 181.26 86.0297 181.067 86.282L179.733 85.9683Z" fill="white"/>
<path opacity="0.5" d="M183.686 56.665V57.9846H183.611C182.984 57.9846 182.468 58.1356 182.063 58.4377C181.661 58.7365 181.414 59.1531 181.321 59.6875C181.699 59.3157 182.177 59.1298 182.755 59.1298C183.382 59.1298 183.882 59.3589 184.254 59.817C184.626 60.2751 184.811 60.8759 184.811 61.6195C184.811 62.0809 184.702 62.5042 184.483 62.8892C184.267 63.2743 183.963 63.5764 183.572 63.7955C183.183 64.0112 182.752 64.1191 182.277 64.1191C181.762 64.1191 181.303 64.0029 180.898 63.7706C180.493 63.5349 180.177 63.1996 179.952 62.7647C179.726 62.3299 179.61 61.8286 179.603 61.261V60.5888C179.603 59.8419 179.762 59.1713 180.081 58.5771C180.403 57.9796 180.861 57.5115 181.455 57.1729C182.05 56.8343 182.708 56.665 183.432 56.665H183.686ZM182.172 60.4145C181.95 60.4145 181.764 60.4659 181.615 60.5689C181.465 60.6718 181.354 60.7979 181.281 60.9473V61.4502C181.281 62.3664 181.598 62.8245 182.232 62.8245C182.488 62.8245 182.7 62.71 182.869 62.4809C183.042 62.2519 183.128 61.9647 183.128 61.6195C183.128 61.2643 183.04 60.9755 182.865 60.7531C182.692 60.5274 182.461 60.4145 182.172 60.4145Z" fill="white"/>
<path opacity="0.4" d="M184.672 32.1717L181.963 38.5253H180.191L182.904 32.57H179.449V31.2754H184.672V32.1717Z" fill="white"/>
<path opacity="0.3" d="M184.523 7.71732C184.523 8.06919 184.435 8.37957 184.259 8.64846C184.086 8.91734 183.847 9.13311 183.542 9.29577C183.887 9.46507 184.161 9.69744 184.363 9.99288C184.566 10.285 184.667 10.6319 184.667 11.0336C184.667 11.6809 184.443 12.1921 183.995 12.5672C183.55 12.9423 182.936 13.1299 182.152 13.1299C181.366 13.1299 180.745 12.9423 180.29 12.5672C179.835 12.1888 179.608 11.6776 179.608 11.0336C179.608 10.6452 179.707 10.3016 179.907 10.0028C180.106 9.70408 180.388 9.46839 180.753 9.29577C180.444 9.13311 180.202 8.91734 180.026 8.64846C179.85 8.37957 179.762 8.06919 179.762 7.71732C179.762 7.0866 179.976 6.58866 180.405 6.22351C180.833 5.85836 181.41 5.67578 182.137 5.67578C182.871 5.67578 183.452 5.85836 183.88 6.22351C184.308 6.58866 184.523 7.0866 184.523 7.71732ZM182.984 10.8991C182.984 10.6004 182.906 10.3713 182.75 10.212C182.597 10.0493 182.395 9.96799 182.142 9.96799C181.89 9.96799 181.686 10.0493 181.53 10.212C181.374 10.3713 181.296 10.6004 181.296 10.8991C181.296 11.1879 181.374 11.417 181.53 11.5863C181.689 11.7523 181.897 11.8352 182.152 11.8352C182.401 11.8352 182.602 11.7523 182.755 11.5863C182.908 11.4203 182.984 11.1912 182.984 10.8991ZM182.137 6.97041C181.912 6.97041 181.739 7.0451 181.62 7.19448C181.503 7.34055 181.445 7.5447 181.445 7.80695C181.445 8.06587 181.505 8.275 181.625 8.43434C181.744 8.59368 181.92 8.67335 182.152 8.67335C182.381 8.67335 182.552 8.59368 182.665 8.43434C182.781 8.275 182.84 8.06587 182.84 7.80695C182.84 7.54802 182.78 7.34387 182.66 7.19448C182.544 7.0451 182.37 6.97041 182.137 6.97041Z" fill="white"/>
</svg>
