<svg width="269" height="269" viewBox="0 0 269 269" fill="none" xmlns="http://www.w3.org/2000/svg">
<g opacity="0.1">
<path d="M260.594 46.2344C261.708 46.2344 262.778 45.7915 263.566 45.0033C264.354 44.2151 264.797 43.146 264.797 42.0312V8.40625C264.797 7.29151 264.354 6.22243 263.566 5.43419C262.778 4.64595 261.708 4.20313 260.594 4.20312H226.969C225.854 4.20313 224.785 4.64595 223.997 5.43419C223.208 6.22243 222.766 7.29151 222.766 8.40625V21.0156H46.2344V8.40625C46.2344 7.29151 45.7915 6.22243 45.0033 5.43419C44.2151 4.64595 43.146 4.20313 42.0312 4.20312H8.40625C7.29151 4.20313 6.22243 4.64595 5.43419 5.43419C4.64595 6.22243 4.20313 7.29151 4.20312 8.40625V42.0312C4.20313 43.146 4.64595 44.2151 5.43419 45.0033C6.22243 45.7915 7.29151 46.2344 8.40625 46.2344H21.0156V222.766H8.40625C7.29151 222.766 6.22243 223.208 5.43419 223.997C4.64595 224.785 4.20313 225.854 4.20312 226.969V260.594C4.20313 261.708 4.64595 262.778 5.43419 263.566C6.22243 264.354 7.29151 264.797 8.40625 264.797H42.0312C43.146 264.797 44.2151 264.354 45.0033 263.566C45.7915 262.778 46.2344 261.708 46.2344 260.594V247.984H222.766V260.594C222.766 261.708 223.208 262.778 223.997 263.566C224.785 264.354 225.854 264.797 226.969 264.797H260.594C261.708 264.797 262.778 264.354 263.566 263.566C264.354 262.778 264.797 261.708 264.797 260.594V226.969C264.797 225.854 264.354 224.785 263.566 223.997C262.778 223.208 261.708 222.766 260.594 222.766H247.984V46.2344H260.594ZM12.6094 37.8281V12.6094H37.8281V37.8281H12.6094ZM37.8281 256.391H12.6094V231.172H37.8281V256.391ZM222.766 226.969V239.578H46.2344V226.969C46.2344 225.854 45.7915 224.785 45.0033 223.997C44.2151 223.208 43.146 222.766 42.0312 222.766H29.4219V46.2344H42.0312C43.146 46.2344 44.2151 45.7915 45.0033 45.0033C45.7915 44.2151 46.2344 43.146 46.2344 42.0312V29.4219H222.766V42.0312C222.766 43.146 223.208 44.2151 223.997 45.0033C224.785 45.7915 225.854 46.2344 226.969 46.2344H239.578V222.766H226.969C225.854 222.766 224.785 223.208 223.997 223.997C223.208 224.785 222.766 225.854 222.766 226.969ZM256.391 231.172V256.391H231.172V231.172H256.391ZM231.172 37.8281V12.6094H256.391V37.8281H231.172Z" fill="white"/>
<path d="M184.938 71.4531H84.0625C82.9478 71.4531 81.8787 71.8959 81.0904 72.6842C80.3022 73.4724 79.8594 74.5415 79.8594 75.6562V109.281C79.8594 110.396 80.3022 111.465 81.0904 112.253C81.8787 113.042 82.9478 113.484 84.0625 113.484H91.9434C92.8593 113.484 93.7502 113.185 94.4805 112.632C95.2108 112.079 95.7404 111.303 95.9889 110.421L99.8557 96.6719H121.891V177.451L108.262 180.86C107.353 181.088 106.545 181.612 105.969 182.351C105.392 183.09 105.078 184 105.078 184.938V193.344C105.078 194.458 105.521 195.528 106.309 196.316C107.097 197.104 108.167 197.547 109.281 197.547H159.719C160.833 197.547 161.903 197.104 162.691 196.316C163.479 195.528 163.922 194.458 163.922 193.344V184.938C163.922 184 163.608 183.09 163.031 182.351C162.455 181.612 161.647 181.088 160.738 180.86L147.109 177.451V96.6719H169.144L173.011 110.421C173.26 111.303 173.789 112.079 174.52 112.632C175.25 113.185 176.141 113.484 177.057 113.484H184.938C186.052 113.484 187.121 113.042 187.91 112.253C188.698 111.465 189.141 110.396 189.141 109.281V75.6562C189.141 74.5415 188.698 73.4724 187.91 72.6842C187.121 71.8959 186.052 71.4531 184.938 71.4531ZM180.734 105.078H180.241L176.374 91.3287C176.125 90.447 175.596 89.6707 174.865 89.1178C174.135 88.5649 173.244 88.2656 172.328 88.2656H142.906C141.792 88.2656 140.722 88.7085 139.934 89.4967C139.146 90.2849 138.703 91.354 138.703 92.4688V180.734C138.703 181.672 139.017 182.582 139.594 183.321C140.17 184.059 140.978 184.584 141.887 184.811L155.516 188.221V189.141H113.484V188.221L127.113 184.811C128.022 184.584 128.83 184.059 129.406 183.321C129.983 182.582 130.297 181.672 130.297 180.734V92.4688C130.297 91.354 129.854 90.2849 129.066 89.4967C128.278 88.7085 127.208 88.2656 126.094 88.2656H96.6719C95.7559 88.2656 94.865 88.5649 94.1347 89.1178C93.4045 89.6707 92.8748 90.447 92.6264 91.3287L88.7595 105.078H88.2656V79.8594H180.734V105.078Z" fill="white"/>
<path d="M189.141 205.953H79.8594C78.7446 205.953 77.6756 206.396 76.8873 207.184C76.0991 207.972 75.6562 209.042 75.6562 210.156C75.6562 211.271 76.0991 212.34 76.8873 213.128C77.6756 213.917 78.7446 214.359 79.8594 214.359H189.141C190.255 214.359 191.324 213.917 192.113 213.128C192.901 212.34 193.344 211.271 193.344 210.156C193.344 209.042 192.901 207.972 192.113 207.184C191.324 206.396 190.255 205.953 189.141 205.953Z" fill="white"/>
<path d="M151.312 218.562H117.688C116.573 218.562 115.504 219.005 114.715 219.794C113.927 220.582 113.484 221.651 113.484 222.766C113.484 223.88 113.927 224.949 114.715 225.738C115.504 226.526 116.573 226.969 117.688 226.969H151.312C152.427 226.969 153.496 226.526 154.285 225.738C155.073 224.949 155.516 223.88 155.516 222.766C155.516 221.651 155.073 220.582 154.285 219.794C153.496 219.005 152.427 218.562 151.312 218.562Z" fill="white"/>
</g>
</svg>
