<svg width="106" height="32" viewBox="0 0 106 32" fill="none" xmlns="http://www.w3.org/2000/svg">
<g clip-path="url(#clip0)">
<path d="M78.8471 0L74.0857 4.2V0H68.6317V4.2L63.9569 0H56.3386L63.7837 5.74286L55.7326 12H63.3509L68.6317 7.28571V12H74.0857V7.28571L79.3666 12H86.9849L78.9337 5.74286L86.4654 0H78.8471ZM0.5 0V4.71429H6.90629V12H12.4469V4.71429H18.8531V0H0.5ZM22.316 7.71429H55.7326V3.42857H22.316V7.71429Z" fill="white"/>
</g>
<path d="M8.34155 25.1094H7.42749V29H6.30249V25.1094H5.33569L2.92163 29H1.51538L4.38647 24.5L1.73804 20.4688H3.06812L5.33569 24.1719H6.30249V20.4688H7.42749V24.1719H8.35327L10.6208 20.4688H11.9451L9.29663 24.4941L12.1677 29H10.7673L8.34155 25.1094ZM14.9626 27.4121L16.4392 22.6602H17.5994L15.0505 29.9785C14.656 31.0332 14.0291 31.5605 13.1697 31.5605L12.9646 31.543L12.5603 31.4668V30.5879L12.8533 30.6113C13.2205 30.6113 13.5056 30.5371 13.7087 30.3887C13.9158 30.2402 14.0857 29.9688 14.2185 29.5742L14.4587 28.9297L12.197 22.6602H13.3806L14.9626 27.4121ZM23.9275 25.9004C23.9275 26.8652 23.7068 27.6426 23.2654 28.2324C22.824 28.8223 22.2263 29.1172 21.4724 29.1172C20.7029 29.1172 20.0974 28.873 19.656 28.3848V31.4375H18.572V22.6602H19.5623L19.615 23.3633C20.0564 22.8164 20.6697 22.543 21.4548 22.543C22.2166 22.543 22.8181 22.8301 23.2595 23.4043C23.7048 23.9785 23.9275 24.7773 23.9275 25.8008V25.9004ZM22.8435 25.7773C22.8435 25.0625 22.6912 24.498 22.3865 24.084C22.0818 23.6699 21.6638 23.4629 21.1326 23.4629C20.4763 23.4629 19.9841 23.7539 19.656 24.3359V27.3652C19.9802 27.9434 20.4763 28.2324 21.1443 28.2324C21.6638 28.2324 22.0759 28.0273 22.3806 27.6172C22.6892 27.2031 22.8435 26.5898 22.8435 25.7773ZM30.49 29H29.406V26.293H26.4939V29H25.4041V22.6602H26.4939V25.4082H29.406V22.6602H30.49V29ZM36.1501 29C36.0876 28.875 36.0369 28.6523 35.9978 28.332C35.4939 28.8555 34.8923 29.1172 34.1931 29.1172C33.5681 29.1172 33.0544 28.9414 32.6521 28.5898C32.2537 28.2344 32.0544 27.7852 32.0544 27.2422C32.0544 26.582 32.3044 26.0703 32.8044 25.707C33.3083 25.3398 34.0154 25.1562 34.9255 25.1562H35.9802V24.6582C35.9802 24.2793 35.8669 23.9785 35.6404 23.7559C35.4138 23.5293 35.0798 23.416 34.6384 23.416C34.2517 23.416 33.9275 23.5137 33.6658 23.709C33.4041 23.9043 33.2732 24.1406 33.2732 24.418H32.1833C32.1833 24.1016 32.2947 23.7969 32.5173 23.5039C32.7439 23.207 33.0486 22.9727 33.4314 22.8008C33.8181 22.6289 34.2419 22.543 34.7029 22.543C35.4333 22.543 36.0056 22.7266 36.4197 23.0938C36.8337 23.457 37.0486 23.959 37.0642 24.5996V27.5176C37.0642 28.0996 37.1384 28.5625 37.2869 28.9062V29H36.1501ZM34.3513 28.1738C34.6912 28.1738 35.0134 28.0859 35.3181 27.9102C35.6228 27.7344 35.8435 27.5059 35.9802 27.2246V25.9238H35.1306C33.8025 25.9238 33.1384 26.3125 33.1384 27.0898C33.1384 27.4297 33.2517 27.6953 33.4783 27.8867C33.7048 28.0781 33.9958 28.1738 34.3513 28.1738ZM43.9607 22.6602V29H42.8708V23.5566H40.7146L40.5857 25.9297C40.5154 27.0195 40.3318 27.7988 40.0349 28.2676C39.7419 28.7363 39.2751 28.9805 38.6345 29H38.2009V28.0449L38.5115 28.0215C38.863 27.9824 39.115 27.7793 39.2673 27.4121C39.4197 27.0449 39.5173 26.3652 39.5603 25.373L39.6775 22.6602H43.9607ZM53.3884 23.5391H51.2615V29H50.1775V23.5391H48.0916V22.6602H53.3884V23.5391ZM58.5447 22.6602H59.6287V29H58.5447V24.377L55.6208 29H54.5369V22.6602H55.6208V27.2891L58.5447 22.6602ZM66.5486 29H65.4646V26.293H62.5525V29H61.4626V22.6602H62.5525V25.4082H65.4646V22.6602H66.5486V29ZM69.4783 24.8457H71.1248C71.8435 24.8535 72.4119 25.041 72.8298 25.4082C73.2478 25.7754 73.4568 26.2734 73.4568 26.9023C73.4568 27.5352 73.2419 28.043 72.8123 28.4258C72.3826 28.8086 71.8044 29 71.0779 29H68.3943V22.6602H69.4783V24.8457ZM69.4783 25.7305V28.1152H71.0896C71.4958 28.1152 71.8103 28.0117 72.033 27.8047C72.2556 27.5938 72.3669 27.3066 72.3669 26.9434C72.3669 26.5918 72.2576 26.3047 72.0388 26.082C71.824 25.8555 71.5212 25.7383 71.1306 25.7305H69.4783ZM76.7849 26.2988H75.9939V29H74.9041V22.6602H75.9939V25.3438H76.7029L78.8357 22.6602H80.1482L77.6404 25.707L80.3591 29H78.9822L76.7849 26.2988ZM80.8748 25.7715C80.8748 25.1504 80.9958 24.5918 81.238 24.0957C81.4841 23.5996 81.824 23.2168 82.2576 22.9473C82.6951 22.6777 83.1931 22.543 83.7517 22.543C84.615 22.543 85.3123 22.8418 85.8435 23.4395C86.3787 24.0371 86.6462 24.832 86.6462 25.8242V25.9004C86.6462 26.5176 86.5271 27.0723 86.2888 27.5645C86.0544 28.0527 85.7166 28.4336 85.2751 28.707C84.8376 28.9805 84.3337 29.1172 83.7634 29.1172C82.9041 29.1172 82.2068 28.8184 81.6716 28.2207C81.1404 27.623 80.8748 26.832 80.8748 25.8477V25.7715ZM81.9646 25.9004C81.9646 26.6035 82.1267 27.168 82.4509 27.5938C82.7791 28.0195 83.2166 28.2324 83.7634 28.2324C84.3142 28.2324 84.7517 28.0176 85.0759 27.5879C85.4001 27.1543 85.5623 26.5488 85.5623 25.7715C85.5623 25.0762 85.3962 24.5137 85.0642 24.084C84.7361 23.6504 84.2986 23.4336 83.7517 23.4336C83.2166 23.4336 82.7849 23.6465 82.4568 24.0723C82.1287 24.498 81.9646 25.1074 81.9646 25.9004ZM87.7712 25.9473C87.7712 24.8887 87.9763 24.0566 88.3865 23.4512C88.7966 22.8457 89.3591 22.543 90.074 22.543C90.406 22.543 90.697 22.5996 90.947 22.7129V20H92.031V22.748C92.3044 22.6113 92.6248 22.543 92.9919 22.543C93.7107 22.543 94.2751 22.8457 94.6853 23.4512C95.0955 24.0566 95.3005 24.9297 95.3005 26.0703C95.3005 27.0039 95.0955 27.7461 94.6853 28.2969C94.2791 28.8477 93.7185 29.123 93.0037 29.123C92.6248 29.123 92.3005 29.0605 92.031 28.9355V31.4375H90.947V28.9531C90.6892 29.0664 90.3943 29.123 90.0623 29.123C89.3513 29.123 88.7908 28.8477 88.3806 28.2969C87.9744 27.7461 87.7712 26.9922 87.7712 26.0352V25.9473ZM94.2166 25.9473C94.2166 25.1504 94.0798 24.5332 93.8064 24.0957C93.533 23.6543 93.156 23.4336 92.6755 23.4336C92.4294 23.4336 92.2146 23.4727 92.031 23.5508V28.1387C92.2068 28.2051 92.4255 28.2383 92.6873 28.2383C93.1716 28.2383 93.5466 28.0508 93.8123 27.6758C94.0818 27.3008 94.2166 26.7246 94.2166 25.9473ZM88.8552 26.0703C88.8552 26.7812 88.9822 27.3203 89.2361 27.6875C89.49 28.0547 89.8552 28.2383 90.3318 28.2383C90.5583 28.2383 90.7634 28.2031 90.947 28.1328V23.5332C90.783 23.4668 90.5818 23.4336 90.3435 23.4336C89.8669 23.4336 89.4998 23.6465 89.2419 24.0723C88.9841 24.498 88.8552 25.1641 88.8552 26.0703ZM96.4783 25.9473C96.4783 24.8887 96.6833 24.0566 97.0935 23.4512C97.5037 22.8457 98.0662 22.543 98.781 22.543C99.113 22.543 99.4041 22.5996 99.6541 22.7129V20H100.738V22.748C101.011 22.6113 101.332 22.543 101.699 22.543C102.418 22.543 102.982 22.8457 103.392 23.4512C103.802 24.0566 104.008 24.9297 104.008 26.0703C104.008 27.0039 103.802 27.7461 103.392 28.2969C102.986 28.8477 102.426 29.123 101.711 29.123C101.332 29.123 101.008 29.0605 100.738 28.9355V31.4375H99.6541V28.9531C99.3962 29.0664 99.1013 29.123 98.7693 29.123C98.0583 29.123 97.4978 28.8477 97.0876 28.2969C96.6814 27.7461 96.4783 26.9922 96.4783 26.0352V25.9473ZM102.924 25.9473C102.924 25.1504 102.787 24.5332 102.513 24.0957C102.24 23.6543 101.863 23.4336 101.383 23.4336C101.136 23.4336 100.922 23.4727 100.738 23.5508V28.1387C100.914 28.2051 101.133 28.2383 101.394 28.2383C101.879 28.2383 102.254 28.0508 102.519 27.6758C102.789 27.3008 102.924 26.7246 102.924 25.9473ZM97.5623 26.0703C97.5623 26.7812 97.6892 27.3203 97.9431 27.6875C98.197 28.0547 98.5623 28.2383 99.0388 28.2383C99.2654 28.2383 99.4705 28.2031 99.6541 28.1328V23.5332C99.49 23.4668 99.2888 23.4336 99.0505 23.4336C98.574 23.4336 98.2068 23.6465 97.949 24.0723C97.6912 24.498 97.5623 25.1641 97.5623 26.0703Z" fill="#E6E6E6"/>
<defs>
<clipPath id="clip0">
<rect width="86.5714" height="12" fill="white" transform="translate(0.5)"/>
</clipPath>
</defs>
</svg>
