<svg width="52" height="52" viewBox="0 0 52 52" fill="none" xmlns="http://www.w3.org/2000/svg">
<path d="M42.4666 5.2H41.5999V4.33333C41.597 1.94111 39.6588 0.00296225 37.2666 0H9.53328C7.14106 0.00296225 5.20291 1.94111 5.19995 4.33333V42.4667C5.20291 44.8589 7.14106 46.797 9.53328 46.8H10.4V47.6667C10.4029 50.0589 12.3411 51.997 14.7333 52H42.4666C44.8588 51.997 46.797 50.0589 46.7999 47.6667V9.53333C46.797 7.14111 44.8588 5.20296 42.4666 5.2ZM34.6666 1.73333V5.70781L33.546 4.58724C33.2075 4.24912 32.6591 4.24912 32.3205 4.58724L31.1999 5.70781V1.73333H34.6666ZM6.93328 42.4667V4.33333C6.93328 2.89749 8.09744 1.73333 9.53328 1.73333H29.4666V7.8C29.4666 8.15039 29.6778 8.4665 30.0015 8.60065C30.3252 8.7348 30.6981 8.66032 30.946 8.41276L32.9333 6.42552L34.9205 8.41276C35.1685 8.66032 35.5413 8.7348 35.8651 8.60065C36.1888 8.4665 36.4 8.15039 36.4 7.8V1.73333H37.2666C38.7025 1.73333 39.8666 2.89749 39.8666 4.33333V42.4667C39.8666 43.9025 38.7025 45.0667 37.2666 45.0667H9.53328C8.09744 45.0667 6.93328 43.9025 6.93328 42.4667ZM45.0666 47.6667C45.0666 49.1025 43.9025 50.2667 42.4666 50.2667H14.7333C13.2974 50.2667 12.1333 49.1025 12.1333 47.6667V46.8H37.2666C39.6588 46.797 41.597 44.8589 41.5999 42.4667V6.93333H42.4666C43.9025 6.93333 45.0666 8.09749 45.0666 9.53333V47.6667Z" fill="#362758"/>
<path d="M19.0069 8.36725C18.8821 8.02871 18.5609 7.80231 18.1999 7.79977H11.2666C10.788 7.79977 10.3999 8.18783 10.3999 8.66644V15.5998C10.3999 16.0784 10.788 16.4664 11.2666 16.4664H18.1999C18.6785 16.4664 19.0666 16.0784 19.0666 15.5998V10.7586L21.4127 8.41253L20.1871 7.18701L19.0069 8.36725ZM17.3332 14.7331H12.1332V9.53311H17.3332V10.0409L15.5999 11.7743L14.4793 10.6537L13.2538 11.8792L14.9871 13.6125C15.3257 13.9507 15.8741 13.9507 16.2127 13.6125L17.3332 12.492V14.7331Z" fill="#362758"/>
<path d="M20.1871 19.3208L19.0069 20.501C18.8821 20.1625 18.5609 19.9361 18.1999 19.9336H11.2666C10.788 19.9336 10.3999 20.3216 10.3999 20.8002V27.7336C10.3999 28.2122 10.788 28.6002 11.2666 28.6002H18.1999C18.6785 28.6002 19.0666 28.2122 19.0666 27.7336V22.8924L21.4127 20.5463L20.1871 19.3208ZM17.3332 26.8669H12.1332V21.6669H17.3332V22.1747L15.5999 23.908L14.4793 22.7875L13.2538 24.013L14.9871 25.7463C15.3257 26.0844 15.8741 26.0844 16.2127 25.7463L17.3332 24.6257V26.8669Z" fill="#362758"/>
<path d="M18.1999 31.2002H11.2666C10.788 31.2002 10.3999 31.5882 10.3999 32.0669V39.0002C10.3999 39.4788 10.788 39.8669 11.2666 39.8669H18.1999C18.6785 39.8669 19.0666 39.4788 19.0666 39.0002V32.0669C19.0666 31.5882 18.6785 31.2002 18.1999 31.2002ZM17.3332 38.1335H12.1332V32.9335H17.3332V38.1335Z" fill="#362758"/>
<path d="M22.5334 13H31.2001V14.7333H22.5334V13Z" fill="#362758"/>
<path d="M22.5334 9.5332H27.7334V11.2665H22.5334V9.5332Z" fill="#362758"/>
<path d="M22.5334 25.1333H31.2001V26.8666H22.5334V25.1333Z" fill="#362758"/>
<path d="M22.5334 21.6665H27.7334V23.3998H22.5334V21.6665Z" fill="#362758"/>
<path d="M22.5334 36.3999H31.2001V38.1332H22.5334V36.3999Z" fill="#362758"/>
<path d="M22.5334 32.9331H27.7334V34.6664H22.5334V32.9331Z" fill="#362758"/>
<path d="M29.4666 32.9331H31.1999V34.6664H29.4666V32.9331Z" fill="#362758"/>
</svg>
