<svg width="50" height="50" viewBox="0 0 50 50" fill="none" xmlns="http://www.w3.org/2000/svg">
<g clip-path="url(#clip0)">
<path d="M48.7806 45.1213H44.4741V17.633C44.4741 16.9606 43.9271 16.4136 43.2547 16.4136H40.4724C40.0683 16.4136 39.7407 16.7411 39.7407 17.1452C39.7407 17.5493 40.0683 17.8769 40.4724 17.8769H43.0108V45.1213H36.0609V17.8769H37.0319C37.436 17.8769 37.7636 17.5493 37.7636 17.1452C37.7636 16.7411 37.436 16.4136 37.0319 16.4136H35.8171C35.1447 16.4136 34.5977 16.9606 34.5977 17.633V45.1214H29.9384V26.8961C29.9384 26.2237 29.3913 25.6767 28.7189 25.6767H21.2812C20.6089 25.6767 20.0618 26.2237 20.0618 26.8961V45.1213H15.4024V34.8983C15.4024 34.226 14.8554 33.6789 14.183 33.6789H6.74541C6.07305 33.6789 5.52598 34.226 5.52598 34.8983V38.1703C5.52598 38.5744 5.85352 38.902 6.25762 38.902C6.66172 38.902 6.98926 38.5744 6.98926 38.1703V35.1423H13.9391V45.1214H6.98926V41.5728C6.98926 41.1687 6.66172 40.8411 6.25762 40.8411C5.85352 40.8411 5.52598 41.1687 5.52598 41.5728V45.1214H1.21943C0.54707 45.1213 0 45.6684 0 46.3408V48.6739C0 49.3463 0.54707 49.8934 1.21943 49.8934H48.7806C49.4529 49.8934 50 49.3463 50 48.6739V46.3408C50 45.6684 49.4529 45.1213 48.7806 45.1213ZM21.5251 27.14H28.475V45.1214H21.5251V27.14ZM48.5366 48.4301H1.46338V46.5848H6.25772H14.6709H20.7936H29.2067H35.3293H43.7425H48.5367V48.4301H48.5366Z" fill="#362758"/>
<path d="M6.0787 26.8997L5.66015 29.34C5.54345 30.0205 5.81796 30.6952 6.37646 31.101C6.69208 31.3303 7.06132 31.4469 7.433 31.4469C7.71913 31.4469 8.00673 31.3777 8.27255 31.2381L10.4641 30.0859L12.6556 31.2381C13.2665 31.5593 13.993 31.5067 14.5517 31.1011C15.1101 30.6952 15.3847 30.0204 15.268 29.34L14.8494 26.8997L16.6224 25.1715C17.1167 24.6896 17.2913 23.9824 17.078 23.3259C16.8646 22.6692 16.3078 22.1997 15.6246 22.1004L13.1744 21.7443L12.0787 19.5241C11.7731 18.905 11.1545 18.5205 10.4641 18.5205C9.77372 18.5205 9.15507 18.9051 8.8496 19.5241L7.7539 21.7443L5.3036 22.1004C4.6204 22.1997 4.06356 22.6691 3.85019 23.3259C3.6369 23.9825 3.81142 24.6896 4.30575 25.1714L6.0787 26.8997ZM5.24188 23.778C5.26142 23.7181 5.32685 23.5758 5.51405 23.5485L8.07616 23.1762C8.4827 23.1173 8.83397 22.862 9.01591 22.4935L10.1618 20.1718C10.2455 20.0021 10.4011 19.9838 10.4641 19.9838C10.527 19.9838 10.6826 20.002 10.7664 20.1718L11.9123 22.4935C12.0941 22.8619 12.4454 23.1172 12.8518 23.1762L15.4142 23.5485C15.6014 23.5758 15.6668 23.7181 15.6863 23.778C15.7058 23.838 15.7365 23.9916 15.601 24.1235L13.7471 25.9307C13.4527 26.2174 13.3185 26.6305 13.3881 27.0353L13.8258 29.5873C13.8577 29.7737 13.7426 29.8801 13.6916 29.9171C13.6405 29.9541 13.5038 30.0308 13.3366 29.9427L11.0448 28.7378C10.863 28.6422 10.6635 28.5944 10.4641 28.5944C10.2646 28.5944 10.0651 28.6423 9.88329 28.7378L7.59149 29.9427C7.42401 30.0307 7.28749 29.9541 7.23651 29.9171C7.18554 29.88 7.0704 29.7737 7.10233 29.5873L7.54003 27.0354C7.60956 26.6305 7.47528 26.2175 7.18124 25.9308L5.32714 24.1236C5.19169 23.9916 5.22235 23.838 5.24188 23.778Z" fill="#362758"/>
<path d="M20.6145 17.9974L20.1959 20.4378C20.0792 21.1182 20.3537 21.7929 20.9122 22.1986C21.2278 22.4279 21.597 22.5444 21.9688 22.5444C22.2549 22.5444 22.5425 22.4754 22.8083 22.3357L24.9998 21.1836L27.1913 22.3357C27.8024 22.6571 28.5289 22.6045 29.0876 22.1986C29.6461 21.7929 29.9205 21.1181 29.8038 20.4378L29.3852 17.9974L31.1582 16.2691C31.6526 15.7873 31.8271 15.0801 31.6138 14.4235C31.4005 13.7669 30.8436 13.2975 30.1603 13.1981L27.7102 12.8421L26.6144 10.6218C26.3088 10.0027 25.6902 9.61816 24.9998 9.61816C24.3095 9.61816 23.6909 10.0027 23.3853 10.6218L22.2896 12.8421L19.8393 13.1981C19.1562 13.2975 18.5993 13.7669 18.3859 14.4235C18.1725 15.08 18.347 15.7873 18.8415 16.2692L20.6145 17.9974ZM19.7776 14.8757C19.7971 14.8157 19.8625 14.6735 20.0498 14.6463L22.6123 14.2739C23.0187 14.2147 23.3698 13.9597 23.5516 13.5913L24.6975 11.2694C24.7812 11.0998 24.9368 11.0815 24.9997 11.0815C25.0627 11.0815 25.2183 11.0998 25.302 11.2694L26.4481 13.5916C26.6298 13.9598 26.981 14.2147 27.3875 14.2739L29.9498 14.6463C30.137 14.6735 30.2025 14.8159 30.222 14.8758C30.2414 14.9357 30.2721 15.0893 30.1367 15.2213L28.2826 17.0286C27.9885 17.3153 27.8544 17.7281 27.9238 18.1331L28.3615 20.6851C28.3934 20.8715 28.2783 20.9777 28.2273 21.0147C28.1763 21.0517 28.0396 21.1286 27.8722 21.0403L25.5805 19.8355C25.3988 19.7399 25.1993 19.6921 24.9997 19.6921C24.8003 19.6921 24.6008 19.7399 24.419 19.8355L22.1272 21.0403C21.9596 21.1285 21.8231 21.0517 21.7722 21.0147C21.7212 20.9777 21.6062 20.8715 21.6381 20.6851L22.0758 18.1331C22.1453 17.7283 22.0112 17.3154 21.7169 17.0285L19.8628 15.2214C19.7275 15.0893 19.7582 14.9357 19.7776 14.8757Z" fill="#362758"/>
<path d="M35.1503 8.48613L34.7318 10.9265C34.615 11.6068 34.8895 12.2816 35.448 12.6874C36.0066 13.0932 36.7329 13.1456 37.3442 12.8245L39.5357 11.6724L41.7272 12.8245C41.993 12.9642 42.2806 13.0332 42.5668 13.0332C42.9386 13.0332 43.3079 12.9167 43.6234 12.6874C44.182 12.2816 44.4564 11.6068 44.3396 10.9265L43.921 8.48613L45.694 6.75791C46.1884 6.27607 46.3629 5.56885 46.1496 4.9124C45.9364 4.25576 45.3794 3.78623 44.6962 3.68691L42.246 3.33076L41.1502 1.11055C40.8447 0.491504 40.226 0.106934 39.5357 0.106934C38.8454 0.106934 38.2267 0.491504 37.9211 1.11055L36.8253 3.33076L34.3752 3.68691C33.692 3.78613 33.1351 4.25566 32.9217 4.9123C32.7084 5.56875 32.883 6.27607 33.3773 6.75791L35.1503 8.48613ZM34.3135 5.36455C34.333 5.30459 34.3984 5.1623 34.5857 5.13506L37.1477 4.7627C37.5545 4.70371 37.9059 4.44853 38.0875 4.08008L39.2334 1.7583C39.3172 1.58867 39.4728 1.57041 39.5357 1.57041C39.5986 1.57041 39.7543 1.58867 39.8379 1.7583L40.9839 4.08018C41.1658 4.44854 41.5171 4.70381 41.9234 4.7627L44.4858 5.13506C44.673 5.1623 44.7385 5.30469 44.7579 5.36455C44.7774 5.42451 44.808 5.57803 44.6726 5.71006L42.8184 7.51748C42.5245 7.8042 42.3903 8.21699 42.4596 8.62197L42.8973 11.1738C42.9292 11.3604 42.8141 11.4666 42.7631 11.5036C42.7122 11.5407 42.5755 11.6174 42.408 11.5292L40.1163 10.3244C39.9345 10.2288 39.735 10.181 39.5356 10.181C39.3361 10.181 39.1367 10.2288 38.9549 10.3243L36.6631 11.5292C36.4957 11.6174 36.359 11.5405 36.308 11.5036C36.2571 11.4665 36.142 11.3604 36.1739 11.1738L36.6116 8.62217C36.6811 8.21729 36.547 7.80439 36.2528 7.51738L34.3987 5.71006C34.2632 5.57803 34.294 5.42441 34.3135 5.36455Z" fill="#362758"/>
</g>
<defs>
<clipPath id="clip0">
<rect width="50" height="50" fill="white"/>
</clipPath>
</defs>
</svg>
