<svg width="32" height="29" viewBox="0 0 32 29" fill="none" xmlns="http://www.w3.org/2000/svg">
<path d="M25.6115 13.3757C27.9671 13.3757 29.7404 12.4231 31.048 10.7646L29.3004 9.47026C28.8687 10.0225 28.3108 10.4699 27.6707 10.7772C27.0305 11.0844 26.3256 11.2432 25.6115 11.2409C23.0551 11.2409 21.2026 9.21914 21.2026 6.73833C21.2026 4.25753 23.0248 2.1219 25.6844 2.1219C26.8666 2.1219 27.7022 2.39283 28.4311 2.83118V5.01255H30.6302V1.83197L30.2088 1.51009C29 0.586801 27.1537 0.0966797 25.6106 0.0966797C21.8382 0.0966797 18.7697 3.07539 18.7697 6.73749C18.7697 10.3961 21.8364 13.3757 25.6106 13.3757H25.6115ZM30.1742 26.4744L30.096 23.4171V15.9566H25.5093V18.0923H27.7795V23.154C27.7795 25.3345 26.064 26.8782 24.3333 26.8782C22.6026 26.8782 21.6995 25.7133 21.6995 23.5336V15.9557H17.4151V18.0914H19.3831V23.9038C19.3831 26.8618 21.0915 28.8999 24.1386 28.8999C25.8897 28.8999 27.2231 27.9568 28.0186 26.5028H28.0542L28.368 28.5358H31.8924V26.4769H30.1768V26.4726L30.1742 26.4744ZM18.2631 0.409914H14.4408L11.1164 9.78088H11.0648L7.75818 0.409914H3.68529V2.54641H5.97595L9.91818 13.2273H12.0124V13.2247L16.1235 2.54728H18.2613V0.410783L18.2631 0.409914ZM0.108398 28.5634H2.37329V26.3656H0.109287V28.5634H0.108398ZM8.85507 18.4331H8.83018L8.68795 15.9566H4.64529V17.9033H6.7964V26.4752H4.64529V28.5349H14.6364V26.5158H9.07373V21.3428C9.32529 19.4703 10.7715 17.8713 12.7448 17.8713H12.7804L12.7404 19.7852H14.9395V15.9212H13.2008C11.2097 15.916 9.7324 16.9619 8.85418 18.434L8.85507 18.4331Z" fill="white"/>
</svg>
