<svg width="143" height="21" viewBox="0 0 143 21" fill="none" xmlns="http://www.w3.org/2000/svg">
<path fill-rule="evenodd" clip-rule="evenodd" d="M21 8.75904V14.3976C21 18.0361 18.0344 21 14.3938 21H6.63031C2.96556 21 0 18.0361 0 14.3976V8.75904H4.62916V14.3976C4.62916 16.1084 6.02755 17.506 7.73938 17.506H13.2606C14.9724 17.506 16.3708 16.1084 16.3708 14.3976V8.75904H21ZM8.99311 7H12.031C12.5132 7 12.9231 7.38554 12.9231 7.89157V13.1205C12.9231 13.6024 12.5373 14.012 12.031 14.012H8.99311C8.51091 14.012 8.10103 13.6265 8.10103 13.1205V7.89157C8.10103 7.40964 8.51091 7 8.99311 7Z" fill="#4285F4"/>
<path fill-rule="evenodd" clip-rule="evenodd" d="M16.4581 0.298165C18.7291 0.986238 20.4872 2.77523 21 5H16.4581V0.298165ZM6.5686 0H12.9419V3.32569H7.69186C6.44651 3.32569 5.37209 4.01376 4.8593 5H0C0.634884 2.15596 3.34535 0 6.5686 0Z" fill="#3CB9FF"/>
<path d="M89.8146 10.9284V5.78684H92.9149V10.9644C92.9149 13.4093 93.3161 13.661 95.2492 13.661H97.2188V16.1778H94.8845C91.4559 16.1778 89.8146 14.9554 89.8146 10.9284ZM82.5562 12.079C82.7021 13.5172 83.2492 13.661 84.8541 13.661H87.9909V16.1778H84.4894C81.0973 16.1778 79.4194 14.9554 79.4194 10.8925C79.4194 6.82954 81.0608 5.75089 84.4894 5.75089H87.9909V8.26774H84.8541C83.3587 8.26774 82.7751 8.37561 82.5927 9.59808H86.8967V12.043H82.5562V12.079ZM67.8936 5.78684V16.1778H72.6717C76.0638 16.1778 77.7416 14.9554 77.7416 10.8925C77.7416 6.82954 76.1003 5.75089 72.6717 5.75089H67.8936V5.78684ZM74.6778 10.9644C74.6778 13.4093 74.2766 13.661 72.3435 13.661H70.848V8.30369H72.3435C74.2401 8.30369 74.6778 8.48347 74.6778 10.9644ZM103.748 5.53516C107.14 5.53516 109 6.64976 109 10.8565C109 15.1352 107.176 16.3936 103.748 16.3936C100.319 16.3936 98.4954 15.1352 98.4954 10.8565C98.4954 6.64976 100.319 5.53516 103.748 5.53516ZM103.748 13.7689C105.681 13.7689 105.9 13.5172 105.9 10.8565C105.9 8.37561 105.681 8.15987 103.748 8.15987C101.778 8.15987 101.596 8.37561 101.596 10.8565C101.559 13.5172 101.778 13.7689 103.748 13.7689Z" fill="#4285F4"/>
<path d="M49.7295 12.0786C49.8754 13.5168 50.4225 13.6606 52.0274 13.6606H55.1641V16.1775H51.6626C48.2705 16.1775 46.5927 14.955 46.5927 10.8921C46.5927 6.82914 48.234 5.75049 51.6626 5.75049H55.1641V8.26734H52.0274C50.5319 8.26734 49.9483 8.37521 49.766 9.59768H54.0699V12.0426H49.7295V12.0786ZM36.4164 16.1775C33.0243 16.1775 31.3465 14.955 31.3465 10.8921V5.78644H34.4468V10.964C34.4468 13.373 34.848 13.6606 36.7082 13.6606V5.78644H39.5897V13.6606C41.4863 13.6606 41.8875 13.373 41.8875 10.964V5.78644H44.9878V10.928C44.9878 14.9909 43.3465 16.2134 39.9179 16.2134C38.7872 16.1775 37.6201 16.1775 36.4164 16.1775ZM59.8693 8.19543H62.3495C62.6049 8.19543 62.7872 8.33925 62.7872 8.95049C62.7872 9.59768 62.6049 9.66959 62.3495 9.66959H59.8693V8.19543ZM59.8693 13.7325V11.9707H62.3495C62.7143 11.9707 62.9696 12.1505 62.9696 12.8696C62.9696 13.5527 62.7508 13.7325 62.4225 13.7325H59.8693ZM63.6261 10.7482C65.5228 10.6044 65.924 9.77745 65.924 8.3033C65.924 6.5415 65.3769 5.78644 63.2614 5.78644H56.9878V16.1775H63.2614C64.9757 16.1775 66.1064 15.5303 66.1064 13.4089C66.0699 11.719 65.6322 10.8561 63.6261 10.7482Z" fill="#4285F4"/>
<path d="M125.438 10.6895H128.25V15.4355C127.699 16.0098 127.061 16.4609 126.334 16.7891C125.619 17.1055 124.822 17.2637 123.943 17.2637C123.146 17.2637 122.373 17.1289 121.623 16.8594C120.885 16.5781 120.217 16.1738 119.619 15.6465C119.033 15.1191 118.564 14.4746 118.213 13.7129C117.873 12.9512 117.703 12.084 117.703 11.1113C117.703 10.1387 117.873 9.27148 118.213 8.50977C118.564 7.74805 119.033 7.10352 119.619 6.57617C120.217 6.04883 120.885 5.65039 121.623 5.38086C122.373 5.09961 123.146 4.95898 123.943 4.95898C124.564 4.95898 125.139 5.04688 125.666 5.22266C126.193 5.39844 126.656 5.65625 127.055 5.99609V9.17773C126.586 8.80273 126.141 8.52148 125.719 8.33398C125.297 8.13477 124.746 8.03516 124.066 8.03516C123.539 8.03516 123.047 8.16992 122.59 8.43945C122.145 8.70898 121.781 9.07812 121.5 9.54688C121.219 10.0039 121.078 10.5254 121.078 11.1113C121.078 11.6973 121.219 12.2246 121.5 12.6934C121.781 13.1504 122.145 13.5137 122.59 13.7832C123.047 14.0527 123.539 14.1875 124.066 14.1875C124.336 14.1875 124.588 14.1641 124.822 14.1172C125.057 14.0586 125.256 13.9883 125.42 13.9062L125.438 10.6895Z" fill="#3BB9FF"/>
<path d="M136.213 4.95898C137.01 4.95898 137.771 5.09961 138.498 5.38086C139.236 5.65039 139.893 6.04883 140.467 6.57617C141.041 7.10352 141.492 7.74805 141.82 8.50977C142.16 9.27148 142.33 10.1387 142.33 11.1113C142.33 12.084 142.16 12.9512 141.82 13.7129C141.492 14.4746 141.041 15.1191 140.467 15.6465C139.893 16.1738 139.236 16.5781 138.498 16.8594C137.771 17.1289 137.01 17.2637 136.213 17.2637C135.416 17.2637 134.648 17.1289 133.91 16.8594C133.184 16.5781 132.533 16.1738 131.959 15.6465C131.385 15.1191 130.928 14.4746 130.588 13.7129C130.26 12.9512 130.096 12.084 130.096 11.1113C130.096 10.1387 130.26 9.27148 130.588 8.50977C130.928 7.74805 131.385 7.10352 131.959 6.57617C132.533 6.04883 133.184 5.65039 133.91 5.38086C134.648 5.09961 135.416 4.95898 136.213 4.95898ZM136.213 8.03516C135.686 8.03516 135.217 8.16992 134.807 8.43945C134.396 8.70898 134.068 9.07812 133.822 9.54688C133.588 10.0039 133.471 10.5254 133.471 11.1113C133.471 11.6973 133.588 12.2246 133.822 12.6934C134.068 13.1504 134.396 13.5137 134.807 13.7832C135.217 14.0527 135.686 14.1875 136.213 14.1875C136.74 14.1875 137.209 14.0527 137.619 13.7832C138.041 13.5137 138.369 13.1504 138.604 12.6934C138.838 12.2246 138.955 11.6973 138.955 11.1113C138.955 10.5254 138.838 10.0039 138.604 9.54688C138.369 9.07812 138.041 8.70898 137.619 8.43945C137.209 8.16992 136.74 8.03516 136.213 8.03516Z" fill="#3BB9FF"/>
</svg>
