<svg width="120" height="27" viewBox="0 0 120 27" fill="none" xmlns="http://www.w3.org/2000/svg">
<path d="M0.733082 8.87521C0.733082 11.5892 1.80151 13.0553 3.39245 13.8664L0 21.2908H2.25384L5.34214 14.3499H6.96428V21.2908H8.91396V3.18213H6.00503C3.14289 3.18213 0.733082 5.06942 0.733082 8.87521ZM6.96428 12.7278H5.92704C4.22692 12.7278 2.83874 11.7919 2.83874 8.87521C2.83874 5.8649 4.3595 4.81986 5.92704 4.81986H6.96428V12.7278ZM16.3618 13.9444H13.4138V8.52427H11.4408V21.2908H13.4138V15.5665H16.354V21.2908H18.3036V8.52427H16.354V13.9444H16.3618ZM46.0906 8.52427H44.0941L41.0214 14.4279V8.52427H39.0405V21.2908H41.0214V14.927L44.3904 21.2908H46.5429L42.9165 14.5293L46.0828 8.52427H46.0906ZM27.4516 8.52427H21.5245V9.61609C21.5245 13.0085 21.3997 16.9547 20.2377 19.6687H19.4501V23.802H21.2204V21.2908H26.6951V23.7942H28.4654V19.6609H27.4516V8.53207V8.52427ZM25.5019 19.6687H22.1094C23.1701 16.9547 23.2948 13.0319 23.2948 10.3492V10.1152H25.5019V19.6687ZM53.3824 19.0292C52.7854 19.5461 52.0196 19.8264 51.2299 19.8168C49.639 19.8168 48.8747 17.9919 48.8747 14.8023C48.8747 11.5892 49.8885 9.99043 51.3079 9.99043C52.0878 10.0372 52.8365 10.3492 53.4136 10.8795L53.6865 9.00779C52.9895 8.54725 52.1662 8.31553 51.3313 8.3449C48.3444 8.3449 46.8002 10.9029 46.8002 14.9036C46.8002 19.2631 48.4458 21.4624 51.1831 21.4624C52.158 21.4936 53.1094 21.1504 53.8347 20.5031L53.3824 19.037V19.0292ZM34.0805 19.7701C32.5208 19.7701 31.7097 18.2493 31.7097 15.3638H37.0206V14.2719C37.0206 9.94364 35.6325 8.3449 33.5112 8.3449C30.7972 8.3449 29.6586 11.3318 29.6586 15.4418C29.6586 19.3645 31.273 21.4624 33.9089 21.4624C35.0437 21.4817 36.1515 21.1161 37.0518 20.4251L36.5917 18.9044C35.8641 19.4387 34.9907 19.7381 34.0883 19.7623L34.0805 19.7701ZM33.5034 9.96703C34.642 9.96703 35.0008 11.5658 35.0008 13.7416H31.7253C31.8579 11.4644 32.2868 9.96703 33.5034 9.96703Z" fill="black"/>
<g clip-path="url(#clip0)">
<path fill-rule="evenodd" clip-rule="evenodd" d="M77.7375 15.1125C75.8125 17.0988 75.6725 19.575 75.5062 25C80.5637 25 84.055 24.9825 85.8575 23.2325C87.6075 21.43 87.625 17.7725 87.625 12.8812C82.2 13.0562 79.7238 13.1875 77.7375 15.1125ZM63.125 12.8812C63.125 17.7725 63.1425 21.43 64.8925 23.2325C66.695 24.9825 70.1863 25 75.2438 25C75.0688 19.575 74.9375 17.0988 73.0125 15.1125C71.0263 13.1875 68.55 13.0475 63.125 12.8812ZM75.2438 0.5C70.195 0.5 66.695 0.5175 64.8925 2.2675C63.1425 4.07 63.125 7.7275 63.125 12.6188C68.55 12.4438 71.0263 12.3125 73.0125 10.3875C74.9375 8.40125 75.0775 5.925 75.2438 0.5ZM77.7375 10.3875C75.8125 8.40125 75.6725 5.925 75.5062 0.5C80.5637 0.5 84.055 0.5175 85.8575 2.2675C87.6075 4.07 87.625 7.7275 87.625 12.6188C82.2 12.4438 79.7238 12.3125 77.7375 10.3875Z" fill="black"/>
<path fill-rule="evenodd" clip-rule="evenodd" d="M87.625 12.8812V12.6188C82.2 12.4438 79.7238 12.3125 77.7375 10.3875C75.8125 8.40125 75.6725 5.925 75.5062 0.5H75.2438C75.0688 5.925 74.9375 8.40125 73.0125 10.3875C71.0263 12.3125 68.55 12.4525 63.125 12.6188V12.8812C68.55 13.0562 71.0263 13.1875 73.0125 15.1125C74.9375 17.0988 75.0775 19.575 75.2438 25H75.5062C75.6812 19.575 75.8125 17.0988 77.7375 15.1125C79.7238 13.1875 82.2 13.0475 87.625 12.8812Z" fill="white"/>
</g>
<g clip-path="url(#clip1)">
<path d="M103.261 21.5001V20.5639H97.8275L103.261 6.07389V5.23389H96.9612V6.17014H102.08L96.6462 20.6601V21.5001H103.261ZM105.335 15.9526H110.524C110.891 11.8751 109.614 9.81014 107.636 9.81014C105.702 9.81014 104.294 12.0151 104.294 15.7601C104.294 19.5226 105.405 21.7276 107.837 21.7276C109.657 21.7276 110.524 20.4326 110.524 20.4326L110.182 19.5664C110.182 19.5664 109.386 20.7914 107.864 20.7914C106.201 20.7914 105.379 19.0851 105.335 15.9526ZM107.636 10.6939C108.791 10.6939 109.701 12.0589 109.526 15.1039H105.361C105.449 12.2426 106.429 10.6939 107.636 10.6939ZM116.185 10.7201C117.235 10.7201 117.734 11.3501 117.734 12.7151V21.5001H118.801V12.5751C118.801 10.7639 117.917 9.81014 116.395 9.81014C114.846 9.81014 113.936 11.0789 113.612 11.9189H113.569L113.525 10.0376H112.545V21.5001H113.612V13.1264C114.181 11.6739 115.047 10.7201 116.185 10.7201Z" fill="black"/>
</g>
<defs>
<clipPath id="clip0">
<rect width="24.5" height="24.5" fill="white" transform="translate(63.125 0.5)"/>
</clipPath>
<clipPath id="clip1">
<rect width="23.625" height="24.5" fill="white" transform="translate(96.375 0.5)"/>
</clipPath>
</defs>
</svg>
