<svg width="243" height="30" viewBox="0 0 243 30" fill="none" xmlns="http://www.w3.org/2000/svg">
<g clip-path="url(#clip0)">
<path d="M16.7688 19.5197C16.3699 20.142 15.6007 20.6518 14.8316 20.6518C13.6922 20.6518 13.1513 19.5759 13.1513 17.934C13.1513 16.0947 13.7497 14.8777 16.5119 14.8777H16.7688V19.5197ZM18.9613 19.0947V12.3867C18.9613 8.93398 17.5668 7.85809 15.0311 7.85809C13.579 7.85809 12.268 8.45273 11.613 8.99023L12.0407 10.9438C12.7811 10.292 13.7497 9.69827 14.8891 9.69827C16.1426 9.69827 16.7688 10.4902 16.7688 12.359V13.2072H16.4553C12.4387 13.2072 10.8726 15.1322 10.8726 18.1893C10.8726 20.9911 12.268 22.5197 14.3194 22.5197C15.5729 22.5197 16.3699 21.9822 16.9971 21.1893H17.1391C17.1678 21.5572 17.2532 22.0108 17.3385 22.3215H19.2183C19.0476 21.2543 18.962 20.1753 18.9622 19.0947H18.9613ZM23.9465 11.2554C24.4586 10.5474 25.2575 9.83934 26.1973 9.83934C27.051 9.83934 27.5362 10.2072 27.5362 11.2831V22.3215H29.7861V11.0849C29.7861 8.9063 28.7888 7.85809 26.909 7.85809C25.5702 7.85809 24.4883 8.73577 24.0893 9.27327H23.9465V8.02773H21.7253V22.3215H23.9465V11.2545V11.2554ZM36.3375 22.5197C37.5056 22.5197 38.3026 21.9822 38.9298 21.1893H39.0718L39.2425 22.3215H40.8949V2.08398H38.6728V8.39648C38.246 8.08398 37.5335 7.85809 36.8497 7.85809C33.9734 7.85809 31.9795 10.434 31.9795 15.7268C31.9795 20.142 33.5178 22.5197 36.3375 22.5197ZM38.6737 19.5474C38.3026 20.1134 37.7042 20.6518 36.5936 20.6518C34.9699 20.6518 34.3436 18.6134 34.3436 15.2742C34.3436 12.359 35.1972 9.6697 36.9925 9.6697C37.7329 9.6697 38.2173 9.89648 38.6728 10.3483V19.5474H38.6737ZM51.3487 21.3599L50.8365 19.6608C50.2659 20.0572 49.3539 20.6233 48.1013 20.6233C46.3357 20.6233 45.4236 18.9251 45.4236 15.6983H51.4053V14.4822C51.4053 9.64291 49.8391 7.85898 47.4463 7.85898C44.3984 7.85898 43.1162 11.1983 43.1162 15.784C43.1162 20.1715 44.9402 22.5206 47.9018 22.5206C49.326 22.5206 50.4366 22.0679 51.3487 21.3599ZM47.4463 9.6697C48.7276 9.6697 49.1266 11.4527 49.1266 13.8867H45.4515C45.5953 11.3393 46.0787 9.6697 47.4463 9.6697ZM58.8965 8.0563L56.9314 13.2358L55.0804 8.0572H52.772L55.4775 14.934L52.488 22.3215H54.6805L56.846 16.434L59.0672 22.3215H61.3747L58.3843 14.7358L61.062 8.0572H58.8965V8.0563Z" fill="black"/>
<path d="M7.21086 22.3215V15.1608L12.5087 -0.00976562H10.2587L6.12811 12.1036L2.53929 2.08398H0.0898438L4.95999 15.0751V22.3215H7.21086Z" fill="#FF0000"/>
</g>
<path d="M169.489 11.555V14.425H176.163C175.959 16.035 175.437 17.2133 174.642 18.0417C173.666 19.045 172.145 20.1417 169.489 20.1417C165.379 20.1417 162.167 16.735 162.167 12.5117C162.167 8.28833 165.379 4.88167 169.489 4.88167C171.702 4.88167 173.325 5.78 174.517 6.935L176.481 4.91667C174.824 3.26 172.599 2 169.489 2C163.858 2 159.125 6.71333 159.125 12.5C159.125 18.2867 163.858 23 169.489 23C172.531 23 174.824 21.9733 176.617 20.06C178.456 18.17 179.035 15.4983 179.035 13.3517C179.035 12.6867 178.99 12.0683 178.888 11.555H169.489Z" fill="#4285F4"/>
<path d="M187.378 9.22168C183.735 9.22168 180.76 12.0683 180.76 16C180.76 19.8967 183.735 22.7784 187.378 22.7784C191.022 22.7784 193.996 19.9084 193.996 16C193.996 12.0683 191.022 9.22168 187.378 9.22168ZM187.378 20.1067C185.38 20.1067 183.655 18.415 183.655 16C183.655 13.5617 185.38 11.8933 187.378 11.8933C189.376 11.8933 191.102 13.5617 191.102 16C191.102 18.415 189.376 20.1067 187.378 20.1067Z" fill="#EA4335"/>
<path d="M219.821 10.7383H219.718C219.071 9.94501 217.823 9.22168 216.245 9.22168C212.953 9.22168 210.081 12.1733 210.081 16C210.081 19.8034 212.953 22.7784 216.245 22.7784C217.823 22.7784 219.071 22.055 219.718 21.2384H219.821V22.1834C219.821 24.7734 218.47 26.1617 216.302 26.1617C214.531 26.1617 213.43 24.855 212.976 23.7467L210.456 24.82C211.182 26.6167 213.101 28.8217 216.302 28.8217C219.696 28.8217 222.568 26.7684 222.568 21.7634V9.57168H219.821V10.7383ZM216.495 20.1067C214.497 20.1067 212.976 18.3567 212.976 16C212.976 13.6083 214.497 11.8933 216.495 11.8933C218.47 11.8933 220.013 13.6433 220.013 16.0234C220.025 18.3917 218.47 20.1067 216.495 20.1067Z" fill="#4285F4"/>
<path d="M202.135 9.22168C198.491 9.22168 195.517 12.0683 195.517 16C195.517 19.8967 198.491 22.7784 202.135 22.7784C205.779 22.7784 208.753 19.9084 208.753 16C208.753 12.0683 205.779 9.22168 202.135 9.22168ZM202.135 20.1067C200.137 20.1067 198.412 18.415 198.412 16C198.412 13.5617 200.137 11.8933 202.135 11.8933C204.133 11.8933 205.858 13.5617 205.858 16C205.858 18.415 204.133 20.1067 202.135 20.1067Z" fill="#FBBC05"/>
<path d="M224.838 2.27979H227.687V22.7781H224.838V2.27979Z" fill="#34A853"/>
<path d="M236.484 20.1067C235.009 20.1067 233.964 19.4184 233.283 18.0534L242.103 14.3083L241.808 13.5383C241.263 12.0217 239.583 9.22168 236.166 9.22168C232.772 9.22168 229.946 11.9633 229.946 16C229.946 19.8034 232.738 22.7784 236.484 22.7784C239.504 22.7784 241.252 20.8767 241.978 19.78L239.731 18.24C238.982 19.36 237.96 20.1067 236.484 20.1067ZM236.28 11.765C237.449 11.765 238.448 12.3833 238.777 13.2583L232.818 15.79C232.818 12.9433 234.782 11.765 236.28 11.765Z" fill="#EA4335"/>
<line x1="104" y1="15.5" x2="125" y2="15.5" stroke="#CD20AF"/>
<defs>
<clipPath id="clip0">
<rect width="62" height="25" fill="white"/>
</clipPath>
</defs>
</svg>
