<svg width="226" height="31" viewBox="0 0 226 31" fill="none" xmlns="http://www.w3.org/2000/svg">
<g clip-path="url(#clip0)">
<path d="M49.0094 21.862C48.5654 22.559 47.7094 23.13 46.8534 23.13C45.5854 23.13 44.9834 21.925 44.9834 20.086C44.9834 18.026 45.6494 16.663 48.7234 16.663H49.0094V21.862ZM51.4494 21.386V13.873C51.4494 10.006 49.8974 8.80098 47.0754 8.80098C45.4594 8.80098 44.0004 9.46698 43.2714 10.069L43.7474 12.257C44.5714 11.527 45.6494 10.862 46.9174 10.862C48.3124 10.862 49.0094 11.749 49.0094 13.842V14.792H48.6604C44.1904 14.792 42.4474 16.948 42.4474 20.372C42.4474 23.51 44.0004 25.222 46.2834 25.222C47.6784 25.222 48.5654 24.62 49.2634 23.732H49.4214C49.4534 24.144 49.5484 24.652 49.6434 25H51.7354C51.5454 23.8047 51.4501 22.5963 51.4504 21.386H51.4494ZM56.9974 12.606C57.5674 11.813 58.4564 11.02 59.5024 11.02C60.4524 11.02 60.9924 11.432 60.9924 12.637V25H63.4964V12.415C63.4964 9.97498 62.3864 8.80098 60.2944 8.80098C58.8044 8.80098 57.6004 9.78398 57.1564 10.386H56.9974V8.99098H54.5254V25H56.9974V12.605V12.606ZM70.7874 25.222C72.0874 25.222 72.9744 24.62 73.6724 23.732H73.8304L74.0204 25H75.8594V2.33398H73.3864V9.40398C72.9114 9.05398 72.1184 8.80098 71.3574 8.80098C68.1564 8.80098 65.9374 11.686 65.9374 17.614C65.9374 22.559 67.6494 25.222 70.7874 25.222ZM73.3874 21.893C72.9744 22.527 72.3084 23.13 71.0724 23.13C69.2654 23.13 68.5684 20.847 68.5684 17.107C68.5684 13.842 69.5184 10.83 71.5164 10.83C72.3404 10.83 72.8794 11.084 73.3864 11.59V21.893H73.3874ZM87.4934 23.923L86.9234 22.02C86.2884 22.464 85.2734 23.098 83.8794 23.098C81.9144 23.098 80.8994 21.196 80.8994 17.582H87.5564V16.22C87.5564 10.8 85.8134 8.80198 83.1504 8.80198C79.7584 8.80198 78.3314 12.542 78.3314 17.678C78.3314 22.592 80.3614 25.223 83.6574 25.223C85.2424 25.223 86.4784 24.716 87.4934 23.923ZM83.1504 10.83C84.5764 10.83 85.0204 12.827 85.0204 15.553H80.9304C81.0904 12.7 81.6284 10.83 83.1504 10.83ZM95.8934 9.02298L93.7064 14.824L91.6464 9.02398H89.0774L92.0884 16.726L88.7614 25H91.2014L93.6114 18.406L96.0834 25H98.6514L95.3234 16.504L98.3034 9.02398H95.8934V9.02298Z" fill="black"/>
<path d="M38.3724 25V16.98L44.2684 -0.0109863H41.7644L37.1674 13.556L33.1734 2.33401H30.4474L35.8674 16.884V25H38.3724Z" fill="#FF0000"/>
</g>
<path d="M115.489 19.9727L115.933 22.7148L116.492 20.0996L119.805 6.51562H121.1L124.363 20.0996L124.909 22.7402L125.391 19.9727L128.121 6.51562H129.593L125.658 25H124.287L120.821 10.5908L120.453 8.87695L120.097 10.5908L116.555 25H115.172L111.249 6.51562H112.734L115.489 19.9727ZM136.411 25.2539C134.794 25.2539 133.529 24.7249 132.615 23.667C131.701 22.609 131.235 21.1025 131.218 19.1475V17.4717C131.218 15.4574 131.659 13.8789 132.539 12.7363C133.419 11.5853 134.629 11.0098 136.17 11.0098C137.659 11.0098 138.793 11.4964 139.572 12.4697C140.359 13.443 140.761 14.9326 140.778 16.9385V18.2588H132.615V19.0332C132.615 20.6074 132.949 21.8219 133.618 22.6768C134.295 23.5316 135.247 23.959 136.474 23.959C137.828 23.959 138.924 23.4639 139.762 22.4736L140.499 23.4131C139.602 24.6403 138.239 25.2539 136.411 25.2539ZM136.17 12.3301C135.061 12.3301 134.206 12.7236 133.605 13.5107C133.013 14.2894 132.687 15.432 132.628 16.9385H139.369V16.5703C139.301 13.7435 138.235 12.3301 136.17 12.3301ZM153.169 18.7793C153.169 20.8952 152.796 22.5033 152.051 23.6035C151.315 24.7038 150.215 25.2539 148.751 25.2539C147.134 25.2539 145.937 24.5557 145.158 23.1592L145.094 25H143.787V5.5H145.183V13.1807C145.953 11.7334 147.134 11.0098 148.725 11.0098C150.206 11.0098 151.311 11.5345 152.039 12.584C152.767 13.625 153.143 15.1823 153.169 17.2559V18.7793ZM151.759 17.4971C151.759 15.7536 151.501 14.4629 150.985 13.625C150.469 12.7871 149.622 12.3682 148.446 12.3682C146.88 12.3682 145.793 13.1934 145.183 14.8438V21.6484C145.471 22.3678 145.894 22.9264 146.453 23.3242C147.011 23.7135 147.684 23.9082 148.471 23.9082C149.597 23.9082 150.422 23.502 150.947 22.6895C151.48 21.8685 151.751 20.5947 151.759 18.8682V17.4971ZM158.653 6.51562L164.252 22.7783L169.876 6.51562H171.793V25H170.345V16.9893L170.472 8.92773L164.81 25H163.693L158.056 9.00391L158.183 16.9385V25H156.736V6.51562H158.653ZM183.142 25C183.015 24.5599 182.931 23.9251 182.888 23.0957C182.465 23.7812 181.919 24.3145 181.251 24.6953C180.591 25.0677 179.871 25.2539 179.092 25.2539C177.908 25.2539 176.985 24.9196 176.325 24.251C175.665 23.5824 175.335 22.6302 175.335 21.3945C175.335 20.0488 175.792 18.9824 176.706 18.1953C177.628 17.4082 178.898 17.0104 180.514 17.002H182.876V15.085C182.876 14.1032 182.63 13.4007 182.139 12.9775C181.657 12.5459 180.946 12.3301 180.007 12.3301C179.135 12.3301 178.42 12.584 177.861 13.0918C177.302 13.5996 177.023 14.2555 177.023 15.0596L175.614 15.0469C175.614 13.9212 176.037 12.9691 176.883 12.1904C177.73 11.4033 178.792 11.0098 180.07 11.0098C181.45 11.0098 182.495 11.3568 183.206 12.0508C183.917 12.7448 184.272 13.7562 184.272 15.085V21.8262C184.272 23.1719 184.395 24.179 184.64 24.8477V25H183.142ZM179.27 23.8955C180.1 23.8955 180.832 23.6797 181.466 23.248C182.11 22.8164 182.579 22.2409 182.876 21.5215V18.1826H180.641C179.355 18.1995 178.386 18.4873 177.734 19.0459C177.082 19.596 176.757 20.3408 176.757 21.2803C176.757 23.0238 177.594 23.8955 179.27 23.8955ZM194.987 21.623C194.987 21.0306 194.742 20.5143 194.251 20.0742C193.76 19.6257 192.926 19.139 191.75 18.6143C190.582 18.0811 189.765 17.641 189.299 17.2939C188.834 16.9385 188.491 16.5534 188.271 16.1387C188.051 15.724 187.941 15.2331 187.941 14.666C187.941 13.6081 188.322 12.7363 189.084 12.0508C189.845 11.3568 190.831 11.0098 192.042 11.0098C193.345 11.0098 194.386 11.3779 195.165 12.1143C195.943 12.8506 196.333 13.8239 196.333 15.0342H194.924C194.924 14.2555 194.657 13.6123 194.124 13.1045C193.591 12.5882 192.897 12.3301 192.042 12.3301C191.212 12.3301 190.552 12.5417 190.061 12.9648C189.579 13.388 189.338 13.9382 189.338 14.6152C189.338 15.1654 189.524 15.6139 189.896 15.9609C190.269 16.3079 191.073 16.7777 192.308 17.3701C193.586 17.9287 194.466 18.39 194.949 18.7539C195.431 19.1178 195.795 19.5241 196.041 19.9727C196.286 20.4128 196.409 20.9375 196.409 21.5469C196.409 22.681 196.015 23.5824 195.228 24.251C194.441 24.9196 193.404 25.2539 192.118 25.2539C190.755 25.2539 189.651 24.8815 188.804 24.1367C187.966 23.3919 187.548 22.4313 187.548 21.2549H188.969C189.012 22.1097 189.295 22.7741 189.82 23.248C190.353 23.7135 191.119 23.9463 192.118 23.9463C192.981 23.9463 193.675 23.7347 194.2 23.3115C194.725 22.8883 194.987 22.3255 194.987 21.623ZM201.842 7.75977V11.2637H204.191V12.5332H201.842V21.6611C201.842 22.4144 201.952 22.9772 202.173 23.3496C202.401 23.7135 202.778 23.8955 203.302 23.8955C203.531 23.8955 203.869 23.8532 204.318 23.7686L204.356 25.0381C204.035 25.182 203.573 25.2539 202.972 25.2539C201.322 25.2539 200.476 24.1198 200.433 21.8516V12.5332H198.313V11.2637H200.433V7.75977H201.842ZM211.796 25.2539C210.179 25.2539 208.914 24.7249 208 23.667C207.086 22.609 206.62 21.1025 206.603 19.1475V17.4717C206.603 15.4574 207.043 13.8789 207.924 12.7363C208.804 11.5853 210.014 11.0098 211.554 11.0098C213.044 11.0098 214.178 11.4964 214.957 12.4697C215.744 13.443 216.146 14.9326 216.163 16.9385V18.2588H208V19.0332C208 20.6074 208.334 21.8219 209.003 22.6768C209.68 23.5316 210.632 23.959 211.859 23.959C213.213 23.959 214.309 23.4639 215.147 22.4736L215.883 23.4131C214.986 24.6403 213.624 25.2539 211.796 25.2539ZM211.554 12.3301C210.446 12.3301 209.591 12.7236 208.99 13.5107C208.397 14.2894 208.072 15.432 208.012 16.9385H214.754V16.5703C214.686 13.7435 213.619 12.3301 211.554 12.3301ZM224.554 12.584C224.216 12.5247 223.92 12.4951 223.666 12.4951C222.887 12.4951 222.231 12.7617 221.698 13.2949C221.173 13.8281 220.801 14.5687 220.581 15.5166V25H219.172V11.2637H220.555L220.581 13.3203C221.249 11.7799 222.299 11.0098 223.729 11.0098C224.102 11.0098 224.385 11.0648 224.58 11.1748L224.554 12.584Z" fill="#222222"/>
<path fill-rule="evenodd" clip-rule="evenodd" d="M5.30246 11.3408C5.1072 11.1455 4.79061 11.1455 4.59535 11.3408L0.00365286 15.9325C-0.00121264 15.9373 -0.00121265 15.9452 0.00365283 15.9501C0.00851832 15.955 0.00851672 15.9629 0.00365119 15.9677C-0.00121609 15.9726 -0.00121755 15.9805 0.00364971 15.9853L4.59535 20.577C4.79061 20.7723 5.10719 20.7723 5.30245 20.577L6.08156 19.7979C6.27683 19.6027 6.27683 19.2861 6.08156 19.0908L3.30321 16.3125C3.10795 16.1172 3.10795 15.8006 3.30321 15.6054L6.08157 12.827C6.27683 12.6317 6.27683 12.3152 6.08157 12.1199L5.30246 11.3408ZM18.6428 11.3408C18.838 11.1455 19.1546 11.1455 19.3499 11.3408L23.9416 15.9325C23.9464 15.9373 23.9464 15.9452 23.9416 15.9501C23.9367 15.955 23.9367 15.9629 23.9416 15.9677C23.9464 15.9726 23.9464 15.9805 23.9416 15.9853L19.3499 20.577C19.1546 20.7723 18.838 20.7723 18.6428 20.577L17.8637 19.7979C17.6684 19.6027 17.6684 19.2861 17.8637 19.0908L20.642 16.3125C20.8373 16.1172 20.8373 15.8006 20.642 15.6054L17.8636 12.827C17.6684 12.6317 17.6684 12.3152 17.8636 12.1199L18.6428 11.3408Z" fill="#FF0000"/>
<path fill-rule="evenodd" clip-rule="evenodd" d="M13.5979 6.68389C13.7243 6.31209 13.393 5.96226 13.0464 6.14676C11.9361 6.73762 11.1802 7.90653 11.1802 9.25199C11.1802 10.0611 11.4536 10.8064 11.913 11.4005C12.028 11.5492 12.0696 11.7452 12.0044 11.9215L9.33338 19.1501C9.26299 19.3406 9.08375 19.4662 8.88235 19.4923C7.1566 19.7161 5.82361 21.1915 5.82361 22.9782C5.82361 23.4196 5.90497 23.8421 6.05351 24.2313C6.19736 24.6082 6.68833 24.5442 6.81825 24.1622L7.55775 21.9881C7.64667 21.7267 7.93069 21.5868 8.19213 21.6757L10.9103 22.6003C11.1718 22.6892 11.3116 22.9732 11.2227 23.2347L10.4364 25.5463C10.31 25.9181 10.6413 26.268 10.988 26.0835C12.0982 25.4926 12.8541 24.3237 12.8541 22.9782C12.8541 22.1453 12.5644 21.38 12.0803 20.7776C11.9602 20.6283 11.9156 20.4283 11.982 20.2485L14.6277 13.0886C14.6993 12.8948 14.8835 12.7684 15.0889 12.7455C16.8451 12.5499 18.2107 11.0604 18.2107 9.25199C18.2107 8.81057 18.1294 8.38816 17.9808 7.99893C17.837 7.62198 17.346 7.68599 17.2161 8.06797L16.4766 10.2421C16.3877 10.5036 16.1036 10.6434 15.8422 10.5545L13.124 9.62993C12.8625 9.541 12.7227 9.25698 12.8116 8.99555L13.5979 6.68389Z" fill="black"/>
<defs>
<clipPath id="clip0">
<rect width="69" height="28" fill="white" transform="translate(30.3474)"/>
</clipPath>
</defs>
</svg>
