<svg width="124" height="27" viewBox="0 0 124 27" fill="none" xmlns="http://www.w3.org/2000/svg">
<g clip-path="url(#clip0)">
<path d="M96.1195 11.7527V21.2828H94.8561V3.19748H96.1195V11.6435L101.407 3.19748H102.616L97.4141 11.5421L103.076 21.275H101.657L96.1195 11.7449V11.7527ZM104.589 8.53962H105.782V13.2579H106.718C107.776 13.2063 108.814 13.5606 109.619 14.2483C110.004 14.6377 110.3 15.1052 110.489 15.6192C110.677 16.1332 110.753 16.6816 110.711 17.2274C110.755 17.7879 110.675 18.3512 110.479 18.8779C110.282 19.4046 109.973 19.882 109.572 20.2767C108.756 20.9686 107.709 21.3278 106.64 21.2828H104.581V8.53962H104.589ZM105.782 14.2015V20.3469H106.539C107.318 20.3781 108.098 20.1286 108.714 19.6216C109.015 19.3128 109.245 18.9421 109.388 18.5353C109.531 18.1285 109.583 17.6955 109.541 17.2664C109.581 16.8455 109.534 16.421 109.404 16.0187C109.274 15.6165 109.063 15.2449 108.785 14.9268C108.2 14.4159 107.438 14.1553 106.663 14.2015H105.782ZM119.43 21.5323C118.907 21.5323 118.4 21.392 117.964 21.119C117.476 20.8128 117.067 20.396 116.771 19.9024C116.404 19.2978 116.133 18.6401 115.967 17.9527C115.749 17.083 115.636 16.1901 115.632 15.2933H113.94V21.2828H112.754V8.53962H113.94V14.2795H115.632C115.616 12.7197 116.022 11.1756 116.825 9.83421C117.091 9.37583 117.47 8.99326 117.926 8.72295C118.382 8.45264 118.9 8.30361 119.43 8.29006C119.96 8.29006 120.483 8.44604 120.935 8.72679C121.426 9.05434 121.84 9.49107 122.136 10.0058C122.509 10.6512 122.777 11.3513 122.932 12.0803C123.134 13.0161 123.236 13.952 123.22 14.9112C123.236 15.8548 123.134 16.8063 122.932 17.7343C122.773 18.4595 122.504 19.1564 122.136 19.801C121.84 20.3235 121.434 20.7603 120.935 21.0878C120.483 21.3842 119.96 21.5323 119.43 21.5323ZM119.43 20.5185C119.834 20.4862 120.22 20.3402 120.545 20.0972C120.869 19.8543 121.118 19.5245 121.263 19.1459C121.84 17.8045 122.097 16.354 122.004 14.8956C122.097 13.445 121.848 11.9867 121.263 10.6531C121.116 10.2774 120.866 9.95085 120.542 9.71082C120.217 9.47079 119.832 9.32705 119.43 9.2961C119.024 9.32764 118.635 9.47119 118.306 9.71077C117.977 9.95035 117.721 10.2766 117.566 10.6531C116.973 11.9789 116.708 13.4372 116.802 14.8956C116.71 16.3533 116.972 17.8116 117.566 19.1459C117.718 19.5254 117.974 19.8548 118.303 20.0973C118.632 20.3397 119.022 20.4856 119.43 20.5185ZM76.1547 26.5157C79.6709 26.5157 83.0431 25.1189 85.5294 22.6326C88.0158 20.1463 89.4126 16.7741 89.4126 13.2579C89.4126 9.74166 88.0158 6.36947 85.5294 3.88314C83.0431 1.39681 79.6709 0 76.1547 0C72.6385 0 69.2663 1.39681 66.78 3.88314C64.2937 6.36947 62.8969 9.74166 62.8969 13.2579C62.8969 16.7741 64.2937 20.1463 66.78 22.6326C69.2663 25.1189 72.6385 26.5157 76.1547 26.5157Z" fill="black"/>
<path d="M74.4078 5.70068C72.9394 5.82835 71.5609 6.46243 70.5084 7.49439C70.0874 7.91476 69.7541 8.41458 69.5279 8.96481C69.3016 9.51505 69.1869 10.1047 69.1905 10.6997V11.7135C69.1867 12.3018 69.2991 12.8849 69.5213 13.4296C69.7435 13.9743 70.071 14.4698 70.4851 14.8876C71.0722 15.4771 71.7697 15.9452 72.5378 16.265C73.3059 16.5848 74.1295 16.7501 74.9615 16.7515C74.9459 16.7515 74.4156 16.0106 74.4156 16.0106V5.70068H74.4078ZM82.4327 21.1344C82.321 20.9951 82.2604 20.8217 82.2612 20.6431V10.7309C82.2607 9.54667 81.7959 8.40986 80.9666 7.56458C80.3794 6.97506 79.6819 6.50701 78.9138 6.18719C78.1457 5.86738 77.3221 5.70206 76.4901 5.70068L77.036 6.44936V19.0755C77.036 19.4244 77.1048 19.7698 77.2386 20.092C77.3723 20.4143 77.5683 20.7069 77.8154 20.9532C78.0624 21.1996 78.3557 21.3947 78.6783 21.5275C79.0009 21.6603 79.3465 21.7281 79.6954 21.7271H82.8929L82.4249 21.1266L82.4327 21.1344Z" fill="white"/>
</g>
<path d="M0.733082 8.87521C0.733082 11.5892 1.80151 13.0553 3.39245 13.8664L0 21.2908H2.25384L5.34214 14.3499H6.96428V21.2908H8.91396V3.18213H6.00503C3.14289 3.18213 0.733082 5.06942 0.733082 8.87521ZM6.96428 12.7278H5.92704C4.22692 12.7278 2.83874 11.7919 2.83874 8.87521C2.83874 5.8649 4.3595 4.81986 5.92704 4.81986H6.96428V12.7278ZM16.3618 13.9444H13.4138V8.52427H11.4408V21.2908H13.4138V15.5665H16.354V21.2908H18.3036V8.52427H16.354V13.9444H16.3618ZM46.0906 8.52427H44.0941L41.0214 14.4279V8.52427H39.0405V21.2908H41.0214V14.927L44.3904 21.2908H46.5429L42.9165 14.5293L46.0828 8.52427H46.0906ZM27.4516 8.52427H21.5245V9.61609C21.5245 13.0085 21.3997 16.9547 20.2377 19.6687H19.4501V23.802H21.2204V21.2908H26.6951V23.7942H28.4654V19.6609H27.4516V8.53207V8.52427ZM25.5019 19.6687H22.1094C23.1701 16.9547 23.2948 13.0319 23.2948 10.3492V10.1152H25.5019V19.6687ZM53.3824 19.0292C52.7854 19.5461 52.0196 19.8264 51.2299 19.8168C49.639 19.8168 48.8747 17.9919 48.8747 14.8023C48.8747 11.5892 49.8885 9.99043 51.3079 9.99043C52.0878 10.0372 52.8365 10.3492 53.4136 10.8795L53.6865 9.00779C52.9895 8.54725 52.1662 8.31553 51.3313 8.3449C48.3444 8.3449 46.8002 10.9029 46.8002 14.9036C46.8002 19.2631 48.4458 21.4624 51.1831 21.4624C52.158 21.4936 53.1094 21.1504 53.8347 20.5031L53.3824 19.037V19.0292ZM34.0805 19.7701C32.5208 19.7701 31.7097 18.2493 31.7097 15.3638H37.0206V14.2719C37.0206 9.94364 35.6325 8.3449 33.5112 8.3449C30.7972 8.3449 29.6586 11.3318 29.6586 15.4418C29.6586 19.3645 31.273 21.4624 33.9089 21.4624C35.0437 21.4817 36.1515 21.1161 37.0518 20.4251L36.5917 18.9044C35.8641 19.4387 34.9907 19.7381 34.0883 19.7623L34.0805 19.7701ZM33.5034 9.96703C34.642 9.96703 35.0008 11.5658 35.0008 13.7416H31.7253C31.8579 11.4644 32.2868 9.96703 33.5034 9.96703Z" fill="black"/>
<defs>
<clipPath id="clip0">
<rect width="65.5094" height="26.5157" fill="white" transform="translate(58.4906)"/>
</clipPath>
</defs>
</svg>
