<svg width="158" height="23" viewBox="0 0 158 23" fill="none" xmlns="http://www.w3.org/2000/svg">
<path d="M86.5925 14.9658L86.8386 16.6533L87.1989 15.1328L89.7302 6.20312H91.154L93.6237 15.1328L93.9753 16.6797L94.2477 14.957L96.2341 6.20312H97.9304L94.8278 19H93.2897L90.653 9.6748L90.4509 8.69922L90.2487 9.6748L87.5153 19H85.9772L82.8835 6.20312H84.571L86.5925 14.9658ZM98.8444 14.1572C98.8444 13.2256 99.0261 12.3877 99.3893 11.6436C99.7585 10.8994 100.268 10.3252 100.919 9.9209C101.575 9.5166 102.322 9.31445 103.16 9.31445C104.455 9.31445 105.501 9.7627 106.298 10.6592C107.1 11.5557 107.502 12.748 107.502 14.2363V14.3506C107.502 15.2764 107.323 16.1084 106.966 16.8467C106.614 17.5791 106.107 18.1504 105.445 18.5605C104.789 18.9707 104.033 19.1758 103.177 19.1758C101.888 19.1758 100.842 18.7275 100.04 17.8311C99.2429 16.9346 98.8444 15.748 98.8444 14.2715V14.1572ZM100.479 14.3506C100.479 15.4053 100.722 16.252 101.209 16.8906C101.701 17.5293 102.357 17.8486 103.177 17.8486C104.004 17.8486 104.66 17.5264 105.146 16.8818C105.633 16.2314 105.876 15.3232 105.876 14.1572C105.876 13.1143 105.627 12.2705 105.129 11.626C104.636 10.9756 103.98 10.6504 103.16 10.6504C102.357 10.6504 101.71 10.9697 101.217 11.6084C100.725 12.2471 100.479 13.1611 100.479 14.3506ZM114.137 10.9492C113.891 10.9082 113.625 10.8877 113.338 10.8877C112.271 10.8877 111.548 11.3418 111.167 12.25V19H109.541V9.49023H111.123L111.149 10.5889C111.682 9.73926 112.438 9.31445 113.417 9.31445C113.733 9.31445 113.973 9.35547 114.137 9.4375V10.9492ZM115.069 14.166C115.069 12.707 115.415 11.5352 116.106 10.6504C116.798 9.75977 117.703 9.31445 118.822 9.31445C119.935 9.31445 120.817 9.69531 121.467 10.457V5.5H123.093V19H121.599L121.52 17.9805C120.87 18.7773 119.965 19.1758 118.804 19.1758C117.703 19.1758 116.803 18.7246 116.106 17.8223C115.415 16.9199 115.069 15.7422 115.069 14.2891V14.166ZM116.695 14.3506C116.695 15.4287 116.918 16.2725 117.363 16.8818C117.808 17.4912 118.424 17.7959 119.209 17.7959C120.24 17.7959 120.993 17.333 121.467 16.4072V12.0391C120.981 11.1426 120.234 10.6943 119.226 10.6943C118.429 10.6943 117.808 11.002 117.363 11.6172C116.918 12.2324 116.695 13.1436 116.695 14.3506ZM129.65 13.2959C128.203 12.8799 127.148 12.3701 126.486 11.7666C125.83 11.1572 125.502 10.4072 125.502 9.5166C125.502 8.50879 125.903 7.67676 126.706 7.02051C127.514 6.3584 128.563 6.02734 129.852 6.02734C130.731 6.02734 131.513 6.19727 132.199 6.53711C132.89 6.87695 133.424 7.3457 133.799 7.94336C134.179 8.54102 134.37 9.19434 134.37 9.90332H132.674C132.674 9.12988 132.427 8.52344 131.935 8.08398C131.443 7.63867 130.749 7.41602 129.852 7.41602C129.02 7.41602 128.37 7.60059 127.901 7.96973C127.438 8.33301 127.207 8.83984 127.207 9.49023C127.207 10.0117 127.426 10.4541 127.866 10.8174C128.311 11.1748 129.064 11.5029 130.125 11.8018C131.191 12.1006 132.023 12.4316 132.621 12.7949C133.224 13.1523 133.67 13.5713 133.957 14.0518C134.25 14.5322 134.396 15.0977 134.396 15.748C134.396 16.7852 133.992 17.6172 133.183 18.2441C132.375 18.8652 131.294 19.1758 129.94 19.1758C129.061 19.1758 128.241 19.0088 127.479 18.6748C126.717 18.335 126.129 17.8721 125.713 17.2861C125.302 16.7002 125.097 16.0352 125.097 15.291H126.794C126.794 16.0645 127.078 16.6768 127.646 17.1279C128.22 17.5732 128.985 17.7959 129.94 17.7959C130.831 17.7959 131.513 17.6143 131.988 17.251C132.463 16.8877 132.7 16.3926 132.7 15.7656C132.7 15.1387 132.48 14.6553 132.041 14.3154C131.601 13.9697 130.804 13.6299 129.65 13.2959ZM138.518 7.1875V9.49023H140.294V10.7471H138.518V16.6445C138.518 17.0254 138.597 17.3125 138.756 17.5059C138.914 17.6934 139.183 17.7871 139.564 17.7871C139.752 17.7871 140.009 17.752 140.338 17.6816V19C139.91 19.1172 139.494 19.1758 139.09 19.1758C138.363 19.1758 137.815 18.9561 137.446 18.5166C137.077 18.0771 136.892 17.4531 136.892 16.6445V10.7471H135.161V9.49023H136.892V7.1875H138.518ZM148.072 19C147.978 18.8125 147.902 18.4785 147.843 17.998C147.088 18.7832 146.185 19.1758 145.136 19.1758C144.199 19.1758 143.428 18.9121 142.825 18.3848C142.227 17.8516 141.928 17.1777 141.928 16.3633C141.928 15.373 142.303 14.6055 143.053 14.0605C143.809 13.5098 144.87 13.2344 146.235 13.2344H147.817V12.4873C147.817 11.9189 147.647 11.4678 147.307 11.1338C146.967 10.7939 146.466 10.624 145.804 10.624C145.224 10.624 144.738 10.7705 144.345 11.0635C143.953 11.3564 143.757 11.7109 143.757 12.127H142.122C142.122 11.6523 142.289 11.1953 142.623 10.7559C142.963 10.3105 143.42 9.95898 143.994 9.70117C144.574 9.44336 145.21 9.31445 145.901 9.31445C146.997 9.31445 147.855 9.58984 148.476 10.1406C149.097 10.6855 149.42 11.4385 149.443 12.3994V16.7764C149.443 17.6494 149.554 18.3438 149.777 18.8594V19H148.072ZM145.374 17.7607C145.883 17.7607 146.367 17.6289 146.824 17.3652C147.281 17.1016 147.612 16.7588 147.817 16.3369V14.3857H146.543C144.55 14.3857 143.554 14.9688 143.554 16.1348C143.554 16.6445 143.724 17.043 144.064 17.3301C144.404 17.6172 144.841 17.7607 145.374 17.7607ZM154.198 7.1875V9.49023H155.973V10.7471H154.198V16.6445C154.198 17.0254 154.277 17.3125 154.435 17.5059C154.593 17.6934 154.863 17.7871 155.244 17.7871C155.431 17.7871 155.689 17.752 156.017 17.6816V19C155.59 19.1172 155.174 19.1758 154.769 19.1758C154.043 19.1758 153.495 18.9561 153.126 18.5166C152.757 18.0771 152.572 17.4531 152.572 16.6445V10.7471H150.841V9.49023H152.572V7.1875H154.198Z" fill="black"/>
<g clip-path="url(#clip0)">
<path d="M37.8706 16.3965C37.5488 16.9192 36.9285 17.3475 36.3082 17.3475C35.3894 17.3475 34.9532 16.4437 34.9532 15.0645C34.9532 13.5195 35.4358 12.4972 37.6633 12.4972H37.8706V16.3965ZM39.6387 16.0395V10.4047C39.6387 7.50449 38.514 6.60074 36.4691 6.60074C35.2981 6.60074 34.2408 7.10024 33.7126 7.55174L34.0575 9.19274C34.6546 8.64524 35.4358 8.14649 36.3546 8.14649C37.3655 8.14649 37.8706 8.81174 37.8706 10.3815V11.094H37.6177C34.3785 11.094 33.1155 12.711 33.1155 15.279C33.1155 17.6325 34.2408 18.9165 35.8952 18.9165C36.9061 18.9165 37.5488 18.465 38.0546 17.799H38.1691C38.1923 18.108 38.2611 18.489 38.33 18.75H39.8459C39.7082 17.8535 39.6392 16.9472 39.6394 16.0395H39.6387ZM43.659 9.45449C44.072 8.85974 44.7162 8.26499 45.4742 8.26499C46.1626 8.26499 46.5539 8.57399 46.5539 9.47774V18.75H48.3684V9.31124C48.3684 7.48124 47.564 6.60074 46.0481 6.60074C44.9684 6.60074 44.0959 7.33799 43.7742 7.78949H43.659V6.74324H41.8677V18.75H43.659V9.45374V9.45449ZM53.6517 18.9165C54.5937 18.9165 55.2365 18.465 55.7423 17.799H55.8568L55.9945 18.75H57.3271V1.75049H55.535V7.05299C55.1908 6.79049 54.6162 6.60074 54.0648 6.60074C51.7452 6.60074 50.1372 8.76449 50.1372 13.2105C50.1372 16.9192 51.3778 18.9165 53.6517 18.9165ZM55.5358 16.4197C55.2365 16.8952 54.7539 17.3475 53.8582 17.3475C52.5488 17.3475 52.0437 15.6352 52.0437 12.8302C52.0437 10.3815 52.7321 8.12249 54.18 8.12249C54.7771 8.12249 55.1677 8.31299 55.535 8.69249V16.4197H55.5358ZM65.7575 17.9422L65.3445 16.515C64.8843 16.848 64.1488 17.3235 63.1387 17.3235C61.7148 17.3235 60.9792 15.897 60.9792 13.1865H65.8032V12.165C65.8032 8.09999 64.5401 6.60149 62.6104 6.60149C60.1524 6.60149 59.1184 9.40649 59.1184 13.2585C59.1184 16.944 60.5894 18.9172 62.9778 18.9172C64.1263 18.9172 65.022 18.537 65.7575 17.9422ZM62.6104 8.12249C63.6437 8.12249 63.9655 9.62024 63.9655 11.6647H61.0017C61.1177 9.52499 61.5075 8.12249 62.6104 8.12249ZM71.8445 6.76724L70.2597 11.118L68.7669 6.76799H66.9053L69.0872 12.5445L66.6763 18.75H68.4445L70.1908 13.8045L71.9821 18.75H73.843L71.4314 12.378L73.5908 6.76799H71.8445V6.76724Z" fill="black"/>
<path d="M30.1626 18.7499V12.7349L34.435 -0.00830078H32.6205L29.2894 10.1669L26.3952 1.75045H24.4198L28.3473 12.6629V18.7499H30.1626Z" fill="#FF0000"/>
</g>
<rect x="0.347351" y="9.47827" width="2.13043" height="8.52174" fill="#FF0000"/>
<rect x="3.69519" y="7.6521" width="2.13043" height="10.3478" fill="#FF0000"/>
<rect x="10.3908" y="7.6521" width="2.13043" height="10.3478" fill="#FF0000"/>
<rect x="13.7386" y="4" width="2.13043" height="14" fill="#FF0000"/>
<rect x="7.043" y="11.3044" width="2.13043" height="6.69565" fill="#FF0000"/>
<defs>
<clipPath id="clip0">
<rect width="50" height="21" fill="white" transform="translate(24.3474)"/>
</clipPath>
</defs>
</svg>
