<svg width="312" height="52" viewBox="0 0 312 52" fill="none" xmlns="http://www.w3.org/2000/svg">
<path d="M233.301 30.0772C233.301 36.3234 228.269 40.9261 222.094 40.9261C215.919 40.9261 210.887 36.3234 210.887 30.0772C210.887 23.787 215.919 19.2283 222.094 19.2283C228.269 19.2283 233.301 23.787 233.301 30.0772ZM228.395 30.0772C228.395 26.1739 225.478 23.5033 222.094 23.5033C218.709 23.5033 215.793 26.1739 215.793 30.0772C215.793 33.9413 218.709 36.6511 222.094 36.6511C225.478 36.6511 228.395 33.9364 228.395 30.0772Z" fill="#EA4335"/>
<path d="M257.477 30.0772C257.477 36.3234 252.445 40.9261 246.27 40.9261C240.095 40.9261 235.063 36.3234 235.063 30.0772C235.063 23.7919 240.095 19.2283 246.27 19.2283C252.445 19.2283 257.477 23.787 257.477 30.0772ZM252.571 30.0772C252.571 26.1739 249.655 23.5033 246.27 23.5033C242.886 23.5033 239.969 26.1739 239.969 30.0772C239.969 33.9413 242.886 36.6511 246.27 36.6511C249.655 36.6511 252.571 33.9364 252.571 30.0772Z" fill="#FBBC05"/>
<path d="M280.646 19.8837V39.3609C280.646 47.3728 275.781 50.6451 270.029 50.6451C264.614 50.6451 261.355 47.1283 260.126 44.2522L264.398 42.5256C265.158 44.2913 267.022 46.375 270.024 46.375C273.706 46.375 275.987 44.169 275.987 40.0163V38.456H275.816C274.718 39.7717 272.602 40.9212 269.933 40.9212C264.347 40.9212 259.23 36.1962 259.23 30.1163C259.23 23.9924 264.347 19.2283 269.933 19.2283C272.597 19.2283 274.713 20.3777 275.816 21.6544H275.987V19.8886H280.646V19.8837ZM276.335 30.1163C276.335 26.2962 273.711 23.5033 270.371 23.5033C266.986 23.5033 264.151 26.2962 264.151 30.1163C264.151 33.8973 266.986 36.6511 270.371 36.6511C273.711 36.6511 276.335 33.8973 276.335 30.1163Z" fill="#2C6DD8"/>
<path d="M288.327 8.46741V40.2609H283.542V8.46741H288.327Z" fill="#34A853"/>
<path d="M306.973 33.6478L310.781 36.1131C309.552 37.8788 306.591 40.9212 301.473 40.9212C295.127 40.9212 290.387 36.1571 290.387 30.0723C290.387 23.6207 295.167 19.2234 300.924 19.2234C306.721 19.2234 309.557 23.7038 310.484 26.125L310.993 27.3576L296.059 33.3641C297.202 35.5408 298.98 36.6511 301.473 36.6511C303.971 36.6511 305.704 35.4576 306.973 33.6478ZM295.253 29.7446L305.236 25.719C304.687 24.3641 303.035 23.4201 301.09 23.4201C298.597 23.4201 295.127 25.5576 295.253 29.7446Z" fill="#EA4335"/>
<path d="M192.772 27.2517V22.649H208.744C208.9 23.4511 208.98 24.4 208.98 25.4272C208.98 28.8805 208.008 33.1506 204.876 36.193C201.828 39.2745 197.935 40.918 192.777 40.918C183.217 40.918 175.179 33.356 175.179 24.0723C175.179 14.7886 183.217 7.22668 192.777 7.22668C198.066 7.22668 201.833 9.2419 204.664 11.8685L201.32 15.1164C199.29 13.2674 196.54 11.8294 192.772 11.8294C185.791 11.8294 180.331 17.293 180.331 24.0723C180.331 30.8517 185.791 36.3153 192.772 36.3153C197.3 36.3153 199.879 34.5495 201.531 32.9452C202.871 31.6441 203.752 29.7854 204.1 27.2468L192.772 27.2517Z" fill="#2C6DD8"/>
<path d="M15.2491 21.9843H12.9779C9.40915 21.9843 5.94838 19.3983 5.94838 12.9318C5.94838 6.1969 9.19313 3.4487 12.4911 3.4487H15.2491V21.9843ZM18.8179 0.000171661H12.6539C6.59645 0.000171661 1.46078 4.58101 1.46078 13.4714C1.46078 18.8056 3.94798 22.7392 8.38231 24.678L0.108435 39.5499C-0.162331 40.0349 0.108434 40.4124 0.540475 40.4124H4.38002C4.70405 40.4124 4.92155 40.3047 5.02956 40.0349L12.5459 25.4329H15.2491V40.0349C15.2491 40.1971 15.4119 40.4124 15.6279 40.4124H18.9806C19.3047 40.4124 19.4127 40.2502 19.4127 39.9818V0.538315C19.4127 0.162354 19.1966 0.000171661 18.8179 0.000171661Z" fill="#ED1E24"/>
<path d="M39.1434 13.3956H35.7906C35.5198 13.3956 35.3586 13.6109 35.3586 13.773V24.0641H29.1398V13.773C29.1398 13.5032 29.0318 13.3956 28.7611 13.3956H25.4083C25.139 13.3956 24.9763 13.5578 24.9763 13.773V39.9606C24.9763 40.2289 25.0843 40.3911 25.3536 40.3911H28.7611C28.9771 40.3911 29.1398 40.2289 29.1398 39.9606V27.4595H35.3586V39.9606C35.3586 40.2289 35.5198 40.3911 35.7906 40.3911H39.1434C39.4141 40.3911 39.5221 40.1744 39.5221 39.9606V13.773C39.5221 13.5578 39.3594 13.3956 39.1434 13.3956Z" fill="#231F20"/>
<path d="M115.691 38.6666L115.259 36.8354C115.204 36.6733 115.151 36.6187 114.988 36.6187C114.717 36.6187 113.259 37.2114 111.149 37.2114C107.04 37.2114 105.038 33.2778 105.038 27.028C105.038 21.5316 106.714 16.0897 109.527 16.0897C110.283 16.0897 111.203 16.305 112.662 17.6526C112.825 17.8147 112.933 17.8678 113.096 17.8678C113.259 17.8678 113.42 17.7602 113.583 17.4904L115.043 15.1196C115.151 14.9589 115.204 14.7967 115.204 14.6345C115.204 14.4193 114.988 14.2586 114.664 14.0964C112.446 12.9641 110.933 12.7488 109.635 12.7488C104.553 12.7488 100.605 18.7834 100.605 28.2134C100.605 36.3489 104.39 41.0374 109.798 41.0374C112.069 41.0374 114.501 39.9596 115.475 39.2593C115.691 39.0971 115.746 38.8818 115.691 38.6666Z" fill="#231F20"/>
<path d="M92.1895 25.5731L98.679 13.7723C98.787 13.6116 98.7323 13.3949 98.5162 13.3949H95.3262C94.4059 13.3949 94.0819 13.7192 93.7579 14.4195L88.8915 24.4953C88.6207 25.088 88.35 25.4654 88.0792 25.6276V13.7723C88.0792 13.557 87.9712 13.3949 87.7552 13.3949H84.2396C84.0784 13.3949 83.9156 13.557 83.9156 13.7723V40.0129C83.9156 40.1751 84.0236 40.3904 84.2396 40.3904H87.7552C87.9712 40.3904 88.0792 40.2282 88.0792 40.0129V26.4886C88.2419 26.5963 88.35 26.7585 88.458 26.9737L94.622 39.5824C94.9475 40.2282 95.4342 40.3904 96.1371 40.3904H99.5978C99.8138 40.3904 99.8686 40.1751 99.7591 40.0129L92.1895 25.5731Z" fill="#231F20"/>
<path d="M55.3651 36.9961H47.5248C50.2827 32.3091 51.3643 27.028 51.7431 20.5615C51.8511 19.1608 51.9044 17.7071 51.9044 16.79H55.3651V36.9961ZM61.2051 36.9961H60.557C59.7447 36.9961 59.5287 36.6733 59.5287 36.026V13.7735C59.5287 13.5037 59.4207 13.3961 59.2047 13.3961H48.3903C48.1196 13.3961 47.9568 13.5568 47.9568 13.7735V15.7123C47.9568 22.2319 47.5795 30.6387 44.1187 36.9961H42.9277C42.6036 36.9961 42.4956 37.1583 42.4956 37.4266V45.2938C42.4956 45.5636 42.7117 45.6713 42.8744 45.6713H45.4696C46.0644 45.6713 46.2804 45.2408 46.2804 44.8633V40.3901H57.8523V45.2938C57.8523 45.5091 58.0151 45.6713 58.2311 45.6713H60.9891C61.3131 45.6713 61.6386 45.4015 61.6386 44.8633V37.4266C61.6386 37.1583 61.4758 36.9961 61.2051 36.9961Z" fill="#231F20"/>
<path d="M71.6413 24.4415C70.3984 24.4415 68.4513 24.6567 68.4513 24.6567C68.4513 24.6567 68.4513 23.8488 68.5593 22.9863C69.0461 18.4069 70.1809 16.0892 72.0748 16.0892C73.8044 16.0892 74.886 18.46 75.1568 22.6103C75.21 23.4714 75.21 24.4415 75.21 24.4415H71.6413ZM72.2361 12.7498C66.3961 12.7498 63.8009 20.0774 63.8009 28.0522C63.8009 36.1877 67.4777 41.0369 72.8856 41.0369C75.5341 41.0369 77.86 40.0137 79.0496 39.2588C79.2656 39.1512 79.3203 38.9905 79.2656 38.7737L78.8336 36.9426C78.7788 36.7273 78.6708 36.6197 78.4 36.6197C78.184 36.6197 76.6156 37.2124 74.3992 37.2124C70.2356 37.2124 68.2885 33.6017 68.2885 28.8601V27.5848C68.2885 27.5848 70.3984 27.8369 71.6413 27.8369H79.5364V25.5738C79.5364 17.2215 76.5624 12.7498 72.2361 12.7498Z" fill="#231F20"/>
<path d="M148 41C148 42.1046 147.105 43 146 43C144.895 43 144 42.1046 144 41V6C144 4.89543 144.895 4 146 4C147.105 4 148 4.89543 148 6V41Z" fill="#333333"/>
</svg>
