<svg width="108" height="44" viewBox="0 0 108 44" fill="none" xmlns="http://www.w3.org/2000/svg">
<g clip-path="url(#clip0)">
<path d="M29.2101 33.9132C28.5151 34.9945 27.1753 35.8802 25.8355 35.8802C23.8508 35.8802 22.9085 34.011 22.9085 31.1582C22.9085 27.9627 23.951 25.8483 28.7625 25.8483H29.2101V33.9132ZM33.0292 33.1749V21.5204C33.0292 15.5217 30.6 13.6525 26.183 13.6525C23.6536 13.6525 21.3699 14.6856 20.2289 15.6195L20.9739 19.0136C22.2637 17.8812 23.951 16.8496 25.9357 16.8496C28.1191 16.8496 29.2101 18.2255 29.2101 21.4723V22.946H28.6638C21.6673 22.946 18.9391 26.2904 18.9391 31.6019C18.9391 36.4697 21.3699 39.1254 24.9433 39.1254C27.1268 39.1254 28.5151 38.1916 29.6077 36.8141H29.855C29.9051 37.4532 30.0538 38.2412 30.2024 38.781H33.4769C33.1795 36.9269 33.0303 35.0523 33.0308 33.1749H33.0292ZM41.7131 19.555C42.6052 18.3248 43.9967 17.0947 45.6339 17.0947C47.1209 17.0947 47.9661 17.7338 47.9661 19.603V38.781H51.8854V19.2587C51.8854 15.4736 50.148 13.6525 46.8736 13.6525C44.5414 13.6525 42.6569 15.1774 41.9619 16.1112H41.7131V13.9472H37.8438V38.781H41.7131V19.5534V19.555ZM63.2974 39.1254C65.3322 39.1254 66.7205 38.1916 67.8131 36.8141H68.0604L68.3578 38.781H71.2362V3.62061H67.3654V14.5879C66.6219 14.0449 65.3807 13.6525 64.1896 13.6525C59.1793 13.6525 55.7061 18.1278 55.7061 27.3236C55.7061 34.9945 58.3857 39.1254 63.2974 39.1254ZM67.367 33.9613C66.7205 34.9448 65.6781 35.8802 63.7435 35.8802C60.9151 35.8802 59.8242 32.3387 59.8242 26.5371C59.8242 21.4723 61.3111 16.8 64.4384 16.8C65.7282 16.8 66.5718 17.194 67.3654 17.9789V33.9613H67.367ZM89.4459 37.1104L88.5537 34.1583C87.5598 34.8471 85.9711 35.8306 83.7892 35.8306C80.7136 35.8306 79.1249 32.8801 79.1249 27.2739H89.5445V25.1611C89.5445 16.7534 86.8164 13.654 82.6482 13.654C77.339 13.654 75.1054 19.4557 75.1054 27.4229C75.1054 35.0457 78.2828 39.127 83.4417 39.127C85.9226 39.127 87.8572 38.3405 89.4459 37.1104ZM82.6482 16.8C84.8802 16.8 85.5751 19.8978 85.5751 24.1265H79.1734C79.4238 19.7008 80.2659 16.8 82.6482 16.8ZM102.594 13.9969L99.1706 22.9956L95.9463 13.9984H91.9252L96.6381 25.9461L91.4306 38.781H95.2497L99.0219 28.5522L102.891 38.781H106.911L101.702 25.6017L106.366 13.9984H102.594V13.9969Z" fill="black"/>
<path d="M12.5609 38.781V26.3401L21.7894 -0.0170898H17.8701L10.6748 21.0286L4.42331 3.62057H0.156525L8.64 26.1911V38.781H12.5609Z" fill="#FF0000"/>
</g>
<defs>
<clipPath id="clip0">
<rect width="108" height="43.4348" fill="white"/>
</clipPath>
</defs>
</svg>
