<svg width="138" height="31" viewBox="0 0 138 31" fill="none" xmlns="http://www.w3.org/2000/svg">
<path d="M80.1836 25V6.51562H84.5381C86.5439 6.51562 88.1309 7.15885 89.2988 8.44531C90.4668 9.72331 91.0677 11.488 91.1016 13.7393V17.6113C91.1016 19.9303 90.5091 21.7415 89.3242 23.0449C88.1478 24.3483 86.4932 25 84.3604 25H80.1836ZM81.6309 7.88672V23.6543H84.4365C86.0869 23.6543 87.3649 23.1465 88.2705 22.1309C89.1761 21.1068 89.6416 19.6468 89.667 17.751V13.8789C89.667 11.9831 89.2227 10.5104 88.334 9.46094C87.4538 8.41146 86.1758 7.88672 84.5 7.88672H81.6309ZM96.2812 25H94.8594V11.2637H96.2812V25ZM94.6562 7.30273C94.6562 7.01497 94.7367 6.76953 94.8975 6.56641C95.0583 6.36328 95.2868 6.26172 95.583 6.26172C95.8792 6.26172 96.1077 6.36328 96.2686 6.56641C96.4378 6.76953 96.5225 7.01497 96.5225 7.30273C96.5225 7.59049 96.4378 7.83594 96.2686 8.03906C96.1077 8.23372 95.8792 8.33105 95.583 8.33105C95.2868 8.33105 95.0583 8.23372 94.8975 8.03906C94.7367 7.83594 94.6562 7.59049 94.6562 7.30273ZM105.574 12.584C105.236 12.5247 104.939 12.4951 104.686 12.4951C103.907 12.4951 103.251 12.7617 102.718 13.2949C102.193 13.8281 101.821 14.5687 101.601 15.5166V25H100.191V11.2637H101.575L101.601 13.3203C102.269 11.7799 103.319 11.0098 104.749 11.0098C105.121 11.0098 105.405 11.0648 105.6 11.1748L105.574 12.584ZM112.341 25.2539C110.724 25.2539 109.459 24.7249 108.545 23.667C107.631 22.609 107.165 21.1025 107.148 19.1475V17.4717C107.148 15.4574 107.589 13.8789 108.469 12.7363C109.349 11.5853 110.559 11.0098 112.1 11.0098C113.589 11.0098 114.723 11.4964 115.502 12.4697C116.289 13.443 116.691 14.9326 116.708 16.9385V18.2588H108.545V19.0332C108.545 20.6074 108.879 21.8219 109.548 22.6768C110.225 23.5316 111.177 23.959 112.404 23.959C113.758 23.959 114.854 23.4639 115.692 22.4736L116.429 23.4131C115.532 24.6403 114.169 25.2539 112.341 25.2539ZM112.1 12.3301C110.991 12.3301 110.136 12.7236 109.535 13.5107C108.943 14.2894 108.617 15.432 108.558 16.9385H115.299V16.5703C115.231 13.7435 114.165 12.3301 112.1 12.3301ZM124.059 23.9463C125.04 23.9463 125.794 23.6712 126.318 23.1211C126.843 22.571 127.127 21.7796 127.169 20.7471H128.527C128.46 22.152 128.011 23.2565 127.182 24.0605C126.352 24.8561 125.311 25.2539 124.059 25.2539C122.425 25.2539 121.189 24.7334 120.352 23.6924C119.522 22.6429 119.099 21.0898 119.082 19.0332V17.3574C119.082 15.2585 119.497 13.6758 120.326 12.6094C121.164 11.543 122.404 11.0098 124.046 11.0098C125.409 11.0098 126.483 11.4414 127.271 12.3047C128.058 13.1595 128.477 14.3571 128.527 15.8975H127.169C127.127 14.7633 126.839 13.8874 126.306 13.2695C125.772 12.6432 125.019 12.3301 124.046 12.3301C122.827 12.3301 121.93 12.7406 121.354 13.5615C120.787 14.3825 120.504 15.6436 120.504 17.3447V18.9062C120.504 20.6667 120.792 21.9489 121.367 22.7529C121.943 23.5485 122.84 23.9463 124.059 23.9463ZM133.644 7.75977V11.2637H135.992V12.5332H133.644V21.6611C133.644 22.4144 133.754 22.9772 133.974 23.3496C134.202 23.7135 134.579 23.8955 135.104 23.8955C135.332 23.8955 135.671 23.8532 136.119 23.7686L136.157 25.0381C135.836 25.182 135.374 25.2539 134.773 25.2539C133.123 25.2539 132.277 24.1198 132.234 21.8516V12.5332H130.114V11.2637H132.234V7.75977H133.644Z" fill="white"/>
<g clip-path="url(#clip0)">
<path d="M18.6621 21.862C18.2181 22.559 17.3621 23.13 16.5061 23.13C15.2381 23.13 14.6361 21.925 14.6361 20.086C14.6361 18.026 15.3021 16.663 18.3761 16.663H18.6621V21.862ZM21.1021 21.386V13.873C21.1021 10.006 19.5501 8.80098 16.7281 8.80098C15.1121 8.80098 13.6531 9.46698 12.9241 10.069L13.4001 12.257C14.2241 11.527 15.3021 10.862 16.5701 10.862C17.9651 10.862 18.6621 11.749 18.6621 13.842V14.792H18.3131C13.8431 14.792 12.1001 16.948 12.1001 20.372C12.1001 23.51 13.6531 25.222 15.9361 25.222C17.3311 25.222 18.2181 24.62 18.9161 23.732H19.0741C19.1061 24.144 19.2011 24.652 19.2961 25H21.3881C21.1981 23.8047 21.1028 22.5963 21.1031 21.386H21.1021ZM26.6501 12.606C27.2201 11.813 28.1091 11.02 29.1551 11.02C30.1051 11.02 30.6451 11.432 30.6451 12.637V25H33.1491V12.415C33.1491 9.97498 32.0391 8.80098 29.9471 8.80098C28.4571 8.80098 27.2531 9.78398 26.8091 10.386H26.6501V8.99098H24.1781V25H26.6501V12.605V12.606ZM40.4401 25.222C41.7401 25.222 42.6271 24.62 43.3251 23.732H43.4831L43.6731 25H45.5121V2.33398H43.0391V9.40398C42.5641 9.05398 41.7711 8.80098 41.0101 8.80098C37.8091 8.80098 35.5901 11.686 35.5901 17.614C35.5901 22.559 37.3021 25.222 40.4401 25.222ZM43.0401 21.893C42.6271 22.527 41.9611 23.13 40.7251 23.13C38.9181 23.13 38.2211 20.847 38.2211 17.107C38.2211 13.842 39.1711 10.83 41.1691 10.83C41.9931 10.83 42.5321 11.084 43.0391 11.59V21.893H43.0401ZM57.1461 23.923L56.5761 22.02C55.9411 22.464 54.9261 23.098 53.5321 23.098C51.5671 23.098 50.5521 21.196 50.5521 17.582H57.2091V16.22C57.2091 10.8 55.4661 8.80198 52.8031 8.80198C49.4111 8.80198 47.9841 12.542 47.9841 17.678C47.9841 22.592 50.0141 25.223 53.3101 25.223C54.8951 25.223 56.1311 24.716 57.1461 23.923ZM52.8031 10.83C54.2291 10.83 54.6731 12.827 54.6731 15.553H50.5831C50.7431 12.7 51.2811 10.83 52.8031 10.83ZM65.5461 9.02298L63.3591 14.824L61.2991 9.02398H58.7301L61.7411 16.726L58.4141 25H60.8541L63.2641 18.406L65.7361 25H68.3041L64.9761 16.504L67.9561 9.02398H65.5461V9.02298Z" fill="white"/>
<path d="M8.0251 25V16.98L13.9211 -0.0109863H11.4171L6.8201 13.556L2.8261 2.33401H0.100098L5.5201 16.884V25H8.0251Z" fill="#FF0000"/>
</g>
<defs>
<clipPath id="clip0">
<rect width="69" height="28" fill="white"/>
</clipPath>
</defs>
</svg>
