<svg width="171" height="31" viewBox="0 0 171 31" fill="none" xmlns="http://www.w3.org/2000/svg">
<path d="M112.531 25V6.51562H116.885C118.891 6.51562 120.478 7.15885 121.646 8.44531C122.814 9.72331 123.415 11.488 123.449 13.7393V17.6113C123.449 19.9303 122.856 21.7415 121.672 23.0449C120.495 24.3483 118.841 25 116.708 25H112.531ZM113.978 7.88672V23.6543H116.784C118.434 23.6543 119.712 23.1465 120.618 22.1309C121.523 21.1068 121.989 19.6468 122.014 17.751V13.8789C122.014 11.9831 121.57 10.5104 120.681 9.46094C119.801 8.41146 118.523 7.88672 116.847 7.88672H113.978ZM128.629 25H127.207V11.2637H128.629V25ZM127.004 7.30273C127.004 7.01497 127.084 6.76953 127.245 6.56641C127.406 6.36328 127.634 6.26172 127.93 6.26172C128.227 6.26172 128.455 6.36328 128.616 6.56641C128.785 6.76953 128.87 7.01497 128.87 7.30273C128.87 7.59049 128.785 7.83594 128.616 8.03906C128.455 8.23372 128.227 8.33105 127.93 8.33105C127.634 8.33105 127.406 8.23372 127.245 8.03906C127.084 7.83594 127.004 7.59049 127.004 7.30273ZM137.922 12.584C137.583 12.5247 137.287 12.4951 137.033 12.4951C136.254 12.4951 135.598 12.7617 135.065 13.2949C134.54 13.8281 134.168 14.5687 133.948 15.5166V25H132.539V11.2637H133.923L133.948 13.3203C134.617 11.7799 135.666 11.0098 137.096 11.0098C137.469 11.0098 137.752 11.0648 137.947 11.1748L137.922 12.584ZM144.688 25.2539C143.072 25.2539 141.806 24.7249 140.892 23.667C139.978 22.609 139.513 21.1025 139.496 19.1475V17.4717C139.496 15.4574 139.936 13.8789 140.816 12.7363C141.696 11.5853 142.907 11.0098 144.447 11.0098C145.937 11.0098 147.071 11.4964 147.849 12.4697C148.636 13.443 149.038 14.9326 149.055 16.9385V18.2588H140.892V19.0332C140.892 20.6074 141.227 21.8219 141.895 22.6768C142.572 23.5316 143.524 23.959 144.752 23.959C146.106 23.959 147.202 23.4639 148.04 22.4736L148.776 23.4131C147.879 24.6403 146.516 25.2539 144.688 25.2539ZM144.447 12.3301C143.338 12.3301 142.483 12.7236 141.883 13.5107C141.29 14.2894 140.964 15.432 140.905 16.9385H147.646V16.5703C147.578 13.7435 146.512 12.3301 144.447 12.3301ZM156.406 23.9463C157.388 23.9463 158.141 23.6712 158.666 23.1211C159.19 22.571 159.474 21.7796 159.516 20.7471H160.875C160.807 22.152 160.358 23.2565 159.529 24.0605C158.7 24.8561 157.659 25.2539 156.406 25.2539C154.772 25.2539 153.537 24.7334 152.699 23.6924C151.869 22.6429 151.446 21.0898 151.429 19.0332V17.3574C151.429 15.2585 151.844 13.6758 152.674 12.6094C153.511 11.543 154.751 11.0098 156.393 11.0098C157.756 11.0098 158.831 11.4414 159.618 12.3047C160.405 13.1595 160.824 14.3571 160.875 15.8975H159.516C159.474 14.7633 159.186 13.8874 158.653 13.2695C158.12 12.6432 157.367 12.3301 156.393 12.3301C155.174 12.3301 154.277 12.7406 153.702 13.5615C153.135 14.3825 152.851 15.6436 152.851 17.3447V18.9062C152.851 20.6667 153.139 21.9489 153.715 22.7529C154.29 23.5485 155.187 23.9463 156.406 23.9463ZM165.991 7.75977V11.2637H168.34V12.5332H165.991V21.6611C165.991 22.4144 166.101 22.9772 166.321 23.3496C166.549 23.7135 166.926 23.8955 167.451 23.8955C167.679 23.8955 168.018 23.8532 168.466 23.7686L168.505 25.0381C168.183 25.182 167.722 25.2539 167.121 25.2539C165.47 25.2539 164.624 24.1198 164.582 21.8516V12.5332H162.462V11.2637H164.582V7.75977H165.991Z" fill="#222222"/>
<g clip-path="url(#clip0)">
<path d="M49.0094 21.862C48.5654 22.559 47.7094 23.13 46.8534 23.13C45.5854 23.13 44.9834 21.925 44.9834 20.086C44.9834 18.026 45.6494 16.663 48.7234 16.663H49.0094V21.862ZM51.4494 21.386V13.873C51.4494 10.006 49.8974 8.80098 47.0754 8.80098C45.4594 8.80098 44.0004 9.46698 43.2714 10.069L43.7474 12.257C44.5714 11.527 45.6494 10.862 46.9174 10.862C48.3124 10.862 49.0094 11.749 49.0094 13.842V14.792H48.6604C44.1904 14.792 42.4474 16.948 42.4474 20.372C42.4474 23.51 44.0004 25.222 46.2834 25.222C47.6784 25.222 48.5654 24.62 49.2634 23.732H49.4214C49.4534 24.144 49.5484 24.652 49.6434 25H51.7354C51.5454 23.8047 51.4501 22.5963 51.4504 21.386H51.4494ZM56.9974 12.606C57.5674 11.813 58.4564 11.02 59.5024 11.02C60.4524 11.02 60.9924 11.432 60.9924 12.637V25H63.4964V12.415C63.4964 9.97498 62.3864 8.80098 60.2944 8.80098C58.8044 8.80098 57.6004 9.78398 57.1564 10.386H56.9974V8.99098H54.5254V25H56.9974V12.605V12.606ZM70.7874 25.222C72.0874 25.222 72.9744 24.62 73.6724 23.732H73.8304L74.0204 25H75.8594V2.33398H73.3864V9.40398C72.9114 9.05398 72.1184 8.80098 71.3574 8.80098C68.1564 8.80098 65.9374 11.686 65.9374 17.614C65.9374 22.559 67.6494 25.222 70.7874 25.222ZM73.3874 21.893C72.9744 22.527 72.3084 23.13 71.0724 23.13C69.2654 23.13 68.5684 20.847 68.5684 17.107C68.5684 13.842 69.5184 10.83 71.5164 10.83C72.3404 10.83 72.8794 11.084 73.3864 11.59V21.893H73.3874ZM87.4934 23.923L86.9234 22.02C86.2884 22.464 85.2734 23.098 83.8794 23.098C81.9144 23.098 80.8994 21.196 80.8994 17.582H87.5564V16.22C87.5564 10.8 85.8134 8.80198 83.1504 8.80198C79.7584 8.80198 78.3314 12.542 78.3314 17.678C78.3314 22.592 80.3614 25.223 83.6574 25.223C85.2424 25.223 86.4784 24.716 87.4934 23.923ZM83.1504 10.83C84.5764 10.83 85.0204 12.827 85.0204 15.553H80.9304C81.0904 12.7 81.6284 10.83 83.1504 10.83ZM95.8934 9.02298L93.7064 14.824L91.6464 9.02398H89.0774L92.0884 16.726L88.7614 25H91.2014L93.6114 18.406L96.0834 25H98.6514L95.3234 16.504L98.3034 9.02398H95.8934V9.02298Z" fill="black"/>
<path d="M38.3724 25V16.98L44.2684 -0.0109863H41.7644L37.1674 13.556L33.1734 2.33401H30.4474L35.8674 16.884V25H38.3724Z" fill="#FF0000"/>
</g>
<path fill-rule="evenodd" clip-rule="evenodd" d="M0.0567017 3H4.3439H5.79719H10.0844H11.247H15.5342H16.4062H20.6207H20.6934V16.9152L22.5827 22.474H18.2955L16.4062 16.9152V16.8789H15.5342V18.6228H11.247V16.8789H10.0844V24H5.79719V16.8789H4.3439V24H0.0567017V16.8789V3Z" fill="#F0CB47"/>
<path fill-rule="evenodd" clip-rule="evenodd" d="M14.8802 6.70581H5.65186V8.37709H14.8802V6.70581ZM14.8802 10.5571H5.65186V12.2284H14.8802V10.5571Z" fill="#242424"/>
<defs>
<clipPath id="clip0">
<rect width="69" height="28" fill="white" transform="translate(30.3474)"/>
</clipPath>
</defs>
</svg>
