<svg width="40" height="12" viewBox="0 0 40 12" fill="none" xmlns="http://www.w3.org/2000/svg">
<path d="M12.6 2.9741C12.456 2.4341 12.03 2.0081 11.488 1.8621C10.508 1.6001 6.57598 1.6001 6.57598 1.6001C6.57598 1.6001 2.64598 1.6001 1.66398 1.8621C1.12398 2.0061 0.697978 2.4321 0.551978 2.9741C0.289978 3.9541 0.289978 6.0001 0.289978 6.0001C0.289978 6.0001 0.289978 8.0461 0.551978 9.0261C0.695978 9.5661 1.12198 9.9921 1.66398 10.1381C2.64598 10.4001 6.57598 10.4001 6.57598 10.4001C6.57598 10.4001 10.508 10.4001 11.488 10.1381C12.028 9.9941 12.454 9.5681 12.6 9.0261C12.862 8.0461 12.862 6.0001 12.862 6.0001C12.862 6.0001 12.862 3.9541 12.6 2.9741Z" fill="#FF0000"/>
<path d="M5.31995 7.88626L8.58595 6.00026L5.31995 4.11426V7.88626Z" fill="white"/>
<path d="M18.538 9.60644C18.29 9.43844 18.112 9.17844 18.008 8.82444C17.904 8.47044 17.85 8.00044 17.85 7.41244V6.61244C17.85 6.01844 17.91 5.54244 18.03 5.18244C18.15 4.82244 18.338 4.56044 18.592 4.39644C18.846 4.23244 19.18 4.14844 19.594 4.14844C20.002 4.14844 20.328 4.23244 20.574 4.40044C20.82 4.56844 21 4.83044 21.114 5.18644C21.228 5.54244 21.284 6.01844 21.284 6.61044V7.41044C21.284 7.99844 21.228 8.47044 21.118 8.82644C21.008 9.18244 20.828 9.44444 20.578 9.60844C20.33 9.77244 19.992 9.85644 19.566 9.85644C19.13 9.85844 18.786 9.77444 18.538 9.60644ZM19.932 8.74244C20 8.56244 20.036 8.26844 20.036 7.86244V6.14444C20.036 5.74844 20.002 5.46044 19.932 5.27644C19.864 5.09444 19.742 5.00244 19.568 5.00244C19.4 5.00244 19.282 5.09444 19.212 5.27644C19.144 5.45844 19.108 5.74844 19.108 6.14444V7.86244C19.108 8.27044 19.14 8.56444 19.206 8.74244C19.272 8.92244 19.392 9.01244 19.566 9.01244C19.742 9.01244 19.862 8.92244 19.932 8.74244Z" fill="black"/>
<path d="M37.632 7.42634V7.70434C37.632 8.05834 37.642 8.32234 37.664 8.50034C37.684 8.67634 37.728 8.80634 37.794 8.88634C37.86 8.96634 37.962 9.00834 38.1 9.00834C38.286 9.00834 38.414 8.93634 38.482 8.79234C38.55 8.64834 38.588 8.40834 38.594 8.07234L39.664 8.13434C39.67 8.18234 39.672 8.24834 39.672 8.33234C39.672 8.84234 39.532 9.22234 39.254 9.47434C38.976 9.72634 38.582 9.85234 38.072 9.85234C37.46 9.85234 37.032 9.66034 36.786 9.27634C36.54 8.89234 36.418 8.30034 36.418 7.49634V6.53434C36.418 5.70634 36.546 5.10434 36.8 4.72234C37.054 4.34234 37.49 4.15234 38.108 4.15234C38.534 4.15234 38.86 4.23034 39.088 4.38634C39.316 4.54234 39.476 4.78434 39.57 5.11434C39.662 5.44434 39.71 5.90034 39.71 6.48034V7.42434H37.632V7.42634ZM37.79 5.10634C37.728 5.18434 37.686 5.31234 37.664 5.48834C37.642 5.66434 37.632 5.93434 37.632 6.29234V6.68834H38.54V6.29234C38.54 5.93834 38.528 5.67034 38.504 5.48834C38.48 5.30634 38.436 5.17634 38.374 5.10234C38.312 5.02834 38.214 4.99034 38.082 4.99034C37.95 4.98834 37.852 5.02834 37.79 5.10634Z" fill="black"/>
<path d="M15.518 7.32217L14.106 2.22417H15.338L15.832 4.53417C15.958 5.10417 16.05 5.58817 16.11 5.99017H16.146C16.188 5.70217 16.28 5.22017 16.424 4.54217L16.936 2.22217H18.168L16.74 7.32217V9.76817H15.518V7.32217Z" fill="black"/>
<path d="M25.29 4.25635V9.76635H24.32L24.212 9.09235H24.186C23.922 9.60235 23.526 9.85635 23 9.85635C22.634 9.85635 22.364 9.73635 22.19 9.49635C22.016 9.25635 21.93 8.88235 21.93 8.37235V4.25635H23.17V8.30235C23.17 8.54835 23.196 8.72435 23.25 8.82835C23.304 8.93235 23.394 8.98635 23.52 8.98635C23.628 8.98635 23.732 8.95435 23.83 8.88835C23.928 8.82235 24.002 8.73835 24.05 8.63635V4.25635H25.29Z" fill="black"/>
<path d="M31.6539 4.25635V9.76635H30.6839L30.5759 9.09235H30.5499C30.2859 9.60235 29.8899 9.85635 29.3639 9.85635C28.9979 9.85635 28.7279 9.73635 28.5539 9.49635C28.3799 9.25635 28.2939 8.88235 28.2939 8.37235V4.25635H29.5339V8.30235C29.5339 8.54835 29.5599 8.72435 29.6139 8.82835C29.6679 8.93235 29.7579 8.98635 29.8839 8.98635C29.9919 8.98635 30.0959 8.95435 30.1939 8.88835C30.2919 8.82235 30.3659 8.73835 30.4139 8.63635V4.25635H31.6539Z" fill="black"/>
<path d="M28.6619 3.22212H27.4299V9.76612H26.2159V3.22212H24.9839V2.22412H28.66V3.22212H28.6619Z" fill="black"/>
<path d="M35.76 5.13829C35.684 4.79029 35.564 4.53829 35.396 4.38229C35.228 4.22629 34.998 4.14829 34.704 4.14829C34.476 4.14829 34.264 4.21229 34.066 4.34229C33.868 4.47029 33.716 4.64029 33.608 4.85029H33.598V1.94629H32.402V9.76829H33.426L33.552 9.24629H33.578C33.674 9.43229 33.818 9.57829 34.01 9.68629C34.202 9.79429 34.414 9.84829 34.648 9.84829C35.068 9.84829 35.376 9.65429 35.574 9.26829C35.772 8.88229 35.87 8.27829 35.87 7.45629V6.58429C35.872 5.96829 35.834 5.48629 35.76 5.13829ZM34.622 7.38629C34.622 7.78829 34.606 8.10229 34.572 8.33029C34.54 8.55829 34.484 8.72029 34.406 8.81629C34.328 8.91229 34.224 8.96029 34.092 8.96029C33.99 8.96029 33.896 8.93629 33.808 8.88829C33.722 8.84029 33.65 8.76829 33.596 8.67229V5.54229C33.638 5.39229 33.71 5.27029 33.812 5.17429C33.914 5.07829 34.024 5.03029 34.144 5.03029C34.27 5.03029 34.368 5.08029 34.436 5.17829C34.504 5.27629 34.552 5.44429 34.58 5.67629C34.606 5.91029 34.62 6.24229 34.62 6.67429V7.38629H34.622Z" fill="black"/>
</svg>
